G04 #@! TF.GenerationSoftware,KiCad,Pcbnew,5.1.5-52549c5~84~ubuntu18.04.1*
G04 #@! TF.CreationDate,2019-12-14T15:24:26-06:00*
G04 #@! TF.ProjectId,Gimbal_Board,47696d62-616c-45f4-926f-6172642e6b69,rev?*
G04 #@! TF.SameCoordinates,Original*
G04 #@! TF.FileFunction,Copper,L2,Bot*
G04 #@! TF.FilePolarity,Positive*
%FSLAX46Y46*%
G04 Gerber Fmt 4.6, Leading zero omitted, Abs format (unit mm)*
G04 Created by KiCad (PCBNEW 5.1.5-52549c5~84~ubuntu18.04.1) date 2019-12-14 15:24:26*
%MOMM*%
%LPD*%
G04 APERTURE LIST*
%ADD10C,1.520000*%
%ADD11C,1.524000*%
%ADD12R,2.500000X1.500000*%
%ADD13O,2.500000X1.500000*%
%ADD14O,3.500000X2.200000*%
%ADD15C,1.600000*%
%ADD16R,1.600000X1.600000*%
%ADD17C,5.080000*%
%ADD18C,0.800000*%
%ADD19C,0.762000*%
%ADD20C,0.381000*%
%ADD21C,0.254000*%
G04 APERTURE END LIST*
D10*
X91440000Y-60960000D03*
X88900000Y-60960000D03*
X86360000Y-60960000D03*
X83820000Y-60960000D03*
X81280000Y-60960000D03*
X78740000Y-60960000D03*
X76200000Y-60960000D03*
X73660000Y-60960000D03*
X71120000Y-60960000D03*
X68580000Y-60960000D03*
X91440000Y-63500000D03*
X88900000Y-63500000D03*
X86360000Y-63500000D03*
X83820000Y-63500000D03*
X81280000Y-63500000D03*
X78740000Y-63500000D03*
X76200000Y-63500000D03*
X73660000Y-63500000D03*
X71120000Y-63500000D03*
X68580000Y-63500000D03*
X91440000Y-106680000D03*
X88900000Y-106680000D03*
X86360000Y-106680000D03*
X83820000Y-106680000D03*
X81280000Y-106680000D03*
X78740000Y-106680000D03*
X76200000Y-106680000D03*
X73660000Y-106680000D03*
X71120000Y-106680000D03*
X68580000Y-106680000D03*
X91440000Y-104140000D03*
X88900000Y-104140000D03*
X86360000Y-104140000D03*
X83820000Y-104140000D03*
X81280000Y-104140000D03*
X78740000Y-104140000D03*
X76200000Y-104140000D03*
X73660000Y-104140000D03*
X71120000Y-104140000D03*
X68580000Y-104140000D03*
X137160000Y-60960000D03*
X134620000Y-60960000D03*
X132080000Y-60960000D03*
X154940000Y-63500000D03*
X152400000Y-63500000D03*
X149860000Y-63500000D03*
X147320000Y-63500000D03*
X144780000Y-63500000D03*
X142240000Y-63500000D03*
X139700000Y-63500000D03*
X137160000Y-63500000D03*
X134620000Y-63500000D03*
X132080000Y-63500000D03*
X154940000Y-106680000D03*
X149860000Y-106680000D03*
X144780000Y-106680000D03*
X142240000Y-106680000D03*
X139700000Y-106680000D03*
X137160000Y-106680000D03*
X134620000Y-106680000D03*
X154940000Y-104140000D03*
X149860000Y-104140000D03*
X139700000Y-104140000D03*
X137160000Y-104140000D03*
X134620000Y-104140000D03*
X132080000Y-104140000D03*
X144780000Y-104140000D03*
X147320000Y-104140000D03*
X152400000Y-106680000D03*
X139700000Y-60960000D03*
X142240000Y-60960000D03*
X152400000Y-104140000D03*
X147320000Y-106680000D03*
X149860000Y-60960000D03*
X147320000Y-60960000D03*
X142240000Y-104140000D03*
X144780000Y-60960000D03*
X152400000Y-60960000D03*
X154940000Y-60960000D03*
X132080000Y-106680000D03*
D11*
X148082000Y-52578000D03*
X150622000Y-52578000D03*
X153162000Y-52578000D03*
D12*
X170180000Y-96742000D03*
D13*
X170180000Y-94742000D03*
X170180000Y-92742000D03*
D14*
X170180000Y-98842000D03*
X170180000Y-90642000D03*
D15*
X140264000Y-74676000D03*
D16*
X143764000Y-74676000D03*
X121412000Y-74676000D03*
D15*
X117912000Y-74676000D03*
D11*
X83058000Y-52578000D03*
X80518000Y-52578000D03*
X77978000Y-52578000D03*
X91948000Y-52578000D03*
X94488000Y-52578000D03*
X97028000Y-52578000D03*
X110998000Y-52578000D03*
X108458000Y-52578000D03*
X105918000Y-52578000D03*
X120015000Y-52578000D03*
X122555000Y-52578000D03*
X125095000Y-52578000D03*
X134112000Y-52578000D03*
X136652000Y-52578000D03*
X139192000Y-52578000D03*
X162052000Y-52578000D03*
X164592000Y-52578000D03*
X167132000Y-52578000D03*
X181102000Y-52578000D03*
X178562000Y-52578000D03*
X176022000Y-52578000D03*
X93980000Y-88138000D03*
X93980000Y-85598000D03*
X93980000Y-83058000D03*
X93980000Y-93726000D03*
X93980000Y-96266000D03*
X93980000Y-98806000D03*
D15*
X164394000Y-74930000D03*
D16*
X167894000Y-74930000D03*
D17*
X85471000Y-97663000D03*
X85471000Y-89789000D03*
X85471000Y-81915000D03*
D18*
X90678000Y-72517000D03*
X113944400Y-90170000D03*
X120802400Y-90119200D03*
X127533400Y-90093800D03*
X134264400Y-90119200D03*
X140970000Y-90068400D03*
X147701000Y-90043000D03*
X154355800Y-90093800D03*
X161137600Y-90093800D03*
X159740600Y-103911400D03*
X165582600Y-101066600D03*
X96342200Y-73520300D03*
X102743000Y-67945000D03*
X94107000Y-68199000D03*
X87630000Y-56007000D03*
X133604000Y-101346000D03*
X99314000Y-72390000D03*
X174498000Y-54737000D03*
X160401000Y-54737000D03*
X146431000Y-54737000D03*
X132461000Y-54737000D03*
X118237000Y-54737000D03*
X104013000Y-54737000D03*
X89916000Y-54737000D03*
X76073000Y-54737000D03*
X95342285Y-73533456D03*
X98552000Y-54737000D03*
X98333000Y-78867000D03*
X73660000Y-52578000D03*
X87630000Y-52578000D03*
X101473000Y-52578000D03*
X115316000Y-52578000D03*
X129413000Y-52578000D03*
X143510000Y-52578000D03*
X157607000Y-52578000D03*
X171450000Y-52578000D03*
X76073000Y-57883500D03*
X90297000Y-58674000D03*
X72390000Y-59182000D03*
X89154000Y-58674000D03*
X103378000Y-58674000D03*
X102362000Y-58674000D03*
X118491000Y-59817000D03*
X117221000Y-59817000D03*
X132334000Y-58674000D03*
X146558000Y-59182000D03*
X145542000Y-59182000D03*
X160655000Y-59690000D03*
X159639000Y-60706000D03*
X174879000Y-59690000D03*
X173736000Y-59690000D03*
X115570000Y-101600000D03*
X129032000Y-101600000D03*
X135826500Y-101536500D03*
X142494000Y-101375185D03*
X149225000Y-101536500D03*
X134972500Y-94361000D03*
X164026315Y-94361000D03*
X130976000Y-92368000D03*
X137668000Y-92329000D03*
X144272000Y-92329000D03*
X151003000Y-92329000D03*
X157734000Y-92329000D03*
X124079000Y-92392500D03*
X117499500Y-92368000D03*
X110705000Y-92368000D03*
X101346000Y-83058000D03*
X161925000Y-100965000D03*
X158623000Y-101028500D03*
D19*
X90678000Y-84582000D02*
X85471000Y-89789000D01*
X90678000Y-72517000D02*
X90678000Y-84582000D01*
X87122000Y-97663000D02*
X85471000Y-97663000D01*
X99314000Y-72390000D02*
X99314000Y-85471000D01*
X92211501Y-92573499D02*
X99314000Y-85471000D01*
X90560501Y-92573499D02*
X92211501Y-92573499D01*
X85471000Y-97663000D02*
X90560501Y-92573499D01*
D20*
X174498000Y-54737000D02*
X160401000Y-54737000D01*
X160401000Y-54737000D02*
X146431000Y-54737000D01*
X146431000Y-54737000D02*
X132461000Y-54737000D01*
X132461000Y-54737000D02*
X118237000Y-54737000D01*
X118237000Y-54737000D02*
X104013000Y-54737000D01*
X89916000Y-54737000D02*
X76073000Y-54737000D01*
X95159102Y-73533456D02*
X95342285Y-73533456D01*
X93980000Y-74712558D02*
X95159102Y-73533456D01*
X98552000Y-54737000D02*
X89916000Y-54737000D01*
X104013000Y-54737000D02*
X98552000Y-54737000D01*
X93980000Y-74712558D02*
X93980000Y-83058000D01*
X176022000Y-52578000D02*
X171450000Y-52578000D01*
X162052000Y-52578000D02*
X160974370Y-52578000D01*
X160974370Y-52578000D02*
X157607000Y-52578000D01*
X148082000Y-52578000D02*
X147004370Y-52578000D01*
X147004370Y-52578000D02*
X143510000Y-52578000D01*
X134112000Y-52578000D02*
X129413000Y-52578000D01*
X120015000Y-52578000D02*
X115316000Y-52578000D01*
X105918000Y-52578000D02*
X101473000Y-52578000D01*
X91948000Y-52578000D02*
X87630000Y-52578000D01*
X87630000Y-52578000D02*
X87630000Y-52578000D01*
X101473000Y-52578000D02*
X101473000Y-52578000D01*
X115316000Y-52578000D02*
X115316000Y-52578000D01*
X129413000Y-52578000D02*
X129413000Y-52578000D01*
X143510000Y-52578000D02*
X143510000Y-52578000D01*
X157607000Y-52578000D02*
X157607000Y-52578000D01*
X171450000Y-52578000D02*
X171450000Y-52578000D01*
X68580000Y-63500000D02*
X69850000Y-62230000D01*
X69850000Y-62230000D02*
X69850000Y-60960000D01*
X69850000Y-60960000D02*
X69850000Y-59182000D01*
X69850000Y-59182000D02*
X71148500Y-57883500D01*
X83058000Y-52578000D02*
X81534000Y-51054000D01*
X81534000Y-51054000D02*
X76073000Y-51054000D01*
X73885500Y-57883500D02*
X76073000Y-57883500D01*
X73885500Y-57883500D02*
X74196500Y-57883500D01*
X71148500Y-57883500D02*
X73885500Y-57883500D01*
X74196500Y-57883500D02*
X74930000Y-57150000D01*
X74930000Y-52197000D02*
X76073000Y-51054000D01*
X74930000Y-57150000D02*
X74930000Y-52197000D01*
X85471000Y-58674000D02*
X73279000Y-58674000D01*
X73279000Y-58674000D02*
X72898000Y-58674000D01*
X72898000Y-58674000D02*
X72390000Y-59182000D01*
X89154000Y-58674000D02*
X85471000Y-58674000D01*
X90297000Y-58674000D02*
X89154000Y-58674000D01*
X74930000Y-62230000D02*
X73660000Y-63500000D01*
X84709000Y-62230000D02*
X84455000Y-62230000D01*
X84455000Y-62230000D02*
X74930000Y-62230000D01*
X88519000Y-62230000D02*
X84455000Y-62230000D01*
X94234000Y-62230000D02*
X88519000Y-62230000D01*
X96621936Y-59842064D02*
X94234000Y-62230000D01*
X96659532Y-59829532D02*
X96647000Y-59842064D01*
X96647000Y-59842064D02*
X96621936Y-59842064D01*
X96659532Y-59829532D02*
X96659532Y-59804468D01*
X96659532Y-59804468D02*
X97282000Y-59182000D01*
X97282000Y-59182000D02*
X97536000Y-58928000D01*
X97536000Y-58928000D02*
X97790000Y-58674000D01*
X102362000Y-58674000D02*
X103378000Y-58674000D01*
X97790000Y-58674000D02*
X102362000Y-58674000D01*
X97790000Y-59817000D02*
X97917000Y-59817000D01*
X92583000Y-65024000D02*
X97790000Y-59817000D01*
X77724000Y-65024000D02*
X92583000Y-65024000D01*
X76200000Y-63500000D02*
X77724000Y-65024000D01*
X118491000Y-59817000D02*
X117475000Y-59817000D01*
X117221000Y-59817000D02*
X97917000Y-59817000D01*
X117475000Y-59817000D02*
X117221000Y-59817000D01*
X132207000Y-58674000D02*
X132334000Y-58674000D01*
X131508500Y-59372500D02*
X132207000Y-58674000D01*
X131572000Y-63500000D02*
X132080000Y-63500000D01*
X130556000Y-62484000D02*
X131572000Y-63500000D01*
X131508500Y-59372500D02*
X130556000Y-60325000D01*
X130556000Y-60325000D02*
X130556000Y-62484000D01*
X135890000Y-62230000D02*
X134620000Y-63500000D01*
X135890000Y-59817000D02*
X135890000Y-62230000D01*
X136525000Y-59182000D02*
X135890000Y-59817000D01*
X145542000Y-59182000D02*
X136525000Y-59182000D01*
X146558000Y-59182000D02*
X145542000Y-59182000D01*
X138430000Y-62230000D02*
X137160000Y-63500000D01*
X160655000Y-59690000D02*
X160255001Y-60089999D01*
X158115000Y-62230000D02*
X138430000Y-62230000D01*
X159639000Y-60706000D02*
X158115000Y-62230000D01*
X160255001Y-60089999D02*
X159639000Y-60706000D01*
X139700000Y-63500000D02*
X141224000Y-65024000D01*
X156569742Y-65024000D02*
X161903742Y-59690000D01*
X141224000Y-65024000D02*
X156569742Y-65024000D01*
X173736000Y-59690000D02*
X174879000Y-59690000D01*
X161903742Y-59690000D02*
X173736000Y-59690000D01*
X115570000Y-103124000D02*
X115570000Y-101600000D01*
X117856000Y-105410000D02*
X115570000Y-103124000D01*
X137160000Y-106680000D02*
X135890000Y-105410000D01*
X135890000Y-105410000D02*
X117856000Y-105410000D01*
X145332241Y-102989499D02*
X130421499Y-102989499D01*
X146050000Y-103707258D02*
X145332241Y-102989499D01*
X147320000Y-106680000D02*
X146050000Y-105410000D01*
X130421499Y-102989499D02*
X129032000Y-101600000D01*
X146050000Y-105410000D02*
X146050000Y-103707258D01*
X135826500Y-102102185D02*
X135826500Y-101536500D01*
X136132804Y-102408489D02*
X135826500Y-102102185D01*
X148590000Y-105410000D02*
X148590000Y-103707258D01*
X149860000Y-106680000D02*
X148590000Y-105410000D01*
X145572903Y-102408489D02*
X136132804Y-102408489D01*
X148590000Y-103707258D02*
X147872241Y-102989499D01*
X147872241Y-102989499D02*
X146153913Y-102989499D01*
X146153913Y-102989499D02*
X145572903Y-102408489D01*
X142721479Y-101827479D02*
X142494000Y-101600000D01*
X151130000Y-105410000D02*
X151130000Y-103501172D01*
X150037317Y-102408489D02*
X146394575Y-102408489D01*
X142494000Y-101600000D02*
X142494000Y-101375185D01*
X152400000Y-106680000D02*
X151130000Y-105410000D01*
X146394575Y-102408489D02*
X145813566Y-101827480D01*
X151130000Y-103501172D02*
X150037317Y-102408489D01*
X145813566Y-101827480D02*
X142721479Y-101827479D01*
X149225000Y-101536500D02*
X149225000Y-101540328D01*
X153670000Y-105410000D02*
X154940000Y-106680000D01*
X153670000Y-102743000D02*
X153670000Y-105410000D01*
X149225000Y-101536500D02*
X152463500Y-101536500D01*
X152463500Y-101536500D02*
X153670000Y-102743000D01*
X164026315Y-94361000D02*
X141859000Y-94361000D01*
X141859000Y-94361000D02*
X134972500Y-94361000D01*
X131015000Y-92329000D02*
X130976000Y-92368000D01*
X145796000Y-92329000D02*
X144272000Y-92329000D01*
X130951500Y-92392500D02*
X130976000Y-92368000D01*
X117524000Y-92392500D02*
X117499500Y-92368000D01*
X117499500Y-92368000D02*
X110705000Y-92368000D01*
X124079000Y-92392500D02*
X117524000Y-92392500D01*
X124079000Y-92392500D02*
X130951500Y-92392500D01*
X137668000Y-92329000D02*
X131015000Y-92329000D01*
X137668000Y-92329000D02*
X144272000Y-92329000D01*
X157734000Y-92329000D02*
X151003000Y-92329000D01*
X151003000Y-92329000D02*
X145796000Y-92329000D01*
X109537500Y-102870000D02*
X109537500Y-93535500D01*
X109537500Y-93535500D02*
X110705000Y-92368000D01*
X106997500Y-105410000D02*
X109537500Y-102870000D01*
X68580000Y-106680000D02*
X69850000Y-105410000D01*
X69850000Y-105410000D02*
X106997500Y-105410000D01*
X101395000Y-83058000D02*
X110705000Y-92368000D01*
X101346000Y-83058000D02*
X101395000Y-83058000D01*
X161925000Y-100965000D02*
X161359315Y-100965000D01*
X161359315Y-100965000D02*
X158686500Y-100965000D01*
X158686500Y-100965000D02*
X158623000Y-101028500D01*
D21*
G36*
X191110001Y-52037581D02*
G01*
X191110000Y-85565721D01*
X191080766Y-85863876D01*
X191003551Y-86119624D01*
X190878131Y-86355504D01*
X190709289Y-86562525D01*
X190503446Y-86732813D01*
X190268444Y-86859879D01*
X190013240Y-86938877D01*
X189717118Y-86970000D01*
X174022419Y-86970000D01*
X173990000Y-86966807D01*
X173957581Y-86970000D01*
X173860617Y-86979550D01*
X173736207Y-87017290D01*
X173621550Y-87078575D01*
X173521052Y-87161052D01*
X173438575Y-87261550D01*
X173377290Y-87376207D01*
X173339550Y-87500617D01*
X173326807Y-87630000D01*
X173330001Y-87662429D01*
X173330000Y-108425581D01*
X173326807Y-108458000D01*
X173339550Y-108587383D01*
X173377290Y-108711793D01*
X173438575Y-108826450D01*
X173519645Y-108925233D01*
X173521052Y-108926948D01*
X173621550Y-109009425D01*
X173736207Y-109070710D01*
X173860617Y-109108450D01*
X173990000Y-109121193D01*
X174022419Y-109118000D01*
X189705721Y-109118000D01*
X190003875Y-109147234D01*
X190259622Y-109224448D01*
X190495504Y-109349869D01*
X190702530Y-109518716D01*
X190872813Y-109724554D01*
X190999879Y-109959556D01*
X191078876Y-110214756D01*
X191110001Y-110510891D01*
X191110000Y-118045339D01*
X190769946Y-118153211D01*
X190714974Y-118176772D01*
X190659659Y-118199571D01*
X190651553Y-118203954D01*
X190304030Y-118395006D01*
X190254674Y-118428801D01*
X190204847Y-118461906D01*
X190197747Y-118467780D01*
X189893951Y-118722695D01*
X189852105Y-118765428D01*
X189809653Y-118807584D01*
X189803829Y-118814725D01*
X189555332Y-119123794D01*
X189522606Y-119173805D01*
X189489127Y-119223439D01*
X189484801Y-119231576D01*
X189301068Y-119583022D01*
X189278656Y-119638494D01*
X189255478Y-119693632D01*
X189252815Y-119702454D01*
X189140845Y-120082896D01*
X189129645Y-120141612D01*
X189117607Y-120200254D01*
X189116708Y-120209425D01*
X189080766Y-120604370D01*
X189081184Y-120664186D01*
X189080766Y-120724003D01*
X189081665Y-120733174D01*
X189123118Y-121127577D01*
X189135148Y-121186183D01*
X189146355Y-121244935D01*
X189149019Y-121253757D01*
X189266290Y-121632599D01*
X189289474Y-121687750D01*
X189311880Y-121743208D01*
X189316206Y-121751345D01*
X189504828Y-122100193D01*
X189538283Y-122149792D01*
X189571032Y-122199838D01*
X189576855Y-122206977D01*
X189576858Y-122206981D01*
X189576862Y-122206985D01*
X189829644Y-122512547D01*
X189872061Y-122554669D01*
X189913943Y-122597438D01*
X189921044Y-122603311D01*
X190228369Y-122853960D01*
X190278178Y-122887052D01*
X190327550Y-122920859D01*
X190335656Y-122925241D01*
X190685813Y-123111423D01*
X190741105Y-123134212D01*
X190796101Y-123157784D01*
X190804905Y-123160509D01*
X191110001Y-123252623D01*
X191110000Y-131285721D01*
X191080766Y-131583876D01*
X191003551Y-131839624D01*
X190878131Y-132075504D01*
X190709289Y-132282525D01*
X190503446Y-132452813D01*
X190268444Y-132579879D01*
X190013240Y-132658877D01*
X189717118Y-132690000D01*
X69374279Y-132690000D01*
X69076124Y-132660766D01*
X68820376Y-132583551D01*
X68584496Y-132458131D01*
X68377475Y-132289289D01*
X68207187Y-132083446D01*
X68080121Y-131848444D01*
X68001123Y-131593240D01*
X67970000Y-131297118D01*
X67970000Y-123254661D01*
X68310055Y-123146789D01*
X68365040Y-123123222D01*
X68420341Y-123100429D01*
X68428447Y-123096046D01*
X68775970Y-122904994D01*
X68825327Y-122871199D01*
X68875153Y-122838094D01*
X68882254Y-122832220D01*
X69186049Y-122577305D01*
X69227912Y-122534555D01*
X69270347Y-122492416D01*
X69276171Y-122485274D01*
X69524668Y-122176206D01*
X69557415Y-122126164D01*
X69590873Y-122076561D01*
X69595199Y-122068425D01*
X69778932Y-121716978D01*
X69801337Y-121661523D01*
X69824522Y-121606368D01*
X69827185Y-121597546D01*
X69939155Y-121217104D01*
X69950355Y-121158388D01*
X69962393Y-121099746D01*
X69963292Y-121090575D01*
X69999234Y-120695630D01*
X69998816Y-120635814D01*
X69999234Y-120575997D01*
X69998334Y-120566826D01*
X69956882Y-120172422D01*
X69944855Y-120113829D01*
X69933645Y-120055065D01*
X69930981Y-120046243D01*
X69813710Y-119667401D01*
X69790526Y-119612250D01*
X69768120Y-119556792D01*
X69763794Y-119548655D01*
X69575172Y-119199807D01*
X69541717Y-119150208D01*
X69508968Y-119100162D01*
X69503144Y-119093021D01*
X69250356Y-118787453D01*
X69207923Y-118745315D01*
X69166057Y-118702562D01*
X69158962Y-118696694D01*
X69158957Y-118696689D01*
X69158952Y-118696685D01*
X68851631Y-118446041D01*
X68801838Y-118412959D01*
X68752449Y-118379141D01*
X68744343Y-118374759D01*
X68394187Y-118188577D01*
X68338867Y-118165776D01*
X68283899Y-118142216D01*
X68275099Y-118139492D01*
X68275093Y-118139490D01*
X67970000Y-118047378D01*
X67970000Y-107937267D01*
X68173093Y-108021391D01*
X68442604Y-108075000D01*
X68717396Y-108075000D01*
X68986907Y-108021391D01*
X69240780Y-107916233D01*
X69469261Y-107763567D01*
X69663567Y-107569261D01*
X69816233Y-107340780D01*
X69850000Y-107259260D01*
X69883767Y-107340780D01*
X70036433Y-107569261D01*
X70230739Y-107763567D01*
X70459220Y-107916233D01*
X70713093Y-108021391D01*
X70982604Y-108075000D01*
X71257396Y-108075000D01*
X71526907Y-108021391D01*
X71780780Y-107916233D01*
X72009261Y-107763567D01*
X72203567Y-107569261D01*
X72356233Y-107340780D01*
X72390000Y-107259260D01*
X72423767Y-107340780D01*
X72576433Y-107569261D01*
X72770739Y-107763567D01*
X72999220Y-107916233D01*
X73253093Y-108021391D01*
X73522604Y-108075000D01*
X73797396Y-108075000D01*
X74066907Y-108021391D01*
X74320780Y-107916233D01*
X74549261Y-107763567D01*
X74743567Y-107569261D01*
X74896233Y-107340780D01*
X74930000Y-107259260D01*
X74963767Y-107340780D01*
X75116433Y-107569261D01*
X75310739Y-107763567D01*
X75539220Y-107916233D01*
X75793093Y-108021391D01*
X76062604Y-108075000D01*
X76337396Y-108075000D01*
X76606907Y-108021391D01*
X76860780Y-107916233D01*
X77089261Y-107763567D01*
X77283567Y-107569261D01*
X77436233Y-107340780D01*
X77470000Y-107259260D01*
X77503767Y-107340780D01*
X77656433Y-107569261D01*
X77850739Y-107763567D01*
X78079220Y-107916233D01*
X78333093Y-108021391D01*
X78602604Y-108075000D01*
X78877396Y-108075000D01*
X79146907Y-108021391D01*
X79400780Y-107916233D01*
X79629261Y-107763567D01*
X79823567Y-107569261D01*
X79976233Y-107340780D01*
X80010000Y-107259260D01*
X80043767Y-107340780D01*
X80196433Y-107569261D01*
X80390739Y-107763567D01*
X80619220Y-107916233D01*
X80873093Y-108021391D01*
X81142604Y-108075000D01*
X81417396Y-108075000D01*
X81686907Y-108021391D01*
X81940780Y-107916233D01*
X82169261Y-107763567D01*
X82363567Y-107569261D01*
X82516233Y-107340780D01*
X82550000Y-107259260D01*
X82583767Y-107340780D01*
X82736433Y-107569261D01*
X82930739Y-107763567D01*
X83159220Y-107916233D01*
X83413093Y-108021391D01*
X83682604Y-108075000D01*
X83957396Y-108075000D01*
X84226907Y-108021391D01*
X84480780Y-107916233D01*
X84709261Y-107763567D01*
X84903567Y-107569261D01*
X85056233Y-107340780D01*
X85090000Y-107259260D01*
X85123767Y-107340780D01*
X85276433Y-107569261D01*
X85470739Y-107763567D01*
X85699220Y-107916233D01*
X85953093Y-108021391D01*
X86222604Y-108075000D01*
X86497396Y-108075000D01*
X86766907Y-108021391D01*
X87020780Y-107916233D01*
X87249261Y-107763567D01*
X87443567Y-107569261D01*
X87596233Y-107340780D01*
X87630000Y-107259260D01*
X87663767Y-107340780D01*
X87816433Y-107569261D01*
X88010739Y-107763567D01*
X88239220Y-107916233D01*
X88493093Y-108021391D01*
X88762604Y-108075000D01*
X89037396Y-108075000D01*
X89306907Y-108021391D01*
X89560780Y-107916233D01*
X89789261Y-107763567D01*
X89983567Y-107569261D01*
X90136233Y-107340780D01*
X90170000Y-107259260D01*
X90203767Y-107340780D01*
X90356433Y-107569261D01*
X90550739Y-107763567D01*
X90779220Y-107916233D01*
X91033093Y-108021391D01*
X91302604Y-108075000D01*
X91577396Y-108075000D01*
X91846907Y-108021391D01*
X92100780Y-107916233D01*
X92329261Y-107763567D01*
X92523567Y-107569261D01*
X92676233Y-107340780D01*
X92781391Y-107086907D01*
X92835000Y-106817396D01*
X92835000Y-106542604D01*
X92781391Y-106273093D01*
X92765819Y-106235500D01*
X106956950Y-106235500D01*
X106997500Y-106239494D01*
X107038050Y-106235500D01*
X107038053Y-106235500D01*
X107159326Y-106223556D01*
X107314934Y-106176353D01*
X107458342Y-106099699D01*
X107584041Y-105996541D01*
X107609898Y-105965034D01*
X110092541Y-103482392D01*
X110124041Y-103456541D01*
X110181139Y-103386967D01*
X110227198Y-103330844D01*
X110272326Y-103246416D01*
X110303853Y-103187434D01*
X110351056Y-103031826D01*
X110363000Y-102910553D01*
X110363000Y-102910544D01*
X110366993Y-102870001D01*
X110363000Y-102829458D01*
X110363000Y-101498061D01*
X114535000Y-101498061D01*
X114535000Y-101701939D01*
X114574774Y-101901898D01*
X114652795Y-102090256D01*
X114744501Y-102227503D01*
X114744500Y-103083449D01*
X114740506Y-103124000D01*
X114744500Y-103164550D01*
X114744500Y-103164552D01*
X114756444Y-103285825D01*
X114777547Y-103355392D01*
X114803647Y-103441433D01*
X114880301Y-103584842D01*
X114914214Y-103626165D01*
X114983459Y-103710541D01*
X115014966Y-103736398D01*
X117243606Y-105965039D01*
X117269459Y-105996541D01*
X117333596Y-106049177D01*
X117395157Y-106099699D01*
X117442414Y-106124958D01*
X117538566Y-106176353D01*
X117694174Y-106223556D01*
X117815447Y-106235500D01*
X117815449Y-106235500D01*
X117855999Y-106239494D01*
X117896550Y-106235500D01*
X130754181Y-106235500D01*
X130738609Y-106273093D01*
X130685000Y-106542604D01*
X130685000Y-106817396D01*
X130738609Y-107086907D01*
X130843767Y-107340780D01*
X130996433Y-107569261D01*
X131190739Y-107763567D01*
X131419220Y-107916233D01*
X131673093Y-108021391D01*
X131942604Y-108075000D01*
X132217396Y-108075000D01*
X132486907Y-108021391D01*
X132740780Y-107916233D01*
X132969261Y-107763567D01*
X133163567Y-107569261D01*
X133316233Y-107340780D01*
X133350000Y-107259260D01*
X133383767Y-107340780D01*
X133536433Y-107569261D01*
X133730739Y-107763567D01*
X133959220Y-107916233D01*
X134213093Y-108021391D01*
X134482604Y-108075000D01*
X134757396Y-108075000D01*
X135026907Y-108021391D01*
X135280780Y-107916233D01*
X135509261Y-107763567D01*
X135703567Y-107569261D01*
X135856233Y-107340780D01*
X135890000Y-107259260D01*
X135923767Y-107340780D01*
X136076433Y-107569261D01*
X136270739Y-107763567D01*
X136499220Y-107916233D01*
X136753093Y-108021391D01*
X137022604Y-108075000D01*
X137297396Y-108075000D01*
X137566907Y-108021391D01*
X137820780Y-107916233D01*
X138049261Y-107763567D01*
X138243567Y-107569261D01*
X138396233Y-107340780D01*
X138430000Y-107259260D01*
X138463767Y-107340780D01*
X138616433Y-107569261D01*
X138810739Y-107763567D01*
X139039220Y-107916233D01*
X139293093Y-108021391D01*
X139562604Y-108075000D01*
X139837396Y-108075000D01*
X140106907Y-108021391D01*
X140360780Y-107916233D01*
X140589261Y-107763567D01*
X140783567Y-107569261D01*
X140936233Y-107340780D01*
X140970000Y-107259260D01*
X141003767Y-107340780D01*
X141156433Y-107569261D01*
X141350739Y-107763567D01*
X141579220Y-107916233D01*
X141833093Y-108021391D01*
X142102604Y-108075000D01*
X142377396Y-108075000D01*
X142646907Y-108021391D01*
X142900780Y-107916233D01*
X143129261Y-107763567D01*
X143323567Y-107569261D01*
X143476233Y-107340780D01*
X143510000Y-107259260D01*
X143543767Y-107340780D01*
X143696433Y-107569261D01*
X143890739Y-107763567D01*
X144119220Y-107916233D01*
X144373093Y-108021391D01*
X144642604Y-108075000D01*
X144917396Y-108075000D01*
X145186907Y-108021391D01*
X145440780Y-107916233D01*
X145669261Y-107763567D01*
X145863567Y-107569261D01*
X146016233Y-107340780D01*
X146050000Y-107259260D01*
X146083767Y-107340780D01*
X146236433Y-107569261D01*
X146430739Y-107763567D01*
X146659220Y-107916233D01*
X146913093Y-108021391D01*
X147182604Y-108075000D01*
X147457396Y-108075000D01*
X147726907Y-108021391D01*
X147980780Y-107916233D01*
X148209261Y-107763567D01*
X148403567Y-107569261D01*
X148556233Y-107340780D01*
X148590000Y-107259260D01*
X148623767Y-107340780D01*
X148776433Y-107569261D01*
X148970739Y-107763567D01*
X149199220Y-107916233D01*
X149453093Y-108021391D01*
X149722604Y-108075000D01*
X149997396Y-108075000D01*
X150266907Y-108021391D01*
X150520780Y-107916233D01*
X150749261Y-107763567D01*
X150943567Y-107569261D01*
X151096233Y-107340780D01*
X151130000Y-107259260D01*
X151163767Y-107340780D01*
X151316433Y-107569261D01*
X151510739Y-107763567D01*
X151739220Y-107916233D01*
X151993093Y-108021391D01*
X152262604Y-108075000D01*
X152537396Y-108075000D01*
X152806907Y-108021391D01*
X153060780Y-107916233D01*
X153289261Y-107763567D01*
X153483567Y-107569261D01*
X153636233Y-107340780D01*
X153670000Y-107259260D01*
X153703767Y-107340780D01*
X153856433Y-107569261D01*
X154050739Y-107763567D01*
X154279220Y-107916233D01*
X154533093Y-108021391D01*
X154802604Y-108075000D01*
X155077396Y-108075000D01*
X155346907Y-108021391D01*
X155600780Y-107916233D01*
X155829261Y-107763567D01*
X156023567Y-107569261D01*
X156176233Y-107340780D01*
X156281391Y-107086907D01*
X156335000Y-106817396D01*
X156335000Y-106542604D01*
X156281391Y-106273093D01*
X156176233Y-106019220D01*
X156023567Y-105790739D01*
X155829261Y-105596433D01*
X155600780Y-105443767D01*
X155519260Y-105410000D01*
X155600780Y-105376233D01*
X155829261Y-105223567D01*
X156023567Y-105029261D01*
X156176233Y-104800780D01*
X156281391Y-104546907D01*
X156335000Y-104277396D01*
X156335000Y-104002604D01*
X156281391Y-103733093D01*
X156176233Y-103479220D01*
X156023567Y-103250739D01*
X155829261Y-103056433D01*
X155600780Y-102903767D01*
X155346907Y-102798609D01*
X155077396Y-102745000D01*
X154802604Y-102745000D01*
X154533093Y-102798609D01*
X154495500Y-102814181D01*
X154495500Y-102783550D01*
X154499494Y-102743000D01*
X154495500Y-102702447D01*
X154483556Y-102581174D01*
X154436353Y-102425566D01*
X154413345Y-102382521D01*
X154359699Y-102282157D01*
X154282392Y-102187958D01*
X154282389Y-102187955D01*
X154256541Y-102156459D01*
X154225046Y-102130612D01*
X153075898Y-100981465D01*
X153050041Y-100949959D01*
X153021531Y-100926561D01*
X157588000Y-100926561D01*
X157588000Y-101130439D01*
X157627774Y-101330398D01*
X157705795Y-101518756D01*
X157819063Y-101688274D01*
X157963226Y-101832437D01*
X158132744Y-101945705D01*
X158321102Y-102023726D01*
X158521061Y-102063500D01*
X158724939Y-102063500D01*
X158924898Y-102023726D01*
X159113256Y-101945705D01*
X159282774Y-101832437D01*
X159324711Y-101790500D01*
X161297497Y-101790500D01*
X161434744Y-101882205D01*
X161623102Y-101960226D01*
X161823061Y-102000000D01*
X162026939Y-102000000D01*
X162226898Y-101960226D01*
X162415256Y-101882205D01*
X162584774Y-101768937D01*
X162728937Y-101624774D01*
X162842205Y-101455256D01*
X162920226Y-101266898D01*
X162960000Y-101066939D01*
X162960000Y-100863061D01*
X162920226Y-100663102D01*
X162842205Y-100474744D01*
X162728937Y-100305226D01*
X162584774Y-100161063D01*
X162415256Y-100047795D01*
X162226898Y-99969774D01*
X162026939Y-99930000D01*
X161823061Y-99930000D01*
X161623102Y-99969774D01*
X161434744Y-100047795D01*
X161297497Y-100139500D01*
X159155468Y-100139500D01*
X159113256Y-100111295D01*
X158924898Y-100033274D01*
X158724939Y-99993500D01*
X158521061Y-99993500D01*
X158321102Y-100033274D01*
X158132744Y-100111295D01*
X157963226Y-100224563D01*
X157819063Y-100368726D01*
X157705795Y-100538244D01*
X157627774Y-100726602D01*
X157588000Y-100926561D01*
X153021531Y-100926561D01*
X152924342Y-100846801D01*
X152780934Y-100770147D01*
X152625326Y-100722944D01*
X152504053Y-100711000D01*
X152504050Y-100711000D01*
X152463500Y-100707006D01*
X152422950Y-100711000D01*
X149852503Y-100711000D01*
X149715256Y-100619295D01*
X149526898Y-100541274D01*
X149326939Y-100501500D01*
X149123061Y-100501500D01*
X148923102Y-100541274D01*
X148734744Y-100619295D01*
X148565226Y-100732563D01*
X148421063Y-100876726D01*
X148307795Y-101046244D01*
X148229774Y-101234602D01*
X148190000Y-101434561D01*
X148190000Y-101582989D01*
X146736508Y-101582989D01*
X146425959Y-101272440D01*
X146400107Y-101240940D01*
X146349420Y-101199343D01*
X146274408Y-101137781D01*
X146130999Y-101061127D01*
X145975392Y-101013925D01*
X145813566Y-100997986D01*
X145773006Y-101001981D01*
X143459689Y-101001979D01*
X143411205Y-100884929D01*
X143297937Y-100715411D01*
X143153774Y-100571248D01*
X142984256Y-100457980D01*
X142795898Y-100379959D01*
X142595939Y-100340185D01*
X142392061Y-100340185D01*
X142192102Y-100379959D01*
X142003744Y-100457980D01*
X141834226Y-100571248D01*
X141690063Y-100715411D01*
X141576795Y-100884929D01*
X141498774Y-101073287D01*
X141459000Y-101273246D01*
X141459000Y-101477124D01*
X141480058Y-101582989D01*
X136861500Y-101582989D01*
X136861500Y-101434561D01*
X136821726Y-101234602D01*
X136743705Y-101046244D01*
X136630437Y-100876726D01*
X136486274Y-100732563D01*
X136316756Y-100619295D01*
X136128398Y-100541274D01*
X135928439Y-100501500D01*
X135724561Y-100501500D01*
X135524602Y-100541274D01*
X135336244Y-100619295D01*
X135166726Y-100732563D01*
X135022563Y-100876726D01*
X134909295Y-101046244D01*
X134831274Y-101234602D01*
X134791500Y-101434561D01*
X134791500Y-101638439D01*
X134831274Y-101838398D01*
X134909295Y-102026756D01*
X135000998Y-102163999D01*
X130763432Y-102163999D01*
X130059428Y-101459996D01*
X130027226Y-101298102D01*
X129949205Y-101109744D01*
X129835937Y-100940226D01*
X129691774Y-100796063D01*
X129522256Y-100682795D01*
X129333898Y-100604774D01*
X129133939Y-100565000D01*
X128930061Y-100565000D01*
X128730102Y-100604774D01*
X128541744Y-100682795D01*
X128372226Y-100796063D01*
X128228063Y-100940226D01*
X128114795Y-101109744D01*
X128036774Y-101298102D01*
X127997000Y-101498061D01*
X127997000Y-101701939D01*
X128036774Y-101901898D01*
X128114795Y-102090256D01*
X128228063Y-102259774D01*
X128372226Y-102403937D01*
X128541744Y-102517205D01*
X128730102Y-102595226D01*
X128891996Y-102627428D01*
X129809105Y-103544538D01*
X129834958Y-103576040D01*
X129960657Y-103679198D01*
X130104065Y-103755852D01*
X130259673Y-103803055D01*
X130380946Y-103814999D01*
X130380948Y-103814999D01*
X130421498Y-103818993D01*
X130462049Y-103814999D01*
X130722317Y-103814999D01*
X130685000Y-104002604D01*
X130685000Y-104277396D01*
X130738609Y-104546907D01*
X130754181Y-104584500D01*
X118197933Y-104584500D01*
X116395500Y-102782068D01*
X116395500Y-102227503D01*
X116487205Y-102090256D01*
X116565226Y-101901898D01*
X116605000Y-101701939D01*
X116605000Y-101498061D01*
X116565226Y-101298102D01*
X116487205Y-101109744D01*
X116373937Y-100940226D01*
X116229774Y-100796063D01*
X116060256Y-100682795D01*
X115871898Y-100604774D01*
X115671939Y-100565000D01*
X115468061Y-100565000D01*
X115268102Y-100604774D01*
X115079744Y-100682795D01*
X114910226Y-100796063D01*
X114766063Y-100940226D01*
X114652795Y-101109744D01*
X114574774Y-101298102D01*
X114535000Y-101498061D01*
X110363000Y-101498061D01*
X110363000Y-94259061D01*
X133937500Y-94259061D01*
X133937500Y-94462939D01*
X133977274Y-94662898D01*
X134055295Y-94851256D01*
X134168563Y-95020774D01*
X134312726Y-95164937D01*
X134482244Y-95278205D01*
X134670602Y-95356226D01*
X134870561Y-95396000D01*
X135074439Y-95396000D01*
X135274398Y-95356226D01*
X135462756Y-95278205D01*
X135600003Y-95186500D01*
X163398812Y-95186500D01*
X163536059Y-95278205D01*
X163724417Y-95356226D01*
X163924376Y-95396000D01*
X164128254Y-95396000D01*
X164328213Y-95356226D01*
X164516571Y-95278205D01*
X164686089Y-95164937D01*
X164830252Y-95020774D01*
X164943520Y-94851256D01*
X165021541Y-94662898D01*
X165061315Y-94462939D01*
X165061315Y-94259061D01*
X165021541Y-94059102D01*
X164943520Y-93870744D01*
X164830252Y-93701226D01*
X164686089Y-93557063D01*
X164516571Y-93443795D01*
X164328213Y-93365774D01*
X164128254Y-93326000D01*
X163924376Y-93326000D01*
X163724417Y-93365774D01*
X163536059Y-93443795D01*
X163398812Y-93535500D01*
X135600003Y-93535500D01*
X135462756Y-93443795D01*
X135274398Y-93365774D01*
X135074439Y-93326000D01*
X134870561Y-93326000D01*
X134670602Y-93365774D01*
X134482244Y-93443795D01*
X134312726Y-93557063D01*
X134168563Y-93701226D01*
X134055295Y-93870744D01*
X133977274Y-94059102D01*
X133937500Y-94259061D01*
X110363000Y-94259061D01*
X110363000Y-93877432D01*
X110845004Y-93395428D01*
X111006898Y-93363226D01*
X111195256Y-93285205D01*
X111332503Y-93193500D01*
X116871997Y-93193500D01*
X117009244Y-93285205D01*
X117197602Y-93363226D01*
X117397561Y-93403000D01*
X117601439Y-93403000D01*
X117801398Y-93363226D01*
X117989756Y-93285205D01*
X118090336Y-93218000D01*
X123451497Y-93218000D01*
X123588744Y-93309705D01*
X123777102Y-93387726D01*
X123977061Y-93427500D01*
X124180939Y-93427500D01*
X124380898Y-93387726D01*
X124569256Y-93309705D01*
X124706503Y-93218000D01*
X130385164Y-93218000D01*
X130485744Y-93285205D01*
X130674102Y-93363226D01*
X130874061Y-93403000D01*
X131077939Y-93403000D01*
X131277898Y-93363226D01*
X131466256Y-93285205D01*
X131635774Y-93171937D01*
X131653211Y-93154500D01*
X137040497Y-93154500D01*
X137177744Y-93246205D01*
X137366102Y-93324226D01*
X137566061Y-93364000D01*
X137769939Y-93364000D01*
X137969898Y-93324226D01*
X138158256Y-93246205D01*
X138295503Y-93154500D01*
X143644497Y-93154500D01*
X143781744Y-93246205D01*
X143970102Y-93324226D01*
X144170061Y-93364000D01*
X144373939Y-93364000D01*
X144573898Y-93324226D01*
X144762256Y-93246205D01*
X144899503Y-93154500D01*
X150375497Y-93154500D01*
X150512744Y-93246205D01*
X150701102Y-93324226D01*
X150901061Y-93364000D01*
X151104939Y-93364000D01*
X151304898Y-93324226D01*
X151493256Y-93246205D01*
X151630503Y-93154500D01*
X157106497Y-93154500D01*
X157243744Y-93246205D01*
X157432102Y-93324226D01*
X157632061Y-93364000D01*
X157835939Y-93364000D01*
X158035898Y-93324226D01*
X158224256Y-93246205D01*
X158393774Y-93132937D01*
X158537937Y-92988774D01*
X158651205Y-92819256D01*
X158729226Y-92630898D01*
X158769000Y-92430939D01*
X158769000Y-92227061D01*
X158729226Y-92027102D01*
X158651205Y-91838744D01*
X158537937Y-91669226D01*
X158393774Y-91525063D01*
X158224256Y-91411795D01*
X158035898Y-91333774D01*
X157835939Y-91294000D01*
X157632061Y-91294000D01*
X157432102Y-91333774D01*
X157243744Y-91411795D01*
X157106497Y-91503500D01*
X151630503Y-91503500D01*
X151493256Y-91411795D01*
X151304898Y-91333774D01*
X151104939Y-91294000D01*
X150901061Y-91294000D01*
X150701102Y-91333774D01*
X150512744Y-91411795D01*
X150375497Y-91503500D01*
X144899503Y-91503500D01*
X144762256Y-91411795D01*
X144573898Y-91333774D01*
X144373939Y-91294000D01*
X144170061Y-91294000D01*
X143970102Y-91333774D01*
X143781744Y-91411795D01*
X143644497Y-91503500D01*
X138295503Y-91503500D01*
X138158256Y-91411795D01*
X137969898Y-91333774D01*
X137769939Y-91294000D01*
X137566061Y-91294000D01*
X137366102Y-91333774D01*
X137177744Y-91411795D01*
X137040497Y-91503500D01*
X131545135Y-91503500D01*
X131466256Y-91450795D01*
X131277898Y-91372774D01*
X131077939Y-91333000D01*
X130874061Y-91333000D01*
X130674102Y-91372774D01*
X130485744Y-91450795D01*
X130316226Y-91564063D01*
X130313289Y-91567000D01*
X124706503Y-91567000D01*
X124569256Y-91475295D01*
X124380898Y-91397274D01*
X124180939Y-91357500D01*
X123977061Y-91357500D01*
X123777102Y-91397274D01*
X123588744Y-91475295D01*
X123451497Y-91567000D01*
X118162211Y-91567000D01*
X118159274Y-91564063D01*
X117989756Y-91450795D01*
X117801398Y-91372774D01*
X117601439Y-91333000D01*
X117397561Y-91333000D01*
X117197602Y-91372774D01*
X117009244Y-91450795D01*
X116871997Y-91542500D01*
X111332503Y-91542500D01*
X111195256Y-91450795D01*
X111006898Y-91372774D01*
X110845005Y-91340572D01*
X110146433Y-90642000D01*
X167786606Y-90642000D01*
X167820105Y-90982119D01*
X167919314Y-91309168D01*
X168080421Y-91610578D01*
X168297234Y-91874766D01*
X168488994Y-92032139D01*
X168394236Y-92209419D01*
X168315040Y-92470493D01*
X168288299Y-92742000D01*
X168315040Y-93013507D01*
X168394236Y-93274581D01*
X168522843Y-93515188D01*
X168695919Y-93726081D01*
X168715316Y-93742000D01*
X168695919Y-93757919D01*
X168522843Y-93968812D01*
X168394236Y-94209419D01*
X168315040Y-94470493D01*
X168288299Y-94742000D01*
X168315040Y-95013507D01*
X168394236Y-95274581D01*
X168518940Y-95507886D01*
X168478815Y-95540815D01*
X168399463Y-95637506D01*
X168340498Y-95747820D01*
X168304188Y-95867518D01*
X168291928Y-95992000D01*
X168291928Y-97492000D01*
X168303008Y-97604496D01*
X168297234Y-97609234D01*
X168080421Y-97873422D01*
X167919314Y-98174832D01*
X167820105Y-98501881D01*
X167786606Y-98842000D01*
X167820105Y-99182119D01*
X167919314Y-99509168D01*
X168080421Y-99810578D01*
X168297234Y-100074766D01*
X168561422Y-100291579D01*
X168862832Y-100452686D01*
X169189881Y-100551895D01*
X169444775Y-100577000D01*
X170915225Y-100577000D01*
X171170119Y-100551895D01*
X171497168Y-100452686D01*
X171798578Y-100291579D01*
X172062766Y-100074766D01*
X172279579Y-99810578D01*
X172440686Y-99509168D01*
X172539895Y-99182119D01*
X172573394Y-98842000D01*
X172539895Y-98501881D01*
X172440686Y-98174832D01*
X172279579Y-97873422D01*
X172062766Y-97609234D01*
X172056992Y-97604496D01*
X172068072Y-97492000D01*
X172068072Y-95992000D01*
X172055812Y-95867518D01*
X172019502Y-95747820D01*
X171960537Y-95637506D01*
X171881185Y-95540815D01*
X171841060Y-95507886D01*
X171965764Y-95274581D01*
X172044960Y-95013507D01*
X172071701Y-94742000D01*
X172044960Y-94470493D01*
X171965764Y-94209419D01*
X171837157Y-93968812D01*
X171664081Y-93757919D01*
X171644684Y-93742000D01*
X171664081Y-93726081D01*
X171837157Y-93515188D01*
X171965764Y-93274581D01*
X172044960Y-93013507D01*
X172071701Y-92742000D01*
X172044960Y-92470493D01*
X171965764Y-92209419D01*
X171871006Y-92032139D01*
X172062766Y-91874766D01*
X172279579Y-91610578D01*
X172440686Y-91309168D01*
X172539895Y-90982119D01*
X172573394Y-90642000D01*
X172539895Y-90301881D01*
X172440686Y-89974832D01*
X172279579Y-89673422D01*
X172062766Y-89409234D01*
X171798578Y-89192421D01*
X171497168Y-89031314D01*
X171170119Y-88932105D01*
X170915225Y-88907000D01*
X169444775Y-88907000D01*
X169189881Y-88932105D01*
X168862832Y-89031314D01*
X168561422Y-89192421D01*
X168297234Y-89409234D01*
X168080421Y-89673422D01*
X167919314Y-89974832D01*
X167820105Y-90301881D01*
X167786606Y-90642000D01*
X110146433Y-90642000D01*
X102361262Y-82856830D01*
X102341226Y-82756102D01*
X102263205Y-82567744D01*
X102149937Y-82398226D01*
X102005774Y-82254063D01*
X101836256Y-82140795D01*
X101647898Y-82062774D01*
X101447939Y-82023000D01*
X101244061Y-82023000D01*
X101044102Y-82062774D01*
X100855744Y-82140795D01*
X100686226Y-82254063D01*
X100542063Y-82398226D01*
X100428795Y-82567744D01*
X100350774Y-82756102D01*
X100330000Y-82860541D01*
X100330000Y-73876000D01*
X119973928Y-73876000D01*
X119973928Y-75476000D01*
X119986188Y-75600482D01*
X120022498Y-75720180D01*
X120081463Y-75830494D01*
X120160815Y-75927185D01*
X120257506Y-76006537D01*
X120367820Y-76065502D01*
X120487518Y-76101812D01*
X120612000Y-76114072D01*
X122212000Y-76114072D01*
X122336482Y-76101812D01*
X122456180Y-76065502D01*
X122566494Y-76006537D01*
X122663185Y-75927185D01*
X122742537Y-75830494D01*
X122801502Y-75720180D01*
X122837812Y-75600482D01*
X122850072Y-75476000D01*
X122850072Y-73876000D01*
X142325928Y-73876000D01*
X142325928Y-75476000D01*
X142338188Y-75600482D01*
X142374498Y-75720180D01*
X142433463Y-75830494D01*
X142512815Y-75927185D01*
X142609506Y-76006537D01*
X142719820Y-76065502D01*
X142839518Y-76101812D01*
X142964000Y-76114072D01*
X144564000Y-76114072D01*
X144688482Y-76101812D01*
X144808180Y-76065502D01*
X144918494Y-76006537D01*
X145015185Y-75927185D01*
X145094537Y-75830494D01*
X145153502Y-75720180D01*
X145189812Y-75600482D01*
X145202072Y-75476000D01*
X145202072Y-74130000D01*
X166455928Y-74130000D01*
X166455928Y-75730000D01*
X166468188Y-75854482D01*
X166504498Y-75974180D01*
X166563463Y-76084494D01*
X166642815Y-76181185D01*
X166739506Y-76260537D01*
X166849820Y-76319502D01*
X166969518Y-76355812D01*
X167094000Y-76368072D01*
X168694000Y-76368072D01*
X168818482Y-76355812D01*
X168938180Y-76319502D01*
X169048494Y-76260537D01*
X169145185Y-76181185D01*
X169224537Y-76084494D01*
X169283502Y-75974180D01*
X169319812Y-75854482D01*
X169332072Y-75730000D01*
X169332072Y-74130000D01*
X169319812Y-74005518D01*
X169283502Y-73885820D01*
X169224537Y-73775506D01*
X169145185Y-73678815D01*
X169048494Y-73599463D01*
X168938180Y-73540498D01*
X168818482Y-73504188D01*
X168694000Y-73491928D01*
X167094000Y-73491928D01*
X166969518Y-73504188D01*
X166849820Y-73540498D01*
X166739506Y-73599463D01*
X166642815Y-73678815D01*
X166563463Y-73775506D01*
X166504498Y-73885820D01*
X166468188Y-74005518D01*
X166455928Y-74130000D01*
X145202072Y-74130000D01*
X145202072Y-73876000D01*
X145189812Y-73751518D01*
X145153502Y-73631820D01*
X145094537Y-73521506D01*
X145015185Y-73424815D01*
X144918494Y-73345463D01*
X144808180Y-73286498D01*
X144688482Y-73250188D01*
X144564000Y-73237928D01*
X142964000Y-73237928D01*
X142839518Y-73250188D01*
X142719820Y-73286498D01*
X142609506Y-73345463D01*
X142512815Y-73424815D01*
X142433463Y-73521506D01*
X142374498Y-73631820D01*
X142338188Y-73751518D01*
X142325928Y-73876000D01*
X122850072Y-73876000D01*
X122837812Y-73751518D01*
X122801502Y-73631820D01*
X122742537Y-73521506D01*
X122663185Y-73424815D01*
X122566494Y-73345463D01*
X122456180Y-73286498D01*
X122336482Y-73250188D01*
X122212000Y-73237928D01*
X120612000Y-73237928D01*
X120487518Y-73250188D01*
X120367820Y-73286498D01*
X120257506Y-73345463D01*
X120160815Y-73424815D01*
X120081463Y-73521506D01*
X120022498Y-73631820D01*
X119986188Y-73751518D01*
X119973928Y-73876000D01*
X100330000Y-73876000D01*
X100330000Y-72587459D01*
X100349000Y-72491939D01*
X100349000Y-72288061D01*
X100309226Y-72088102D01*
X100231205Y-71899744D01*
X100117937Y-71730226D01*
X99973774Y-71586063D01*
X99804256Y-71472795D01*
X99615898Y-71394774D01*
X99415939Y-71355000D01*
X99212061Y-71355000D01*
X99012102Y-71394774D01*
X98823744Y-71472795D01*
X98654226Y-71586063D01*
X98510063Y-71730226D01*
X98396795Y-71899744D01*
X98318774Y-72088102D01*
X98279000Y-72288061D01*
X98279000Y-72491939D01*
X98298000Y-72587459D01*
X98298000Y-77832000D01*
X98231061Y-77832000D01*
X98031102Y-77871774D01*
X97842744Y-77949795D01*
X97673226Y-78063063D01*
X97529063Y-78207226D01*
X97415795Y-78376744D01*
X97337774Y-78565102D01*
X97298000Y-78765061D01*
X97298000Y-78968939D01*
X97337774Y-79168898D01*
X97415795Y-79357256D01*
X97529063Y-79526774D01*
X97673226Y-79670937D01*
X97842744Y-79784205D01*
X98031102Y-79862226D01*
X98231061Y-79902000D01*
X98298001Y-79902000D01*
X98298001Y-85050158D01*
X95372147Y-87976012D01*
X95323314Y-87730510D01*
X95218005Y-87476273D01*
X95065120Y-87247465D01*
X94870535Y-87052880D01*
X94641727Y-86899995D01*
X94387490Y-86794686D01*
X94117592Y-86741000D01*
X93842408Y-86741000D01*
X93572510Y-86794686D01*
X93318273Y-86899995D01*
X93089465Y-87052880D01*
X92894880Y-87247465D01*
X92741995Y-87476273D01*
X92636686Y-87730510D01*
X92583000Y-88000408D01*
X92583000Y-88275592D01*
X92636686Y-88545490D01*
X92741995Y-88799727D01*
X92894880Y-89028535D01*
X93089465Y-89223120D01*
X93318273Y-89376005D01*
X93572510Y-89481314D01*
X93818012Y-89530147D01*
X91790661Y-91557499D01*
X90610394Y-91557499D01*
X90560500Y-91552585D01*
X90510606Y-91557499D01*
X90510599Y-91557499D01*
X90380678Y-91570295D01*
X90361329Y-91572201D01*
X90339101Y-91578944D01*
X90169814Y-91630297D01*
X89993311Y-91724639D01*
X89838605Y-91851603D01*
X89806794Y-91890365D01*
X86885040Y-94812120D01*
X86397113Y-94610014D01*
X85783710Y-94488000D01*
X85158290Y-94488000D01*
X84544887Y-94610014D01*
X83967074Y-94849352D01*
X83447056Y-95196817D01*
X83004817Y-95639056D01*
X82657352Y-96159074D01*
X82418014Y-96736887D01*
X82296000Y-97350290D01*
X82296000Y-97975710D01*
X82418014Y-98589113D01*
X82657352Y-99166926D01*
X83004817Y-99686944D01*
X83447056Y-100129183D01*
X83967074Y-100476648D01*
X84544887Y-100715986D01*
X85158290Y-100838000D01*
X85783710Y-100838000D01*
X86397113Y-100715986D01*
X86974926Y-100476648D01*
X87494944Y-100129183D01*
X87937183Y-99686944D01*
X88284648Y-99166926D01*
X88491140Y-98668408D01*
X92583000Y-98668408D01*
X92583000Y-98943592D01*
X92636686Y-99213490D01*
X92741995Y-99467727D01*
X92894880Y-99696535D01*
X93089465Y-99891120D01*
X93318273Y-100044005D01*
X93572510Y-100149314D01*
X93842408Y-100203000D01*
X94117592Y-100203000D01*
X94387490Y-100149314D01*
X94641727Y-100044005D01*
X94870535Y-99891120D01*
X95065120Y-99696535D01*
X95218005Y-99467727D01*
X95323314Y-99213490D01*
X95377000Y-98943592D01*
X95377000Y-98668408D01*
X95323314Y-98398510D01*
X95218005Y-98144273D01*
X95065120Y-97915465D01*
X94870535Y-97720880D01*
X94641727Y-97567995D01*
X94387490Y-97462686D01*
X94117592Y-97409000D01*
X93842408Y-97409000D01*
X93572510Y-97462686D01*
X93318273Y-97567995D01*
X93089465Y-97720880D01*
X92894880Y-97915465D01*
X92741995Y-98144273D01*
X92636686Y-98398510D01*
X92583000Y-98668408D01*
X88491140Y-98668408D01*
X88523986Y-98589113D01*
X88646000Y-97975710D01*
X88646000Y-97350290D01*
X88523986Y-96736887D01*
X88321880Y-96248960D01*
X90981342Y-93589499D01*
X92161599Y-93589499D01*
X92211501Y-93594414D01*
X92261403Y-93589499D01*
X92410672Y-93574797D01*
X92596947Y-93518291D01*
X92583000Y-93588408D01*
X92583000Y-93863592D01*
X92636686Y-94133490D01*
X92741995Y-94387727D01*
X92894880Y-94616535D01*
X93089465Y-94811120D01*
X93318273Y-94964005D01*
X93572510Y-95069314D01*
X93842408Y-95123000D01*
X94117592Y-95123000D01*
X94387490Y-95069314D01*
X94641727Y-94964005D01*
X94870535Y-94811120D01*
X95065120Y-94616535D01*
X95218005Y-94387727D01*
X95323314Y-94133490D01*
X95377000Y-93863592D01*
X95377000Y-93588408D01*
X95323314Y-93318510D01*
X95218005Y-93064273D01*
X95065120Y-92835465D01*
X94870535Y-92640880D01*
X94641727Y-92487995D01*
X94387490Y-92382686D01*
X94117592Y-92329000D01*
X93892840Y-92329000D01*
X99997133Y-86224708D01*
X100035896Y-86192896D01*
X100162860Y-86038190D01*
X100257202Y-85861687D01*
X100301411Y-85715951D01*
X100315298Y-85670172D01*
X100325317Y-85568444D01*
X100330000Y-85520902D01*
X100330000Y-85520895D01*
X100334914Y-85471001D01*
X100330000Y-85421107D01*
X100330000Y-83255459D01*
X100350774Y-83359898D01*
X100428795Y-83548256D01*
X100542063Y-83717774D01*
X100686226Y-83861937D01*
X100855744Y-83975205D01*
X101044102Y-84053226D01*
X101244061Y-84093000D01*
X101262568Y-84093000D01*
X109537567Y-92368000D01*
X108982461Y-92923107D01*
X108950960Y-92948959D01*
X108925109Y-92980459D01*
X108847801Y-93074658D01*
X108771147Y-93218067D01*
X108723945Y-93373674D01*
X108708006Y-93535500D01*
X108712001Y-93576060D01*
X108712000Y-102528067D01*
X106655568Y-104584500D01*
X92765819Y-104584500D01*
X92781391Y-104546907D01*
X92835000Y-104277396D01*
X92835000Y-104002604D01*
X92781391Y-103733093D01*
X92676233Y-103479220D01*
X92523567Y-103250739D01*
X92329261Y-103056433D01*
X92100780Y-102903767D01*
X91846907Y-102798609D01*
X91577396Y-102745000D01*
X91302604Y-102745000D01*
X91033093Y-102798609D01*
X90779220Y-102903767D01*
X90550739Y-103056433D01*
X90356433Y-103250739D01*
X90203767Y-103479220D01*
X90170000Y-103560740D01*
X90136233Y-103479220D01*
X89983567Y-103250739D01*
X89789261Y-103056433D01*
X89560780Y-102903767D01*
X89306907Y-102798609D01*
X89037396Y-102745000D01*
X88762604Y-102745000D01*
X88493093Y-102798609D01*
X88239220Y-102903767D01*
X88010739Y-103056433D01*
X87816433Y-103250739D01*
X87663767Y-103479220D01*
X87630000Y-103560740D01*
X87596233Y-103479220D01*
X87443567Y-103250739D01*
X87249261Y-103056433D01*
X87020780Y-102903767D01*
X86766907Y-102798609D01*
X86497396Y-102745000D01*
X86222604Y-102745000D01*
X85953093Y-102798609D01*
X85699220Y-102903767D01*
X85470739Y-103056433D01*
X85276433Y-103250739D01*
X85123767Y-103479220D01*
X85090000Y-103560740D01*
X85056233Y-103479220D01*
X84903567Y-103250739D01*
X84709261Y-103056433D01*
X84480780Y-102903767D01*
X84226907Y-102798609D01*
X83957396Y-102745000D01*
X83682604Y-102745000D01*
X83413093Y-102798609D01*
X83159220Y-102903767D01*
X82930739Y-103056433D01*
X82736433Y-103250739D01*
X82583767Y-103479220D01*
X82550000Y-103560740D01*
X82516233Y-103479220D01*
X82363567Y-103250739D01*
X82169261Y-103056433D01*
X81940780Y-102903767D01*
X81686907Y-102798609D01*
X81417396Y-102745000D01*
X81142604Y-102745000D01*
X80873093Y-102798609D01*
X80619220Y-102903767D01*
X80390739Y-103056433D01*
X80196433Y-103250739D01*
X80043767Y-103479220D01*
X80010000Y-103560740D01*
X79976233Y-103479220D01*
X79823567Y-103250739D01*
X79629261Y-103056433D01*
X79400780Y-102903767D01*
X79146907Y-102798609D01*
X78877396Y-102745000D01*
X78602604Y-102745000D01*
X78333093Y-102798609D01*
X78079220Y-102903767D01*
X77850739Y-103056433D01*
X77656433Y-103250739D01*
X77503767Y-103479220D01*
X77470000Y-103560740D01*
X77436233Y-103479220D01*
X77283567Y-103250739D01*
X77089261Y-103056433D01*
X76860780Y-102903767D01*
X76606907Y-102798609D01*
X76337396Y-102745000D01*
X76062604Y-102745000D01*
X75793093Y-102798609D01*
X75539220Y-102903767D01*
X75310739Y-103056433D01*
X75116433Y-103250739D01*
X74963767Y-103479220D01*
X74930000Y-103560740D01*
X74896233Y-103479220D01*
X74743567Y-103250739D01*
X74549261Y-103056433D01*
X74320780Y-102903767D01*
X74066907Y-102798609D01*
X73797396Y-102745000D01*
X73522604Y-102745000D01*
X73253093Y-102798609D01*
X72999220Y-102903767D01*
X72770739Y-103056433D01*
X72576433Y-103250739D01*
X72423767Y-103479220D01*
X72318609Y-103733093D01*
X72265000Y-104002604D01*
X72265000Y-104277396D01*
X72318609Y-104546907D01*
X72334181Y-104584500D01*
X69905819Y-104584500D01*
X69921391Y-104546907D01*
X69975000Y-104277396D01*
X69975000Y-104002604D01*
X69921391Y-103733093D01*
X69816233Y-103479220D01*
X69663567Y-103250739D01*
X69469261Y-103056433D01*
X69240780Y-102903767D01*
X68986907Y-102798609D01*
X68717396Y-102745000D01*
X68442604Y-102745000D01*
X68173093Y-102798609D01*
X67970000Y-102882733D01*
X67970000Y-89476290D01*
X82296000Y-89476290D01*
X82296000Y-90101710D01*
X82418014Y-90715113D01*
X82657352Y-91292926D01*
X83004817Y-91812944D01*
X83447056Y-92255183D01*
X83967074Y-92602648D01*
X84544887Y-92841986D01*
X85158290Y-92964000D01*
X85783710Y-92964000D01*
X86397113Y-92841986D01*
X86974926Y-92602648D01*
X87494944Y-92255183D01*
X87937183Y-91812944D01*
X88284648Y-91292926D01*
X88523986Y-90715113D01*
X88646000Y-90101710D01*
X88646000Y-89476290D01*
X88523986Y-88862887D01*
X88321880Y-88374960D01*
X91361133Y-85335708D01*
X91399896Y-85303896D01*
X91526860Y-85149190D01*
X91621202Y-84972687D01*
X91679298Y-84781171D01*
X91694000Y-84631902D01*
X91698915Y-84582001D01*
X91694000Y-84532099D01*
X91694000Y-82920408D01*
X92583000Y-82920408D01*
X92583000Y-83195592D01*
X92636686Y-83465490D01*
X92741995Y-83719727D01*
X92894880Y-83948535D01*
X93089465Y-84143120D01*
X93318273Y-84296005D01*
X93572510Y-84401314D01*
X93842408Y-84455000D01*
X94117592Y-84455000D01*
X94387490Y-84401314D01*
X94641727Y-84296005D01*
X94870535Y-84143120D01*
X95065120Y-83948535D01*
X95218005Y-83719727D01*
X95323314Y-83465490D01*
X95377000Y-83195592D01*
X95377000Y-82920408D01*
X95323314Y-82650510D01*
X95218005Y-82396273D01*
X95065120Y-82167465D01*
X94870535Y-81972880D01*
X94805500Y-81929425D01*
X94805500Y-75054490D01*
X95291535Y-74568456D01*
X95444224Y-74568456D01*
X95644183Y-74528682D01*
X95832541Y-74450661D01*
X96002059Y-74337393D01*
X96146222Y-74193230D01*
X96259490Y-74023712D01*
X96337511Y-73835354D01*
X96377285Y-73635395D01*
X96377285Y-73431517D01*
X96337511Y-73231558D01*
X96259490Y-73043200D01*
X96146222Y-72873682D01*
X96002059Y-72729519D01*
X95832541Y-72616251D01*
X95644183Y-72538230D01*
X95444224Y-72498456D01*
X95240346Y-72498456D01*
X95040387Y-72538230D01*
X94852029Y-72616251D01*
X94682511Y-72729519D01*
X94538348Y-72873682D01*
X94425080Y-73043200D01*
X94384884Y-73140241D01*
X93424966Y-74100160D01*
X93393459Y-74126017D01*
X93324214Y-74210393D01*
X93290301Y-74251716D01*
X93264595Y-74299809D01*
X93213647Y-74395125D01*
X93166444Y-74550733D01*
X93154500Y-74672005D01*
X93150506Y-74712558D01*
X93154500Y-74753109D01*
X93154501Y-81929424D01*
X93089465Y-81972880D01*
X92894880Y-82167465D01*
X92741995Y-82396273D01*
X92636686Y-82650510D01*
X92583000Y-82920408D01*
X91694000Y-82920408D01*
X91694000Y-72714459D01*
X91713000Y-72618939D01*
X91713000Y-72415061D01*
X91673226Y-72215102D01*
X91595205Y-72026744D01*
X91481937Y-71857226D01*
X91337774Y-71713063D01*
X91168256Y-71599795D01*
X90979898Y-71521774D01*
X90779939Y-71482000D01*
X90576061Y-71482000D01*
X90376102Y-71521774D01*
X90187744Y-71599795D01*
X90018226Y-71713063D01*
X89874063Y-71857226D01*
X89760795Y-72026744D01*
X89682774Y-72215102D01*
X89643000Y-72415061D01*
X89643000Y-72618939D01*
X89662000Y-72714459D01*
X89662001Y-84161158D01*
X86885040Y-86938120D01*
X86397113Y-86736014D01*
X85783710Y-86614000D01*
X85158290Y-86614000D01*
X84544887Y-86736014D01*
X83967074Y-86975352D01*
X83447056Y-87322817D01*
X83004817Y-87765056D01*
X82657352Y-88285074D01*
X82418014Y-88862887D01*
X82296000Y-89476290D01*
X67970000Y-89476290D01*
X67970000Y-64757267D01*
X68173093Y-64841391D01*
X68442604Y-64895000D01*
X68717396Y-64895000D01*
X68986907Y-64841391D01*
X69240780Y-64736233D01*
X69469261Y-64583567D01*
X69663567Y-64389261D01*
X69816233Y-64160780D01*
X69850000Y-64079260D01*
X69883767Y-64160780D01*
X70036433Y-64389261D01*
X70230739Y-64583567D01*
X70459220Y-64736233D01*
X70713093Y-64841391D01*
X70982604Y-64895000D01*
X71257396Y-64895000D01*
X71526907Y-64841391D01*
X71780780Y-64736233D01*
X72009261Y-64583567D01*
X72203567Y-64389261D01*
X72356233Y-64160780D01*
X72390000Y-64079260D01*
X72423767Y-64160780D01*
X72576433Y-64389261D01*
X72770739Y-64583567D01*
X72999220Y-64736233D01*
X73253093Y-64841391D01*
X73522604Y-64895000D01*
X73797396Y-64895000D01*
X74066907Y-64841391D01*
X74320780Y-64736233D01*
X74549261Y-64583567D01*
X74743567Y-64389261D01*
X74896233Y-64160780D01*
X74930000Y-64079260D01*
X74963767Y-64160780D01*
X75116433Y-64389261D01*
X75310739Y-64583567D01*
X75539220Y-64736233D01*
X75793093Y-64841391D01*
X76062604Y-64895000D01*
X76337396Y-64895000D01*
X76412607Y-64880040D01*
X77111606Y-65579039D01*
X77137459Y-65610541D01*
X77207033Y-65667639D01*
X77263156Y-65713698D01*
X77263158Y-65713699D01*
X77406566Y-65790353D01*
X77562174Y-65837556D01*
X77683447Y-65849500D01*
X77683456Y-65849500D01*
X77723999Y-65853493D01*
X77764542Y-65849500D01*
X92542450Y-65849500D01*
X92583000Y-65853494D01*
X92623550Y-65849500D01*
X92623553Y-65849500D01*
X92744826Y-65837556D01*
X92900434Y-65790353D01*
X93043842Y-65713699D01*
X93169541Y-65610541D01*
X93195398Y-65579034D01*
X98131933Y-60642500D01*
X116593497Y-60642500D01*
X116730744Y-60734205D01*
X116919102Y-60812226D01*
X117119061Y-60852000D01*
X117322939Y-60852000D01*
X117522898Y-60812226D01*
X117711256Y-60734205D01*
X117848503Y-60642500D01*
X117863497Y-60642500D01*
X118000744Y-60734205D01*
X118189102Y-60812226D01*
X118389061Y-60852000D01*
X118592939Y-60852000D01*
X118792898Y-60812226D01*
X118981256Y-60734205D01*
X119150774Y-60620937D01*
X119294937Y-60476774D01*
X119396348Y-60325000D01*
X129726506Y-60325000D01*
X129730500Y-60365551D01*
X129730501Y-62443440D01*
X129726506Y-62484000D01*
X129742445Y-62645826D01*
X129789647Y-62801433D01*
X129866301Y-62944842D01*
X129927863Y-63019854D01*
X129969460Y-63070541D01*
X130000961Y-63096393D01*
X130720516Y-63815949D01*
X130738609Y-63906907D01*
X130843767Y-64160780D01*
X130996433Y-64389261D01*
X131190739Y-64583567D01*
X131419220Y-64736233D01*
X131673093Y-64841391D01*
X131942604Y-64895000D01*
X132217396Y-64895000D01*
X132486907Y-64841391D01*
X132740780Y-64736233D01*
X132969261Y-64583567D01*
X133163567Y-64389261D01*
X133316233Y-64160780D01*
X133350000Y-64079260D01*
X133383767Y-64160780D01*
X133536433Y-64389261D01*
X133730739Y-64583567D01*
X133959220Y-64736233D01*
X134213093Y-64841391D01*
X134482604Y-64895000D01*
X134757396Y-64895000D01*
X135026907Y-64841391D01*
X135280780Y-64736233D01*
X135509261Y-64583567D01*
X135703567Y-64389261D01*
X135856233Y-64160780D01*
X135890000Y-64079260D01*
X135923767Y-64160780D01*
X136076433Y-64389261D01*
X136270739Y-64583567D01*
X136499220Y-64736233D01*
X136753093Y-64841391D01*
X137022604Y-64895000D01*
X137297396Y-64895000D01*
X137566907Y-64841391D01*
X137820780Y-64736233D01*
X138049261Y-64583567D01*
X138243567Y-64389261D01*
X138396233Y-64160780D01*
X138430000Y-64079260D01*
X138463767Y-64160780D01*
X138616433Y-64389261D01*
X138810739Y-64583567D01*
X139039220Y-64736233D01*
X139293093Y-64841391D01*
X139562604Y-64895000D01*
X139837396Y-64895000D01*
X139912607Y-64880040D01*
X140611606Y-65579039D01*
X140637459Y-65610541D01*
X140707033Y-65667639D01*
X140763156Y-65713698D01*
X140763158Y-65713699D01*
X140906566Y-65790353D01*
X141062174Y-65837556D01*
X141183447Y-65849500D01*
X141183456Y-65849500D01*
X141223999Y-65853493D01*
X141264542Y-65849500D01*
X156529192Y-65849500D01*
X156569742Y-65853494D01*
X156610292Y-65849500D01*
X156610295Y-65849500D01*
X156731568Y-65837556D01*
X156887176Y-65790353D01*
X157030584Y-65713699D01*
X157156283Y-65610541D01*
X157182140Y-65579034D01*
X162245675Y-60515500D01*
X173108497Y-60515500D01*
X173245744Y-60607205D01*
X173434102Y-60685226D01*
X173634061Y-60725000D01*
X173837939Y-60725000D01*
X174037898Y-60685226D01*
X174226256Y-60607205D01*
X174307500Y-60552920D01*
X174388744Y-60607205D01*
X174577102Y-60685226D01*
X174777061Y-60725000D01*
X174980939Y-60725000D01*
X175180898Y-60685226D01*
X175369256Y-60607205D01*
X175538774Y-60493937D01*
X175682937Y-60349774D01*
X175796205Y-60180256D01*
X175874226Y-59991898D01*
X175914000Y-59791939D01*
X175914000Y-59588061D01*
X175874226Y-59388102D01*
X175796205Y-59199744D01*
X175682937Y-59030226D01*
X175538774Y-58886063D01*
X175369256Y-58772795D01*
X175180898Y-58694774D01*
X174980939Y-58655000D01*
X174777061Y-58655000D01*
X174577102Y-58694774D01*
X174388744Y-58772795D01*
X174307500Y-58827080D01*
X174226256Y-58772795D01*
X174037898Y-58694774D01*
X173837939Y-58655000D01*
X173634061Y-58655000D01*
X173434102Y-58694774D01*
X173245744Y-58772795D01*
X173108497Y-58864500D01*
X161944292Y-58864500D01*
X161903741Y-58860506D01*
X161863191Y-58864500D01*
X161863189Y-58864500D01*
X161741916Y-58876444D01*
X161586308Y-58923647D01*
X161442899Y-59000301D01*
X161435272Y-59006561D01*
X161314774Y-58886063D01*
X161145256Y-58772795D01*
X160956898Y-58694774D01*
X160756939Y-58655000D01*
X160553061Y-58655000D01*
X160353102Y-58694774D01*
X160164744Y-58772795D01*
X159995226Y-58886063D01*
X159851063Y-59030226D01*
X159737795Y-59199744D01*
X159659774Y-59388102D01*
X159627572Y-59549995D01*
X159498996Y-59678572D01*
X159337102Y-59710774D01*
X159148744Y-59788795D01*
X158979226Y-59902063D01*
X158835063Y-60046226D01*
X158721795Y-60215744D01*
X158643774Y-60404102D01*
X158611572Y-60565996D01*
X157773068Y-61404500D01*
X156265819Y-61404500D01*
X156281391Y-61366907D01*
X156335000Y-61097396D01*
X156335000Y-60822604D01*
X156281391Y-60553093D01*
X156176233Y-60299220D01*
X156023567Y-60070739D01*
X155829261Y-59876433D01*
X155600780Y-59723767D01*
X155346907Y-59618609D01*
X155077396Y-59565000D01*
X154802604Y-59565000D01*
X154533093Y-59618609D01*
X154279220Y-59723767D01*
X154050739Y-59876433D01*
X153856433Y-60070739D01*
X153703767Y-60299220D01*
X153670000Y-60380740D01*
X153636233Y-60299220D01*
X153483567Y-60070739D01*
X153289261Y-59876433D01*
X153060780Y-59723767D01*
X152806907Y-59618609D01*
X152537396Y-59565000D01*
X152262604Y-59565000D01*
X151993093Y-59618609D01*
X151739220Y-59723767D01*
X151510739Y-59876433D01*
X151316433Y-60070739D01*
X151163767Y-60299220D01*
X151130000Y-60380740D01*
X151096233Y-60299220D01*
X150943567Y-60070739D01*
X150749261Y-59876433D01*
X150520780Y-59723767D01*
X150266907Y-59618609D01*
X149997396Y-59565000D01*
X149722604Y-59565000D01*
X149453093Y-59618609D01*
X149199220Y-59723767D01*
X148970739Y-59876433D01*
X148776433Y-60070739D01*
X148623767Y-60299220D01*
X148590000Y-60380740D01*
X148556233Y-60299220D01*
X148403567Y-60070739D01*
X148209261Y-59876433D01*
X147980780Y-59723767D01*
X147726907Y-59618609D01*
X147514895Y-59576437D01*
X147553226Y-59483898D01*
X147593000Y-59283939D01*
X147593000Y-59080061D01*
X147553226Y-58880102D01*
X147475205Y-58691744D01*
X147361937Y-58522226D01*
X147217774Y-58378063D01*
X147048256Y-58264795D01*
X146859898Y-58186774D01*
X146659939Y-58147000D01*
X146456061Y-58147000D01*
X146256102Y-58186774D01*
X146067744Y-58264795D01*
X146050000Y-58276651D01*
X146032256Y-58264795D01*
X145843898Y-58186774D01*
X145643939Y-58147000D01*
X145440061Y-58147000D01*
X145240102Y-58186774D01*
X145051744Y-58264795D01*
X144914497Y-58356500D01*
X136565550Y-58356500D01*
X136525000Y-58352506D01*
X136484449Y-58356500D01*
X136484447Y-58356500D01*
X136363174Y-58368444D01*
X136207566Y-58415647D01*
X136064157Y-58492301D01*
X135969958Y-58569608D01*
X135969955Y-58569611D01*
X135938459Y-58595459D01*
X135912610Y-58626956D01*
X135334965Y-59204603D01*
X135303459Y-59230459D01*
X135265721Y-59276444D01*
X135200301Y-59356158D01*
X135186904Y-59381222D01*
X135123647Y-59499567D01*
X135080768Y-59640919D01*
X135026907Y-59618609D01*
X134757396Y-59565000D01*
X134482604Y-59565000D01*
X134213093Y-59618609D01*
X133959220Y-59723767D01*
X133730739Y-59876433D01*
X133536433Y-60070739D01*
X133383767Y-60299220D01*
X133278609Y-60553093D01*
X133225000Y-60822604D01*
X133225000Y-61097396D01*
X133278609Y-61366907D01*
X133383767Y-61620780D01*
X133536433Y-61849261D01*
X133730739Y-62043567D01*
X133959220Y-62196233D01*
X134040740Y-62230000D01*
X133959220Y-62263767D01*
X133730739Y-62416433D01*
X133536433Y-62610739D01*
X133383767Y-62839220D01*
X133350000Y-62920740D01*
X133316233Y-62839220D01*
X133163567Y-62610739D01*
X132969261Y-62416433D01*
X132740780Y-62263767D01*
X132486907Y-62158609D01*
X132217396Y-62105000D01*
X131942604Y-62105000D01*
X131673093Y-62158609D01*
X131478602Y-62239170D01*
X131381500Y-62142068D01*
X131381500Y-60666932D01*
X132120891Y-59927542D01*
X132120895Y-59927537D01*
X132339432Y-59709000D01*
X132435939Y-59709000D01*
X132635898Y-59669226D01*
X132824256Y-59591205D01*
X132993774Y-59477937D01*
X133137937Y-59333774D01*
X133251205Y-59164256D01*
X133329226Y-58975898D01*
X133369000Y-58775939D01*
X133369000Y-58572061D01*
X133329226Y-58372102D01*
X133251205Y-58183744D01*
X133137937Y-58014226D01*
X132993774Y-57870063D01*
X132824256Y-57756795D01*
X132635898Y-57678774D01*
X132435939Y-57639000D01*
X132232061Y-57639000D01*
X132032102Y-57678774D01*
X131843744Y-57756795D01*
X131674226Y-57870063D01*
X131530063Y-58014226D01*
X131416795Y-58183744D01*
X131338774Y-58372102D01*
X131338106Y-58375462D01*
X130953463Y-58760105D01*
X130953458Y-58760109D01*
X130000966Y-59712602D01*
X129969459Y-59738459D01*
X129915288Y-59804468D01*
X129866301Y-59864158D01*
X129798311Y-59991358D01*
X129789647Y-60007567D01*
X129742444Y-60163175D01*
X129731279Y-60276541D01*
X129726506Y-60325000D01*
X119396348Y-60325000D01*
X119408205Y-60307256D01*
X119486226Y-60118898D01*
X119526000Y-59918939D01*
X119526000Y-59715061D01*
X119486226Y-59515102D01*
X119408205Y-59326744D01*
X119294937Y-59157226D01*
X119150774Y-59013063D01*
X118981256Y-58899795D01*
X118792898Y-58821774D01*
X118592939Y-58782000D01*
X118389061Y-58782000D01*
X118189102Y-58821774D01*
X118000744Y-58899795D01*
X117863497Y-58991500D01*
X117848503Y-58991500D01*
X117711256Y-58899795D01*
X117522898Y-58821774D01*
X117322939Y-58782000D01*
X117119061Y-58782000D01*
X116919102Y-58821774D01*
X116730744Y-58899795D01*
X116593497Y-58991500D01*
X104366763Y-58991500D01*
X104373226Y-58975898D01*
X104413000Y-58775939D01*
X104413000Y-58572061D01*
X104373226Y-58372102D01*
X104295205Y-58183744D01*
X104181937Y-58014226D01*
X104037774Y-57870063D01*
X103868256Y-57756795D01*
X103679898Y-57678774D01*
X103479939Y-57639000D01*
X103276061Y-57639000D01*
X103076102Y-57678774D01*
X102887744Y-57756795D01*
X102870000Y-57768651D01*
X102852256Y-57756795D01*
X102663898Y-57678774D01*
X102463939Y-57639000D01*
X102260061Y-57639000D01*
X102060102Y-57678774D01*
X101871744Y-57756795D01*
X101734497Y-57848500D01*
X97830550Y-57848500D01*
X97789999Y-57844506D01*
X97749449Y-57848500D01*
X97749447Y-57848500D01*
X97628174Y-57860444D01*
X97472566Y-57907647D01*
X97329158Y-57984301D01*
X97203459Y-58087459D01*
X97177602Y-58118966D01*
X96726969Y-58569599D01*
X96726958Y-58569608D01*
X96104496Y-59192072D01*
X96072991Y-59217927D01*
X96056044Y-59238576D01*
X96035395Y-59255523D01*
X96009544Y-59287023D01*
X93892068Y-61404500D01*
X92765819Y-61404500D01*
X92781391Y-61366907D01*
X92835000Y-61097396D01*
X92835000Y-60822604D01*
X92781391Y-60553093D01*
X92676233Y-60299220D01*
X92523567Y-60070739D01*
X92329261Y-59876433D01*
X92100780Y-59723767D01*
X91846907Y-59618609D01*
X91577396Y-59565000D01*
X91302604Y-59565000D01*
X91033093Y-59618609D01*
X90779220Y-59723767D01*
X90550739Y-59876433D01*
X90356433Y-60070739D01*
X90203767Y-60299220D01*
X90170000Y-60380740D01*
X90136233Y-60299220D01*
X89983567Y-60070739D01*
X89789261Y-59876433D01*
X89560780Y-59723767D01*
X89437798Y-59672826D01*
X89455898Y-59669226D01*
X89644256Y-59591205D01*
X89725500Y-59536920D01*
X89806744Y-59591205D01*
X89995102Y-59669226D01*
X90195061Y-59709000D01*
X90398939Y-59709000D01*
X90598898Y-59669226D01*
X90787256Y-59591205D01*
X90956774Y-59477937D01*
X91100937Y-59333774D01*
X91214205Y-59164256D01*
X91292226Y-58975898D01*
X91332000Y-58775939D01*
X91332000Y-58572061D01*
X91292226Y-58372102D01*
X91214205Y-58183744D01*
X91100937Y-58014226D01*
X90956774Y-57870063D01*
X90787256Y-57756795D01*
X90598898Y-57678774D01*
X90398939Y-57639000D01*
X90195061Y-57639000D01*
X89995102Y-57678774D01*
X89806744Y-57756795D01*
X89725500Y-57811080D01*
X89644256Y-57756795D01*
X89455898Y-57678774D01*
X89255939Y-57639000D01*
X89052061Y-57639000D01*
X88852102Y-57678774D01*
X88663744Y-57756795D01*
X88526497Y-57848500D01*
X77108000Y-57848500D01*
X77108000Y-57781561D01*
X77068226Y-57581602D01*
X76990205Y-57393244D01*
X76876937Y-57223726D01*
X76732774Y-57079563D01*
X76563256Y-56966295D01*
X76374898Y-56888274D01*
X76174939Y-56848500D01*
X75971061Y-56848500D01*
X75771102Y-56888274D01*
X75755500Y-56894737D01*
X75755500Y-55725763D01*
X75771102Y-55732226D01*
X75971061Y-55772000D01*
X76174939Y-55772000D01*
X76374898Y-55732226D01*
X76563256Y-55654205D01*
X76700503Y-55562500D01*
X89288497Y-55562500D01*
X89425744Y-55654205D01*
X89614102Y-55732226D01*
X89814061Y-55772000D01*
X90017939Y-55772000D01*
X90217898Y-55732226D01*
X90406256Y-55654205D01*
X90543503Y-55562500D01*
X97924497Y-55562500D01*
X98061744Y-55654205D01*
X98250102Y-55732226D01*
X98450061Y-55772000D01*
X98653939Y-55772000D01*
X98853898Y-55732226D01*
X99042256Y-55654205D01*
X99179503Y-55562500D01*
X103385497Y-55562500D01*
X103522744Y-55654205D01*
X103711102Y-55732226D01*
X103911061Y-55772000D01*
X104114939Y-55772000D01*
X104314898Y-55732226D01*
X104503256Y-55654205D01*
X104640503Y-55562500D01*
X117609497Y-55562500D01*
X117746744Y-55654205D01*
X117935102Y-55732226D01*
X118135061Y-55772000D01*
X118338939Y-55772000D01*
X118538898Y-55732226D01*
X118727256Y-55654205D01*
X118864503Y-55562500D01*
X131833497Y-55562500D01*
X131970744Y-55654205D01*
X132159102Y-55732226D01*
X132359061Y-55772000D01*
X132562939Y-55772000D01*
X132762898Y-55732226D01*
X132951256Y-55654205D01*
X133088503Y-55562500D01*
X145803497Y-55562500D01*
X145940744Y-55654205D01*
X146129102Y-55732226D01*
X146329061Y-55772000D01*
X146532939Y-55772000D01*
X146732898Y-55732226D01*
X146921256Y-55654205D01*
X147058503Y-55562500D01*
X159773497Y-55562500D01*
X159910744Y-55654205D01*
X160099102Y-55732226D01*
X160299061Y-55772000D01*
X160502939Y-55772000D01*
X160702898Y-55732226D01*
X160891256Y-55654205D01*
X161028503Y-55562500D01*
X173870497Y-55562500D01*
X174007744Y-55654205D01*
X174196102Y-55732226D01*
X174396061Y-55772000D01*
X174599939Y-55772000D01*
X174799898Y-55732226D01*
X174988256Y-55654205D01*
X175157774Y-55540937D01*
X175301937Y-55396774D01*
X175415205Y-55227256D01*
X175493226Y-55038898D01*
X175533000Y-54838939D01*
X175533000Y-54635061D01*
X175493226Y-54435102D01*
X175415205Y-54246744D01*
X175301937Y-54077226D01*
X175157774Y-53933063D01*
X174988256Y-53819795D01*
X174799898Y-53741774D01*
X174599939Y-53702000D01*
X174396061Y-53702000D01*
X174196102Y-53741774D01*
X174007744Y-53819795D01*
X173870497Y-53911500D01*
X167563183Y-53911500D01*
X167793727Y-53816005D01*
X168022535Y-53663120D01*
X168217120Y-53468535D01*
X168370005Y-53239727D01*
X168475314Y-52985490D01*
X168529000Y-52715592D01*
X168529000Y-52476061D01*
X170415000Y-52476061D01*
X170415000Y-52679939D01*
X170454774Y-52879898D01*
X170532795Y-53068256D01*
X170646063Y-53237774D01*
X170790226Y-53381937D01*
X170959744Y-53495205D01*
X171148102Y-53573226D01*
X171348061Y-53613000D01*
X171551939Y-53613000D01*
X171751898Y-53573226D01*
X171940256Y-53495205D01*
X172077503Y-53403500D01*
X174893425Y-53403500D01*
X174936880Y-53468535D01*
X175131465Y-53663120D01*
X175360273Y-53816005D01*
X175614510Y-53921314D01*
X175884408Y-53975000D01*
X176159592Y-53975000D01*
X176429490Y-53921314D01*
X176683727Y-53816005D01*
X176912535Y-53663120D01*
X177107120Y-53468535D01*
X177260005Y-53239727D01*
X177365314Y-52985490D01*
X177419000Y-52715592D01*
X177419000Y-52440408D01*
X179705000Y-52440408D01*
X179705000Y-52715592D01*
X179758686Y-52985490D01*
X179863995Y-53239727D01*
X180016880Y-53468535D01*
X180211465Y-53663120D01*
X180440273Y-53816005D01*
X180694510Y-53921314D01*
X180964408Y-53975000D01*
X181239592Y-53975000D01*
X181509490Y-53921314D01*
X181763727Y-53816005D01*
X181992535Y-53663120D01*
X182187120Y-53468535D01*
X182340005Y-53239727D01*
X182445314Y-52985490D01*
X182499000Y-52715592D01*
X182499000Y-52440408D01*
X182445314Y-52170510D01*
X182340005Y-51916273D01*
X182187120Y-51687465D01*
X181992535Y-51492880D01*
X181763727Y-51339995D01*
X181509490Y-51234686D01*
X181239592Y-51181000D01*
X180964408Y-51181000D01*
X180694510Y-51234686D01*
X180440273Y-51339995D01*
X180211465Y-51492880D01*
X180016880Y-51687465D01*
X179863995Y-51916273D01*
X179758686Y-52170510D01*
X179705000Y-52440408D01*
X177419000Y-52440408D01*
X177365314Y-52170510D01*
X177260005Y-51916273D01*
X177107120Y-51687465D01*
X176912535Y-51492880D01*
X176683727Y-51339995D01*
X176429490Y-51234686D01*
X176159592Y-51181000D01*
X175884408Y-51181000D01*
X175614510Y-51234686D01*
X175360273Y-51339995D01*
X175131465Y-51492880D01*
X174936880Y-51687465D01*
X174893425Y-51752500D01*
X172077503Y-51752500D01*
X171940256Y-51660795D01*
X171751898Y-51582774D01*
X171551939Y-51543000D01*
X171348061Y-51543000D01*
X171148102Y-51582774D01*
X170959744Y-51660795D01*
X170790226Y-51774063D01*
X170646063Y-51918226D01*
X170532795Y-52087744D01*
X170454774Y-52276102D01*
X170415000Y-52476061D01*
X168529000Y-52476061D01*
X168529000Y-52440408D01*
X168475314Y-52170510D01*
X168370005Y-51916273D01*
X168217120Y-51687465D01*
X168022535Y-51492880D01*
X167793727Y-51339995D01*
X167539490Y-51234686D01*
X167269592Y-51181000D01*
X166994408Y-51181000D01*
X166724510Y-51234686D01*
X166470273Y-51339995D01*
X166241465Y-51492880D01*
X166046880Y-51687465D01*
X165893995Y-51916273D01*
X165788686Y-52170510D01*
X165735000Y-52440408D01*
X165735000Y-52715592D01*
X165788686Y-52985490D01*
X165893995Y-53239727D01*
X166046880Y-53468535D01*
X166241465Y-53663120D01*
X166470273Y-53816005D01*
X166700817Y-53911500D01*
X162483183Y-53911500D01*
X162713727Y-53816005D01*
X162942535Y-53663120D01*
X163137120Y-53468535D01*
X163290005Y-53239727D01*
X163395314Y-52985490D01*
X163449000Y-52715592D01*
X163449000Y-52440408D01*
X163395314Y-52170510D01*
X163290005Y-51916273D01*
X163137120Y-51687465D01*
X162942535Y-51492880D01*
X162713727Y-51339995D01*
X162459490Y-51234686D01*
X162189592Y-51181000D01*
X161914408Y-51181000D01*
X161644510Y-51234686D01*
X161390273Y-51339995D01*
X161161465Y-51492880D01*
X160966880Y-51687465D01*
X160923425Y-51752500D01*
X158234503Y-51752500D01*
X158097256Y-51660795D01*
X157908898Y-51582774D01*
X157708939Y-51543000D01*
X157505061Y-51543000D01*
X157305102Y-51582774D01*
X157116744Y-51660795D01*
X156947226Y-51774063D01*
X156803063Y-51918226D01*
X156689795Y-52087744D01*
X156611774Y-52276102D01*
X156572000Y-52476061D01*
X156572000Y-52679939D01*
X156611774Y-52879898D01*
X156689795Y-53068256D01*
X156803063Y-53237774D01*
X156947226Y-53381937D01*
X157116744Y-53495205D01*
X157305102Y-53573226D01*
X157505061Y-53613000D01*
X157708939Y-53613000D01*
X157908898Y-53573226D01*
X158097256Y-53495205D01*
X158234503Y-53403500D01*
X160923425Y-53403500D01*
X160966880Y-53468535D01*
X161161465Y-53663120D01*
X161390273Y-53816005D01*
X161620817Y-53911500D01*
X161028503Y-53911500D01*
X160891256Y-53819795D01*
X160702898Y-53741774D01*
X160502939Y-53702000D01*
X160299061Y-53702000D01*
X160099102Y-53741774D01*
X159910744Y-53819795D01*
X159773497Y-53911500D01*
X153593183Y-53911500D01*
X153823727Y-53816005D01*
X154052535Y-53663120D01*
X154247120Y-53468535D01*
X154400005Y-53239727D01*
X154505314Y-52985490D01*
X154559000Y-52715592D01*
X154559000Y-52440408D01*
X154505314Y-52170510D01*
X154400005Y-51916273D01*
X154247120Y-51687465D01*
X154052535Y-51492880D01*
X153823727Y-51339995D01*
X153569490Y-51234686D01*
X153299592Y-51181000D01*
X153024408Y-51181000D01*
X152754510Y-51234686D01*
X152500273Y-51339995D01*
X152271465Y-51492880D01*
X152076880Y-51687465D01*
X151923995Y-51916273D01*
X151818686Y-52170510D01*
X151765000Y-52440408D01*
X151765000Y-52715592D01*
X151818686Y-52985490D01*
X151923995Y-53239727D01*
X152076880Y-53468535D01*
X152271465Y-53663120D01*
X152500273Y-53816005D01*
X152730817Y-53911500D01*
X148513183Y-53911500D01*
X148743727Y-53816005D01*
X148972535Y-53663120D01*
X149167120Y-53468535D01*
X149320005Y-53239727D01*
X149425314Y-52985490D01*
X149479000Y-52715592D01*
X149479000Y-52440408D01*
X149425314Y-52170510D01*
X149320005Y-51916273D01*
X149167120Y-51687465D01*
X148972535Y-51492880D01*
X148743727Y-51339995D01*
X148489490Y-51234686D01*
X148219592Y-51181000D01*
X147944408Y-51181000D01*
X147674510Y-51234686D01*
X147420273Y-51339995D01*
X147191465Y-51492880D01*
X146996880Y-51687465D01*
X146953425Y-51752500D01*
X144137503Y-51752500D01*
X144000256Y-51660795D01*
X143811898Y-51582774D01*
X143611939Y-51543000D01*
X143408061Y-51543000D01*
X143208102Y-51582774D01*
X143019744Y-51660795D01*
X142850226Y-51774063D01*
X142706063Y-51918226D01*
X142592795Y-52087744D01*
X142514774Y-52276102D01*
X142475000Y-52476061D01*
X142475000Y-52679939D01*
X142514774Y-52879898D01*
X142592795Y-53068256D01*
X142706063Y-53237774D01*
X142850226Y-53381937D01*
X143019744Y-53495205D01*
X143208102Y-53573226D01*
X143408061Y-53613000D01*
X143611939Y-53613000D01*
X143811898Y-53573226D01*
X144000256Y-53495205D01*
X144137503Y-53403500D01*
X146953425Y-53403500D01*
X146996880Y-53468535D01*
X147191465Y-53663120D01*
X147420273Y-53816005D01*
X147650817Y-53911500D01*
X147058503Y-53911500D01*
X146921256Y-53819795D01*
X146732898Y-53741774D01*
X146532939Y-53702000D01*
X146329061Y-53702000D01*
X146129102Y-53741774D01*
X145940744Y-53819795D01*
X145803497Y-53911500D01*
X139623183Y-53911500D01*
X139853727Y-53816005D01*
X140082535Y-53663120D01*
X140277120Y-53468535D01*
X140430005Y-53239727D01*
X140535314Y-52985490D01*
X140589000Y-52715592D01*
X140589000Y-52440408D01*
X140535314Y-52170510D01*
X140430005Y-51916273D01*
X140277120Y-51687465D01*
X140082535Y-51492880D01*
X139853727Y-51339995D01*
X139599490Y-51234686D01*
X139329592Y-51181000D01*
X139054408Y-51181000D01*
X138784510Y-51234686D01*
X138530273Y-51339995D01*
X138301465Y-51492880D01*
X138106880Y-51687465D01*
X137953995Y-51916273D01*
X137848686Y-52170510D01*
X137795000Y-52440408D01*
X137795000Y-52715592D01*
X137848686Y-52985490D01*
X137953995Y-53239727D01*
X138106880Y-53468535D01*
X138301465Y-53663120D01*
X138530273Y-53816005D01*
X138760817Y-53911500D01*
X134543183Y-53911500D01*
X134773727Y-53816005D01*
X135002535Y-53663120D01*
X135197120Y-53468535D01*
X135350005Y-53239727D01*
X135455314Y-52985490D01*
X135509000Y-52715592D01*
X135509000Y-52440408D01*
X135455314Y-52170510D01*
X135350005Y-51916273D01*
X135197120Y-51687465D01*
X135002535Y-51492880D01*
X134773727Y-51339995D01*
X134519490Y-51234686D01*
X134249592Y-51181000D01*
X133974408Y-51181000D01*
X133704510Y-51234686D01*
X133450273Y-51339995D01*
X133221465Y-51492880D01*
X133026880Y-51687465D01*
X132983425Y-51752500D01*
X130040503Y-51752500D01*
X129903256Y-51660795D01*
X129714898Y-51582774D01*
X129514939Y-51543000D01*
X129311061Y-51543000D01*
X129111102Y-51582774D01*
X128922744Y-51660795D01*
X128753226Y-51774063D01*
X128609063Y-51918226D01*
X128495795Y-52087744D01*
X128417774Y-52276102D01*
X128378000Y-52476061D01*
X128378000Y-52679939D01*
X128417774Y-52879898D01*
X128495795Y-53068256D01*
X128609063Y-53237774D01*
X128753226Y-53381937D01*
X128922744Y-53495205D01*
X129111102Y-53573226D01*
X129311061Y-53613000D01*
X129514939Y-53613000D01*
X129714898Y-53573226D01*
X129903256Y-53495205D01*
X130040503Y-53403500D01*
X132983425Y-53403500D01*
X133026880Y-53468535D01*
X133221465Y-53663120D01*
X133450273Y-53816005D01*
X133680817Y-53911500D01*
X133088503Y-53911500D01*
X132951256Y-53819795D01*
X132762898Y-53741774D01*
X132562939Y-53702000D01*
X132359061Y-53702000D01*
X132159102Y-53741774D01*
X131970744Y-53819795D01*
X131833497Y-53911500D01*
X125526183Y-53911500D01*
X125756727Y-53816005D01*
X125985535Y-53663120D01*
X126180120Y-53468535D01*
X126333005Y-53239727D01*
X126438314Y-52985490D01*
X126492000Y-52715592D01*
X126492000Y-52440408D01*
X126438314Y-52170510D01*
X126333005Y-51916273D01*
X126180120Y-51687465D01*
X125985535Y-51492880D01*
X125756727Y-51339995D01*
X125502490Y-51234686D01*
X125232592Y-51181000D01*
X124957408Y-51181000D01*
X124687510Y-51234686D01*
X124433273Y-51339995D01*
X124204465Y-51492880D01*
X124009880Y-51687465D01*
X123856995Y-51916273D01*
X123751686Y-52170510D01*
X123698000Y-52440408D01*
X123698000Y-52715592D01*
X123751686Y-52985490D01*
X123856995Y-53239727D01*
X124009880Y-53468535D01*
X124204465Y-53663120D01*
X124433273Y-53816005D01*
X124663817Y-53911500D01*
X120446183Y-53911500D01*
X120676727Y-53816005D01*
X120905535Y-53663120D01*
X121100120Y-53468535D01*
X121253005Y-53239727D01*
X121358314Y-52985490D01*
X121412000Y-52715592D01*
X121412000Y-52440408D01*
X121358314Y-52170510D01*
X121253005Y-51916273D01*
X121100120Y-51687465D01*
X120905535Y-51492880D01*
X120676727Y-51339995D01*
X120422490Y-51234686D01*
X120152592Y-51181000D01*
X119877408Y-51181000D01*
X119607510Y-51234686D01*
X119353273Y-51339995D01*
X119124465Y-51492880D01*
X118929880Y-51687465D01*
X118886425Y-51752500D01*
X115943503Y-51752500D01*
X115806256Y-51660795D01*
X115617898Y-51582774D01*
X115417939Y-51543000D01*
X115214061Y-51543000D01*
X115014102Y-51582774D01*
X114825744Y-51660795D01*
X114656226Y-51774063D01*
X114512063Y-51918226D01*
X114398795Y-52087744D01*
X114320774Y-52276102D01*
X114281000Y-52476061D01*
X114281000Y-52679939D01*
X114320774Y-52879898D01*
X114398795Y-53068256D01*
X114512063Y-53237774D01*
X114656226Y-53381937D01*
X114825744Y-53495205D01*
X115014102Y-53573226D01*
X115214061Y-53613000D01*
X115417939Y-53613000D01*
X115617898Y-53573226D01*
X115806256Y-53495205D01*
X115943503Y-53403500D01*
X118886425Y-53403500D01*
X118929880Y-53468535D01*
X119124465Y-53663120D01*
X119353273Y-53816005D01*
X119583817Y-53911500D01*
X118864503Y-53911500D01*
X118727256Y-53819795D01*
X118538898Y-53741774D01*
X118338939Y-53702000D01*
X118135061Y-53702000D01*
X117935102Y-53741774D01*
X117746744Y-53819795D01*
X117609497Y-53911500D01*
X111429183Y-53911500D01*
X111659727Y-53816005D01*
X111888535Y-53663120D01*
X112083120Y-53468535D01*
X112236005Y-53239727D01*
X112341314Y-52985490D01*
X112395000Y-52715592D01*
X112395000Y-52440408D01*
X112341314Y-52170510D01*
X112236005Y-51916273D01*
X112083120Y-51687465D01*
X111888535Y-51492880D01*
X111659727Y-51339995D01*
X111405490Y-51234686D01*
X111135592Y-51181000D01*
X110860408Y-51181000D01*
X110590510Y-51234686D01*
X110336273Y-51339995D01*
X110107465Y-51492880D01*
X109912880Y-51687465D01*
X109759995Y-51916273D01*
X109654686Y-52170510D01*
X109601000Y-52440408D01*
X109601000Y-52715592D01*
X109654686Y-52985490D01*
X109759995Y-53239727D01*
X109912880Y-53468535D01*
X110107465Y-53663120D01*
X110336273Y-53816005D01*
X110566817Y-53911500D01*
X106349183Y-53911500D01*
X106579727Y-53816005D01*
X106808535Y-53663120D01*
X107003120Y-53468535D01*
X107156005Y-53239727D01*
X107261314Y-52985490D01*
X107315000Y-52715592D01*
X107315000Y-52440408D01*
X107261314Y-52170510D01*
X107156005Y-51916273D01*
X107003120Y-51687465D01*
X106808535Y-51492880D01*
X106579727Y-51339995D01*
X106325490Y-51234686D01*
X106055592Y-51181000D01*
X105780408Y-51181000D01*
X105510510Y-51234686D01*
X105256273Y-51339995D01*
X105027465Y-51492880D01*
X104832880Y-51687465D01*
X104789425Y-51752500D01*
X102100503Y-51752500D01*
X101963256Y-51660795D01*
X101774898Y-51582774D01*
X101574939Y-51543000D01*
X101371061Y-51543000D01*
X101171102Y-51582774D01*
X100982744Y-51660795D01*
X100813226Y-51774063D01*
X100669063Y-51918226D01*
X100555795Y-52087744D01*
X100477774Y-52276102D01*
X100438000Y-52476061D01*
X100438000Y-52679939D01*
X100477774Y-52879898D01*
X100555795Y-53068256D01*
X100669063Y-53237774D01*
X100813226Y-53381937D01*
X100982744Y-53495205D01*
X101171102Y-53573226D01*
X101371061Y-53613000D01*
X101574939Y-53613000D01*
X101774898Y-53573226D01*
X101963256Y-53495205D01*
X102100503Y-53403500D01*
X104789425Y-53403500D01*
X104832880Y-53468535D01*
X105027465Y-53663120D01*
X105256273Y-53816005D01*
X105486817Y-53911500D01*
X104640503Y-53911500D01*
X104503256Y-53819795D01*
X104314898Y-53741774D01*
X104114939Y-53702000D01*
X103911061Y-53702000D01*
X103711102Y-53741774D01*
X103522744Y-53819795D01*
X103385497Y-53911500D01*
X99179503Y-53911500D01*
X99042256Y-53819795D01*
X98853898Y-53741774D01*
X98653939Y-53702000D01*
X98450061Y-53702000D01*
X98250102Y-53741774D01*
X98061744Y-53819795D01*
X97924497Y-53911500D01*
X97459183Y-53911500D01*
X97689727Y-53816005D01*
X97918535Y-53663120D01*
X98113120Y-53468535D01*
X98266005Y-53239727D01*
X98371314Y-52985490D01*
X98425000Y-52715592D01*
X98425000Y-52440408D01*
X98371314Y-52170510D01*
X98266005Y-51916273D01*
X98113120Y-51687465D01*
X97918535Y-51492880D01*
X97689727Y-51339995D01*
X97435490Y-51234686D01*
X97165592Y-51181000D01*
X96890408Y-51181000D01*
X96620510Y-51234686D01*
X96366273Y-51339995D01*
X96137465Y-51492880D01*
X95942880Y-51687465D01*
X95789995Y-51916273D01*
X95684686Y-52170510D01*
X95631000Y-52440408D01*
X95631000Y-52715592D01*
X95684686Y-52985490D01*
X95789995Y-53239727D01*
X95942880Y-53468535D01*
X96137465Y-53663120D01*
X96366273Y-53816005D01*
X96596817Y-53911500D01*
X92379183Y-53911500D01*
X92609727Y-53816005D01*
X92838535Y-53663120D01*
X93033120Y-53468535D01*
X93186005Y-53239727D01*
X93291314Y-52985490D01*
X93345000Y-52715592D01*
X93345000Y-52440408D01*
X93291314Y-52170510D01*
X93186005Y-51916273D01*
X93033120Y-51687465D01*
X92838535Y-51492880D01*
X92609727Y-51339995D01*
X92355490Y-51234686D01*
X92085592Y-51181000D01*
X91810408Y-51181000D01*
X91540510Y-51234686D01*
X91286273Y-51339995D01*
X91057465Y-51492880D01*
X90862880Y-51687465D01*
X90819425Y-51752500D01*
X88257503Y-51752500D01*
X88120256Y-51660795D01*
X87931898Y-51582774D01*
X87731939Y-51543000D01*
X87528061Y-51543000D01*
X87328102Y-51582774D01*
X87139744Y-51660795D01*
X86970226Y-51774063D01*
X86826063Y-51918226D01*
X86712795Y-52087744D01*
X86634774Y-52276102D01*
X86595000Y-52476061D01*
X86595000Y-52679939D01*
X86634774Y-52879898D01*
X86712795Y-53068256D01*
X86826063Y-53237774D01*
X86970226Y-53381937D01*
X87139744Y-53495205D01*
X87328102Y-53573226D01*
X87528061Y-53613000D01*
X87731939Y-53613000D01*
X87931898Y-53573226D01*
X88120256Y-53495205D01*
X88257503Y-53403500D01*
X90819425Y-53403500D01*
X90862880Y-53468535D01*
X91057465Y-53663120D01*
X91286273Y-53816005D01*
X91516817Y-53911500D01*
X90543503Y-53911500D01*
X90406256Y-53819795D01*
X90217898Y-53741774D01*
X90017939Y-53702000D01*
X89814061Y-53702000D01*
X89614102Y-53741774D01*
X89425744Y-53819795D01*
X89288497Y-53911500D01*
X83489183Y-53911500D01*
X83719727Y-53816005D01*
X83948535Y-53663120D01*
X84143120Y-53468535D01*
X84296005Y-53239727D01*
X84401314Y-52985490D01*
X84455000Y-52715592D01*
X84455000Y-52440408D01*
X84401314Y-52170510D01*
X84296005Y-51916273D01*
X84143120Y-51687465D01*
X83948535Y-51492880D01*
X83719727Y-51339995D01*
X83465490Y-51234686D01*
X83195592Y-51181000D01*
X82920408Y-51181000D01*
X82843692Y-51196260D01*
X82146398Y-50498966D01*
X82120541Y-50467459D01*
X81994842Y-50364301D01*
X81851434Y-50287647D01*
X81695826Y-50240444D01*
X81574553Y-50228500D01*
X81574550Y-50228500D01*
X81534000Y-50224506D01*
X81493450Y-50228500D01*
X76113550Y-50228500D01*
X76072999Y-50224506D01*
X76032449Y-50228500D01*
X76032447Y-50228500D01*
X75911174Y-50240444D01*
X75755566Y-50287647D01*
X75612157Y-50364301D01*
X75550596Y-50414823D01*
X75486459Y-50467459D01*
X75460606Y-50498961D01*
X74374961Y-51584607D01*
X74343460Y-51610459D01*
X74317609Y-51641959D01*
X74248356Y-51726343D01*
X74150256Y-51660795D01*
X73961898Y-51582774D01*
X73761939Y-51543000D01*
X73558061Y-51543000D01*
X73358102Y-51582774D01*
X73169744Y-51660795D01*
X73000226Y-51774063D01*
X72856063Y-51918226D01*
X72742795Y-52087744D01*
X72664774Y-52276102D01*
X72625000Y-52476061D01*
X72625000Y-52679939D01*
X72664774Y-52879898D01*
X72742795Y-53068256D01*
X72856063Y-53237774D01*
X73000226Y-53381937D01*
X73169744Y-53495205D01*
X73358102Y-53573226D01*
X73558061Y-53613000D01*
X73761939Y-53613000D01*
X73961898Y-53573226D01*
X74104501Y-53514158D01*
X74104500Y-56808067D01*
X73854567Y-57058000D01*
X71189050Y-57058000D01*
X71148499Y-57054006D01*
X71107949Y-57058000D01*
X71107947Y-57058000D01*
X70986674Y-57069944D01*
X70831066Y-57117147D01*
X70737611Y-57167101D01*
X70687657Y-57193801D01*
X70651194Y-57223726D01*
X70561959Y-57296959D01*
X70536108Y-57328459D01*
X69294961Y-58569607D01*
X69263460Y-58595459D01*
X69237609Y-58626959D01*
X69160301Y-58721158D01*
X69083647Y-58864567D01*
X69036445Y-59020174D01*
X69020506Y-59182000D01*
X69024501Y-59222560D01*
X69024500Y-61000552D01*
X69024501Y-61000562D01*
X69024500Y-61888067D01*
X68792607Y-62119960D01*
X68717396Y-62105000D01*
X68442604Y-62105000D01*
X68173093Y-62158609D01*
X67970000Y-62242733D01*
X67970000Y-43709560D01*
X74348000Y-43709560D01*
X74348000Y-44174440D01*
X74438694Y-44630387D01*
X74616595Y-45059879D01*
X74874868Y-45446412D01*
X75203588Y-45775132D01*
X75590121Y-46033405D01*
X76019613Y-46211306D01*
X76475560Y-46302000D01*
X76940440Y-46302000D01*
X77396387Y-46211306D01*
X77825879Y-46033405D01*
X78212412Y-45775132D01*
X78541132Y-45446412D01*
X78799405Y-45059879D01*
X78977306Y-44630387D01*
X79068000Y-44174440D01*
X79068000Y-43709560D01*
X81968000Y-43709560D01*
X81968000Y-44174440D01*
X82058694Y-44630387D01*
X82236595Y-45059879D01*
X82494868Y-45446412D01*
X82823588Y-45775132D01*
X83210121Y-46033405D01*
X83639613Y-46211306D01*
X84095560Y-46302000D01*
X84560440Y-46302000D01*
X85016387Y-46211306D01*
X85445879Y-46033405D01*
X85832412Y-45775132D01*
X86161132Y-45446412D01*
X86419405Y-45059879D01*
X86597306Y-44630387D01*
X86688000Y-44174440D01*
X86688000Y-43709560D01*
X88318000Y-43709560D01*
X88318000Y-44174440D01*
X88408694Y-44630387D01*
X88586595Y-45059879D01*
X88844868Y-45446412D01*
X89173588Y-45775132D01*
X89560121Y-46033405D01*
X89989613Y-46211306D01*
X90445560Y-46302000D01*
X90910440Y-46302000D01*
X91366387Y-46211306D01*
X91795879Y-46033405D01*
X92182412Y-45775132D01*
X92511132Y-45446412D01*
X92769405Y-45059879D01*
X92947306Y-44630387D01*
X93038000Y-44174440D01*
X93038000Y-43709560D01*
X95938000Y-43709560D01*
X95938000Y-44174440D01*
X96028694Y-44630387D01*
X96206595Y-45059879D01*
X96464868Y-45446412D01*
X96793588Y-45775132D01*
X97180121Y-46033405D01*
X97609613Y-46211306D01*
X98065560Y-46302000D01*
X98530440Y-46302000D01*
X98986387Y-46211306D01*
X99415879Y-46033405D01*
X99802412Y-45775132D01*
X100131132Y-45446412D01*
X100389405Y-45059879D01*
X100567306Y-44630387D01*
X100658000Y-44174440D01*
X100658000Y-43709560D01*
X102288000Y-43709560D01*
X102288000Y-44174440D01*
X102378694Y-44630387D01*
X102556595Y-45059879D01*
X102814868Y-45446412D01*
X103143588Y-45775132D01*
X103530121Y-46033405D01*
X103959613Y-46211306D01*
X104415560Y-46302000D01*
X104880440Y-46302000D01*
X105336387Y-46211306D01*
X105765879Y-46033405D01*
X106152412Y-45775132D01*
X106481132Y-45446412D01*
X106739405Y-45059879D01*
X106917306Y-44630387D01*
X107008000Y-44174440D01*
X107008000Y-43709560D01*
X109908000Y-43709560D01*
X109908000Y-44174440D01*
X109998694Y-44630387D01*
X110176595Y-45059879D01*
X110434868Y-45446412D01*
X110763588Y-45775132D01*
X111150121Y-46033405D01*
X111579613Y-46211306D01*
X112035560Y-46302000D01*
X112500440Y-46302000D01*
X112956387Y-46211306D01*
X113385879Y-46033405D01*
X113772412Y-45775132D01*
X114101132Y-45446412D01*
X114359405Y-45059879D01*
X114537306Y-44630387D01*
X114628000Y-44174440D01*
X114628000Y-43709560D01*
X116385000Y-43709560D01*
X116385000Y-44174440D01*
X116475694Y-44630387D01*
X116653595Y-45059879D01*
X116911868Y-45446412D01*
X117240588Y-45775132D01*
X117627121Y-46033405D01*
X118056613Y-46211306D01*
X118512560Y-46302000D01*
X118977440Y-46302000D01*
X119433387Y-46211306D01*
X119862879Y-46033405D01*
X120249412Y-45775132D01*
X120578132Y-45446412D01*
X120836405Y-45059879D01*
X121014306Y-44630387D01*
X121105000Y-44174440D01*
X121105000Y-43709560D01*
X124005000Y-43709560D01*
X124005000Y-44174440D01*
X124095694Y-44630387D01*
X124273595Y-45059879D01*
X124531868Y-45446412D01*
X124860588Y-45775132D01*
X125247121Y-46033405D01*
X125676613Y-46211306D01*
X126132560Y-46302000D01*
X126597440Y-46302000D01*
X127053387Y-46211306D01*
X127482879Y-46033405D01*
X127869412Y-45775132D01*
X128198132Y-45446412D01*
X128456405Y-45059879D01*
X128634306Y-44630387D01*
X128725000Y-44174440D01*
X128725000Y-43709560D01*
X130482000Y-43709560D01*
X130482000Y-44174440D01*
X130572694Y-44630387D01*
X130750595Y-45059879D01*
X131008868Y-45446412D01*
X131337588Y-45775132D01*
X131724121Y-46033405D01*
X132153613Y-46211306D01*
X132609560Y-46302000D01*
X133074440Y-46302000D01*
X133530387Y-46211306D01*
X133959879Y-46033405D01*
X134346412Y-45775132D01*
X134675132Y-45446412D01*
X134933405Y-45059879D01*
X135111306Y-44630387D01*
X135202000Y-44174440D01*
X135202000Y-43709560D01*
X138102000Y-43709560D01*
X138102000Y-44174440D01*
X138192694Y-44630387D01*
X138370595Y-45059879D01*
X138628868Y-45446412D01*
X138957588Y-45775132D01*
X139344121Y-46033405D01*
X139773613Y-46211306D01*
X140229560Y-46302000D01*
X140694440Y-46302000D01*
X141150387Y-46211306D01*
X141579879Y-46033405D01*
X141966412Y-45775132D01*
X142295132Y-45446412D01*
X142553405Y-45059879D01*
X142731306Y-44630387D01*
X142822000Y-44174440D01*
X142822000Y-43709560D01*
X144452000Y-43709560D01*
X144452000Y-44174440D01*
X144542694Y-44630387D01*
X144720595Y-45059879D01*
X144978868Y-45446412D01*
X145307588Y-45775132D01*
X145694121Y-46033405D01*
X146123613Y-46211306D01*
X146579560Y-46302000D01*
X147044440Y-46302000D01*
X147500387Y-46211306D01*
X147929879Y-46033405D01*
X148316412Y-45775132D01*
X148645132Y-45446412D01*
X148903405Y-45059879D01*
X149081306Y-44630387D01*
X149172000Y-44174440D01*
X149172000Y-43709560D01*
X152072000Y-43709560D01*
X152072000Y-44174440D01*
X152162694Y-44630387D01*
X152340595Y-45059879D01*
X152598868Y-45446412D01*
X152927588Y-45775132D01*
X153314121Y-46033405D01*
X153743613Y-46211306D01*
X154199560Y-46302000D01*
X154664440Y-46302000D01*
X155120387Y-46211306D01*
X155549879Y-46033405D01*
X155936412Y-45775132D01*
X156265132Y-45446412D01*
X156523405Y-45059879D01*
X156701306Y-44630387D01*
X156792000Y-44174440D01*
X156792000Y-43709560D01*
X158422000Y-43709560D01*
X158422000Y-44174440D01*
X158512694Y-44630387D01*
X158690595Y-45059879D01*
X158948868Y-45446412D01*
X159277588Y-45775132D01*
X159664121Y-46033405D01*
X160093613Y-46211306D01*
X160549560Y-46302000D01*
X161014440Y-46302000D01*
X161470387Y-46211306D01*
X161899879Y-46033405D01*
X162286412Y-45775132D01*
X162615132Y-45446412D01*
X162873405Y-45059879D01*
X163051306Y-44630387D01*
X163142000Y-44174440D01*
X163142000Y-43709560D01*
X166042000Y-43709560D01*
X166042000Y-44174440D01*
X166132694Y-44630387D01*
X166310595Y-45059879D01*
X166568868Y-45446412D01*
X166897588Y-45775132D01*
X167284121Y-46033405D01*
X167713613Y-46211306D01*
X168169560Y-46302000D01*
X168634440Y-46302000D01*
X169090387Y-46211306D01*
X169519879Y-46033405D01*
X169906412Y-45775132D01*
X170235132Y-45446412D01*
X170493405Y-45059879D01*
X170671306Y-44630387D01*
X170762000Y-44174440D01*
X170762000Y-43709560D01*
X172392000Y-43709560D01*
X172392000Y-44174440D01*
X172482694Y-44630387D01*
X172660595Y-45059879D01*
X172918868Y-45446412D01*
X173247588Y-45775132D01*
X173634121Y-46033405D01*
X174063613Y-46211306D01*
X174519560Y-46302000D01*
X174984440Y-46302000D01*
X175440387Y-46211306D01*
X175869879Y-46033405D01*
X176256412Y-45775132D01*
X176585132Y-45446412D01*
X176843405Y-45059879D01*
X177021306Y-44630387D01*
X177112000Y-44174440D01*
X177112000Y-43709560D01*
X180012000Y-43709560D01*
X180012000Y-44174440D01*
X180102694Y-44630387D01*
X180280595Y-45059879D01*
X180538868Y-45446412D01*
X180867588Y-45775132D01*
X181254121Y-46033405D01*
X181683613Y-46211306D01*
X182139560Y-46302000D01*
X182604440Y-46302000D01*
X183060387Y-46211306D01*
X183489879Y-46033405D01*
X183876412Y-45775132D01*
X184205132Y-45446412D01*
X184463405Y-45059879D01*
X184641306Y-44630387D01*
X184732000Y-44174440D01*
X184732000Y-43709560D01*
X184641306Y-43253613D01*
X184463405Y-42824121D01*
X184205132Y-42437588D01*
X183876412Y-42108868D01*
X183489879Y-41850595D01*
X183060387Y-41672694D01*
X182604440Y-41582000D01*
X182139560Y-41582000D01*
X181683613Y-41672694D01*
X181254121Y-41850595D01*
X180867588Y-42108868D01*
X180538868Y-42437588D01*
X180280595Y-42824121D01*
X180102694Y-43253613D01*
X180012000Y-43709560D01*
X177112000Y-43709560D01*
X177021306Y-43253613D01*
X176843405Y-42824121D01*
X176585132Y-42437588D01*
X176256412Y-42108868D01*
X175869879Y-41850595D01*
X175440387Y-41672694D01*
X174984440Y-41582000D01*
X174519560Y-41582000D01*
X174063613Y-41672694D01*
X173634121Y-41850595D01*
X173247588Y-42108868D01*
X172918868Y-42437588D01*
X172660595Y-42824121D01*
X172482694Y-43253613D01*
X172392000Y-43709560D01*
X170762000Y-43709560D01*
X170671306Y-43253613D01*
X170493405Y-42824121D01*
X170235132Y-42437588D01*
X169906412Y-42108868D01*
X169519879Y-41850595D01*
X169090387Y-41672694D01*
X168634440Y-41582000D01*
X168169560Y-41582000D01*
X167713613Y-41672694D01*
X167284121Y-41850595D01*
X166897588Y-42108868D01*
X166568868Y-42437588D01*
X166310595Y-42824121D01*
X166132694Y-43253613D01*
X166042000Y-43709560D01*
X163142000Y-43709560D01*
X163051306Y-43253613D01*
X162873405Y-42824121D01*
X162615132Y-42437588D01*
X162286412Y-42108868D01*
X161899879Y-41850595D01*
X161470387Y-41672694D01*
X161014440Y-41582000D01*
X160549560Y-41582000D01*
X160093613Y-41672694D01*
X159664121Y-41850595D01*
X159277588Y-42108868D01*
X158948868Y-42437588D01*
X158690595Y-42824121D01*
X158512694Y-43253613D01*
X158422000Y-43709560D01*
X156792000Y-43709560D01*
X156701306Y-43253613D01*
X156523405Y-42824121D01*
X156265132Y-42437588D01*
X155936412Y-42108868D01*
X155549879Y-41850595D01*
X155120387Y-41672694D01*
X154664440Y-41582000D01*
X154199560Y-41582000D01*
X153743613Y-41672694D01*
X153314121Y-41850595D01*
X152927588Y-42108868D01*
X152598868Y-42437588D01*
X152340595Y-42824121D01*
X152162694Y-43253613D01*
X152072000Y-43709560D01*
X149172000Y-43709560D01*
X149081306Y-43253613D01*
X148903405Y-42824121D01*
X148645132Y-42437588D01*
X148316412Y-42108868D01*
X147929879Y-41850595D01*
X147500387Y-41672694D01*
X147044440Y-41582000D01*
X146579560Y-41582000D01*
X146123613Y-41672694D01*
X145694121Y-41850595D01*
X145307588Y-42108868D01*
X144978868Y-42437588D01*
X144720595Y-42824121D01*
X144542694Y-43253613D01*
X144452000Y-43709560D01*
X142822000Y-43709560D01*
X142731306Y-43253613D01*
X142553405Y-42824121D01*
X142295132Y-42437588D01*
X141966412Y-42108868D01*
X141579879Y-41850595D01*
X141150387Y-41672694D01*
X140694440Y-41582000D01*
X140229560Y-41582000D01*
X139773613Y-41672694D01*
X139344121Y-41850595D01*
X138957588Y-42108868D01*
X138628868Y-42437588D01*
X138370595Y-42824121D01*
X138192694Y-43253613D01*
X138102000Y-43709560D01*
X135202000Y-43709560D01*
X135111306Y-43253613D01*
X134933405Y-42824121D01*
X134675132Y-42437588D01*
X134346412Y-42108868D01*
X133959879Y-41850595D01*
X133530387Y-41672694D01*
X133074440Y-41582000D01*
X132609560Y-41582000D01*
X132153613Y-41672694D01*
X131724121Y-41850595D01*
X131337588Y-42108868D01*
X131008868Y-42437588D01*
X130750595Y-42824121D01*
X130572694Y-43253613D01*
X130482000Y-43709560D01*
X128725000Y-43709560D01*
X128634306Y-43253613D01*
X128456405Y-42824121D01*
X128198132Y-42437588D01*
X127869412Y-42108868D01*
X127482879Y-41850595D01*
X127053387Y-41672694D01*
X126597440Y-41582000D01*
X126132560Y-41582000D01*
X125676613Y-41672694D01*
X125247121Y-41850595D01*
X124860588Y-42108868D01*
X124531868Y-42437588D01*
X124273595Y-42824121D01*
X124095694Y-43253613D01*
X124005000Y-43709560D01*
X121105000Y-43709560D01*
X121014306Y-43253613D01*
X120836405Y-42824121D01*
X120578132Y-42437588D01*
X120249412Y-42108868D01*
X119862879Y-41850595D01*
X119433387Y-41672694D01*
X118977440Y-41582000D01*
X118512560Y-41582000D01*
X118056613Y-41672694D01*
X117627121Y-41850595D01*
X117240588Y-42108868D01*
X116911868Y-42437588D01*
X116653595Y-42824121D01*
X116475694Y-43253613D01*
X116385000Y-43709560D01*
X114628000Y-43709560D01*
X114537306Y-43253613D01*
X114359405Y-42824121D01*
X114101132Y-42437588D01*
X113772412Y-42108868D01*
X113385879Y-41850595D01*
X112956387Y-41672694D01*
X112500440Y-41582000D01*
X112035560Y-41582000D01*
X111579613Y-41672694D01*
X111150121Y-41850595D01*
X110763588Y-42108868D01*
X110434868Y-42437588D01*
X110176595Y-42824121D01*
X109998694Y-43253613D01*
X109908000Y-43709560D01*
X107008000Y-43709560D01*
X106917306Y-43253613D01*
X106739405Y-42824121D01*
X106481132Y-42437588D01*
X106152412Y-42108868D01*
X105765879Y-41850595D01*
X105336387Y-41672694D01*
X104880440Y-41582000D01*
X104415560Y-41582000D01*
X103959613Y-41672694D01*
X103530121Y-41850595D01*
X103143588Y-42108868D01*
X102814868Y-42437588D01*
X102556595Y-42824121D01*
X102378694Y-43253613D01*
X102288000Y-43709560D01*
X100658000Y-43709560D01*
X100567306Y-43253613D01*
X100389405Y-42824121D01*
X100131132Y-42437588D01*
X99802412Y-42108868D01*
X99415879Y-41850595D01*
X98986387Y-41672694D01*
X98530440Y-41582000D01*
X98065560Y-41582000D01*
X97609613Y-41672694D01*
X97180121Y-41850595D01*
X96793588Y-42108868D01*
X96464868Y-42437588D01*
X96206595Y-42824121D01*
X96028694Y-43253613D01*
X95938000Y-43709560D01*
X93038000Y-43709560D01*
X92947306Y-43253613D01*
X92769405Y-42824121D01*
X92511132Y-42437588D01*
X92182412Y-42108868D01*
X91795879Y-41850595D01*
X91366387Y-41672694D01*
X90910440Y-41582000D01*
X90445560Y-41582000D01*
X89989613Y-41672694D01*
X89560121Y-41850595D01*
X89173588Y-42108868D01*
X88844868Y-42437588D01*
X88586595Y-42824121D01*
X88408694Y-43253613D01*
X88318000Y-43709560D01*
X86688000Y-43709560D01*
X86597306Y-43253613D01*
X86419405Y-42824121D01*
X86161132Y-42437588D01*
X85832412Y-42108868D01*
X85445879Y-41850595D01*
X85016387Y-41672694D01*
X84560440Y-41582000D01*
X84095560Y-41582000D01*
X83639613Y-41672694D01*
X83210121Y-41850595D01*
X82823588Y-42108868D01*
X82494868Y-42437588D01*
X82236595Y-42824121D01*
X82058694Y-43253613D01*
X81968000Y-43709560D01*
X79068000Y-43709560D01*
X78977306Y-43253613D01*
X78799405Y-42824121D01*
X78541132Y-42437588D01*
X78212412Y-42108868D01*
X77825879Y-41850595D01*
X77396387Y-41672694D01*
X76940440Y-41582000D01*
X76475560Y-41582000D01*
X76019613Y-41672694D01*
X75590121Y-41850595D01*
X75203588Y-42108868D01*
X74874868Y-42437588D01*
X74616595Y-42824121D01*
X74438694Y-43253613D01*
X74348000Y-43709560D01*
X67970000Y-43709560D01*
X67970000Y-40030000D01*
X191110000Y-40030000D01*
X191110001Y-52037581D01*
G37*
X191110001Y-52037581D02*
X191110000Y-85565721D01*
X191080766Y-85863876D01*
X191003551Y-86119624D01*
X190878131Y-86355504D01*
X190709289Y-86562525D01*
X190503446Y-86732813D01*
X190268444Y-86859879D01*
X190013240Y-86938877D01*
X189717118Y-86970000D01*
X174022419Y-86970000D01*
X173990000Y-86966807D01*
X173957581Y-86970000D01*
X173860617Y-86979550D01*
X173736207Y-87017290D01*
X173621550Y-87078575D01*
X173521052Y-87161052D01*
X173438575Y-87261550D01*
X173377290Y-87376207D01*
X173339550Y-87500617D01*
X173326807Y-87630000D01*
X173330001Y-87662429D01*
X173330000Y-108425581D01*
X173326807Y-108458000D01*
X173339550Y-108587383D01*
X173377290Y-108711793D01*
X173438575Y-108826450D01*
X173519645Y-108925233D01*
X173521052Y-108926948D01*
X173621550Y-109009425D01*
X173736207Y-109070710D01*
X173860617Y-109108450D01*
X173990000Y-109121193D01*
X174022419Y-109118000D01*
X189705721Y-109118000D01*
X190003875Y-109147234D01*
X190259622Y-109224448D01*
X190495504Y-109349869D01*
X190702530Y-109518716D01*
X190872813Y-109724554D01*
X190999879Y-109959556D01*
X191078876Y-110214756D01*
X191110001Y-110510891D01*
X191110000Y-118045339D01*
X190769946Y-118153211D01*
X190714974Y-118176772D01*
X190659659Y-118199571D01*
X190651553Y-118203954D01*
X190304030Y-118395006D01*
X190254674Y-118428801D01*
X190204847Y-118461906D01*
X190197747Y-118467780D01*
X189893951Y-118722695D01*
X189852105Y-118765428D01*
X189809653Y-118807584D01*
X189803829Y-118814725D01*
X189555332Y-119123794D01*
X189522606Y-119173805D01*
X189489127Y-119223439D01*
X189484801Y-119231576D01*
X189301068Y-119583022D01*
X189278656Y-119638494D01*
X189255478Y-119693632D01*
X189252815Y-119702454D01*
X189140845Y-120082896D01*
X189129645Y-120141612D01*
X189117607Y-120200254D01*
X189116708Y-120209425D01*
X189080766Y-120604370D01*
X189081184Y-120664186D01*
X189080766Y-120724003D01*
X189081665Y-120733174D01*
X189123118Y-121127577D01*
X189135148Y-121186183D01*
X189146355Y-121244935D01*
X189149019Y-121253757D01*
X189266290Y-121632599D01*
X189289474Y-121687750D01*
X189311880Y-121743208D01*
X189316206Y-121751345D01*
X189504828Y-122100193D01*
X189538283Y-122149792D01*
X189571032Y-122199838D01*
X189576855Y-122206977D01*
X189576858Y-122206981D01*
X189576862Y-122206985D01*
X189829644Y-122512547D01*
X189872061Y-122554669D01*
X189913943Y-122597438D01*
X189921044Y-122603311D01*
X190228369Y-122853960D01*
X190278178Y-122887052D01*
X190327550Y-122920859D01*
X190335656Y-122925241D01*
X190685813Y-123111423D01*
X190741105Y-123134212D01*
X190796101Y-123157784D01*
X190804905Y-123160509D01*
X191110001Y-123252623D01*
X191110000Y-131285721D01*
X191080766Y-131583876D01*
X191003551Y-131839624D01*
X190878131Y-132075504D01*
X190709289Y-132282525D01*
X190503446Y-132452813D01*
X190268444Y-132579879D01*
X190013240Y-132658877D01*
X189717118Y-132690000D01*
X69374279Y-132690000D01*
X69076124Y-132660766D01*
X68820376Y-132583551D01*
X68584496Y-132458131D01*
X68377475Y-132289289D01*
X68207187Y-132083446D01*
X68080121Y-131848444D01*
X68001123Y-131593240D01*
X67970000Y-131297118D01*
X67970000Y-123254661D01*
X68310055Y-123146789D01*
X68365040Y-123123222D01*
X68420341Y-123100429D01*
X68428447Y-123096046D01*
X68775970Y-122904994D01*
X68825327Y-122871199D01*
X68875153Y-122838094D01*
X68882254Y-122832220D01*
X69186049Y-122577305D01*
X69227912Y-122534555D01*
X69270347Y-122492416D01*
X69276171Y-122485274D01*
X69524668Y-122176206D01*
X69557415Y-122126164D01*
X69590873Y-122076561D01*
X69595199Y-122068425D01*
X69778932Y-121716978D01*
X69801337Y-121661523D01*
X69824522Y-121606368D01*
X69827185Y-121597546D01*
X69939155Y-121217104D01*
X69950355Y-121158388D01*
X69962393Y-121099746D01*
X69963292Y-121090575D01*
X69999234Y-120695630D01*
X69998816Y-120635814D01*
X69999234Y-120575997D01*
X69998334Y-120566826D01*
X69956882Y-120172422D01*
X69944855Y-120113829D01*
X69933645Y-120055065D01*
X69930981Y-120046243D01*
X69813710Y-119667401D01*
X69790526Y-119612250D01*
X69768120Y-119556792D01*
X69763794Y-119548655D01*
X69575172Y-119199807D01*
X69541717Y-119150208D01*
X69508968Y-119100162D01*
X69503144Y-119093021D01*
X69250356Y-118787453D01*
X69207923Y-118745315D01*
X69166057Y-118702562D01*
X69158962Y-118696694D01*
X69158957Y-118696689D01*
X69158952Y-118696685D01*
X68851631Y-118446041D01*
X68801838Y-118412959D01*
X68752449Y-118379141D01*
X68744343Y-118374759D01*
X68394187Y-118188577D01*
X68338867Y-118165776D01*
X68283899Y-118142216D01*
X68275099Y-118139492D01*
X68275093Y-118139490D01*
X67970000Y-118047378D01*
X67970000Y-107937267D01*
X68173093Y-108021391D01*
X68442604Y-108075000D01*
X68717396Y-108075000D01*
X68986907Y-108021391D01*
X69240780Y-107916233D01*
X69469261Y-107763567D01*
X69663567Y-107569261D01*
X69816233Y-107340780D01*
X69850000Y-107259260D01*
X69883767Y-107340780D01*
X70036433Y-107569261D01*
X70230739Y-107763567D01*
X70459220Y-107916233D01*
X70713093Y-108021391D01*
X70982604Y-108075000D01*
X71257396Y-108075000D01*
X71526907Y-108021391D01*
X71780780Y-107916233D01*
X72009261Y-107763567D01*
X72203567Y-107569261D01*
X72356233Y-107340780D01*
X72390000Y-107259260D01*
X72423767Y-107340780D01*
X72576433Y-107569261D01*
X72770739Y-107763567D01*
X72999220Y-107916233D01*
X73253093Y-108021391D01*
X73522604Y-108075000D01*
X73797396Y-108075000D01*
X74066907Y-108021391D01*
X74320780Y-107916233D01*
X74549261Y-107763567D01*
X74743567Y-107569261D01*
X74896233Y-107340780D01*
X74930000Y-107259260D01*
X74963767Y-107340780D01*
X75116433Y-107569261D01*
X75310739Y-107763567D01*
X75539220Y-107916233D01*
X75793093Y-108021391D01*
X76062604Y-108075000D01*
X76337396Y-108075000D01*
X76606907Y-108021391D01*
X76860780Y-107916233D01*
X77089261Y-107763567D01*
X77283567Y-107569261D01*
X77436233Y-107340780D01*
X77470000Y-107259260D01*
X77503767Y-107340780D01*
X77656433Y-107569261D01*
X77850739Y-107763567D01*
X78079220Y-107916233D01*
X78333093Y-108021391D01*
X78602604Y-108075000D01*
X78877396Y-108075000D01*
X79146907Y-108021391D01*
X79400780Y-107916233D01*
X79629261Y-107763567D01*
X79823567Y-107569261D01*
X79976233Y-107340780D01*
X80010000Y-107259260D01*
X80043767Y-107340780D01*
X80196433Y-107569261D01*
X80390739Y-107763567D01*
X80619220Y-107916233D01*
X80873093Y-108021391D01*
X81142604Y-108075000D01*
X81417396Y-108075000D01*
X81686907Y-108021391D01*
X81940780Y-107916233D01*
X82169261Y-107763567D01*
X82363567Y-107569261D01*
X82516233Y-107340780D01*
X82550000Y-107259260D01*
X82583767Y-107340780D01*
X82736433Y-107569261D01*
X82930739Y-107763567D01*
X83159220Y-107916233D01*
X83413093Y-108021391D01*
X83682604Y-108075000D01*
X83957396Y-108075000D01*
X84226907Y-108021391D01*
X84480780Y-107916233D01*
X84709261Y-107763567D01*
X84903567Y-107569261D01*
X85056233Y-107340780D01*
X85090000Y-107259260D01*
X85123767Y-107340780D01*
X85276433Y-107569261D01*
X85470739Y-107763567D01*
X85699220Y-107916233D01*
X85953093Y-108021391D01*
X86222604Y-108075000D01*
X86497396Y-108075000D01*
X86766907Y-108021391D01*
X87020780Y-107916233D01*
X87249261Y-107763567D01*
X87443567Y-107569261D01*
X87596233Y-107340780D01*
X87630000Y-107259260D01*
X87663767Y-107340780D01*
X87816433Y-107569261D01*
X88010739Y-107763567D01*
X88239220Y-107916233D01*
X88493093Y-108021391D01*
X88762604Y-108075000D01*
X89037396Y-108075000D01*
X89306907Y-108021391D01*
X89560780Y-107916233D01*
X89789261Y-107763567D01*
X89983567Y-107569261D01*
X90136233Y-107340780D01*
X90170000Y-107259260D01*
X90203767Y-107340780D01*
X90356433Y-107569261D01*
X90550739Y-107763567D01*
X90779220Y-107916233D01*
X91033093Y-108021391D01*
X91302604Y-108075000D01*
X91577396Y-108075000D01*
X91846907Y-108021391D01*
X92100780Y-107916233D01*
X92329261Y-107763567D01*
X92523567Y-107569261D01*
X92676233Y-107340780D01*
X92781391Y-107086907D01*
X92835000Y-106817396D01*
X92835000Y-106542604D01*
X92781391Y-106273093D01*
X92765819Y-106235500D01*
X106956950Y-106235500D01*
X106997500Y-106239494D01*
X107038050Y-106235500D01*
X107038053Y-106235500D01*
X107159326Y-106223556D01*
X107314934Y-106176353D01*
X107458342Y-106099699D01*
X107584041Y-105996541D01*
X107609898Y-105965034D01*
X110092541Y-103482392D01*
X110124041Y-103456541D01*
X110181139Y-103386967D01*
X110227198Y-103330844D01*
X110272326Y-103246416D01*
X110303853Y-103187434D01*
X110351056Y-103031826D01*
X110363000Y-102910553D01*
X110363000Y-102910544D01*
X110366993Y-102870001D01*
X110363000Y-102829458D01*
X110363000Y-101498061D01*
X114535000Y-101498061D01*
X114535000Y-101701939D01*
X114574774Y-101901898D01*
X114652795Y-102090256D01*
X114744501Y-102227503D01*
X114744500Y-103083449D01*
X114740506Y-103124000D01*
X114744500Y-103164550D01*
X114744500Y-103164552D01*
X114756444Y-103285825D01*
X114777547Y-103355392D01*
X114803647Y-103441433D01*
X114880301Y-103584842D01*
X114914214Y-103626165D01*
X114983459Y-103710541D01*
X115014966Y-103736398D01*
X117243606Y-105965039D01*
X117269459Y-105996541D01*
X117333596Y-106049177D01*
X117395157Y-106099699D01*
X117442414Y-106124958D01*
X117538566Y-106176353D01*
X117694174Y-106223556D01*
X117815447Y-106235500D01*
X117815449Y-106235500D01*
X117855999Y-106239494D01*
X117896550Y-106235500D01*
X130754181Y-106235500D01*
X130738609Y-106273093D01*
X130685000Y-106542604D01*
X130685000Y-106817396D01*
X130738609Y-107086907D01*
X130843767Y-107340780D01*
X130996433Y-107569261D01*
X131190739Y-107763567D01*
X131419220Y-107916233D01*
X131673093Y-108021391D01*
X131942604Y-108075000D01*
X132217396Y-108075000D01*
X132486907Y-108021391D01*
X132740780Y-107916233D01*
X132969261Y-107763567D01*
X133163567Y-107569261D01*
X133316233Y-107340780D01*
X133350000Y-107259260D01*
X133383767Y-107340780D01*
X133536433Y-107569261D01*
X133730739Y-107763567D01*
X133959220Y-107916233D01*
X134213093Y-108021391D01*
X134482604Y-108075000D01*
X134757396Y-108075000D01*
X135026907Y-108021391D01*
X135280780Y-107916233D01*
X135509261Y-107763567D01*
X135703567Y-107569261D01*
X135856233Y-107340780D01*
X135890000Y-107259260D01*
X135923767Y-107340780D01*
X136076433Y-107569261D01*
X136270739Y-107763567D01*
X136499220Y-107916233D01*
X136753093Y-108021391D01*
X137022604Y-108075000D01*
X137297396Y-108075000D01*
X137566907Y-108021391D01*
X137820780Y-107916233D01*
X138049261Y-107763567D01*
X138243567Y-107569261D01*
X138396233Y-107340780D01*
X138430000Y-107259260D01*
X138463767Y-107340780D01*
X138616433Y-107569261D01*
X138810739Y-107763567D01*
X139039220Y-107916233D01*
X139293093Y-108021391D01*
X139562604Y-108075000D01*
X139837396Y-108075000D01*
X140106907Y-108021391D01*
X140360780Y-107916233D01*
X140589261Y-107763567D01*
X140783567Y-107569261D01*
X140936233Y-107340780D01*
X140970000Y-107259260D01*
X141003767Y-107340780D01*
X141156433Y-107569261D01*
X141350739Y-107763567D01*
X141579220Y-107916233D01*
X141833093Y-108021391D01*
X142102604Y-108075000D01*
X142377396Y-108075000D01*
X142646907Y-108021391D01*
X142900780Y-107916233D01*
X143129261Y-107763567D01*
X143323567Y-107569261D01*
X143476233Y-107340780D01*
X143510000Y-107259260D01*
X143543767Y-107340780D01*
X143696433Y-107569261D01*
X143890739Y-107763567D01*
X144119220Y-107916233D01*
X144373093Y-108021391D01*
X144642604Y-108075000D01*
X144917396Y-108075000D01*
X145186907Y-108021391D01*
X145440780Y-107916233D01*
X145669261Y-107763567D01*
X145863567Y-107569261D01*
X146016233Y-107340780D01*
X146050000Y-107259260D01*
X146083767Y-107340780D01*
X146236433Y-107569261D01*
X146430739Y-107763567D01*
X146659220Y-107916233D01*
X146913093Y-108021391D01*
X147182604Y-108075000D01*
X147457396Y-108075000D01*
X147726907Y-108021391D01*
X147980780Y-107916233D01*
X148209261Y-107763567D01*
X148403567Y-107569261D01*
X148556233Y-107340780D01*
X148590000Y-107259260D01*
X148623767Y-107340780D01*
X148776433Y-107569261D01*
X148970739Y-107763567D01*
X149199220Y-107916233D01*
X149453093Y-108021391D01*
X149722604Y-108075000D01*
X149997396Y-108075000D01*
X150266907Y-108021391D01*
X150520780Y-107916233D01*
X150749261Y-107763567D01*
X150943567Y-107569261D01*
X151096233Y-107340780D01*
X151130000Y-107259260D01*
X151163767Y-107340780D01*
X151316433Y-107569261D01*
X151510739Y-107763567D01*
X151739220Y-107916233D01*
X151993093Y-108021391D01*
X152262604Y-108075000D01*
X152537396Y-108075000D01*
X152806907Y-108021391D01*
X153060780Y-107916233D01*
X153289261Y-107763567D01*
X153483567Y-107569261D01*
X153636233Y-107340780D01*
X153670000Y-107259260D01*
X153703767Y-107340780D01*
X153856433Y-107569261D01*
X154050739Y-107763567D01*
X154279220Y-107916233D01*
X154533093Y-108021391D01*
X154802604Y-108075000D01*
X155077396Y-108075000D01*
X155346907Y-108021391D01*
X155600780Y-107916233D01*
X155829261Y-107763567D01*
X156023567Y-107569261D01*
X156176233Y-107340780D01*
X156281391Y-107086907D01*
X156335000Y-106817396D01*
X156335000Y-106542604D01*
X156281391Y-106273093D01*
X156176233Y-106019220D01*
X156023567Y-105790739D01*
X155829261Y-105596433D01*
X155600780Y-105443767D01*
X155519260Y-105410000D01*
X155600780Y-105376233D01*
X155829261Y-105223567D01*
X156023567Y-105029261D01*
X156176233Y-104800780D01*
X156281391Y-104546907D01*
X156335000Y-104277396D01*
X156335000Y-104002604D01*
X156281391Y-103733093D01*
X156176233Y-103479220D01*
X156023567Y-103250739D01*
X155829261Y-103056433D01*
X155600780Y-102903767D01*
X155346907Y-102798609D01*
X155077396Y-102745000D01*
X154802604Y-102745000D01*
X154533093Y-102798609D01*
X154495500Y-102814181D01*
X154495500Y-102783550D01*
X154499494Y-102743000D01*
X154495500Y-102702447D01*
X154483556Y-102581174D01*
X154436353Y-102425566D01*
X154413345Y-102382521D01*
X154359699Y-102282157D01*
X154282392Y-102187958D01*
X154282389Y-102187955D01*
X154256541Y-102156459D01*
X154225046Y-102130612D01*
X153075898Y-100981465D01*
X153050041Y-100949959D01*
X153021531Y-100926561D01*
X157588000Y-100926561D01*
X157588000Y-101130439D01*
X157627774Y-101330398D01*
X157705795Y-101518756D01*
X157819063Y-101688274D01*
X157963226Y-101832437D01*
X158132744Y-101945705D01*
X158321102Y-102023726D01*
X158521061Y-102063500D01*
X158724939Y-102063500D01*
X158924898Y-102023726D01*
X159113256Y-101945705D01*
X159282774Y-101832437D01*
X159324711Y-101790500D01*
X161297497Y-101790500D01*
X161434744Y-101882205D01*
X161623102Y-101960226D01*
X161823061Y-102000000D01*
X162026939Y-102000000D01*
X162226898Y-101960226D01*
X162415256Y-101882205D01*
X162584774Y-101768937D01*
X162728937Y-101624774D01*
X162842205Y-101455256D01*
X162920226Y-101266898D01*
X162960000Y-101066939D01*
X162960000Y-100863061D01*
X162920226Y-100663102D01*
X162842205Y-100474744D01*
X162728937Y-100305226D01*
X162584774Y-100161063D01*
X162415256Y-100047795D01*
X162226898Y-99969774D01*
X162026939Y-99930000D01*
X161823061Y-99930000D01*
X161623102Y-99969774D01*
X161434744Y-100047795D01*
X161297497Y-100139500D01*
X159155468Y-100139500D01*
X159113256Y-100111295D01*
X158924898Y-100033274D01*
X158724939Y-99993500D01*
X158521061Y-99993500D01*
X158321102Y-100033274D01*
X158132744Y-100111295D01*
X157963226Y-100224563D01*
X157819063Y-100368726D01*
X157705795Y-100538244D01*
X157627774Y-100726602D01*
X157588000Y-100926561D01*
X153021531Y-100926561D01*
X152924342Y-100846801D01*
X152780934Y-100770147D01*
X152625326Y-100722944D01*
X152504053Y-100711000D01*
X152504050Y-100711000D01*
X152463500Y-100707006D01*
X152422950Y-100711000D01*
X149852503Y-100711000D01*
X149715256Y-100619295D01*
X149526898Y-100541274D01*
X149326939Y-100501500D01*
X149123061Y-100501500D01*
X148923102Y-100541274D01*
X148734744Y-100619295D01*
X148565226Y-100732563D01*
X148421063Y-100876726D01*
X148307795Y-101046244D01*
X148229774Y-101234602D01*
X148190000Y-101434561D01*
X148190000Y-101582989D01*
X146736508Y-101582989D01*
X146425959Y-101272440D01*
X146400107Y-101240940D01*
X146349420Y-101199343D01*
X146274408Y-101137781D01*
X146130999Y-101061127D01*
X145975392Y-101013925D01*
X145813566Y-100997986D01*
X145773006Y-101001981D01*
X143459689Y-101001979D01*
X143411205Y-100884929D01*
X143297937Y-100715411D01*
X143153774Y-100571248D01*
X142984256Y-100457980D01*
X142795898Y-100379959D01*
X142595939Y-100340185D01*
X142392061Y-100340185D01*
X142192102Y-100379959D01*
X142003744Y-100457980D01*
X141834226Y-100571248D01*
X141690063Y-100715411D01*
X141576795Y-100884929D01*
X141498774Y-101073287D01*
X141459000Y-101273246D01*
X141459000Y-101477124D01*
X141480058Y-101582989D01*
X136861500Y-101582989D01*
X136861500Y-101434561D01*
X136821726Y-101234602D01*
X136743705Y-101046244D01*
X136630437Y-100876726D01*
X136486274Y-100732563D01*
X136316756Y-100619295D01*
X136128398Y-100541274D01*
X135928439Y-100501500D01*
X135724561Y-100501500D01*
X135524602Y-100541274D01*
X135336244Y-100619295D01*
X135166726Y-100732563D01*
X135022563Y-100876726D01*
X134909295Y-101046244D01*
X134831274Y-101234602D01*
X134791500Y-101434561D01*
X134791500Y-101638439D01*
X134831274Y-101838398D01*
X134909295Y-102026756D01*
X135000998Y-102163999D01*
X130763432Y-102163999D01*
X130059428Y-101459996D01*
X130027226Y-101298102D01*
X129949205Y-101109744D01*
X129835937Y-100940226D01*
X129691774Y-100796063D01*
X129522256Y-100682795D01*
X129333898Y-100604774D01*
X129133939Y-100565000D01*
X128930061Y-100565000D01*
X128730102Y-100604774D01*
X128541744Y-100682795D01*
X128372226Y-100796063D01*
X128228063Y-100940226D01*
X128114795Y-101109744D01*
X128036774Y-101298102D01*
X127997000Y-101498061D01*
X127997000Y-101701939D01*
X128036774Y-101901898D01*
X128114795Y-102090256D01*
X128228063Y-102259774D01*
X128372226Y-102403937D01*
X128541744Y-102517205D01*
X128730102Y-102595226D01*
X128891996Y-102627428D01*
X129809105Y-103544538D01*
X129834958Y-103576040D01*
X129960657Y-103679198D01*
X130104065Y-103755852D01*
X130259673Y-103803055D01*
X130380946Y-103814999D01*
X130380948Y-103814999D01*
X130421498Y-103818993D01*
X130462049Y-103814999D01*
X130722317Y-103814999D01*
X130685000Y-104002604D01*
X130685000Y-104277396D01*
X130738609Y-104546907D01*
X130754181Y-104584500D01*
X118197933Y-104584500D01*
X116395500Y-102782068D01*
X116395500Y-102227503D01*
X116487205Y-102090256D01*
X116565226Y-101901898D01*
X116605000Y-101701939D01*
X116605000Y-101498061D01*
X116565226Y-101298102D01*
X116487205Y-101109744D01*
X116373937Y-100940226D01*
X116229774Y-100796063D01*
X116060256Y-100682795D01*
X115871898Y-100604774D01*
X115671939Y-100565000D01*
X115468061Y-100565000D01*
X115268102Y-100604774D01*
X115079744Y-100682795D01*
X114910226Y-100796063D01*
X114766063Y-100940226D01*
X114652795Y-101109744D01*
X114574774Y-101298102D01*
X114535000Y-101498061D01*
X110363000Y-101498061D01*
X110363000Y-94259061D01*
X133937500Y-94259061D01*
X133937500Y-94462939D01*
X133977274Y-94662898D01*
X134055295Y-94851256D01*
X134168563Y-95020774D01*
X134312726Y-95164937D01*
X134482244Y-95278205D01*
X134670602Y-95356226D01*
X134870561Y-95396000D01*
X135074439Y-95396000D01*
X135274398Y-95356226D01*
X135462756Y-95278205D01*
X135600003Y-95186500D01*
X163398812Y-95186500D01*
X163536059Y-95278205D01*
X163724417Y-95356226D01*
X163924376Y-95396000D01*
X164128254Y-95396000D01*
X164328213Y-95356226D01*
X164516571Y-95278205D01*
X164686089Y-95164937D01*
X164830252Y-95020774D01*
X164943520Y-94851256D01*
X165021541Y-94662898D01*
X165061315Y-94462939D01*
X165061315Y-94259061D01*
X165021541Y-94059102D01*
X164943520Y-93870744D01*
X164830252Y-93701226D01*
X164686089Y-93557063D01*
X164516571Y-93443795D01*
X164328213Y-93365774D01*
X164128254Y-93326000D01*
X163924376Y-93326000D01*
X163724417Y-93365774D01*
X163536059Y-93443795D01*
X163398812Y-93535500D01*
X135600003Y-93535500D01*
X135462756Y-93443795D01*
X135274398Y-93365774D01*
X135074439Y-93326000D01*
X134870561Y-93326000D01*
X134670602Y-93365774D01*
X134482244Y-93443795D01*
X134312726Y-93557063D01*
X134168563Y-93701226D01*
X134055295Y-93870744D01*
X133977274Y-94059102D01*
X133937500Y-94259061D01*
X110363000Y-94259061D01*
X110363000Y-93877432D01*
X110845004Y-93395428D01*
X111006898Y-93363226D01*
X111195256Y-93285205D01*
X111332503Y-93193500D01*
X116871997Y-93193500D01*
X117009244Y-93285205D01*
X117197602Y-93363226D01*
X117397561Y-93403000D01*
X117601439Y-93403000D01*
X117801398Y-93363226D01*
X117989756Y-93285205D01*
X118090336Y-93218000D01*
X123451497Y-93218000D01*
X123588744Y-93309705D01*
X123777102Y-93387726D01*
X123977061Y-93427500D01*
X124180939Y-93427500D01*
X124380898Y-93387726D01*
X124569256Y-93309705D01*
X124706503Y-93218000D01*
X130385164Y-93218000D01*
X130485744Y-93285205D01*
X130674102Y-93363226D01*
X130874061Y-93403000D01*
X131077939Y-93403000D01*
X131277898Y-93363226D01*
X131466256Y-93285205D01*
X131635774Y-93171937D01*
X131653211Y-93154500D01*
X137040497Y-93154500D01*
X137177744Y-93246205D01*
X137366102Y-93324226D01*
X137566061Y-93364000D01*
X137769939Y-93364000D01*
X137969898Y-93324226D01*
X138158256Y-93246205D01*
X138295503Y-93154500D01*
X143644497Y-93154500D01*
X143781744Y-93246205D01*
X143970102Y-93324226D01*
X144170061Y-93364000D01*
X144373939Y-93364000D01*
X144573898Y-93324226D01*
X144762256Y-93246205D01*
X144899503Y-93154500D01*
X150375497Y-93154500D01*
X150512744Y-93246205D01*
X150701102Y-93324226D01*
X150901061Y-93364000D01*
X151104939Y-93364000D01*
X151304898Y-93324226D01*
X151493256Y-93246205D01*
X151630503Y-93154500D01*
X157106497Y-93154500D01*
X157243744Y-93246205D01*
X157432102Y-93324226D01*
X157632061Y-93364000D01*
X157835939Y-93364000D01*
X158035898Y-93324226D01*
X158224256Y-93246205D01*
X158393774Y-93132937D01*
X158537937Y-92988774D01*
X158651205Y-92819256D01*
X158729226Y-92630898D01*
X158769000Y-92430939D01*
X158769000Y-92227061D01*
X158729226Y-92027102D01*
X158651205Y-91838744D01*
X158537937Y-91669226D01*
X158393774Y-91525063D01*
X158224256Y-91411795D01*
X158035898Y-91333774D01*
X157835939Y-91294000D01*
X157632061Y-91294000D01*
X157432102Y-91333774D01*
X157243744Y-91411795D01*
X157106497Y-91503500D01*
X151630503Y-91503500D01*
X151493256Y-91411795D01*
X151304898Y-91333774D01*
X151104939Y-91294000D01*
X150901061Y-91294000D01*
X150701102Y-91333774D01*
X150512744Y-91411795D01*
X150375497Y-91503500D01*
X144899503Y-91503500D01*
X144762256Y-91411795D01*
X144573898Y-91333774D01*
X144373939Y-91294000D01*
X144170061Y-91294000D01*
X143970102Y-91333774D01*
X143781744Y-91411795D01*
X143644497Y-91503500D01*
X138295503Y-91503500D01*
X138158256Y-91411795D01*
X137969898Y-91333774D01*
X137769939Y-91294000D01*
X137566061Y-91294000D01*
X137366102Y-91333774D01*
X137177744Y-91411795D01*
X137040497Y-91503500D01*
X131545135Y-91503500D01*
X131466256Y-91450795D01*
X131277898Y-91372774D01*
X131077939Y-91333000D01*
X130874061Y-91333000D01*
X130674102Y-91372774D01*
X130485744Y-91450795D01*
X130316226Y-91564063D01*
X130313289Y-91567000D01*
X124706503Y-91567000D01*
X124569256Y-91475295D01*
X124380898Y-91397274D01*
X124180939Y-91357500D01*
X123977061Y-91357500D01*
X123777102Y-91397274D01*
X123588744Y-91475295D01*
X123451497Y-91567000D01*
X118162211Y-91567000D01*
X118159274Y-91564063D01*
X117989756Y-91450795D01*
X117801398Y-91372774D01*
X117601439Y-91333000D01*
X117397561Y-91333000D01*
X117197602Y-91372774D01*
X117009244Y-91450795D01*
X116871997Y-91542500D01*
X111332503Y-91542500D01*
X111195256Y-91450795D01*
X111006898Y-91372774D01*
X110845005Y-91340572D01*
X110146433Y-90642000D01*
X167786606Y-90642000D01*
X167820105Y-90982119D01*
X167919314Y-91309168D01*
X168080421Y-91610578D01*
X168297234Y-91874766D01*
X168488994Y-92032139D01*
X168394236Y-92209419D01*
X168315040Y-92470493D01*
X168288299Y-92742000D01*
X168315040Y-93013507D01*
X168394236Y-93274581D01*
X168522843Y-93515188D01*
X168695919Y-93726081D01*
X168715316Y-93742000D01*
X168695919Y-93757919D01*
X168522843Y-93968812D01*
X168394236Y-94209419D01*
X168315040Y-94470493D01*
X168288299Y-94742000D01*
X168315040Y-95013507D01*
X168394236Y-95274581D01*
X168518940Y-95507886D01*
X168478815Y-95540815D01*
X168399463Y-95637506D01*
X168340498Y-95747820D01*
X168304188Y-95867518D01*
X168291928Y-95992000D01*
X168291928Y-97492000D01*
X168303008Y-97604496D01*
X168297234Y-97609234D01*
X168080421Y-97873422D01*
X167919314Y-98174832D01*
X167820105Y-98501881D01*
X167786606Y-98842000D01*
X167820105Y-99182119D01*
X167919314Y-99509168D01*
X168080421Y-99810578D01*
X168297234Y-100074766D01*
X168561422Y-100291579D01*
X168862832Y-100452686D01*
X169189881Y-100551895D01*
X169444775Y-100577000D01*
X170915225Y-100577000D01*
X171170119Y-100551895D01*
X171497168Y-100452686D01*
X171798578Y-100291579D01*
X172062766Y-100074766D01*
X172279579Y-99810578D01*
X172440686Y-99509168D01*
X172539895Y-99182119D01*
X172573394Y-98842000D01*
X172539895Y-98501881D01*
X172440686Y-98174832D01*
X172279579Y-97873422D01*
X172062766Y-97609234D01*
X172056992Y-97604496D01*
X172068072Y-97492000D01*
X172068072Y-95992000D01*
X172055812Y-95867518D01*
X172019502Y-95747820D01*
X171960537Y-95637506D01*
X171881185Y-95540815D01*
X171841060Y-95507886D01*
X171965764Y-95274581D01*
X172044960Y-95013507D01*
X172071701Y-94742000D01*
X172044960Y-94470493D01*
X171965764Y-94209419D01*
X171837157Y-93968812D01*
X171664081Y-93757919D01*
X171644684Y-93742000D01*
X171664081Y-93726081D01*
X171837157Y-93515188D01*
X171965764Y-93274581D01*
X172044960Y-93013507D01*
X172071701Y-92742000D01*
X172044960Y-92470493D01*
X171965764Y-92209419D01*
X171871006Y-92032139D01*
X172062766Y-91874766D01*
X172279579Y-91610578D01*
X172440686Y-91309168D01*
X172539895Y-90982119D01*
X172573394Y-90642000D01*
X172539895Y-90301881D01*
X172440686Y-89974832D01*
X172279579Y-89673422D01*
X172062766Y-89409234D01*
X171798578Y-89192421D01*
X171497168Y-89031314D01*
X171170119Y-88932105D01*
X170915225Y-88907000D01*
X169444775Y-88907000D01*
X169189881Y-88932105D01*
X168862832Y-89031314D01*
X168561422Y-89192421D01*
X168297234Y-89409234D01*
X168080421Y-89673422D01*
X167919314Y-89974832D01*
X167820105Y-90301881D01*
X167786606Y-90642000D01*
X110146433Y-90642000D01*
X102361262Y-82856830D01*
X102341226Y-82756102D01*
X102263205Y-82567744D01*
X102149937Y-82398226D01*
X102005774Y-82254063D01*
X101836256Y-82140795D01*
X101647898Y-82062774D01*
X101447939Y-82023000D01*
X101244061Y-82023000D01*
X101044102Y-82062774D01*
X100855744Y-82140795D01*
X100686226Y-82254063D01*
X100542063Y-82398226D01*
X100428795Y-82567744D01*
X100350774Y-82756102D01*
X100330000Y-82860541D01*
X100330000Y-73876000D01*
X119973928Y-73876000D01*
X119973928Y-75476000D01*
X119986188Y-75600482D01*
X120022498Y-75720180D01*
X120081463Y-75830494D01*
X120160815Y-75927185D01*
X120257506Y-76006537D01*
X120367820Y-76065502D01*
X120487518Y-76101812D01*
X120612000Y-76114072D01*
X122212000Y-76114072D01*
X122336482Y-76101812D01*
X122456180Y-76065502D01*
X122566494Y-76006537D01*
X122663185Y-75927185D01*
X122742537Y-75830494D01*
X122801502Y-75720180D01*
X122837812Y-75600482D01*
X122850072Y-75476000D01*
X122850072Y-73876000D01*
X142325928Y-73876000D01*
X142325928Y-75476000D01*
X142338188Y-75600482D01*
X142374498Y-75720180D01*
X142433463Y-75830494D01*
X142512815Y-75927185D01*
X142609506Y-76006537D01*
X142719820Y-76065502D01*
X142839518Y-76101812D01*
X142964000Y-76114072D01*
X144564000Y-76114072D01*
X144688482Y-76101812D01*
X144808180Y-76065502D01*
X144918494Y-76006537D01*
X145015185Y-75927185D01*
X145094537Y-75830494D01*
X145153502Y-75720180D01*
X145189812Y-75600482D01*
X145202072Y-75476000D01*
X145202072Y-74130000D01*
X166455928Y-74130000D01*
X166455928Y-75730000D01*
X166468188Y-75854482D01*
X166504498Y-75974180D01*
X166563463Y-76084494D01*
X166642815Y-76181185D01*
X166739506Y-76260537D01*
X166849820Y-76319502D01*
X166969518Y-76355812D01*
X167094000Y-76368072D01*
X168694000Y-76368072D01*
X168818482Y-76355812D01*
X168938180Y-76319502D01*
X169048494Y-76260537D01*
X169145185Y-76181185D01*
X169224537Y-76084494D01*
X169283502Y-75974180D01*
X169319812Y-75854482D01*
X169332072Y-75730000D01*
X169332072Y-74130000D01*
X169319812Y-74005518D01*
X169283502Y-73885820D01*
X169224537Y-73775506D01*
X169145185Y-73678815D01*
X169048494Y-73599463D01*
X168938180Y-73540498D01*
X168818482Y-73504188D01*
X168694000Y-73491928D01*
X167094000Y-73491928D01*
X166969518Y-73504188D01*
X166849820Y-73540498D01*
X166739506Y-73599463D01*
X166642815Y-73678815D01*
X166563463Y-73775506D01*
X166504498Y-73885820D01*
X166468188Y-74005518D01*
X166455928Y-74130000D01*
X145202072Y-74130000D01*
X145202072Y-73876000D01*
X145189812Y-73751518D01*
X145153502Y-73631820D01*
X145094537Y-73521506D01*
X145015185Y-73424815D01*
X144918494Y-73345463D01*
X144808180Y-73286498D01*
X144688482Y-73250188D01*
X144564000Y-73237928D01*
X142964000Y-73237928D01*
X142839518Y-73250188D01*
X142719820Y-73286498D01*
X142609506Y-73345463D01*
X142512815Y-73424815D01*
X142433463Y-73521506D01*
X142374498Y-73631820D01*
X142338188Y-73751518D01*
X142325928Y-73876000D01*
X122850072Y-73876000D01*
X122837812Y-73751518D01*
X122801502Y-73631820D01*
X122742537Y-73521506D01*
X122663185Y-73424815D01*
X122566494Y-73345463D01*
X122456180Y-73286498D01*
X122336482Y-73250188D01*
X122212000Y-73237928D01*
X120612000Y-73237928D01*
X120487518Y-73250188D01*
X120367820Y-73286498D01*
X120257506Y-73345463D01*
X120160815Y-73424815D01*
X120081463Y-73521506D01*
X120022498Y-73631820D01*
X119986188Y-73751518D01*
X119973928Y-73876000D01*
X100330000Y-73876000D01*
X100330000Y-72587459D01*
X100349000Y-72491939D01*
X100349000Y-72288061D01*
X100309226Y-72088102D01*
X100231205Y-71899744D01*
X100117937Y-71730226D01*
X99973774Y-71586063D01*
X99804256Y-71472795D01*
X99615898Y-71394774D01*
X99415939Y-71355000D01*
X99212061Y-71355000D01*
X99012102Y-71394774D01*
X98823744Y-71472795D01*
X98654226Y-71586063D01*
X98510063Y-71730226D01*
X98396795Y-71899744D01*
X98318774Y-72088102D01*
X98279000Y-72288061D01*
X98279000Y-72491939D01*
X98298000Y-72587459D01*
X98298000Y-77832000D01*
X98231061Y-77832000D01*
X98031102Y-77871774D01*
X97842744Y-77949795D01*
X97673226Y-78063063D01*
X97529063Y-78207226D01*
X97415795Y-78376744D01*
X97337774Y-78565102D01*
X97298000Y-78765061D01*
X97298000Y-78968939D01*
X97337774Y-79168898D01*
X97415795Y-79357256D01*
X97529063Y-79526774D01*
X97673226Y-79670937D01*
X97842744Y-79784205D01*
X98031102Y-79862226D01*
X98231061Y-79902000D01*
X98298001Y-79902000D01*
X98298001Y-85050158D01*
X95372147Y-87976012D01*
X95323314Y-87730510D01*
X95218005Y-87476273D01*
X95065120Y-87247465D01*
X94870535Y-87052880D01*
X94641727Y-86899995D01*
X94387490Y-86794686D01*
X94117592Y-86741000D01*
X93842408Y-86741000D01*
X93572510Y-86794686D01*
X93318273Y-86899995D01*
X93089465Y-87052880D01*
X92894880Y-87247465D01*
X92741995Y-87476273D01*
X92636686Y-87730510D01*
X92583000Y-88000408D01*
X92583000Y-88275592D01*
X92636686Y-88545490D01*
X92741995Y-88799727D01*
X92894880Y-89028535D01*
X93089465Y-89223120D01*
X93318273Y-89376005D01*
X93572510Y-89481314D01*
X93818012Y-89530147D01*
X91790661Y-91557499D01*
X90610394Y-91557499D01*
X90560500Y-91552585D01*
X90510606Y-91557499D01*
X90510599Y-91557499D01*
X90380678Y-91570295D01*
X90361329Y-91572201D01*
X90339101Y-91578944D01*
X90169814Y-91630297D01*
X89993311Y-91724639D01*
X89838605Y-91851603D01*
X89806794Y-91890365D01*
X86885040Y-94812120D01*
X86397113Y-94610014D01*
X85783710Y-94488000D01*
X85158290Y-94488000D01*
X84544887Y-94610014D01*
X83967074Y-94849352D01*
X83447056Y-95196817D01*
X83004817Y-95639056D01*
X82657352Y-96159074D01*
X82418014Y-96736887D01*
X82296000Y-97350290D01*
X82296000Y-97975710D01*
X82418014Y-98589113D01*
X82657352Y-99166926D01*
X83004817Y-99686944D01*
X83447056Y-100129183D01*
X83967074Y-100476648D01*
X84544887Y-100715986D01*
X85158290Y-100838000D01*
X85783710Y-100838000D01*
X86397113Y-100715986D01*
X86974926Y-100476648D01*
X87494944Y-100129183D01*
X87937183Y-99686944D01*
X88284648Y-99166926D01*
X88491140Y-98668408D01*
X92583000Y-98668408D01*
X92583000Y-98943592D01*
X92636686Y-99213490D01*
X92741995Y-99467727D01*
X92894880Y-99696535D01*
X93089465Y-99891120D01*
X93318273Y-100044005D01*
X93572510Y-100149314D01*
X93842408Y-100203000D01*
X94117592Y-100203000D01*
X94387490Y-100149314D01*
X94641727Y-100044005D01*
X94870535Y-99891120D01*
X95065120Y-99696535D01*
X95218005Y-99467727D01*
X95323314Y-99213490D01*
X95377000Y-98943592D01*
X95377000Y-98668408D01*
X95323314Y-98398510D01*
X95218005Y-98144273D01*
X95065120Y-97915465D01*
X94870535Y-97720880D01*
X94641727Y-97567995D01*
X94387490Y-97462686D01*
X94117592Y-97409000D01*
X93842408Y-97409000D01*
X93572510Y-97462686D01*
X93318273Y-97567995D01*
X93089465Y-97720880D01*
X92894880Y-97915465D01*
X92741995Y-98144273D01*
X92636686Y-98398510D01*
X92583000Y-98668408D01*
X88491140Y-98668408D01*
X88523986Y-98589113D01*
X88646000Y-97975710D01*
X88646000Y-97350290D01*
X88523986Y-96736887D01*
X88321880Y-96248960D01*
X90981342Y-93589499D01*
X92161599Y-93589499D01*
X92211501Y-93594414D01*
X92261403Y-93589499D01*
X92410672Y-93574797D01*
X92596947Y-93518291D01*
X92583000Y-93588408D01*
X92583000Y-93863592D01*
X92636686Y-94133490D01*
X92741995Y-94387727D01*
X92894880Y-94616535D01*
X93089465Y-94811120D01*
X93318273Y-94964005D01*
X93572510Y-95069314D01*
X93842408Y-95123000D01*
X94117592Y-95123000D01*
X94387490Y-95069314D01*
X94641727Y-94964005D01*
X94870535Y-94811120D01*
X95065120Y-94616535D01*
X95218005Y-94387727D01*
X95323314Y-94133490D01*
X95377000Y-93863592D01*
X95377000Y-93588408D01*
X95323314Y-93318510D01*
X95218005Y-93064273D01*
X95065120Y-92835465D01*
X94870535Y-92640880D01*
X94641727Y-92487995D01*
X94387490Y-92382686D01*
X94117592Y-92329000D01*
X93892840Y-92329000D01*
X99997133Y-86224708D01*
X100035896Y-86192896D01*
X100162860Y-86038190D01*
X100257202Y-85861687D01*
X100301411Y-85715951D01*
X100315298Y-85670172D01*
X100325317Y-85568444D01*
X100330000Y-85520902D01*
X100330000Y-85520895D01*
X100334914Y-85471001D01*
X100330000Y-85421107D01*
X100330000Y-83255459D01*
X100350774Y-83359898D01*
X100428795Y-83548256D01*
X100542063Y-83717774D01*
X100686226Y-83861937D01*
X100855744Y-83975205D01*
X101044102Y-84053226D01*
X101244061Y-84093000D01*
X101262568Y-84093000D01*
X109537567Y-92368000D01*
X108982461Y-92923107D01*
X108950960Y-92948959D01*
X108925109Y-92980459D01*
X108847801Y-93074658D01*
X108771147Y-93218067D01*
X108723945Y-93373674D01*
X108708006Y-93535500D01*
X108712001Y-93576060D01*
X108712000Y-102528067D01*
X106655568Y-104584500D01*
X92765819Y-104584500D01*
X92781391Y-104546907D01*
X92835000Y-104277396D01*
X92835000Y-104002604D01*
X92781391Y-103733093D01*
X92676233Y-103479220D01*
X92523567Y-103250739D01*
X92329261Y-103056433D01*
X92100780Y-102903767D01*
X91846907Y-102798609D01*
X91577396Y-102745000D01*
X91302604Y-102745000D01*
X91033093Y-102798609D01*
X90779220Y-102903767D01*
X90550739Y-103056433D01*
X90356433Y-103250739D01*
X90203767Y-103479220D01*
X90170000Y-103560740D01*
X90136233Y-103479220D01*
X89983567Y-103250739D01*
X89789261Y-103056433D01*
X89560780Y-102903767D01*
X89306907Y-102798609D01*
X89037396Y-102745000D01*
X88762604Y-102745000D01*
X88493093Y-102798609D01*
X88239220Y-102903767D01*
X88010739Y-103056433D01*
X87816433Y-103250739D01*
X87663767Y-103479220D01*
X87630000Y-103560740D01*
X87596233Y-103479220D01*
X87443567Y-103250739D01*
X87249261Y-103056433D01*
X87020780Y-102903767D01*
X86766907Y-102798609D01*
X86497396Y-102745000D01*
X86222604Y-102745000D01*
X85953093Y-102798609D01*
X85699220Y-102903767D01*
X85470739Y-103056433D01*
X85276433Y-103250739D01*
X85123767Y-103479220D01*
X85090000Y-103560740D01*
X85056233Y-103479220D01*
X84903567Y-103250739D01*
X84709261Y-103056433D01*
X84480780Y-102903767D01*
X84226907Y-102798609D01*
X83957396Y-102745000D01*
X83682604Y-102745000D01*
X83413093Y-102798609D01*
X83159220Y-102903767D01*
X82930739Y-103056433D01*
X82736433Y-103250739D01*
X82583767Y-103479220D01*
X82550000Y-103560740D01*
X82516233Y-103479220D01*
X82363567Y-103250739D01*
X82169261Y-103056433D01*
X81940780Y-102903767D01*
X81686907Y-102798609D01*
X81417396Y-102745000D01*
X81142604Y-102745000D01*
X80873093Y-102798609D01*
X80619220Y-102903767D01*
X80390739Y-103056433D01*
X80196433Y-103250739D01*
X80043767Y-103479220D01*
X80010000Y-103560740D01*
X79976233Y-103479220D01*
X79823567Y-103250739D01*
X79629261Y-103056433D01*
X79400780Y-102903767D01*
X79146907Y-102798609D01*
X78877396Y-102745000D01*
X78602604Y-102745000D01*
X78333093Y-102798609D01*
X78079220Y-102903767D01*
X77850739Y-103056433D01*
X77656433Y-103250739D01*
X77503767Y-103479220D01*
X77470000Y-103560740D01*
X77436233Y-103479220D01*
X77283567Y-103250739D01*
X77089261Y-103056433D01*
X76860780Y-102903767D01*
X76606907Y-102798609D01*
X76337396Y-102745000D01*
X76062604Y-102745000D01*
X75793093Y-102798609D01*
X75539220Y-102903767D01*
X75310739Y-103056433D01*
X75116433Y-103250739D01*
X74963767Y-103479220D01*
X74930000Y-103560740D01*
X74896233Y-103479220D01*
X74743567Y-103250739D01*
X74549261Y-103056433D01*
X74320780Y-102903767D01*
X74066907Y-102798609D01*
X73797396Y-102745000D01*
X73522604Y-102745000D01*
X73253093Y-102798609D01*
X72999220Y-102903767D01*
X72770739Y-103056433D01*
X72576433Y-103250739D01*
X72423767Y-103479220D01*
X72318609Y-103733093D01*
X72265000Y-104002604D01*
X72265000Y-104277396D01*
X72318609Y-104546907D01*
X72334181Y-104584500D01*
X69905819Y-104584500D01*
X69921391Y-104546907D01*
X69975000Y-104277396D01*
X69975000Y-104002604D01*
X69921391Y-103733093D01*
X69816233Y-103479220D01*
X69663567Y-103250739D01*
X69469261Y-103056433D01*
X69240780Y-102903767D01*
X68986907Y-102798609D01*
X68717396Y-102745000D01*
X68442604Y-102745000D01*
X68173093Y-102798609D01*
X67970000Y-102882733D01*
X67970000Y-89476290D01*
X82296000Y-89476290D01*
X82296000Y-90101710D01*
X82418014Y-90715113D01*
X82657352Y-91292926D01*
X83004817Y-91812944D01*
X83447056Y-92255183D01*
X83967074Y-92602648D01*
X84544887Y-92841986D01*
X85158290Y-92964000D01*
X85783710Y-92964000D01*
X86397113Y-92841986D01*
X86974926Y-92602648D01*
X87494944Y-92255183D01*
X87937183Y-91812944D01*
X88284648Y-91292926D01*
X88523986Y-90715113D01*
X88646000Y-90101710D01*
X88646000Y-89476290D01*
X88523986Y-88862887D01*
X88321880Y-88374960D01*
X91361133Y-85335708D01*
X91399896Y-85303896D01*
X91526860Y-85149190D01*
X91621202Y-84972687D01*
X91679298Y-84781171D01*
X91694000Y-84631902D01*
X91698915Y-84582001D01*
X91694000Y-84532099D01*
X91694000Y-82920408D01*
X92583000Y-82920408D01*
X92583000Y-83195592D01*
X92636686Y-83465490D01*
X92741995Y-83719727D01*
X92894880Y-83948535D01*
X93089465Y-84143120D01*
X93318273Y-84296005D01*
X93572510Y-84401314D01*
X93842408Y-84455000D01*
X94117592Y-84455000D01*
X94387490Y-84401314D01*
X94641727Y-84296005D01*
X94870535Y-84143120D01*
X95065120Y-83948535D01*
X95218005Y-83719727D01*
X95323314Y-83465490D01*
X95377000Y-83195592D01*
X95377000Y-82920408D01*
X95323314Y-82650510D01*
X95218005Y-82396273D01*
X95065120Y-82167465D01*
X94870535Y-81972880D01*
X94805500Y-81929425D01*
X94805500Y-75054490D01*
X95291535Y-74568456D01*
X95444224Y-74568456D01*
X95644183Y-74528682D01*
X95832541Y-74450661D01*
X96002059Y-74337393D01*
X96146222Y-74193230D01*
X96259490Y-74023712D01*
X96337511Y-73835354D01*
X96377285Y-73635395D01*
X96377285Y-73431517D01*
X96337511Y-73231558D01*
X96259490Y-73043200D01*
X96146222Y-72873682D01*
X96002059Y-72729519D01*
X95832541Y-72616251D01*
X95644183Y-72538230D01*
X95444224Y-72498456D01*
X95240346Y-72498456D01*
X95040387Y-72538230D01*
X94852029Y-72616251D01*
X94682511Y-72729519D01*
X94538348Y-72873682D01*
X94425080Y-73043200D01*
X94384884Y-73140241D01*
X93424966Y-74100160D01*
X93393459Y-74126017D01*
X93324214Y-74210393D01*
X93290301Y-74251716D01*
X93264595Y-74299809D01*
X93213647Y-74395125D01*
X93166444Y-74550733D01*
X93154500Y-74672005D01*
X93150506Y-74712558D01*
X93154500Y-74753109D01*
X93154501Y-81929424D01*
X93089465Y-81972880D01*
X92894880Y-82167465D01*
X92741995Y-82396273D01*
X92636686Y-82650510D01*
X92583000Y-82920408D01*
X91694000Y-82920408D01*
X91694000Y-72714459D01*
X91713000Y-72618939D01*
X91713000Y-72415061D01*
X91673226Y-72215102D01*
X91595205Y-72026744D01*
X91481937Y-71857226D01*
X91337774Y-71713063D01*
X91168256Y-71599795D01*
X90979898Y-71521774D01*
X90779939Y-71482000D01*
X90576061Y-71482000D01*
X90376102Y-71521774D01*
X90187744Y-71599795D01*
X90018226Y-71713063D01*
X89874063Y-71857226D01*
X89760795Y-72026744D01*
X89682774Y-72215102D01*
X89643000Y-72415061D01*
X89643000Y-72618939D01*
X89662000Y-72714459D01*
X89662001Y-84161158D01*
X86885040Y-86938120D01*
X86397113Y-86736014D01*
X85783710Y-86614000D01*
X85158290Y-86614000D01*
X84544887Y-86736014D01*
X83967074Y-86975352D01*
X83447056Y-87322817D01*
X83004817Y-87765056D01*
X82657352Y-88285074D01*
X82418014Y-88862887D01*
X82296000Y-89476290D01*
X67970000Y-89476290D01*
X67970000Y-64757267D01*
X68173093Y-64841391D01*
X68442604Y-64895000D01*
X68717396Y-64895000D01*
X68986907Y-64841391D01*
X69240780Y-64736233D01*
X69469261Y-64583567D01*
X69663567Y-64389261D01*
X69816233Y-64160780D01*
X69850000Y-64079260D01*
X69883767Y-64160780D01*
X70036433Y-64389261D01*
X70230739Y-64583567D01*
X70459220Y-64736233D01*
X70713093Y-64841391D01*
X70982604Y-64895000D01*
X71257396Y-64895000D01*
X71526907Y-64841391D01*
X71780780Y-64736233D01*
X72009261Y-64583567D01*
X72203567Y-64389261D01*
X72356233Y-64160780D01*
X72390000Y-64079260D01*
X72423767Y-64160780D01*
X72576433Y-64389261D01*
X72770739Y-64583567D01*
X72999220Y-64736233D01*
X73253093Y-64841391D01*
X73522604Y-64895000D01*
X73797396Y-64895000D01*
X74066907Y-64841391D01*
X74320780Y-64736233D01*
X74549261Y-64583567D01*
X74743567Y-64389261D01*
X74896233Y-64160780D01*
X74930000Y-64079260D01*
X74963767Y-64160780D01*
X75116433Y-64389261D01*
X75310739Y-64583567D01*
X75539220Y-64736233D01*
X75793093Y-64841391D01*
X76062604Y-64895000D01*
X76337396Y-64895000D01*
X76412607Y-64880040D01*
X77111606Y-65579039D01*
X77137459Y-65610541D01*
X77207033Y-65667639D01*
X77263156Y-65713698D01*
X77263158Y-65713699D01*
X77406566Y-65790353D01*
X77562174Y-65837556D01*
X77683447Y-65849500D01*
X77683456Y-65849500D01*
X77723999Y-65853493D01*
X77764542Y-65849500D01*
X92542450Y-65849500D01*
X92583000Y-65853494D01*
X92623550Y-65849500D01*
X92623553Y-65849500D01*
X92744826Y-65837556D01*
X92900434Y-65790353D01*
X93043842Y-65713699D01*
X93169541Y-65610541D01*
X93195398Y-65579034D01*
X98131933Y-60642500D01*
X116593497Y-60642500D01*
X116730744Y-60734205D01*
X116919102Y-60812226D01*
X117119061Y-60852000D01*
X117322939Y-60852000D01*
X117522898Y-60812226D01*
X117711256Y-60734205D01*
X117848503Y-60642500D01*
X117863497Y-60642500D01*
X118000744Y-60734205D01*
X118189102Y-60812226D01*
X118389061Y-60852000D01*
X118592939Y-60852000D01*
X118792898Y-60812226D01*
X118981256Y-60734205D01*
X119150774Y-60620937D01*
X119294937Y-60476774D01*
X119396348Y-60325000D01*
X129726506Y-60325000D01*
X129730500Y-60365551D01*
X129730501Y-62443440D01*
X129726506Y-62484000D01*
X129742445Y-62645826D01*
X129789647Y-62801433D01*
X129866301Y-62944842D01*
X129927863Y-63019854D01*
X129969460Y-63070541D01*
X130000961Y-63096393D01*
X130720516Y-63815949D01*
X130738609Y-63906907D01*
X130843767Y-64160780D01*
X130996433Y-64389261D01*
X131190739Y-64583567D01*
X131419220Y-64736233D01*
X131673093Y-64841391D01*
X131942604Y-64895000D01*
X132217396Y-64895000D01*
X132486907Y-64841391D01*
X132740780Y-64736233D01*
X132969261Y-64583567D01*
X133163567Y-64389261D01*
X133316233Y-64160780D01*
X133350000Y-64079260D01*
X133383767Y-64160780D01*
X133536433Y-64389261D01*
X133730739Y-64583567D01*
X133959220Y-64736233D01*
X134213093Y-64841391D01*
X134482604Y-64895000D01*
X134757396Y-64895000D01*
X135026907Y-64841391D01*
X135280780Y-64736233D01*
X135509261Y-64583567D01*
X135703567Y-64389261D01*
X135856233Y-64160780D01*
X135890000Y-64079260D01*
X135923767Y-64160780D01*
X136076433Y-64389261D01*
X136270739Y-64583567D01*
X136499220Y-64736233D01*
X136753093Y-64841391D01*
X137022604Y-64895000D01*
X137297396Y-64895000D01*
X137566907Y-64841391D01*
X137820780Y-64736233D01*
X138049261Y-64583567D01*
X138243567Y-64389261D01*
X138396233Y-64160780D01*
X138430000Y-64079260D01*
X138463767Y-64160780D01*
X138616433Y-64389261D01*
X138810739Y-64583567D01*
X139039220Y-64736233D01*
X139293093Y-64841391D01*
X139562604Y-64895000D01*
X139837396Y-64895000D01*
X139912607Y-64880040D01*
X140611606Y-65579039D01*
X140637459Y-65610541D01*
X140707033Y-65667639D01*
X140763156Y-65713698D01*
X140763158Y-65713699D01*
X140906566Y-65790353D01*
X141062174Y-65837556D01*
X141183447Y-65849500D01*
X141183456Y-65849500D01*
X141223999Y-65853493D01*
X141264542Y-65849500D01*
X156529192Y-65849500D01*
X156569742Y-65853494D01*
X156610292Y-65849500D01*
X156610295Y-65849500D01*
X156731568Y-65837556D01*
X156887176Y-65790353D01*
X157030584Y-65713699D01*
X157156283Y-65610541D01*
X157182140Y-65579034D01*
X162245675Y-60515500D01*
X173108497Y-60515500D01*
X173245744Y-60607205D01*
X173434102Y-60685226D01*
X173634061Y-60725000D01*
X173837939Y-60725000D01*
X174037898Y-60685226D01*
X174226256Y-60607205D01*
X174307500Y-60552920D01*
X174388744Y-60607205D01*
X174577102Y-60685226D01*
X174777061Y-60725000D01*
X174980939Y-60725000D01*
X175180898Y-60685226D01*
X175369256Y-60607205D01*
X175538774Y-60493937D01*
X175682937Y-60349774D01*
X175796205Y-60180256D01*
X175874226Y-59991898D01*
X175914000Y-59791939D01*
X175914000Y-59588061D01*
X175874226Y-59388102D01*
X175796205Y-59199744D01*
X175682937Y-59030226D01*
X175538774Y-58886063D01*
X175369256Y-58772795D01*
X175180898Y-58694774D01*
X174980939Y-58655000D01*
X174777061Y-58655000D01*
X174577102Y-58694774D01*
X174388744Y-58772795D01*
X174307500Y-58827080D01*
X174226256Y-58772795D01*
X174037898Y-58694774D01*
X173837939Y-58655000D01*
X173634061Y-58655000D01*
X173434102Y-58694774D01*
X173245744Y-58772795D01*
X173108497Y-58864500D01*
X161944292Y-58864500D01*
X161903741Y-58860506D01*
X161863191Y-58864500D01*
X161863189Y-58864500D01*
X161741916Y-58876444D01*
X161586308Y-58923647D01*
X161442899Y-59000301D01*
X161435272Y-59006561D01*
X161314774Y-58886063D01*
X161145256Y-58772795D01*
X160956898Y-58694774D01*
X160756939Y-58655000D01*
X160553061Y-58655000D01*
X160353102Y-58694774D01*
X160164744Y-58772795D01*
X159995226Y-58886063D01*
X159851063Y-59030226D01*
X159737795Y-59199744D01*
X159659774Y-59388102D01*
X159627572Y-59549995D01*
X159498996Y-59678572D01*
X159337102Y-59710774D01*
X159148744Y-59788795D01*
X158979226Y-59902063D01*
X158835063Y-60046226D01*
X158721795Y-60215744D01*
X158643774Y-60404102D01*
X158611572Y-60565996D01*
X157773068Y-61404500D01*
X156265819Y-61404500D01*
X156281391Y-61366907D01*
X156335000Y-61097396D01*
X156335000Y-60822604D01*
X156281391Y-60553093D01*
X156176233Y-60299220D01*
X156023567Y-60070739D01*
X155829261Y-59876433D01*
X155600780Y-59723767D01*
X155346907Y-59618609D01*
X155077396Y-59565000D01*
X154802604Y-59565000D01*
X154533093Y-59618609D01*
X154279220Y-59723767D01*
X154050739Y-59876433D01*
X153856433Y-60070739D01*
X153703767Y-60299220D01*
X153670000Y-60380740D01*
X153636233Y-60299220D01*
X153483567Y-60070739D01*
X153289261Y-59876433D01*
X153060780Y-59723767D01*
X152806907Y-59618609D01*
X152537396Y-59565000D01*
X152262604Y-59565000D01*
X151993093Y-59618609D01*
X151739220Y-59723767D01*
X151510739Y-59876433D01*
X151316433Y-60070739D01*
X151163767Y-60299220D01*
X151130000Y-60380740D01*
X151096233Y-60299220D01*
X150943567Y-60070739D01*
X150749261Y-59876433D01*
X150520780Y-59723767D01*
X150266907Y-59618609D01*
X149997396Y-59565000D01*
X149722604Y-59565000D01*
X149453093Y-59618609D01*
X149199220Y-59723767D01*
X148970739Y-59876433D01*
X148776433Y-60070739D01*
X148623767Y-60299220D01*
X148590000Y-60380740D01*
X148556233Y-60299220D01*
X148403567Y-60070739D01*
X148209261Y-59876433D01*
X147980780Y-59723767D01*
X147726907Y-59618609D01*
X147514895Y-59576437D01*
X147553226Y-59483898D01*
X147593000Y-59283939D01*
X147593000Y-59080061D01*
X147553226Y-58880102D01*
X147475205Y-58691744D01*
X147361937Y-58522226D01*
X147217774Y-58378063D01*
X147048256Y-58264795D01*
X146859898Y-58186774D01*
X146659939Y-58147000D01*
X146456061Y-58147000D01*
X146256102Y-58186774D01*
X146067744Y-58264795D01*
X146050000Y-58276651D01*
X146032256Y-58264795D01*
X145843898Y-58186774D01*
X145643939Y-58147000D01*
X145440061Y-58147000D01*
X145240102Y-58186774D01*
X145051744Y-58264795D01*
X144914497Y-58356500D01*
X136565550Y-58356500D01*
X136525000Y-58352506D01*
X136484449Y-58356500D01*
X136484447Y-58356500D01*
X136363174Y-58368444D01*
X136207566Y-58415647D01*
X136064157Y-58492301D01*
X135969958Y-58569608D01*
X135969955Y-58569611D01*
X135938459Y-58595459D01*
X135912610Y-58626956D01*
X135334965Y-59204603D01*
X135303459Y-59230459D01*
X135265721Y-59276444D01*
X135200301Y-59356158D01*
X135186904Y-59381222D01*
X135123647Y-59499567D01*
X135080768Y-59640919D01*
X135026907Y-59618609D01*
X134757396Y-59565000D01*
X134482604Y-59565000D01*
X134213093Y-59618609D01*
X133959220Y-59723767D01*
X133730739Y-59876433D01*
X133536433Y-60070739D01*
X133383767Y-60299220D01*
X133278609Y-60553093D01*
X133225000Y-60822604D01*
X133225000Y-61097396D01*
X133278609Y-61366907D01*
X133383767Y-61620780D01*
X133536433Y-61849261D01*
X133730739Y-62043567D01*
X133959220Y-62196233D01*
X134040740Y-62230000D01*
X133959220Y-62263767D01*
X133730739Y-62416433D01*
X133536433Y-62610739D01*
X133383767Y-62839220D01*
X133350000Y-62920740D01*
X133316233Y-62839220D01*
X133163567Y-62610739D01*
X132969261Y-62416433D01*
X132740780Y-62263767D01*
X132486907Y-62158609D01*
X132217396Y-62105000D01*
X131942604Y-62105000D01*
X131673093Y-62158609D01*
X131478602Y-62239170D01*
X131381500Y-62142068D01*
X131381500Y-60666932D01*
X132120891Y-59927542D01*
X132120895Y-59927537D01*
X132339432Y-59709000D01*
X132435939Y-59709000D01*
X132635898Y-59669226D01*
X132824256Y-59591205D01*
X132993774Y-59477937D01*
X133137937Y-59333774D01*
X133251205Y-59164256D01*
X133329226Y-58975898D01*
X133369000Y-58775939D01*
X133369000Y-58572061D01*
X133329226Y-58372102D01*
X133251205Y-58183744D01*
X133137937Y-58014226D01*
X132993774Y-57870063D01*
X132824256Y-57756795D01*
X132635898Y-57678774D01*
X132435939Y-57639000D01*
X132232061Y-57639000D01*
X132032102Y-57678774D01*
X131843744Y-57756795D01*
X131674226Y-57870063D01*
X131530063Y-58014226D01*
X131416795Y-58183744D01*
X131338774Y-58372102D01*
X131338106Y-58375462D01*
X130953463Y-58760105D01*
X130953458Y-58760109D01*
X130000966Y-59712602D01*
X129969459Y-59738459D01*
X129915288Y-59804468D01*
X129866301Y-59864158D01*
X129798311Y-59991358D01*
X129789647Y-60007567D01*
X129742444Y-60163175D01*
X129731279Y-60276541D01*
X129726506Y-60325000D01*
X119396348Y-60325000D01*
X119408205Y-60307256D01*
X119486226Y-60118898D01*
X119526000Y-59918939D01*
X119526000Y-59715061D01*
X119486226Y-59515102D01*
X119408205Y-59326744D01*
X119294937Y-59157226D01*
X119150774Y-59013063D01*
X118981256Y-58899795D01*
X118792898Y-58821774D01*
X118592939Y-58782000D01*
X118389061Y-58782000D01*
X118189102Y-58821774D01*
X118000744Y-58899795D01*
X117863497Y-58991500D01*
X117848503Y-58991500D01*
X117711256Y-58899795D01*
X117522898Y-58821774D01*
X117322939Y-58782000D01*
X117119061Y-58782000D01*
X116919102Y-58821774D01*
X116730744Y-58899795D01*
X116593497Y-58991500D01*
X104366763Y-58991500D01*
X104373226Y-58975898D01*
X104413000Y-58775939D01*
X104413000Y-58572061D01*
X104373226Y-58372102D01*
X104295205Y-58183744D01*
X104181937Y-58014226D01*
X104037774Y-57870063D01*
X103868256Y-57756795D01*
X103679898Y-57678774D01*
X103479939Y-57639000D01*
X103276061Y-57639000D01*
X103076102Y-57678774D01*
X102887744Y-57756795D01*
X102870000Y-57768651D01*
X102852256Y-57756795D01*
X102663898Y-57678774D01*
X102463939Y-57639000D01*
X102260061Y-57639000D01*
X102060102Y-57678774D01*
X101871744Y-57756795D01*
X101734497Y-57848500D01*
X97830550Y-57848500D01*
X97789999Y-57844506D01*
X97749449Y-57848500D01*
X97749447Y-57848500D01*
X97628174Y-57860444D01*
X97472566Y-57907647D01*
X97329158Y-57984301D01*
X97203459Y-58087459D01*
X97177602Y-58118966D01*
X96726969Y-58569599D01*
X96726958Y-58569608D01*
X96104496Y-59192072D01*
X96072991Y-59217927D01*
X96056044Y-59238576D01*
X96035395Y-59255523D01*
X96009544Y-59287023D01*
X93892068Y-61404500D01*
X92765819Y-61404500D01*
X92781391Y-61366907D01*
X92835000Y-61097396D01*
X92835000Y-60822604D01*
X92781391Y-60553093D01*
X92676233Y-60299220D01*
X92523567Y-60070739D01*
X92329261Y-59876433D01*
X92100780Y-59723767D01*
X91846907Y-59618609D01*
X91577396Y-59565000D01*
X91302604Y-59565000D01*
X91033093Y-59618609D01*
X90779220Y-59723767D01*
X90550739Y-59876433D01*
X90356433Y-60070739D01*
X90203767Y-60299220D01*
X90170000Y-60380740D01*
X90136233Y-60299220D01*
X89983567Y-60070739D01*
X89789261Y-59876433D01*
X89560780Y-59723767D01*
X89437798Y-59672826D01*
X89455898Y-59669226D01*
X89644256Y-59591205D01*
X89725500Y-59536920D01*
X89806744Y-59591205D01*
X89995102Y-59669226D01*
X90195061Y-59709000D01*
X90398939Y-59709000D01*
X90598898Y-59669226D01*
X90787256Y-59591205D01*
X90956774Y-59477937D01*
X91100937Y-59333774D01*
X91214205Y-59164256D01*
X91292226Y-58975898D01*
X91332000Y-58775939D01*
X91332000Y-58572061D01*
X91292226Y-58372102D01*
X91214205Y-58183744D01*
X91100937Y-58014226D01*
X90956774Y-57870063D01*
X90787256Y-57756795D01*
X90598898Y-57678774D01*
X90398939Y-57639000D01*
X90195061Y-57639000D01*
X89995102Y-57678774D01*
X89806744Y-57756795D01*
X89725500Y-57811080D01*
X89644256Y-57756795D01*
X89455898Y-57678774D01*
X89255939Y-57639000D01*
X89052061Y-57639000D01*
X88852102Y-57678774D01*
X88663744Y-57756795D01*
X88526497Y-57848500D01*
X77108000Y-57848500D01*
X77108000Y-57781561D01*
X77068226Y-57581602D01*
X76990205Y-57393244D01*
X76876937Y-57223726D01*
X76732774Y-57079563D01*
X76563256Y-56966295D01*
X76374898Y-56888274D01*
X76174939Y-56848500D01*
X75971061Y-56848500D01*
X75771102Y-56888274D01*
X75755500Y-56894737D01*
X75755500Y-55725763D01*
X75771102Y-55732226D01*
X75971061Y-55772000D01*
X76174939Y-55772000D01*
X76374898Y-55732226D01*
X76563256Y-55654205D01*
X76700503Y-55562500D01*
X89288497Y-55562500D01*
X89425744Y-55654205D01*
X89614102Y-55732226D01*
X89814061Y-55772000D01*
X90017939Y-55772000D01*
X90217898Y-55732226D01*
X90406256Y-55654205D01*
X90543503Y-55562500D01*
X97924497Y-55562500D01*
X98061744Y-55654205D01*
X98250102Y-55732226D01*
X98450061Y-55772000D01*
X98653939Y-55772000D01*
X98853898Y-55732226D01*
X99042256Y-55654205D01*
X99179503Y-55562500D01*
X103385497Y-55562500D01*
X103522744Y-55654205D01*
X103711102Y-55732226D01*
X103911061Y-55772000D01*
X104114939Y-55772000D01*
X104314898Y-55732226D01*
X104503256Y-55654205D01*
X104640503Y-55562500D01*
X117609497Y-55562500D01*
X117746744Y-55654205D01*
X117935102Y-55732226D01*
X118135061Y-55772000D01*
X118338939Y-55772000D01*
X118538898Y-55732226D01*
X118727256Y-55654205D01*
X118864503Y-55562500D01*
X131833497Y-55562500D01*
X131970744Y-55654205D01*
X132159102Y-55732226D01*
X132359061Y-55772000D01*
X132562939Y-55772000D01*
X132762898Y-55732226D01*
X132951256Y-55654205D01*
X133088503Y-55562500D01*
X145803497Y-55562500D01*
X145940744Y-55654205D01*
X146129102Y-55732226D01*
X146329061Y-55772000D01*
X146532939Y-55772000D01*
X146732898Y-55732226D01*
X146921256Y-55654205D01*
X147058503Y-55562500D01*
X159773497Y-55562500D01*
X159910744Y-55654205D01*
X160099102Y-55732226D01*
X160299061Y-55772000D01*
X160502939Y-55772000D01*
X160702898Y-55732226D01*
X160891256Y-55654205D01*
X161028503Y-55562500D01*
X173870497Y-55562500D01*
X174007744Y-55654205D01*
X174196102Y-55732226D01*
X174396061Y-55772000D01*
X174599939Y-55772000D01*
X174799898Y-55732226D01*
X174988256Y-55654205D01*
X175157774Y-55540937D01*
X175301937Y-55396774D01*
X175415205Y-55227256D01*
X175493226Y-55038898D01*
X175533000Y-54838939D01*
X175533000Y-54635061D01*
X175493226Y-54435102D01*
X175415205Y-54246744D01*
X175301937Y-54077226D01*
X175157774Y-53933063D01*
X174988256Y-53819795D01*
X174799898Y-53741774D01*
X174599939Y-53702000D01*
X174396061Y-53702000D01*
X174196102Y-53741774D01*
X174007744Y-53819795D01*
X173870497Y-53911500D01*
X167563183Y-53911500D01*
X167793727Y-53816005D01*
X168022535Y-53663120D01*
X168217120Y-53468535D01*
X168370005Y-53239727D01*
X168475314Y-52985490D01*
X168529000Y-52715592D01*
X168529000Y-52476061D01*
X170415000Y-52476061D01*
X170415000Y-52679939D01*
X170454774Y-52879898D01*
X170532795Y-53068256D01*
X170646063Y-53237774D01*
X170790226Y-53381937D01*
X170959744Y-53495205D01*
X171148102Y-53573226D01*
X171348061Y-53613000D01*
X171551939Y-53613000D01*
X171751898Y-53573226D01*
X171940256Y-53495205D01*
X172077503Y-53403500D01*
X174893425Y-53403500D01*
X174936880Y-53468535D01*
X175131465Y-53663120D01*
X175360273Y-53816005D01*
X175614510Y-53921314D01*
X175884408Y-53975000D01*
X176159592Y-53975000D01*
X176429490Y-53921314D01*
X176683727Y-53816005D01*
X176912535Y-53663120D01*
X177107120Y-53468535D01*
X177260005Y-53239727D01*
X177365314Y-52985490D01*
X177419000Y-52715592D01*
X177419000Y-52440408D01*
X179705000Y-52440408D01*
X179705000Y-52715592D01*
X179758686Y-52985490D01*
X179863995Y-53239727D01*
X180016880Y-53468535D01*
X180211465Y-53663120D01*
X180440273Y-53816005D01*
X180694510Y-53921314D01*
X180964408Y-53975000D01*
X181239592Y-53975000D01*
X181509490Y-53921314D01*
X181763727Y-53816005D01*
X181992535Y-53663120D01*
X182187120Y-53468535D01*
X182340005Y-53239727D01*
X182445314Y-52985490D01*
X182499000Y-52715592D01*
X182499000Y-52440408D01*
X182445314Y-52170510D01*
X182340005Y-51916273D01*
X182187120Y-51687465D01*
X181992535Y-51492880D01*
X181763727Y-51339995D01*
X181509490Y-51234686D01*
X181239592Y-51181000D01*
X180964408Y-51181000D01*
X180694510Y-51234686D01*
X180440273Y-51339995D01*
X180211465Y-51492880D01*
X180016880Y-51687465D01*
X179863995Y-51916273D01*
X179758686Y-52170510D01*
X179705000Y-52440408D01*
X177419000Y-52440408D01*
X177365314Y-52170510D01*
X177260005Y-51916273D01*
X177107120Y-51687465D01*
X176912535Y-51492880D01*
X176683727Y-51339995D01*
X176429490Y-51234686D01*
X176159592Y-51181000D01*
X175884408Y-51181000D01*
X175614510Y-51234686D01*
X175360273Y-51339995D01*
X175131465Y-51492880D01*
X174936880Y-51687465D01*
X174893425Y-51752500D01*
X172077503Y-51752500D01*
X171940256Y-51660795D01*
X171751898Y-51582774D01*
X171551939Y-51543000D01*
X171348061Y-51543000D01*
X171148102Y-51582774D01*
X170959744Y-51660795D01*
X170790226Y-51774063D01*
X170646063Y-51918226D01*
X170532795Y-52087744D01*
X170454774Y-52276102D01*
X170415000Y-52476061D01*
X168529000Y-52476061D01*
X168529000Y-52440408D01*
X168475314Y-52170510D01*
X168370005Y-51916273D01*
X168217120Y-51687465D01*
X168022535Y-51492880D01*
X167793727Y-51339995D01*
X167539490Y-51234686D01*
X167269592Y-51181000D01*
X166994408Y-51181000D01*
X166724510Y-51234686D01*
X166470273Y-51339995D01*
X166241465Y-51492880D01*
X166046880Y-51687465D01*
X165893995Y-51916273D01*
X165788686Y-52170510D01*
X165735000Y-52440408D01*
X165735000Y-52715592D01*
X165788686Y-52985490D01*
X165893995Y-53239727D01*
X166046880Y-53468535D01*
X166241465Y-53663120D01*
X166470273Y-53816005D01*
X166700817Y-53911500D01*
X162483183Y-53911500D01*
X162713727Y-53816005D01*
X162942535Y-53663120D01*
X163137120Y-53468535D01*
X163290005Y-53239727D01*
X163395314Y-52985490D01*
X163449000Y-52715592D01*
X163449000Y-52440408D01*
X163395314Y-52170510D01*
X163290005Y-51916273D01*
X163137120Y-51687465D01*
X162942535Y-51492880D01*
X162713727Y-51339995D01*
X162459490Y-51234686D01*
X162189592Y-51181000D01*
X161914408Y-51181000D01*
X161644510Y-51234686D01*
X161390273Y-51339995D01*
X161161465Y-51492880D01*
X160966880Y-51687465D01*
X160923425Y-51752500D01*
X158234503Y-51752500D01*
X158097256Y-51660795D01*
X157908898Y-51582774D01*
X157708939Y-51543000D01*
X157505061Y-51543000D01*
X157305102Y-51582774D01*
X157116744Y-51660795D01*
X156947226Y-51774063D01*
X156803063Y-51918226D01*
X156689795Y-52087744D01*
X156611774Y-52276102D01*
X156572000Y-52476061D01*
X156572000Y-52679939D01*
X156611774Y-52879898D01*
X156689795Y-53068256D01*
X156803063Y-53237774D01*
X156947226Y-53381937D01*
X157116744Y-53495205D01*
X157305102Y-53573226D01*
X157505061Y-53613000D01*
X157708939Y-53613000D01*
X157908898Y-53573226D01*
X158097256Y-53495205D01*
X158234503Y-53403500D01*
X160923425Y-53403500D01*
X160966880Y-53468535D01*
X161161465Y-53663120D01*
X161390273Y-53816005D01*
X161620817Y-53911500D01*
X161028503Y-53911500D01*
X160891256Y-53819795D01*
X160702898Y-53741774D01*
X160502939Y-53702000D01*
X160299061Y-53702000D01*
X160099102Y-53741774D01*
X159910744Y-53819795D01*
X159773497Y-53911500D01*
X153593183Y-53911500D01*
X153823727Y-53816005D01*
X154052535Y-53663120D01*
X154247120Y-53468535D01*
X154400005Y-53239727D01*
X154505314Y-52985490D01*
X154559000Y-52715592D01*
X154559000Y-52440408D01*
X154505314Y-52170510D01*
X154400005Y-51916273D01*
X154247120Y-51687465D01*
X154052535Y-51492880D01*
X153823727Y-51339995D01*
X153569490Y-51234686D01*
X153299592Y-51181000D01*
X153024408Y-51181000D01*
X152754510Y-51234686D01*
X152500273Y-51339995D01*
X152271465Y-51492880D01*
X152076880Y-51687465D01*
X151923995Y-51916273D01*
X151818686Y-52170510D01*
X151765000Y-52440408D01*
X151765000Y-52715592D01*
X151818686Y-52985490D01*
X151923995Y-53239727D01*
X152076880Y-53468535D01*
X152271465Y-53663120D01*
X152500273Y-53816005D01*
X152730817Y-53911500D01*
X148513183Y-53911500D01*
X148743727Y-53816005D01*
X148972535Y-53663120D01*
X149167120Y-53468535D01*
X149320005Y-53239727D01*
X149425314Y-52985490D01*
X149479000Y-52715592D01*
X149479000Y-52440408D01*
X149425314Y-52170510D01*
X149320005Y-51916273D01*
X149167120Y-51687465D01*
X148972535Y-51492880D01*
X148743727Y-51339995D01*
X148489490Y-51234686D01*
X148219592Y-51181000D01*
X147944408Y-51181000D01*
X147674510Y-51234686D01*
X147420273Y-51339995D01*
X147191465Y-51492880D01*
X146996880Y-51687465D01*
X146953425Y-51752500D01*
X144137503Y-51752500D01*
X144000256Y-51660795D01*
X143811898Y-51582774D01*
X143611939Y-51543000D01*
X143408061Y-51543000D01*
X143208102Y-51582774D01*
X143019744Y-51660795D01*
X142850226Y-51774063D01*
X142706063Y-51918226D01*
X142592795Y-52087744D01*
X142514774Y-52276102D01*
X142475000Y-52476061D01*
X142475000Y-52679939D01*
X142514774Y-52879898D01*
X142592795Y-53068256D01*
X142706063Y-53237774D01*
X142850226Y-53381937D01*
X143019744Y-53495205D01*
X143208102Y-53573226D01*
X143408061Y-53613000D01*
X143611939Y-53613000D01*
X143811898Y-53573226D01*
X144000256Y-53495205D01*
X144137503Y-53403500D01*
X146953425Y-53403500D01*
X146996880Y-53468535D01*
X147191465Y-53663120D01*
X147420273Y-53816005D01*
X147650817Y-53911500D01*
X147058503Y-53911500D01*
X146921256Y-53819795D01*
X146732898Y-53741774D01*
X146532939Y-53702000D01*
X146329061Y-53702000D01*
X146129102Y-53741774D01*
X145940744Y-53819795D01*
X145803497Y-53911500D01*
X139623183Y-53911500D01*
X139853727Y-53816005D01*
X140082535Y-53663120D01*
X140277120Y-53468535D01*
X140430005Y-53239727D01*
X140535314Y-52985490D01*
X140589000Y-52715592D01*
X140589000Y-52440408D01*
X140535314Y-52170510D01*
X140430005Y-51916273D01*
X140277120Y-51687465D01*
X140082535Y-51492880D01*
X139853727Y-51339995D01*
X139599490Y-51234686D01*
X139329592Y-51181000D01*
X139054408Y-51181000D01*
X138784510Y-51234686D01*
X138530273Y-51339995D01*
X138301465Y-51492880D01*
X138106880Y-51687465D01*
X137953995Y-51916273D01*
X137848686Y-52170510D01*
X137795000Y-52440408D01*
X137795000Y-52715592D01*
X137848686Y-52985490D01*
X137953995Y-53239727D01*
X138106880Y-53468535D01*
X138301465Y-53663120D01*
X138530273Y-53816005D01*
X138760817Y-53911500D01*
X134543183Y-53911500D01*
X134773727Y-53816005D01*
X135002535Y-53663120D01*
X135197120Y-53468535D01*
X135350005Y-53239727D01*
X135455314Y-52985490D01*
X135509000Y-52715592D01*
X135509000Y-52440408D01*
X135455314Y-52170510D01*
X135350005Y-51916273D01*
X135197120Y-51687465D01*
X135002535Y-51492880D01*
X134773727Y-51339995D01*
X134519490Y-51234686D01*
X134249592Y-51181000D01*
X133974408Y-51181000D01*
X133704510Y-51234686D01*
X133450273Y-51339995D01*
X133221465Y-51492880D01*
X133026880Y-51687465D01*
X132983425Y-51752500D01*
X130040503Y-51752500D01*
X129903256Y-51660795D01*
X129714898Y-51582774D01*
X129514939Y-51543000D01*
X129311061Y-51543000D01*
X129111102Y-51582774D01*
X128922744Y-51660795D01*
X128753226Y-51774063D01*
X128609063Y-51918226D01*
X128495795Y-52087744D01*
X128417774Y-52276102D01*
X128378000Y-52476061D01*
X128378000Y-52679939D01*
X128417774Y-52879898D01*
X128495795Y-53068256D01*
X128609063Y-53237774D01*
X128753226Y-53381937D01*
X128922744Y-53495205D01*
X129111102Y-53573226D01*
X129311061Y-53613000D01*
X129514939Y-53613000D01*
X129714898Y-53573226D01*
X129903256Y-53495205D01*
X130040503Y-53403500D01*
X132983425Y-53403500D01*
X133026880Y-53468535D01*
X133221465Y-53663120D01*
X133450273Y-53816005D01*
X133680817Y-53911500D01*
X133088503Y-53911500D01*
X132951256Y-53819795D01*
X132762898Y-53741774D01*
X132562939Y-53702000D01*
X132359061Y-53702000D01*
X132159102Y-53741774D01*
X131970744Y-53819795D01*
X131833497Y-53911500D01*
X125526183Y-53911500D01*
X125756727Y-53816005D01*
X125985535Y-53663120D01*
X126180120Y-53468535D01*
X126333005Y-53239727D01*
X126438314Y-52985490D01*
X126492000Y-52715592D01*
X126492000Y-52440408D01*
X126438314Y-52170510D01*
X126333005Y-51916273D01*
X126180120Y-51687465D01*
X125985535Y-51492880D01*
X125756727Y-51339995D01*
X125502490Y-51234686D01*
X125232592Y-51181000D01*
X124957408Y-51181000D01*
X124687510Y-51234686D01*
X124433273Y-51339995D01*
X124204465Y-51492880D01*
X124009880Y-51687465D01*
X123856995Y-51916273D01*
X123751686Y-52170510D01*
X123698000Y-52440408D01*
X123698000Y-52715592D01*
X123751686Y-52985490D01*
X123856995Y-53239727D01*
X124009880Y-53468535D01*
X124204465Y-53663120D01*
X124433273Y-53816005D01*
X124663817Y-53911500D01*
X120446183Y-53911500D01*
X120676727Y-53816005D01*
X120905535Y-53663120D01*
X121100120Y-53468535D01*
X121253005Y-53239727D01*
X121358314Y-52985490D01*
X121412000Y-52715592D01*
X121412000Y-52440408D01*
X121358314Y-52170510D01*
X121253005Y-51916273D01*
X121100120Y-51687465D01*
X120905535Y-51492880D01*
X120676727Y-51339995D01*
X120422490Y-51234686D01*
X120152592Y-51181000D01*
X119877408Y-51181000D01*
X119607510Y-51234686D01*
X119353273Y-51339995D01*
X119124465Y-51492880D01*
X118929880Y-51687465D01*
X118886425Y-51752500D01*
X115943503Y-51752500D01*
X115806256Y-51660795D01*
X115617898Y-51582774D01*
X115417939Y-51543000D01*
X115214061Y-51543000D01*
X115014102Y-51582774D01*
X114825744Y-51660795D01*
X114656226Y-51774063D01*
X114512063Y-51918226D01*
X114398795Y-52087744D01*
X114320774Y-52276102D01*
X114281000Y-52476061D01*
X114281000Y-52679939D01*
X114320774Y-52879898D01*
X114398795Y-53068256D01*
X114512063Y-53237774D01*
X114656226Y-53381937D01*
X114825744Y-53495205D01*
X115014102Y-53573226D01*
X115214061Y-53613000D01*
X115417939Y-53613000D01*
X115617898Y-53573226D01*
X115806256Y-53495205D01*
X115943503Y-53403500D01*
X118886425Y-53403500D01*
X118929880Y-53468535D01*
X119124465Y-53663120D01*
X119353273Y-53816005D01*
X119583817Y-53911500D01*
X118864503Y-53911500D01*
X118727256Y-53819795D01*
X118538898Y-53741774D01*
X118338939Y-53702000D01*
X118135061Y-53702000D01*
X117935102Y-53741774D01*
X117746744Y-53819795D01*
X117609497Y-53911500D01*
X111429183Y-53911500D01*
X111659727Y-53816005D01*
X111888535Y-53663120D01*
X112083120Y-53468535D01*
X112236005Y-53239727D01*
X112341314Y-52985490D01*
X112395000Y-52715592D01*
X112395000Y-52440408D01*
X112341314Y-52170510D01*
X112236005Y-51916273D01*
X112083120Y-51687465D01*
X111888535Y-51492880D01*
X111659727Y-51339995D01*
X111405490Y-51234686D01*
X111135592Y-51181000D01*
X110860408Y-51181000D01*
X110590510Y-51234686D01*
X110336273Y-51339995D01*
X110107465Y-51492880D01*
X109912880Y-51687465D01*
X109759995Y-51916273D01*
X109654686Y-52170510D01*
X109601000Y-52440408D01*
X109601000Y-52715592D01*
X109654686Y-52985490D01*
X109759995Y-53239727D01*
X109912880Y-53468535D01*
X110107465Y-53663120D01*
X110336273Y-53816005D01*
X110566817Y-53911500D01*
X106349183Y-53911500D01*
X106579727Y-53816005D01*
X106808535Y-53663120D01*
X107003120Y-53468535D01*
X107156005Y-53239727D01*
X107261314Y-52985490D01*
X107315000Y-52715592D01*
X107315000Y-52440408D01*
X107261314Y-52170510D01*
X107156005Y-51916273D01*
X107003120Y-51687465D01*
X106808535Y-51492880D01*
X106579727Y-51339995D01*
X106325490Y-51234686D01*
X106055592Y-51181000D01*
X105780408Y-51181000D01*
X105510510Y-51234686D01*
X105256273Y-51339995D01*
X105027465Y-51492880D01*
X104832880Y-51687465D01*
X104789425Y-51752500D01*
X102100503Y-51752500D01*
X101963256Y-51660795D01*
X101774898Y-51582774D01*
X101574939Y-51543000D01*
X101371061Y-51543000D01*
X101171102Y-51582774D01*
X100982744Y-51660795D01*
X100813226Y-51774063D01*
X100669063Y-51918226D01*
X100555795Y-52087744D01*
X100477774Y-52276102D01*
X100438000Y-52476061D01*
X100438000Y-52679939D01*
X100477774Y-52879898D01*
X100555795Y-53068256D01*
X100669063Y-53237774D01*
X100813226Y-53381937D01*
X100982744Y-53495205D01*
X101171102Y-53573226D01*
X101371061Y-53613000D01*
X101574939Y-53613000D01*
X101774898Y-53573226D01*
X101963256Y-53495205D01*
X102100503Y-53403500D01*
X104789425Y-53403500D01*
X104832880Y-53468535D01*
X105027465Y-53663120D01*
X105256273Y-53816005D01*
X105486817Y-53911500D01*
X104640503Y-53911500D01*
X104503256Y-53819795D01*
X104314898Y-53741774D01*
X104114939Y-53702000D01*
X103911061Y-53702000D01*
X103711102Y-53741774D01*
X103522744Y-53819795D01*
X103385497Y-53911500D01*
X99179503Y-53911500D01*
X99042256Y-53819795D01*
X98853898Y-53741774D01*
X98653939Y-53702000D01*
X98450061Y-53702000D01*
X98250102Y-53741774D01*
X98061744Y-53819795D01*
X97924497Y-53911500D01*
X97459183Y-53911500D01*
X97689727Y-53816005D01*
X97918535Y-53663120D01*
X98113120Y-53468535D01*
X98266005Y-53239727D01*
X98371314Y-52985490D01*
X98425000Y-52715592D01*
X98425000Y-52440408D01*
X98371314Y-52170510D01*
X98266005Y-51916273D01*
X98113120Y-51687465D01*
X97918535Y-51492880D01*
X97689727Y-51339995D01*
X97435490Y-51234686D01*
X97165592Y-51181000D01*
X96890408Y-51181000D01*
X96620510Y-51234686D01*
X96366273Y-51339995D01*
X96137465Y-51492880D01*
X95942880Y-51687465D01*
X95789995Y-51916273D01*
X95684686Y-52170510D01*
X95631000Y-52440408D01*
X95631000Y-52715592D01*
X95684686Y-52985490D01*
X95789995Y-53239727D01*
X95942880Y-53468535D01*
X96137465Y-53663120D01*
X96366273Y-53816005D01*
X96596817Y-53911500D01*
X92379183Y-53911500D01*
X92609727Y-53816005D01*
X92838535Y-53663120D01*
X93033120Y-53468535D01*
X93186005Y-53239727D01*
X93291314Y-52985490D01*
X93345000Y-52715592D01*
X93345000Y-52440408D01*
X93291314Y-52170510D01*
X93186005Y-51916273D01*
X93033120Y-51687465D01*
X92838535Y-51492880D01*
X92609727Y-51339995D01*
X92355490Y-51234686D01*
X92085592Y-51181000D01*
X91810408Y-51181000D01*
X91540510Y-51234686D01*
X91286273Y-51339995D01*
X91057465Y-51492880D01*
X90862880Y-51687465D01*
X90819425Y-51752500D01*
X88257503Y-51752500D01*
X88120256Y-51660795D01*
X87931898Y-51582774D01*
X87731939Y-51543000D01*
X87528061Y-51543000D01*
X87328102Y-51582774D01*
X87139744Y-51660795D01*
X86970226Y-51774063D01*
X86826063Y-51918226D01*
X86712795Y-52087744D01*
X86634774Y-52276102D01*
X86595000Y-52476061D01*
X86595000Y-52679939D01*
X86634774Y-52879898D01*
X86712795Y-53068256D01*
X86826063Y-53237774D01*
X86970226Y-53381937D01*
X87139744Y-53495205D01*
X87328102Y-53573226D01*
X87528061Y-53613000D01*
X87731939Y-53613000D01*
X87931898Y-53573226D01*
X88120256Y-53495205D01*
X88257503Y-53403500D01*
X90819425Y-53403500D01*
X90862880Y-53468535D01*
X91057465Y-53663120D01*
X91286273Y-53816005D01*
X91516817Y-53911500D01*
X90543503Y-53911500D01*
X90406256Y-53819795D01*
X90217898Y-53741774D01*
X90017939Y-53702000D01*
X89814061Y-53702000D01*
X89614102Y-53741774D01*
X89425744Y-53819795D01*
X89288497Y-53911500D01*
X83489183Y-53911500D01*
X83719727Y-53816005D01*
X83948535Y-53663120D01*
X84143120Y-53468535D01*
X84296005Y-53239727D01*
X84401314Y-52985490D01*
X84455000Y-52715592D01*
X84455000Y-52440408D01*
X84401314Y-52170510D01*
X84296005Y-51916273D01*
X84143120Y-51687465D01*
X83948535Y-51492880D01*
X83719727Y-51339995D01*
X83465490Y-51234686D01*
X83195592Y-51181000D01*
X82920408Y-51181000D01*
X82843692Y-51196260D01*
X82146398Y-50498966D01*
X82120541Y-50467459D01*
X81994842Y-50364301D01*
X81851434Y-50287647D01*
X81695826Y-50240444D01*
X81574553Y-50228500D01*
X81574550Y-50228500D01*
X81534000Y-50224506D01*
X81493450Y-50228500D01*
X76113550Y-50228500D01*
X76072999Y-50224506D01*
X76032449Y-50228500D01*
X76032447Y-50228500D01*
X75911174Y-50240444D01*
X75755566Y-50287647D01*
X75612157Y-50364301D01*
X75550596Y-50414823D01*
X75486459Y-50467459D01*
X75460606Y-50498961D01*
X74374961Y-51584607D01*
X74343460Y-51610459D01*
X74317609Y-51641959D01*
X74248356Y-51726343D01*
X74150256Y-51660795D01*
X73961898Y-51582774D01*
X73761939Y-51543000D01*
X73558061Y-51543000D01*
X73358102Y-51582774D01*
X73169744Y-51660795D01*
X73000226Y-51774063D01*
X72856063Y-51918226D01*
X72742795Y-52087744D01*
X72664774Y-52276102D01*
X72625000Y-52476061D01*
X72625000Y-52679939D01*
X72664774Y-52879898D01*
X72742795Y-53068256D01*
X72856063Y-53237774D01*
X73000226Y-53381937D01*
X73169744Y-53495205D01*
X73358102Y-53573226D01*
X73558061Y-53613000D01*
X73761939Y-53613000D01*
X73961898Y-53573226D01*
X74104501Y-53514158D01*
X74104500Y-56808067D01*
X73854567Y-57058000D01*
X71189050Y-57058000D01*
X71148499Y-57054006D01*
X71107949Y-57058000D01*
X71107947Y-57058000D01*
X70986674Y-57069944D01*
X70831066Y-57117147D01*
X70737611Y-57167101D01*
X70687657Y-57193801D01*
X70651194Y-57223726D01*
X70561959Y-57296959D01*
X70536108Y-57328459D01*
X69294961Y-58569607D01*
X69263460Y-58595459D01*
X69237609Y-58626959D01*
X69160301Y-58721158D01*
X69083647Y-58864567D01*
X69036445Y-59020174D01*
X69020506Y-59182000D01*
X69024501Y-59222560D01*
X69024500Y-61000552D01*
X69024501Y-61000562D01*
X69024500Y-61888067D01*
X68792607Y-62119960D01*
X68717396Y-62105000D01*
X68442604Y-62105000D01*
X68173093Y-62158609D01*
X67970000Y-62242733D01*
X67970000Y-43709560D01*
X74348000Y-43709560D01*
X74348000Y-44174440D01*
X74438694Y-44630387D01*
X74616595Y-45059879D01*
X74874868Y-45446412D01*
X75203588Y-45775132D01*
X75590121Y-46033405D01*
X76019613Y-46211306D01*
X76475560Y-46302000D01*
X76940440Y-46302000D01*
X77396387Y-46211306D01*
X77825879Y-46033405D01*
X78212412Y-45775132D01*
X78541132Y-45446412D01*
X78799405Y-45059879D01*
X78977306Y-44630387D01*
X79068000Y-44174440D01*
X79068000Y-43709560D01*
X81968000Y-43709560D01*
X81968000Y-44174440D01*
X82058694Y-44630387D01*
X82236595Y-45059879D01*
X82494868Y-45446412D01*
X82823588Y-45775132D01*
X83210121Y-46033405D01*
X83639613Y-46211306D01*
X84095560Y-46302000D01*
X84560440Y-46302000D01*
X85016387Y-46211306D01*
X85445879Y-46033405D01*
X85832412Y-45775132D01*
X86161132Y-45446412D01*
X86419405Y-45059879D01*
X86597306Y-44630387D01*
X86688000Y-44174440D01*
X86688000Y-43709560D01*
X88318000Y-43709560D01*
X88318000Y-44174440D01*
X88408694Y-44630387D01*
X88586595Y-45059879D01*
X88844868Y-45446412D01*
X89173588Y-45775132D01*
X89560121Y-46033405D01*
X89989613Y-46211306D01*
X90445560Y-46302000D01*
X90910440Y-46302000D01*
X91366387Y-46211306D01*
X91795879Y-46033405D01*
X92182412Y-45775132D01*
X92511132Y-45446412D01*
X92769405Y-45059879D01*
X92947306Y-44630387D01*
X93038000Y-44174440D01*
X93038000Y-43709560D01*
X95938000Y-43709560D01*
X95938000Y-44174440D01*
X96028694Y-44630387D01*
X96206595Y-45059879D01*
X96464868Y-45446412D01*
X96793588Y-45775132D01*
X97180121Y-46033405D01*
X97609613Y-46211306D01*
X98065560Y-46302000D01*
X98530440Y-46302000D01*
X98986387Y-46211306D01*
X99415879Y-46033405D01*
X99802412Y-45775132D01*
X100131132Y-45446412D01*
X100389405Y-45059879D01*
X100567306Y-44630387D01*
X100658000Y-44174440D01*
X100658000Y-43709560D01*
X102288000Y-43709560D01*
X102288000Y-44174440D01*
X102378694Y-44630387D01*
X102556595Y-45059879D01*
X102814868Y-45446412D01*
X103143588Y-45775132D01*
X103530121Y-46033405D01*
X103959613Y-46211306D01*
X104415560Y-46302000D01*
X104880440Y-46302000D01*
X105336387Y-46211306D01*
X105765879Y-46033405D01*
X106152412Y-45775132D01*
X106481132Y-45446412D01*
X106739405Y-45059879D01*
X106917306Y-44630387D01*
X107008000Y-44174440D01*
X107008000Y-43709560D01*
X109908000Y-43709560D01*
X109908000Y-44174440D01*
X109998694Y-44630387D01*
X110176595Y-45059879D01*
X110434868Y-45446412D01*
X110763588Y-45775132D01*
X111150121Y-46033405D01*
X111579613Y-46211306D01*
X112035560Y-46302000D01*
X112500440Y-46302000D01*
X112956387Y-46211306D01*
X113385879Y-46033405D01*
X113772412Y-45775132D01*
X114101132Y-45446412D01*
X114359405Y-45059879D01*
X114537306Y-44630387D01*
X114628000Y-44174440D01*
X114628000Y-43709560D01*
X116385000Y-43709560D01*
X116385000Y-44174440D01*
X116475694Y-44630387D01*
X116653595Y-45059879D01*
X116911868Y-45446412D01*
X117240588Y-45775132D01*
X117627121Y-46033405D01*
X118056613Y-46211306D01*
X118512560Y-46302000D01*
X118977440Y-46302000D01*
X119433387Y-46211306D01*
X119862879Y-46033405D01*
X120249412Y-45775132D01*
X120578132Y-45446412D01*
X120836405Y-45059879D01*
X121014306Y-44630387D01*
X121105000Y-44174440D01*
X121105000Y-43709560D01*
X124005000Y-43709560D01*
X124005000Y-44174440D01*
X124095694Y-44630387D01*
X124273595Y-45059879D01*
X124531868Y-45446412D01*
X124860588Y-45775132D01*
X125247121Y-46033405D01*
X125676613Y-46211306D01*
X126132560Y-46302000D01*
X126597440Y-46302000D01*
X127053387Y-46211306D01*
X127482879Y-46033405D01*
X127869412Y-45775132D01*
X128198132Y-45446412D01*
X128456405Y-45059879D01*
X128634306Y-44630387D01*
X128725000Y-44174440D01*
X128725000Y-43709560D01*
X130482000Y-43709560D01*
X130482000Y-44174440D01*
X130572694Y-44630387D01*
X130750595Y-45059879D01*
X131008868Y-45446412D01*
X131337588Y-45775132D01*
X131724121Y-46033405D01*
X132153613Y-46211306D01*
X132609560Y-46302000D01*
X133074440Y-46302000D01*
X133530387Y-46211306D01*
X133959879Y-46033405D01*
X134346412Y-45775132D01*
X134675132Y-45446412D01*
X134933405Y-45059879D01*
X135111306Y-44630387D01*
X135202000Y-44174440D01*
X135202000Y-43709560D01*
X138102000Y-43709560D01*
X138102000Y-44174440D01*
X138192694Y-44630387D01*
X138370595Y-45059879D01*
X138628868Y-45446412D01*
X138957588Y-45775132D01*
X139344121Y-46033405D01*
X139773613Y-46211306D01*
X140229560Y-46302000D01*
X140694440Y-46302000D01*
X141150387Y-46211306D01*
X141579879Y-46033405D01*
X141966412Y-45775132D01*
X142295132Y-45446412D01*
X142553405Y-45059879D01*
X142731306Y-44630387D01*
X142822000Y-44174440D01*
X142822000Y-43709560D01*
X144452000Y-43709560D01*
X144452000Y-44174440D01*
X144542694Y-44630387D01*
X144720595Y-45059879D01*
X144978868Y-45446412D01*
X145307588Y-45775132D01*
X145694121Y-46033405D01*
X146123613Y-46211306D01*
X146579560Y-46302000D01*
X147044440Y-46302000D01*
X147500387Y-46211306D01*
X147929879Y-46033405D01*
X148316412Y-45775132D01*
X148645132Y-45446412D01*
X148903405Y-45059879D01*
X149081306Y-44630387D01*
X149172000Y-44174440D01*
X149172000Y-43709560D01*
X152072000Y-43709560D01*
X152072000Y-44174440D01*
X152162694Y-44630387D01*
X152340595Y-45059879D01*
X152598868Y-45446412D01*
X152927588Y-45775132D01*
X153314121Y-46033405D01*
X153743613Y-46211306D01*
X154199560Y-46302000D01*
X154664440Y-46302000D01*
X155120387Y-46211306D01*
X155549879Y-46033405D01*
X155936412Y-45775132D01*
X156265132Y-45446412D01*
X156523405Y-45059879D01*
X156701306Y-44630387D01*
X156792000Y-44174440D01*
X156792000Y-43709560D01*
X158422000Y-43709560D01*
X158422000Y-44174440D01*
X158512694Y-44630387D01*
X158690595Y-45059879D01*
X158948868Y-45446412D01*
X159277588Y-45775132D01*
X159664121Y-46033405D01*
X160093613Y-46211306D01*
X160549560Y-46302000D01*
X161014440Y-46302000D01*
X161470387Y-46211306D01*
X161899879Y-46033405D01*
X162286412Y-45775132D01*
X162615132Y-45446412D01*
X162873405Y-45059879D01*
X163051306Y-44630387D01*
X163142000Y-44174440D01*
X163142000Y-43709560D01*
X166042000Y-43709560D01*
X166042000Y-44174440D01*
X166132694Y-44630387D01*
X166310595Y-45059879D01*
X166568868Y-45446412D01*
X166897588Y-45775132D01*
X167284121Y-46033405D01*
X167713613Y-46211306D01*
X168169560Y-46302000D01*
X168634440Y-46302000D01*
X169090387Y-46211306D01*
X169519879Y-46033405D01*
X169906412Y-45775132D01*
X170235132Y-45446412D01*
X170493405Y-45059879D01*
X170671306Y-44630387D01*
X170762000Y-44174440D01*
X170762000Y-43709560D01*
X172392000Y-43709560D01*
X172392000Y-44174440D01*
X172482694Y-44630387D01*
X172660595Y-45059879D01*
X172918868Y-45446412D01*
X173247588Y-45775132D01*
X173634121Y-46033405D01*
X174063613Y-46211306D01*
X174519560Y-46302000D01*
X174984440Y-46302000D01*
X175440387Y-46211306D01*
X175869879Y-46033405D01*
X176256412Y-45775132D01*
X176585132Y-45446412D01*
X176843405Y-45059879D01*
X177021306Y-44630387D01*
X177112000Y-44174440D01*
X177112000Y-43709560D01*
X180012000Y-43709560D01*
X180012000Y-44174440D01*
X180102694Y-44630387D01*
X180280595Y-45059879D01*
X180538868Y-45446412D01*
X180867588Y-45775132D01*
X181254121Y-46033405D01*
X181683613Y-46211306D01*
X182139560Y-46302000D01*
X182604440Y-46302000D01*
X183060387Y-46211306D01*
X183489879Y-46033405D01*
X183876412Y-45775132D01*
X184205132Y-45446412D01*
X184463405Y-45059879D01*
X184641306Y-44630387D01*
X184732000Y-44174440D01*
X184732000Y-43709560D01*
X184641306Y-43253613D01*
X184463405Y-42824121D01*
X184205132Y-42437588D01*
X183876412Y-42108868D01*
X183489879Y-41850595D01*
X183060387Y-41672694D01*
X182604440Y-41582000D01*
X182139560Y-41582000D01*
X181683613Y-41672694D01*
X181254121Y-41850595D01*
X180867588Y-42108868D01*
X180538868Y-42437588D01*
X180280595Y-42824121D01*
X180102694Y-43253613D01*
X180012000Y-43709560D01*
X177112000Y-43709560D01*
X177021306Y-43253613D01*
X176843405Y-42824121D01*
X176585132Y-42437588D01*
X176256412Y-42108868D01*
X175869879Y-41850595D01*
X175440387Y-41672694D01*
X174984440Y-41582000D01*
X174519560Y-41582000D01*
X174063613Y-41672694D01*
X173634121Y-41850595D01*
X173247588Y-42108868D01*
X172918868Y-42437588D01*
X172660595Y-42824121D01*
X172482694Y-43253613D01*
X172392000Y-43709560D01*
X170762000Y-43709560D01*
X170671306Y-43253613D01*
X170493405Y-42824121D01*
X170235132Y-42437588D01*
X169906412Y-42108868D01*
X169519879Y-41850595D01*
X169090387Y-41672694D01*
X168634440Y-41582000D01*
X168169560Y-41582000D01*
X167713613Y-41672694D01*
X167284121Y-41850595D01*
X166897588Y-42108868D01*
X166568868Y-42437588D01*
X166310595Y-42824121D01*
X166132694Y-43253613D01*
X166042000Y-43709560D01*
X163142000Y-43709560D01*
X163051306Y-43253613D01*
X162873405Y-42824121D01*
X162615132Y-42437588D01*
X162286412Y-42108868D01*
X161899879Y-41850595D01*
X161470387Y-41672694D01*
X161014440Y-41582000D01*
X160549560Y-41582000D01*
X160093613Y-41672694D01*
X159664121Y-41850595D01*
X159277588Y-42108868D01*
X158948868Y-42437588D01*
X158690595Y-42824121D01*
X158512694Y-43253613D01*
X158422000Y-43709560D01*
X156792000Y-43709560D01*
X156701306Y-43253613D01*
X156523405Y-42824121D01*
X156265132Y-42437588D01*
X155936412Y-42108868D01*
X155549879Y-41850595D01*
X155120387Y-41672694D01*
X154664440Y-41582000D01*
X154199560Y-41582000D01*
X153743613Y-41672694D01*
X153314121Y-41850595D01*
X152927588Y-42108868D01*
X152598868Y-42437588D01*
X152340595Y-42824121D01*
X152162694Y-43253613D01*
X152072000Y-43709560D01*
X149172000Y-43709560D01*
X149081306Y-43253613D01*
X148903405Y-42824121D01*
X148645132Y-42437588D01*
X148316412Y-42108868D01*
X147929879Y-41850595D01*
X147500387Y-41672694D01*
X147044440Y-41582000D01*
X146579560Y-41582000D01*
X146123613Y-41672694D01*
X145694121Y-41850595D01*
X145307588Y-42108868D01*
X144978868Y-42437588D01*
X144720595Y-42824121D01*
X144542694Y-43253613D01*
X144452000Y-43709560D01*
X142822000Y-43709560D01*
X142731306Y-43253613D01*
X142553405Y-42824121D01*
X142295132Y-42437588D01*
X141966412Y-42108868D01*
X141579879Y-41850595D01*
X141150387Y-41672694D01*
X140694440Y-41582000D01*
X140229560Y-41582000D01*
X139773613Y-41672694D01*
X139344121Y-41850595D01*
X138957588Y-42108868D01*
X138628868Y-42437588D01*
X138370595Y-42824121D01*
X138192694Y-43253613D01*
X138102000Y-43709560D01*
X135202000Y-43709560D01*
X135111306Y-43253613D01*
X134933405Y-42824121D01*
X134675132Y-42437588D01*
X134346412Y-42108868D01*
X133959879Y-41850595D01*
X133530387Y-41672694D01*
X133074440Y-41582000D01*
X132609560Y-41582000D01*
X132153613Y-41672694D01*
X131724121Y-41850595D01*
X131337588Y-42108868D01*
X131008868Y-42437588D01*
X130750595Y-42824121D01*
X130572694Y-43253613D01*
X130482000Y-43709560D01*
X128725000Y-43709560D01*
X128634306Y-43253613D01*
X128456405Y-42824121D01*
X128198132Y-42437588D01*
X127869412Y-42108868D01*
X127482879Y-41850595D01*
X127053387Y-41672694D01*
X126597440Y-41582000D01*
X126132560Y-41582000D01*
X125676613Y-41672694D01*
X125247121Y-41850595D01*
X124860588Y-42108868D01*
X124531868Y-42437588D01*
X124273595Y-42824121D01*
X124095694Y-43253613D01*
X124005000Y-43709560D01*
X121105000Y-43709560D01*
X121014306Y-43253613D01*
X120836405Y-42824121D01*
X120578132Y-42437588D01*
X120249412Y-42108868D01*
X119862879Y-41850595D01*
X119433387Y-41672694D01*
X118977440Y-41582000D01*
X118512560Y-41582000D01*
X118056613Y-41672694D01*
X117627121Y-41850595D01*
X117240588Y-42108868D01*
X116911868Y-42437588D01*
X116653595Y-42824121D01*
X116475694Y-43253613D01*
X116385000Y-43709560D01*
X114628000Y-43709560D01*
X114537306Y-43253613D01*
X114359405Y-42824121D01*
X114101132Y-42437588D01*
X113772412Y-42108868D01*
X113385879Y-41850595D01*
X112956387Y-41672694D01*
X112500440Y-41582000D01*
X112035560Y-41582000D01*
X111579613Y-41672694D01*
X111150121Y-41850595D01*
X110763588Y-42108868D01*
X110434868Y-42437588D01*
X110176595Y-42824121D01*
X109998694Y-43253613D01*
X109908000Y-43709560D01*
X107008000Y-43709560D01*
X106917306Y-43253613D01*
X106739405Y-42824121D01*
X106481132Y-42437588D01*
X106152412Y-42108868D01*
X105765879Y-41850595D01*
X105336387Y-41672694D01*
X104880440Y-41582000D01*
X104415560Y-41582000D01*
X103959613Y-41672694D01*
X103530121Y-41850595D01*
X103143588Y-42108868D01*
X102814868Y-42437588D01*
X102556595Y-42824121D01*
X102378694Y-43253613D01*
X102288000Y-43709560D01*
X100658000Y-43709560D01*
X100567306Y-43253613D01*
X100389405Y-42824121D01*
X100131132Y-42437588D01*
X99802412Y-42108868D01*
X99415879Y-41850595D01*
X98986387Y-41672694D01*
X98530440Y-41582000D01*
X98065560Y-41582000D01*
X97609613Y-41672694D01*
X97180121Y-41850595D01*
X96793588Y-42108868D01*
X96464868Y-42437588D01*
X96206595Y-42824121D01*
X96028694Y-43253613D01*
X95938000Y-43709560D01*
X93038000Y-43709560D01*
X92947306Y-43253613D01*
X92769405Y-42824121D01*
X92511132Y-42437588D01*
X92182412Y-42108868D01*
X91795879Y-41850595D01*
X91366387Y-41672694D01*
X90910440Y-41582000D01*
X90445560Y-41582000D01*
X89989613Y-41672694D01*
X89560121Y-41850595D01*
X89173588Y-42108868D01*
X88844868Y-42437588D01*
X88586595Y-42824121D01*
X88408694Y-43253613D01*
X88318000Y-43709560D01*
X86688000Y-43709560D01*
X86597306Y-43253613D01*
X86419405Y-42824121D01*
X86161132Y-42437588D01*
X85832412Y-42108868D01*
X85445879Y-41850595D01*
X85016387Y-41672694D01*
X84560440Y-41582000D01*
X84095560Y-41582000D01*
X83639613Y-41672694D01*
X83210121Y-41850595D01*
X82823588Y-42108868D01*
X82494868Y-42437588D01*
X82236595Y-42824121D01*
X82058694Y-43253613D01*
X81968000Y-43709560D01*
X79068000Y-43709560D01*
X78977306Y-43253613D01*
X78799405Y-42824121D01*
X78541132Y-42437588D01*
X78212412Y-42108868D01*
X77825879Y-41850595D01*
X77396387Y-41672694D01*
X76940440Y-41582000D01*
X76475560Y-41582000D01*
X76019613Y-41672694D01*
X75590121Y-41850595D01*
X75203588Y-42108868D01*
X74874868Y-42437588D01*
X74616595Y-42824121D01*
X74438694Y-43253613D01*
X74348000Y-43709560D01*
X67970000Y-43709560D01*
X67970000Y-40030000D01*
X191110000Y-40030000D01*
X191110001Y-52037581D01*
G36*
X135765000Y-104002604D02*
G01*
X135765000Y-104277396D01*
X135818609Y-104546907D01*
X135834181Y-104584500D01*
X133405819Y-104584500D01*
X133421391Y-104546907D01*
X133475000Y-104277396D01*
X133475000Y-104002604D01*
X133437683Y-103814999D01*
X135802317Y-103814999D01*
X135765000Y-104002604D01*
G37*
X135765000Y-104002604D02*
X135765000Y-104277396D01*
X135818609Y-104546907D01*
X135834181Y-104584500D01*
X133405819Y-104584500D01*
X133421391Y-104546907D01*
X133475000Y-104277396D01*
X133475000Y-104002604D01*
X133437683Y-103814999D01*
X135802317Y-103814999D01*
X135765000Y-104002604D01*
G36*
X81676260Y-52363692D02*
G01*
X81661000Y-52440408D01*
X81661000Y-52715592D01*
X81714686Y-52985490D01*
X81819995Y-53239727D01*
X81972880Y-53468535D01*
X82167465Y-53663120D01*
X82396273Y-53816005D01*
X82626817Y-53911500D01*
X78409183Y-53911500D01*
X78639727Y-53816005D01*
X78868535Y-53663120D01*
X79063120Y-53468535D01*
X79216005Y-53239727D01*
X79321314Y-52985490D01*
X79375000Y-52715592D01*
X79375000Y-52440408D01*
X79321314Y-52170510D01*
X79216005Y-51916273D01*
X79191434Y-51879500D01*
X81192068Y-51879500D01*
X81676260Y-52363692D01*
G37*
X81676260Y-52363692D02*
X81661000Y-52440408D01*
X81661000Y-52715592D01*
X81714686Y-52985490D01*
X81819995Y-53239727D01*
X81972880Y-53468535D01*
X82167465Y-53663120D01*
X82396273Y-53816005D01*
X82626817Y-53911500D01*
X78409183Y-53911500D01*
X78639727Y-53816005D01*
X78868535Y-53663120D01*
X79063120Y-53468535D01*
X79216005Y-53239727D01*
X79321314Y-52985490D01*
X79375000Y-52715592D01*
X79375000Y-52440408D01*
X79321314Y-52170510D01*
X79216005Y-51916273D01*
X79191434Y-51879500D01*
X81192068Y-51879500D01*
X81676260Y-52363692D01*
M02*
