G04 #@! TF.GenerationSoftware,KiCad,Pcbnew,5.1.5-52549c5~84~ubuntu18.04.1*
G04 #@! TF.CreationDate,2019-12-14T15:24:26-06:00*
G04 #@! TF.ProjectId,Gimbal_Board,47696d62-616c-45f4-926f-6172642e6b69,rev?*
G04 #@! TF.SameCoordinates,Original*
G04 #@! TF.FileFunction,Legend,Bot*
G04 #@! TF.FilePolarity,Positive*
%FSLAX46Y46*%
G04 Gerber Fmt 4.6, Leading zero omitted, Abs format (unit mm)*
G04 Created by KiCad (PCBNEW 5.1.5-52549c5~84~ubuntu18.04.1) date 2019-12-14 15:24:26*
%MOMM*%
%LPD*%
G04 APERTURE LIST*
%ADD10C,0.150000*%
G04 APERTURE END LIST*
D10*
X81660904Y-50046000D02*
X81756142Y-49998380D01*
X81899000Y-49998380D01*
X82041857Y-50046000D01*
X82137095Y-50141238D01*
X82184714Y-50236476D01*
X82232333Y-50426952D01*
X82232333Y-50569809D01*
X82184714Y-50760285D01*
X82137095Y-50855523D01*
X82041857Y-50950761D01*
X81899000Y-50998380D01*
X81803761Y-50998380D01*
X81660904Y-50950761D01*
X81613285Y-50903142D01*
X81613285Y-50569809D01*
X81803761Y-50569809D01*
X81184714Y-50998380D02*
X81184714Y-49998380D01*
X80613285Y-50998380D01*
X80613285Y-49998380D01*
X80137095Y-50998380D02*
X80137095Y-49998380D01*
X79899000Y-49998380D01*
X79756142Y-50046000D01*
X79660904Y-50141238D01*
X79613285Y-50236476D01*
X79565666Y-50426952D01*
X79565666Y-50569809D01*
X79613285Y-50760285D01*
X79660904Y-50855523D01*
X79756142Y-50950761D01*
X79899000Y-50998380D01*
X80137095Y-50998380D01*
X84581904Y-50950761D02*
X84439047Y-50998380D01*
X84200952Y-50998380D01*
X84105714Y-50950761D01*
X84058095Y-50903142D01*
X84010476Y-50807904D01*
X84010476Y-50712666D01*
X84058095Y-50617428D01*
X84105714Y-50569809D01*
X84200952Y-50522190D01*
X84391428Y-50474571D01*
X84486666Y-50426952D01*
X84534285Y-50379333D01*
X84581904Y-50284095D01*
X84581904Y-50188857D01*
X84534285Y-50093619D01*
X84486666Y-50046000D01*
X84391428Y-49998380D01*
X84153333Y-49998380D01*
X84010476Y-50046000D01*
X83058095Y-50998380D02*
X83629523Y-50998380D01*
X83343809Y-50998380D02*
X83343809Y-49998380D01*
X83439047Y-50141238D01*
X83534285Y-50236476D01*
X83629523Y-50284095D01*
X78089047Y-49998380D02*
X78565238Y-49998380D01*
X78612857Y-50474571D01*
X78565238Y-50426952D01*
X78470000Y-50379333D01*
X78231904Y-50379333D01*
X78136666Y-50426952D01*
X78089047Y-50474571D01*
X78041428Y-50569809D01*
X78041428Y-50807904D01*
X78089047Y-50903142D01*
X78136666Y-50950761D01*
X78231904Y-50998380D01*
X78470000Y-50998380D01*
X78565238Y-50950761D01*
X78612857Y-50903142D01*
X77755714Y-49998380D02*
X77422380Y-50998380D01*
X77089047Y-49998380D01*
X76803333Y-50712666D02*
X76327142Y-50712666D01*
X76898571Y-50998380D02*
X76565238Y-49998380D01*
X76231904Y-50998380D01*
X95757904Y-50173000D02*
X95853142Y-50125380D01*
X95996000Y-50125380D01*
X96138857Y-50173000D01*
X96234095Y-50268238D01*
X96281714Y-50363476D01*
X96329333Y-50553952D01*
X96329333Y-50696809D01*
X96281714Y-50887285D01*
X96234095Y-50982523D01*
X96138857Y-51077761D01*
X95996000Y-51125380D01*
X95900761Y-51125380D01*
X95757904Y-51077761D01*
X95710285Y-51030142D01*
X95710285Y-50696809D01*
X95900761Y-50696809D01*
X95281714Y-51125380D02*
X95281714Y-50125380D01*
X94710285Y-51125380D01*
X94710285Y-50125380D01*
X94234095Y-51125380D02*
X94234095Y-50125380D01*
X93996000Y-50125380D01*
X93853142Y-50173000D01*
X93757904Y-50268238D01*
X93710285Y-50363476D01*
X93662666Y-50553952D01*
X93662666Y-50696809D01*
X93710285Y-50887285D01*
X93757904Y-50982523D01*
X93853142Y-51077761D01*
X93996000Y-51125380D01*
X94234095Y-51125380D01*
X98678904Y-51077761D02*
X98536047Y-51125380D01*
X98297952Y-51125380D01*
X98202714Y-51077761D01*
X98155095Y-51030142D01*
X98107476Y-50934904D01*
X98107476Y-50839666D01*
X98155095Y-50744428D01*
X98202714Y-50696809D01*
X98297952Y-50649190D01*
X98488428Y-50601571D01*
X98583666Y-50553952D01*
X98631285Y-50506333D01*
X98678904Y-50411095D01*
X98678904Y-50315857D01*
X98631285Y-50220619D01*
X98583666Y-50173000D01*
X98488428Y-50125380D01*
X98250333Y-50125380D01*
X98107476Y-50173000D01*
X97726523Y-50220619D02*
X97678904Y-50173000D01*
X97583666Y-50125380D01*
X97345571Y-50125380D01*
X97250333Y-50173000D01*
X97202714Y-50220619D01*
X97155095Y-50315857D01*
X97155095Y-50411095D01*
X97202714Y-50553952D01*
X97774142Y-51125380D01*
X97155095Y-51125380D01*
X92186047Y-50125380D02*
X92662238Y-50125380D01*
X92709857Y-50601571D01*
X92662238Y-50553952D01*
X92567000Y-50506333D01*
X92328904Y-50506333D01*
X92233666Y-50553952D01*
X92186047Y-50601571D01*
X92138428Y-50696809D01*
X92138428Y-50934904D01*
X92186047Y-51030142D01*
X92233666Y-51077761D01*
X92328904Y-51125380D01*
X92567000Y-51125380D01*
X92662238Y-51077761D01*
X92709857Y-51030142D01*
X91852714Y-50125380D02*
X91519380Y-51125380D01*
X91186047Y-50125380D01*
X90900333Y-50839666D02*
X90424142Y-50839666D01*
X90995571Y-51125380D02*
X90662238Y-50125380D01*
X90328904Y-51125380D01*
X109600904Y-50173000D02*
X109696142Y-50125380D01*
X109839000Y-50125380D01*
X109981857Y-50173000D01*
X110077095Y-50268238D01*
X110124714Y-50363476D01*
X110172333Y-50553952D01*
X110172333Y-50696809D01*
X110124714Y-50887285D01*
X110077095Y-50982523D01*
X109981857Y-51077761D01*
X109839000Y-51125380D01*
X109743761Y-51125380D01*
X109600904Y-51077761D01*
X109553285Y-51030142D01*
X109553285Y-50696809D01*
X109743761Y-50696809D01*
X109124714Y-51125380D02*
X109124714Y-50125380D01*
X108553285Y-51125380D01*
X108553285Y-50125380D01*
X108077095Y-51125380D02*
X108077095Y-50125380D01*
X107839000Y-50125380D01*
X107696142Y-50173000D01*
X107600904Y-50268238D01*
X107553285Y-50363476D01*
X107505666Y-50553952D01*
X107505666Y-50696809D01*
X107553285Y-50887285D01*
X107600904Y-50982523D01*
X107696142Y-51077761D01*
X107839000Y-51125380D01*
X108077095Y-51125380D01*
X112521904Y-51077761D02*
X112379047Y-51125380D01*
X112140952Y-51125380D01*
X112045714Y-51077761D01*
X111998095Y-51030142D01*
X111950476Y-50934904D01*
X111950476Y-50839666D01*
X111998095Y-50744428D01*
X112045714Y-50696809D01*
X112140952Y-50649190D01*
X112331428Y-50601571D01*
X112426666Y-50553952D01*
X112474285Y-50506333D01*
X112521904Y-50411095D01*
X112521904Y-50315857D01*
X112474285Y-50220619D01*
X112426666Y-50173000D01*
X112331428Y-50125380D01*
X112093333Y-50125380D01*
X111950476Y-50173000D01*
X111617142Y-50125380D02*
X110998095Y-50125380D01*
X111331428Y-50506333D01*
X111188571Y-50506333D01*
X111093333Y-50553952D01*
X111045714Y-50601571D01*
X110998095Y-50696809D01*
X110998095Y-50934904D01*
X111045714Y-51030142D01*
X111093333Y-51077761D01*
X111188571Y-51125380D01*
X111474285Y-51125380D01*
X111569523Y-51077761D01*
X111617142Y-51030142D01*
X106029047Y-50125380D02*
X106505238Y-50125380D01*
X106552857Y-50601571D01*
X106505238Y-50553952D01*
X106410000Y-50506333D01*
X106171904Y-50506333D01*
X106076666Y-50553952D01*
X106029047Y-50601571D01*
X105981428Y-50696809D01*
X105981428Y-50934904D01*
X106029047Y-51030142D01*
X106076666Y-51077761D01*
X106171904Y-51125380D01*
X106410000Y-51125380D01*
X106505238Y-51077761D01*
X106552857Y-51030142D01*
X105695714Y-50125380D02*
X105362380Y-51125380D01*
X105029047Y-50125380D01*
X104743333Y-50839666D02*
X104267142Y-50839666D01*
X104838571Y-51125380D02*
X104505238Y-50125380D01*
X104171904Y-51125380D01*
X123697904Y-50173000D02*
X123793142Y-50125380D01*
X123936000Y-50125380D01*
X124078857Y-50173000D01*
X124174095Y-50268238D01*
X124221714Y-50363476D01*
X124269333Y-50553952D01*
X124269333Y-50696809D01*
X124221714Y-50887285D01*
X124174095Y-50982523D01*
X124078857Y-51077761D01*
X123936000Y-51125380D01*
X123840761Y-51125380D01*
X123697904Y-51077761D01*
X123650285Y-51030142D01*
X123650285Y-50696809D01*
X123840761Y-50696809D01*
X123221714Y-51125380D02*
X123221714Y-50125380D01*
X122650285Y-51125380D01*
X122650285Y-50125380D01*
X122174095Y-51125380D02*
X122174095Y-50125380D01*
X121936000Y-50125380D01*
X121793142Y-50173000D01*
X121697904Y-50268238D01*
X121650285Y-50363476D01*
X121602666Y-50553952D01*
X121602666Y-50696809D01*
X121650285Y-50887285D01*
X121697904Y-50982523D01*
X121793142Y-51077761D01*
X121936000Y-51125380D01*
X122174095Y-51125380D01*
X126618904Y-51077761D02*
X126476047Y-51125380D01*
X126237952Y-51125380D01*
X126142714Y-51077761D01*
X126095095Y-51030142D01*
X126047476Y-50934904D01*
X126047476Y-50839666D01*
X126095095Y-50744428D01*
X126142714Y-50696809D01*
X126237952Y-50649190D01*
X126428428Y-50601571D01*
X126523666Y-50553952D01*
X126571285Y-50506333D01*
X126618904Y-50411095D01*
X126618904Y-50315857D01*
X126571285Y-50220619D01*
X126523666Y-50173000D01*
X126428428Y-50125380D01*
X126190333Y-50125380D01*
X126047476Y-50173000D01*
X125190333Y-50458714D02*
X125190333Y-51125380D01*
X125428428Y-50077761D02*
X125666523Y-50792047D01*
X125047476Y-50792047D01*
X120126047Y-50125380D02*
X120602238Y-50125380D01*
X120649857Y-50601571D01*
X120602238Y-50553952D01*
X120507000Y-50506333D01*
X120268904Y-50506333D01*
X120173666Y-50553952D01*
X120126047Y-50601571D01*
X120078428Y-50696809D01*
X120078428Y-50934904D01*
X120126047Y-51030142D01*
X120173666Y-51077761D01*
X120268904Y-51125380D01*
X120507000Y-51125380D01*
X120602238Y-51077761D01*
X120649857Y-51030142D01*
X119792714Y-50125380D02*
X119459380Y-51125380D01*
X119126047Y-50125380D01*
X118840333Y-50839666D02*
X118364142Y-50839666D01*
X118935571Y-51125380D02*
X118602238Y-50125380D01*
X118268904Y-51125380D01*
X137667904Y-50173000D02*
X137763142Y-50125380D01*
X137906000Y-50125380D01*
X138048857Y-50173000D01*
X138144095Y-50268238D01*
X138191714Y-50363476D01*
X138239333Y-50553952D01*
X138239333Y-50696809D01*
X138191714Y-50887285D01*
X138144095Y-50982523D01*
X138048857Y-51077761D01*
X137906000Y-51125380D01*
X137810761Y-51125380D01*
X137667904Y-51077761D01*
X137620285Y-51030142D01*
X137620285Y-50696809D01*
X137810761Y-50696809D01*
X137191714Y-51125380D02*
X137191714Y-50125380D01*
X136620285Y-51125380D01*
X136620285Y-50125380D01*
X136144095Y-51125380D02*
X136144095Y-50125380D01*
X135906000Y-50125380D01*
X135763142Y-50173000D01*
X135667904Y-50268238D01*
X135620285Y-50363476D01*
X135572666Y-50553952D01*
X135572666Y-50696809D01*
X135620285Y-50887285D01*
X135667904Y-50982523D01*
X135763142Y-51077761D01*
X135906000Y-51125380D01*
X136144095Y-51125380D01*
X140588904Y-51077761D02*
X140446047Y-51125380D01*
X140207952Y-51125380D01*
X140112714Y-51077761D01*
X140065095Y-51030142D01*
X140017476Y-50934904D01*
X140017476Y-50839666D01*
X140065095Y-50744428D01*
X140112714Y-50696809D01*
X140207952Y-50649190D01*
X140398428Y-50601571D01*
X140493666Y-50553952D01*
X140541285Y-50506333D01*
X140588904Y-50411095D01*
X140588904Y-50315857D01*
X140541285Y-50220619D01*
X140493666Y-50173000D01*
X140398428Y-50125380D01*
X140160333Y-50125380D01*
X140017476Y-50173000D01*
X139112714Y-50125380D02*
X139588904Y-50125380D01*
X139636523Y-50601571D01*
X139588904Y-50553952D01*
X139493666Y-50506333D01*
X139255571Y-50506333D01*
X139160333Y-50553952D01*
X139112714Y-50601571D01*
X139065095Y-50696809D01*
X139065095Y-50934904D01*
X139112714Y-51030142D01*
X139160333Y-51077761D01*
X139255571Y-51125380D01*
X139493666Y-51125380D01*
X139588904Y-51077761D01*
X139636523Y-51030142D01*
X134096047Y-50125380D02*
X134572238Y-50125380D01*
X134619857Y-50601571D01*
X134572238Y-50553952D01*
X134477000Y-50506333D01*
X134238904Y-50506333D01*
X134143666Y-50553952D01*
X134096047Y-50601571D01*
X134048428Y-50696809D01*
X134048428Y-50934904D01*
X134096047Y-51030142D01*
X134143666Y-51077761D01*
X134238904Y-51125380D01*
X134477000Y-51125380D01*
X134572238Y-51077761D01*
X134619857Y-51030142D01*
X133762714Y-50125380D02*
X133429380Y-51125380D01*
X133096047Y-50125380D01*
X132810333Y-50839666D02*
X132334142Y-50839666D01*
X132905571Y-51125380D02*
X132572238Y-50125380D01*
X132238904Y-51125380D01*
X151764904Y-50173000D02*
X151860142Y-50125380D01*
X152003000Y-50125380D01*
X152145857Y-50173000D01*
X152241095Y-50268238D01*
X152288714Y-50363476D01*
X152336333Y-50553952D01*
X152336333Y-50696809D01*
X152288714Y-50887285D01*
X152241095Y-50982523D01*
X152145857Y-51077761D01*
X152003000Y-51125380D01*
X151907761Y-51125380D01*
X151764904Y-51077761D01*
X151717285Y-51030142D01*
X151717285Y-50696809D01*
X151907761Y-50696809D01*
X151288714Y-51125380D02*
X151288714Y-50125380D01*
X150717285Y-51125380D01*
X150717285Y-50125380D01*
X150241095Y-51125380D02*
X150241095Y-50125380D01*
X150003000Y-50125380D01*
X149860142Y-50173000D01*
X149764904Y-50268238D01*
X149717285Y-50363476D01*
X149669666Y-50553952D01*
X149669666Y-50696809D01*
X149717285Y-50887285D01*
X149764904Y-50982523D01*
X149860142Y-51077761D01*
X150003000Y-51125380D01*
X150241095Y-51125380D01*
X154685904Y-51077761D02*
X154543047Y-51125380D01*
X154304952Y-51125380D01*
X154209714Y-51077761D01*
X154162095Y-51030142D01*
X154114476Y-50934904D01*
X154114476Y-50839666D01*
X154162095Y-50744428D01*
X154209714Y-50696809D01*
X154304952Y-50649190D01*
X154495428Y-50601571D01*
X154590666Y-50553952D01*
X154638285Y-50506333D01*
X154685904Y-50411095D01*
X154685904Y-50315857D01*
X154638285Y-50220619D01*
X154590666Y-50173000D01*
X154495428Y-50125380D01*
X154257333Y-50125380D01*
X154114476Y-50173000D01*
X153257333Y-50125380D02*
X153447809Y-50125380D01*
X153543047Y-50173000D01*
X153590666Y-50220619D01*
X153685904Y-50363476D01*
X153733523Y-50553952D01*
X153733523Y-50934904D01*
X153685904Y-51030142D01*
X153638285Y-51077761D01*
X153543047Y-51125380D01*
X153352571Y-51125380D01*
X153257333Y-51077761D01*
X153209714Y-51030142D01*
X153162095Y-50934904D01*
X153162095Y-50696809D01*
X153209714Y-50601571D01*
X153257333Y-50553952D01*
X153352571Y-50506333D01*
X153543047Y-50506333D01*
X153638285Y-50553952D01*
X153685904Y-50601571D01*
X153733523Y-50696809D01*
X148193047Y-50125380D02*
X148669238Y-50125380D01*
X148716857Y-50601571D01*
X148669238Y-50553952D01*
X148574000Y-50506333D01*
X148335904Y-50506333D01*
X148240666Y-50553952D01*
X148193047Y-50601571D01*
X148145428Y-50696809D01*
X148145428Y-50934904D01*
X148193047Y-51030142D01*
X148240666Y-51077761D01*
X148335904Y-51125380D01*
X148574000Y-51125380D01*
X148669238Y-51077761D01*
X148716857Y-51030142D01*
X147859714Y-50125380D02*
X147526380Y-51125380D01*
X147193047Y-50125380D01*
X146907333Y-50839666D02*
X146431142Y-50839666D01*
X147002571Y-51125380D02*
X146669238Y-50125380D01*
X146335904Y-51125380D01*
X165734904Y-50173000D02*
X165830142Y-50125380D01*
X165973000Y-50125380D01*
X166115857Y-50173000D01*
X166211095Y-50268238D01*
X166258714Y-50363476D01*
X166306333Y-50553952D01*
X166306333Y-50696809D01*
X166258714Y-50887285D01*
X166211095Y-50982523D01*
X166115857Y-51077761D01*
X165973000Y-51125380D01*
X165877761Y-51125380D01*
X165734904Y-51077761D01*
X165687285Y-51030142D01*
X165687285Y-50696809D01*
X165877761Y-50696809D01*
X165258714Y-51125380D02*
X165258714Y-50125380D01*
X164687285Y-51125380D01*
X164687285Y-50125380D01*
X164211095Y-51125380D02*
X164211095Y-50125380D01*
X163973000Y-50125380D01*
X163830142Y-50173000D01*
X163734904Y-50268238D01*
X163687285Y-50363476D01*
X163639666Y-50553952D01*
X163639666Y-50696809D01*
X163687285Y-50887285D01*
X163734904Y-50982523D01*
X163830142Y-51077761D01*
X163973000Y-51125380D01*
X164211095Y-51125380D01*
X168655904Y-51077761D02*
X168513047Y-51125380D01*
X168274952Y-51125380D01*
X168179714Y-51077761D01*
X168132095Y-51030142D01*
X168084476Y-50934904D01*
X168084476Y-50839666D01*
X168132095Y-50744428D01*
X168179714Y-50696809D01*
X168274952Y-50649190D01*
X168465428Y-50601571D01*
X168560666Y-50553952D01*
X168608285Y-50506333D01*
X168655904Y-50411095D01*
X168655904Y-50315857D01*
X168608285Y-50220619D01*
X168560666Y-50173000D01*
X168465428Y-50125380D01*
X168227333Y-50125380D01*
X168084476Y-50173000D01*
X167751142Y-50125380D02*
X167084476Y-50125380D01*
X167513047Y-51125380D01*
X162163047Y-50125380D02*
X162639238Y-50125380D01*
X162686857Y-50601571D01*
X162639238Y-50553952D01*
X162544000Y-50506333D01*
X162305904Y-50506333D01*
X162210666Y-50553952D01*
X162163047Y-50601571D01*
X162115428Y-50696809D01*
X162115428Y-50934904D01*
X162163047Y-51030142D01*
X162210666Y-51077761D01*
X162305904Y-51125380D01*
X162544000Y-51125380D01*
X162639238Y-51077761D01*
X162686857Y-51030142D01*
X161829714Y-50125380D02*
X161496380Y-51125380D01*
X161163047Y-50125380D01*
X160877333Y-50839666D02*
X160401142Y-50839666D01*
X160972571Y-51125380D02*
X160639238Y-50125380D01*
X160305904Y-51125380D01*
X175879047Y-50125380D02*
X176355238Y-50125380D01*
X176402857Y-50601571D01*
X176355238Y-50553952D01*
X176260000Y-50506333D01*
X176021904Y-50506333D01*
X175926666Y-50553952D01*
X175879047Y-50601571D01*
X175831428Y-50696809D01*
X175831428Y-50934904D01*
X175879047Y-51030142D01*
X175926666Y-51077761D01*
X176021904Y-51125380D01*
X176260000Y-51125380D01*
X176355238Y-51077761D01*
X176402857Y-51030142D01*
X175545714Y-50125380D02*
X175212380Y-51125380D01*
X174879047Y-50125380D01*
X174593333Y-50839666D02*
X174117142Y-50839666D01*
X174688571Y-51125380D02*
X174355238Y-50125380D01*
X174021904Y-51125380D01*
X179450904Y-50173000D02*
X179546142Y-50125380D01*
X179689000Y-50125380D01*
X179831857Y-50173000D01*
X179927095Y-50268238D01*
X179974714Y-50363476D01*
X180022333Y-50553952D01*
X180022333Y-50696809D01*
X179974714Y-50887285D01*
X179927095Y-50982523D01*
X179831857Y-51077761D01*
X179689000Y-51125380D01*
X179593761Y-51125380D01*
X179450904Y-51077761D01*
X179403285Y-51030142D01*
X179403285Y-50696809D01*
X179593761Y-50696809D01*
X178974714Y-51125380D02*
X178974714Y-50125380D01*
X178403285Y-51125380D01*
X178403285Y-50125380D01*
X177927095Y-51125380D02*
X177927095Y-50125380D01*
X177689000Y-50125380D01*
X177546142Y-50173000D01*
X177450904Y-50268238D01*
X177403285Y-50363476D01*
X177355666Y-50553952D01*
X177355666Y-50696809D01*
X177403285Y-50887285D01*
X177450904Y-50982523D01*
X177546142Y-51077761D01*
X177689000Y-51125380D01*
X177927095Y-51125380D01*
X182371904Y-51077761D02*
X182229047Y-51125380D01*
X181990952Y-51125380D01*
X181895714Y-51077761D01*
X181848095Y-51030142D01*
X181800476Y-50934904D01*
X181800476Y-50839666D01*
X181848095Y-50744428D01*
X181895714Y-50696809D01*
X181990952Y-50649190D01*
X182181428Y-50601571D01*
X182276666Y-50553952D01*
X182324285Y-50506333D01*
X182371904Y-50411095D01*
X182371904Y-50315857D01*
X182324285Y-50220619D01*
X182276666Y-50173000D01*
X182181428Y-50125380D01*
X181943333Y-50125380D01*
X181800476Y-50173000D01*
X181229047Y-50553952D02*
X181324285Y-50506333D01*
X181371904Y-50458714D01*
X181419523Y-50363476D01*
X181419523Y-50315857D01*
X181371904Y-50220619D01*
X181324285Y-50173000D01*
X181229047Y-50125380D01*
X181038571Y-50125380D01*
X180943333Y-50173000D01*
X180895714Y-50220619D01*
X180848095Y-50315857D01*
X180848095Y-50363476D01*
X180895714Y-50458714D01*
X180943333Y-50506333D01*
X181038571Y-50553952D01*
X181229047Y-50553952D01*
X181324285Y-50601571D01*
X181371904Y-50649190D01*
X181419523Y-50744428D01*
X181419523Y-50934904D01*
X181371904Y-51030142D01*
X181324285Y-51077761D01*
X181229047Y-51125380D01*
X181038571Y-51125380D01*
X180943333Y-51077761D01*
X180895714Y-51030142D01*
X180848095Y-50934904D01*
X180848095Y-50744428D01*
X180895714Y-50649190D01*
X180943333Y-50601571D01*
X181038571Y-50553952D01*
X130810000Y-59690000D02*
X130810000Y-64770000D01*
X156210000Y-59690000D02*
X130810000Y-59690000D01*
X156210000Y-64770000D02*
X156210000Y-59690000D01*
X130810000Y-107950000D02*
X156210000Y-107950000D01*
X130810000Y-102870000D02*
X130810000Y-107950000D01*
X156210000Y-107950000D02*
X156210000Y-102870000D01*
X130810000Y-64770000D02*
X156210000Y-64770000D01*
X156210000Y-102870000D02*
X130810000Y-102870000D01*
X67310000Y-64770000D02*
X92710000Y-64770000D01*
X67310000Y-59690000D02*
X67310000Y-64770000D01*
X92710000Y-59690000D02*
X67310000Y-59690000D01*
X92710000Y-64770000D02*
X92710000Y-59690000D01*
X67310000Y-107950000D02*
X92710000Y-107950000D01*
X67310000Y-102870000D02*
X67310000Y-107950000D01*
X92710000Y-102870000D02*
X67310000Y-102870000D01*
X92710000Y-107950000D02*
X92710000Y-102870000D01*
X157940285Y-106846666D02*
X157464095Y-106846666D01*
X158035523Y-107132380D02*
X157702190Y-106132380D01*
X157368857Y-107132380D01*
X157083142Y-106227619D02*
X157035523Y-106180000D01*
X156940285Y-106132380D01*
X156702190Y-106132380D01*
X156606952Y-106180000D01*
X156559333Y-106227619D01*
X156511714Y-106322857D01*
X156511714Y-106418095D01*
X156559333Y-106560952D01*
X157130761Y-107132380D01*
X156511714Y-107132380D01*
X157630761Y-104068571D02*
X157487904Y-104116190D01*
X157440285Y-104163809D01*
X157392666Y-104259047D01*
X157392666Y-104401904D01*
X157440285Y-104497142D01*
X157487904Y-104544761D01*
X157583142Y-104592380D01*
X157964095Y-104592380D01*
X157964095Y-103592380D01*
X157630761Y-103592380D01*
X157535523Y-103640000D01*
X157487904Y-103687619D01*
X157440285Y-103782857D01*
X157440285Y-103878095D01*
X157487904Y-103973333D01*
X157535523Y-104020952D01*
X157630761Y-104068571D01*
X157964095Y-104068571D01*
X157011714Y-103687619D02*
X156964095Y-103640000D01*
X156868857Y-103592380D01*
X156630761Y-103592380D01*
X156535523Y-103640000D01*
X156487904Y-103687619D01*
X156440285Y-103782857D01*
X156440285Y-103878095D01*
X156487904Y-104020952D01*
X157059333Y-104592380D01*
X156440285Y-104592380D01*
X94440285Y-106846666D02*
X93964095Y-106846666D01*
X94535523Y-107132380D02*
X94202190Y-106132380D01*
X93868857Y-107132380D01*
X93011714Y-107132380D02*
X93583142Y-107132380D01*
X93297428Y-107132380D02*
X93297428Y-106132380D01*
X93392666Y-106275238D01*
X93487904Y-106370476D01*
X93583142Y-106418095D01*
X94130761Y-104068571D02*
X93987904Y-104116190D01*
X93940285Y-104163809D01*
X93892666Y-104259047D01*
X93892666Y-104401904D01*
X93940285Y-104497142D01*
X93987904Y-104544761D01*
X94083142Y-104592380D01*
X94464095Y-104592380D01*
X94464095Y-103592380D01*
X94130761Y-103592380D01*
X94035523Y-103640000D01*
X93987904Y-103687619D01*
X93940285Y-103782857D01*
X93940285Y-103878095D01*
X93987904Y-103973333D01*
X94035523Y-104020952D01*
X94130761Y-104068571D01*
X94464095Y-104068571D01*
X92940285Y-104592380D02*
X93511714Y-104592380D01*
X93226000Y-104592380D02*
X93226000Y-103592380D01*
X93321238Y-103735238D01*
X93416476Y-103830476D01*
X93511714Y-103878095D01*
X157964095Y-61158380D02*
X157964095Y-60158380D01*
X157726000Y-60158380D01*
X157583142Y-60206000D01*
X157487904Y-60301238D01*
X157440285Y-60396476D01*
X157392666Y-60586952D01*
X157392666Y-60729809D01*
X157440285Y-60920285D01*
X157487904Y-61015523D01*
X157583142Y-61110761D01*
X157726000Y-61158380D01*
X157964095Y-61158380D01*
X157011714Y-60253619D02*
X156964095Y-60206000D01*
X156868857Y-60158380D01*
X156630761Y-60158380D01*
X156535523Y-60206000D01*
X156487904Y-60253619D01*
X156440285Y-60348857D01*
X156440285Y-60444095D01*
X156487904Y-60586952D01*
X157059333Y-61158380D01*
X156440285Y-61158380D01*
X157392666Y-63857142D02*
X157440285Y-63904761D01*
X157583142Y-63952380D01*
X157678380Y-63952380D01*
X157821238Y-63904761D01*
X157916476Y-63809523D01*
X157964095Y-63714285D01*
X158011714Y-63523809D01*
X158011714Y-63380952D01*
X157964095Y-63190476D01*
X157916476Y-63095238D01*
X157821238Y-63000000D01*
X157678380Y-62952380D01*
X157583142Y-62952380D01*
X157440285Y-63000000D01*
X157392666Y-63047619D01*
X157011714Y-63047619D02*
X156964095Y-63000000D01*
X156868857Y-62952380D01*
X156630761Y-62952380D01*
X156535523Y-63000000D01*
X156487904Y-63047619D01*
X156440285Y-63142857D01*
X156440285Y-63238095D01*
X156487904Y-63380952D01*
X157059333Y-63952380D01*
X156440285Y-63952380D01*
X94464095Y-61666380D02*
X94464095Y-60666380D01*
X94226000Y-60666380D01*
X94083142Y-60714000D01*
X93987904Y-60809238D01*
X93940285Y-60904476D01*
X93892666Y-61094952D01*
X93892666Y-61237809D01*
X93940285Y-61428285D01*
X93987904Y-61523523D01*
X94083142Y-61618761D01*
X94226000Y-61666380D01*
X94464095Y-61666380D01*
X92940285Y-61666380D02*
X93511714Y-61666380D01*
X93226000Y-61666380D02*
X93226000Y-60666380D01*
X93321238Y-60809238D01*
X93416476Y-60904476D01*
X93511714Y-60952095D01*
X93892666Y-63857142D02*
X93940285Y-63904761D01*
X94083142Y-63952380D01*
X94178380Y-63952380D01*
X94321238Y-63904761D01*
X94416476Y-63809523D01*
X94464095Y-63714285D01*
X94511714Y-63523809D01*
X94511714Y-63380952D01*
X94464095Y-63190476D01*
X94416476Y-63095238D01*
X94321238Y-63000000D01*
X94178380Y-62952380D01*
X94083142Y-62952380D01*
X93940285Y-63000000D01*
X93892666Y-63047619D01*
X92940285Y-63952380D02*
X93511714Y-63952380D01*
X93226000Y-63952380D02*
X93226000Y-62952380D01*
X93321238Y-63095238D01*
X93416476Y-63190476D01*
X93511714Y-63238095D01*
X155749523Y-66254380D02*
X155082857Y-67254380D01*
X155082857Y-66254380D02*
X155749523Y-67254380D01*
X154797142Y-66254380D02*
X154130476Y-66254380D01*
X154559047Y-67254380D01*
X92503523Y-100290380D02*
X91836857Y-101290380D01*
X91836857Y-100290380D02*
X92503523Y-101290380D01*
X91313047Y-100718952D02*
X91408285Y-100671333D01*
X91455904Y-100623714D01*
X91503523Y-100528476D01*
X91503523Y-100480857D01*
X91455904Y-100385619D01*
X91408285Y-100338000D01*
X91313047Y-100290380D01*
X91122571Y-100290380D01*
X91027333Y-100338000D01*
X90979714Y-100385619D01*
X90932095Y-100480857D01*
X90932095Y-100528476D01*
X90979714Y-100623714D01*
X91027333Y-100671333D01*
X91122571Y-100718952D01*
X91313047Y-100718952D01*
X91408285Y-100766571D01*
X91455904Y-100814190D01*
X91503523Y-100909428D01*
X91503523Y-101099904D01*
X91455904Y-101195142D01*
X91408285Y-101242761D01*
X91313047Y-101290380D01*
X91122571Y-101290380D01*
X91027333Y-101242761D01*
X90979714Y-101195142D01*
X90932095Y-101099904D01*
X90932095Y-100909428D01*
X90979714Y-100814190D01*
X91027333Y-100766571D01*
X91122571Y-100718952D01*
X92503523Y-66254380D02*
X91836857Y-67254380D01*
X91836857Y-66254380D02*
X92503523Y-67254380D01*
X91408285Y-67254380D02*
X91217809Y-67254380D01*
X91122571Y-67206761D01*
X91074952Y-67159142D01*
X90979714Y-67016285D01*
X90932095Y-66825809D01*
X90932095Y-66444857D01*
X90979714Y-66349619D01*
X91027333Y-66302000D01*
X91122571Y-66254380D01*
X91313047Y-66254380D01*
X91408285Y-66302000D01*
X91455904Y-66349619D01*
X91503523Y-66444857D01*
X91503523Y-66682952D01*
X91455904Y-66778190D01*
X91408285Y-66825809D01*
X91313047Y-66873428D01*
X91122571Y-66873428D01*
X91027333Y-66825809D01*
X90979714Y-66778190D01*
X90932095Y-66682952D01*
X91884476Y-65984380D02*
X92455904Y-65984380D01*
X92170190Y-65984380D02*
X92170190Y-64984380D01*
X92265428Y-65127238D01*
X92360666Y-65222476D01*
X92455904Y-65270095D01*
X91265428Y-64984380D02*
X91170190Y-64984380D01*
X91074952Y-65032000D01*
X91027333Y-65079619D01*
X90979714Y-65174857D01*
X90932095Y-65365333D01*
X90932095Y-65603428D01*
X90979714Y-65793904D01*
X91027333Y-65889142D01*
X91074952Y-65936761D01*
X91170190Y-65984380D01*
X91265428Y-65984380D01*
X91360666Y-65936761D01*
X91408285Y-65889142D01*
X91455904Y-65793904D01*
X91503523Y-65603428D01*
X91503523Y-65365333D01*
X91455904Y-65174857D01*
X91408285Y-65079619D01*
X91360666Y-65032000D01*
X91265428Y-64984380D01*
X155130476Y-65984380D02*
X155701904Y-65984380D01*
X155416190Y-65984380D02*
X155416190Y-64984380D01*
X155511428Y-65127238D01*
X155606666Y-65222476D01*
X155701904Y-65270095D01*
X154511428Y-64984380D02*
X154416190Y-64984380D01*
X154320952Y-65032000D01*
X154273333Y-65079619D01*
X154225714Y-65174857D01*
X154178095Y-65365333D01*
X154178095Y-65603428D01*
X154225714Y-65793904D01*
X154273333Y-65889142D01*
X154320952Y-65936761D01*
X154416190Y-65984380D01*
X154511428Y-65984380D01*
X154606666Y-65936761D01*
X154654285Y-65889142D01*
X154701904Y-65793904D01*
X154749523Y-65603428D01*
X154749523Y-65365333D01*
X154701904Y-65174857D01*
X154654285Y-65079619D01*
X154606666Y-65032000D01*
X154511428Y-64984380D01*
X131794285Y-65984380D02*
X132365714Y-65984380D01*
X132080000Y-65984380D02*
X132080000Y-64984380D01*
X132175238Y-65127238D01*
X132270476Y-65222476D01*
X132365714Y-65270095D01*
X91884476Y-102560380D02*
X92455904Y-102560380D01*
X92170190Y-102560380D02*
X92170190Y-101560380D01*
X92265428Y-101703238D01*
X92360666Y-101798476D01*
X92455904Y-101846095D01*
X91265428Y-101560380D02*
X91170190Y-101560380D01*
X91074952Y-101608000D01*
X91027333Y-101655619D01*
X90979714Y-101750857D01*
X90932095Y-101941333D01*
X90932095Y-102179428D01*
X90979714Y-102369904D01*
X91027333Y-102465142D01*
X91074952Y-102512761D01*
X91170190Y-102560380D01*
X91265428Y-102560380D01*
X91360666Y-102512761D01*
X91408285Y-102465142D01*
X91455904Y-102369904D01*
X91503523Y-102179428D01*
X91503523Y-101941333D01*
X91455904Y-101750857D01*
X91408285Y-101655619D01*
X91360666Y-101608000D01*
X91265428Y-101560380D01*
X68294285Y-102560380D02*
X68865714Y-102560380D01*
X68580000Y-102560380D02*
X68580000Y-101560380D01*
X68675238Y-101703238D01*
X68770476Y-101798476D01*
X68865714Y-101846095D01*
X91884476Y-65984380D02*
X92455904Y-65984380D01*
X92170190Y-65984380D02*
X92170190Y-64984380D01*
X92265428Y-65127238D01*
X92360666Y-65222476D01*
X92455904Y-65270095D01*
X91265428Y-64984380D02*
X91170190Y-64984380D01*
X91074952Y-65032000D01*
X91027333Y-65079619D01*
X90979714Y-65174857D01*
X90932095Y-65365333D01*
X90932095Y-65603428D01*
X90979714Y-65793904D01*
X91027333Y-65889142D01*
X91074952Y-65936761D01*
X91170190Y-65984380D01*
X91265428Y-65984380D01*
X91360666Y-65936761D01*
X91408285Y-65889142D01*
X91455904Y-65793904D01*
X91503523Y-65603428D01*
X91503523Y-65365333D01*
X91455904Y-65174857D01*
X91408285Y-65079619D01*
X91360666Y-65032000D01*
X91265428Y-64984380D01*
M02*
