G04 #@! TF.GenerationSoftware,KiCad,Pcbnew,5.1.5-52549c5~84~ubuntu18.04.1*
G04 #@! TF.CreationDate,2019-12-14T15:24:26-06:00*
G04 #@! TF.ProjectId,Gimbal_Board,47696d62-616c-45f4-926f-6172642e6b69,rev?*
G04 #@! TF.SameCoordinates,Original*
G04 #@! TF.FileFunction,Paste,Top*
G04 #@! TF.FilePolarity,Positive*
%FSLAX46Y46*%
G04 Gerber Fmt 4.6, Leading zero omitted, Abs format (unit mm)*
G04 Created by KiCad (PCBNEW 5.1.5-52549c5~84~ubuntu18.04.1) date 2019-12-14 15:24:26*
%MOMM*%
%LPD*%
G04 APERTURE LIST*
%ADD10C,1.520000*%
%ADD11C,0.100000*%
%ADD12R,0.800000X1.900000*%
%ADD13R,1.600000X1.400000*%
%ADD14R,1.400000X1.600000*%
%ADD15C,5.080000*%
G04 APERTURE END LIST*
D10*
X91440000Y-60960000D03*
X88900000Y-60960000D03*
X86360000Y-60960000D03*
X83820000Y-60960000D03*
X81280000Y-60960000D03*
X78740000Y-60960000D03*
X76200000Y-60960000D03*
X73660000Y-60960000D03*
X71120000Y-60960000D03*
X68580000Y-60960000D03*
X91440000Y-63500000D03*
X88900000Y-63500000D03*
X86360000Y-63500000D03*
X83820000Y-63500000D03*
X81280000Y-63500000D03*
X78740000Y-63500000D03*
X76200000Y-63500000D03*
X73660000Y-63500000D03*
X71120000Y-63500000D03*
X68580000Y-63500000D03*
X91440000Y-106680000D03*
X88900000Y-106680000D03*
X86360000Y-106680000D03*
X83820000Y-106680000D03*
X81280000Y-106680000D03*
X78740000Y-106680000D03*
X76200000Y-106680000D03*
X73660000Y-106680000D03*
X71120000Y-106680000D03*
X68580000Y-106680000D03*
X91440000Y-104140000D03*
X88900000Y-104140000D03*
X86360000Y-104140000D03*
X83820000Y-104140000D03*
X81280000Y-104140000D03*
X78740000Y-104140000D03*
X76200000Y-104140000D03*
X73660000Y-104140000D03*
X71120000Y-104140000D03*
X68580000Y-104140000D03*
X137160000Y-60960000D03*
X134620000Y-60960000D03*
X132080000Y-60960000D03*
X154940000Y-63500000D03*
X152400000Y-63500000D03*
X149860000Y-63500000D03*
X147320000Y-63500000D03*
X144780000Y-63500000D03*
X142240000Y-63500000D03*
X139700000Y-63500000D03*
X137160000Y-63500000D03*
X134620000Y-63500000D03*
X132080000Y-63500000D03*
X154940000Y-106680000D03*
X149860000Y-106680000D03*
X144780000Y-106680000D03*
X142240000Y-106680000D03*
X139700000Y-106680000D03*
X137160000Y-106680000D03*
X134620000Y-106680000D03*
X154940000Y-104140000D03*
X149860000Y-104140000D03*
X139700000Y-104140000D03*
X137160000Y-104140000D03*
X134620000Y-104140000D03*
X132080000Y-104140000D03*
X144780000Y-104140000D03*
X147320000Y-104140000D03*
X152400000Y-106680000D03*
X139700000Y-60960000D03*
X142240000Y-60960000D03*
X152400000Y-104140000D03*
X147320000Y-106680000D03*
X149860000Y-60960000D03*
X147320000Y-60960000D03*
X142240000Y-104140000D03*
X144780000Y-60960000D03*
X152400000Y-60960000D03*
X154940000Y-60960000D03*
X132080000Y-106680000D03*
D11*
G36*
X148101979Y-54161544D02*
G01*
X148125034Y-54164963D01*
X148147643Y-54170627D01*
X148169587Y-54178479D01*
X148190657Y-54188444D01*
X148210648Y-54200426D01*
X148229368Y-54214310D01*
X148246638Y-54229962D01*
X148262290Y-54247232D01*
X148276174Y-54265952D01*
X148288156Y-54285943D01*
X148298121Y-54307013D01*
X148305973Y-54328957D01*
X148311637Y-54351566D01*
X148315056Y-54374621D01*
X148316200Y-54397900D01*
X148316200Y-54872900D01*
X148315056Y-54896179D01*
X148311637Y-54919234D01*
X148305973Y-54941843D01*
X148298121Y-54963787D01*
X148288156Y-54984857D01*
X148276174Y-55004848D01*
X148262290Y-55023568D01*
X148246638Y-55040838D01*
X148229368Y-55056490D01*
X148210648Y-55070374D01*
X148190657Y-55082356D01*
X148169587Y-55092321D01*
X148147643Y-55100173D01*
X148125034Y-55105837D01*
X148101979Y-55109256D01*
X148078700Y-55110400D01*
X147503700Y-55110400D01*
X147480421Y-55109256D01*
X147457366Y-55105837D01*
X147434757Y-55100173D01*
X147412813Y-55092321D01*
X147391743Y-55082356D01*
X147371752Y-55070374D01*
X147353032Y-55056490D01*
X147335762Y-55040838D01*
X147320110Y-55023568D01*
X147306226Y-55004848D01*
X147294244Y-54984857D01*
X147284279Y-54963787D01*
X147276427Y-54941843D01*
X147270763Y-54919234D01*
X147267344Y-54896179D01*
X147266200Y-54872900D01*
X147266200Y-54397900D01*
X147267344Y-54374621D01*
X147270763Y-54351566D01*
X147276427Y-54328957D01*
X147284279Y-54307013D01*
X147294244Y-54285943D01*
X147306226Y-54265952D01*
X147320110Y-54247232D01*
X147335762Y-54229962D01*
X147353032Y-54214310D01*
X147371752Y-54200426D01*
X147391743Y-54188444D01*
X147412813Y-54178479D01*
X147434757Y-54170627D01*
X147457366Y-54164963D01*
X147480421Y-54161544D01*
X147503700Y-54160400D01*
X148078700Y-54160400D01*
X148101979Y-54161544D01*
G37*
G36*
X149851979Y-54161544D02*
G01*
X149875034Y-54164963D01*
X149897643Y-54170627D01*
X149919587Y-54178479D01*
X149940657Y-54188444D01*
X149960648Y-54200426D01*
X149979368Y-54214310D01*
X149996638Y-54229962D01*
X150012290Y-54247232D01*
X150026174Y-54265952D01*
X150038156Y-54285943D01*
X150048121Y-54307013D01*
X150055973Y-54328957D01*
X150061637Y-54351566D01*
X150065056Y-54374621D01*
X150066200Y-54397900D01*
X150066200Y-54872900D01*
X150065056Y-54896179D01*
X150061637Y-54919234D01*
X150055973Y-54941843D01*
X150048121Y-54963787D01*
X150038156Y-54984857D01*
X150026174Y-55004848D01*
X150012290Y-55023568D01*
X149996638Y-55040838D01*
X149979368Y-55056490D01*
X149960648Y-55070374D01*
X149940657Y-55082356D01*
X149919587Y-55092321D01*
X149897643Y-55100173D01*
X149875034Y-55105837D01*
X149851979Y-55109256D01*
X149828700Y-55110400D01*
X149253700Y-55110400D01*
X149230421Y-55109256D01*
X149207366Y-55105837D01*
X149184757Y-55100173D01*
X149162813Y-55092321D01*
X149141743Y-55082356D01*
X149121752Y-55070374D01*
X149103032Y-55056490D01*
X149085762Y-55040838D01*
X149070110Y-55023568D01*
X149056226Y-55004848D01*
X149044244Y-54984857D01*
X149034279Y-54963787D01*
X149026427Y-54941843D01*
X149020763Y-54919234D01*
X149017344Y-54896179D01*
X149016200Y-54872900D01*
X149016200Y-54397900D01*
X149017344Y-54374621D01*
X149020763Y-54351566D01*
X149026427Y-54328957D01*
X149034279Y-54307013D01*
X149044244Y-54285943D01*
X149056226Y-54265952D01*
X149070110Y-54247232D01*
X149085762Y-54229962D01*
X149103032Y-54214310D01*
X149121752Y-54200426D01*
X149141743Y-54188444D01*
X149162813Y-54178479D01*
X149184757Y-54170627D01*
X149207366Y-54164963D01*
X149230421Y-54161544D01*
X149253700Y-54160400D01*
X149828700Y-54160400D01*
X149851979Y-54161544D01*
G37*
G36*
X135932779Y-54199644D02*
G01*
X135955834Y-54203063D01*
X135978443Y-54208727D01*
X136000387Y-54216579D01*
X136021457Y-54226544D01*
X136041448Y-54238526D01*
X136060168Y-54252410D01*
X136077438Y-54268062D01*
X136093090Y-54285332D01*
X136106974Y-54304052D01*
X136118956Y-54324043D01*
X136128921Y-54345113D01*
X136136773Y-54367057D01*
X136142437Y-54389666D01*
X136145856Y-54412721D01*
X136147000Y-54436000D01*
X136147000Y-54911000D01*
X136145856Y-54934279D01*
X136142437Y-54957334D01*
X136136773Y-54979943D01*
X136128921Y-55001887D01*
X136118956Y-55022957D01*
X136106974Y-55042948D01*
X136093090Y-55061668D01*
X136077438Y-55078938D01*
X136060168Y-55094590D01*
X136041448Y-55108474D01*
X136021457Y-55120456D01*
X136000387Y-55130421D01*
X135978443Y-55138273D01*
X135955834Y-55143937D01*
X135932779Y-55147356D01*
X135909500Y-55148500D01*
X135334500Y-55148500D01*
X135311221Y-55147356D01*
X135288166Y-55143937D01*
X135265557Y-55138273D01*
X135243613Y-55130421D01*
X135222543Y-55120456D01*
X135202552Y-55108474D01*
X135183832Y-55094590D01*
X135166562Y-55078938D01*
X135150910Y-55061668D01*
X135137026Y-55042948D01*
X135125044Y-55022957D01*
X135115079Y-55001887D01*
X135107227Y-54979943D01*
X135101563Y-54957334D01*
X135098144Y-54934279D01*
X135097000Y-54911000D01*
X135097000Y-54436000D01*
X135098144Y-54412721D01*
X135101563Y-54389666D01*
X135107227Y-54367057D01*
X135115079Y-54345113D01*
X135125044Y-54324043D01*
X135137026Y-54304052D01*
X135150910Y-54285332D01*
X135166562Y-54268062D01*
X135183832Y-54252410D01*
X135202552Y-54238526D01*
X135222543Y-54226544D01*
X135243613Y-54216579D01*
X135265557Y-54208727D01*
X135288166Y-54203063D01*
X135311221Y-54199644D01*
X135334500Y-54198500D01*
X135909500Y-54198500D01*
X135932779Y-54199644D01*
G37*
G36*
X134182779Y-54199644D02*
G01*
X134205834Y-54203063D01*
X134228443Y-54208727D01*
X134250387Y-54216579D01*
X134271457Y-54226544D01*
X134291448Y-54238526D01*
X134310168Y-54252410D01*
X134327438Y-54268062D01*
X134343090Y-54285332D01*
X134356974Y-54304052D01*
X134368956Y-54324043D01*
X134378921Y-54345113D01*
X134386773Y-54367057D01*
X134392437Y-54389666D01*
X134395856Y-54412721D01*
X134397000Y-54436000D01*
X134397000Y-54911000D01*
X134395856Y-54934279D01*
X134392437Y-54957334D01*
X134386773Y-54979943D01*
X134378921Y-55001887D01*
X134368956Y-55022957D01*
X134356974Y-55042948D01*
X134343090Y-55061668D01*
X134327438Y-55078938D01*
X134310168Y-55094590D01*
X134291448Y-55108474D01*
X134271457Y-55120456D01*
X134250387Y-55130421D01*
X134228443Y-55138273D01*
X134205834Y-55143937D01*
X134182779Y-55147356D01*
X134159500Y-55148500D01*
X133584500Y-55148500D01*
X133561221Y-55147356D01*
X133538166Y-55143937D01*
X133515557Y-55138273D01*
X133493613Y-55130421D01*
X133472543Y-55120456D01*
X133452552Y-55108474D01*
X133433832Y-55094590D01*
X133416562Y-55078938D01*
X133400910Y-55061668D01*
X133387026Y-55042948D01*
X133375044Y-55022957D01*
X133365079Y-55001887D01*
X133357227Y-54979943D01*
X133351563Y-54957334D01*
X133348144Y-54934279D01*
X133347000Y-54911000D01*
X133347000Y-54436000D01*
X133348144Y-54412721D01*
X133351563Y-54389666D01*
X133357227Y-54367057D01*
X133365079Y-54345113D01*
X133375044Y-54324043D01*
X133387026Y-54304052D01*
X133400910Y-54285332D01*
X133416562Y-54268062D01*
X133433832Y-54252410D01*
X133452552Y-54238526D01*
X133472543Y-54226544D01*
X133493613Y-54216579D01*
X133515557Y-54208727D01*
X133538166Y-54203063D01*
X133561221Y-54199644D01*
X133584500Y-54198500D01*
X134159500Y-54198500D01*
X134182779Y-54199644D01*
G37*
G36*
X149851979Y-58149344D02*
G01*
X149875034Y-58152763D01*
X149897643Y-58158427D01*
X149919587Y-58166279D01*
X149940657Y-58176244D01*
X149960648Y-58188226D01*
X149979368Y-58202110D01*
X149996638Y-58217762D01*
X150012290Y-58235032D01*
X150026174Y-58253752D01*
X150038156Y-58273743D01*
X150048121Y-58294813D01*
X150055973Y-58316757D01*
X150061637Y-58339366D01*
X150065056Y-58362421D01*
X150066200Y-58385700D01*
X150066200Y-58860700D01*
X150065056Y-58883979D01*
X150061637Y-58907034D01*
X150055973Y-58929643D01*
X150048121Y-58951587D01*
X150038156Y-58972657D01*
X150026174Y-58992648D01*
X150012290Y-59011368D01*
X149996638Y-59028638D01*
X149979368Y-59044290D01*
X149960648Y-59058174D01*
X149940657Y-59070156D01*
X149919587Y-59080121D01*
X149897643Y-59087973D01*
X149875034Y-59093637D01*
X149851979Y-59097056D01*
X149828700Y-59098200D01*
X149253700Y-59098200D01*
X149230421Y-59097056D01*
X149207366Y-59093637D01*
X149184757Y-59087973D01*
X149162813Y-59080121D01*
X149141743Y-59070156D01*
X149121752Y-59058174D01*
X149103032Y-59044290D01*
X149085762Y-59028638D01*
X149070110Y-59011368D01*
X149056226Y-58992648D01*
X149044244Y-58972657D01*
X149034279Y-58951587D01*
X149026427Y-58929643D01*
X149020763Y-58907034D01*
X149017344Y-58883979D01*
X149016200Y-58860700D01*
X149016200Y-58385700D01*
X149017344Y-58362421D01*
X149020763Y-58339366D01*
X149026427Y-58316757D01*
X149034279Y-58294813D01*
X149044244Y-58273743D01*
X149056226Y-58253752D01*
X149070110Y-58235032D01*
X149085762Y-58217762D01*
X149103032Y-58202110D01*
X149121752Y-58188226D01*
X149141743Y-58176244D01*
X149162813Y-58166279D01*
X149184757Y-58158427D01*
X149207366Y-58152763D01*
X149230421Y-58149344D01*
X149253700Y-58148200D01*
X149828700Y-58148200D01*
X149851979Y-58149344D01*
G37*
G36*
X148101979Y-58149344D02*
G01*
X148125034Y-58152763D01*
X148147643Y-58158427D01*
X148169587Y-58166279D01*
X148190657Y-58176244D01*
X148210648Y-58188226D01*
X148229368Y-58202110D01*
X148246638Y-58217762D01*
X148262290Y-58235032D01*
X148276174Y-58253752D01*
X148288156Y-58273743D01*
X148298121Y-58294813D01*
X148305973Y-58316757D01*
X148311637Y-58339366D01*
X148315056Y-58362421D01*
X148316200Y-58385700D01*
X148316200Y-58860700D01*
X148315056Y-58883979D01*
X148311637Y-58907034D01*
X148305973Y-58929643D01*
X148298121Y-58951587D01*
X148288156Y-58972657D01*
X148276174Y-58992648D01*
X148262290Y-59011368D01*
X148246638Y-59028638D01*
X148229368Y-59044290D01*
X148210648Y-59058174D01*
X148190657Y-59070156D01*
X148169587Y-59080121D01*
X148147643Y-59087973D01*
X148125034Y-59093637D01*
X148101979Y-59097056D01*
X148078700Y-59098200D01*
X147503700Y-59098200D01*
X147480421Y-59097056D01*
X147457366Y-59093637D01*
X147434757Y-59087973D01*
X147412813Y-59080121D01*
X147391743Y-59070156D01*
X147371752Y-59058174D01*
X147353032Y-59044290D01*
X147335762Y-59028638D01*
X147320110Y-59011368D01*
X147306226Y-58992648D01*
X147294244Y-58972657D01*
X147284279Y-58951587D01*
X147276427Y-58929643D01*
X147270763Y-58907034D01*
X147267344Y-58883979D01*
X147266200Y-58860700D01*
X147266200Y-58385700D01*
X147267344Y-58362421D01*
X147270763Y-58339366D01*
X147276427Y-58316757D01*
X147284279Y-58294813D01*
X147294244Y-58273743D01*
X147306226Y-58253752D01*
X147320110Y-58235032D01*
X147335762Y-58217762D01*
X147353032Y-58202110D01*
X147371752Y-58188226D01*
X147391743Y-58176244D01*
X147412813Y-58166279D01*
X147434757Y-58158427D01*
X147457366Y-58152763D01*
X147480421Y-58149344D01*
X147503700Y-58148200D01*
X148078700Y-58148200D01*
X148101979Y-58149344D01*
G37*
D12*
X151516000Y-58166000D03*
X153416000Y-58166000D03*
X152466000Y-55166000D03*
D11*
G36*
X148076579Y-56066544D02*
G01*
X148099634Y-56069963D01*
X148122243Y-56075627D01*
X148144187Y-56083479D01*
X148165257Y-56093444D01*
X148185248Y-56105426D01*
X148203968Y-56119310D01*
X148221238Y-56134962D01*
X148236890Y-56152232D01*
X148250774Y-56170952D01*
X148262756Y-56190943D01*
X148272721Y-56212013D01*
X148280573Y-56233957D01*
X148286237Y-56256566D01*
X148289656Y-56279621D01*
X148290800Y-56302900D01*
X148290800Y-56777900D01*
X148289656Y-56801179D01*
X148286237Y-56824234D01*
X148280573Y-56846843D01*
X148272721Y-56868787D01*
X148262756Y-56889857D01*
X148250774Y-56909848D01*
X148236890Y-56928568D01*
X148221238Y-56945838D01*
X148203968Y-56961490D01*
X148185248Y-56975374D01*
X148165257Y-56987356D01*
X148144187Y-56997321D01*
X148122243Y-57005173D01*
X148099634Y-57010837D01*
X148076579Y-57014256D01*
X148053300Y-57015400D01*
X147478300Y-57015400D01*
X147455021Y-57014256D01*
X147431966Y-57010837D01*
X147409357Y-57005173D01*
X147387413Y-56997321D01*
X147366343Y-56987356D01*
X147346352Y-56975374D01*
X147327632Y-56961490D01*
X147310362Y-56945838D01*
X147294710Y-56928568D01*
X147280826Y-56909848D01*
X147268844Y-56889857D01*
X147258879Y-56868787D01*
X147251027Y-56846843D01*
X147245363Y-56824234D01*
X147241944Y-56801179D01*
X147240800Y-56777900D01*
X147240800Y-56302900D01*
X147241944Y-56279621D01*
X147245363Y-56256566D01*
X147251027Y-56233957D01*
X147258879Y-56212013D01*
X147268844Y-56190943D01*
X147280826Y-56170952D01*
X147294710Y-56152232D01*
X147310362Y-56134962D01*
X147327632Y-56119310D01*
X147346352Y-56105426D01*
X147366343Y-56093444D01*
X147387413Y-56083479D01*
X147409357Y-56075627D01*
X147431966Y-56069963D01*
X147455021Y-56066544D01*
X147478300Y-56065400D01*
X148053300Y-56065400D01*
X148076579Y-56066544D01*
G37*
G36*
X149826579Y-56066544D02*
G01*
X149849634Y-56069963D01*
X149872243Y-56075627D01*
X149894187Y-56083479D01*
X149915257Y-56093444D01*
X149935248Y-56105426D01*
X149953968Y-56119310D01*
X149971238Y-56134962D01*
X149986890Y-56152232D01*
X150000774Y-56170952D01*
X150012756Y-56190943D01*
X150022721Y-56212013D01*
X150030573Y-56233957D01*
X150036237Y-56256566D01*
X150039656Y-56279621D01*
X150040800Y-56302900D01*
X150040800Y-56777900D01*
X150039656Y-56801179D01*
X150036237Y-56824234D01*
X150030573Y-56846843D01*
X150022721Y-56868787D01*
X150012756Y-56889857D01*
X150000774Y-56909848D01*
X149986890Y-56928568D01*
X149971238Y-56945838D01*
X149953968Y-56961490D01*
X149935248Y-56975374D01*
X149915257Y-56987356D01*
X149894187Y-56997321D01*
X149872243Y-57005173D01*
X149849634Y-57010837D01*
X149826579Y-57014256D01*
X149803300Y-57015400D01*
X149228300Y-57015400D01*
X149205021Y-57014256D01*
X149181966Y-57010837D01*
X149159357Y-57005173D01*
X149137413Y-56997321D01*
X149116343Y-56987356D01*
X149096352Y-56975374D01*
X149077632Y-56961490D01*
X149060362Y-56945838D01*
X149044710Y-56928568D01*
X149030826Y-56909848D01*
X149018844Y-56889857D01*
X149008879Y-56868787D01*
X149001027Y-56846843D01*
X148995363Y-56824234D01*
X148991944Y-56801179D01*
X148990800Y-56777900D01*
X148990800Y-56302900D01*
X148991944Y-56279621D01*
X148995363Y-56256566D01*
X149001027Y-56233957D01*
X149008879Y-56212013D01*
X149018844Y-56190943D01*
X149030826Y-56170952D01*
X149044710Y-56152232D01*
X149060362Y-56134962D01*
X149077632Y-56119310D01*
X149096352Y-56105426D01*
X149116343Y-56093444D01*
X149137413Y-56083479D01*
X149159357Y-56075627D01*
X149181966Y-56069963D01*
X149205021Y-56066544D01*
X149228300Y-56065400D01*
X149803300Y-56065400D01*
X149826579Y-56066544D01*
G37*
D12*
X137558700Y-58166000D03*
X139458700Y-58166000D03*
X138508700Y-55166000D03*
X179583000Y-58166000D03*
X181483000Y-58166000D03*
X180533000Y-55166000D03*
X165486000Y-58166000D03*
X167386000Y-58166000D03*
X166436000Y-55166000D03*
X123449000Y-58166000D03*
X125349000Y-58166000D03*
X124399000Y-55166000D03*
X109352000Y-58166000D03*
X111252000Y-58166000D03*
X110302000Y-55166000D03*
X95382000Y-58166000D03*
X97282000Y-58166000D03*
X96332000Y-55166000D03*
X81407000Y-58166000D03*
X83307000Y-58166000D03*
X82357000Y-55166000D03*
D13*
X172300000Y-104140000D03*
X165100000Y-104140000D03*
X172300000Y-107140000D03*
X165100000Y-107140000D03*
D14*
X159639000Y-92329000D03*
X159639000Y-99529000D03*
X162639000Y-92329000D03*
X162639000Y-99529000D03*
X152908000Y-92329000D03*
X152908000Y-99529000D03*
X155908000Y-92329000D03*
X155908000Y-99529000D03*
X146177000Y-92329000D03*
X146177000Y-99529000D03*
X149177000Y-92329000D03*
X149177000Y-99529000D03*
X139446000Y-92329000D03*
X139446000Y-99529000D03*
X142446000Y-92329000D03*
X142446000Y-99529000D03*
X132763000Y-92368000D03*
X132763000Y-99568000D03*
X135763000Y-92368000D03*
X135763000Y-99568000D03*
X126032000Y-92368000D03*
X126032000Y-99568000D03*
X129032000Y-92368000D03*
X129032000Y-99568000D03*
X119301000Y-92368000D03*
X119301000Y-99568000D03*
X122301000Y-92368000D03*
X122301000Y-99568000D03*
X112570000Y-92368000D03*
X112570000Y-99568000D03*
X115570000Y-92368000D03*
X115570000Y-99568000D03*
D11*
G36*
X165868779Y-93837144D02*
G01*
X165891834Y-93840563D01*
X165914443Y-93846227D01*
X165936387Y-93854079D01*
X165957457Y-93864044D01*
X165977448Y-93876026D01*
X165996168Y-93889910D01*
X166013438Y-93905562D01*
X166029090Y-93922832D01*
X166042974Y-93941552D01*
X166054956Y-93961543D01*
X166064921Y-93982613D01*
X166072773Y-94004557D01*
X166078437Y-94027166D01*
X166081856Y-94050221D01*
X166083000Y-94073500D01*
X166083000Y-94648500D01*
X166081856Y-94671779D01*
X166078437Y-94694834D01*
X166072773Y-94717443D01*
X166064921Y-94739387D01*
X166054956Y-94760457D01*
X166042974Y-94780448D01*
X166029090Y-94799168D01*
X166013438Y-94816438D01*
X165996168Y-94832090D01*
X165977448Y-94845974D01*
X165957457Y-94857956D01*
X165936387Y-94867921D01*
X165914443Y-94875773D01*
X165891834Y-94881437D01*
X165868779Y-94884856D01*
X165845500Y-94886000D01*
X165370500Y-94886000D01*
X165347221Y-94884856D01*
X165324166Y-94881437D01*
X165301557Y-94875773D01*
X165279613Y-94867921D01*
X165258543Y-94857956D01*
X165238552Y-94845974D01*
X165219832Y-94832090D01*
X165202562Y-94816438D01*
X165186910Y-94799168D01*
X165173026Y-94780448D01*
X165161044Y-94760457D01*
X165151079Y-94739387D01*
X165143227Y-94717443D01*
X165137563Y-94694834D01*
X165134144Y-94671779D01*
X165133000Y-94648500D01*
X165133000Y-94073500D01*
X165134144Y-94050221D01*
X165137563Y-94027166D01*
X165143227Y-94004557D01*
X165151079Y-93982613D01*
X165161044Y-93961543D01*
X165173026Y-93941552D01*
X165186910Y-93922832D01*
X165202562Y-93905562D01*
X165219832Y-93889910D01*
X165238552Y-93876026D01*
X165258543Y-93864044D01*
X165279613Y-93854079D01*
X165301557Y-93846227D01*
X165324166Y-93840563D01*
X165347221Y-93837144D01*
X165370500Y-93836000D01*
X165845500Y-93836000D01*
X165868779Y-93837144D01*
G37*
G36*
X165868779Y-95587144D02*
G01*
X165891834Y-95590563D01*
X165914443Y-95596227D01*
X165936387Y-95604079D01*
X165957457Y-95614044D01*
X165977448Y-95626026D01*
X165996168Y-95639910D01*
X166013438Y-95655562D01*
X166029090Y-95672832D01*
X166042974Y-95691552D01*
X166054956Y-95711543D01*
X166064921Y-95732613D01*
X166072773Y-95754557D01*
X166078437Y-95777166D01*
X166081856Y-95800221D01*
X166083000Y-95823500D01*
X166083000Y-96398500D01*
X166081856Y-96421779D01*
X166078437Y-96444834D01*
X166072773Y-96467443D01*
X166064921Y-96489387D01*
X166054956Y-96510457D01*
X166042974Y-96530448D01*
X166029090Y-96549168D01*
X166013438Y-96566438D01*
X165996168Y-96582090D01*
X165977448Y-96595974D01*
X165957457Y-96607956D01*
X165936387Y-96617921D01*
X165914443Y-96625773D01*
X165891834Y-96631437D01*
X165868779Y-96634856D01*
X165845500Y-96636000D01*
X165370500Y-96636000D01*
X165347221Y-96634856D01*
X165324166Y-96631437D01*
X165301557Y-96625773D01*
X165279613Y-96617921D01*
X165258543Y-96607956D01*
X165238552Y-96595974D01*
X165219832Y-96582090D01*
X165202562Y-96566438D01*
X165186910Y-96549168D01*
X165173026Y-96530448D01*
X165161044Y-96510457D01*
X165151079Y-96489387D01*
X165143227Y-96467443D01*
X165137563Y-96444834D01*
X165134144Y-96421779D01*
X165133000Y-96398500D01*
X165133000Y-95823500D01*
X165134144Y-95800221D01*
X165137563Y-95777166D01*
X165143227Y-95754557D01*
X165151079Y-95732613D01*
X165161044Y-95711543D01*
X165173026Y-95691552D01*
X165186910Y-95672832D01*
X165202562Y-95655562D01*
X165219832Y-95639910D01*
X165238552Y-95626026D01*
X165258543Y-95614044D01*
X165279613Y-95604079D01*
X165301557Y-95596227D01*
X165324166Y-95590563D01*
X165347221Y-95587144D01*
X165370500Y-95586000D01*
X165845500Y-95586000D01*
X165868779Y-95587144D01*
G37*
G36*
X162236579Y-107056544D02*
G01*
X162259634Y-107059963D01*
X162282243Y-107065627D01*
X162304187Y-107073479D01*
X162325257Y-107083444D01*
X162345248Y-107095426D01*
X162363968Y-107109310D01*
X162381238Y-107124962D01*
X162396890Y-107142232D01*
X162410774Y-107160952D01*
X162422756Y-107180943D01*
X162432721Y-107202013D01*
X162440573Y-107223957D01*
X162446237Y-107246566D01*
X162449656Y-107269621D01*
X162450800Y-107292900D01*
X162450800Y-107867900D01*
X162449656Y-107891179D01*
X162446237Y-107914234D01*
X162440573Y-107936843D01*
X162432721Y-107958787D01*
X162422756Y-107979857D01*
X162410774Y-107999848D01*
X162396890Y-108018568D01*
X162381238Y-108035838D01*
X162363968Y-108051490D01*
X162345248Y-108065374D01*
X162325257Y-108077356D01*
X162304187Y-108087321D01*
X162282243Y-108095173D01*
X162259634Y-108100837D01*
X162236579Y-108104256D01*
X162213300Y-108105400D01*
X161738300Y-108105400D01*
X161715021Y-108104256D01*
X161691966Y-108100837D01*
X161669357Y-108095173D01*
X161647413Y-108087321D01*
X161626343Y-108077356D01*
X161606352Y-108065374D01*
X161587632Y-108051490D01*
X161570362Y-108035838D01*
X161554710Y-108018568D01*
X161540826Y-107999848D01*
X161528844Y-107979857D01*
X161518879Y-107958787D01*
X161511027Y-107936843D01*
X161505363Y-107914234D01*
X161501944Y-107891179D01*
X161500800Y-107867900D01*
X161500800Y-107292900D01*
X161501944Y-107269621D01*
X161505363Y-107246566D01*
X161511027Y-107223957D01*
X161518879Y-107202013D01*
X161528844Y-107180943D01*
X161540826Y-107160952D01*
X161554710Y-107142232D01*
X161570362Y-107124962D01*
X161587632Y-107109310D01*
X161606352Y-107095426D01*
X161626343Y-107083444D01*
X161647413Y-107073479D01*
X161669357Y-107065627D01*
X161691966Y-107059963D01*
X161715021Y-107056544D01*
X161738300Y-107055400D01*
X162213300Y-107055400D01*
X162236579Y-107056544D01*
G37*
G36*
X162236579Y-105306544D02*
G01*
X162259634Y-105309963D01*
X162282243Y-105315627D01*
X162304187Y-105323479D01*
X162325257Y-105333444D01*
X162345248Y-105345426D01*
X162363968Y-105359310D01*
X162381238Y-105374962D01*
X162396890Y-105392232D01*
X162410774Y-105410952D01*
X162422756Y-105430943D01*
X162432721Y-105452013D01*
X162440573Y-105473957D01*
X162446237Y-105496566D01*
X162449656Y-105519621D01*
X162450800Y-105542900D01*
X162450800Y-106117900D01*
X162449656Y-106141179D01*
X162446237Y-106164234D01*
X162440573Y-106186843D01*
X162432721Y-106208787D01*
X162422756Y-106229857D01*
X162410774Y-106249848D01*
X162396890Y-106268568D01*
X162381238Y-106285838D01*
X162363968Y-106301490D01*
X162345248Y-106315374D01*
X162325257Y-106327356D01*
X162304187Y-106337321D01*
X162282243Y-106345173D01*
X162259634Y-106350837D01*
X162236579Y-106354256D01*
X162213300Y-106355400D01*
X161738300Y-106355400D01*
X161715021Y-106354256D01*
X161691966Y-106350837D01*
X161669357Y-106345173D01*
X161647413Y-106337321D01*
X161626343Y-106327356D01*
X161606352Y-106315374D01*
X161587632Y-106301490D01*
X161570362Y-106285838D01*
X161554710Y-106268568D01*
X161540826Y-106249848D01*
X161528844Y-106229857D01*
X161518879Y-106208787D01*
X161511027Y-106186843D01*
X161505363Y-106164234D01*
X161501944Y-106141179D01*
X161500800Y-106117900D01*
X161500800Y-105542900D01*
X161501944Y-105519621D01*
X161505363Y-105496566D01*
X161511027Y-105473957D01*
X161518879Y-105452013D01*
X161528844Y-105430943D01*
X161540826Y-105410952D01*
X161554710Y-105392232D01*
X161570362Y-105374962D01*
X161587632Y-105359310D01*
X161606352Y-105345426D01*
X161626343Y-105333444D01*
X161647413Y-105323479D01*
X161669357Y-105315627D01*
X161691966Y-105309963D01*
X161715021Y-105306544D01*
X161738300Y-105305400D01*
X162213300Y-105305400D01*
X162236579Y-105306544D01*
G37*
G36*
X163150979Y-89606744D02*
G01*
X163174034Y-89610163D01*
X163196643Y-89615827D01*
X163218587Y-89623679D01*
X163239657Y-89633644D01*
X163259648Y-89645626D01*
X163278368Y-89659510D01*
X163295638Y-89675162D01*
X163311290Y-89692432D01*
X163325174Y-89711152D01*
X163337156Y-89731143D01*
X163347121Y-89752213D01*
X163354973Y-89774157D01*
X163360637Y-89796766D01*
X163364056Y-89819821D01*
X163365200Y-89843100D01*
X163365200Y-90418100D01*
X163364056Y-90441379D01*
X163360637Y-90464434D01*
X163354973Y-90487043D01*
X163347121Y-90508987D01*
X163337156Y-90530057D01*
X163325174Y-90550048D01*
X163311290Y-90568768D01*
X163295638Y-90586038D01*
X163278368Y-90601690D01*
X163259648Y-90615574D01*
X163239657Y-90627556D01*
X163218587Y-90637521D01*
X163196643Y-90645373D01*
X163174034Y-90651037D01*
X163150979Y-90654456D01*
X163127700Y-90655600D01*
X162652700Y-90655600D01*
X162629421Y-90654456D01*
X162606366Y-90651037D01*
X162583757Y-90645373D01*
X162561813Y-90637521D01*
X162540743Y-90627556D01*
X162520752Y-90615574D01*
X162502032Y-90601690D01*
X162484762Y-90586038D01*
X162469110Y-90568768D01*
X162455226Y-90550048D01*
X162443244Y-90530057D01*
X162433279Y-90508987D01*
X162425427Y-90487043D01*
X162419763Y-90464434D01*
X162416344Y-90441379D01*
X162415200Y-90418100D01*
X162415200Y-89843100D01*
X162416344Y-89819821D01*
X162419763Y-89796766D01*
X162425427Y-89774157D01*
X162433279Y-89752213D01*
X162443244Y-89731143D01*
X162455226Y-89711152D01*
X162469110Y-89692432D01*
X162484762Y-89675162D01*
X162502032Y-89659510D01*
X162520752Y-89645626D01*
X162540743Y-89633644D01*
X162561813Y-89623679D01*
X162583757Y-89615827D01*
X162606366Y-89610163D01*
X162629421Y-89606744D01*
X162652700Y-89605600D01*
X163127700Y-89605600D01*
X163150979Y-89606744D01*
G37*
G36*
X163150979Y-87856744D02*
G01*
X163174034Y-87860163D01*
X163196643Y-87865827D01*
X163218587Y-87873679D01*
X163239657Y-87883644D01*
X163259648Y-87895626D01*
X163278368Y-87909510D01*
X163295638Y-87925162D01*
X163311290Y-87942432D01*
X163325174Y-87961152D01*
X163337156Y-87981143D01*
X163347121Y-88002213D01*
X163354973Y-88024157D01*
X163360637Y-88046766D01*
X163364056Y-88069821D01*
X163365200Y-88093100D01*
X163365200Y-88668100D01*
X163364056Y-88691379D01*
X163360637Y-88714434D01*
X163354973Y-88737043D01*
X163347121Y-88758987D01*
X163337156Y-88780057D01*
X163325174Y-88800048D01*
X163311290Y-88818768D01*
X163295638Y-88836038D01*
X163278368Y-88851690D01*
X163259648Y-88865574D01*
X163239657Y-88877556D01*
X163218587Y-88887521D01*
X163196643Y-88895373D01*
X163174034Y-88901037D01*
X163150979Y-88904456D01*
X163127700Y-88905600D01*
X162652700Y-88905600D01*
X162629421Y-88904456D01*
X162606366Y-88901037D01*
X162583757Y-88895373D01*
X162561813Y-88887521D01*
X162540743Y-88877556D01*
X162520752Y-88865574D01*
X162502032Y-88851690D01*
X162484762Y-88836038D01*
X162469110Y-88818768D01*
X162455226Y-88800048D01*
X162443244Y-88780057D01*
X162433279Y-88758987D01*
X162425427Y-88737043D01*
X162419763Y-88714434D01*
X162416344Y-88691379D01*
X162415200Y-88668100D01*
X162415200Y-88093100D01*
X162416344Y-88069821D01*
X162419763Y-88046766D01*
X162425427Y-88024157D01*
X162433279Y-88002213D01*
X162443244Y-87981143D01*
X162455226Y-87961152D01*
X162469110Y-87942432D01*
X162484762Y-87925162D01*
X162502032Y-87909510D01*
X162520752Y-87895626D01*
X162540743Y-87883644D01*
X162561813Y-87873679D01*
X162583757Y-87865827D01*
X162606366Y-87860163D01*
X162629421Y-87856744D01*
X162652700Y-87855600D01*
X163127700Y-87855600D01*
X163150979Y-87856744D01*
G37*
G36*
X156419979Y-89606744D02*
G01*
X156443034Y-89610163D01*
X156465643Y-89615827D01*
X156487587Y-89623679D01*
X156508657Y-89633644D01*
X156528648Y-89645626D01*
X156547368Y-89659510D01*
X156564638Y-89675162D01*
X156580290Y-89692432D01*
X156594174Y-89711152D01*
X156606156Y-89731143D01*
X156616121Y-89752213D01*
X156623973Y-89774157D01*
X156629637Y-89796766D01*
X156633056Y-89819821D01*
X156634200Y-89843100D01*
X156634200Y-90418100D01*
X156633056Y-90441379D01*
X156629637Y-90464434D01*
X156623973Y-90487043D01*
X156616121Y-90508987D01*
X156606156Y-90530057D01*
X156594174Y-90550048D01*
X156580290Y-90568768D01*
X156564638Y-90586038D01*
X156547368Y-90601690D01*
X156528648Y-90615574D01*
X156508657Y-90627556D01*
X156487587Y-90637521D01*
X156465643Y-90645373D01*
X156443034Y-90651037D01*
X156419979Y-90654456D01*
X156396700Y-90655600D01*
X155921700Y-90655600D01*
X155898421Y-90654456D01*
X155875366Y-90651037D01*
X155852757Y-90645373D01*
X155830813Y-90637521D01*
X155809743Y-90627556D01*
X155789752Y-90615574D01*
X155771032Y-90601690D01*
X155753762Y-90586038D01*
X155738110Y-90568768D01*
X155724226Y-90550048D01*
X155712244Y-90530057D01*
X155702279Y-90508987D01*
X155694427Y-90487043D01*
X155688763Y-90464434D01*
X155685344Y-90441379D01*
X155684200Y-90418100D01*
X155684200Y-89843100D01*
X155685344Y-89819821D01*
X155688763Y-89796766D01*
X155694427Y-89774157D01*
X155702279Y-89752213D01*
X155712244Y-89731143D01*
X155724226Y-89711152D01*
X155738110Y-89692432D01*
X155753762Y-89675162D01*
X155771032Y-89659510D01*
X155789752Y-89645626D01*
X155809743Y-89633644D01*
X155830813Y-89623679D01*
X155852757Y-89615827D01*
X155875366Y-89610163D01*
X155898421Y-89606744D01*
X155921700Y-89605600D01*
X156396700Y-89605600D01*
X156419979Y-89606744D01*
G37*
G36*
X156419979Y-87856744D02*
G01*
X156443034Y-87860163D01*
X156465643Y-87865827D01*
X156487587Y-87873679D01*
X156508657Y-87883644D01*
X156528648Y-87895626D01*
X156547368Y-87909510D01*
X156564638Y-87925162D01*
X156580290Y-87942432D01*
X156594174Y-87961152D01*
X156606156Y-87981143D01*
X156616121Y-88002213D01*
X156623973Y-88024157D01*
X156629637Y-88046766D01*
X156633056Y-88069821D01*
X156634200Y-88093100D01*
X156634200Y-88668100D01*
X156633056Y-88691379D01*
X156629637Y-88714434D01*
X156623973Y-88737043D01*
X156616121Y-88758987D01*
X156606156Y-88780057D01*
X156594174Y-88800048D01*
X156580290Y-88818768D01*
X156564638Y-88836038D01*
X156547368Y-88851690D01*
X156528648Y-88865574D01*
X156508657Y-88877556D01*
X156487587Y-88887521D01*
X156465643Y-88895373D01*
X156443034Y-88901037D01*
X156419979Y-88904456D01*
X156396700Y-88905600D01*
X155921700Y-88905600D01*
X155898421Y-88904456D01*
X155875366Y-88901037D01*
X155852757Y-88895373D01*
X155830813Y-88887521D01*
X155809743Y-88877556D01*
X155789752Y-88865574D01*
X155771032Y-88851690D01*
X155753762Y-88836038D01*
X155738110Y-88818768D01*
X155724226Y-88800048D01*
X155712244Y-88780057D01*
X155702279Y-88758987D01*
X155694427Y-88737043D01*
X155688763Y-88714434D01*
X155685344Y-88691379D01*
X155684200Y-88668100D01*
X155684200Y-88093100D01*
X155685344Y-88069821D01*
X155688763Y-88046766D01*
X155694427Y-88024157D01*
X155702279Y-88002213D01*
X155712244Y-87981143D01*
X155724226Y-87961152D01*
X155738110Y-87942432D01*
X155753762Y-87925162D01*
X155771032Y-87909510D01*
X155789752Y-87895626D01*
X155809743Y-87883644D01*
X155830813Y-87873679D01*
X155852757Y-87865827D01*
X155875366Y-87860163D01*
X155898421Y-87856744D01*
X155921700Y-87855600D01*
X156396700Y-87855600D01*
X156419979Y-87856744D01*
G37*
G36*
X149714379Y-89555944D02*
G01*
X149737434Y-89559363D01*
X149760043Y-89565027D01*
X149781987Y-89572879D01*
X149803057Y-89582844D01*
X149823048Y-89594826D01*
X149841768Y-89608710D01*
X149859038Y-89624362D01*
X149874690Y-89641632D01*
X149888574Y-89660352D01*
X149900556Y-89680343D01*
X149910521Y-89701413D01*
X149918373Y-89723357D01*
X149924037Y-89745966D01*
X149927456Y-89769021D01*
X149928600Y-89792300D01*
X149928600Y-90367300D01*
X149927456Y-90390579D01*
X149924037Y-90413634D01*
X149918373Y-90436243D01*
X149910521Y-90458187D01*
X149900556Y-90479257D01*
X149888574Y-90499248D01*
X149874690Y-90517968D01*
X149859038Y-90535238D01*
X149841768Y-90550890D01*
X149823048Y-90564774D01*
X149803057Y-90576756D01*
X149781987Y-90586721D01*
X149760043Y-90594573D01*
X149737434Y-90600237D01*
X149714379Y-90603656D01*
X149691100Y-90604800D01*
X149216100Y-90604800D01*
X149192821Y-90603656D01*
X149169766Y-90600237D01*
X149147157Y-90594573D01*
X149125213Y-90586721D01*
X149104143Y-90576756D01*
X149084152Y-90564774D01*
X149065432Y-90550890D01*
X149048162Y-90535238D01*
X149032510Y-90517968D01*
X149018626Y-90499248D01*
X149006644Y-90479257D01*
X148996679Y-90458187D01*
X148988827Y-90436243D01*
X148983163Y-90413634D01*
X148979744Y-90390579D01*
X148978600Y-90367300D01*
X148978600Y-89792300D01*
X148979744Y-89769021D01*
X148983163Y-89745966D01*
X148988827Y-89723357D01*
X148996679Y-89701413D01*
X149006644Y-89680343D01*
X149018626Y-89660352D01*
X149032510Y-89641632D01*
X149048162Y-89624362D01*
X149065432Y-89608710D01*
X149084152Y-89594826D01*
X149104143Y-89582844D01*
X149125213Y-89572879D01*
X149147157Y-89565027D01*
X149169766Y-89559363D01*
X149192821Y-89555944D01*
X149216100Y-89554800D01*
X149691100Y-89554800D01*
X149714379Y-89555944D01*
G37*
G36*
X149714379Y-87805944D02*
G01*
X149737434Y-87809363D01*
X149760043Y-87815027D01*
X149781987Y-87822879D01*
X149803057Y-87832844D01*
X149823048Y-87844826D01*
X149841768Y-87858710D01*
X149859038Y-87874362D01*
X149874690Y-87891632D01*
X149888574Y-87910352D01*
X149900556Y-87930343D01*
X149910521Y-87951413D01*
X149918373Y-87973357D01*
X149924037Y-87995966D01*
X149927456Y-88019021D01*
X149928600Y-88042300D01*
X149928600Y-88617300D01*
X149927456Y-88640579D01*
X149924037Y-88663634D01*
X149918373Y-88686243D01*
X149910521Y-88708187D01*
X149900556Y-88729257D01*
X149888574Y-88749248D01*
X149874690Y-88767968D01*
X149859038Y-88785238D01*
X149841768Y-88800890D01*
X149823048Y-88814774D01*
X149803057Y-88826756D01*
X149781987Y-88836721D01*
X149760043Y-88844573D01*
X149737434Y-88850237D01*
X149714379Y-88853656D01*
X149691100Y-88854800D01*
X149216100Y-88854800D01*
X149192821Y-88853656D01*
X149169766Y-88850237D01*
X149147157Y-88844573D01*
X149125213Y-88836721D01*
X149104143Y-88826756D01*
X149084152Y-88814774D01*
X149065432Y-88800890D01*
X149048162Y-88785238D01*
X149032510Y-88767968D01*
X149018626Y-88749248D01*
X149006644Y-88729257D01*
X148996679Y-88708187D01*
X148988827Y-88686243D01*
X148983163Y-88663634D01*
X148979744Y-88640579D01*
X148978600Y-88617300D01*
X148978600Y-88042300D01*
X148979744Y-88019021D01*
X148983163Y-87995966D01*
X148988827Y-87973357D01*
X148996679Y-87951413D01*
X149006644Y-87930343D01*
X149018626Y-87910352D01*
X149032510Y-87891632D01*
X149048162Y-87874362D01*
X149065432Y-87858710D01*
X149084152Y-87844826D01*
X149104143Y-87832844D01*
X149125213Y-87822879D01*
X149147157Y-87815027D01*
X149169766Y-87809363D01*
X149192821Y-87805944D01*
X149216100Y-87804800D01*
X149691100Y-87804800D01*
X149714379Y-87805944D01*
G37*
G36*
X142983379Y-89555944D02*
G01*
X143006434Y-89559363D01*
X143029043Y-89565027D01*
X143050987Y-89572879D01*
X143072057Y-89582844D01*
X143092048Y-89594826D01*
X143110768Y-89608710D01*
X143128038Y-89624362D01*
X143143690Y-89641632D01*
X143157574Y-89660352D01*
X143169556Y-89680343D01*
X143179521Y-89701413D01*
X143187373Y-89723357D01*
X143193037Y-89745966D01*
X143196456Y-89769021D01*
X143197600Y-89792300D01*
X143197600Y-90367300D01*
X143196456Y-90390579D01*
X143193037Y-90413634D01*
X143187373Y-90436243D01*
X143179521Y-90458187D01*
X143169556Y-90479257D01*
X143157574Y-90499248D01*
X143143690Y-90517968D01*
X143128038Y-90535238D01*
X143110768Y-90550890D01*
X143092048Y-90564774D01*
X143072057Y-90576756D01*
X143050987Y-90586721D01*
X143029043Y-90594573D01*
X143006434Y-90600237D01*
X142983379Y-90603656D01*
X142960100Y-90604800D01*
X142485100Y-90604800D01*
X142461821Y-90603656D01*
X142438766Y-90600237D01*
X142416157Y-90594573D01*
X142394213Y-90586721D01*
X142373143Y-90576756D01*
X142353152Y-90564774D01*
X142334432Y-90550890D01*
X142317162Y-90535238D01*
X142301510Y-90517968D01*
X142287626Y-90499248D01*
X142275644Y-90479257D01*
X142265679Y-90458187D01*
X142257827Y-90436243D01*
X142252163Y-90413634D01*
X142248744Y-90390579D01*
X142247600Y-90367300D01*
X142247600Y-89792300D01*
X142248744Y-89769021D01*
X142252163Y-89745966D01*
X142257827Y-89723357D01*
X142265679Y-89701413D01*
X142275644Y-89680343D01*
X142287626Y-89660352D01*
X142301510Y-89641632D01*
X142317162Y-89624362D01*
X142334432Y-89608710D01*
X142353152Y-89594826D01*
X142373143Y-89582844D01*
X142394213Y-89572879D01*
X142416157Y-89565027D01*
X142438766Y-89559363D01*
X142461821Y-89555944D01*
X142485100Y-89554800D01*
X142960100Y-89554800D01*
X142983379Y-89555944D01*
G37*
G36*
X142983379Y-87805944D02*
G01*
X143006434Y-87809363D01*
X143029043Y-87815027D01*
X143050987Y-87822879D01*
X143072057Y-87832844D01*
X143092048Y-87844826D01*
X143110768Y-87858710D01*
X143128038Y-87874362D01*
X143143690Y-87891632D01*
X143157574Y-87910352D01*
X143169556Y-87930343D01*
X143179521Y-87951413D01*
X143187373Y-87973357D01*
X143193037Y-87995966D01*
X143196456Y-88019021D01*
X143197600Y-88042300D01*
X143197600Y-88617300D01*
X143196456Y-88640579D01*
X143193037Y-88663634D01*
X143187373Y-88686243D01*
X143179521Y-88708187D01*
X143169556Y-88729257D01*
X143157574Y-88749248D01*
X143143690Y-88767968D01*
X143128038Y-88785238D01*
X143110768Y-88800890D01*
X143092048Y-88814774D01*
X143072057Y-88826756D01*
X143050987Y-88836721D01*
X143029043Y-88844573D01*
X143006434Y-88850237D01*
X142983379Y-88853656D01*
X142960100Y-88854800D01*
X142485100Y-88854800D01*
X142461821Y-88853656D01*
X142438766Y-88850237D01*
X142416157Y-88844573D01*
X142394213Y-88836721D01*
X142373143Y-88826756D01*
X142353152Y-88814774D01*
X142334432Y-88800890D01*
X142317162Y-88785238D01*
X142301510Y-88767968D01*
X142287626Y-88749248D01*
X142275644Y-88729257D01*
X142265679Y-88708187D01*
X142257827Y-88686243D01*
X142252163Y-88663634D01*
X142248744Y-88640579D01*
X142247600Y-88617300D01*
X142247600Y-88042300D01*
X142248744Y-88019021D01*
X142252163Y-87995966D01*
X142257827Y-87973357D01*
X142265679Y-87951413D01*
X142275644Y-87930343D01*
X142287626Y-87910352D01*
X142301510Y-87891632D01*
X142317162Y-87874362D01*
X142334432Y-87858710D01*
X142353152Y-87844826D01*
X142373143Y-87832844D01*
X142394213Y-87822879D01*
X142416157Y-87815027D01*
X142438766Y-87809363D01*
X142461821Y-87805944D01*
X142485100Y-87804800D01*
X142960100Y-87804800D01*
X142983379Y-87805944D01*
G37*
G36*
X136252379Y-89606744D02*
G01*
X136275434Y-89610163D01*
X136298043Y-89615827D01*
X136319987Y-89623679D01*
X136341057Y-89633644D01*
X136361048Y-89645626D01*
X136379768Y-89659510D01*
X136397038Y-89675162D01*
X136412690Y-89692432D01*
X136426574Y-89711152D01*
X136438556Y-89731143D01*
X136448521Y-89752213D01*
X136456373Y-89774157D01*
X136462037Y-89796766D01*
X136465456Y-89819821D01*
X136466600Y-89843100D01*
X136466600Y-90418100D01*
X136465456Y-90441379D01*
X136462037Y-90464434D01*
X136456373Y-90487043D01*
X136448521Y-90508987D01*
X136438556Y-90530057D01*
X136426574Y-90550048D01*
X136412690Y-90568768D01*
X136397038Y-90586038D01*
X136379768Y-90601690D01*
X136361048Y-90615574D01*
X136341057Y-90627556D01*
X136319987Y-90637521D01*
X136298043Y-90645373D01*
X136275434Y-90651037D01*
X136252379Y-90654456D01*
X136229100Y-90655600D01*
X135754100Y-90655600D01*
X135730821Y-90654456D01*
X135707766Y-90651037D01*
X135685157Y-90645373D01*
X135663213Y-90637521D01*
X135642143Y-90627556D01*
X135622152Y-90615574D01*
X135603432Y-90601690D01*
X135586162Y-90586038D01*
X135570510Y-90568768D01*
X135556626Y-90550048D01*
X135544644Y-90530057D01*
X135534679Y-90508987D01*
X135526827Y-90487043D01*
X135521163Y-90464434D01*
X135517744Y-90441379D01*
X135516600Y-90418100D01*
X135516600Y-89843100D01*
X135517744Y-89819821D01*
X135521163Y-89796766D01*
X135526827Y-89774157D01*
X135534679Y-89752213D01*
X135544644Y-89731143D01*
X135556626Y-89711152D01*
X135570510Y-89692432D01*
X135586162Y-89675162D01*
X135603432Y-89659510D01*
X135622152Y-89645626D01*
X135642143Y-89633644D01*
X135663213Y-89623679D01*
X135685157Y-89615827D01*
X135707766Y-89610163D01*
X135730821Y-89606744D01*
X135754100Y-89605600D01*
X136229100Y-89605600D01*
X136252379Y-89606744D01*
G37*
G36*
X136252379Y-87856744D02*
G01*
X136275434Y-87860163D01*
X136298043Y-87865827D01*
X136319987Y-87873679D01*
X136341057Y-87883644D01*
X136361048Y-87895626D01*
X136379768Y-87909510D01*
X136397038Y-87925162D01*
X136412690Y-87942432D01*
X136426574Y-87961152D01*
X136438556Y-87981143D01*
X136448521Y-88002213D01*
X136456373Y-88024157D01*
X136462037Y-88046766D01*
X136465456Y-88069821D01*
X136466600Y-88093100D01*
X136466600Y-88668100D01*
X136465456Y-88691379D01*
X136462037Y-88714434D01*
X136456373Y-88737043D01*
X136448521Y-88758987D01*
X136438556Y-88780057D01*
X136426574Y-88800048D01*
X136412690Y-88818768D01*
X136397038Y-88836038D01*
X136379768Y-88851690D01*
X136361048Y-88865574D01*
X136341057Y-88877556D01*
X136319987Y-88887521D01*
X136298043Y-88895373D01*
X136275434Y-88901037D01*
X136252379Y-88904456D01*
X136229100Y-88905600D01*
X135754100Y-88905600D01*
X135730821Y-88904456D01*
X135707766Y-88901037D01*
X135685157Y-88895373D01*
X135663213Y-88887521D01*
X135642143Y-88877556D01*
X135622152Y-88865574D01*
X135603432Y-88851690D01*
X135586162Y-88836038D01*
X135570510Y-88818768D01*
X135556626Y-88800048D01*
X135544644Y-88780057D01*
X135534679Y-88758987D01*
X135526827Y-88737043D01*
X135521163Y-88714434D01*
X135517744Y-88691379D01*
X135516600Y-88668100D01*
X135516600Y-88093100D01*
X135517744Y-88069821D01*
X135521163Y-88046766D01*
X135526827Y-88024157D01*
X135534679Y-88002213D01*
X135544644Y-87981143D01*
X135556626Y-87961152D01*
X135570510Y-87942432D01*
X135586162Y-87925162D01*
X135603432Y-87909510D01*
X135622152Y-87895626D01*
X135642143Y-87883644D01*
X135663213Y-87873679D01*
X135685157Y-87865827D01*
X135707766Y-87860163D01*
X135730821Y-87856744D01*
X135754100Y-87855600D01*
X136229100Y-87855600D01*
X136252379Y-87856744D01*
G37*
G36*
X129546779Y-89581344D02*
G01*
X129569834Y-89584763D01*
X129592443Y-89590427D01*
X129614387Y-89598279D01*
X129635457Y-89608244D01*
X129655448Y-89620226D01*
X129674168Y-89634110D01*
X129691438Y-89649762D01*
X129707090Y-89667032D01*
X129720974Y-89685752D01*
X129732956Y-89705743D01*
X129742921Y-89726813D01*
X129750773Y-89748757D01*
X129756437Y-89771366D01*
X129759856Y-89794421D01*
X129761000Y-89817700D01*
X129761000Y-90392700D01*
X129759856Y-90415979D01*
X129756437Y-90439034D01*
X129750773Y-90461643D01*
X129742921Y-90483587D01*
X129732956Y-90504657D01*
X129720974Y-90524648D01*
X129707090Y-90543368D01*
X129691438Y-90560638D01*
X129674168Y-90576290D01*
X129655448Y-90590174D01*
X129635457Y-90602156D01*
X129614387Y-90612121D01*
X129592443Y-90619973D01*
X129569834Y-90625637D01*
X129546779Y-90629056D01*
X129523500Y-90630200D01*
X129048500Y-90630200D01*
X129025221Y-90629056D01*
X129002166Y-90625637D01*
X128979557Y-90619973D01*
X128957613Y-90612121D01*
X128936543Y-90602156D01*
X128916552Y-90590174D01*
X128897832Y-90576290D01*
X128880562Y-90560638D01*
X128864910Y-90543368D01*
X128851026Y-90524648D01*
X128839044Y-90504657D01*
X128829079Y-90483587D01*
X128821227Y-90461643D01*
X128815563Y-90439034D01*
X128812144Y-90415979D01*
X128811000Y-90392700D01*
X128811000Y-89817700D01*
X128812144Y-89794421D01*
X128815563Y-89771366D01*
X128821227Y-89748757D01*
X128829079Y-89726813D01*
X128839044Y-89705743D01*
X128851026Y-89685752D01*
X128864910Y-89667032D01*
X128880562Y-89649762D01*
X128897832Y-89634110D01*
X128916552Y-89620226D01*
X128936543Y-89608244D01*
X128957613Y-89598279D01*
X128979557Y-89590427D01*
X129002166Y-89584763D01*
X129025221Y-89581344D01*
X129048500Y-89580200D01*
X129523500Y-89580200D01*
X129546779Y-89581344D01*
G37*
G36*
X129546779Y-87831344D02*
G01*
X129569834Y-87834763D01*
X129592443Y-87840427D01*
X129614387Y-87848279D01*
X129635457Y-87858244D01*
X129655448Y-87870226D01*
X129674168Y-87884110D01*
X129691438Y-87899762D01*
X129707090Y-87917032D01*
X129720974Y-87935752D01*
X129732956Y-87955743D01*
X129742921Y-87976813D01*
X129750773Y-87998757D01*
X129756437Y-88021366D01*
X129759856Y-88044421D01*
X129761000Y-88067700D01*
X129761000Y-88642700D01*
X129759856Y-88665979D01*
X129756437Y-88689034D01*
X129750773Y-88711643D01*
X129742921Y-88733587D01*
X129732956Y-88754657D01*
X129720974Y-88774648D01*
X129707090Y-88793368D01*
X129691438Y-88810638D01*
X129674168Y-88826290D01*
X129655448Y-88840174D01*
X129635457Y-88852156D01*
X129614387Y-88862121D01*
X129592443Y-88869973D01*
X129569834Y-88875637D01*
X129546779Y-88879056D01*
X129523500Y-88880200D01*
X129048500Y-88880200D01*
X129025221Y-88879056D01*
X129002166Y-88875637D01*
X128979557Y-88869973D01*
X128957613Y-88862121D01*
X128936543Y-88852156D01*
X128916552Y-88840174D01*
X128897832Y-88826290D01*
X128880562Y-88810638D01*
X128864910Y-88793368D01*
X128851026Y-88774648D01*
X128839044Y-88754657D01*
X128829079Y-88733587D01*
X128821227Y-88711643D01*
X128815563Y-88689034D01*
X128812144Y-88665979D01*
X128811000Y-88642700D01*
X128811000Y-88067700D01*
X128812144Y-88044421D01*
X128815563Y-88021366D01*
X128821227Y-87998757D01*
X128829079Y-87976813D01*
X128839044Y-87955743D01*
X128851026Y-87935752D01*
X128864910Y-87917032D01*
X128880562Y-87899762D01*
X128897832Y-87884110D01*
X128916552Y-87870226D01*
X128936543Y-87858244D01*
X128957613Y-87848279D01*
X128979557Y-87840427D01*
X129002166Y-87834763D01*
X129025221Y-87831344D01*
X129048500Y-87830200D01*
X129523500Y-87830200D01*
X129546779Y-87831344D01*
G37*
G36*
X122790379Y-89632144D02*
G01*
X122813434Y-89635563D01*
X122836043Y-89641227D01*
X122857987Y-89649079D01*
X122879057Y-89659044D01*
X122899048Y-89671026D01*
X122917768Y-89684910D01*
X122935038Y-89700562D01*
X122950690Y-89717832D01*
X122964574Y-89736552D01*
X122976556Y-89756543D01*
X122986521Y-89777613D01*
X122994373Y-89799557D01*
X123000037Y-89822166D01*
X123003456Y-89845221D01*
X123004600Y-89868500D01*
X123004600Y-90443500D01*
X123003456Y-90466779D01*
X123000037Y-90489834D01*
X122994373Y-90512443D01*
X122986521Y-90534387D01*
X122976556Y-90555457D01*
X122964574Y-90575448D01*
X122950690Y-90594168D01*
X122935038Y-90611438D01*
X122917768Y-90627090D01*
X122899048Y-90640974D01*
X122879057Y-90652956D01*
X122857987Y-90662921D01*
X122836043Y-90670773D01*
X122813434Y-90676437D01*
X122790379Y-90679856D01*
X122767100Y-90681000D01*
X122292100Y-90681000D01*
X122268821Y-90679856D01*
X122245766Y-90676437D01*
X122223157Y-90670773D01*
X122201213Y-90662921D01*
X122180143Y-90652956D01*
X122160152Y-90640974D01*
X122141432Y-90627090D01*
X122124162Y-90611438D01*
X122108510Y-90594168D01*
X122094626Y-90575448D01*
X122082644Y-90555457D01*
X122072679Y-90534387D01*
X122064827Y-90512443D01*
X122059163Y-90489834D01*
X122055744Y-90466779D01*
X122054600Y-90443500D01*
X122054600Y-89868500D01*
X122055744Y-89845221D01*
X122059163Y-89822166D01*
X122064827Y-89799557D01*
X122072679Y-89777613D01*
X122082644Y-89756543D01*
X122094626Y-89736552D01*
X122108510Y-89717832D01*
X122124162Y-89700562D01*
X122141432Y-89684910D01*
X122160152Y-89671026D01*
X122180143Y-89659044D01*
X122201213Y-89649079D01*
X122223157Y-89641227D01*
X122245766Y-89635563D01*
X122268821Y-89632144D01*
X122292100Y-89631000D01*
X122767100Y-89631000D01*
X122790379Y-89632144D01*
G37*
G36*
X122790379Y-87882144D02*
G01*
X122813434Y-87885563D01*
X122836043Y-87891227D01*
X122857987Y-87899079D01*
X122879057Y-87909044D01*
X122899048Y-87921026D01*
X122917768Y-87934910D01*
X122935038Y-87950562D01*
X122950690Y-87967832D01*
X122964574Y-87986552D01*
X122976556Y-88006543D01*
X122986521Y-88027613D01*
X122994373Y-88049557D01*
X123000037Y-88072166D01*
X123003456Y-88095221D01*
X123004600Y-88118500D01*
X123004600Y-88693500D01*
X123003456Y-88716779D01*
X123000037Y-88739834D01*
X122994373Y-88762443D01*
X122986521Y-88784387D01*
X122976556Y-88805457D01*
X122964574Y-88825448D01*
X122950690Y-88844168D01*
X122935038Y-88861438D01*
X122917768Y-88877090D01*
X122899048Y-88890974D01*
X122879057Y-88902956D01*
X122857987Y-88912921D01*
X122836043Y-88920773D01*
X122813434Y-88926437D01*
X122790379Y-88929856D01*
X122767100Y-88931000D01*
X122292100Y-88931000D01*
X122268821Y-88929856D01*
X122245766Y-88926437D01*
X122223157Y-88920773D01*
X122201213Y-88912921D01*
X122180143Y-88902956D01*
X122160152Y-88890974D01*
X122141432Y-88877090D01*
X122124162Y-88861438D01*
X122108510Y-88844168D01*
X122094626Y-88825448D01*
X122082644Y-88805457D01*
X122072679Y-88784387D01*
X122064827Y-88762443D01*
X122059163Y-88739834D01*
X122055744Y-88716779D01*
X122054600Y-88693500D01*
X122054600Y-88118500D01*
X122055744Y-88095221D01*
X122059163Y-88072166D01*
X122064827Y-88049557D01*
X122072679Y-88027613D01*
X122082644Y-88006543D01*
X122094626Y-87986552D01*
X122108510Y-87967832D01*
X122124162Y-87950562D01*
X122141432Y-87934910D01*
X122160152Y-87921026D01*
X122180143Y-87909044D01*
X122201213Y-87899079D01*
X122223157Y-87891227D01*
X122245766Y-87885563D01*
X122268821Y-87882144D01*
X122292100Y-87881000D01*
X122767100Y-87881000D01*
X122790379Y-87882144D01*
G37*
G36*
X116033979Y-89657544D02*
G01*
X116057034Y-89660963D01*
X116079643Y-89666627D01*
X116101587Y-89674479D01*
X116122657Y-89684444D01*
X116142648Y-89696426D01*
X116161368Y-89710310D01*
X116178638Y-89725962D01*
X116194290Y-89743232D01*
X116208174Y-89761952D01*
X116220156Y-89781943D01*
X116230121Y-89803013D01*
X116237973Y-89824957D01*
X116243637Y-89847566D01*
X116247056Y-89870621D01*
X116248200Y-89893900D01*
X116248200Y-90468900D01*
X116247056Y-90492179D01*
X116243637Y-90515234D01*
X116237973Y-90537843D01*
X116230121Y-90559787D01*
X116220156Y-90580857D01*
X116208174Y-90600848D01*
X116194290Y-90619568D01*
X116178638Y-90636838D01*
X116161368Y-90652490D01*
X116142648Y-90666374D01*
X116122657Y-90678356D01*
X116101587Y-90688321D01*
X116079643Y-90696173D01*
X116057034Y-90701837D01*
X116033979Y-90705256D01*
X116010700Y-90706400D01*
X115535700Y-90706400D01*
X115512421Y-90705256D01*
X115489366Y-90701837D01*
X115466757Y-90696173D01*
X115444813Y-90688321D01*
X115423743Y-90678356D01*
X115403752Y-90666374D01*
X115385032Y-90652490D01*
X115367762Y-90636838D01*
X115352110Y-90619568D01*
X115338226Y-90600848D01*
X115326244Y-90580857D01*
X115316279Y-90559787D01*
X115308427Y-90537843D01*
X115302763Y-90515234D01*
X115299344Y-90492179D01*
X115298200Y-90468900D01*
X115298200Y-89893900D01*
X115299344Y-89870621D01*
X115302763Y-89847566D01*
X115308427Y-89824957D01*
X115316279Y-89803013D01*
X115326244Y-89781943D01*
X115338226Y-89761952D01*
X115352110Y-89743232D01*
X115367762Y-89725962D01*
X115385032Y-89710310D01*
X115403752Y-89696426D01*
X115423743Y-89684444D01*
X115444813Y-89674479D01*
X115466757Y-89666627D01*
X115489366Y-89660963D01*
X115512421Y-89657544D01*
X115535700Y-89656400D01*
X116010700Y-89656400D01*
X116033979Y-89657544D01*
G37*
G36*
X116033979Y-87907544D02*
G01*
X116057034Y-87910963D01*
X116079643Y-87916627D01*
X116101587Y-87924479D01*
X116122657Y-87934444D01*
X116142648Y-87946426D01*
X116161368Y-87960310D01*
X116178638Y-87975962D01*
X116194290Y-87993232D01*
X116208174Y-88011952D01*
X116220156Y-88031943D01*
X116230121Y-88053013D01*
X116237973Y-88074957D01*
X116243637Y-88097566D01*
X116247056Y-88120621D01*
X116248200Y-88143900D01*
X116248200Y-88718900D01*
X116247056Y-88742179D01*
X116243637Y-88765234D01*
X116237973Y-88787843D01*
X116230121Y-88809787D01*
X116220156Y-88830857D01*
X116208174Y-88850848D01*
X116194290Y-88869568D01*
X116178638Y-88886838D01*
X116161368Y-88902490D01*
X116142648Y-88916374D01*
X116122657Y-88928356D01*
X116101587Y-88938321D01*
X116079643Y-88946173D01*
X116057034Y-88951837D01*
X116033979Y-88955256D01*
X116010700Y-88956400D01*
X115535700Y-88956400D01*
X115512421Y-88955256D01*
X115489366Y-88951837D01*
X115466757Y-88946173D01*
X115444813Y-88938321D01*
X115423743Y-88928356D01*
X115403752Y-88916374D01*
X115385032Y-88902490D01*
X115367762Y-88886838D01*
X115352110Y-88869568D01*
X115338226Y-88850848D01*
X115326244Y-88830857D01*
X115316279Y-88809787D01*
X115308427Y-88787843D01*
X115302763Y-88765234D01*
X115299344Y-88742179D01*
X115298200Y-88718900D01*
X115298200Y-88143900D01*
X115299344Y-88120621D01*
X115302763Y-88097566D01*
X115308427Y-88074957D01*
X115316279Y-88053013D01*
X115326244Y-88031943D01*
X115338226Y-88011952D01*
X115352110Y-87993232D01*
X115367762Y-87975962D01*
X115385032Y-87960310D01*
X115403752Y-87946426D01*
X115423743Y-87934444D01*
X115444813Y-87924479D01*
X115466757Y-87916627D01*
X115489366Y-87910963D01*
X115512421Y-87907544D01*
X115535700Y-87906400D01*
X116010700Y-87906400D01*
X116033979Y-87907544D01*
G37*
G36*
X165868779Y-99131744D02*
G01*
X165891834Y-99135163D01*
X165914443Y-99140827D01*
X165936387Y-99148679D01*
X165957457Y-99158644D01*
X165977448Y-99170626D01*
X165996168Y-99184510D01*
X166013438Y-99200162D01*
X166029090Y-99217432D01*
X166042974Y-99236152D01*
X166054956Y-99256143D01*
X166064921Y-99277213D01*
X166072773Y-99299157D01*
X166078437Y-99321766D01*
X166081856Y-99344821D01*
X166083000Y-99368100D01*
X166083000Y-99943100D01*
X166081856Y-99966379D01*
X166078437Y-99989434D01*
X166072773Y-100012043D01*
X166064921Y-100033987D01*
X166054956Y-100055057D01*
X166042974Y-100075048D01*
X166029090Y-100093768D01*
X166013438Y-100111038D01*
X165996168Y-100126690D01*
X165977448Y-100140574D01*
X165957457Y-100152556D01*
X165936387Y-100162521D01*
X165914443Y-100170373D01*
X165891834Y-100176037D01*
X165868779Y-100179456D01*
X165845500Y-100180600D01*
X165370500Y-100180600D01*
X165347221Y-100179456D01*
X165324166Y-100176037D01*
X165301557Y-100170373D01*
X165279613Y-100162521D01*
X165258543Y-100152556D01*
X165238552Y-100140574D01*
X165219832Y-100126690D01*
X165202562Y-100111038D01*
X165186910Y-100093768D01*
X165173026Y-100075048D01*
X165161044Y-100055057D01*
X165151079Y-100033987D01*
X165143227Y-100012043D01*
X165137563Y-99989434D01*
X165134144Y-99966379D01*
X165133000Y-99943100D01*
X165133000Y-99368100D01*
X165134144Y-99344821D01*
X165137563Y-99321766D01*
X165143227Y-99299157D01*
X165151079Y-99277213D01*
X165161044Y-99256143D01*
X165173026Y-99236152D01*
X165186910Y-99217432D01*
X165202562Y-99200162D01*
X165219832Y-99184510D01*
X165238552Y-99170626D01*
X165258543Y-99158644D01*
X165279613Y-99148679D01*
X165301557Y-99140827D01*
X165324166Y-99135163D01*
X165347221Y-99131744D01*
X165370500Y-99130600D01*
X165845500Y-99130600D01*
X165868779Y-99131744D01*
G37*
G36*
X165868779Y-97381744D02*
G01*
X165891834Y-97385163D01*
X165914443Y-97390827D01*
X165936387Y-97398679D01*
X165957457Y-97408644D01*
X165977448Y-97420626D01*
X165996168Y-97434510D01*
X166013438Y-97450162D01*
X166029090Y-97467432D01*
X166042974Y-97486152D01*
X166054956Y-97506143D01*
X166064921Y-97527213D01*
X166072773Y-97549157D01*
X166078437Y-97571766D01*
X166081856Y-97594821D01*
X166083000Y-97618100D01*
X166083000Y-98193100D01*
X166081856Y-98216379D01*
X166078437Y-98239434D01*
X166072773Y-98262043D01*
X166064921Y-98283987D01*
X166054956Y-98305057D01*
X166042974Y-98325048D01*
X166029090Y-98343768D01*
X166013438Y-98361038D01*
X165996168Y-98376690D01*
X165977448Y-98390574D01*
X165957457Y-98402556D01*
X165936387Y-98412521D01*
X165914443Y-98420373D01*
X165891834Y-98426037D01*
X165868779Y-98429456D01*
X165845500Y-98430600D01*
X165370500Y-98430600D01*
X165347221Y-98429456D01*
X165324166Y-98426037D01*
X165301557Y-98420373D01*
X165279613Y-98412521D01*
X165258543Y-98402556D01*
X165238552Y-98390574D01*
X165219832Y-98376690D01*
X165202562Y-98361038D01*
X165186910Y-98343768D01*
X165173026Y-98325048D01*
X165161044Y-98305057D01*
X165151079Y-98283987D01*
X165143227Y-98262043D01*
X165137563Y-98239434D01*
X165134144Y-98216379D01*
X165133000Y-98193100D01*
X165133000Y-97618100D01*
X165134144Y-97594821D01*
X165137563Y-97571766D01*
X165143227Y-97549157D01*
X165151079Y-97527213D01*
X165161044Y-97506143D01*
X165173026Y-97486152D01*
X165186910Y-97467432D01*
X165202562Y-97450162D01*
X165219832Y-97434510D01*
X165238552Y-97420626D01*
X165258543Y-97408644D01*
X165279613Y-97398679D01*
X165301557Y-97390827D01*
X165324166Y-97385163D01*
X165347221Y-97381744D01*
X165370500Y-97380600D01*
X165845500Y-97380600D01*
X165868779Y-97381744D01*
G37*
G36*
X161411579Y-103437544D02*
G01*
X161434634Y-103440963D01*
X161457243Y-103446627D01*
X161479187Y-103454479D01*
X161500257Y-103464444D01*
X161520248Y-103476426D01*
X161538968Y-103490310D01*
X161556238Y-103505962D01*
X161571890Y-103523232D01*
X161585774Y-103541952D01*
X161597756Y-103561943D01*
X161607721Y-103583013D01*
X161615573Y-103604957D01*
X161621237Y-103627566D01*
X161624656Y-103650621D01*
X161625800Y-103673900D01*
X161625800Y-104148900D01*
X161624656Y-104172179D01*
X161621237Y-104195234D01*
X161615573Y-104217843D01*
X161607721Y-104239787D01*
X161597756Y-104260857D01*
X161585774Y-104280848D01*
X161571890Y-104299568D01*
X161556238Y-104316838D01*
X161538968Y-104332490D01*
X161520248Y-104346374D01*
X161500257Y-104358356D01*
X161479187Y-104368321D01*
X161457243Y-104376173D01*
X161434634Y-104381837D01*
X161411579Y-104385256D01*
X161388300Y-104386400D01*
X160813300Y-104386400D01*
X160790021Y-104385256D01*
X160766966Y-104381837D01*
X160744357Y-104376173D01*
X160722413Y-104368321D01*
X160701343Y-104358356D01*
X160681352Y-104346374D01*
X160662632Y-104332490D01*
X160645362Y-104316838D01*
X160629710Y-104299568D01*
X160615826Y-104280848D01*
X160603844Y-104260857D01*
X160593879Y-104239787D01*
X160586027Y-104217843D01*
X160580363Y-104195234D01*
X160576944Y-104172179D01*
X160575800Y-104148900D01*
X160575800Y-103673900D01*
X160576944Y-103650621D01*
X160580363Y-103627566D01*
X160586027Y-103604957D01*
X160593879Y-103583013D01*
X160603844Y-103561943D01*
X160615826Y-103541952D01*
X160629710Y-103523232D01*
X160645362Y-103505962D01*
X160662632Y-103490310D01*
X160681352Y-103476426D01*
X160701343Y-103464444D01*
X160722413Y-103454479D01*
X160744357Y-103446627D01*
X160766966Y-103440963D01*
X160790021Y-103437544D01*
X160813300Y-103436400D01*
X161388300Y-103436400D01*
X161411579Y-103437544D01*
G37*
G36*
X163161579Y-103437544D02*
G01*
X163184634Y-103440963D01*
X163207243Y-103446627D01*
X163229187Y-103454479D01*
X163250257Y-103464444D01*
X163270248Y-103476426D01*
X163288968Y-103490310D01*
X163306238Y-103505962D01*
X163321890Y-103523232D01*
X163335774Y-103541952D01*
X163347756Y-103561943D01*
X163357721Y-103583013D01*
X163365573Y-103604957D01*
X163371237Y-103627566D01*
X163374656Y-103650621D01*
X163375800Y-103673900D01*
X163375800Y-104148900D01*
X163374656Y-104172179D01*
X163371237Y-104195234D01*
X163365573Y-104217843D01*
X163357721Y-104239787D01*
X163347756Y-104260857D01*
X163335774Y-104280848D01*
X163321890Y-104299568D01*
X163306238Y-104316838D01*
X163288968Y-104332490D01*
X163270248Y-104346374D01*
X163250257Y-104358356D01*
X163229187Y-104368321D01*
X163207243Y-104376173D01*
X163184634Y-104381837D01*
X163161579Y-104385256D01*
X163138300Y-104386400D01*
X162563300Y-104386400D01*
X162540021Y-104385256D01*
X162516966Y-104381837D01*
X162494357Y-104376173D01*
X162472413Y-104368321D01*
X162451343Y-104358356D01*
X162431352Y-104346374D01*
X162412632Y-104332490D01*
X162395362Y-104316838D01*
X162379710Y-104299568D01*
X162365826Y-104280848D01*
X162353844Y-104260857D01*
X162343879Y-104239787D01*
X162336027Y-104217843D01*
X162330363Y-104195234D01*
X162326944Y-104172179D01*
X162325800Y-104148900D01*
X162325800Y-103673900D01*
X162326944Y-103650621D01*
X162330363Y-103627566D01*
X162336027Y-103604957D01*
X162343879Y-103583013D01*
X162353844Y-103561943D01*
X162365826Y-103541952D01*
X162379710Y-103523232D01*
X162395362Y-103505962D01*
X162412632Y-103490310D01*
X162431352Y-103476426D01*
X162451343Y-103464444D01*
X162472413Y-103454479D01*
X162494357Y-103446627D01*
X162516966Y-103440963D01*
X162540021Y-103437544D01*
X162563300Y-103436400D01*
X163138300Y-103436400D01*
X163161579Y-103437544D01*
G37*
G36*
X159620379Y-89581344D02*
G01*
X159643434Y-89584763D01*
X159666043Y-89590427D01*
X159687987Y-89598279D01*
X159709057Y-89608244D01*
X159729048Y-89620226D01*
X159747768Y-89634110D01*
X159765038Y-89649762D01*
X159780690Y-89667032D01*
X159794574Y-89685752D01*
X159806556Y-89705743D01*
X159816521Y-89726813D01*
X159824373Y-89748757D01*
X159830037Y-89771366D01*
X159833456Y-89794421D01*
X159834600Y-89817700D01*
X159834600Y-90392700D01*
X159833456Y-90415979D01*
X159830037Y-90439034D01*
X159824373Y-90461643D01*
X159816521Y-90483587D01*
X159806556Y-90504657D01*
X159794574Y-90524648D01*
X159780690Y-90543368D01*
X159765038Y-90560638D01*
X159747768Y-90576290D01*
X159729048Y-90590174D01*
X159709057Y-90602156D01*
X159687987Y-90612121D01*
X159666043Y-90619973D01*
X159643434Y-90625637D01*
X159620379Y-90629056D01*
X159597100Y-90630200D01*
X159122100Y-90630200D01*
X159098821Y-90629056D01*
X159075766Y-90625637D01*
X159053157Y-90619973D01*
X159031213Y-90612121D01*
X159010143Y-90602156D01*
X158990152Y-90590174D01*
X158971432Y-90576290D01*
X158954162Y-90560638D01*
X158938510Y-90543368D01*
X158924626Y-90524648D01*
X158912644Y-90504657D01*
X158902679Y-90483587D01*
X158894827Y-90461643D01*
X158889163Y-90439034D01*
X158885744Y-90415979D01*
X158884600Y-90392700D01*
X158884600Y-89817700D01*
X158885744Y-89794421D01*
X158889163Y-89771366D01*
X158894827Y-89748757D01*
X158902679Y-89726813D01*
X158912644Y-89705743D01*
X158924626Y-89685752D01*
X158938510Y-89667032D01*
X158954162Y-89649762D01*
X158971432Y-89634110D01*
X158990152Y-89620226D01*
X159010143Y-89608244D01*
X159031213Y-89598279D01*
X159053157Y-89590427D01*
X159075766Y-89584763D01*
X159098821Y-89581344D01*
X159122100Y-89580200D01*
X159597100Y-89580200D01*
X159620379Y-89581344D01*
G37*
G36*
X159620379Y-87831344D02*
G01*
X159643434Y-87834763D01*
X159666043Y-87840427D01*
X159687987Y-87848279D01*
X159709057Y-87858244D01*
X159729048Y-87870226D01*
X159747768Y-87884110D01*
X159765038Y-87899762D01*
X159780690Y-87917032D01*
X159794574Y-87935752D01*
X159806556Y-87955743D01*
X159816521Y-87976813D01*
X159824373Y-87998757D01*
X159830037Y-88021366D01*
X159833456Y-88044421D01*
X159834600Y-88067700D01*
X159834600Y-88642700D01*
X159833456Y-88665979D01*
X159830037Y-88689034D01*
X159824373Y-88711643D01*
X159816521Y-88733587D01*
X159806556Y-88754657D01*
X159794574Y-88774648D01*
X159780690Y-88793368D01*
X159765038Y-88810638D01*
X159747768Y-88826290D01*
X159729048Y-88840174D01*
X159709057Y-88852156D01*
X159687987Y-88862121D01*
X159666043Y-88869973D01*
X159643434Y-88875637D01*
X159620379Y-88879056D01*
X159597100Y-88880200D01*
X159122100Y-88880200D01*
X159098821Y-88879056D01*
X159075766Y-88875637D01*
X159053157Y-88869973D01*
X159031213Y-88862121D01*
X159010143Y-88852156D01*
X158990152Y-88840174D01*
X158971432Y-88826290D01*
X158954162Y-88810638D01*
X158938510Y-88793368D01*
X158924626Y-88774648D01*
X158912644Y-88754657D01*
X158902679Y-88733587D01*
X158894827Y-88711643D01*
X158889163Y-88689034D01*
X158885744Y-88665979D01*
X158884600Y-88642700D01*
X158884600Y-88067700D01*
X158885744Y-88044421D01*
X158889163Y-88021366D01*
X158894827Y-87998757D01*
X158902679Y-87976813D01*
X158912644Y-87955743D01*
X158924626Y-87935752D01*
X158938510Y-87917032D01*
X158954162Y-87899762D01*
X158971432Y-87884110D01*
X158990152Y-87870226D01*
X159010143Y-87858244D01*
X159031213Y-87848279D01*
X159053157Y-87840427D01*
X159075766Y-87834763D01*
X159098821Y-87831344D01*
X159122100Y-87830200D01*
X159597100Y-87830200D01*
X159620379Y-87831344D01*
G37*
G36*
X152914779Y-89555944D02*
G01*
X152937834Y-89559363D01*
X152960443Y-89565027D01*
X152982387Y-89572879D01*
X153003457Y-89582844D01*
X153023448Y-89594826D01*
X153042168Y-89608710D01*
X153059438Y-89624362D01*
X153075090Y-89641632D01*
X153088974Y-89660352D01*
X153100956Y-89680343D01*
X153110921Y-89701413D01*
X153118773Y-89723357D01*
X153124437Y-89745966D01*
X153127856Y-89769021D01*
X153129000Y-89792300D01*
X153129000Y-90367300D01*
X153127856Y-90390579D01*
X153124437Y-90413634D01*
X153118773Y-90436243D01*
X153110921Y-90458187D01*
X153100956Y-90479257D01*
X153088974Y-90499248D01*
X153075090Y-90517968D01*
X153059438Y-90535238D01*
X153042168Y-90550890D01*
X153023448Y-90564774D01*
X153003457Y-90576756D01*
X152982387Y-90586721D01*
X152960443Y-90594573D01*
X152937834Y-90600237D01*
X152914779Y-90603656D01*
X152891500Y-90604800D01*
X152416500Y-90604800D01*
X152393221Y-90603656D01*
X152370166Y-90600237D01*
X152347557Y-90594573D01*
X152325613Y-90586721D01*
X152304543Y-90576756D01*
X152284552Y-90564774D01*
X152265832Y-90550890D01*
X152248562Y-90535238D01*
X152232910Y-90517968D01*
X152219026Y-90499248D01*
X152207044Y-90479257D01*
X152197079Y-90458187D01*
X152189227Y-90436243D01*
X152183563Y-90413634D01*
X152180144Y-90390579D01*
X152179000Y-90367300D01*
X152179000Y-89792300D01*
X152180144Y-89769021D01*
X152183563Y-89745966D01*
X152189227Y-89723357D01*
X152197079Y-89701413D01*
X152207044Y-89680343D01*
X152219026Y-89660352D01*
X152232910Y-89641632D01*
X152248562Y-89624362D01*
X152265832Y-89608710D01*
X152284552Y-89594826D01*
X152304543Y-89582844D01*
X152325613Y-89572879D01*
X152347557Y-89565027D01*
X152370166Y-89559363D01*
X152393221Y-89555944D01*
X152416500Y-89554800D01*
X152891500Y-89554800D01*
X152914779Y-89555944D01*
G37*
G36*
X152914779Y-87805944D02*
G01*
X152937834Y-87809363D01*
X152960443Y-87815027D01*
X152982387Y-87822879D01*
X153003457Y-87832844D01*
X153023448Y-87844826D01*
X153042168Y-87858710D01*
X153059438Y-87874362D01*
X153075090Y-87891632D01*
X153088974Y-87910352D01*
X153100956Y-87930343D01*
X153110921Y-87951413D01*
X153118773Y-87973357D01*
X153124437Y-87995966D01*
X153127856Y-88019021D01*
X153129000Y-88042300D01*
X153129000Y-88617300D01*
X153127856Y-88640579D01*
X153124437Y-88663634D01*
X153118773Y-88686243D01*
X153110921Y-88708187D01*
X153100956Y-88729257D01*
X153088974Y-88749248D01*
X153075090Y-88767968D01*
X153059438Y-88785238D01*
X153042168Y-88800890D01*
X153023448Y-88814774D01*
X153003457Y-88826756D01*
X152982387Y-88836721D01*
X152960443Y-88844573D01*
X152937834Y-88850237D01*
X152914779Y-88853656D01*
X152891500Y-88854800D01*
X152416500Y-88854800D01*
X152393221Y-88853656D01*
X152370166Y-88850237D01*
X152347557Y-88844573D01*
X152325613Y-88836721D01*
X152304543Y-88826756D01*
X152284552Y-88814774D01*
X152265832Y-88800890D01*
X152248562Y-88785238D01*
X152232910Y-88767968D01*
X152219026Y-88749248D01*
X152207044Y-88729257D01*
X152197079Y-88708187D01*
X152189227Y-88686243D01*
X152183563Y-88663634D01*
X152180144Y-88640579D01*
X152179000Y-88617300D01*
X152179000Y-88042300D01*
X152180144Y-88019021D01*
X152183563Y-87995966D01*
X152189227Y-87973357D01*
X152197079Y-87951413D01*
X152207044Y-87930343D01*
X152219026Y-87910352D01*
X152232910Y-87891632D01*
X152248562Y-87874362D01*
X152265832Y-87858710D01*
X152284552Y-87844826D01*
X152304543Y-87832844D01*
X152325613Y-87822879D01*
X152347557Y-87815027D01*
X152370166Y-87809363D01*
X152393221Y-87805944D01*
X152416500Y-87804800D01*
X152891500Y-87804800D01*
X152914779Y-87805944D01*
G37*
G36*
X146183779Y-89555944D02*
G01*
X146206834Y-89559363D01*
X146229443Y-89565027D01*
X146251387Y-89572879D01*
X146272457Y-89582844D01*
X146292448Y-89594826D01*
X146311168Y-89608710D01*
X146328438Y-89624362D01*
X146344090Y-89641632D01*
X146357974Y-89660352D01*
X146369956Y-89680343D01*
X146379921Y-89701413D01*
X146387773Y-89723357D01*
X146393437Y-89745966D01*
X146396856Y-89769021D01*
X146398000Y-89792300D01*
X146398000Y-90367300D01*
X146396856Y-90390579D01*
X146393437Y-90413634D01*
X146387773Y-90436243D01*
X146379921Y-90458187D01*
X146369956Y-90479257D01*
X146357974Y-90499248D01*
X146344090Y-90517968D01*
X146328438Y-90535238D01*
X146311168Y-90550890D01*
X146292448Y-90564774D01*
X146272457Y-90576756D01*
X146251387Y-90586721D01*
X146229443Y-90594573D01*
X146206834Y-90600237D01*
X146183779Y-90603656D01*
X146160500Y-90604800D01*
X145685500Y-90604800D01*
X145662221Y-90603656D01*
X145639166Y-90600237D01*
X145616557Y-90594573D01*
X145594613Y-90586721D01*
X145573543Y-90576756D01*
X145553552Y-90564774D01*
X145534832Y-90550890D01*
X145517562Y-90535238D01*
X145501910Y-90517968D01*
X145488026Y-90499248D01*
X145476044Y-90479257D01*
X145466079Y-90458187D01*
X145458227Y-90436243D01*
X145452563Y-90413634D01*
X145449144Y-90390579D01*
X145448000Y-90367300D01*
X145448000Y-89792300D01*
X145449144Y-89769021D01*
X145452563Y-89745966D01*
X145458227Y-89723357D01*
X145466079Y-89701413D01*
X145476044Y-89680343D01*
X145488026Y-89660352D01*
X145501910Y-89641632D01*
X145517562Y-89624362D01*
X145534832Y-89608710D01*
X145553552Y-89594826D01*
X145573543Y-89582844D01*
X145594613Y-89572879D01*
X145616557Y-89565027D01*
X145639166Y-89559363D01*
X145662221Y-89555944D01*
X145685500Y-89554800D01*
X146160500Y-89554800D01*
X146183779Y-89555944D01*
G37*
G36*
X146183779Y-87805944D02*
G01*
X146206834Y-87809363D01*
X146229443Y-87815027D01*
X146251387Y-87822879D01*
X146272457Y-87832844D01*
X146292448Y-87844826D01*
X146311168Y-87858710D01*
X146328438Y-87874362D01*
X146344090Y-87891632D01*
X146357974Y-87910352D01*
X146369956Y-87930343D01*
X146379921Y-87951413D01*
X146387773Y-87973357D01*
X146393437Y-87995966D01*
X146396856Y-88019021D01*
X146398000Y-88042300D01*
X146398000Y-88617300D01*
X146396856Y-88640579D01*
X146393437Y-88663634D01*
X146387773Y-88686243D01*
X146379921Y-88708187D01*
X146369956Y-88729257D01*
X146357974Y-88749248D01*
X146344090Y-88767968D01*
X146328438Y-88785238D01*
X146311168Y-88800890D01*
X146292448Y-88814774D01*
X146272457Y-88826756D01*
X146251387Y-88836721D01*
X146229443Y-88844573D01*
X146206834Y-88850237D01*
X146183779Y-88853656D01*
X146160500Y-88854800D01*
X145685500Y-88854800D01*
X145662221Y-88853656D01*
X145639166Y-88850237D01*
X145616557Y-88844573D01*
X145594613Y-88836721D01*
X145573543Y-88826756D01*
X145553552Y-88814774D01*
X145534832Y-88800890D01*
X145517562Y-88785238D01*
X145501910Y-88767968D01*
X145488026Y-88749248D01*
X145476044Y-88729257D01*
X145466079Y-88708187D01*
X145458227Y-88686243D01*
X145452563Y-88663634D01*
X145449144Y-88640579D01*
X145448000Y-88617300D01*
X145448000Y-88042300D01*
X145449144Y-88019021D01*
X145452563Y-87995966D01*
X145458227Y-87973357D01*
X145466079Y-87951413D01*
X145476044Y-87930343D01*
X145488026Y-87910352D01*
X145501910Y-87891632D01*
X145517562Y-87874362D01*
X145534832Y-87858710D01*
X145553552Y-87844826D01*
X145573543Y-87832844D01*
X145594613Y-87822879D01*
X145616557Y-87815027D01*
X145639166Y-87809363D01*
X145662221Y-87805944D01*
X145685500Y-87804800D01*
X146160500Y-87804800D01*
X146183779Y-87805944D01*
G37*
G36*
X139478179Y-89555944D02*
G01*
X139501234Y-89559363D01*
X139523843Y-89565027D01*
X139545787Y-89572879D01*
X139566857Y-89582844D01*
X139586848Y-89594826D01*
X139605568Y-89608710D01*
X139622838Y-89624362D01*
X139638490Y-89641632D01*
X139652374Y-89660352D01*
X139664356Y-89680343D01*
X139674321Y-89701413D01*
X139682173Y-89723357D01*
X139687837Y-89745966D01*
X139691256Y-89769021D01*
X139692400Y-89792300D01*
X139692400Y-90367300D01*
X139691256Y-90390579D01*
X139687837Y-90413634D01*
X139682173Y-90436243D01*
X139674321Y-90458187D01*
X139664356Y-90479257D01*
X139652374Y-90499248D01*
X139638490Y-90517968D01*
X139622838Y-90535238D01*
X139605568Y-90550890D01*
X139586848Y-90564774D01*
X139566857Y-90576756D01*
X139545787Y-90586721D01*
X139523843Y-90594573D01*
X139501234Y-90600237D01*
X139478179Y-90603656D01*
X139454900Y-90604800D01*
X138979900Y-90604800D01*
X138956621Y-90603656D01*
X138933566Y-90600237D01*
X138910957Y-90594573D01*
X138889013Y-90586721D01*
X138867943Y-90576756D01*
X138847952Y-90564774D01*
X138829232Y-90550890D01*
X138811962Y-90535238D01*
X138796310Y-90517968D01*
X138782426Y-90499248D01*
X138770444Y-90479257D01*
X138760479Y-90458187D01*
X138752627Y-90436243D01*
X138746963Y-90413634D01*
X138743544Y-90390579D01*
X138742400Y-90367300D01*
X138742400Y-89792300D01*
X138743544Y-89769021D01*
X138746963Y-89745966D01*
X138752627Y-89723357D01*
X138760479Y-89701413D01*
X138770444Y-89680343D01*
X138782426Y-89660352D01*
X138796310Y-89641632D01*
X138811962Y-89624362D01*
X138829232Y-89608710D01*
X138847952Y-89594826D01*
X138867943Y-89582844D01*
X138889013Y-89572879D01*
X138910957Y-89565027D01*
X138933566Y-89559363D01*
X138956621Y-89555944D01*
X138979900Y-89554800D01*
X139454900Y-89554800D01*
X139478179Y-89555944D01*
G37*
G36*
X139478179Y-87805944D02*
G01*
X139501234Y-87809363D01*
X139523843Y-87815027D01*
X139545787Y-87822879D01*
X139566857Y-87832844D01*
X139586848Y-87844826D01*
X139605568Y-87858710D01*
X139622838Y-87874362D01*
X139638490Y-87891632D01*
X139652374Y-87910352D01*
X139664356Y-87930343D01*
X139674321Y-87951413D01*
X139682173Y-87973357D01*
X139687837Y-87995966D01*
X139691256Y-88019021D01*
X139692400Y-88042300D01*
X139692400Y-88617300D01*
X139691256Y-88640579D01*
X139687837Y-88663634D01*
X139682173Y-88686243D01*
X139674321Y-88708187D01*
X139664356Y-88729257D01*
X139652374Y-88749248D01*
X139638490Y-88767968D01*
X139622838Y-88785238D01*
X139605568Y-88800890D01*
X139586848Y-88814774D01*
X139566857Y-88826756D01*
X139545787Y-88836721D01*
X139523843Y-88844573D01*
X139501234Y-88850237D01*
X139478179Y-88853656D01*
X139454900Y-88854800D01*
X138979900Y-88854800D01*
X138956621Y-88853656D01*
X138933566Y-88850237D01*
X138910957Y-88844573D01*
X138889013Y-88836721D01*
X138867943Y-88826756D01*
X138847952Y-88814774D01*
X138829232Y-88800890D01*
X138811962Y-88785238D01*
X138796310Y-88767968D01*
X138782426Y-88749248D01*
X138770444Y-88729257D01*
X138760479Y-88708187D01*
X138752627Y-88686243D01*
X138746963Y-88663634D01*
X138743544Y-88640579D01*
X138742400Y-88617300D01*
X138742400Y-88042300D01*
X138743544Y-88019021D01*
X138746963Y-87995966D01*
X138752627Y-87973357D01*
X138760479Y-87951413D01*
X138770444Y-87930343D01*
X138782426Y-87910352D01*
X138796310Y-87891632D01*
X138811962Y-87874362D01*
X138829232Y-87858710D01*
X138847952Y-87844826D01*
X138867943Y-87832844D01*
X138889013Y-87822879D01*
X138910957Y-87815027D01*
X138933566Y-87809363D01*
X138956621Y-87805944D01*
X138979900Y-87804800D01*
X139454900Y-87804800D01*
X139478179Y-87805944D01*
G37*
G36*
X132747179Y-89581344D02*
G01*
X132770234Y-89584763D01*
X132792843Y-89590427D01*
X132814787Y-89598279D01*
X132835857Y-89608244D01*
X132855848Y-89620226D01*
X132874568Y-89634110D01*
X132891838Y-89649762D01*
X132907490Y-89667032D01*
X132921374Y-89685752D01*
X132933356Y-89705743D01*
X132943321Y-89726813D01*
X132951173Y-89748757D01*
X132956837Y-89771366D01*
X132960256Y-89794421D01*
X132961400Y-89817700D01*
X132961400Y-90392700D01*
X132960256Y-90415979D01*
X132956837Y-90439034D01*
X132951173Y-90461643D01*
X132943321Y-90483587D01*
X132933356Y-90504657D01*
X132921374Y-90524648D01*
X132907490Y-90543368D01*
X132891838Y-90560638D01*
X132874568Y-90576290D01*
X132855848Y-90590174D01*
X132835857Y-90602156D01*
X132814787Y-90612121D01*
X132792843Y-90619973D01*
X132770234Y-90625637D01*
X132747179Y-90629056D01*
X132723900Y-90630200D01*
X132248900Y-90630200D01*
X132225621Y-90629056D01*
X132202566Y-90625637D01*
X132179957Y-90619973D01*
X132158013Y-90612121D01*
X132136943Y-90602156D01*
X132116952Y-90590174D01*
X132098232Y-90576290D01*
X132080962Y-90560638D01*
X132065310Y-90543368D01*
X132051426Y-90524648D01*
X132039444Y-90504657D01*
X132029479Y-90483587D01*
X132021627Y-90461643D01*
X132015963Y-90439034D01*
X132012544Y-90415979D01*
X132011400Y-90392700D01*
X132011400Y-89817700D01*
X132012544Y-89794421D01*
X132015963Y-89771366D01*
X132021627Y-89748757D01*
X132029479Y-89726813D01*
X132039444Y-89705743D01*
X132051426Y-89685752D01*
X132065310Y-89667032D01*
X132080962Y-89649762D01*
X132098232Y-89634110D01*
X132116952Y-89620226D01*
X132136943Y-89608244D01*
X132158013Y-89598279D01*
X132179957Y-89590427D01*
X132202566Y-89584763D01*
X132225621Y-89581344D01*
X132248900Y-89580200D01*
X132723900Y-89580200D01*
X132747179Y-89581344D01*
G37*
G36*
X132747179Y-87831344D02*
G01*
X132770234Y-87834763D01*
X132792843Y-87840427D01*
X132814787Y-87848279D01*
X132835857Y-87858244D01*
X132855848Y-87870226D01*
X132874568Y-87884110D01*
X132891838Y-87899762D01*
X132907490Y-87917032D01*
X132921374Y-87935752D01*
X132933356Y-87955743D01*
X132943321Y-87976813D01*
X132951173Y-87998757D01*
X132956837Y-88021366D01*
X132960256Y-88044421D01*
X132961400Y-88067700D01*
X132961400Y-88642700D01*
X132960256Y-88665979D01*
X132956837Y-88689034D01*
X132951173Y-88711643D01*
X132943321Y-88733587D01*
X132933356Y-88754657D01*
X132921374Y-88774648D01*
X132907490Y-88793368D01*
X132891838Y-88810638D01*
X132874568Y-88826290D01*
X132855848Y-88840174D01*
X132835857Y-88852156D01*
X132814787Y-88862121D01*
X132792843Y-88869973D01*
X132770234Y-88875637D01*
X132747179Y-88879056D01*
X132723900Y-88880200D01*
X132248900Y-88880200D01*
X132225621Y-88879056D01*
X132202566Y-88875637D01*
X132179957Y-88869973D01*
X132158013Y-88862121D01*
X132136943Y-88852156D01*
X132116952Y-88840174D01*
X132098232Y-88826290D01*
X132080962Y-88810638D01*
X132065310Y-88793368D01*
X132051426Y-88774648D01*
X132039444Y-88754657D01*
X132029479Y-88733587D01*
X132021627Y-88711643D01*
X132015963Y-88689034D01*
X132012544Y-88665979D01*
X132011400Y-88642700D01*
X132011400Y-88067700D01*
X132012544Y-88044421D01*
X132015963Y-88021366D01*
X132021627Y-87998757D01*
X132029479Y-87976813D01*
X132039444Y-87955743D01*
X132051426Y-87935752D01*
X132065310Y-87917032D01*
X132080962Y-87899762D01*
X132098232Y-87884110D01*
X132116952Y-87870226D01*
X132136943Y-87858244D01*
X132158013Y-87848279D01*
X132179957Y-87840427D01*
X132202566Y-87834763D01*
X132225621Y-87831344D01*
X132248900Y-87830200D01*
X132723900Y-87830200D01*
X132747179Y-87831344D01*
G37*
G36*
X126066979Y-89569944D02*
G01*
X126090034Y-89573363D01*
X126112643Y-89579027D01*
X126134587Y-89586879D01*
X126155657Y-89596844D01*
X126175648Y-89608826D01*
X126194368Y-89622710D01*
X126211638Y-89638362D01*
X126227290Y-89655632D01*
X126241174Y-89674352D01*
X126253156Y-89694343D01*
X126263121Y-89715413D01*
X126270973Y-89737357D01*
X126276637Y-89759966D01*
X126280056Y-89783021D01*
X126281200Y-89806300D01*
X126281200Y-90381300D01*
X126280056Y-90404579D01*
X126276637Y-90427634D01*
X126270973Y-90450243D01*
X126263121Y-90472187D01*
X126253156Y-90493257D01*
X126241174Y-90513248D01*
X126227290Y-90531968D01*
X126211638Y-90549238D01*
X126194368Y-90564890D01*
X126175648Y-90578774D01*
X126155657Y-90590756D01*
X126134587Y-90600721D01*
X126112643Y-90608573D01*
X126090034Y-90614237D01*
X126066979Y-90617656D01*
X126043700Y-90618800D01*
X125568700Y-90618800D01*
X125545421Y-90617656D01*
X125522366Y-90614237D01*
X125499757Y-90608573D01*
X125477813Y-90600721D01*
X125456743Y-90590756D01*
X125436752Y-90578774D01*
X125418032Y-90564890D01*
X125400762Y-90549238D01*
X125385110Y-90531968D01*
X125371226Y-90513248D01*
X125359244Y-90493257D01*
X125349279Y-90472187D01*
X125341427Y-90450243D01*
X125335763Y-90427634D01*
X125332344Y-90404579D01*
X125331200Y-90381300D01*
X125331200Y-89806300D01*
X125332344Y-89783021D01*
X125335763Y-89759966D01*
X125341427Y-89737357D01*
X125349279Y-89715413D01*
X125359244Y-89694343D01*
X125371226Y-89674352D01*
X125385110Y-89655632D01*
X125400762Y-89638362D01*
X125418032Y-89622710D01*
X125436752Y-89608826D01*
X125456743Y-89596844D01*
X125477813Y-89586879D01*
X125499757Y-89579027D01*
X125522366Y-89573363D01*
X125545421Y-89569944D01*
X125568700Y-89568800D01*
X126043700Y-89568800D01*
X126066979Y-89569944D01*
G37*
G36*
X126066979Y-87819944D02*
G01*
X126090034Y-87823363D01*
X126112643Y-87829027D01*
X126134587Y-87836879D01*
X126155657Y-87846844D01*
X126175648Y-87858826D01*
X126194368Y-87872710D01*
X126211638Y-87888362D01*
X126227290Y-87905632D01*
X126241174Y-87924352D01*
X126253156Y-87944343D01*
X126263121Y-87965413D01*
X126270973Y-87987357D01*
X126276637Y-88009966D01*
X126280056Y-88033021D01*
X126281200Y-88056300D01*
X126281200Y-88631300D01*
X126280056Y-88654579D01*
X126276637Y-88677634D01*
X126270973Y-88700243D01*
X126263121Y-88722187D01*
X126253156Y-88743257D01*
X126241174Y-88763248D01*
X126227290Y-88781968D01*
X126211638Y-88799238D01*
X126194368Y-88814890D01*
X126175648Y-88828774D01*
X126155657Y-88840756D01*
X126134587Y-88850721D01*
X126112643Y-88858573D01*
X126090034Y-88864237D01*
X126066979Y-88867656D01*
X126043700Y-88868800D01*
X125568700Y-88868800D01*
X125545421Y-88867656D01*
X125522366Y-88864237D01*
X125499757Y-88858573D01*
X125477813Y-88850721D01*
X125456743Y-88840756D01*
X125436752Y-88828774D01*
X125418032Y-88814890D01*
X125400762Y-88799238D01*
X125385110Y-88781968D01*
X125371226Y-88763248D01*
X125359244Y-88743257D01*
X125349279Y-88722187D01*
X125341427Y-88700243D01*
X125335763Y-88677634D01*
X125332344Y-88654579D01*
X125331200Y-88631300D01*
X125331200Y-88056300D01*
X125332344Y-88033021D01*
X125335763Y-88009966D01*
X125341427Y-87987357D01*
X125349279Y-87965413D01*
X125359244Y-87944343D01*
X125371226Y-87924352D01*
X125385110Y-87905632D01*
X125400762Y-87888362D01*
X125418032Y-87872710D01*
X125436752Y-87858826D01*
X125456743Y-87846844D01*
X125477813Y-87836879D01*
X125499757Y-87829027D01*
X125522366Y-87823363D01*
X125545421Y-87819944D01*
X125568700Y-87818800D01*
X126043700Y-87818800D01*
X126066979Y-87819944D01*
G37*
G36*
X119310579Y-89632144D02*
G01*
X119333634Y-89635563D01*
X119356243Y-89641227D01*
X119378187Y-89649079D01*
X119399257Y-89659044D01*
X119419248Y-89671026D01*
X119437968Y-89684910D01*
X119455238Y-89700562D01*
X119470890Y-89717832D01*
X119484774Y-89736552D01*
X119496756Y-89756543D01*
X119506721Y-89777613D01*
X119514573Y-89799557D01*
X119520237Y-89822166D01*
X119523656Y-89845221D01*
X119524800Y-89868500D01*
X119524800Y-90443500D01*
X119523656Y-90466779D01*
X119520237Y-90489834D01*
X119514573Y-90512443D01*
X119506721Y-90534387D01*
X119496756Y-90555457D01*
X119484774Y-90575448D01*
X119470890Y-90594168D01*
X119455238Y-90611438D01*
X119437968Y-90627090D01*
X119419248Y-90640974D01*
X119399257Y-90652956D01*
X119378187Y-90662921D01*
X119356243Y-90670773D01*
X119333634Y-90676437D01*
X119310579Y-90679856D01*
X119287300Y-90681000D01*
X118812300Y-90681000D01*
X118789021Y-90679856D01*
X118765966Y-90676437D01*
X118743357Y-90670773D01*
X118721413Y-90662921D01*
X118700343Y-90652956D01*
X118680352Y-90640974D01*
X118661632Y-90627090D01*
X118644362Y-90611438D01*
X118628710Y-90594168D01*
X118614826Y-90575448D01*
X118602844Y-90555457D01*
X118592879Y-90534387D01*
X118585027Y-90512443D01*
X118579363Y-90489834D01*
X118575944Y-90466779D01*
X118574800Y-90443500D01*
X118574800Y-89868500D01*
X118575944Y-89845221D01*
X118579363Y-89822166D01*
X118585027Y-89799557D01*
X118592879Y-89777613D01*
X118602844Y-89756543D01*
X118614826Y-89736552D01*
X118628710Y-89717832D01*
X118644362Y-89700562D01*
X118661632Y-89684910D01*
X118680352Y-89671026D01*
X118700343Y-89659044D01*
X118721413Y-89649079D01*
X118743357Y-89641227D01*
X118765966Y-89635563D01*
X118789021Y-89632144D01*
X118812300Y-89631000D01*
X119287300Y-89631000D01*
X119310579Y-89632144D01*
G37*
G36*
X119310579Y-87882144D02*
G01*
X119333634Y-87885563D01*
X119356243Y-87891227D01*
X119378187Y-87899079D01*
X119399257Y-87909044D01*
X119419248Y-87921026D01*
X119437968Y-87934910D01*
X119455238Y-87950562D01*
X119470890Y-87967832D01*
X119484774Y-87986552D01*
X119496756Y-88006543D01*
X119506721Y-88027613D01*
X119514573Y-88049557D01*
X119520237Y-88072166D01*
X119523656Y-88095221D01*
X119524800Y-88118500D01*
X119524800Y-88693500D01*
X119523656Y-88716779D01*
X119520237Y-88739834D01*
X119514573Y-88762443D01*
X119506721Y-88784387D01*
X119496756Y-88805457D01*
X119484774Y-88825448D01*
X119470890Y-88844168D01*
X119455238Y-88861438D01*
X119437968Y-88877090D01*
X119419248Y-88890974D01*
X119399257Y-88902956D01*
X119378187Y-88912921D01*
X119356243Y-88920773D01*
X119333634Y-88926437D01*
X119310579Y-88929856D01*
X119287300Y-88931000D01*
X118812300Y-88931000D01*
X118789021Y-88929856D01*
X118765966Y-88926437D01*
X118743357Y-88920773D01*
X118721413Y-88912921D01*
X118700343Y-88902956D01*
X118680352Y-88890974D01*
X118661632Y-88877090D01*
X118644362Y-88861438D01*
X118628710Y-88844168D01*
X118614826Y-88825448D01*
X118602844Y-88805457D01*
X118592879Y-88784387D01*
X118585027Y-88762443D01*
X118579363Y-88739834D01*
X118575944Y-88716779D01*
X118574800Y-88693500D01*
X118574800Y-88118500D01*
X118575944Y-88095221D01*
X118579363Y-88072166D01*
X118585027Y-88049557D01*
X118592879Y-88027613D01*
X118602844Y-88006543D01*
X118614826Y-87986552D01*
X118628710Y-87967832D01*
X118644362Y-87950562D01*
X118661632Y-87934910D01*
X118680352Y-87921026D01*
X118700343Y-87909044D01*
X118721413Y-87899079D01*
X118743357Y-87891227D01*
X118765966Y-87885563D01*
X118789021Y-87882144D01*
X118812300Y-87881000D01*
X119287300Y-87881000D01*
X119310579Y-87882144D01*
G37*
G36*
X112554179Y-89632144D02*
G01*
X112577234Y-89635563D01*
X112599843Y-89641227D01*
X112621787Y-89649079D01*
X112642857Y-89659044D01*
X112662848Y-89671026D01*
X112681568Y-89684910D01*
X112698838Y-89700562D01*
X112714490Y-89717832D01*
X112728374Y-89736552D01*
X112740356Y-89756543D01*
X112750321Y-89777613D01*
X112758173Y-89799557D01*
X112763837Y-89822166D01*
X112767256Y-89845221D01*
X112768400Y-89868500D01*
X112768400Y-90443500D01*
X112767256Y-90466779D01*
X112763837Y-90489834D01*
X112758173Y-90512443D01*
X112750321Y-90534387D01*
X112740356Y-90555457D01*
X112728374Y-90575448D01*
X112714490Y-90594168D01*
X112698838Y-90611438D01*
X112681568Y-90627090D01*
X112662848Y-90640974D01*
X112642857Y-90652956D01*
X112621787Y-90662921D01*
X112599843Y-90670773D01*
X112577234Y-90676437D01*
X112554179Y-90679856D01*
X112530900Y-90681000D01*
X112055900Y-90681000D01*
X112032621Y-90679856D01*
X112009566Y-90676437D01*
X111986957Y-90670773D01*
X111965013Y-90662921D01*
X111943943Y-90652956D01*
X111923952Y-90640974D01*
X111905232Y-90627090D01*
X111887962Y-90611438D01*
X111872310Y-90594168D01*
X111858426Y-90575448D01*
X111846444Y-90555457D01*
X111836479Y-90534387D01*
X111828627Y-90512443D01*
X111822963Y-90489834D01*
X111819544Y-90466779D01*
X111818400Y-90443500D01*
X111818400Y-89868500D01*
X111819544Y-89845221D01*
X111822963Y-89822166D01*
X111828627Y-89799557D01*
X111836479Y-89777613D01*
X111846444Y-89756543D01*
X111858426Y-89736552D01*
X111872310Y-89717832D01*
X111887962Y-89700562D01*
X111905232Y-89684910D01*
X111923952Y-89671026D01*
X111943943Y-89659044D01*
X111965013Y-89649079D01*
X111986957Y-89641227D01*
X112009566Y-89635563D01*
X112032621Y-89632144D01*
X112055900Y-89631000D01*
X112530900Y-89631000D01*
X112554179Y-89632144D01*
G37*
G36*
X112554179Y-87882144D02*
G01*
X112577234Y-87885563D01*
X112599843Y-87891227D01*
X112621787Y-87899079D01*
X112642857Y-87909044D01*
X112662848Y-87921026D01*
X112681568Y-87934910D01*
X112698838Y-87950562D01*
X112714490Y-87967832D01*
X112728374Y-87986552D01*
X112740356Y-88006543D01*
X112750321Y-88027613D01*
X112758173Y-88049557D01*
X112763837Y-88072166D01*
X112767256Y-88095221D01*
X112768400Y-88118500D01*
X112768400Y-88693500D01*
X112767256Y-88716779D01*
X112763837Y-88739834D01*
X112758173Y-88762443D01*
X112750321Y-88784387D01*
X112740356Y-88805457D01*
X112728374Y-88825448D01*
X112714490Y-88844168D01*
X112698838Y-88861438D01*
X112681568Y-88877090D01*
X112662848Y-88890974D01*
X112642857Y-88902956D01*
X112621787Y-88912921D01*
X112599843Y-88920773D01*
X112577234Y-88926437D01*
X112554179Y-88929856D01*
X112530900Y-88931000D01*
X112055900Y-88931000D01*
X112032621Y-88929856D01*
X112009566Y-88926437D01*
X111986957Y-88920773D01*
X111965013Y-88912921D01*
X111943943Y-88902956D01*
X111923952Y-88890974D01*
X111905232Y-88877090D01*
X111887962Y-88861438D01*
X111872310Y-88844168D01*
X111858426Y-88825448D01*
X111846444Y-88805457D01*
X111836479Y-88784387D01*
X111828627Y-88762443D01*
X111822963Y-88739834D01*
X111819544Y-88716779D01*
X111818400Y-88693500D01*
X111818400Y-88118500D01*
X111819544Y-88095221D01*
X111822963Y-88072166D01*
X111828627Y-88049557D01*
X111836479Y-88027613D01*
X111846444Y-88006543D01*
X111858426Y-87986552D01*
X111872310Y-87967832D01*
X111887962Y-87950562D01*
X111905232Y-87934910D01*
X111923952Y-87921026D01*
X111943943Y-87909044D01*
X111965013Y-87899079D01*
X111986957Y-87891227D01*
X112009566Y-87885563D01*
X112032621Y-87882144D01*
X112055900Y-87881000D01*
X112530900Y-87881000D01*
X112554179Y-87882144D01*
G37*
G36*
X91192779Y-87388144D02*
G01*
X91215834Y-87391563D01*
X91238443Y-87397227D01*
X91260387Y-87405079D01*
X91281457Y-87415044D01*
X91301448Y-87427026D01*
X91320168Y-87440910D01*
X91337438Y-87456562D01*
X91353090Y-87473832D01*
X91366974Y-87492552D01*
X91378956Y-87512543D01*
X91388921Y-87533613D01*
X91396773Y-87555557D01*
X91402437Y-87578166D01*
X91405856Y-87601221D01*
X91407000Y-87624500D01*
X91407000Y-88199500D01*
X91405856Y-88222779D01*
X91402437Y-88245834D01*
X91396773Y-88268443D01*
X91388921Y-88290387D01*
X91378956Y-88311457D01*
X91366974Y-88331448D01*
X91353090Y-88350168D01*
X91337438Y-88367438D01*
X91320168Y-88383090D01*
X91301448Y-88396974D01*
X91281457Y-88408956D01*
X91260387Y-88418921D01*
X91238443Y-88426773D01*
X91215834Y-88432437D01*
X91192779Y-88435856D01*
X91169500Y-88437000D01*
X90694500Y-88437000D01*
X90671221Y-88435856D01*
X90648166Y-88432437D01*
X90625557Y-88426773D01*
X90603613Y-88418921D01*
X90582543Y-88408956D01*
X90562552Y-88396974D01*
X90543832Y-88383090D01*
X90526562Y-88367438D01*
X90510910Y-88350168D01*
X90497026Y-88331448D01*
X90485044Y-88311457D01*
X90475079Y-88290387D01*
X90467227Y-88268443D01*
X90461563Y-88245834D01*
X90458144Y-88222779D01*
X90457000Y-88199500D01*
X90457000Y-87624500D01*
X90458144Y-87601221D01*
X90461563Y-87578166D01*
X90467227Y-87555557D01*
X90475079Y-87533613D01*
X90485044Y-87512543D01*
X90497026Y-87492552D01*
X90510910Y-87473832D01*
X90526562Y-87456562D01*
X90543832Y-87440910D01*
X90562552Y-87427026D01*
X90582543Y-87415044D01*
X90603613Y-87405079D01*
X90625557Y-87397227D01*
X90648166Y-87391563D01*
X90671221Y-87388144D01*
X90694500Y-87387000D01*
X91169500Y-87387000D01*
X91192779Y-87388144D01*
G37*
G36*
X91192779Y-89138144D02*
G01*
X91215834Y-89141563D01*
X91238443Y-89147227D01*
X91260387Y-89155079D01*
X91281457Y-89165044D01*
X91301448Y-89177026D01*
X91320168Y-89190910D01*
X91337438Y-89206562D01*
X91353090Y-89223832D01*
X91366974Y-89242552D01*
X91378956Y-89262543D01*
X91388921Y-89283613D01*
X91396773Y-89305557D01*
X91402437Y-89328166D01*
X91405856Y-89351221D01*
X91407000Y-89374500D01*
X91407000Y-89949500D01*
X91405856Y-89972779D01*
X91402437Y-89995834D01*
X91396773Y-90018443D01*
X91388921Y-90040387D01*
X91378956Y-90061457D01*
X91366974Y-90081448D01*
X91353090Y-90100168D01*
X91337438Y-90117438D01*
X91320168Y-90133090D01*
X91301448Y-90146974D01*
X91281457Y-90158956D01*
X91260387Y-90168921D01*
X91238443Y-90176773D01*
X91215834Y-90182437D01*
X91192779Y-90185856D01*
X91169500Y-90187000D01*
X90694500Y-90187000D01*
X90671221Y-90185856D01*
X90648166Y-90182437D01*
X90625557Y-90176773D01*
X90603613Y-90168921D01*
X90582543Y-90158956D01*
X90562552Y-90146974D01*
X90543832Y-90133090D01*
X90526562Y-90117438D01*
X90510910Y-90100168D01*
X90497026Y-90081448D01*
X90485044Y-90061457D01*
X90475079Y-90040387D01*
X90467227Y-90018443D01*
X90461563Y-89995834D01*
X90458144Y-89972779D01*
X90457000Y-89949500D01*
X90457000Y-89374500D01*
X90458144Y-89351221D01*
X90461563Y-89328166D01*
X90467227Y-89305557D01*
X90475079Y-89283613D01*
X90485044Y-89262543D01*
X90497026Y-89242552D01*
X90510910Y-89223832D01*
X90526562Y-89206562D01*
X90543832Y-89190910D01*
X90562552Y-89177026D01*
X90582543Y-89165044D01*
X90603613Y-89155079D01*
X90625557Y-89147227D01*
X90648166Y-89141563D01*
X90671221Y-89138144D01*
X90694500Y-89137000D01*
X91169500Y-89137000D01*
X91192779Y-89138144D01*
G37*
G36*
X91192779Y-95375144D02*
G01*
X91215834Y-95378563D01*
X91238443Y-95384227D01*
X91260387Y-95392079D01*
X91281457Y-95402044D01*
X91301448Y-95414026D01*
X91320168Y-95427910D01*
X91337438Y-95443562D01*
X91353090Y-95460832D01*
X91366974Y-95479552D01*
X91378956Y-95499543D01*
X91388921Y-95520613D01*
X91396773Y-95542557D01*
X91402437Y-95565166D01*
X91405856Y-95588221D01*
X91407000Y-95611500D01*
X91407000Y-96186500D01*
X91405856Y-96209779D01*
X91402437Y-96232834D01*
X91396773Y-96255443D01*
X91388921Y-96277387D01*
X91378956Y-96298457D01*
X91366974Y-96318448D01*
X91353090Y-96337168D01*
X91337438Y-96354438D01*
X91320168Y-96370090D01*
X91301448Y-96383974D01*
X91281457Y-96395956D01*
X91260387Y-96405921D01*
X91238443Y-96413773D01*
X91215834Y-96419437D01*
X91192779Y-96422856D01*
X91169500Y-96424000D01*
X90694500Y-96424000D01*
X90671221Y-96422856D01*
X90648166Y-96419437D01*
X90625557Y-96413773D01*
X90603613Y-96405921D01*
X90582543Y-96395956D01*
X90562552Y-96383974D01*
X90543832Y-96370090D01*
X90526562Y-96354438D01*
X90510910Y-96337168D01*
X90497026Y-96318448D01*
X90485044Y-96298457D01*
X90475079Y-96277387D01*
X90467227Y-96255443D01*
X90461563Y-96232834D01*
X90458144Y-96209779D01*
X90457000Y-96186500D01*
X90457000Y-95611500D01*
X90458144Y-95588221D01*
X90461563Y-95565166D01*
X90467227Y-95542557D01*
X90475079Y-95520613D01*
X90485044Y-95499543D01*
X90497026Y-95479552D01*
X90510910Y-95460832D01*
X90526562Y-95443562D01*
X90543832Y-95427910D01*
X90562552Y-95414026D01*
X90582543Y-95402044D01*
X90603613Y-95392079D01*
X90625557Y-95384227D01*
X90648166Y-95378563D01*
X90671221Y-95375144D01*
X90694500Y-95374000D01*
X91169500Y-95374000D01*
X91192779Y-95375144D01*
G37*
G36*
X91192779Y-97125144D02*
G01*
X91215834Y-97128563D01*
X91238443Y-97134227D01*
X91260387Y-97142079D01*
X91281457Y-97152044D01*
X91301448Y-97164026D01*
X91320168Y-97177910D01*
X91337438Y-97193562D01*
X91353090Y-97210832D01*
X91366974Y-97229552D01*
X91378956Y-97249543D01*
X91388921Y-97270613D01*
X91396773Y-97292557D01*
X91402437Y-97315166D01*
X91405856Y-97338221D01*
X91407000Y-97361500D01*
X91407000Y-97936500D01*
X91405856Y-97959779D01*
X91402437Y-97982834D01*
X91396773Y-98005443D01*
X91388921Y-98027387D01*
X91378956Y-98048457D01*
X91366974Y-98068448D01*
X91353090Y-98087168D01*
X91337438Y-98104438D01*
X91320168Y-98120090D01*
X91301448Y-98133974D01*
X91281457Y-98145956D01*
X91260387Y-98155921D01*
X91238443Y-98163773D01*
X91215834Y-98169437D01*
X91192779Y-98172856D01*
X91169500Y-98174000D01*
X90694500Y-98174000D01*
X90671221Y-98172856D01*
X90648166Y-98169437D01*
X90625557Y-98163773D01*
X90603613Y-98155921D01*
X90582543Y-98145956D01*
X90562552Y-98133974D01*
X90543832Y-98120090D01*
X90526562Y-98104438D01*
X90510910Y-98087168D01*
X90497026Y-98068448D01*
X90485044Y-98048457D01*
X90475079Y-98027387D01*
X90467227Y-98005443D01*
X90461563Y-97982834D01*
X90458144Y-97959779D01*
X90457000Y-97936500D01*
X90457000Y-97361500D01*
X90458144Y-97338221D01*
X90461563Y-97315166D01*
X90467227Y-97292557D01*
X90475079Y-97270613D01*
X90485044Y-97249543D01*
X90497026Y-97229552D01*
X90510910Y-97210832D01*
X90526562Y-97193562D01*
X90543832Y-97177910D01*
X90562552Y-97164026D01*
X90582543Y-97152044D01*
X90603613Y-97142079D01*
X90625557Y-97134227D01*
X90648166Y-97128563D01*
X90671221Y-97125144D01*
X90694500Y-97124000D01*
X91169500Y-97124000D01*
X91192779Y-97125144D01*
G37*
G36*
X96602979Y-74648744D02*
G01*
X96626034Y-74652163D01*
X96648643Y-74657827D01*
X96670587Y-74665679D01*
X96691657Y-74675644D01*
X96711648Y-74687626D01*
X96730368Y-74701510D01*
X96747638Y-74717162D01*
X96763290Y-74734432D01*
X96777174Y-74753152D01*
X96789156Y-74773143D01*
X96799121Y-74794213D01*
X96806973Y-74816157D01*
X96812637Y-74838766D01*
X96816056Y-74861821D01*
X96817200Y-74885100D01*
X96817200Y-75460100D01*
X96816056Y-75483379D01*
X96812637Y-75506434D01*
X96806973Y-75529043D01*
X96799121Y-75550987D01*
X96789156Y-75572057D01*
X96777174Y-75592048D01*
X96763290Y-75610768D01*
X96747638Y-75628038D01*
X96730368Y-75643690D01*
X96711648Y-75657574D01*
X96691657Y-75669556D01*
X96670587Y-75679521D01*
X96648643Y-75687373D01*
X96626034Y-75693037D01*
X96602979Y-75696456D01*
X96579700Y-75697600D01*
X96104700Y-75697600D01*
X96081421Y-75696456D01*
X96058366Y-75693037D01*
X96035757Y-75687373D01*
X96013813Y-75679521D01*
X95992743Y-75669556D01*
X95972752Y-75657574D01*
X95954032Y-75643690D01*
X95936762Y-75628038D01*
X95921110Y-75610768D01*
X95907226Y-75592048D01*
X95895244Y-75572057D01*
X95885279Y-75550987D01*
X95877427Y-75529043D01*
X95871763Y-75506434D01*
X95868344Y-75483379D01*
X95867200Y-75460100D01*
X95867200Y-74885100D01*
X95868344Y-74861821D01*
X95871763Y-74838766D01*
X95877427Y-74816157D01*
X95885279Y-74794213D01*
X95895244Y-74773143D01*
X95907226Y-74753152D01*
X95921110Y-74734432D01*
X95936762Y-74717162D01*
X95954032Y-74701510D01*
X95972752Y-74687626D01*
X95992743Y-74675644D01*
X96013813Y-74665679D01*
X96035757Y-74657827D01*
X96058366Y-74652163D01*
X96081421Y-74648744D01*
X96104700Y-74647600D01*
X96579700Y-74647600D01*
X96602979Y-74648744D01*
G37*
G36*
X96602979Y-76398744D02*
G01*
X96626034Y-76402163D01*
X96648643Y-76407827D01*
X96670587Y-76415679D01*
X96691657Y-76425644D01*
X96711648Y-76437626D01*
X96730368Y-76451510D01*
X96747638Y-76467162D01*
X96763290Y-76484432D01*
X96777174Y-76503152D01*
X96789156Y-76523143D01*
X96799121Y-76544213D01*
X96806973Y-76566157D01*
X96812637Y-76588766D01*
X96816056Y-76611821D01*
X96817200Y-76635100D01*
X96817200Y-77210100D01*
X96816056Y-77233379D01*
X96812637Y-77256434D01*
X96806973Y-77279043D01*
X96799121Y-77300987D01*
X96789156Y-77322057D01*
X96777174Y-77342048D01*
X96763290Y-77360768D01*
X96747638Y-77378038D01*
X96730368Y-77393690D01*
X96711648Y-77407574D01*
X96691657Y-77419556D01*
X96670587Y-77429521D01*
X96648643Y-77437373D01*
X96626034Y-77443037D01*
X96602979Y-77446456D01*
X96579700Y-77447600D01*
X96104700Y-77447600D01*
X96081421Y-77446456D01*
X96058366Y-77443037D01*
X96035757Y-77437373D01*
X96013813Y-77429521D01*
X95992743Y-77419556D01*
X95972752Y-77407574D01*
X95954032Y-77393690D01*
X95936762Y-77378038D01*
X95921110Y-77360768D01*
X95907226Y-77342048D01*
X95895244Y-77322057D01*
X95885279Y-77300987D01*
X95877427Y-77279043D01*
X95871763Y-77256434D01*
X95868344Y-77233379D01*
X95867200Y-77210100D01*
X95867200Y-76635100D01*
X95868344Y-76611821D01*
X95871763Y-76588766D01*
X95877427Y-76566157D01*
X95885279Y-76544213D01*
X95895244Y-76523143D01*
X95907226Y-76503152D01*
X95921110Y-76484432D01*
X95936762Y-76467162D01*
X95954032Y-76451510D01*
X95972752Y-76437626D01*
X95992743Y-76425644D01*
X96013813Y-76415679D01*
X96035757Y-76407827D01*
X96058366Y-76402163D01*
X96081421Y-76398744D01*
X96104700Y-76397600D01*
X96579700Y-76397600D01*
X96602979Y-76398744D01*
G37*
G36*
X98685779Y-76424144D02*
G01*
X98708834Y-76427563D01*
X98731443Y-76433227D01*
X98753387Y-76441079D01*
X98774457Y-76451044D01*
X98794448Y-76463026D01*
X98813168Y-76476910D01*
X98830438Y-76492562D01*
X98846090Y-76509832D01*
X98859974Y-76528552D01*
X98871956Y-76548543D01*
X98881921Y-76569613D01*
X98889773Y-76591557D01*
X98895437Y-76614166D01*
X98898856Y-76637221D01*
X98900000Y-76660500D01*
X98900000Y-77235500D01*
X98898856Y-77258779D01*
X98895437Y-77281834D01*
X98889773Y-77304443D01*
X98881921Y-77326387D01*
X98871956Y-77347457D01*
X98859974Y-77367448D01*
X98846090Y-77386168D01*
X98830438Y-77403438D01*
X98813168Y-77419090D01*
X98794448Y-77432974D01*
X98774457Y-77444956D01*
X98753387Y-77454921D01*
X98731443Y-77462773D01*
X98708834Y-77468437D01*
X98685779Y-77471856D01*
X98662500Y-77473000D01*
X98187500Y-77473000D01*
X98164221Y-77471856D01*
X98141166Y-77468437D01*
X98118557Y-77462773D01*
X98096613Y-77454921D01*
X98075543Y-77444956D01*
X98055552Y-77432974D01*
X98036832Y-77419090D01*
X98019562Y-77403438D01*
X98003910Y-77386168D01*
X97990026Y-77367448D01*
X97978044Y-77347457D01*
X97968079Y-77326387D01*
X97960227Y-77304443D01*
X97954563Y-77281834D01*
X97951144Y-77258779D01*
X97950000Y-77235500D01*
X97950000Y-76660500D01*
X97951144Y-76637221D01*
X97954563Y-76614166D01*
X97960227Y-76591557D01*
X97968079Y-76569613D01*
X97978044Y-76548543D01*
X97990026Y-76528552D01*
X98003910Y-76509832D01*
X98019562Y-76492562D01*
X98036832Y-76476910D01*
X98055552Y-76463026D01*
X98075543Y-76451044D01*
X98096613Y-76441079D01*
X98118557Y-76433227D01*
X98141166Y-76427563D01*
X98164221Y-76424144D01*
X98187500Y-76423000D01*
X98662500Y-76423000D01*
X98685779Y-76424144D01*
G37*
G36*
X98685779Y-74674144D02*
G01*
X98708834Y-74677563D01*
X98731443Y-74683227D01*
X98753387Y-74691079D01*
X98774457Y-74701044D01*
X98794448Y-74713026D01*
X98813168Y-74726910D01*
X98830438Y-74742562D01*
X98846090Y-74759832D01*
X98859974Y-74778552D01*
X98871956Y-74798543D01*
X98881921Y-74819613D01*
X98889773Y-74841557D01*
X98895437Y-74864166D01*
X98898856Y-74887221D01*
X98900000Y-74910500D01*
X98900000Y-75485500D01*
X98898856Y-75508779D01*
X98895437Y-75531834D01*
X98889773Y-75554443D01*
X98881921Y-75576387D01*
X98871956Y-75597457D01*
X98859974Y-75617448D01*
X98846090Y-75636168D01*
X98830438Y-75653438D01*
X98813168Y-75669090D01*
X98794448Y-75682974D01*
X98774457Y-75694956D01*
X98753387Y-75704921D01*
X98731443Y-75712773D01*
X98708834Y-75718437D01*
X98685779Y-75721856D01*
X98662500Y-75723000D01*
X98187500Y-75723000D01*
X98164221Y-75721856D01*
X98141166Y-75718437D01*
X98118557Y-75712773D01*
X98096613Y-75704921D01*
X98075543Y-75694956D01*
X98055552Y-75682974D01*
X98036832Y-75669090D01*
X98019562Y-75653438D01*
X98003910Y-75636168D01*
X97990026Y-75617448D01*
X97978044Y-75597457D01*
X97968079Y-75576387D01*
X97960227Y-75554443D01*
X97954563Y-75531834D01*
X97951144Y-75508779D01*
X97950000Y-75485500D01*
X97950000Y-74910500D01*
X97951144Y-74887221D01*
X97954563Y-74864166D01*
X97960227Y-74841557D01*
X97968079Y-74819613D01*
X97978044Y-74798543D01*
X97990026Y-74778552D01*
X98003910Y-74759832D01*
X98019562Y-74742562D01*
X98036832Y-74726910D01*
X98055552Y-74713026D01*
X98075543Y-74701044D01*
X98096613Y-74691079D01*
X98118557Y-74683227D01*
X98141166Y-74677563D01*
X98164221Y-74674144D01*
X98187500Y-74673000D01*
X98662500Y-74673000D01*
X98685779Y-74674144D01*
G37*
G36*
X79595579Y-56244344D02*
G01*
X79618634Y-56247763D01*
X79641243Y-56253427D01*
X79663187Y-56261279D01*
X79684257Y-56271244D01*
X79704248Y-56283226D01*
X79722968Y-56297110D01*
X79740238Y-56312762D01*
X79755890Y-56330032D01*
X79769774Y-56348752D01*
X79781756Y-56368743D01*
X79791721Y-56389813D01*
X79799573Y-56411757D01*
X79805237Y-56434366D01*
X79808656Y-56457421D01*
X79809800Y-56480700D01*
X79809800Y-56955700D01*
X79808656Y-56978979D01*
X79805237Y-57002034D01*
X79799573Y-57024643D01*
X79791721Y-57046587D01*
X79781756Y-57067657D01*
X79769774Y-57087648D01*
X79755890Y-57106368D01*
X79740238Y-57123638D01*
X79722968Y-57139290D01*
X79704248Y-57153174D01*
X79684257Y-57165156D01*
X79663187Y-57175121D01*
X79641243Y-57182973D01*
X79618634Y-57188637D01*
X79595579Y-57192056D01*
X79572300Y-57193200D01*
X78997300Y-57193200D01*
X78974021Y-57192056D01*
X78950966Y-57188637D01*
X78928357Y-57182973D01*
X78906413Y-57175121D01*
X78885343Y-57165156D01*
X78865352Y-57153174D01*
X78846632Y-57139290D01*
X78829362Y-57123638D01*
X78813710Y-57106368D01*
X78799826Y-57087648D01*
X78787844Y-57067657D01*
X78777879Y-57046587D01*
X78770027Y-57024643D01*
X78764363Y-57002034D01*
X78760944Y-56978979D01*
X78759800Y-56955700D01*
X78759800Y-56480700D01*
X78760944Y-56457421D01*
X78764363Y-56434366D01*
X78770027Y-56411757D01*
X78777879Y-56389813D01*
X78787844Y-56368743D01*
X78799826Y-56348752D01*
X78813710Y-56330032D01*
X78829362Y-56312762D01*
X78846632Y-56297110D01*
X78865352Y-56283226D01*
X78885343Y-56271244D01*
X78906413Y-56261279D01*
X78928357Y-56253427D01*
X78950966Y-56247763D01*
X78974021Y-56244344D01*
X78997300Y-56243200D01*
X79572300Y-56243200D01*
X79595579Y-56244344D01*
G37*
G36*
X77845579Y-56244344D02*
G01*
X77868634Y-56247763D01*
X77891243Y-56253427D01*
X77913187Y-56261279D01*
X77934257Y-56271244D01*
X77954248Y-56283226D01*
X77972968Y-56297110D01*
X77990238Y-56312762D01*
X78005890Y-56330032D01*
X78019774Y-56348752D01*
X78031756Y-56368743D01*
X78041721Y-56389813D01*
X78049573Y-56411757D01*
X78055237Y-56434366D01*
X78058656Y-56457421D01*
X78059800Y-56480700D01*
X78059800Y-56955700D01*
X78058656Y-56978979D01*
X78055237Y-57002034D01*
X78049573Y-57024643D01*
X78041721Y-57046587D01*
X78031756Y-57067657D01*
X78019774Y-57087648D01*
X78005890Y-57106368D01*
X77990238Y-57123638D01*
X77972968Y-57139290D01*
X77954248Y-57153174D01*
X77934257Y-57165156D01*
X77913187Y-57175121D01*
X77891243Y-57182973D01*
X77868634Y-57188637D01*
X77845579Y-57192056D01*
X77822300Y-57193200D01*
X77247300Y-57193200D01*
X77224021Y-57192056D01*
X77200966Y-57188637D01*
X77178357Y-57182973D01*
X77156413Y-57175121D01*
X77135343Y-57165156D01*
X77115352Y-57153174D01*
X77096632Y-57139290D01*
X77079362Y-57123638D01*
X77063710Y-57106368D01*
X77049826Y-57087648D01*
X77037844Y-57067657D01*
X77027879Y-57046587D01*
X77020027Y-57024643D01*
X77014363Y-57002034D01*
X77010944Y-56978979D01*
X77009800Y-56955700D01*
X77009800Y-56480700D01*
X77010944Y-56457421D01*
X77014363Y-56434366D01*
X77020027Y-56411757D01*
X77027879Y-56389813D01*
X77037844Y-56368743D01*
X77049826Y-56348752D01*
X77063710Y-56330032D01*
X77079362Y-56312762D01*
X77096632Y-56297110D01*
X77115352Y-56283226D01*
X77135343Y-56271244D01*
X77156413Y-56261279D01*
X77178357Y-56253427D01*
X77200966Y-56247763D01*
X77224021Y-56244344D01*
X77247300Y-56243200D01*
X77822300Y-56243200D01*
X77845579Y-56244344D01*
G37*
G36*
X91790179Y-56218944D02*
G01*
X91813234Y-56222363D01*
X91835843Y-56228027D01*
X91857787Y-56235879D01*
X91878857Y-56245844D01*
X91898848Y-56257826D01*
X91917568Y-56271710D01*
X91934838Y-56287362D01*
X91950490Y-56304632D01*
X91964374Y-56323352D01*
X91976356Y-56343343D01*
X91986321Y-56364413D01*
X91994173Y-56386357D01*
X91999837Y-56408966D01*
X92003256Y-56432021D01*
X92004400Y-56455300D01*
X92004400Y-56930300D01*
X92003256Y-56953579D01*
X91999837Y-56976634D01*
X91994173Y-56999243D01*
X91986321Y-57021187D01*
X91976356Y-57042257D01*
X91964374Y-57062248D01*
X91950490Y-57080968D01*
X91934838Y-57098238D01*
X91917568Y-57113890D01*
X91898848Y-57127774D01*
X91878857Y-57139756D01*
X91857787Y-57149721D01*
X91835843Y-57157573D01*
X91813234Y-57163237D01*
X91790179Y-57166656D01*
X91766900Y-57167800D01*
X91191900Y-57167800D01*
X91168621Y-57166656D01*
X91145566Y-57163237D01*
X91122957Y-57157573D01*
X91101013Y-57149721D01*
X91079943Y-57139756D01*
X91059952Y-57127774D01*
X91041232Y-57113890D01*
X91023962Y-57098238D01*
X91008310Y-57080968D01*
X90994426Y-57062248D01*
X90982444Y-57042257D01*
X90972479Y-57021187D01*
X90964627Y-56999243D01*
X90958963Y-56976634D01*
X90955544Y-56953579D01*
X90954400Y-56930300D01*
X90954400Y-56455300D01*
X90955544Y-56432021D01*
X90958963Y-56408966D01*
X90964627Y-56386357D01*
X90972479Y-56364413D01*
X90982444Y-56343343D01*
X90994426Y-56323352D01*
X91008310Y-56304632D01*
X91023962Y-56287362D01*
X91041232Y-56271710D01*
X91059952Y-56257826D01*
X91079943Y-56245844D01*
X91101013Y-56235879D01*
X91122957Y-56228027D01*
X91145566Y-56222363D01*
X91168621Y-56218944D01*
X91191900Y-56217800D01*
X91766900Y-56217800D01*
X91790179Y-56218944D01*
G37*
G36*
X93540179Y-56218944D02*
G01*
X93563234Y-56222363D01*
X93585843Y-56228027D01*
X93607787Y-56235879D01*
X93628857Y-56245844D01*
X93648848Y-56257826D01*
X93667568Y-56271710D01*
X93684838Y-56287362D01*
X93700490Y-56304632D01*
X93714374Y-56323352D01*
X93726356Y-56343343D01*
X93736321Y-56364413D01*
X93744173Y-56386357D01*
X93749837Y-56408966D01*
X93753256Y-56432021D01*
X93754400Y-56455300D01*
X93754400Y-56930300D01*
X93753256Y-56953579D01*
X93749837Y-56976634D01*
X93744173Y-56999243D01*
X93736321Y-57021187D01*
X93726356Y-57042257D01*
X93714374Y-57062248D01*
X93700490Y-57080968D01*
X93684838Y-57098238D01*
X93667568Y-57113890D01*
X93648848Y-57127774D01*
X93628857Y-57139756D01*
X93607787Y-57149721D01*
X93585843Y-57157573D01*
X93563234Y-57163237D01*
X93540179Y-57166656D01*
X93516900Y-57167800D01*
X92941900Y-57167800D01*
X92918621Y-57166656D01*
X92895566Y-57163237D01*
X92872957Y-57157573D01*
X92851013Y-57149721D01*
X92829943Y-57139756D01*
X92809952Y-57127774D01*
X92791232Y-57113890D01*
X92773962Y-57098238D01*
X92758310Y-57080968D01*
X92744426Y-57062248D01*
X92732444Y-57042257D01*
X92722479Y-57021187D01*
X92714627Y-56999243D01*
X92708963Y-56976634D01*
X92705544Y-56953579D01*
X92704400Y-56930300D01*
X92704400Y-56455300D01*
X92705544Y-56432021D01*
X92708963Y-56408966D01*
X92714627Y-56386357D01*
X92722479Y-56364413D01*
X92732444Y-56343343D01*
X92744426Y-56323352D01*
X92758310Y-56304632D01*
X92773962Y-56287362D01*
X92791232Y-56271710D01*
X92809952Y-56257826D01*
X92829943Y-56245844D01*
X92851013Y-56235879D01*
X92872957Y-56228027D01*
X92895566Y-56222363D01*
X92918621Y-56218944D01*
X92941900Y-56217800D01*
X93516900Y-56217800D01*
X93540179Y-56218944D01*
G37*
G36*
X105836379Y-56244344D02*
G01*
X105859434Y-56247763D01*
X105882043Y-56253427D01*
X105903987Y-56261279D01*
X105925057Y-56271244D01*
X105945048Y-56283226D01*
X105963768Y-56297110D01*
X105981038Y-56312762D01*
X105996690Y-56330032D01*
X106010574Y-56348752D01*
X106022556Y-56368743D01*
X106032521Y-56389813D01*
X106040373Y-56411757D01*
X106046037Y-56434366D01*
X106049456Y-56457421D01*
X106050600Y-56480700D01*
X106050600Y-56955700D01*
X106049456Y-56978979D01*
X106046037Y-57002034D01*
X106040373Y-57024643D01*
X106032521Y-57046587D01*
X106022556Y-57067657D01*
X106010574Y-57087648D01*
X105996690Y-57106368D01*
X105981038Y-57123638D01*
X105963768Y-57139290D01*
X105945048Y-57153174D01*
X105925057Y-57165156D01*
X105903987Y-57175121D01*
X105882043Y-57182973D01*
X105859434Y-57188637D01*
X105836379Y-57192056D01*
X105813100Y-57193200D01*
X105238100Y-57193200D01*
X105214821Y-57192056D01*
X105191766Y-57188637D01*
X105169157Y-57182973D01*
X105147213Y-57175121D01*
X105126143Y-57165156D01*
X105106152Y-57153174D01*
X105087432Y-57139290D01*
X105070162Y-57123638D01*
X105054510Y-57106368D01*
X105040626Y-57087648D01*
X105028644Y-57067657D01*
X105018679Y-57046587D01*
X105010827Y-57024643D01*
X105005163Y-57002034D01*
X105001744Y-56978979D01*
X105000600Y-56955700D01*
X105000600Y-56480700D01*
X105001744Y-56457421D01*
X105005163Y-56434366D01*
X105010827Y-56411757D01*
X105018679Y-56389813D01*
X105028644Y-56368743D01*
X105040626Y-56348752D01*
X105054510Y-56330032D01*
X105070162Y-56312762D01*
X105087432Y-56297110D01*
X105106152Y-56283226D01*
X105126143Y-56271244D01*
X105147213Y-56261279D01*
X105169157Y-56253427D01*
X105191766Y-56247763D01*
X105214821Y-56244344D01*
X105238100Y-56243200D01*
X105813100Y-56243200D01*
X105836379Y-56244344D01*
G37*
G36*
X107586379Y-56244344D02*
G01*
X107609434Y-56247763D01*
X107632043Y-56253427D01*
X107653987Y-56261279D01*
X107675057Y-56271244D01*
X107695048Y-56283226D01*
X107713768Y-56297110D01*
X107731038Y-56312762D01*
X107746690Y-56330032D01*
X107760574Y-56348752D01*
X107772556Y-56368743D01*
X107782521Y-56389813D01*
X107790373Y-56411757D01*
X107796037Y-56434366D01*
X107799456Y-56457421D01*
X107800600Y-56480700D01*
X107800600Y-56955700D01*
X107799456Y-56978979D01*
X107796037Y-57002034D01*
X107790373Y-57024643D01*
X107782521Y-57046587D01*
X107772556Y-57067657D01*
X107760574Y-57087648D01*
X107746690Y-57106368D01*
X107731038Y-57123638D01*
X107713768Y-57139290D01*
X107695048Y-57153174D01*
X107675057Y-57165156D01*
X107653987Y-57175121D01*
X107632043Y-57182973D01*
X107609434Y-57188637D01*
X107586379Y-57192056D01*
X107563100Y-57193200D01*
X106988100Y-57193200D01*
X106964821Y-57192056D01*
X106941766Y-57188637D01*
X106919157Y-57182973D01*
X106897213Y-57175121D01*
X106876143Y-57165156D01*
X106856152Y-57153174D01*
X106837432Y-57139290D01*
X106820162Y-57123638D01*
X106804510Y-57106368D01*
X106790626Y-57087648D01*
X106778644Y-57067657D01*
X106768679Y-57046587D01*
X106760827Y-57024643D01*
X106755163Y-57002034D01*
X106751744Y-56978979D01*
X106750600Y-56955700D01*
X106750600Y-56480700D01*
X106751744Y-56457421D01*
X106755163Y-56434366D01*
X106760827Y-56411757D01*
X106768679Y-56389813D01*
X106778644Y-56368743D01*
X106790626Y-56348752D01*
X106804510Y-56330032D01*
X106820162Y-56312762D01*
X106837432Y-56297110D01*
X106856152Y-56283226D01*
X106876143Y-56271244D01*
X106897213Y-56261279D01*
X106919157Y-56253427D01*
X106941766Y-56247763D01*
X106964821Y-56244344D01*
X106988100Y-56243200D01*
X107563100Y-56243200D01*
X107586379Y-56244344D01*
G37*
G36*
X121708779Y-56142744D02*
G01*
X121731834Y-56146163D01*
X121754443Y-56151827D01*
X121776387Y-56159679D01*
X121797457Y-56169644D01*
X121817448Y-56181626D01*
X121836168Y-56195510D01*
X121853438Y-56211162D01*
X121869090Y-56228432D01*
X121882974Y-56247152D01*
X121894956Y-56267143D01*
X121904921Y-56288213D01*
X121912773Y-56310157D01*
X121918437Y-56332766D01*
X121921856Y-56355821D01*
X121923000Y-56379100D01*
X121923000Y-56854100D01*
X121921856Y-56877379D01*
X121918437Y-56900434D01*
X121912773Y-56923043D01*
X121904921Y-56944987D01*
X121894956Y-56966057D01*
X121882974Y-56986048D01*
X121869090Y-57004768D01*
X121853438Y-57022038D01*
X121836168Y-57037690D01*
X121817448Y-57051574D01*
X121797457Y-57063556D01*
X121776387Y-57073521D01*
X121754443Y-57081373D01*
X121731834Y-57087037D01*
X121708779Y-57090456D01*
X121685500Y-57091600D01*
X121110500Y-57091600D01*
X121087221Y-57090456D01*
X121064166Y-57087037D01*
X121041557Y-57081373D01*
X121019613Y-57073521D01*
X120998543Y-57063556D01*
X120978552Y-57051574D01*
X120959832Y-57037690D01*
X120942562Y-57022038D01*
X120926910Y-57004768D01*
X120913026Y-56986048D01*
X120901044Y-56966057D01*
X120891079Y-56944987D01*
X120883227Y-56923043D01*
X120877563Y-56900434D01*
X120874144Y-56877379D01*
X120873000Y-56854100D01*
X120873000Y-56379100D01*
X120874144Y-56355821D01*
X120877563Y-56332766D01*
X120883227Y-56310157D01*
X120891079Y-56288213D01*
X120901044Y-56267143D01*
X120913026Y-56247152D01*
X120926910Y-56228432D01*
X120942562Y-56211162D01*
X120959832Y-56195510D01*
X120978552Y-56181626D01*
X120998543Y-56169644D01*
X121019613Y-56159679D01*
X121041557Y-56151827D01*
X121064166Y-56146163D01*
X121087221Y-56142744D01*
X121110500Y-56141600D01*
X121685500Y-56141600D01*
X121708779Y-56142744D01*
G37*
G36*
X119958779Y-56142744D02*
G01*
X119981834Y-56146163D01*
X120004443Y-56151827D01*
X120026387Y-56159679D01*
X120047457Y-56169644D01*
X120067448Y-56181626D01*
X120086168Y-56195510D01*
X120103438Y-56211162D01*
X120119090Y-56228432D01*
X120132974Y-56247152D01*
X120144956Y-56267143D01*
X120154921Y-56288213D01*
X120162773Y-56310157D01*
X120168437Y-56332766D01*
X120171856Y-56355821D01*
X120173000Y-56379100D01*
X120173000Y-56854100D01*
X120171856Y-56877379D01*
X120168437Y-56900434D01*
X120162773Y-56923043D01*
X120154921Y-56944987D01*
X120144956Y-56966057D01*
X120132974Y-56986048D01*
X120119090Y-57004768D01*
X120103438Y-57022038D01*
X120086168Y-57037690D01*
X120067448Y-57051574D01*
X120047457Y-57063556D01*
X120026387Y-57073521D01*
X120004443Y-57081373D01*
X119981834Y-57087037D01*
X119958779Y-57090456D01*
X119935500Y-57091600D01*
X119360500Y-57091600D01*
X119337221Y-57090456D01*
X119314166Y-57087037D01*
X119291557Y-57081373D01*
X119269613Y-57073521D01*
X119248543Y-57063556D01*
X119228552Y-57051574D01*
X119209832Y-57037690D01*
X119192562Y-57022038D01*
X119176910Y-57004768D01*
X119163026Y-56986048D01*
X119151044Y-56966057D01*
X119141079Y-56944987D01*
X119133227Y-56923043D01*
X119127563Y-56900434D01*
X119124144Y-56877379D01*
X119123000Y-56854100D01*
X119123000Y-56379100D01*
X119124144Y-56355821D01*
X119127563Y-56332766D01*
X119133227Y-56310157D01*
X119141079Y-56288213D01*
X119151044Y-56267143D01*
X119163026Y-56247152D01*
X119176910Y-56228432D01*
X119192562Y-56211162D01*
X119209832Y-56195510D01*
X119228552Y-56181626D01*
X119248543Y-56169644D01*
X119269613Y-56159679D01*
X119291557Y-56151827D01*
X119314166Y-56146163D01*
X119337221Y-56142744D01*
X119360500Y-56141600D01*
X119935500Y-56141600D01*
X119958779Y-56142744D01*
G37*
G36*
X135907379Y-56180844D02*
G01*
X135930434Y-56184263D01*
X135953043Y-56189927D01*
X135974987Y-56197779D01*
X135996057Y-56207744D01*
X136016048Y-56219726D01*
X136034768Y-56233610D01*
X136052038Y-56249262D01*
X136067690Y-56266532D01*
X136081574Y-56285252D01*
X136093556Y-56305243D01*
X136103521Y-56326313D01*
X136111373Y-56348257D01*
X136117037Y-56370866D01*
X136120456Y-56393921D01*
X136121600Y-56417200D01*
X136121600Y-56892200D01*
X136120456Y-56915479D01*
X136117037Y-56938534D01*
X136111373Y-56961143D01*
X136103521Y-56983087D01*
X136093556Y-57004157D01*
X136081574Y-57024148D01*
X136067690Y-57042868D01*
X136052038Y-57060138D01*
X136034768Y-57075790D01*
X136016048Y-57089674D01*
X135996057Y-57101656D01*
X135974987Y-57111621D01*
X135953043Y-57119473D01*
X135930434Y-57125137D01*
X135907379Y-57128556D01*
X135884100Y-57129700D01*
X135309100Y-57129700D01*
X135285821Y-57128556D01*
X135262766Y-57125137D01*
X135240157Y-57119473D01*
X135218213Y-57111621D01*
X135197143Y-57101656D01*
X135177152Y-57089674D01*
X135158432Y-57075790D01*
X135141162Y-57060138D01*
X135125510Y-57042868D01*
X135111626Y-57024148D01*
X135099644Y-57004157D01*
X135089679Y-56983087D01*
X135081827Y-56961143D01*
X135076163Y-56938534D01*
X135072744Y-56915479D01*
X135071600Y-56892200D01*
X135071600Y-56417200D01*
X135072744Y-56393921D01*
X135076163Y-56370866D01*
X135081827Y-56348257D01*
X135089679Y-56326313D01*
X135099644Y-56305243D01*
X135111626Y-56285252D01*
X135125510Y-56266532D01*
X135141162Y-56249262D01*
X135158432Y-56233610D01*
X135177152Y-56219726D01*
X135197143Y-56207744D01*
X135218213Y-56197779D01*
X135240157Y-56189927D01*
X135262766Y-56184263D01*
X135285821Y-56180844D01*
X135309100Y-56179700D01*
X135884100Y-56179700D01*
X135907379Y-56180844D01*
G37*
G36*
X134157379Y-56180844D02*
G01*
X134180434Y-56184263D01*
X134203043Y-56189927D01*
X134224987Y-56197779D01*
X134246057Y-56207744D01*
X134266048Y-56219726D01*
X134284768Y-56233610D01*
X134302038Y-56249262D01*
X134317690Y-56266532D01*
X134331574Y-56285252D01*
X134343556Y-56305243D01*
X134353521Y-56326313D01*
X134361373Y-56348257D01*
X134367037Y-56370866D01*
X134370456Y-56393921D01*
X134371600Y-56417200D01*
X134371600Y-56892200D01*
X134370456Y-56915479D01*
X134367037Y-56938534D01*
X134361373Y-56961143D01*
X134353521Y-56983087D01*
X134343556Y-57004157D01*
X134331574Y-57024148D01*
X134317690Y-57042868D01*
X134302038Y-57060138D01*
X134284768Y-57075790D01*
X134266048Y-57089674D01*
X134246057Y-57101656D01*
X134224987Y-57111621D01*
X134203043Y-57119473D01*
X134180434Y-57125137D01*
X134157379Y-57128556D01*
X134134100Y-57129700D01*
X133559100Y-57129700D01*
X133535821Y-57128556D01*
X133512766Y-57125137D01*
X133490157Y-57119473D01*
X133468213Y-57111621D01*
X133447143Y-57101656D01*
X133427152Y-57089674D01*
X133408432Y-57075790D01*
X133391162Y-57060138D01*
X133375510Y-57042868D01*
X133361626Y-57024148D01*
X133349644Y-57004157D01*
X133339679Y-56983087D01*
X133331827Y-56961143D01*
X133326163Y-56938534D01*
X133322744Y-56915479D01*
X133321600Y-56892200D01*
X133321600Y-56417200D01*
X133322744Y-56393921D01*
X133326163Y-56370866D01*
X133331827Y-56348257D01*
X133339679Y-56326313D01*
X133349644Y-56305243D01*
X133361626Y-56285252D01*
X133375510Y-56266532D01*
X133391162Y-56249262D01*
X133408432Y-56233610D01*
X133427152Y-56219726D01*
X133447143Y-56207744D01*
X133468213Y-56197779D01*
X133490157Y-56189927D01*
X133512766Y-56184263D01*
X133535821Y-56180844D01*
X133559100Y-56179700D01*
X134134100Y-56179700D01*
X134157379Y-56180844D01*
G37*
G36*
X162046579Y-56193544D02*
G01*
X162069634Y-56196963D01*
X162092243Y-56202627D01*
X162114187Y-56210479D01*
X162135257Y-56220444D01*
X162155248Y-56232426D01*
X162173968Y-56246310D01*
X162191238Y-56261962D01*
X162206890Y-56279232D01*
X162220774Y-56297952D01*
X162232756Y-56317943D01*
X162242721Y-56339013D01*
X162250573Y-56360957D01*
X162256237Y-56383566D01*
X162259656Y-56406621D01*
X162260800Y-56429900D01*
X162260800Y-56904900D01*
X162259656Y-56928179D01*
X162256237Y-56951234D01*
X162250573Y-56973843D01*
X162242721Y-56995787D01*
X162232756Y-57016857D01*
X162220774Y-57036848D01*
X162206890Y-57055568D01*
X162191238Y-57072838D01*
X162173968Y-57088490D01*
X162155248Y-57102374D01*
X162135257Y-57114356D01*
X162114187Y-57124321D01*
X162092243Y-57132173D01*
X162069634Y-57137837D01*
X162046579Y-57141256D01*
X162023300Y-57142400D01*
X161448300Y-57142400D01*
X161425021Y-57141256D01*
X161401966Y-57137837D01*
X161379357Y-57132173D01*
X161357413Y-57124321D01*
X161336343Y-57114356D01*
X161316352Y-57102374D01*
X161297632Y-57088490D01*
X161280362Y-57072838D01*
X161264710Y-57055568D01*
X161250826Y-57036848D01*
X161238844Y-57016857D01*
X161228879Y-56995787D01*
X161221027Y-56973843D01*
X161215363Y-56951234D01*
X161211944Y-56928179D01*
X161210800Y-56904900D01*
X161210800Y-56429900D01*
X161211944Y-56406621D01*
X161215363Y-56383566D01*
X161221027Y-56360957D01*
X161228879Y-56339013D01*
X161238844Y-56317943D01*
X161250826Y-56297952D01*
X161264710Y-56279232D01*
X161280362Y-56261962D01*
X161297632Y-56246310D01*
X161316352Y-56232426D01*
X161336343Y-56220444D01*
X161357413Y-56210479D01*
X161379357Y-56202627D01*
X161401966Y-56196963D01*
X161425021Y-56193544D01*
X161448300Y-56192400D01*
X162023300Y-56192400D01*
X162046579Y-56193544D01*
G37*
G36*
X163796579Y-56193544D02*
G01*
X163819634Y-56196963D01*
X163842243Y-56202627D01*
X163864187Y-56210479D01*
X163885257Y-56220444D01*
X163905248Y-56232426D01*
X163923968Y-56246310D01*
X163941238Y-56261962D01*
X163956890Y-56279232D01*
X163970774Y-56297952D01*
X163982756Y-56317943D01*
X163992721Y-56339013D01*
X164000573Y-56360957D01*
X164006237Y-56383566D01*
X164009656Y-56406621D01*
X164010800Y-56429900D01*
X164010800Y-56904900D01*
X164009656Y-56928179D01*
X164006237Y-56951234D01*
X164000573Y-56973843D01*
X163992721Y-56995787D01*
X163982756Y-57016857D01*
X163970774Y-57036848D01*
X163956890Y-57055568D01*
X163941238Y-57072838D01*
X163923968Y-57088490D01*
X163905248Y-57102374D01*
X163885257Y-57114356D01*
X163864187Y-57124321D01*
X163842243Y-57132173D01*
X163819634Y-57137837D01*
X163796579Y-57141256D01*
X163773300Y-57142400D01*
X163198300Y-57142400D01*
X163175021Y-57141256D01*
X163151966Y-57137837D01*
X163129357Y-57132173D01*
X163107413Y-57124321D01*
X163086343Y-57114356D01*
X163066352Y-57102374D01*
X163047632Y-57088490D01*
X163030362Y-57072838D01*
X163014710Y-57055568D01*
X163000826Y-57036848D01*
X162988844Y-57016857D01*
X162978879Y-56995787D01*
X162971027Y-56973843D01*
X162965363Y-56951234D01*
X162961944Y-56928179D01*
X162960800Y-56904900D01*
X162960800Y-56429900D01*
X162961944Y-56406621D01*
X162965363Y-56383566D01*
X162971027Y-56360957D01*
X162978879Y-56339013D01*
X162988844Y-56317943D01*
X163000826Y-56297952D01*
X163014710Y-56279232D01*
X163030362Y-56261962D01*
X163047632Y-56246310D01*
X163066352Y-56232426D01*
X163086343Y-56220444D01*
X163107413Y-56210479D01*
X163129357Y-56202627D01*
X163151966Y-56196963D01*
X163175021Y-56193544D01*
X163198300Y-56192400D01*
X163773300Y-56192400D01*
X163796579Y-56193544D01*
G37*
G36*
X177868179Y-56142744D02*
G01*
X177891234Y-56146163D01*
X177913843Y-56151827D01*
X177935787Y-56159679D01*
X177956857Y-56169644D01*
X177976848Y-56181626D01*
X177995568Y-56195510D01*
X178012838Y-56211162D01*
X178028490Y-56228432D01*
X178042374Y-56247152D01*
X178054356Y-56267143D01*
X178064321Y-56288213D01*
X178072173Y-56310157D01*
X178077837Y-56332766D01*
X178081256Y-56355821D01*
X178082400Y-56379100D01*
X178082400Y-56854100D01*
X178081256Y-56877379D01*
X178077837Y-56900434D01*
X178072173Y-56923043D01*
X178064321Y-56944987D01*
X178054356Y-56966057D01*
X178042374Y-56986048D01*
X178028490Y-57004768D01*
X178012838Y-57022038D01*
X177995568Y-57037690D01*
X177976848Y-57051574D01*
X177956857Y-57063556D01*
X177935787Y-57073521D01*
X177913843Y-57081373D01*
X177891234Y-57087037D01*
X177868179Y-57090456D01*
X177844900Y-57091600D01*
X177269900Y-57091600D01*
X177246621Y-57090456D01*
X177223566Y-57087037D01*
X177200957Y-57081373D01*
X177179013Y-57073521D01*
X177157943Y-57063556D01*
X177137952Y-57051574D01*
X177119232Y-57037690D01*
X177101962Y-57022038D01*
X177086310Y-57004768D01*
X177072426Y-56986048D01*
X177060444Y-56966057D01*
X177050479Y-56944987D01*
X177042627Y-56923043D01*
X177036963Y-56900434D01*
X177033544Y-56877379D01*
X177032400Y-56854100D01*
X177032400Y-56379100D01*
X177033544Y-56355821D01*
X177036963Y-56332766D01*
X177042627Y-56310157D01*
X177050479Y-56288213D01*
X177060444Y-56267143D01*
X177072426Y-56247152D01*
X177086310Y-56228432D01*
X177101962Y-56211162D01*
X177119232Y-56195510D01*
X177137952Y-56181626D01*
X177157943Y-56169644D01*
X177179013Y-56159679D01*
X177200957Y-56151827D01*
X177223566Y-56146163D01*
X177246621Y-56142744D01*
X177269900Y-56141600D01*
X177844900Y-56141600D01*
X177868179Y-56142744D01*
G37*
G36*
X176118179Y-56142744D02*
G01*
X176141234Y-56146163D01*
X176163843Y-56151827D01*
X176185787Y-56159679D01*
X176206857Y-56169644D01*
X176226848Y-56181626D01*
X176245568Y-56195510D01*
X176262838Y-56211162D01*
X176278490Y-56228432D01*
X176292374Y-56247152D01*
X176304356Y-56267143D01*
X176314321Y-56288213D01*
X176322173Y-56310157D01*
X176327837Y-56332766D01*
X176331256Y-56355821D01*
X176332400Y-56379100D01*
X176332400Y-56854100D01*
X176331256Y-56877379D01*
X176327837Y-56900434D01*
X176322173Y-56923043D01*
X176314321Y-56944987D01*
X176304356Y-56966057D01*
X176292374Y-56986048D01*
X176278490Y-57004768D01*
X176262838Y-57022038D01*
X176245568Y-57037690D01*
X176226848Y-57051574D01*
X176206857Y-57063556D01*
X176185787Y-57073521D01*
X176163843Y-57081373D01*
X176141234Y-57087037D01*
X176118179Y-57090456D01*
X176094900Y-57091600D01*
X175519900Y-57091600D01*
X175496621Y-57090456D01*
X175473566Y-57087037D01*
X175450957Y-57081373D01*
X175429013Y-57073521D01*
X175407943Y-57063556D01*
X175387952Y-57051574D01*
X175369232Y-57037690D01*
X175351962Y-57022038D01*
X175336310Y-57004768D01*
X175322426Y-56986048D01*
X175310444Y-56966057D01*
X175300479Y-56944987D01*
X175292627Y-56923043D01*
X175286963Y-56900434D01*
X175283544Y-56877379D01*
X175282400Y-56854100D01*
X175282400Y-56379100D01*
X175283544Y-56355821D01*
X175286963Y-56332766D01*
X175292627Y-56310157D01*
X175300479Y-56288213D01*
X175310444Y-56267143D01*
X175322426Y-56247152D01*
X175336310Y-56228432D01*
X175351962Y-56211162D01*
X175369232Y-56195510D01*
X175387952Y-56181626D01*
X175407943Y-56169644D01*
X175429013Y-56159679D01*
X175450957Y-56151827D01*
X175473566Y-56146163D01*
X175496621Y-56142744D01*
X175519900Y-56141600D01*
X176094900Y-56141600D01*
X176118179Y-56142744D01*
G37*
G36*
X94264079Y-74697444D02*
G01*
X94287134Y-74700863D01*
X94309743Y-74706527D01*
X94331687Y-74714379D01*
X94352757Y-74724344D01*
X94372748Y-74736326D01*
X94391468Y-74750210D01*
X94408738Y-74765862D01*
X94424390Y-74783132D01*
X94438274Y-74801852D01*
X94450256Y-74821843D01*
X94460221Y-74842913D01*
X94468073Y-74864857D01*
X94473737Y-74887466D01*
X94477156Y-74910521D01*
X94478300Y-74933800D01*
X94478300Y-75408800D01*
X94477156Y-75432079D01*
X94473737Y-75455134D01*
X94468073Y-75477743D01*
X94460221Y-75499687D01*
X94450256Y-75520757D01*
X94438274Y-75540748D01*
X94424390Y-75559468D01*
X94408738Y-75576738D01*
X94391468Y-75592390D01*
X94372748Y-75606274D01*
X94352757Y-75618256D01*
X94331687Y-75628221D01*
X94309743Y-75636073D01*
X94287134Y-75641737D01*
X94264079Y-75645156D01*
X94240800Y-75646300D01*
X93665800Y-75646300D01*
X93642521Y-75645156D01*
X93619466Y-75641737D01*
X93596857Y-75636073D01*
X93574913Y-75628221D01*
X93553843Y-75618256D01*
X93533852Y-75606274D01*
X93515132Y-75592390D01*
X93497862Y-75576738D01*
X93482210Y-75559468D01*
X93468326Y-75540748D01*
X93456344Y-75520757D01*
X93446379Y-75499687D01*
X93438527Y-75477743D01*
X93432863Y-75455134D01*
X93429444Y-75432079D01*
X93428300Y-75408800D01*
X93428300Y-74933800D01*
X93429444Y-74910521D01*
X93432863Y-74887466D01*
X93438527Y-74864857D01*
X93446379Y-74842913D01*
X93456344Y-74821843D01*
X93468326Y-74801852D01*
X93482210Y-74783132D01*
X93497862Y-74765862D01*
X93515132Y-74750210D01*
X93533852Y-74736326D01*
X93553843Y-74724344D01*
X93574913Y-74714379D01*
X93596857Y-74706527D01*
X93619466Y-74700863D01*
X93642521Y-74697444D01*
X93665800Y-74696300D01*
X94240800Y-74696300D01*
X94264079Y-74697444D01*
G37*
G36*
X92514079Y-74697444D02*
G01*
X92537134Y-74700863D01*
X92559743Y-74706527D01*
X92581687Y-74714379D01*
X92602757Y-74724344D01*
X92622748Y-74736326D01*
X92641468Y-74750210D01*
X92658738Y-74765862D01*
X92674390Y-74783132D01*
X92688274Y-74801852D01*
X92700256Y-74821843D01*
X92710221Y-74842913D01*
X92718073Y-74864857D01*
X92723737Y-74887466D01*
X92727156Y-74910521D01*
X92728300Y-74933800D01*
X92728300Y-75408800D01*
X92727156Y-75432079D01*
X92723737Y-75455134D01*
X92718073Y-75477743D01*
X92710221Y-75499687D01*
X92700256Y-75520757D01*
X92688274Y-75540748D01*
X92674390Y-75559468D01*
X92658738Y-75576738D01*
X92641468Y-75592390D01*
X92622748Y-75606274D01*
X92602757Y-75618256D01*
X92581687Y-75628221D01*
X92559743Y-75636073D01*
X92537134Y-75641737D01*
X92514079Y-75645156D01*
X92490800Y-75646300D01*
X91915800Y-75646300D01*
X91892521Y-75645156D01*
X91869466Y-75641737D01*
X91846857Y-75636073D01*
X91824913Y-75628221D01*
X91803843Y-75618256D01*
X91783852Y-75606274D01*
X91765132Y-75592390D01*
X91747862Y-75576738D01*
X91732210Y-75559468D01*
X91718326Y-75540748D01*
X91706344Y-75520757D01*
X91696379Y-75499687D01*
X91688527Y-75477743D01*
X91682863Y-75455134D01*
X91679444Y-75432079D01*
X91678300Y-75408800D01*
X91678300Y-74933800D01*
X91679444Y-74910521D01*
X91682863Y-74887466D01*
X91688527Y-74864857D01*
X91696379Y-74842913D01*
X91706344Y-74821843D01*
X91718326Y-74801852D01*
X91732210Y-74783132D01*
X91747862Y-74765862D01*
X91765132Y-74750210D01*
X91783852Y-74736326D01*
X91803843Y-74724344D01*
X91824913Y-74714379D01*
X91846857Y-74706527D01*
X91869466Y-74700863D01*
X91892521Y-74697444D01*
X91915800Y-74696300D01*
X92490800Y-74696300D01*
X92514079Y-74697444D01*
G37*
G36*
X102988979Y-74684744D02*
G01*
X103012034Y-74688163D01*
X103034643Y-74693827D01*
X103056587Y-74701679D01*
X103077657Y-74711644D01*
X103097648Y-74723626D01*
X103116368Y-74737510D01*
X103133638Y-74753162D01*
X103149290Y-74770432D01*
X103163174Y-74789152D01*
X103175156Y-74809143D01*
X103185121Y-74830213D01*
X103192973Y-74852157D01*
X103198637Y-74874766D01*
X103202056Y-74897821D01*
X103203200Y-74921100D01*
X103203200Y-75396100D01*
X103202056Y-75419379D01*
X103198637Y-75442434D01*
X103192973Y-75465043D01*
X103185121Y-75486987D01*
X103175156Y-75508057D01*
X103163174Y-75528048D01*
X103149290Y-75546768D01*
X103133638Y-75564038D01*
X103116368Y-75579690D01*
X103097648Y-75593574D01*
X103077657Y-75605556D01*
X103056587Y-75615521D01*
X103034643Y-75623373D01*
X103012034Y-75629037D01*
X102988979Y-75632456D01*
X102965700Y-75633600D01*
X102390700Y-75633600D01*
X102367421Y-75632456D01*
X102344366Y-75629037D01*
X102321757Y-75623373D01*
X102299813Y-75615521D01*
X102278743Y-75605556D01*
X102258752Y-75593574D01*
X102240032Y-75579690D01*
X102222762Y-75564038D01*
X102207110Y-75546768D01*
X102193226Y-75528048D01*
X102181244Y-75508057D01*
X102171279Y-75486987D01*
X102163427Y-75465043D01*
X102157763Y-75442434D01*
X102154344Y-75419379D01*
X102153200Y-75396100D01*
X102153200Y-74921100D01*
X102154344Y-74897821D01*
X102157763Y-74874766D01*
X102163427Y-74852157D01*
X102171279Y-74830213D01*
X102181244Y-74809143D01*
X102193226Y-74789152D01*
X102207110Y-74770432D01*
X102222762Y-74753162D01*
X102240032Y-74737510D01*
X102258752Y-74723626D01*
X102278743Y-74711644D01*
X102299813Y-74701679D01*
X102321757Y-74693827D01*
X102344366Y-74688163D01*
X102367421Y-74684744D01*
X102390700Y-74683600D01*
X102965700Y-74683600D01*
X102988979Y-74684744D01*
G37*
G36*
X101238979Y-74684744D02*
G01*
X101262034Y-74688163D01*
X101284643Y-74693827D01*
X101306587Y-74701679D01*
X101327657Y-74711644D01*
X101347648Y-74723626D01*
X101366368Y-74737510D01*
X101383638Y-74753162D01*
X101399290Y-74770432D01*
X101413174Y-74789152D01*
X101425156Y-74809143D01*
X101435121Y-74830213D01*
X101442973Y-74852157D01*
X101448637Y-74874766D01*
X101452056Y-74897821D01*
X101453200Y-74921100D01*
X101453200Y-75396100D01*
X101452056Y-75419379D01*
X101448637Y-75442434D01*
X101442973Y-75465043D01*
X101435121Y-75486987D01*
X101425156Y-75508057D01*
X101413174Y-75528048D01*
X101399290Y-75546768D01*
X101383638Y-75564038D01*
X101366368Y-75579690D01*
X101347648Y-75593574D01*
X101327657Y-75605556D01*
X101306587Y-75615521D01*
X101284643Y-75623373D01*
X101262034Y-75629037D01*
X101238979Y-75632456D01*
X101215700Y-75633600D01*
X100640700Y-75633600D01*
X100617421Y-75632456D01*
X100594366Y-75629037D01*
X100571757Y-75623373D01*
X100549813Y-75615521D01*
X100528743Y-75605556D01*
X100508752Y-75593574D01*
X100490032Y-75579690D01*
X100472762Y-75564038D01*
X100457110Y-75546768D01*
X100443226Y-75528048D01*
X100431244Y-75508057D01*
X100421279Y-75486987D01*
X100413427Y-75465043D01*
X100407763Y-75442434D01*
X100404344Y-75419379D01*
X100403200Y-75396100D01*
X100403200Y-74921100D01*
X100404344Y-74897821D01*
X100407763Y-74874766D01*
X100413427Y-74852157D01*
X100421279Y-74830213D01*
X100431244Y-74809143D01*
X100443226Y-74789152D01*
X100457110Y-74770432D01*
X100472762Y-74753162D01*
X100490032Y-74737510D01*
X100508752Y-74723626D01*
X100528743Y-74711644D01*
X100549813Y-74701679D01*
X100571757Y-74693827D01*
X100594366Y-74688163D01*
X100617421Y-74684744D01*
X100640700Y-74683600D01*
X101215700Y-74683600D01*
X101238979Y-74684744D01*
G37*
G36*
X79646379Y-54263144D02*
G01*
X79669434Y-54266563D01*
X79692043Y-54272227D01*
X79713987Y-54280079D01*
X79735057Y-54290044D01*
X79755048Y-54302026D01*
X79773768Y-54315910D01*
X79791038Y-54331562D01*
X79806690Y-54348832D01*
X79820574Y-54367552D01*
X79832556Y-54387543D01*
X79842521Y-54408613D01*
X79850373Y-54430557D01*
X79856037Y-54453166D01*
X79859456Y-54476221D01*
X79860600Y-54499500D01*
X79860600Y-54974500D01*
X79859456Y-54997779D01*
X79856037Y-55020834D01*
X79850373Y-55043443D01*
X79842521Y-55065387D01*
X79832556Y-55086457D01*
X79820574Y-55106448D01*
X79806690Y-55125168D01*
X79791038Y-55142438D01*
X79773768Y-55158090D01*
X79755048Y-55171974D01*
X79735057Y-55183956D01*
X79713987Y-55193921D01*
X79692043Y-55201773D01*
X79669434Y-55207437D01*
X79646379Y-55210856D01*
X79623100Y-55212000D01*
X79048100Y-55212000D01*
X79024821Y-55210856D01*
X79001766Y-55207437D01*
X78979157Y-55201773D01*
X78957213Y-55193921D01*
X78936143Y-55183956D01*
X78916152Y-55171974D01*
X78897432Y-55158090D01*
X78880162Y-55142438D01*
X78864510Y-55125168D01*
X78850626Y-55106448D01*
X78838644Y-55086457D01*
X78828679Y-55065387D01*
X78820827Y-55043443D01*
X78815163Y-55020834D01*
X78811744Y-54997779D01*
X78810600Y-54974500D01*
X78810600Y-54499500D01*
X78811744Y-54476221D01*
X78815163Y-54453166D01*
X78820827Y-54430557D01*
X78828679Y-54408613D01*
X78838644Y-54387543D01*
X78850626Y-54367552D01*
X78864510Y-54348832D01*
X78880162Y-54331562D01*
X78897432Y-54315910D01*
X78916152Y-54302026D01*
X78936143Y-54290044D01*
X78957213Y-54280079D01*
X78979157Y-54272227D01*
X79001766Y-54266563D01*
X79024821Y-54263144D01*
X79048100Y-54262000D01*
X79623100Y-54262000D01*
X79646379Y-54263144D01*
G37*
G36*
X77896379Y-54263144D02*
G01*
X77919434Y-54266563D01*
X77942043Y-54272227D01*
X77963987Y-54280079D01*
X77985057Y-54290044D01*
X78005048Y-54302026D01*
X78023768Y-54315910D01*
X78041038Y-54331562D01*
X78056690Y-54348832D01*
X78070574Y-54367552D01*
X78082556Y-54387543D01*
X78092521Y-54408613D01*
X78100373Y-54430557D01*
X78106037Y-54453166D01*
X78109456Y-54476221D01*
X78110600Y-54499500D01*
X78110600Y-54974500D01*
X78109456Y-54997779D01*
X78106037Y-55020834D01*
X78100373Y-55043443D01*
X78092521Y-55065387D01*
X78082556Y-55086457D01*
X78070574Y-55106448D01*
X78056690Y-55125168D01*
X78041038Y-55142438D01*
X78023768Y-55158090D01*
X78005048Y-55171974D01*
X77985057Y-55183956D01*
X77963987Y-55193921D01*
X77942043Y-55201773D01*
X77919434Y-55207437D01*
X77896379Y-55210856D01*
X77873100Y-55212000D01*
X77298100Y-55212000D01*
X77274821Y-55210856D01*
X77251766Y-55207437D01*
X77229157Y-55201773D01*
X77207213Y-55193921D01*
X77186143Y-55183956D01*
X77166152Y-55171974D01*
X77147432Y-55158090D01*
X77130162Y-55142438D01*
X77114510Y-55125168D01*
X77100626Y-55106448D01*
X77088644Y-55086457D01*
X77078679Y-55065387D01*
X77070827Y-55043443D01*
X77065163Y-55020834D01*
X77061744Y-54997779D01*
X77060600Y-54974500D01*
X77060600Y-54499500D01*
X77061744Y-54476221D01*
X77065163Y-54453166D01*
X77070827Y-54430557D01*
X77078679Y-54408613D01*
X77088644Y-54387543D01*
X77100626Y-54367552D01*
X77114510Y-54348832D01*
X77130162Y-54331562D01*
X77147432Y-54315910D01*
X77166152Y-54302026D01*
X77186143Y-54290044D01*
X77207213Y-54280079D01*
X77229157Y-54272227D01*
X77251766Y-54266563D01*
X77274821Y-54263144D01*
X77298100Y-54262000D01*
X77873100Y-54262000D01*
X77896379Y-54263144D01*
G37*
G36*
X91840979Y-54237744D02*
G01*
X91864034Y-54241163D01*
X91886643Y-54246827D01*
X91908587Y-54254679D01*
X91929657Y-54264644D01*
X91949648Y-54276626D01*
X91968368Y-54290510D01*
X91985638Y-54306162D01*
X92001290Y-54323432D01*
X92015174Y-54342152D01*
X92027156Y-54362143D01*
X92037121Y-54383213D01*
X92044973Y-54405157D01*
X92050637Y-54427766D01*
X92054056Y-54450821D01*
X92055200Y-54474100D01*
X92055200Y-54949100D01*
X92054056Y-54972379D01*
X92050637Y-54995434D01*
X92044973Y-55018043D01*
X92037121Y-55039987D01*
X92027156Y-55061057D01*
X92015174Y-55081048D01*
X92001290Y-55099768D01*
X91985638Y-55117038D01*
X91968368Y-55132690D01*
X91949648Y-55146574D01*
X91929657Y-55158556D01*
X91908587Y-55168521D01*
X91886643Y-55176373D01*
X91864034Y-55182037D01*
X91840979Y-55185456D01*
X91817700Y-55186600D01*
X91242700Y-55186600D01*
X91219421Y-55185456D01*
X91196366Y-55182037D01*
X91173757Y-55176373D01*
X91151813Y-55168521D01*
X91130743Y-55158556D01*
X91110752Y-55146574D01*
X91092032Y-55132690D01*
X91074762Y-55117038D01*
X91059110Y-55099768D01*
X91045226Y-55081048D01*
X91033244Y-55061057D01*
X91023279Y-55039987D01*
X91015427Y-55018043D01*
X91009763Y-54995434D01*
X91006344Y-54972379D01*
X91005200Y-54949100D01*
X91005200Y-54474100D01*
X91006344Y-54450821D01*
X91009763Y-54427766D01*
X91015427Y-54405157D01*
X91023279Y-54383213D01*
X91033244Y-54362143D01*
X91045226Y-54342152D01*
X91059110Y-54323432D01*
X91074762Y-54306162D01*
X91092032Y-54290510D01*
X91110752Y-54276626D01*
X91130743Y-54264644D01*
X91151813Y-54254679D01*
X91173757Y-54246827D01*
X91196366Y-54241163D01*
X91219421Y-54237744D01*
X91242700Y-54236600D01*
X91817700Y-54236600D01*
X91840979Y-54237744D01*
G37*
G36*
X93590979Y-54237744D02*
G01*
X93614034Y-54241163D01*
X93636643Y-54246827D01*
X93658587Y-54254679D01*
X93679657Y-54264644D01*
X93699648Y-54276626D01*
X93718368Y-54290510D01*
X93735638Y-54306162D01*
X93751290Y-54323432D01*
X93765174Y-54342152D01*
X93777156Y-54362143D01*
X93787121Y-54383213D01*
X93794973Y-54405157D01*
X93800637Y-54427766D01*
X93804056Y-54450821D01*
X93805200Y-54474100D01*
X93805200Y-54949100D01*
X93804056Y-54972379D01*
X93800637Y-54995434D01*
X93794973Y-55018043D01*
X93787121Y-55039987D01*
X93777156Y-55061057D01*
X93765174Y-55081048D01*
X93751290Y-55099768D01*
X93735638Y-55117038D01*
X93718368Y-55132690D01*
X93699648Y-55146574D01*
X93679657Y-55158556D01*
X93658587Y-55168521D01*
X93636643Y-55176373D01*
X93614034Y-55182037D01*
X93590979Y-55185456D01*
X93567700Y-55186600D01*
X92992700Y-55186600D01*
X92969421Y-55185456D01*
X92946366Y-55182037D01*
X92923757Y-55176373D01*
X92901813Y-55168521D01*
X92880743Y-55158556D01*
X92860752Y-55146574D01*
X92842032Y-55132690D01*
X92824762Y-55117038D01*
X92809110Y-55099768D01*
X92795226Y-55081048D01*
X92783244Y-55061057D01*
X92773279Y-55039987D01*
X92765427Y-55018043D01*
X92759763Y-54995434D01*
X92756344Y-54972379D01*
X92755200Y-54949100D01*
X92755200Y-54474100D01*
X92756344Y-54450821D01*
X92759763Y-54427766D01*
X92765427Y-54405157D01*
X92773279Y-54383213D01*
X92783244Y-54362143D01*
X92795226Y-54342152D01*
X92809110Y-54323432D01*
X92824762Y-54306162D01*
X92842032Y-54290510D01*
X92860752Y-54276626D01*
X92880743Y-54264644D01*
X92901813Y-54254679D01*
X92923757Y-54246827D01*
X92946366Y-54241163D01*
X92969421Y-54237744D01*
X92992700Y-54236600D01*
X93567700Y-54236600D01*
X93590979Y-54237744D01*
G37*
G36*
X105861779Y-54263144D02*
G01*
X105884834Y-54266563D01*
X105907443Y-54272227D01*
X105929387Y-54280079D01*
X105950457Y-54290044D01*
X105970448Y-54302026D01*
X105989168Y-54315910D01*
X106006438Y-54331562D01*
X106022090Y-54348832D01*
X106035974Y-54367552D01*
X106047956Y-54387543D01*
X106057921Y-54408613D01*
X106065773Y-54430557D01*
X106071437Y-54453166D01*
X106074856Y-54476221D01*
X106076000Y-54499500D01*
X106076000Y-54974500D01*
X106074856Y-54997779D01*
X106071437Y-55020834D01*
X106065773Y-55043443D01*
X106057921Y-55065387D01*
X106047956Y-55086457D01*
X106035974Y-55106448D01*
X106022090Y-55125168D01*
X106006438Y-55142438D01*
X105989168Y-55158090D01*
X105970448Y-55171974D01*
X105950457Y-55183956D01*
X105929387Y-55193921D01*
X105907443Y-55201773D01*
X105884834Y-55207437D01*
X105861779Y-55210856D01*
X105838500Y-55212000D01*
X105263500Y-55212000D01*
X105240221Y-55210856D01*
X105217166Y-55207437D01*
X105194557Y-55201773D01*
X105172613Y-55193921D01*
X105151543Y-55183956D01*
X105131552Y-55171974D01*
X105112832Y-55158090D01*
X105095562Y-55142438D01*
X105079910Y-55125168D01*
X105066026Y-55106448D01*
X105054044Y-55086457D01*
X105044079Y-55065387D01*
X105036227Y-55043443D01*
X105030563Y-55020834D01*
X105027144Y-54997779D01*
X105026000Y-54974500D01*
X105026000Y-54499500D01*
X105027144Y-54476221D01*
X105030563Y-54453166D01*
X105036227Y-54430557D01*
X105044079Y-54408613D01*
X105054044Y-54387543D01*
X105066026Y-54367552D01*
X105079910Y-54348832D01*
X105095562Y-54331562D01*
X105112832Y-54315910D01*
X105131552Y-54302026D01*
X105151543Y-54290044D01*
X105172613Y-54280079D01*
X105194557Y-54272227D01*
X105217166Y-54266563D01*
X105240221Y-54263144D01*
X105263500Y-54262000D01*
X105838500Y-54262000D01*
X105861779Y-54263144D01*
G37*
G36*
X107611779Y-54263144D02*
G01*
X107634834Y-54266563D01*
X107657443Y-54272227D01*
X107679387Y-54280079D01*
X107700457Y-54290044D01*
X107720448Y-54302026D01*
X107739168Y-54315910D01*
X107756438Y-54331562D01*
X107772090Y-54348832D01*
X107785974Y-54367552D01*
X107797956Y-54387543D01*
X107807921Y-54408613D01*
X107815773Y-54430557D01*
X107821437Y-54453166D01*
X107824856Y-54476221D01*
X107826000Y-54499500D01*
X107826000Y-54974500D01*
X107824856Y-54997779D01*
X107821437Y-55020834D01*
X107815773Y-55043443D01*
X107807921Y-55065387D01*
X107797956Y-55086457D01*
X107785974Y-55106448D01*
X107772090Y-55125168D01*
X107756438Y-55142438D01*
X107739168Y-55158090D01*
X107720448Y-55171974D01*
X107700457Y-55183956D01*
X107679387Y-55193921D01*
X107657443Y-55201773D01*
X107634834Y-55207437D01*
X107611779Y-55210856D01*
X107588500Y-55212000D01*
X107013500Y-55212000D01*
X106990221Y-55210856D01*
X106967166Y-55207437D01*
X106944557Y-55201773D01*
X106922613Y-55193921D01*
X106901543Y-55183956D01*
X106881552Y-55171974D01*
X106862832Y-55158090D01*
X106845562Y-55142438D01*
X106829910Y-55125168D01*
X106816026Y-55106448D01*
X106804044Y-55086457D01*
X106794079Y-55065387D01*
X106786227Y-55043443D01*
X106780563Y-55020834D01*
X106777144Y-54997779D01*
X106776000Y-54974500D01*
X106776000Y-54499500D01*
X106777144Y-54476221D01*
X106780563Y-54453166D01*
X106786227Y-54430557D01*
X106794079Y-54408613D01*
X106804044Y-54387543D01*
X106816026Y-54367552D01*
X106829910Y-54348832D01*
X106845562Y-54331562D01*
X106862832Y-54315910D01*
X106881552Y-54302026D01*
X106901543Y-54290044D01*
X106922613Y-54280079D01*
X106944557Y-54272227D01*
X106967166Y-54266563D01*
X106990221Y-54263144D01*
X107013500Y-54262000D01*
X107588500Y-54262000D01*
X107611779Y-54263144D01*
G37*
G36*
X121734179Y-54263144D02*
G01*
X121757234Y-54266563D01*
X121779843Y-54272227D01*
X121801787Y-54280079D01*
X121822857Y-54290044D01*
X121842848Y-54302026D01*
X121861568Y-54315910D01*
X121878838Y-54331562D01*
X121894490Y-54348832D01*
X121908374Y-54367552D01*
X121920356Y-54387543D01*
X121930321Y-54408613D01*
X121938173Y-54430557D01*
X121943837Y-54453166D01*
X121947256Y-54476221D01*
X121948400Y-54499500D01*
X121948400Y-54974500D01*
X121947256Y-54997779D01*
X121943837Y-55020834D01*
X121938173Y-55043443D01*
X121930321Y-55065387D01*
X121920356Y-55086457D01*
X121908374Y-55106448D01*
X121894490Y-55125168D01*
X121878838Y-55142438D01*
X121861568Y-55158090D01*
X121842848Y-55171974D01*
X121822857Y-55183956D01*
X121801787Y-55193921D01*
X121779843Y-55201773D01*
X121757234Y-55207437D01*
X121734179Y-55210856D01*
X121710900Y-55212000D01*
X121135900Y-55212000D01*
X121112621Y-55210856D01*
X121089566Y-55207437D01*
X121066957Y-55201773D01*
X121045013Y-55193921D01*
X121023943Y-55183956D01*
X121003952Y-55171974D01*
X120985232Y-55158090D01*
X120967962Y-55142438D01*
X120952310Y-55125168D01*
X120938426Y-55106448D01*
X120926444Y-55086457D01*
X120916479Y-55065387D01*
X120908627Y-55043443D01*
X120902963Y-55020834D01*
X120899544Y-54997779D01*
X120898400Y-54974500D01*
X120898400Y-54499500D01*
X120899544Y-54476221D01*
X120902963Y-54453166D01*
X120908627Y-54430557D01*
X120916479Y-54408613D01*
X120926444Y-54387543D01*
X120938426Y-54367552D01*
X120952310Y-54348832D01*
X120967962Y-54331562D01*
X120985232Y-54315910D01*
X121003952Y-54302026D01*
X121023943Y-54290044D01*
X121045013Y-54280079D01*
X121066957Y-54272227D01*
X121089566Y-54266563D01*
X121112621Y-54263144D01*
X121135900Y-54262000D01*
X121710900Y-54262000D01*
X121734179Y-54263144D01*
G37*
G36*
X119984179Y-54263144D02*
G01*
X120007234Y-54266563D01*
X120029843Y-54272227D01*
X120051787Y-54280079D01*
X120072857Y-54290044D01*
X120092848Y-54302026D01*
X120111568Y-54315910D01*
X120128838Y-54331562D01*
X120144490Y-54348832D01*
X120158374Y-54367552D01*
X120170356Y-54387543D01*
X120180321Y-54408613D01*
X120188173Y-54430557D01*
X120193837Y-54453166D01*
X120197256Y-54476221D01*
X120198400Y-54499500D01*
X120198400Y-54974500D01*
X120197256Y-54997779D01*
X120193837Y-55020834D01*
X120188173Y-55043443D01*
X120180321Y-55065387D01*
X120170356Y-55086457D01*
X120158374Y-55106448D01*
X120144490Y-55125168D01*
X120128838Y-55142438D01*
X120111568Y-55158090D01*
X120092848Y-55171974D01*
X120072857Y-55183956D01*
X120051787Y-55193921D01*
X120029843Y-55201773D01*
X120007234Y-55207437D01*
X119984179Y-55210856D01*
X119960900Y-55212000D01*
X119385900Y-55212000D01*
X119362621Y-55210856D01*
X119339566Y-55207437D01*
X119316957Y-55201773D01*
X119295013Y-55193921D01*
X119273943Y-55183956D01*
X119253952Y-55171974D01*
X119235232Y-55158090D01*
X119217962Y-55142438D01*
X119202310Y-55125168D01*
X119188426Y-55106448D01*
X119176444Y-55086457D01*
X119166479Y-55065387D01*
X119158627Y-55043443D01*
X119152963Y-55020834D01*
X119149544Y-54997779D01*
X119148400Y-54974500D01*
X119148400Y-54499500D01*
X119149544Y-54476221D01*
X119152963Y-54453166D01*
X119158627Y-54430557D01*
X119166479Y-54408613D01*
X119176444Y-54387543D01*
X119188426Y-54367552D01*
X119202310Y-54348832D01*
X119217962Y-54331562D01*
X119235232Y-54315910D01*
X119253952Y-54302026D01*
X119273943Y-54290044D01*
X119295013Y-54280079D01*
X119316957Y-54272227D01*
X119339566Y-54266563D01*
X119362621Y-54263144D01*
X119385900Y-54262000D01*
X119960900Y-54262000D01*
X119984179Y-54263144D01*
G37*
G36*
X92512779Y-77250144D02*
G01*
X92535834Y-77253563D01*
X92558443Y-77259227D01*
X92580387Y-77267079D01*
X92601457Y-77277044D01*
X92621448Y-77289026D01*
X92640168Y-77302910D01*
X92657438Y-77318562D01*
X92673090Y-77335832D01*
X92686974Y-77354552D01*
X92698956Y-77374543D01*
X92708921Y-77395613D01*
X92716773Y-77417557D01*
X92722437Y-77440166D01*
X92725856Y-77463221D01*
X92727000Y-77486500D01*
X92727000Y-77961500D01*
X92725856Y-77984779D01*
X92722437Y-78007834D01*
X92716773Y-78030443D01*
X92708921Y-78052387D01*
X92698956Y-78073457D01*
X92686974Y-78093448D01*
X92673090Y-78112168D01*
X92657438Y-78129438D01*
X92640168Y-78145090D01*
X92621448Y-78158974D01*
X92601457Y-78170956D01*
X92580387Y-78180921D01*
X92558443Y-78188773D01*
X92535834Y-78194437D01*
X92512779Y-78197856D01*
X92489500Y-78199000D01*
X91914500Y-78199000D01*
X91891221Y-78197856D01*
X91868166Y-78194437D01*
X91845557Y-78188773D01*
X91823613Y-78180921D01*
X91802543Y-78170956D01*
X91782552Y-78158974D01*
X91763832Y-78145090D01*
X91746562Y-78129438D01*
X91730910Y-78112168D01*
X91717026Y-78093448D01*
X91705044Y-78073457D01*
X91695079Y-78052387D01*
X91687227Y-78030443D01*
X91681563Y-78007834D01*
X91678144Y-77984779D01*
X91677000Y-77961500D01*
X91677000Y-77486500D01*
X91678144Y-77463221D01*
X91681563Y-77440166D01*
X91687227Y-77417557D01*
X91695079Y-77395613D01*
X91705044Y-77374543D01*
X91717026Y-77354552D01*
X91730910Y-77335832D01*
X91746562Y-77318562D01*
X91763832Y-77302910D01*
X91782552Y-77289026D01*
X91802543Y-77277044D01*
X91823613Y-77267079D01*
X91845557Y-77259227D01*
X91868166Y-77253563D01*
X91891221Y-77250144D01*
X91914500Y-77249000D01*
X92489500Y-77249000D01*
X92512779Y-77250144D01*
G37*
G36*
X94262779Y-77250144D02*
G01*
X94285834Y-77253563D01*
X94308443Y-77259227D01*
X94330387Y-77267079D01*
X94351457Y-77277044D01*
X94371448Y-77289026D01*
X94390168Y-77302910D01*
X94407438Y-77318562D01*
X94423090Y-77335832D01*
X94436974Y-77354552D01*
X94448956Y-77374543D01*
X94458921Y-77395613D01*
X94466773Y-77417557D01*
X94472437Y-77440166D01*
X94475856Y-77463221D01*
X94477000Y-77486500D01*
X94477000Y-77961500D01*
X94475856Y-77984779D01*
X94472437Y-78007834D01*
X94466773Y-78030443D01*
X94458921Y-78052387D01*
X94448956Y-78073457D01*
X94436974Y-78093448D01*
X94423090Y-78112168D01*
X94407438Y-78129438D01*
X94390168Y-78145090D01*
X94371448Y-78158974D01*
X94351457Y-78170956D01*
X94330387Y-78180921D01*
X94308443Y-78188773D01*
X94285834Y-78194437D01*
X94262779Y-78197856D01*
X94239500Y-78199000D01*
X93664500Y-78199000D01*
X93641221Y-78197856D01*
X93618166Y-78194437D01*
X93595557Y-78188773D01*
X93573613Y-78180921D01*
X93552543Y-78170956D01*
X93532552Y-78158974D01*
X93513832Y-78145090D01*
X93496562Y-78129438D01*
X93480910Y-78112168D01*
X93467026Y-78093448D01*
X93455044Y-78073457D01*
X93445079Y-78052387D01*
X93437227Y-78030443D01*
X93431563Y-78007834D01*
X93428144Y-77984779D01*
X93427000Y-77961500D01*
X93427000Y-77486500D01*
X93428144Y-77463221D01*
X93431563Y-77440166D01*
X93437227Y-77417557D01*
X93445079Y-77395613D01*
X93455044Y-77374543D01*
X93467026Y-77354552D01*
X93480910Y-77335832D01*
X93496562Y-77318562D01*
X93513832Y-77302910D01*
X93532552Y-77289026D01*
X93552543Y-77277044D01*
X93573613Y-77267079D01*
X93595557Y-77259227D01*
X93618166Y-77253563D01*
X93641221Y-77250144D01*
X93664500Y-77249000D01*
X94239500Y-77249000D01*
X94262779Y-77250144D01*
G37*
G36*
X101250379Y-77250144D02*
G01*
X101273434Y-77253563D01*
X101296043Y-77259227D01*
X101317987Y-77267079D01*
X101339057Y-77277044D01*
X101359048Y-77289026D01*
X101377768Y-77302910D01*
X101395038Y-77318562D01*
X101410690Y-77335832D01*
X101424574Y-77354552D01*
X101436556Y-77374543D01*
X101446521Y-77395613D01*
X101454373Y-77417557D01*
X101460037Y-77440166D01*
X101463456Y-77463221D01*
X101464600Y-77486500D01*
X101464600Y-77961500D01*
X101463456Y-77984779D01*
X101460037Y-78007834D01*
X101454373Y-78030443D01*
X101446521Y-78052387D01*
X101436556Y-78073457D01*
X101424574Y-78093448D01*
X101410690Y-78112168D01*
X101395038Y-78129438D01*
X101377768Y-78145090D01*
X101359048Y-78158974D01*
X101339057Y-78170956D01*
X101317987Y-78180921D01*
X101296043Y-78188773D01*
X101273434Y-78194437D01*
X101250379Y-78197856D01*
X101227100Y-78199000D01*
X100652100Y-78199000D01*
X100628821Y-78197856D01*
X100605766Y-78194437D01*
X100583157Y-78188773D01*
X100561213Y-78180921D01*
X100540143Y-78170956D01*
X100520152Y-78158974D01*
X100501432Y-78145090D01*
X100484162Y-78129438D01*
X100468510Y-78112168D01*
X100454626Y-78093448D01*
X100442644Y-78073457D01*
X100432679Y-78052387D01*
X100424827Y-78030443D01*
X100419163Y-78007834D01*
X100415744Y-77984779D01*
X100414600Y-77961500D01*
X100414600Y-77486500D01*
X100415744Y-77463221D01*
X100419163Y-77440166D01*
X100424827Y-77417557D01*
X100432679Y-77395613D01*
X100442644Y-77374543D01*
X100454626Y-77354552D01*
X100468510Y-77335832D01*
X100484162Y-77318562D01*
X100501432Y-77302910D01*
X100520152Y-77289026D01*
X100540143Y-77277044D01*
X100561213Y-77267079D01*
X100583157Y-77259227D01*
X100605766Y-77253563D01*
X100628821Y-77250144D01*
X100652100Y-77249000D01*
X101227100Y-77249000D01*
X101250379Y-77250144D01*
G37*
G36*
X103000379Y-77250144D02*
G01*
X103023434Y-77253563D01*
X103046043Y-77259227D01*
X103067987Y-77267079D01*
X103089057Y-77277044D01*
X103109048Y-77289026D01*
X103127768Y-77302910D01*
X103145038Y-77318562D01*
X103160690Y-77335832D01*
X103174574Y-77354552D01*
X103186556Y-77374543D01*
X103196521Y-77395613D01*
X103204373Y-77417557D01*
X103210037Y-77440166D01*
X103213456Y-77463221D01*
X103214600Y-77486500D01*
X103214600Y-77961500D01*
X103213456Y-77984779D01*
X103210037Y-78007834D01*
X103204373Y-78030443D01*
X103196521Y-78052387D01*
X103186556Y-78073457D01*
X103174574Y-78093448D01*
X103160690Y-78112168D01*
X103145038Y-78129438D01*
X103127768Y-78145090D01*
X103109048Y-78158974D01*
X103089057Y-78170956D01*
X103067987Y-78180921D01*
X103046043Y-78188773D01*
X103023434Y-78194437D01*
X103000379Y-78197856D01*
X102977100Y-78199000D01*
X102402100Y-78199000D01*
X102378821Y-78197856D01*
X102355766Y-78194437D01*
X102333157Y-78188773D01*
X102311213Y-78180921D01*
X102290143Y-78170956D01*
X102270152Y-78158974D01*
X102251432Y-78145090D01*
X102234162Y-78129438D01*
X102218510Y-78112168D01*
X102204626Y-78093448D01*
X102192644Y-78073457D01*
X102182679Y-78052387D01*
X102174827Y-78030443D01*
X102169163Y-78007834D01*
X102165744Y-77984779D01*
X102164600Y-77961500D01*
X102164600Y-77486500D01*
X102165744Y-77463221D01*
X102169163Y-77440166D01*
X102174827Y-77417557D01*
X102182679Y-77395613D01*
X102192644Y-77374543D01*
X102204626Y-77354552D01*
X102218510Y-77335832D01*
X102234162Y-77318562D01*
X102251432Y-77302910D01*
X102270152Y-77289026D01*
X102290143Y-77277044D01*
X102311213Y-77267079D01*
X102333157Y-77259227D01*
X102355766Y-77253563D01*
X102378821Y-77250144D01*
X102402100Y-77249000D01*
X102977100Y-77249000D01*
X103000379Y-77250144D01*
G37*
G36*
X79620979Y-58200144D02*
G01*
X79644034Y-58203563D01*
X79666643Y-58209227D01*
X79688587Y-58217079D01*
X79709657Y-58227044D01*
X79729648Y-58239026D01*
X79748368Y-58252910D01*
X79765638Y-58268562D01*
X79781290Y-58285832D01*
X79795174Y-58304552D01*
X79807156Y-58324543D01*
X79817121Y-58345613D01*
X79824973Y-58367557D01*
X79830637Y-58390166D01*
X79834056Y-58413221D01*
X79835200Y-58436500D01*
X79835200Y-58911500D01*
X79834056Y-58934779D01*
X79830637Y-58957834D01*
X79824973Y-58980443D01*
X79817121Y-59002387D01*
X79807156Y-59023457D01*
X79795174Y-59043448D01*
X79781290Y-59062168D01*
X79765638Y-59079438D01*
X79748368Y-59095090D01*
X79729648Y-59108974D01*
X79709657Y-59120956D01*
X79688587Y-59130921D01*
X79666643Y-59138773D01*
X79644034Y-59144437D01*
X79620979Y-59147856D01*
X79597700Y-59149000D01*
X79022700Y-59149000D01*
X78999421Y-59147856D01*
X78976366Y-59144437D01*
X78953757Y-59138773D01*
X78931813Y-59130921D01*
X78910743Y-59120956D01*
X78890752Y-59108974D01*
X78872032Y-59095090D01*
X78854762Y-59079438D01*
X78839110Y-59062168D01*
X78825226Y-59043448D01*
X78813244Y-59023457D01*
X78803279Y-59002387D01*
X78795427Y-58980443D01*
X78789763Y-58957834D01*
X78786344Y-58934779D01*
X78785200Y-58911500D01*
X78785200Y-58436500D01*
X78786344Y-58413221D01*
X78789763Y-58390166D01*
X78795427Y-58367557D01*
X78803279Y-58345613D01*
X78813244Y-58324543D01*
X78825226Y-58304552D01*
X78839110Y-58285832D01*
X78854762Y-58268562D01*
X78872032Y-58252910D01*
X78890752Y-58239026D01*
X78910743Y-58227044D01*
X78931813Y-58217079D01*
X78953757Y-58209227D01*
X78976366Y-58203563D01*
X78999421Y-58200144D01*
X79022700Y-58199000D01*
X79597700Y-58199000D01*
X79620979Y-58200144D01*
G37*
G36*
X77870979Y-58200144D02*
G01*
X77894034Y-58203563D01*
X77916643Y-58209227D01*
X77938587Y-58217079D01*
X77959657Y-58227044D01*
X77979648Y-58239026D01*
X77998368Y-58252910D01*
X78015638Y-58268562D01*
X78031290Y-58285832D01*
X78045174Y-58304552D01*
X78057156Y-58324543D01*
X78067121Y-58345613D01*
X78074973Y-58367557D01*
X78080637Y-58390166D01*
X78084056Y-58413221D01*
X78085200Y-58436500D01*
X78085200Y-58911500D01*
X78084056Y-58934779D01*
X78080637Y-58957834D01*
X78074973Y-58980443D01*
X78067121Y-59002387D01*
X78057156Y-59023457D01*
X78045174Y-59043448D01*
X78031290Y-59062168D01*
X78015638Y-59079438D01*
X77998368Y-59095090D01*
X77979648Y-59108974D01*
X77959657Y-59120956D01*
X77938587Y-59130921D01*
X77916643Y-59138773D01*
X77894034Y-59144437D01*
X77870979Y-59147856D01*
X77847700Y-59149000D01*
X77272700Y-59149000D01*
X77249421Y-59147856D01*
X77226366Y-59144437D01*
X77203757Y-59138773D01*
X77181813Y-59130921D01*
X77160743Y-59120956D01*
X77140752Y-59108974D01*
X77122032Y-59095090D01*
X77104762Y-59079438D01*
X77089110Y-59062168D01*
X77075226Y-59043448D01*
X77063244Y-59023457D01*
X77053279Y-59002387D01*
X77045427Y-58980443D01*
X77039763Y-58957834D01*
X77036344Y-58934779D01*
X77035200Y-58911500D01*
X77035200Y-58436500D01*
X77036344Y-58413221D01*
X77039763Y-58390166D01*
X77045427Y-58367557D01*
X77053279Y-58345613D01*
X77063244Y-58324543D01*
X77075226Y-58304552D01*
X77089110Y-58285832D01*
X77104762Y-58268562D01*
X77122032Y-58252910D01*
X77140752Y-58239026D01*
X77160743Y-58227044D01*
X77181813Y-58217079D01*
X77203757Y-58209227D01*
X77226366Y-58203563D01*
X77249421Y-58200144D01*
X77272700Y-58199000D01*
X77847700Y-58199000D01*
X77870979Y-58200144D01*
G37*
G36*
X93565579Y-58136644D02*
G01*
X93588634Y-58140063D01*
X93611243Y-58145727D01*
X93633187Y-58153579D01*
X93654257Y-58163544D01*
X93674248Y-58175526D01*
X93692968Y-58189410D01*
X93710238Y-58205062D01*
X93725890Y-58222332D01*
X93739774Y-58241052D01*
X93751756Y-58261043D01*
X93761721Y-58282113D01*
X93769573Y-58304057D01*
X93775237Y-58326666D01*
X93778656Y-58349721D01*
X93779800Y-58373000D01*
X93779800Y-58848000D01*
X93778656Y-58871279D01*
X93775237Y-58894334D01*
X93769573Y-58916943D01*
X93761721Y-58938887D01*
X93751756Y-58959957D01*
X93739774Y-58979948D01*
X93725890Y-58998668D01*
X93710238Y-59015938D01*
X93692968Y-59031590D01*
X93674248Y-59045474D01*
X93654257Y-59057456D01*
X93633187Y-59067421D01*
X93611243Y-59075273D01*
X93588634Y-59080937D01*
X93565579Y-59084356D01*
X93542300Y-59085500D01*
X92967300Y-59085500D01*
X92944021Y-59084356D01*
X92920966Y-59080937D01*
X92898357Y-59075273D01*
X92876413Y-59067421D01*
X92855343Y-59057456D01*
X92835352Y-59045474D01*
X92816632Y-59031590D01*
X92799362Y-59015938D01*
X92783710Y-58998668D01*
X92769826Y-58979948D01*
X92757844Y-58959957D01*
X92747879Y-58938887D01*
X92740027Y-58916943D01*
X92734363Y-58894334D01*
X92730944Y-58871279D01*
X92729800Y-58848000D01*
X92729800Y-58373000D01*
X92730944Y-58349721D01*
X92734363Y-58326666D01*
X92740027Y-58304057D01*
X92747879Y-58282113D01*
X92757844Y-58261043D01*
X92769826Y-58241052D01*
X92783710Y-58222332D01*
X92799362Y-58205062D01*
X92816632Y-58189410D01*
X92835352Y-58175526D01*
X92855343Y-58163544D01*
X92876413Y-58153579D01*
X92898357Y-58145727D01*
X92920966Y-58140063D01*
X92944021Y-58136644D01*
X92967300Y-58135500D01*
X93542300Y-58135500D01*
X93565579Y-58136644D01*
G37*
G36*
X91815579Y-58136644D02*
G01*
X91838634Y-58140063D01*
X91861243Y-58145727D01*
X91883187Y-58153579D01*
X91904257Y-58163544D01*
X91924248Y-58175526D01*
X91942968Y-58189410D01*
X91960238Y-58205062D01*
X91975890Y-58222332D01*
X91989774Y-58241052D01*
X92001756Y-58261043D01*
X92011721Y-58282113D01*
X92019573Y-58304057D01*
X92025237Y-58326666D01*
X92028656Y-58349721D01*
X92029800Y-58373000D01*
X92029800Y-58848000D01*
X92028656Y-58871279D01*
X92025237Y-58894334D01*
X92019573Y-58916943D01*
X92011721Y-58938887D01*
X92001756Y-58959957D01*
X91989774Y-58979948D01*
X91975890Y-58998668D01*
X91960238Y-59015938D01*
X91942968Y-59031590D01*
X91924248Y-59045474D01*
X91904257Y-59057456D01*
X91883187Y-59067421D01*
X91861243Y-59075273D01*
X91838634Y-59080937D01*
X91815579Y-59084356D01*
X91792300Y-59085500D01*
X91217300Y-59085500D01*
X91194021Y-59084356D01*
X91170966Y-59080937D01*
X91148357Y-59075273D01*
X91126413Y-59067421D01*
X91105343Y-59057456D01*
X91085352Y-59045474D01*
X91066632Y-59031590D01*
X91049362Y-59015938D01*
X91033710Y-58998668D01*
X91019826Y-58979948D01*
X91007844Y-58959957D01*
X90997879Y-58938887D01*
X90990027Y-58916943D01*
X90984363Y-58894334D01*
X90980944Y-58871279D01*
X90979800Y-58848000D01*
X90979800Y-58373000D01*
X90980944Y-58349721D01*
X90984363Y-58326666D01*
X90990027Y-58304057D01*
X90997879Y-58282113D01*
X91007844Y-58261043D01*
X91019826Y-58241052D01*
X91033710Y-58222332D01*
X91049362Y-58205062D01*
X91066632Y-58189410D01*
X91085352Y-58175526D01*
X91105343Y-58163544D01*
X91126413Y-58153579D01*
X91148357Y-58145727D01*
X91170966Y-58140063D01*
X91194021Y-58136644D01*
X91217300Y-58135500D01*
X91792300Y-58135500D01*
X91815579Y-58136644D01*
G37*
G36*
X105836379Y-58174744D02*
G01*
X105859434Y-58178163D01*
X105882043Y-58183827D01*
X105903987Y-58191679D01*
X105925057Y-58201644D01*
X105945048Y-58213626D01*
X105963768Y-58227510D01*
X105981038Y-58243162D01*
X105996690Y-58260432D01*
X106010574Y-58279152D01*
X106022556Y-58299143D01*
X106032521Y-58320213D01*
X106040373Y-58342157D01*
X106046037Y-58364766D01*
X106049456Y-58387821D01*
X106050600Y-58411100D01*
X106050600Y-58886100D01*
X106049456Y-58909379D01*
X106046037Y-58932434D01*
X106040373Y-58955043D01*
X106032521Y-58976987D01*
X106022556Y-58998057D01*
X106010574Y-59018048D01*
X105996690Y-59036768D01*
X105981038Y-59054038D01*
X105963768Y-59069690D01*
X105945048Y-59083574D01*
X105925057Y-59095556D01*
X105903987Y-59105521D01*
X105882043Y-59113373D01*
X105859434Y-59119037D01*
X105836379Y-59122456D01*
X105813100Y-59123600D01*
X105238100Y-59123600D01*
X105214821Y-59122456D01*
X105191766Y-59119037D01*
X105169157Y-59113373D01*
X105147213Y-59105521D01*
X105126143Y-59095556D01*
X105106152Y-59083574D01*
X105087432Y-59069690D01*
X105070162Y-59054038D01*
X105054510Y-59036768D01*
X105040626Y-59018048D01*
X105028644Y-58998057D01*
X105018679Y-58976987D01*
X105010827Y-58955043D01*
X105005163Y-58932434D01*
X105001744Y-58909379D01*
X105000600Y-58886100D01*
X105000600Y-58411100D01*
X105001744Y-58387821D01*
X105005163Y-58364766D01*
X105010827Y-58342157D01*
X105018679Y-58320213D01*
X105028644Y-58299143D01*
X105040626Y-58279152D01*
X105054510Y-58260432D01*
X105070162Y-58243162D01*
X105087432Y-58227510D01*
X105106152Y-58213626D01*
X105126143Y-58201644D01*
X105147213Y-58191679D01*
X105169157Y-58183827D01*
X105191766Y-58178163D01*
X105214821Y-58174744D01*
X105238100Y-58173600D01*
X105813100Y-58173600D01*
X105836379Y-58174744D01*
G37*
G36*
X107586379Y-58174744D02*
G01*
X107609434Y-58178163D01*
X107632043Y-58183827D01*
X107653987Y-58191679D01*
X107675057Y-58201644D01*
X107695048Y-58213626D01*
X107713768Y-58227510D01*
X107731038Y-58243162D01*
X107746690Y-58260432D01*
X107760574Y-58279152D01*
X107772556Y-58299143D01*
X107782521Y-58320213D01*
X107790373Y-58342157D01*
X107796037Y-58364766D01*
X107799456Y-58387821D01*
X107800600Y-58411100D01*
X107800600Y-58886100D01*
X107799456Y-58909379D01*
X107796037Y-58932434D01*
X107790373Y-58955043D01*
X107782521Y-58976987D01*
X107772556Y-58998057D01*
X107760574Y-59018048D01*
X107746690Y-59036768D01*
X107731038Y-59054038D01*
X107713768Y-59069690D01*
X107695048Y-59083574D01*
X107675057Y-59095556D01*
X107653987Y-59105521D01*
X107632043Y-59113373D01*
X107609434Y-59119037D01*
X107586379Y-59122456D01*
X107563100Y-59123600D01*
X106988100Y-59123600D01*
X106964821Y-59122456D01*
X106941766Y-59119037D01*
X106919157Y-59113373D01*
X106897213Y-59105521D01*
X106876143Y-59095556D01*
X106856152Y-59083574D01*
X106837432Y-59069690D01*
X106820162Y-59054038D01*
X106804510Y-59036768D01*
X106790626Y-59018048D01*
X106778644Y-58998057D01*
X106768679Y-58976987D01*
X106760827Y-58955043D01*
X106755163Y-58932434D01*
X106751744Y-58909379D01*
X106750600Y-58886100D01*
X106750600Y-58411100D01*
X106751744Y-58387821D01*
X106755163Y-58364766D01*
X106760827Y-58342157D01*
X106768679Y-58320213D01*
X106778644Y-58299143D01*
X106790626Y-58279152D01*
X106804510Y-58260432D01*
X106820162Y-58243162D01*
X106837432Y-58227510D01*
X106856152Y-58213626D01*
X106876143Y-58201644D01*
X106897213Y-58191679D01*
X106919157Y-58183827D01*
X106941766Y-58178163D01*
X106964821Y-58174744D01*
X106988100Y-58173600D01*
X107563100Y-58173600D01*
X107586379Y-58174744D01*
G37*
G36*
X121708779Y-58174744D02*
G01*
X121731834Y-58178163D01*
X121754443Y-58183827D01*
X121776387Y-58191679D01*
X121797457Y-58201644D01*
X121817448Y-58213626D01*
X121836168Y-58227510D01*
X121853438Y-58243162D01*
X121869090Y-58260432D01*
X121882974Y-58279152D01*
X121894956Y-58299143D01*
X121904921Y-58320213D01*
X121912773Y-58342157D01*
X121918437Y-58364766D01*
X121921856Y-58387821D01*
X121923000Y-58411100D01*
X121923000Y-58886100D01*
X121921856Y-58909379D01*
X121918437Y-58932434D01*
X121912773Y-58955043D01*
X121904921Y-58976987D01*
X121894956Y-58998057D01*
X121882974Y-59018048D01*
X121869090Y-59036768D01*
X121853438Y-59054038D01*
X121836168Y-59069690D01*
X121817448Y-59083574D01*
X121797457Y-59095556D01*
X121776387Y-59105521D01*
X121754443Y-59113373D01*
X121731834Y-59119037D01*
X121708779Y-59122456D01*
X121685500Y-59123600D01*
X121110500Y-59123600D01*
X121087221Y-59122456D01*
X121064166Y-59119037D01*
X121041557Y-59113373D01*
X121019613Y-59105521D01*
X120998543Y-59095556D01*
X120978552Y-59083574D01*
X120959832Y-59069690D01*
X120942562Y-59054038D01*
X120926910Y-59036768D01*
X120913026Y-59018048D01*
X120901044Y-58998057D01*
X120891079Y-58976987D01*
X120883227Y-58955043D01*
X120877563Y-58932434D01*
X120874144Y-58909379D01*
X120873000Y-58886100D01*
X120873000Y-58411100D01*
X120874144Y-58387821D01*
X120877563Y-58364766D01*
X120883227Y-58342157D01*
X120891079Y-58320213D01*
X120901044Y-58299143D01*
X120913026Y-58279152D01*
X120926910Y-58260432D01*
X120942562Y-58243162D01*
X120959832Y-58227510D01*
X120978552Y-58213626D01*
X120998543Y-58201644D01*
X121019613Y-58191679D01*
X121041557Y-58183827D01*
X121064166Y-58178163D01*
X121087221Y-58174744D01*
X121110500Y-58173600D01*
X121685500Y-58173600D01*
X121708779Y-58174744D01*
G37*
G36*
X119958779Y-58174744D02*
G01*
X119981834Y-58178163D01*
X120004443Y-58183827D01*
X120026387Y-58191679D01*
X120047457Y-58201644D01*
X120067448Y-58213626D01*
X120086168Y-58227510D01*
X120103438Y-58243162D01*
X120119090Y-58260432D01*
X120132974Y-58279152D01*
X120144956Y-58299143D01*
X120154921Y-58320213D01*
X120162773Y-58342157D01*
X120168437Y-58364766D01*
X120171856Y-58387821D01*
X120173000Y-58411100D01*
X120173000Y-58886100D01*
X120171856Y-58909379D01*
X120168437Y-58932434D01*
X120162773Y-58955043D01*
X120154921Y-58976987D01*
X120144956Y-58998057D01*
X120132974Y-59018048D01*
X120119090Y-59036768D01*
X120103438Y-59054038D01*
X120086168Y-59069690D01*
X120067448Y-59083574D01*
X120047457Y-59095556D01*
X120026387Y-59105521D01*
X120004443Y-59113373D01*
X119981834Y-59119037D01*
X119958779Y-59122456D01*
X119935500Y-59123600D01*
X119360500Y-59123600D01*
X119337221Y-59122456D01*
X119314166Y-59119037D01*
X119291557Y-59113373D01*
X119269613Y-59105521D01*
X119248543Y-59095556D01*
X119228552Y-59083574D01*
X119209832Y-59069690D01*
X119192562Y-59054038D01*
X119176910Y-59036768D01*
X119163026Y-59018048D01*
X119151044Y-58998057D01*
X119141079Y-58976987D01*
X119133227Y-58955043D01*
X119127563Y-58932434D01*
X119124144Y-58909379D01*
X119123000Y-58886100D01*
X119123000Y-58411100D01*
X119124144Y-58387821D01*
X119127563Y-58364766D01*
X119133227Y-58342157D01*
X119141079Y-58320213D01*
X119151044Y-58299143D01*
X119163026Y-58279152D01*
X119176910Y-58260432D01*
X119192562Y-58243162D01*
X119209832Y-58227510D01*
X119228552Y-58213626D01*
X119248543Y-58201644D01*
X119269613Y-58191679D01*
X119291557Y-58183827D01*
X119314166Y-58178163D01*
X119337221Y-58174744D01*
X119360500Y-58173600D01*
X119935500Y-58173600D01*
X119958779Y-58174744D01*
G37*
G36*
X135920079Y-58212844D02*
G01*
X135943134Y-58216263D01*
X135965743Y-58221927D01*
X135987687Y-58229779D01*
X136008757Y-58239744D01*
X136028748Y-58251726D01*
X136047468Y-58265610D01*
X136064738Y-58281262D01*
X136080390Y-58298532D01*
X136094274Y-58317252D01*
X136106256Y-58337243D01*
X136116221Y-58358313D01*
X136124073Y-58380257D01*
X136129737Y-58402866D01*
X136133156Y-58425921D01*
X136134300Y-58449200D01*
X136134300Y-58924200D01*
X136133156Y-58947479D01*
X136129737Y-58970534D01*
X136124073Y-58993143D01*
X136116221Y-59015087D01*
X136106256Y-59036157D01*
X136094274Y-59056148D01*
X136080390Y-59074868D01*
X136064738Y-59092138D01*
X136047468Y-59107790D01*
X136028748Y-59121674D01*
X136008757Y-59133656D01*
X135987687Y-59143621D01*
X135965743Y-59151473D01*
X135943134Y-59157137D01*
X135920079Y-59160556D01*
X135896800Y-59161700D01*
X135321800Y-59161700D01*
X135298521Y-59160556D01*
X135275466Y-59157137D01*
X135252857Y-59151473D01*
X135230913Y-59143621D01*
X135209843Y-59133656D01*
X135189852Y-59121674D01*
X135171132Y-59107790D01*
X135153862Y-59092138D01*
X135138210Y-59074868D01*
X135124326Y-59056148D01*
X135112344Y-59036157D01*
X135102379Y-59015087D01*
X135094527Y-58993143D01*
X135088863Y-58970534D01*
X135085444Y-58947479D01*
X135084300Y-58924200D01*
X135084300Y-58449200D01*
X135085444Y-58425921D01*
X135088863Y-58402866D01*
X135094527Y-58380257D01*
X135102379Y-58358313D01*
X135112344Y-58337243D01*
X135124326Y-58317252D01*
X135138210Y-58298532D01*
X135153862Y-58281262D01*
X135171132Y-58265610D01*
X135189852Y-58251726D01*
X135209843Y-58239744D01*
X135230913Y-58229779D01*
X135252857Y-58221927D01*
X135275466Y-58216263D01*
X135298521Y-58212844D01*
X135321800Y-58211700D01*
X135896800Y-58211700D01*
X135920079Y-58212844D01*
G37*
G36*
X134170079Y-58212844D02*
G01*
X134193134Y-58216263D01*
X134215743Y-58221927D01*
X134237687Y-58229779D01*
X134258757Y-58239744D01*
X134278748Y-58251726D01*
X134297468Y-58265610D01*
X134314738Y-58281262D01*
X134330390Y-58298532D01*
X134344274Y-58317252D01*
X134356256Y-58337243D01*
X134366221Y-58358313D01*
X134374073Y-58380257D01*
X134379737Y-58402866D01*
X134383156Y-58425921D01*
X134384300Y-58449200D01*
X134384300Y-58924200D01*
X134383156Y-58947479D01*
X134379737Y-58970534D01*
X134374073Y-58993143D01*
X134366221Y-59015087D01*
X134356256Y-59036157D01*
X134344274Y-59056148D01*
X134330390Y-59074868D01*
X134314738Y-59092138D01*
X134297468Y-59107790D01*
X134278748Y-59121674D01*
X134258757Y-59133656D01*
X134237687Y-59143621D01*
X134215743Y-59151473D01*
X134193134Y-59157137D01*
X134170079Y-59160556D01*
X134146800Y-59161700D01*
X133571800Y-59161700D01*
X133548521Y-59160556D01*
X133525466Y-59157137D01*
X133502857Y-59151473D01*
X133480913Y-59143621D01*
X133459843Y-59133656D01*
X133439852Y-59121674D01*
X133421132Y-59107790D01*
X133403862Y-59092138D01*
X133388210Y-59074868D01*
X133374326Y-59056148D01*
X133362344Y-59036157D01*
X133352379Y-59015087D01*
X133344527Y-58993143D01*
X133338863Y-58970534D01*
X133335444Y-58947479D01*
X133334300Y-58924200D01*
X133334300Y-58449200D01*
X133335444Y-58425921D01*
X133338863Y-58402866D01*
X133344527Y-58380257D01*
X133352379Y-58358313D01*
X133362344Y-58337243D01*
X133374326Y-58317252D01*
X133388210Y-58298532D01*
X133403862Y-58281262D01*
X133421132Y-58265610D01*
X133439852Y-58251726D01*
X133459843Y-58239744D01*
X133480913Y-58229779D01*
X133502857Y-58221927D01*
X133525466Y-58216263D01*
X133548521Y-58212844D01*
X133571800Y-58211700D01*
X134146800Y-58211700D01*
X134170079Y-58212844D01*
G37*
G36*
X163810579Y-58200144D02*
G01*
X163833634Y-58203563D01*
X163856243Y-58209227D01*
X163878187Y-58217079D01*
X163899257Y-58227044D01*
X163919248Y-58239026D01*
X163937968Y-58252910D01*
X163955238Y-58268562D01*
X163970890Y-58285832D01*
X163984774Y-58304552D01*
X163996756Y-58324543D01*
X164006721Y-58345613D01*
X164014573Y-58367557D01*
X164020237Y-58390166D01*
X164023656Y-58413221D01*
X164024800Y-58436500D01*
X164024800Y-58911500D01*
X164023656Y-58934779D01*
X164020237Y-58957834D01*
X164014573Y-58980443D01*
X164006721Y-59002387D01*
X163996756Y-59023457D01*
X163984774Y-59043448D01*
X163970890Y-59062168D01*
X163955238Y-59079438D01*
X163937968Y-59095090D01*
X163919248Y-59108974D01*
X163899257Y-59120956D01*
X163878187Y-59130921D01*
X163856243Y-59138773D01*
X163833634Y-59144437D01*
X163810579Y-59147856D01*
X163787300Y-59149000D01*
X163212300Y-59149000D01*
X163189021Y-59147856D01*
X163165966Y-59144437D01*
X163143357Y-59138773D01*
X163121413Y-59130921D01*
X163100343Y-59120956D01*
X163080352Y-59108974D01*
X163061632Y-59095090D01*
X163044362Y-59079438D01*
X163028710Y-59062168D01*
X163014826Y-59043448D01*
X163002844Y-59023457D01*
X162992879Y-59002387D01*
X162985027Y-58980443D01*
X162979363Y-58957834D01*
X162975944Y-58934779D01*
X162974800Y-58911500D01*
X162974800Y-58436500D01*
X162975944Y-58413221D01*
X162979363Y-58390166D01*
X162985027Y-58367557D01*
X162992879Y-58345613D01*
X163002844Y-58324543D01*
X163014826Y-58304552D01*
X163028710Y-58285832D01*
X163044362Y-58268562D01*
X163061632Y-58252910D01*
X163080352Y-58239026D01*
X163100343Y-58227044D01*
X163121413Y-58217079D01*
X163143357Y-58209227D01*
X163165966Y-58203563D01*
X163189021Y-58200144D01*
X163212300Y-58199000D01*
X163787300Y-58199000D01*
X163810579Y-58200144D01*
G37*
G36*
X162060579Y-58200144D02*
G01*
X162083634Y-58203563D01*
X162106243Y-58209227D01*
X162128187Y-58217079D01*
X162149257Y-58227044D01*
X162169248Y-58239026D01*
X162187968Y-58252910D01*
X162205238Y-58268562D01*
X162220890Y-58285832D01*
X162234774Y-58304552D01*
X162246756Y-58324543D01*
X162256721Y-58345613D01*
X162264573Y-58367557D01*
X162270237Y-58390166D01*
X162273656Y-58413221D01*
X162274800Y-58436500D01*
X162274800Y-58911500D01*
X162273656Y-58934779D01*
X162270237Y-58957834D01*
X162264573Y-58980443D01*
X162256721Y-59002387D01*
X162246756Y-59023457D01*
X162234774Y-59043448D01*
X162220890Y-59062168D01*
X162205238Y-59079438D01*
X162187968Y-59095090D01*
X162169248Y-59108974D01*
X162149257Y-59120956D01*
X162128187Y-59130921D01*
X162106243Y-59138773D01*
X162083634Y-59144437D01*
X162060579Y-59147856D01*
X162037300Y-59149000D01*
X161462300Y-59149000D01*
X161439021Y-59147856D01*
X161415966Y-59144437D01*
X161393357Y-59138773D01*
X161371413Y-59130921D01*
X161350343Y-59120956D01*
X161330352Y-59108974D01*
X161311632Y-59095090D01*
X161294362Y-59079438D01*
X161278710Y-59062168D01*
X161264826Y-59043448D01*
X161252844Y-59023457D01*
X161242879Y-59002387D01*
X161235027Y-58980443D01*
X161229363Y-58957834D01*
X161225944Y-58934779D01*
X161224800Y-58911500D01*
X161224800Y-58436500D01*
X161225944Y-58413221D01*
X161229363Y-58390166D01*
X161235027Y-58367557D01*
X161242879Y-58345613D01*
X161252844Y-58324543D01*
X161264826Y-58304552D01*
X161278710Y-58285832D01*
X161294362Y-58268562D01*
X161311632Y-58252910D01*
X161330352Y-58239026D01*
X161350343Y-58227044D01*
X161371413Y-58217079D01*
X161393357Y-58209227D01*
X161415966Y-58203563D01*
X161439021Y-58200144D01*
X161462300Y-58199000D01*
X162037300Y-58199000D01*
X162060579Y-58200144D01*
G37*
G36*
X163847379Y-54237744D02*
G01*
X163870434Y-54241163D01*
X163893043Y-54246827D01*
X163914987Y-54254679D01*
X163936057Y-54264644D01*
X163956048Y-54276626D01*
X163974768Y-54290510D01*
X163992038Y-54306162D01*
X164007690Y-54323432D01*
X164021574Y-54342152D01*
X164033556Y-54362143D01*
X164043521Y-54383213D01*
X164051373Y-54405157D01*
X164057037Y-54427766D01*
X164060456Y-54450821D01*
X164061600Y-54474100D01*
X164061600Y-54949100D01*
X164060456Y-54972379D01*
X164057037Y-54995434D01*
X164051373Y-55018043D01*
X164043521Y-55039987D01*
X164033556Y-55061057D01*
X164021574Y-55081048D01*
X164007690Y-55099768D01*
X163992038Y-55117038D01*
X163974768Y-55132690D01*
X163956048Y-55146574D01*
X163936057Y-55158556D01*
X163914987Y-55168521D01*
X163893043Y-55176373D01*
X163870434Y-55182037D01*
X163847379Y-55185456D01*
X163824100Y-55186600D01*
X163249100Y-55186600D01*
X163225821Y-55185456D01*
X163202766Y-55182037D01*
X163180157Y-55176373D01*
X163158213Y-55168521D01*
X163137143Y-55158556D01*
X163117152Y-55146574D01*
X163098432Y-55132690D01*
X163081162Y-55117038D01*
X163065510Y-55099768D01*
X163051626Y-55081048D01*
X163039644Y-55061057D01*
X163029679Y-55039987D01*
X163021827Y-55018043D01*
X163016163Y-54995434D01*
X163012744Y-54972379D01*
X163011600Y-54949100D01*
X163011600Y-54474100D01*
X163012744Y-54450821D01*
X163016163Y-54427766D01*
X163021827Y-54405157D01*
X163029679Y-54383213D01*
X163039644Y-54362143D01*
X163051626Y-54342152D01*
X163065510Y-54323432D01*
X163081162Y-54306162D01*
X163098432Y-54290510D01*
X163117152Y-54276626D01*
X163137143Y-54264644D01*
X163158213Y-54254679D01*
X163180157Y-54246827D01*
X163202766Y-54241163D01*
X163225821Y-54237744D01*
X163249100Y-54236600D01*
X163824100Y-54236600D01*
X163847379Y-54237744D01*
G37*
G36*
X162097379Y-54237744D02*
G01*
X162120434Y-54241163D01*
X162143043Y-54246827D01*
X162164987Y-54254679D01*
X162186057Y-54264644D01*
X162206048Y-54276626D01*
X162224768Y-54290510D01*
X162242038Y-54306162D01*
X162257690Y-54323432D01*
X162271574Y-54342152D01*
X162283556Y-54362143D01*
X162293521Y-54383213D01*
X162301373Y-54405157D01*
X162307037Y-54427766D01*
X162310456Y-54450821D01*
X162311600Y-54474100D01*
X162311600Y-54949100D01*
X162310456Y-54972379D01*
X162307037Y-54995434D01*
X162301373Y-55018043D01*
X162293521Y-55039987D01*
X162283556Y-55061057D01*
X162271574Y-55081048D01*
X162257690Y-55099768D01*
X162242038Y-55117038D01*
X162224768Y-55132690D01*
X162206048Y-55146574D01*
X162186057Y-55158556D01*
X162164987Y-55168521D01*
X162143043Y-55176373D01*
X162120434Y-55182037D01*
X162097379Y-55185456D01*
X162074100Y-55186600D01*
X161499100Y-55186600D01*
X161475821Y-55185456D01*
X161452766Y-55182037D01*
X161430157Y-55176373D01*
X161408213Y-55168521D01*
X161387143Y-55158556D01*
X161367152Y-55146574D01*
X161348432Y-55132690D01*
X161331162Y-55117038D01*
X161315510Y-55099768D01*
X161301626Y-55081048D01*
X161289644Y-55061057D01*
X161279679Y-55039987D01*
X161271827Y-55018043D01*
X161266163Y-54995434D01*
X161262744Y-54972379D01*
X161261600Y-54949100D01*
X161261600Y-54474100D01*
X161262744Y-54450821D01*
X161266163Y-54427766D01*
X161271827Y-54405157D01*
X161279679Y-54383213D01*
X161289644Y-54362143D01*
X161301626Y-54342152D01*
X161315510Y-54323432D01*
X161331162Y-54306162D01*
X161348432Y-54290510D01*
X161367152Y-54276626D01*
X161387143Y-54264644D01*
X161408213Y-54254679D01*
X161430157Y-54246827D01*
X161452766Y-54241163D01*
X161475821Y-54237744D01*
X161499100Y-54236600D01*
X162074100Y-54236600D01*
X162097379Y-54237744D01*
G37*
G36*
X176168979Y-58200144D02*
G01*
X176192034Y-58203563D01*
X176214643Y-58209227D01*
X176236587Y-58217079D01*
X176257657Y-58227044D01*
X176277648Y-58239026D01*
X176296368Y-58252910D01*
X176313638Y-58268562D01*
X176329290Y-58285832D01*
X176343174Y-58304552D01*
X176355156Y-58324543D01*
X176365121Y-58345613D01*
X176372973Y-58367557D01*
X176378637Y-58390166D01*
X176382056Y-58413221D01*
X176383200Y-58436500D01*
X176383200Y-58911500D01*
X176382056Y-58934779D01*
X176378637Y-58957834D01*
X176372973Y-58980443D01*
X176365121Y-59002387D01*
X176355156Y-59023457D01*
X176343174Y-59043448D01*
X176329290Y-59062168D01*
X176313638Y-59079438D01*
X176296368Y-59095090D01*
X176277648Y-59108974D01*
X176257657Y-59120956D01*
X176236587Y-59130921D01*
X176214643Y-59138773D01*
X176192034Y-59144437D01*
X176168979Y-59147856D01*
X176145700Y-59149000D01*
X175570700Y-59149000D01*
X175547421Y-59147856D01*
X175524366Y-59144437D01*
X175501757Y-59138773D01*
X175479813Y-59130921D01*
X175458743Y-59120956D01*
X175438752Y-59108974D01*
X175420032Y-59095090D01*
X175402762Y-59079438D01*
X175387110Y-59062168D01*
X175373226Y-59043448D01*
X175361244Y-59023457D01*
X175351279Y-59002387D01*
X175343427Y-58980443D01*
X175337763Y-58957834D01*
X175334344Y-58934779D01*
X175333200Y-58911500D01*
X175333200Y-58436500D01*
X175334344Y-58413221D01*
X175337763Y-58390166D01*
X175343427Y-58367557D01*
X175351279Y-58345613D01*
X175361244Y-58324543D01*
X175373226Y-58304552D01*
X175387110Y-58285832D01*
X175402762Y-58268562D01*
X175420032Y-58252910D01*
X175438752Y-58239026D01*
X175458743Y-58227044D01*
X175479813Y-58217079D01*
X175501757Y-58209227D01*
X175524366Y-58203563D01*
X175547421Y-58200144D01*
X175570700Y-58199000D01*
X176145700Y-58199000D01*
X176168979Y-58200144D01*
G37*
G36*
X177918979Y-58200144D02*
G01*
X177942034Y-58203563D01*
X177964643Y-58209227D01*
X177986587Y-58217079D01*
X178007657Y-58227044D01*
X178027648Y-58239026D01*
X178046368Y-58252910D01*
X178063638Y-58268562D01*
X178079290Y-58285832D01*
X178093174Y-58304552D01*
X178105156Y-58324543D01*
X178115121Y-58345613D01*
X178122973Y-58367557D01*
X178128637Y-58390166D01*
X178132056Y-58413221D01*
X178133200Y-58436500D01*
X178133200Y-58911500D01*
X178132056Y-58934779D01*
X178128637Y-58957834D01*
X178122973Y-58980443D01*
X178115121Y-59002387D01*
X178105156Y-59023457D01*
X178093174Y-59043448D01*
X178079290Y-59062168D01*
X178063638Y-59079438D01*
X178046368Y-59095090D01*
X178027648Y-59108974D01*
X178007657Y-59120956D01*
X177986587Y-59130921D01*
X177964643Y-59138773D01*
X177942034Y-59144437D01*
X177918979Y-59147856D01*
X177895700Y-59149000D01*
X177320700Y-59149000D01*
X177297421Y-59147856D01*
X177274366Y-59144437D01*
X177251757Y-59138773D01*
X177229813Y-59130921D01*
X177208743Y-59120956D01*
X177188752Y-59108974D01*
X177170032Y-59095090D01*
X177152762Y-59079438D01*
X177137110Y-59062168D01*
X177123226Y-59043448D01*
X177111244Y-59023457D01*
X177101279Y-59002387D01*
X177093427Y-58980443D01*
X177087763Y-58957834D01*
X177084344Y-58934779D01*
X177083200Y-58911500D01*
X177083200Y-58436500D01*
X177084344Y-58413221D01*
X177087763Y-58390166D01*
X177093427Y-58367557D01*
X177101279Y-58345613D01*
X177111244Y-58324543D01*
X177123226Y-58304552D01*
X177137110Y-58285832D01*
X177152762Y-58268562D01*
X177170032Y-58252910D01*
X177188752Y-58239026D01*
X177208743Y-58227044D01*
X177229813Y-58217079D01*
X177251757Y-58209227D01*
X177274366Y-58203563D01*
X177297421Y-58200144D01*
X177320700Y-58199000D01*
X177895700Y-58199000D01*
X177918979Y-58200144D01*
G37*
G36*
X176143579Y-54237744D02*
G01*
X176166634Y-54241163D01*
X176189243Y-54246827D01*
X176211187Y-54254679D01*
X176232257Y-54264644D01*
X176252248Y-54276626D01*
X176270968Y-54290510D01*
X176288238Y-54306162D01*
X176303890Y-54323432D01*
X176317774Y-54342152D01*
X176329756Y-54362143D01*
X176339721Y-54383213D01*
X176347573Y-54405157D01*
X176353237Y-54427766D01*
X176356656Y-54450821D01*
X176357800Y-54474100D01*
X176357800Y-54949100D01*
X176356656Y-54972379D01*
X176353237Y-54995434D01*
X176347573Y-55018043D01*
X176339721Y-55039987D01*
X176329756Y-55061057D01*
X176317774Y-55081048D01*
X176303890Y-55099768D01*
X176288238Y-55117038D01*
X176270968Y-55132690D01*
X176252248Y-55146574D01*
X176232257Y-55158556D01*
X176211187Y-55168521D01*
X176189243Y-55176373D01*
X176166634Y-55182037D01*
X176143579Y-55185456D01*
X176120300Y-55186600D01*
X175545300Y-55186600D01*
X175522021Y-55185456D01*
X175498966Y-55182037D01*
X175476357Y-55176373D01*
X175454413Y-55168521D01*
X175433343Y-55158556D01*
X175413352Y-55146574D01*
X175394632Y-55132690D01*
X175377362Y-55117038D01*
X175361710Y-55099768D01*
X175347826Y-55081048D01*
X175335844Y-55061057D01*
X175325879Y-55039987D01*
X175318027Y-55018043D01*
X175312363Y-54995434D01*
X175308944Y-54972379D01*
X175307800Y-54949100D01*
X175307800Y-54474100D01*
X175308944Y-54450821D01*
X175312363Y-54427766D01*
X175318027Y-54405157D01*
X175325879Y-54383213D01*
X175335844Y-54362143D01*
X175347826Y-54342152D01*
X175361710Y-54323432D01*
X175377362Y-54306162D01*
X175394632Y-54290510D01*
X175413352Y-54276626D01*
X175433343Y-54264644D01*
X175454413Y-54254679D01*
X175476357Y-54246827D01*
X175498966Y-54241163D01*
X175522021Y-54237744D01*
X175545300Y-54236600D01*
X176120300Y-54236600D01*
X176143579Y-54237744D01*
G37*
G36*
X177893579Y-54237744D02*
G01*
X177916634Y-54241163D01*
X177939243Y-54246827D01*
X177961187Y-54254679D01*
X177982257Y-54264644D01*
X178002248Y-54276626D01*
X178020968Y-54290510D01*
X178038238Y-54306162D01*
X178053890Y-54323432D01*
X178067774Y-54342152D01*
X178079756Y-54362143D01*
X178089721Y-54383213D01*
X178097573Y-54405157D01*
X178103237Y-54427766D01*
X178106656Y-54450821D01*
X178107800Y-54474100D01*
X178107800Y-54949100D01*
X178106656Y-54972379D01*
X178103237Y-54995434D01*
X178097573Y-55018043D01*
X178089721Y-55039987D01*
X178079756Y-55061057D01*
X178067774Y-55081048D01*
X178053890Y-55099768D01*
X178038238Y-55117038D01*
X178020968Y-55132690D01*
X178002248Y-55146574D01*
X177982257Y-55158556D01*
X177961187Y-55168521D01*
X177939243Y-55176373D01*
X177916634Y-55182037D01*
X177893579Y-55185456D01*
X177870300Y-55186600D01*
X177295300Y-55186600D01*
X177272021Y-55185456D01*
X177248966Y-55182037D01*
X177226357Y-55176373D01*
X177204413Y-55168521D01*
X177183343Y-55158556D01*
X177163352Y-55146574D01*
X177144632Y-55132690D01*
X177127362Y-55117038D01*
X177111710Y-55099768D01*
X177097826Y-55081048D01*
X177085844Y-55061057D01*
X177075879Y-55039987D01*
X177068027Y-55018043D01*
X177062363Y-54995434D01*
X177058944Y-54972379D01*
X177057800Y-54949100D01*
X177057800Y-54474100D01*
X177058944Y-54450821D01*
X177062363Y-54427766D01*
X177068027Y-54405157D01*
X177075879Y-54383213D01*
X177085844Y-54362143D01*
X177097826Y-54342152D01*
X177111710Y-54323432D01*
X177127362Y-54306162D01*
X177144632Y-54290510D01*
X177163352Y-54276626D01*
X177183343Y-54264644D01*
X177204413Y-54254679D01*
X177226357Y-54246827D01*
X177248966Y-54241163D01*
X177272021Y-54237744D01*
X177295300Y-54236600D01*
X177870300Y-54236600D01*
X177893579Y-54237744D01*
G37*
D15*
X85471000Y-97663000D03*
X85471000Y-89789000D03*
X85471000Y-81915000D03*
D11*
G36*
X92639779Y-69249144D02*
G01*
X92662834Y-69252563D01*
X92685443Y-69258227D01*
X92707387Y-69266079D01*
X92728457Y-69276044D01*
X92748448Y-69288026D01*
X92767168Y-69301910D01*
X92784438Y-69317562D01*
X92800090Y-69334832D01*
X92813974Y-69353552D01*
X92825956Y-69373543D01*
X92835921Y-69394613D01*
X92843773Y-69416557D01*
X92849437Y-69439166D01*
X92852856Y-69462221D01*
X92854000Y-69485500D01*
X92854000Y-69960500D01*
X92852856Y-69983779D01*
X92849437Y-70006834D01*
X92843773Y-70029443D01*
X92835921Y-70051387D01*
X92825956Y-70072457D01*
X92813974Y-70092448D01*
X92800090Y-70111168D01*
X92784438Y-70128438D01*
X92767168Y-70144090D01*
X92748448Y-70157974D01*
X92728457Y-70169956D01*
X92707387Y-70179921D01*
X92685443Y-70187773D01*
X92662834Y-70193437D01*
X92639779Y-70196856D01*
X92616500Y-70198000D01*
X92041500Y-70198000D01*
X92018221Y-70196856D01*
X91995166Y-70193437D01*
X91972557Y-70187773D01*
X91950613Y-70179921D01*
X91929543Y-70169956D01*
X91909552Y-70157974D01*
X91890832Y-70144090D01*
X91873562Y-70128438D01*
X91857910Y-70111168D01*
X91844026Y-70092448D01*
X91832044Y-70072457D01*
X91822079Y-70051387D01*
X91814227Y-70029443D01*
X91808563Y-70006834D01*
X91805144Y-69983779D01*
X91804000Y-69960500D01*
X91804000Y-69485500D01*
X91805144Y-69462221D01*
X91808563Y-69439166D01*
X91814227Y-69416557D01*
X91822079Y-69394613D01*
X91832044Y-69373543D01*
X91844026Y-69353552D01*
X91857910Y-69334832D01*
X91873562Y-69317562D01*
X91890832Y-69301910D01*
X91909552Y-69288026D01*
X91929543Y-69276044D01*
X91950613Y-69266079D01*
X91972557Y-69258227D01*
X91995166Y-69252563D01*
X92018221Y-69249144D01*
X92041500Y-69248000D01*
X92616500Y-69248000D01*
X92639779Y-69249144D01*
G37*
G36*
X94389779Y-69249144D02*
G01*
X94412834Y-69252563D01*
X94435443Y-69258227D01*
X94457387Y-69266079D01*
X94478457Y-69276044D01*
X94498448Y-69288026D01*
X94517168Y-69301910D01*
X94534438Y-69317562D01*
X94550090Y-69334832D01*
X94563974Y-69353552D01*
X94575956Y-69373543D01*
X94585921Y-69394613D01*
X94593773Y-69416557D01*
X94599437Y-69439166D01*
X94602856Y-69462221D01*
X94604000Y-69485500D01*
X94604000Y-69960500D01*
X94602856Y-69983779D01*
X94599437Y-70006834D01*
X94593773Y-70029443D01*
X94585921Y-70051387D01*
X94575956Y-70072457D01*
X94563974Y-70092448D01*
X94550090Y-70111168D01*
X94534438Y-70128438D01*
X94517168Y-70144090D01*
X94498448Y-70157974D01*
X94478457Y-70169956D01*
X94457387Y-70179921D01*
X94435443Y-70187773D01*
X94412834Y-70193437D01*
X94389779Y-70196856D01*
X94366500Y-70198000D01*
X93791500Y-70198000D01*
X93768221Y-70196856D01*
X93745166Y-70193437D01*
X93722557Y-70187773D01*
X93700613Y-70179921D01*
X93679543Y-70169956D01*
X93659552Y-70157974D01*
X93640832Y-70144090D01*
X93623562Y-70128438D01*
X93607910Y-70111168D01*
X93594026Y-70092448D01*
X93582044Y-70072457D01*
X93572079Y-70051387D01*
X93564227Y-70029443D01*
X93558563Y-70006834D01*
X93555144Y-69983779D01*
X93554000Y-69960500D01*
X93554000Y-69485500D01*
X93555144Y-69462221D01*
X93558563Y-69439166D01*
X93564227Y-69416557D01*
X93572079Y-69394613D01*
X93582044Y-69373543D01*
X93594026Y-69353552D01*
X93607910Y-69334832D01*
X93623562Y-69317562D01*
X93640832Y-69301910D01*
X93659552Y-69288026D01*
X93679543Y-69276044D01*
X93700613Y-69266079D01*
X93722557Y-69258227D01*
X93745166Y-69252563D01*
X93768221Y-69249144D01*
X93791500Y-69248000D01*
X94366500Y-69248000D01*
X94389779Y-69249144D01*
G37*
G36*
X103097778Y-69122144D02*
G01*
X103120833Y-69125563D01*
X103143442Y-69131227D01*
X103165386Y-69139079D01*
X103186456Y-69149044D01*
X103206447Y-69161026D01*
X103225167Y-69174910D01*
X103242437Y-69190562D01*
X103258089Y-69207832D01*
X103271973Y-69226552D01*
X103283955Y-69246543D01*
X103293920Y-69267613D01*
X103301772Y-69289557D01*
X103307436Y-69312166D01*
X103310855Y-69335221D01*
X103311999Y-69358500D01*
X103311999Y-69833500D01*
X103310855Y-69856779D01*
X103307436Y-69879834D01*
X103301772Y-69902443D01*
X103293920Y-69924387D01*
X103283955Y-69945457D01*
X103271973Y-69965448D01*
X103258089Y-69984168D01*
X103242437Y-70001438D01*
X103225167Y-70017090D01*
X103206447Y-70030974D01*
X103186456Y-70042956D01*
X103165386Y-70052921D01*
X103143442Y-70060773D01*
X103120833Y-70066437D01*
X103097778Y-70069856D01*
X103074499Y-70071000D01*
X102499499Y-70071000D01*
X102476220Y-70069856D01*
X102453165Y-70066437D01*
X102430556Y-70060773D01*
X102408612Y-70052921D01*
X102387542Y-70042956D01*
X102367551Y-70030974D01*
X102348831Y-70017090D01*
X102331561Y-70001438D01*
X102315909Y-69984168D01*
X102302025Y-69965448D01*
X102290043Y-69945457D01*
X102280078Y-69924387D01*
X102272226Y-69902443D01*
X102266562Y-69879834D01*
X102263143Y-69856779D01*
X102261999Y-69833500D01*
X102261999Y-69358500D01*
X102263143Y-69335221D01*
X102266562Y-69312166D01*
X102272226Y-69289557D01*
X102280078Y-69267613D01*
X102290043Y-69246543D01*
X102302025Y-69226552D01*
X102315909Y-69207832D01*
X102331561Y-69190562D01*
X102348831Y-69174910D01*
X102367551Y-69161026D01*
X102387542Y-69149044D01*
X102408612Y-69139079D01*
X102430556Y-69131227D01*
X102453165Y-69125563D01*
X102476220Y-69122144D01*
X102499499Y-69121000D01*
X103074499Y-69121000D01*
X103097778Y-69122144D01*
G37*
G36*
X101347778Y-69122144D02*
G01*
X101370833Y-69125563D01*
X101393442Y-69131227D01*
X101415386Y-69139079D01*
X101436456Y-69149044D01*
X101456447Y-69161026D01*
X101475167Y-69174910D01*
X101492437Y-69190562D01*
X101508089Y-69207832D01*
X101521973Y-69226552D01*
X101533955Y-69246543D01*
X101543920Y-69267613D01*
X101551772Y-69289557D01*
X101557436Y-69312166D01*
X101560855Y-69335221D01*
X101561999Y-69358500D01*
X101561999Y-69833500D01*
X101560855Y-69856779D01*
X101557436Y-69879834D01*
X101551772Y-69902443D01*
X101543920Y-69924387D01*
X101533955Y-69945457D01*
X101521973Y-69965448D01*
X101508089Y-69984168D01*
X101492437Y-70001438D01*
X101475167Y-70017090D01*
X101456447Y-70030974D01*
X101436456Y-70042956D01*
X101415386Y-70052921D01*
X101393442Y-70060773D01*
X101370833Y-70066437D01*
X101347778Y-70069856D01*
X101324499Y-70071000D01*
X100749499Y-70071000D01*
X100726220Y-70069856D01*
X100703165Y-70066437D01*
X100680556Y-70060773D01*
X100658612Y-70052921D01*
X100637542Y-70042956D01*
X100617551Y-70030974D01*
X100598831Y-70017090D01*
X100581561Y-70001438D01*
X100565909Y-69984168D01*
X100552025Y-69965448D01*
X100540043Y-69945457D01*
X100530078Y-69924387D01*
X100522226Y-69902443D01*
X100516562Y-69879834D01*
X100513143Y-69856779D01*
X100511999Y-69833500D01*
X100511999Y-69358500D01*
X100513143Y-69335221D01*
X100516562Y-69312166D01*
X100522226Y-69289557D01*
X100530078Y-69267613D01*
X100540043Y-69246543D01*
X100552025Y-69226552D01*
X100565909Y-69207832D01*
X100581561Y-69190562D01*
X100598831Y-69174910D01*
X100617551Y-69161026D01*
X100637542Y-69149044D01*
X100658612Y-69139079D01*
X100680556Y-69131227D01*
X100703165Y-69125563D01*
X100726220Y-69122144D01*
X100749499Y-69121000D01*
X101324499Y-69121000D01*
X101347778Y-69122144D01*
G37*
G36*
X94307778Y-72050143D02*
G01*
X94330833Y-72053562D01*
X94353442Y-72059226D01*
X94375386Y-72067078D01*
X94396456Y-72077043D01*
X94416447Y-72089025D01*
X94435167Y-72102909D01*
X94452437Y-72118561D01*
X94468089Y-72135831D01*
X94481973Y-72154551D01*
X94493955Y-72174542D01*
X94503920Y-72195612D01*
X94511772Y-72217556D01*
X94517436Y-72240165D01*
X94520855Y-72263220D01*
X94521999Y-72286499D01*
X94521999Y-72761499D01*
X94520855Y-72784778D01*
X94517436Y-72807833D01*
X94511772Y-72830442D01*
X94503920Y-72852386D01*
X94493955Y-72873456D01*
X94481973Y-72893447D01*
X94468089Y-72912167D01*
X94452437Y-72929437D01*
X94435167Y-72945089D01*
X94416447Y-72958973D01*
X94396456Y-72970955D01*
X94375386Y-72980920D01*
X94353442Y-72988772D01*
X94330833Y-72994436D01*
X94307778Y-72997855D01*
X94284499Y-72998999D01*
X93709499Y-72998999D01*
X93686220Y-72997855D01*
X93663165Y-72994436D01*
X93640556Y-72988772D01*
X93618612Y-72980920D01*
X93597542Y-72970955D01*
X93577551Y-72958973D01*
X93558831Y-72945089D01*
X93541561Y-72929437D01*
X93525909Y-72912167D01*
X93512025Y-72893447D01*
X93500043Y-72873456D01*
X93490078Y-72852386D01*
X93482226Y-72830442D01*
X93476562Y-72807833D01*
X93473143Y-72784778D01*
X93471999Y-72761499D01*
X93471999Y-72286499D01*
X93473143Y-72263220D01*
X93476562Y-72240165D01*
X93482226Y-72217556D01*
X93490078Y-72195612D01*
X93500043Y-72174542D01*
X93512025Y-72154551D01*
X93525909Y-72135831D01*
X93541561Y-72118561D01*
X93558831Y-72102909D01*
X93577551Y-72089025D01*
X93597542Y-72077043D01*
X93618612Y-72067078D01*
X93640556Y-72059226D01*
X93663165Y-72053562D01*
X93686220Y-72050143D01*
X93709499Y-72048999D01*
X94284499Y-72048999D01*
X94307778Y-72050143D01*
G37*
G36*
X92557778Y-72050143D02*
G01*
X92580833Y-72053562D01*
X92603442Y-72059226D01*
X92625386Y-72067078D01*
X92646456Y-72077043D01*
X92666447Y-72089025D01*
X92685167Y-72102909D01*
X92702437Y-72118561D01*
X92718089Y-72135831D01*
X92731973Y-72154551D01*
X92743955Y-72174542D01*
X92753920Y-72195612D01*
X92761772Y-72217556D01*
X92767436Y-72240165D01*
X92770855Y-72263220D01*
X92771999Y-72286499D01*
X92771999Y-72761499D01*
X92770855Y-72784778D01*
X92767436Y-72807833D01*
X92761772Y-72830442D01*
X92753920Y-72852386D01*
X92743955Y-72873456D01*
X92731973Y-72893447D01*
X92718089Y-72912167D01*
X92702437Y-72929437D01*
X92685167Y-72945089D01*
X92666447Y-72958973D01*
X92646456Y-72970955D01*
X92625386Y-72980920D01*
X92603442Y-72988772D01*
X92580833Y-72994436D01*
X92557778Y-72997855D01*
X92534499Y-72998999D01*
X91959499Y-72998999D01*
X91936220Y-72997855D01*
X91913165Y-72994436D01*
X91890556Y-72988772D01*
X91868612Y-72980920D01*
X91847542Y-72970955D01*
X91827551Y-72958973D01*
X91808831Y-72945089D01*
X91791561Y-72929437D01*
X91775909Y-72912167D01*
X91762025Y-72893447D01*
X91750043Y-72873456D01*
X91740078Y-72852386D01*
X91732226Y-72830442D01*
X91726562Y-72807833D01*
X91723143Y-72784778D01*
X91721999Y-72761499D01*
X91721999Y-72286499D01*
X91723143Y-72263220D01*
X91726562Y-72240165D01*
X91732226Y-72217556D01*
X91740078Y-72195612D01*
X91750043Y-72174542D01*
X91762025Y-72154551D01*
X91775909Y-72135831D01*
X91791561Y-72118561D01*
X91808831Y-72102909D01*
X91827551Y-72089025D01*
X91847542Y-72077043D01*
X91868612Y-72067078D01*
X91890556Y-72059226D01*
X91913165Y-72053562D01*
X91936220Y-72050143D01*
X91959499Y-72048999D01*
X92534499Y-72048999D01*
X92557778Y-72050143D01*
G37*
G36*
X101347778Y-71883143D02*
G01*
X101370833Y-71886562D01*
X101393442Y-71892226D01*
X101415386Y-71900078D01*
X101436456Y-71910043D01*
X101456447Y-71922025D01*
X101475167Y-71935909D01*
X101492437Y-71951561D01*
X101508089Y-71968831D01*
X101521973Y-71987551D01*
X101533955Y-72007542D01*
X101543920Y-72028612D01*
X101551772Y-72050556D01*
X101557436Y-72073165D01*
X101560855Y-72096220D01*
X101561999Y-72119499D01*
X101561999Y-72594499D01*
X101560855Y-72617778D01*
X101557436Y-72640833D01*
X101551772Y-72663442D01*
X101543920Y-72685386D01*
X101533955Y-72706456D01*
X101521973Y-72726447D01*
X101508089Y-72745167D01*
X101492437Y-72762437D01*
X101475167Y-72778089D01*
X101456447Y-72791973D01*
X101436456Y-72803955D01*
X101415386Y-72813920D01*
X101393442Y-72821772D01*
X101370833Y-72827436D01*
X101347778Y-72830855D01*
X101324499Y-72831999D01*
X100749499Y-72831999D01*
X100726220Y-72830855D01*
X100703165Y-72827436D01*
X100680556Y-72821772D01*
X100658612Y-72813920D01*
X100637542Y-72803955D01*
X100617551Y-72791973D01*
X100598831Y-72778089D01*
X100581561Y-72762437D01*
X100565909Y-72745167D01*
X100552025Y-72726447D01*
X100540043Y-72706456D01*
X100530078Y-72685386D01*
X100522226Y-72663442D01*
X100516562Y-72640833D01*
X100513143Y-72617778D01*
X100511999Y-72594499D01*
X100511999Y-72119499D01*
X100513143Y-72096220D01*
X100516562Y-72073165D01*
X100522226Y-72050556D01*
X100530078Y-72028612D01*
X100540043Y-72007542D01*
X100552025Y-71987551D01*
X100565909Y-71968831D01*
X100581561Y-71951561D01*
X100598831Y-71935909D01*
X100617551Y-71922025D01*
X100637542Y-71910043D01*
X100658612Y-71900078D01*
X100680556Y-71892226D01*
X100703165Y-71886562D01*
X100726220Y-71883143D01*
X100749499Y-71881999D01*
X101324499Y-71881999D01*
X101347778Y-71883143D01*
G37*
G36*
X103097778Y-71883143D02*
G01*
X103120833Y-71886562D01*
X103143442Y-71892226D01*
X103165386Y-71900078D01*
X103186456Y-71910043D01*
X103206447Y-71922025D01*
X103225167Y-71935909D01*
X103242437Y-71951561D01*
X103258089Y-71968831D01*
X103271973Y-71987551D01*
X103283955Y-72007542D01*
X103293920Y-72028612D01*
X103301772Y-72050556D01*
X103307436Y-72073165D01*
X103310855Y-72096220D01*
X103311999Y-72119499D01*
X103311999Y-72594499D01*
X103310855Y-72617778D01*
X103307436Y-72640833D01*
X103301772Y-72663442D01*
X103293920Y-72685386D01*
X103283955Y-72706456D01*
X103271973Y-72726447D01*
X103258089Y-72745167D01*
X103242437Y-72762437D01*
X103225167Y-72778089D01*
X103206447Y-72791973D01*
X103186456Y-72803955D01*
X103165386Y-72813920D01*
X103143442Y-72821772D01*
X103120833Y-72827436D01*
X103097778Y-72830855D01*
X103074499Y-72831999D01*
X102499499Y-72831999D01*
X102476220Y-72830855D01*
X102453165Y-72827436D01*
X102430556Y-72821772D01*
X102408612Y-72813920D01*
X102387542Y-72803955D01*
X102367551Y-72791973D01*
X102348831Y-72778089D01*
X102331561Y-72762437D01*
X102315909Y-72745167D01*
X102302025Y-72726447D01*
X102290043Y-72706456D01*
X102280078Y-72685386D01*
X102272226Y-72663442D01*
X102266562Y-72640833D01*
X102263143Y-72617778D01*
X102261999Y-72594499D01*
X102261999Y-72119499D01*
X102263143Y-72096220D01*
X102266562Y-72073165D01*
X102272226Y-72050556D01*
X102280078Y-72028612D01*
X102290043Y-72007542D01*
X102302025Y-71987551D01*
X102315909Y-71968831D01*
X102331561Y-71951561D01*
X102348831Y-71935909D01*
X102367551Y-71922025D01*
X102387542Y-71910043D01*
X102408612Y-71900078D01*
X102430556Y-71892226D01*
X102453165Y-71886562D01*
X102476220Y-71883143D01*
X102499499Y-71881999D01*
X103074499Y-71881999D01*
X103097778Y-71883143D01*
G37*
M02*
