M48
; DRILL file {KiCad 5.1.5-52549c5~84~ubuntu18.04.1} date Sat 14 Dec 2019 03:24:21 PM CST
; FORMAT={-:-/ absolute / inch / decimal}
; #@! TF.CreationDate,2019-12-14T15:24:21-06:00
; #@! TF.GenerationSoftware,Kicad,Pcbnew,5.1.5-52549c5~84~ubuntu18.04.1
; #@! TF.FileFunction,Plated,1,2,PTH
FMAT,2
INCH
T1C0.0157
T2C0.0300
T3C0.0315
T4C0.0350
T5C0.0354
T6C0.0394
T7C0.0591
T8C0.1598
%
G90
G05
T1
X2.85Y-2.33
X2.9Y-2.07
X2.995Y-2.155
X2.995Y-2.2789
X3.45Y-2.07
X3.45Y-2.205
X3.51Y-2.31
X3.54Y-2.155
X3.555Y-2.31
X3.57Y-2.855
X3.705Y-2.685
X3.7536Y-2.895
X3.793Y-2.8945
X3.8714Y-3.105
X3.88Y-2.155
X3.91Y-2.85
X3.99Y-3.27
X3.995Y-2.07
X4.03Y-2.31
X4.045Y-2.675
X4.07Y-2.31
X4.095Y-2.155
X4.3585Y-3.6365
X4.486Y-3.55
X4.54Y-2.07
X4.55Y-4.0
X4.615Y-2.355
X4.626Y-3.6365
X4.655Y-2.155
X4.665Y-2.355
X4.756Y-3.548
X4.885Y-3.6375
X5.021Y-3.547
X5.08Y-4.0
X5.095Y-2.07
X5.1565Y-3.6365
X5.21Y-2.31
X5.215Y-2.155
X5.26Y-3.99
X5.286Y-3.548
X5.3139Y-3.715
X5.3475Y-3.9975
X5.42Y-3.635
X5.55Y-3.546
X5.61Y-3.9911
X5.65Y-2.07
X5.68Y-3.635
X5.73Y-2.33
X5.765Y-2.155
X5.77Y-2.33
X5.815Y-3.545
X5.875Y-3.9975
X5.945Y-3.635
X6.077Y-3.547
X6.205Y-2.07
X6.21Y-3.635
X6.245Y-3.9775
X6.285Y-2.39
X6.289Y-4.091
X6.315Y-2.155
X6.325Y-2.35
X6.344Y-3.547
X6.375Y-3.975
X6.4577Y-3.715
X6.519Y-3.979
X6.75Y-2.07
X6.84Y-2.35
X6.87Y-2.155
X6.885Y-2.35
T2
X3.27Y-2.07
X3.82Y-2.07
X5.48Y-2.07
X7.13Y-2.07
X6.03Y-2.07
X4.37Y-2.07
X6.58Y-2.07
X4.925Y-2.07
T3
X4.6422Y-2.94
X4.78Y-2.94
X6.4722Y-2.95
X6.61Y-2.95
X5.5222Y-2.94
X5.66Y-2.94
T4
X3.7Y-3.69
X3.7Y-3.79
X3.7Y-3.89
X3.7Y-3.27
X3.7Y-3.37
X3.7Y-3.47
T5
X6.38Y-2.07
X6.48Y-2.07
X4.725Y-2.07
X4.825Y-2.07
X3.07Y-2.07
X3.17Y-2.07
X3.62Y-2.07
X3.72Y-2.07
X6.7Y-3.6513
X6.7Y-3.73
X6.7Y-3.8087
X5.28Y-2.07
X5.38Y-2.07
X6.93Y-2.07
X7.03Y-2.07
X5.83Y-2.07
X5.93Y-2.07
X4.17Y-2.07
X4.27Y-2.07
T6
X2.7Y-2.4
X2.7Y-2.5
X2.7Y-4.1
X2.7Y-4.2
X2.8Y-2.4
X2.8Y-2.5
X2.8Y-4.1
X2.8Y-4.2
X2.9Y-2.4
X2.9Y-2.5
X2.9Y-4.1
X2.9Y-4.2
X3.0Y-2.4
X3.0Y-2.5
X3.0Y-4.1
X3.0Y-4.2
X3.1Y-2.4
X3.1Y-2.5
X3.1Y-4.1
X3.1Y-4.2
X3.2Y-2.4
X3.2Y-2.5
X3.2Y-4.1
X3.2Y-4.2
X3.3Y-2.4
X3.3Y-2.5
X3.3Y-4.1
X3.3Y-4.2
X3.4Y-2.4
X3.4Y-2.5
X3.4Y-4.1
X3.4Y-4.2
X3.5Y-2.4
X3.5Y-2.5
X3.5Y-4.1
X3.5Y-4.2
X3.6Y-2.4
X3.6Y-2.5
X3.6Y-4.1
X3.6Y-4.2
X5.2Y-2.4
X5.2Y-2.5
X5.2Y-4.1
X5.2Y-4.2
X5.3Y-2.4
X5.3Y-2.5
X5.3Y-4.1
X5.3Y-4.2
X5.4Y-2.4
X5.4Y-2.5
X5.4Y-4.1
X5.4Y-4.2
X5.5Y-2.4
X5.5Y-2.5
X5.5Y-4.1
X5.5Y-4.2
X5.6Y-2.4
X5.6Y-2.5
X5.6Y-4.1
X5.6Y-4.2
X5.7Y-2.4
X5.7Y-2.5
X5.7Y-4.1
X5.7Y-4.2
X5.8Y-2.4
X5.8Y-2.5
X5.8Y-4.1
X5.8Y-4.2
X5.9Y-2.4
X5.9Y-2.5
X5.9Y-4.1
X5.9Y-4.2
X6.0Y-2.4
X6.0Y-2.5
X6.0Y-4.1
X6.0Y-4.2
X6.1Y-2.4
X6.1Y-2.5
X6.1Y-4.1
X6.1Y-4.2
T7
X6.7Y-3.5686
X6.7Y-3.8914
T8
X3.365Y-3.225
X3.365Y-3.535
X3.365Y-3.845
T0
M30
