G04 #@! TF.GenerationSoftware,KiCad,Pcbnew,(5.1.4)-1*
G04 #@! TF.CreationDate,2020-11-27T16:32:11-06:00*
G04 #@! TF.ProjectId,gimble_board,67696d62-6c65-45f6-926f-6172642e6b69,rev?*
G04 #@! TF.SameCoordinates,Original*
G04 #@! TF.FileFunction,Copper,L2,Bot*
G04 #@! TF.FilePolarity,Positive*
%FSLAX46Y46*%
G04 Gerber Fmt 4.6, Leading zero omitted, Abs format (unit mm)*
G04 Created by KiCad (PCBNEW (5.1.4)-1) date 2020-11-27 16:32:11*
%MOMM*%
%LPD*%
G04 APERTURE LIST*
%ADD10C,1.520000*%
%ADD11R,2.500000X1.500000*%
%ADD12O,2.500000X1.500000*%
%ADD13O,3.500000X2.200000*%
%ADD14C,5.080000*%
%ADD15C,1.524000*%
%ADD16C,0.800000*%
%ADD17C,0.381000*%
%ADD18C,0.254000*%
G04 APERTURE END LIST*
D10*
X110490000Y-119380000D03*
X133350000Y-73660000D03*
X130810000Y-73660000D03*
X123190000Y-73660000D03*
X120650000Y-116840000D03*
X125730000Y-73660000D03*
X128270000Y-73660000D03*
X125730000Y-119380000D03*
X130810000Y-116840000D03*
X120650000Y-73660000D03*
X118110000Y-73660000D03*
X130810000Y-119380000D03*
X125730000Y-116840000D03*
X123190000Y-116840000D03*
X110490000Y-116840000D03*
X113030000Y-116840000D03*
X115570000Y-116840000D03*
X118110000Y-116840000D03*
X128270000Y-116840000D03*
X133350000Y-116840000D03*
X113030000Y-119380000D03*
X115570000Y-119380000D03*
X118110000Y-119380000D03*
X120650000Y-119380000D03*
X123190000Y-119380000D03*
X128270000Y-119380000D03*
X133350000Y-119380000D03*
X110490000Y-76200000D03*
X113030000Y-76200000D03*
X115570000Y-76200000D03*
X118110000Y-76200000D03*
X120650000Y-76200000D03*
X123190000Y-76200000D03*
X125730000Y-76200000D03*
X128270000Y-76200000D03*
X130810000Y-76200000D03*
X133350000Y-76200000D03*
X110490000Y-73660000D03*
X113030000Y-73660000D03*
X115570000Y-73660000D03*
X46990000Y-116840000D03*
X49530000Y-116840000D03*
X52070000Y-116840000D03*
X54610000Y-116840000D03*
X57150000Y-116840000D03*
X59690000Y-116840000D03*
X62230000Y-116840000D03*
X64770000Y-116840000D03*
X67310000Y-116840000D03*
X69850000Y-116840000D03*
X46990000Y-119380000D03*
X49530000Y-119380000D03*
X52070000Y-119380000D03*
X54610000Y-119380000D03*
X57150000Y-119380000D03*
X59690000Y-119380000D03*
X62230000Y-119380000D03*
X64770000Y-119380000D03*
X67310000Y-119380000D03*
X69850000Y-119380000D03*
X46990000Y-76200000D03*
X49530000Y-76200000D03*
X52070000Y-76200000D03*
X54610000Y-76200000D03*
X57150000Y-76200000D03*
X59690000Y-76200000D03*
X62230000Y-76200000D03*
X64770000Y-76200000D03*
X67310000Y-76200000D03*
X69850000Y-76200000D03*
X46990000Y-73660000D03*
X49530000Y-73660000D03*
X52070000Y-73660000D03*
X54610000Y-73660000D03*
X57150000Y-73660000D03*
X59690000Y-73660000D03*
X62230000Y-73660000D03*
X64770000Y-73660000D03*
X67310000Y-73660000D03*
X69850000Y-73660000D03*
D11*
X71628000Y-89154000D03*
D12*
X71628000Y-87154000D03*
X71628000Y-85154000D03*
D13*
X71628000Y-91254000D03*
X71628000Y-83054000D03*
D14*
X151384000Y-80137000D03*
X151384000Y-88011000D03*
X151384000Y-95885000D03*
D15*
X57150000Y-64008000D03*
X54610000Y-64008000D03*
X52070000Y-64008000D03*
X67310000Y-64008000D03*
X69850000Y-64008000D03*
X72390000Y-64008000D03*
X87630000Y-64008000D03*
X85090000Y-64008000D03*
X82550000Y-64008000D03*
X97790000Y-64008000D03*
X100330000Y-64008000D03*
X102870000Y-64008000D03*
X118110000Y-64008000D03*
X115570000Y-64008000D03*
X113030000Y-64008000D03*
X128270000Y-64008000D03*
X130810000Y-64008000D03*
X133350000Y-64008000D03*
X143510000Y-64008000D03*
X146050000Y-64008000D03*
X148590000Y-64008000D03*
X163830000Y-64008000D03*
X161290000Y-64008000D03*
X158750000Y-64008000D03*
X108458000Y-106553000D03*
X108458000Y-104013000D03*
X108458000Y-101473000D03*
X97536000Y-77978000D03*
X100076000Y-77978000D03*
X102616000Y-77978000D03*
X86868000Y-77978000D03*
X89408000Y-77978000D03*
X91948000Y-77978000D03*
D16*
X108204000Y-71120000D03*
X118618000Y-110617000D03*
X108458000Y-91496500D03*
X64516000Y-91920000D03*
X64516000Y-82324000D03*
X53340000Y-110070000D03*
X59690000Y-110070000D03*
X66040000Y-110070000D03*
X72390000Y-110070000D03*
X78740000Y-110070000D03*
X85090000Y-110070000D03*
X91440000Y-110070000D03*
X97615001Y-110070000D03*
X83312000Y-90706000D03*
D17*
X108458000Y-71374000D02*
X108204000Y-71120000D01*
X108458000Y-101473000D02*
X108458000Y-71374000D01*
X117602000Y-110617000D02*
X118618000Y-110617000D01*
X108458000Y-101473000D02*
X117602000Y-110617000D01*
X62230000Y-89634000D02*
X64516000Y-91920000D01*
X62230000Y-76200000D02*
X62230000Y-89634000D01*
X64770000Y-82070000D02*
X64516000Y-82324000D01*
X64770000Y-76200000D02*
X64770000Y-82070000D01*
X52070000Y-111340000D02*
X53340000Y-110070000D01*
X52070000Y-116840000D02*
X52070000Y-111340000D01*
X54610000Y-115150000D02*
X59690000Y-110070000D01*
X54610000Y-116840000D02*
X54610000Y-115150000D01*
X57150000Y-116840000D02*
X62230000Y-111760000D01*
X64350000Y-111760000D02*
X66040000Y-110070000D01*
X62230000Y-111760000D02*
X64350000Y-111760000D01*
X70011010Y-112448990D02*
X72390000Y-110070000D01*
X64081010Y-112448990D02*
X70011010Y-112448990D01*
X59690000Y-116840000D02*
X64081010Y-112448990D01*
X62230000Y-116840000D02*
X66040000Y-113030000D01*
X75780000Y-113030000D02*
X78740000Y-110070000D01*
X66040000Y-113030000D02*
X75780000Y-113030000D01*
X64770000Y-116840000D02*
X67998990Y-113611010D01*
X81548990Y-113611010D02*
X85090000Y-110070000D01*
X67998990Y-113611010D02*
X81548990Y-113611010D01*
X67310000Y-116840000D02*
X69957980Y-114192020D01*
X87317980Y-114192020D02*
X91440000Y-110070000D01*
X69957980Y-114192020D02*
X87317980Y-114192020D01*
X69850000Y-116840000D02*
X71916970Y-114773030D01*
X92911971Y-114773030D02*
X97615001Y-110070000D01*
X71916970Y-114773030D02*
X92911971Y-114773030D01*
X91948000Y-82070000D02*
X83312000Y-90706000D01*
X91948000Y-77978000D02*
X91948000Y-82070000D01*
X48140501Y-75049499D02*
X46990000Y-76200000D01*
X48140501Y-73017499D02*
X48140501Y-75049499D01*
X57150000Y-64008000D02*
X48140501Y-73017499D01*
X71237499Y-65160501D02*
X72390000Y-64008000D01*
X58866757Y-65160501D02*
X71237499Y-65160501D01*
X50919499Y-73107759D02*
X58866757Y-65160501D01*
X50919499Y-74810501D02*
X50919499Y-73107759D01*
X49530000Y-76200000D02*
X50919499Y-74810501D01*
X85896489Y-65741511D02*
X87630000Y-64008000D01*
X60825747Y-65741511D02*
X85896489Y-65741511D01*
X53459499Y-73107759D02*
X60825747Y-65741511D01*
X53459499Y-74810501D02*
X53459499Y-73107759D01*
X52070000Y-76200000D02*
X53459499Y-74810501D01*
X100555479Y-66322521D02*
X102870000Y-64008000D01*
X62784737Y-66322521D02*
X100555479Y-66322521D01*
X55760501Y-73346757D02*
X62784737Y-66322521D01*
X55760501Y-75049499D02*
X55760501Y-73346757D01*
X54610000Y-76200000D02*
X55760501Y-75049499D01*
X111879499Y-74810501D02*
X110490000Y-76200000D01*
X111879499Y-70238501D02*
X111879499Y-74810501D01*
X118110000Y-64008000D02*
X111879499Y-70238501D01*
X132197499Y-65160501D02*
X133350000Y-64008000D01*
X122366757Y-65160501D02*
X132197499Y-65160501D01*
X114419499Y-73107759D02*
X122366757Y-65160501D01*
X114419499Y-74810501D02*
X114419499Y-73107759D01*
X113030000Y-76200000D02*
X114419499Y-74810501D01*
X146856489Y-65741511D02*
X148590000Y-64008000D01*
X124325747Y-65741511D02*
X146856489Y-65741511D01*
X116959499Y-74810501D02*
X116959499Y-73107759D01*
X116959499Y-73107759D02*
X124325747Y-65741511D01*
X115570000Y-76200000D02*
X116959499Y-74810501D01*
X161515479Y-66322521D02*
X163830000Y-64008000D01*
X126284737Y-66322521D02*
X161515479Y-66322521D01*
X119499499Y-73107759D02*
X126284737Y-66322521D01*
X119499499Y-74810501D02*
X119499499Y-73107759D01*
X118110000Y-76200000D02*
X119499499Y-74810501D01*
D18*
G36*
X168413875Y-51235234D02*
G01*
X168669622Y-51312448D01*
X168905504Y-51437869D01*
X169112530Y-51606716D01*
X169282813Y-51812554D01*
X169409879Y-52047556D01*
X169488876Y-52302756D01*
X169520001Y-52598891D01*
X169520000Y-98265721D01*
X169490766Y-98563876D01*
X169413551Y-98819624D01*
X169288131Y-99055504D01*
X169119289Y-99262525D01*
X168913446Y-99432813D01*
X168678444Y-99559879D01*
X168423240Y-99638877D01*
X168127118Y-99670000D01*
X152432419Y-99670000D01*
X152400000Y-99666807D01*
X152367581Y-99670000D01*
X152270617Y-99679550D01*
X152146207Y-99717290D01*
X152031550Y-99778575D01*
X151931052Y-99861052D01*
X151848575Y-99961550D01*
X151787290Y-100076207D01*
X151749550Y-100200617D01*
X151736807Y-100330000D01*
X151740001Y-100362429D01*
X151740000Y-121125581D01*
X151736807Y-121158000D01*
X151749550Y-121287383D01*
X151787290Y-121411793D01*
X151848575Y-121526450D01*
X151929645Y-121625233D01*
X151931052Y-121626948D01*
X152031550Y-121709425D01*
X152146207Y-121770710D01*
X152270617Y-121808450D01*
X152400000Y-121821193D01*
X152432419Y-121818000D01*
X168115721Y-121818000D01*
X168413875Y-121847234D01*
X168669622Y-121924448D01*
X168905504Y-122049869D01*
X169112530Y-122218716D01*
X169282813Y-122424554D01*
X169409879Y-122659556D01*
X169488876Y-122914756D01*
X169520001Y-123210891D01*
X169520000Y-130745339D01*
X169179946Y-130853211D01*
X169124974Y-130876772D01*
X169069659Y-130899571D01*
X169061553Y-130903954D01*
X168714030Y-131095006D01*
X168664674Y-131128801D01*
X168614847Y-131161906D01*
X168607747Y-131167780D01*
X168303951Y-131422695D01*
X168262105Y-131465428D01*
X168219653Y-131507584D01*
X168213829Y-131514725D01*
X167965332Y-131823794D01*
X167932606Y-131873805D01*
X167899127Y-131923439D01*
X167894801Y-131931576D01*
X167711068Y-132283022D01*
X167688656Y-132338494D01*
X167665478Y-132393632D01*
X167662815Y-132402454D01*
X167550845Y-132782896D01*
X167539645Y-132841612D01*
X167527607Y-132900254D01*
X167526708Y-132909425D01*
X167490766Y-133304370D01*
X167491184Y-133364186D01*
X167490766Y-133424003D01*
X167491665Y-133433174D01*
X167533118Y-133827577D01*
X167545148Y-133886183D01*
X167556355Y-133944935D01*
X167559019Y-133953757D01*
X167676290Y-134332599D01*
X167699474Y-134387750D01*
X167721880Y-134443208D01*
X167726206Y-134451345D01*
X167914828Y-134800193D01*
X167948283Y-134849792D01*
X167981032Y-134899838D01*
X167986855Y-134906977D01*
X167986858Y-134906981D01*
X167986862Y-134906985D01*
X168239644Y-135212547D01*
X168282061Y-135254669D01*
X168323943Y-135297438D01*
X168331044Y-135303311D01*
X168638369Y-135553960D01*
X168688178Y-135587052D01*
X168737550Y-135620859D01*
X168745656Y-135625241D01*
X169095813Y-135811423D01*
X169151105Y-135834212D01*
X169206101Y-135857784D01*
X169214905Y-135860509D01*
X169520001Y-135952623D01*
X169520000Y-143985721D01*
X169490766Y-144283876D01*
X169413551Y-144539624D01*
X169288131Y-144775504D01*
X169119289Y-144982525D01*
X168913446Y-145152813D01*
X168678444Y-145279879D01*
X168423240Y-145358877D01*
X168127118Y-145390000D01*
X47784279Y-145390000D01*
X47486124Y-145360766D01*
X47230376Y-145283551D01*
X46994496Y-145158131D01*
X46787475Y-144989289D01*
X46617187Y-144783446D01*
X46490121Y-144548444D01*
X46411123Y-144293240D01*
X46380000Y-143997118D01*
X46380000Y-135954661D01*
X46720055Y-135846789D01*
X46775040Y-135823222D01*
X46830341Y-135800429D01*
X46838447Y-135796046D01*
X47185970Y-135604994D01*
X47235327Y-135571199D01*
X47285153Y-135538094D01*
X47292254Y-135532220D01*
X47596049Y-135277305D01*
X47637912Y-135234555D01*
X47680347Y-135192416D01*
X47686171Y-135185274D01*
X47934668Y-134876206D01*
X47967415Y-134826164D01*
X48000873Y-134776561D01*
X48005199Y-134768425D01*
X48188932Y-134416978D01*
X48211337Y-134361523D01*
X48234522Y-134306368D01*
X48237185Y-134297546D01*
X48349155Y-133917104D01*
X48360355Y-133858388D01*
X48372393Y-133799746D01*
X48373292Y-133790575D01*
X48409234Y-133395630D01*
X48408816Y-133335814D01*
X48409234Y-133275997D01*
X48408334Y-133266826D01*
X48366882Y-132872422D01*
X48354855Y-132813829D01*
X48343645Y-132755065D01*
X48340981Y-132746243D01*
X48223710Y-132367401D01*
X48200526Y-132312250D01*
X48178120Y-132256792D01*
X48173794Y-132248655D01*
X47985172Y-131899807D01*
X47951717Y-131850208D01*
X47918968Y-131800162D01*
X47913144Y-131793021D01*
X47660356Y-131487453D01*
X47617923Y-131445315D01*
X47576057Y-131402562D01*
X47568962Y-131396694D01*
X47568957Y-131396689D01*
X47568952Y-131396685D01*
X47261631Y-131146041D01*
X47211838Y-131112959D01*
X47162449Y-131079141D01*
X47154343Y-131074759D01*
X46804187Y-130888577D01*
X46748867Y-130865776D01*
X46693899Y-130842216D01*
X46685099Y-130839492D01*
X46685093Y-130839490D01*
X46380000Y-130747378D01*
X46380000Y-120637267D01*
X46583093Y-120721391D01*
X46852604Y-120775000D01*
X47127396Y-120775000D01*
X47396907Y-120721391D01*
X47650780Y-120616233D01*
X47879261Y-120463567D01*
X48073567Y-120269261D01*
X48226233Y-120040780D01*
X48260000Y-119959260D01*
X48293767Y-120040780D01*
X48446433Y-120269261D01*
X48640739Y-120463567D01*
X48869220Y-120616233D01*
X49123093Y-120721391D01*
X49392604Y-120775000D01*
X49667396Y-120775000D01*
X49936907Y-120721391D01*
X50190780Y-120616233D01*
X50419261Y-120463567D01*
X50613567Y-120269261D01*
X50766233Y-120040780D01*
X50800000Y-119959260D01*
X50833767Y-120040780D01*
X50986433Y-120269261D01*
X51180739Y-120463567D01*
X51409220Y-120616233D01*
X51663093Y-120721391D01*
X51932604Y-120775000D01*
X52207396Y-120775000D01*
X52476907Y-120721391D01*
X52730780Y-120616233D01*
X52959261Y-120463567D01*
X53153567Y-120269261D01*
X53306233Y-120040780D01*
X53340000Y-119959260D01*
X53373767Y-120040780D01*
X53526433Y-120269261D01*
X53720739Y-120463567D01*
X53949220Y-120616233D01*
X54203093Y-120721391D01*
X54472604Y-120775000D01*
X54747396Y-120775000D01*
X55016907Y-120721391D01*
X55270780Y-120616233D01*
X55499261Y-120463567D01*
X55693567Y-120269261D01*
X55846233Y-120040780D01*
X55880000Y-119959260D01*
X55913767Y-120040780D01*
X56066433Y-120269261D01*
X56260739Y-120463567D01*
X56489220Y-120616233D01*
X56743093Y-120721391D01*
X57012604Y-120775000D01*
X57287396Y-120775000D01*
X57556907Y-120721391D01*
X57810780Y-120616233D01*
X58039261Y-120463567D01*
X58233567Y-120269261D01*
X58386233Y-120040780D01*
X58420000Y-119959260D01*
X58453767Y-120040780D01*
X58606433Y-120269261D01*
X58800739Y-120463567D01*
X59029220Y-120616233D01*
X59283093Y-120721391D01*
X59552604Y-120775000D01*
X59827396Y-120775000D01*
X60096907Y-120721391D01*
X60350780Y-120616233D01*
X60579261Y-120463567D01*
X60773567Y-120269261D01*
X60926233Y-120040780D01*
X60960000Y-119959260D01*
X60993767Y-120040780D01*
X61146433Y-120269261D01*
X61340739Y-120463567D01*
X61569220Y-120616233D01*
X61823093Y-120721391D01*
X62092604Y-120775000D01*
X62367396Y-120775000D01*
X62636907Y-120721391D01*
X62890780Y-120616233D01*
X63119261Y-120463567D01*
X63313567Y-120269261D01*
X63466233Y-120040780D01*
X63500000Y-119959260D01*
X63533767Y-120040780D01*
X63686433Y-120269261D01*
X63880739Y-120463567D01*
X64109220Y-120616233D01*
X64363093Y-120721391D01*
X64632604Y-120775000D01*
X64907396Y-120775000D01*
X65176907Y-120721391D01*
X65430780Y-120616233D01*
X65659261Y-120463567D01*
X65853567Y-120269261D01*
X66006233Y-120040780D01*
X66040000Y-119959260D01*
X66073767Y-120040780D01*
X66226433Y-120269261D01*
X66420739Y-120463567D01*
X66649220Y-120616233D01*
X66903093Y-120721391D01*
X67172604Y-120775000D01*
X67447396Y-120775000D01*
X67716907Y-120721391D01*
X67970780Y-120616233D01*
X68199261Y-120463567D01*
X68393567Y-120269261D01*
X68546233Y-120040780D01*
X68580000Y-119959260D01*
X68613767Y-120040780D01*
X68766433Y-120269261D01*
X68960739Y-120463567D01*
X69189220Y-120616233D01*
X69443093Y-120721391D01*
X69712604Y-120775000D01*
X69987396Y-120775000D01*
X70256907Y-120721391D01*
X70510780Y-120616233D01*
X70739261Y-120463567D01*
X70933567Y-120269261D01*
X71086233Y-120040780D01*
X71191391Y-119786907D01*
X71245000Y-119517396D01*
X71245000Y-119242604D01*
X71191391Y-118973093D01*
X71086233Y-118719220D01*
X70933567Y-118490739D01*
X70739261Y-118296433D01*
X70510780Y-118143767D01*
X70429260Y-118110000D01*
X70510780Y-118076233D01*
X70739261Y-117923567D01*
X70933567Y-117729261D01*
X71086233Y-117500780D01*
X71191391Y-117246907D01*
X71245000Y-116977396D01*
X71245000Y-116702604D01*
X109095000Y-116702604D01*
X109095000Y-116977396D01*
X109148609Y-117246907D01*
X109253767Y-117500780D01*
X109406433Y-117729261D01*
X109600739Y-117923567D01*
X109829220Y-118076233D01*
X109910740Y-118110000D01*
X109829220Y-118143767D01*
X109600739Y-118296433D01*
X109406433Y-118490739D01*
X109253767Y-118719220D01*
X109148609Y-118973093D01*
X109095000Y-119242604D01*
X109095000Y-119517396D01*
X109148609Y-119786907D01*
X109253767Y-120040780D01*
X109406433Y-120269261D01*
X109600739Y-120463567D01*
X109829220Y-120616233D01*
X110083093Y-120721391D01*
X110352604Y-120775000D01*
X110627396Y-120775000D01*
X110896907Y-120721391D01*
X111150780Y-120616233D01*
X111379261Y-120463567D01*
X111573567Y-120269261D01*
X111726233Y-120040780D01*
X111760000Y-119959260D01*
X111793767Y-120040780D01*
X111946433Y-120269261D01*
X112140739Y-120463567D01*
X112369220Y-120616233D01*
X112623093Y-120721391D01*
X112892604Y-120775000D01*
X113167396Y-120775000D01*
X113436907Y-120721391D01*
X113690780Y-120616233D01*
X113919261Y-120463567D01*
X114113567Y-120269261D01*
X114266233Y-120040780D01*
X114300000Y-119959260D01*
X114333767Y-120040780D01*
X114486433Y-120269261D01*
X114680739Y-120463567D01*
X114909220Y-120616233D01*
X115163093Y-120721391D01*
X115432604Y-120775000D01*
X115707396Y-120775000D01*
X115976907Y-120721391D01*
X116230780Y-120616233D01*
X116459261Y-120463567D01*
X116653567Y-120269261D01*
X116806233Y-120040780D01*
X116840000Y-119959260D01*
X116873767Y-120040780D01*
X117026433Y-120269261D01*
X117220739Y-120463567D01*
X117449220Y-120616233D01*
X117703093Y-120721391D01*
X117972604Y-120775000D01*
X118247396Y-120775000D01*
X118516907Y-120721391D01*
X118770780Y-120616233D01*
X118999261Y-120463567D01*
X119193567Y-120269261D01*
X119346233Y-120040780D01*
X119380000Y-119959260D01*
X119413767Y-120040780D01*
X119566433Y-120269261D01*
X119760739Y-120463567D01*
X119989220Y-120616233D01*
X120243093Y-120721391D01*
X120512604Y-120775000D01*
X120787396Y-120775000D01*
X121056907Y-120721391D01*
X121310780Y-120616233D01*
X121539261Y-120463567D01*
X121733567Y-120269261D01*
X121886233Y-120040780D01*
X121920000Y-119959260D01*
X121953767Y-120040780D01*
X122106433Y-120269261D01*
X122300739Y-120463567D01*
X122529220Y-120616233D01*
X122783093Y-120721391D01*
X123052604Y-120775000D01*
X123327396Y-120775000D01*
X123596907Y-120721391D01*
X123850780Y-120616233D01*
X124079261Y-120463567D01*
X124273567Y-120269261D01*
X124426233Y-120040780D01*
X124460000Y-119959260D01*
X124493767Y-120040780D01*
X124646433Y-120269261D01*
X124840739Y-120463567D01*
X125069220Y-120616233D01*
X125323093Y-120721391D01*
X125592604Y-120775000D01*
X125867396Y-120775000D01*
X126136907Y-120721391D01*
X126390780Y-120616233D01*
X126619261Y-120463567D01*
X126813567Y-120269261D01*
X126966233Y-120040780D01*
X127000000Y-119959260D01*
X127033767Y-120040780D01*
X127186433Y-120269261D01*
X127380739Y-120463567D01*
X127609220Y-120616233D01*
X127863093Y-120721391D01*
X128132604Y-120775000D01*
X128407396Y-120775000D01*
X128676907Y-120721391D01*
X128930780Y-120616233D01*
X129159261Y-120463567D01*
X129353567Y-120269261D01*
X129506233Y-120040780D01*
X129540000Y-119959260D01*
X129573767Y-120040780D01*
X129726433Y-120269261D01*
X129920739Y-120463567D01*
X130149220Y-120616233D01*
X130403093Y-120721391D01*
X130672604Y-120775000D01*
X130947396Y-120775000D01*
X131216907Y-120721391D01*
X131470780Y-120616233D01*
X131699261Y-120463567D01*
X131893567Y-120269261D01*
X132046233Y-120040780D01*
X132080000Y-119959260D01*
X132113767Y-120040780D01*
X132266433Y-120269261D01*
X132460739Y-120463567D01*
X132689220Y-120616233D01*
X132943093Y-120721391D01*
X133212604Y-120775000D01*
X133487396Y-120775000D01*
X133756907Y-120721391D01*
X134010780Y-120616233D01*
X134239261Y-120463567D01*
X134433567Y-120269261D01*
X134586233Y-120040780D01*
X134691391Y-119786907D01*
X134745000Y-119517396D01*
X134745000Y-119242604D01*
X134691391Y-118973093D01*
X134586233Y-118719220D01*
X134433567Y-118490739D01*
X134239261Y-118296433D01*
X134010780Y-118143767D01*
X133929260Y-118110000D01*
X134010780Y-118076233D01*
X134239261Y-117923567D01*
X134433567Y-117729261D01*
X134586233Y-117500780D01*
X134691391Y-117246907D01*
X134745000Y-116977396D01*
X134745000Y-116702604D01*
X134691391Y-116433093D01*
X134586233Y-116179220D01*
X134433567Y-115950739D01*
X134239261Y-115756433D01*
X134010780Y-115603767D01*
X133756907Y-115498609D01*
X133487396Y-115445000D01*
X133212604Y-115445000D01*
X132943093Y-115498609D01*
X132689220Y-115603767D01*
X132460739Y-115756433D01*
X132266433Y-115950739D01*
X132113767Y-116179220D01*
X132080000Y-116260740D01*
X132046233Y-116179220D01*
X131893567Y-115950739D01*
X131699261Y-115756433D01*
X131470780Y-115603767D01*
X131216907Y-115498609D01*
X130947396Y-115445000D01*
X130672604Y-115445000D01*
X130403093Y-115498609D01*
X130149220Y-115603767D01*
X129920739Y-115756433D01*
X129726433Y-115950739D01*
X129573767Y-116179220D01*
X129540000Y-116260740D01*
X129506233Y-116179220D01*
X129353567Y-115950739D01*
X129159261Y-115756433D01*
X128930780Y-115603767D01*
X128676907Y-115498609D01*
X128407396Y-115445000D01*
X128132604Y-115445000D01*
X127863093Y-115498609D01*
X127609220Y-115603767D01*
X127380739Y-115756433D01*
X127186433Y-115950739D01*
X127033767Y-116179220D01*
X127000000Y-116260740D01*
X126966233Y-116179220D01*
X126813567Y-115950739D01*
X126619261Y-115756433D01*
X126390780Y-115603767D01*
X126136907Y-115498609D01*
X125867396Y-115445000D01*
X125592604Y-115445000D01*
X125323093Y-115498609D01*
X125069220Y-115603767D01*
X124840739Y-115756433D01*
X124646433Y-115950739D01*
X124493767Y-116179220D01*
X124460000Y-116260740D01*
X124426233Y-116179220D01*
X124273567Y-115950739D01*
X124079261Y-115756433D01*
X123850780Y-115603767D01*
X123596907Y-115498609D01*
X123327396Y-115445000D01*
X123052604Y-115445000D01*
X122783093Y-115498609D01*
X122529220Y-115603767D01*
X122300739Y-115756433D01*
X122106433Y-115950739D01*
X121953767Y-116179220D01*
X121920000Y-116260740D01*
X121886233Y-116179220D01*
X121733567Y-115950739D01*
X121539261Y-115756433D01*
X121310780Y-115603767D01*
X121056907Y-115498609D01*
X120787396Y-115445000D01*
X120512604Y-115445000D01*
X120243093Y-115498609D01*
X119989220Y-115603767D01*
X119760739Y-115756433D01*
X119566433Y-115950739D01*
X119413767Y-116179220D01*
X119380000Y-116260740D01*
X119346233Y-116179220D01*
X119193567Y-115950739D01*
X118999261Y-115756433D01*
X118770780Y-115603767D01*
X118516907Y-115498609D01*
X118247396Y-115445000D01*
X117972604Y-115445000D01*
X117703093Y-115498609D01*
X117449220Y-115603767D01*
X117220739Y-115756433D01*
X117026433Y-115950739D01*
X116873767Y-116179220D01*
X116840000Y-116260740D01*
X116806233Y-116179220D01*
X116653567Y-115950739D01*
X116459261Y-115756433D01*
X116230780Y-115603767D01*
X115976907Y-115498609D01*
X115707396Y-115445000D01*
X115432604Y-115445000D01*
X115163093Y-115498609D01*
X114909220Y-115603767D01*
X114680739Y-115756433D01*
X114486433Y-115950739D01*
X114333767Y-116179220D01*
X114300000Y-116260740D01*
X114266233Y-116179220D01*
X114113567Y-115950739D01*
X113919261Y-115756433D01*
X113690780Y-115603767D01*
X113436907Y-115498609D01*
X113167396Y-115445000D01*
X112892604Y-115445000D01*
X112623093Y-115498609D01*
X112369220Y-115603767D01*
X112140739Y-115756433D01*
X111946433Y-115950739D01*
X111793767Y-116179220D01*
X111760000Y-116260740D01*
X111726233Y-116179220D01*
X111573567Y-115950739D01*
X111379261Y-115756433D01*
X111150780Y-115603767D01*
X110896907Y-115498609D01*
X110627396Y-115445000D01*
X110352604Y-115445000D01*
X110083093Y-115498609D01*
X109829220Y-115603767D01*
X109600739Y-115756433D01*
X109406433Y-115950739D01*
X109253767Y-116179220D01*
X109148609Y-116433093D01*
X109095000Y-116702604D01*
X71245000Y-116702604D01*
X71230040Y-116627393D01*
X72258903Y-115598530D01*
X92871421Y-115598530D01*
X92911971Y-115602524D01*
X92952521Y-115598530D01*
X92952524Y-115598530D01*
X93073797Y-115586586D01*
X93229405Y-115539383D01*
X93372813Y-115462729D01*
X93498512Y-115359571D01*
X93524369Y-115328064D01*
X97755007Y-111097428D01*
X97916899Y-111065226D01*
X98105257Y-110987205D01*
X98274775Y-110873937D01*
X98418938Y-110729774D01*
X98532206Y-110560256D01*
X98610227Y-110371898D01*
X98650001Y-110171939D01*
X98650001Y-109968061D01*
X98610227Y-109768102D01*
X98532206Y-109579744D01*
X98418938Y-109410226D01*
X98274775Y-109266063D01*
X98105257Y-109152795D01*
X97916899Y-109074774D01*
X97716940Y-109035000D01*
X97513062Y-109035000D01*
X97313103Y-109074774D01*
X97124745Y-109152795D01*
X96955227Y-109266063D01*
X96811064Y-109410226D01*
X96697796Y-109579744D01*
X96619775Y-109768102D01*
X96587573Y-109929994D01*
X92570039Y-113947530D01*
X88729902Y-113947530D01*
X91580006Y-111097428D01*
X91741898Y-111065226D01*
X91930256Y-110987205D01*
X92099774Y-110873937D01*
X92243937Y-110729774D01*
X92357205Y-110560256D01*
X92435226Y-110371898D01*
X92475000Y-110171939D01*
X92475000Y-109968061D01*
X92435226Y-109768102D01*
X92357205Y-109579744D01*
X92243937Y-109410226D01*
X92099774Y-109266063D01*
X91930256Y-109152795D01*
X91741898Y-109074774D01*
X91541939Y-109035000D01*
X91338061Y-109035000D01*
X91138102Y-109074774D01*
X90949744Y-109152795D01*
X90780226Y-109266063D01*
X90636063Y-109410226D01*
X90522795Y-109579744D01*
X90444774Y-109768102D01*
X90412572Y-109929994D01*
X86976048Y-113366520D01*
X82960912Y-113366520D01*
X85230005Y-111097428D01*
X85391898Y-111065226D01*
X85580256Y-110987205D01*
X85749774Y-110873937D01*
X85893937Y-110729774D01*
X86007205Y-110560256D01*
X86085226Y-110371898D01*
X86125000Y-110171939D01*
X86125000Y-109968061D01*
X86085226Y-109768102D01*
X86007205Y-109579744D01*
X85893937Y-109410226D01*
X85749774Y-109266063D01*
X85580256Y-109152795D01*
X85391898Y-109074774D01*
X85191939Y-109035000D01*
X84988061Y-109035000D01*
X84788102Y-109074774D01*
X84599744Y-109152795D01*
X84430226Y-109266063D01*
X84286063Y-109410226D01*
X84172795Y-109579744D01*
X84094774Y-109768102D01*
X84062572Y-109929995D01*
X81207058Y-112785510D01*
X77191922Y-112785510D01*
X78880004Y-111097428D01*
X79041898Y-111065226D01*
X79230256Y-110987205D01*
X79399774Y-110873937D01*
X79543937Y-110729774D01*
X79657205Y-110560256D01*
X79735226Y-110371898D01*
X79775000Y-110171939D01*
X79775000Y-109968061D01*
X79735226Y-109768102D01*
X79657205Y-109579744D01*
X79543937Y-109410226D01*
X79399774Y-109266063D01*
X79230256Y-109152795D01*
X79041898Y-109074774D01*
X78841939Y-109035000D01*
X78638061Y-109035000D01*
X78438102Y-109074774D01*
X78249744Y-109152795D01*
X78080226Y-109266063D01*
X77936063Y-109410226D01*
X77822795Y-109579744D01*
X77744774Y-109768102D01*
X77712572Y-109929996D01*
X75438068Y-112204500D01*
X71422933Y-112204500D01*
X72530005Y-111097428D01*
X72691898Y-111065226D01*
X72880256Y-110987205D01*
X73049774Y-110873937D01*
X73193937Y-110729774D01*
X73307205Y-110560256D01*
X73385226Y-110371898D01*
X73425000Y-110171939D01*
X73425000Y-109968061D01*
X73385226Y-109768102D01*
X73307205Y-109579744D01*
X73193937Y-109410226D01*
X73049774Y-109266063D01*
X72880256Y-109152795D01*
X72691898Y-109074774D01*
X72491939Y-109035000D01*
X72288061Y-109035000D01*
X72088102Y-109074774D01*
X71899744Y-109152795D01*
X71730226Y-109266063D01*
X71586063Y-109410226D01*
X71472795Y-109579744D01*
X71394774Y-109768102D01*
X71362572Y-109929995D01*
X69669078Y-111623490D01*
X65653943Y-111623490D01*
X66180005Y-111097428D01*
X66341898Y-111065226D01*
X66530256Y-110987205D01*
X66699774Y-110873937D01*
X66843937Y-110729774D01*
X66957205Y-110560256D01*
X67035226Y-110371898D01*
X67075000Y-110171939D01*
X67075000Y-109968061D01*
X67035226Y-109768102D01*
X66957205Y-109579744D01*
X66843937Y-109410226D01*
X66699774Y-109266063D01*
X66530256Y-109152795D01*
X66341898Y-109074774D01*
X66141939Y-109035000D01*
X65938061Y-109035000D01*
X65738102Y-109074774D01*
X65549744Y-109152795D01*
X65380226Y-109266063D01*
X65236063Y-109410226D01*
X65122795Y-109579744D01*
X65044774Y-109768102D01*
X65012572Y-109929995D01*
X64008068Y-110934500D01*
X62270550Y-110934500D01*
X62230000Y-110930506D01*
X62189449Y-110934500D01*
X62189447Y-110934500D01*
X62068174Y-110946444D01*
X61933803Y-110987205D01*
X61912566Y-110993647D01*
X61769157Y-111070301D01*
X61674958Y-111147608D01*
X61674955Y-111147611D01*
X61643459Y-111173459D01*
X61617611Y-111204955D01*
X57362607Y-115459960D01*
X57287396Y-115445000D01*
X57012604Y-115445000D01*
X56743093Y-115498609D01*
X56489220Y-115603767D01*
X56260739Y-115756433D01*
X56066433Y-115950739D01*
X55913767Y-116179220D01*
X55880000Y-116260740D01*
X55846233Y-116179220D01*
X55693567Y-115950739D01*
X55499261Y-115756433D01*
X55435500Y-115713829D01*
X55435500Y-115491932D01*
X59830006Y-111097428D01*
X59991898Y-111065226D01*
X60180256Y-110987205D01*
X60349774Y-110873937D01*
X60493937Y-110729774D01*
X60607205Y-110560256D01*
X60685226Y-110371898D01*
X60725000Y-110171939D01*
X60725000Y-109968061D01*
X60685226Y-109768102D01*
X60607205Y-109579744D01*
X60493937Y-109410226D01*
X60349774Y-109266063D01*
X60180256Y-109152795D01*
X59991898Y-109074774D01*
X59791939Y-109035000D01*
X59588061Y-109035000D01*
X59388102Y-109074774D01*
X59199744Y-109152795D01*
X59030226Y-109266063D01*
X58886063Y-109410226D01*
X58772795Y-109579744D01*
X58694774Y-109768102D01*
X58662572Y-109929994D01*
X54054961Y-114537607D01*
X54023460Y-114563459D01*
X53997609Y-114594959D01*
X53920301Y-114689158D01*
X53843647Y-114832567D01*
X53796445Y-114988174D01*
X53780506Y-115150000D01*
X53784501Y-115190560D01*
X53784501Y-115713829D01*
X53720739Y-115756433D01*
X53526433Y-115950739D01*
X53373767Y-116179220D01*
X53340000Y-116260740D01*
X53306233Y-116179220D01*
X53153567Y-115950739D01*
X52959261Y-115756433D01*
X52895500Y-115713829D01*
X52895500Y-111681932D01*
X53480004Y-111097428D01*
X53641898Y-111065226D01*
X53830256Y-110987205D01*
X53999774Y-110873937D01*
X54143937Y-110729774D01*
X54257205Y-110560256D01*
X54335226Y-110371898D01*
X54375000Y-110171939D01*
X54375000Y-109968061D01*
X54335226Y-109768102D01*
X54257205Y-109579744D01*
X54143937Y-109410226D01*
X53999774Y-109266063D01*
X53830256Y-109152795D01*
X53641898Y-109074774D01*
X53441939Y-109035000D01*
X53238061Y-109035000D01*
X53038102Y-109074774D01*
X52849744Y-109152795D01*
X52680226Y-109266063D01*
X52536063Y-109410226D01*
X52422795Y-109579744D01*
X52344774Y-109768102D01*
X52312572Y-109929996D01*
X51514961Y-110727607D01*
X51483460Y-110753459D01*
X51457609Y-110784959D01*
X51380301Y-110879158D01*
X51303647Y-111022567D01*
X51256445Y-111178174D01*
X51240506Y-111340000D01*
X51244501Y-111380560D01*
X51244500Y-115713829D01*
X51180739Y-115756433D01*
X50986433Y-115950739D01*
X50833767Y-116179220D01*
X50800000Y-116260740D01*
X50766233Y-116179220D01*
X50613567Y-115950739D01*
X50419261Y-115756433D01*
X50190780Y-115603767D01*
X49936907Y-115498609D01*
X49667396Y-115445000D01*
X49392604Y-115445000D01*
X49123093Y-115498609D01*
X48869220Y-115603767D01*
X48640739Y-115756433D01*
X48446433Y-115950739D01*
X48293767Y-116179220D01*
X48260000Y-116260740D01*
X48226233Y-116179220D01*
X48073567Y-115950739D01*
X47879261Y-115756433D01*
X47650780Y-115603767D01*
X47396907Y-115498609D01*
X47127396Y-115445000D01*
X46852604Y-115445000D01*
X46583093Y-115498609D01*
X46380000Y-115582733D01*
X46380000Y-101335408D01*
X107061000Y-101335408D01*
X107061000Y-101610592D01*
X107114686Y-101880490D01*
X107219995Y-102134727D01*
X107372880Y-102363535D01*
X107567465Y-102558120D01*
X107796273Y-102711005D01*
X107873515Y-102743000D01*
X107796273Y-102774995D01*
X107567465Y-102927880D01*
X107372880Y-103122465D01*
X107219995Y-103351273D01*
X107114686Y-103605510D01*
X107061000Y-103875408D01*
X107061000Y-104150592D01*
X107114686Y-104420490D01*
X107219995Y-104674727D01*
X107372880Y-104903535D01*
X107567465Y-105098120D01*
X107796273Y-105251005D01*
X107873515Y-105283000D01*
X107796273Y-105314995D01*
X107567465Y-105467880D01*
X107372880Y-105662465D01*
X107219995Y-105891273D01*
X107114686Y-106145510D01*
X107061000Y-106415408D01*
X107061000Y-106690592D01*
X107114686Y-106960490D01*
X107219995Y-107214727D01*
X107372880Y-107443535D01*
X107567465Y-107638120D01*
X107796273Y-107791005D01*
X108050510Y-107896314D01*
X108320408Y-107950000D01*
X108595592Y-107950000D01*
X108865490Y-107896314D01*
X109119727Y-107791005D01*
X109348535Y-107638120D01*
X109543120Y-107443535D01*
X109696005Y-107214727D01*
X109801314Y-106960490D01*
X109855000Y-106690592D01*
X109855000Y-106415408D01*
X109801314Y-106145510D01*
X109696005Y-105891273D01*
X109543120Y-105662465D01*
X109348535Y-105467880D01*
X109119727Y-105314995D01*
X109042485Y-105283000D01*
X109119727Y-105251005D01*
X109348535Y-105098120D01*
X109543120Y-104903535D01*
X109696005Y-104674727D01*
X109801314Y-104420490D01*
X109855000Y-104150592D01*
X109855000Y-104037432D01*
X116989611Y-111172045D01*
X117015459Y-111203541D01*
X117046955Y-111229389D01*
X117046958Y-111229392D01*
X117141157Y-111306699D01*
X117203459Y-111340000D01*
X117284566Y-111383353D01*
X117440174Y-111430556D01*
X117561447Y-111442500D01*
X117561449Y-111442500D01*
X117602000Y-111446494D01*
X117642550Y-111442500D01*
X117990497Y-111442500D01*
X118127744Y-111534205D01*
X118316102Y-111612226D01*
X118516061Y-111652000D01*
X118719939Y-111652000D01*
X118919898Y-111612226D01*
X119108256Y-111534205D01*
X119277774Y-111420937D01*
X119421937Y-111276774D01*
X119535205Y-111107256D01*
X119613226Y-110918898D01*
X119653000Y-110718939D01*
X119653000Y-110515061D01*
X119613226Y-110315102D01*
X119535205Y-110126744D01*
X119421937Y-109957226D01*
X119277774Y-109813063D01*
X119108256Y-109699795D01*
X118919898Y-109621774D01*
X118719939Y-109582000D01*
X118516061Y-109582000D01*
X118316102Y-109621774D01*
X118127744Y-109699795D01*
X117990497Y-109791500D01*
X117943934Y-109791500D01*
X109839740Y-101687308D01*
X109855000Y-101610592D01*
X109855000Y-101335408D01*
X109801314Y-101065510D01*
X109696005Y-100811273D01*
X109543120Y-100582465D01*
X109348535Y-100387880D01*
X109283500Y-100344425D01*
X109283500Y-95572290D01*
X148209000Y-95572290D01*
X148209000Y-96197710D01*
X148331014Y-96811113D01*
X148570352Y-97388926D01*
X148917817Y-97908944D01*
X149360056Y-98351183D01*
X149880074Y-98698648D01*
X150457887Y-98937986D01*
X151071290Y-99060000D01*
X151696710Y-99060000D01*
X152310113Y-98937986D01*
X152887926Y-98698648D01*
X153407944Y-98351183D01*
X153850183Y-97908944D01*
X154197648Y-97388926D01*
X154436986Y-96811113D01*
X154559000Y-96197710D01*
X154559000Y-95572290D01*
X154436986Y-94958887D01*
X154197648Y-94381074D01*
X153850183Y-93861056D01*
X153407944Y-93418817D01*
X152887926Y-93071352D01*
X152310113Y-92832014D01*
X151696710Y-92710000D01*
X151071290Y-92710000D01*
X150457887Y-92832014D01*
X149880074Y-93071352D01*
X149360056Y-93418817D01*
X148917817Y-93861056D01*
X148570352Y-94381074D01*
X148331014Y-94958887D01*
X148209000Y-95572290D01*
X109283500Y-95572290D01*
X109283500Y-92124003D01*
X109375205Y-91986756D01*
X109453226Y-91798398D01*
X109493000Y-91598439D01*
X109493000Y-91394561D01*
X109453226Y-91194602D01*
X109375205Y-91006244D01*
X109283500Y-90868997D01*
X109283500Y-87698290D01*
X148209000Y-87698290D01*
X148209000Y-88323710D01*
X148331014Y-88937113D01*
X148570352Y-89514926D01*
X148917817Y-90034944D01*
X149360056Y-90477183D01*
X149880074Y-90824648D01*
X150457887Y-91063986D01*
X151071290Y-91186000D01*
X151696710Y-91186000D01*
X152310113Y-91063986D01*
X152887926Y-90824648D01*
X153407944Y-90477183D01*
X153850183Y-90034944D01*
X154197648Y-89514926D01*
X154436986Y-88937113D01*
X154559000Y-88323710D01*
X154559000Y-87698290D01*
X154436986Y-87084887D01*
X154197648Y-86507074D01*
X153850183Y-85987056D01*
X153407944Y-85544817D01*
X152887926Y-85197352D01*
X152310113Y-84958014D01*
X151696710Y-84836000D01*
X151071290Y-84836000D01*
X150457887Y-84958014D01*
X149880074Y-85197352D01*
X149360056Y-85544817D01*
X148917817Y-85987056D01*
X148570352Y-86507074D01*
X148331014Y-87084887D01*
X148209000Y-87698290D01*
X109283500Y-87698290D01*
X109283500Y-79824290D01*
X148209000Y-79824290D01*
X148209000Y-80449710D01*
X148331014Y-81063113D01*
X148570352Y-81640926D01*
X148917817Y-82160944D01*
X149360056Y-82603183D01*
X149880074Y-82950648D01*
X150457887Y-83189986D01*
X151071290Y-83312000D01*
X151696710Y-83312000D01*
X152310113Y-83189986D01*
X152887926Y-82950648D01*
X153407944Y-82603183D01*
X153850183Y-82160944D01*
X154197648Y-81640926D01*
X154436986Y-81063113D01*
X154559000Y-80449710D01*
X154559000Y-79824290D01*
X154436986Y-79210887D01*
X154197648Y-78633074D01*
X153850183Y-78113056D01*
X153407944Y-77670817D01*
X152887926Y-77323352D01*
X152310113Y-77084014D01*
X151696710Y-76962000D01*
X151071290Y-76962000D01*
X150457887Y-77084014D01*
X149880074Y-77323352D01*
X149360056Y-77670817D01*
X148917817Y-78113056D01*
X148570352Y-78633074D01*
X148331014Y-79210887D01*
X148209000Y-79824290D01*
X109283500Y-79824290D01*
X109283500Y-76905279D01*
X109406433Y-77089261D01*
X109600739Y-77283567D01*
X109829220Y-77436233D01*
X110083093Y-77541391D01*
X110352604Y-77595000D01*
X110627396Y-77595000D01*
X110896907Y-77541391D01*
X111150780Y-77436233D01*
X111379261Y-77283567D01*
X111573567Y-77089261D01*
X111726233Y-76860780D01*
X111760000Y-76779260D01*
X111793767Y-76860780D01*
X111946433Y-77089261D01*
X112140739Y-77283567D01*
X112369220Y-77436233D01*
X112623093Y-77541391D01*
X112892604Y-77595000D01*
X113167396Y-77595000D01*
X113436907Y-77541391D01*
X113690780Y-77436233D01*
X113919261Y-77283567D01*
X114113567Y-77089261D01*
X114266233Y-76860780D01*
X114300000Y-76779260D01*
X114333767Y-76860780D01*
X114486433Y-77089261D01*
X114680739Y-77283567D01*
X114909220Y-77436233D01*
X115163093Y-77541391D01*
X115432604Y-77595000D01*
X115707396Y-77595000D01*
X115976907Y-77541391D01*
X116230780Y-77436233D01*
X116459261Y-77283567D01*
X116653567Y-77089261D01*
X116806233Y-76860780D01*
X116840000Y-76779260D01*
X116873767Y-76860780D01*
X117026433Y-77089261D01*
X117220739Y-77283567D01*
X117449220Y-77436233D01*
X117703093Y-77541391D01*
X117972604Y-77595000D01*
X118247396Y-77595000D01*
X118516907Y-77541391D01*
X118770780Y-77436233D01*
X118999261Y-77283567D01*
X119193567Y-77089261D01*
X119346233Y-76860780D01*
X119380000Y-76779260D01*
X119413767Y-76860780D01*
X119566433Y-77089261D01*
X119760739Y-77283567D01*
X119989220Y-77436233D01*
X120243093Y-77541391D01*
X120512604Y-77595000D01*
X120787396Y-77595000D01*
X121056907Y-77541391D01*
X121310780Y-77436233D01*
X121539261Y-77283567D01*
X121733567Y-77089261D01*
X121886233Y-76860780D01*
X121920000Y-76779260D01*
X121953767Y-76860780D01*
X122106433Y-77089261D01*
X122300739Y-77283567D01*
X122529220Y-77436233D01*
X122783093Y-77541391D01*
X123052604Y-77595000D01*
X123327396Y-77595000D01*
X123596907Y-77541391D01*
X123850780Y-77436233D01*
X124079261Y-77283567D01*
X124273567Y-77089261D01*
X124426233Y-76860780D01*
X124460000Y-76779260D01*
X124493767Y-76860780D01*
X124646433Y-77089261D01*
X124840739Y-77283567D01*
X125069220Y-77436233D01*
X125323093Y-77541391D01*
X125592604Y-77595000D01*
X125867396Y-77595000D01*
X126136907Y-77541391D01*
X126390780Y-77436233D01*
X126619261Y-77283567D01*
X126813567Y-77089261D01*
X126966233Y-76860780D01*
X127000000Y-76779260D01*
X127033767Y-76860780D01*
X127186433Y-77089261D01*
X127380739Y-77283567D01*
X127609220Y-77436233D01*
X127863093Y-77541391D01*
X128132604Y-77595000D01*
X128407396Y-77595000D01*
X128676907Y-77541391D01*
X128930780Y-77436233D01*
X129159261Y-77283567D01*
X129353567Y-77089261D01*
X129506233Y-76860780D01*
X129540000Y-76779260D01*
X129573767Y-76860780D01*
X129726433Y-77089261D01*
X129920739Y-77283567D01*
X130149220Y-77436233D01*
X130403093Y-77541391D01*
X130672604Y-77595000D01*
X130947396Y-77595000D01*
X131216907Y-77541391D01*
X131470780Y-77436233D01*
X131699261Y-77283567D01*
X131893567Y-77089261D01*
X132046233Y-76860780D01*
X132080000Y-76779260D01*
X132113767Y-76860780D01*
X132266433Y-77089261D01*
X132460739Y-77283567D01*
X132689220Y-77436233D01*
X132943093Y-77541391D01*
X133212604Y-77595000D01*
X133487396Y-77595000D01*
X133756907Y-77541391D01*
X134010780Y-77436233D01*
X134239261Y-77283567D01*
X134433567Y-77089261D01*
X134586233Y-76860780D01*
X134691391Y-76606907D01*
X134745000Y-76337396D01*
X134745000Y-76062604D01*
X134691391Y-75793093D01*
X134586233Y-75539220D01*
X134433567Y-75310739D01*
X134239261Y-75116433D01*
X134010780Y-74963767D01*
X133929260Y-74930000D01*
X134010780Y-74896233D01*
X134239261Y-74743567D01*
X134433567Y-74549261D01*
X134586233Y-74320780D01*
X134691391Y-74066907D01*
X134745000Y-73797396D01*
X134745000Y-73522604D01*
X134691391Y-73253093D01*
X134586233Y-72999220D01*
X134433567Y-72770739D01*
X134239261Y-72576433D01*
X134010780Y-72423767D01*
X133756907Y-72318609D01*
X133487396Y-72265000D01*
X133212604Y-72265000D01*
X132943093Y-72318609D01*
X132689220Y-72423767D01*
X132460739Y-72576433D01*
X132266433Y-72770739D01*
X132113767Y-72999220D01*
X132080000Y-73080740D01*
X132046233Y-72999220D01*
X131893567Y-72770739D01*
X131699261Y-72576433D01*
X131470780Y-72423767D01*
X131216907Y-72318609D01*
X130947396Y-72265000D01*
X130672604Y-72265000D01*
X130403093Y-72318609D01*
X130149220Y-72423767D01*
X129920739Y-72576433D01*
X129726433Y-72770739D01*
X129573767Y-72999220D01*
X129540000Y-73080740D01*
X129506233Y-72999220D01*
X129353567Y-72770739D01*
X129159261Y-72576433D01*
X128930780Y-72423767D01*
X128676907Y-72318609D01*
X128407396Y-72265000D01*
X128132604Y-72265000D01*
X127863093Y-72318609D01*
X127609220Y-72423767D01*
X127380739Y-72576433D01*
X127186433Y-72770739D01*
X127033767Y-72999220D01*
X127000000Y-73080740D01*
X126966233Y-72999220D01*
X126813567Y-72770739D01*
X126619261Y-72576433D01*
X126390780Y-72423767D01*
X126136907Y-72318609D01*
X125867396Y-72265000D01*
X125592604Y-72265000D01*
X125323093Y-72318609D01*
X125069220Y-72423767D01*
X124840739Y-72576433D01*
X124646433Y-72770739D01*
X124493767Y-72999220D01*
X124460000Y-73080740D01*
X124426233Y-72999220D01*
X124273567Y-72770739D01*
X124079261Y-72576433D01*
X123850780Y-72423767D01*
X123596907Y-72318609D01*
X123327396Y-72265000D01*
X123052604Y-72265000D01*
X122783093Y-72318609D01*
X122529220Y-72423767D01*
X122300739Y-72576433D01*
X122106433Y-72770739D01*
X121953767Y-72999220D01*
X121920000Y-73080740D01*
X121886233Y-72999220D01*
X121733567Y-72770739D01*
X121539261Y-72576433D01*
X121334844Y-72439846D01*
X126626671Y-67148021D01*
X161474929Y-67148021D01*
X161515479Y-67152015D01*
X161556029Y-67148021D01*
X161556032Y-67148021D01*
X161677305Y-67136077D01*
X161832913Y-67088874D01*
X161976321Y-67012220D01*
X162102020Y-66909062D01*
X162127877Y-66877555D01*
X163615692Y-65389740D01*
X163692408Y-65405000D01*
X163967592Y-65405000D01*
X164237490Y-65351314D01*
X164491727Y-65246005D01*
X164720535Y-65093120D01*
X164915120Y-64898535D01*
X165068005Y-64669727D01*
X165173314Y-64415490D01*
X165227000Y-64145592D01*
X165227000Y-63870408D01*
X165173314Y-63600510D01*
X165068005Y-63346273D01*
X164915120Y-63117465D01*
X164720535Y-62922880D01*
X164491727Y-62769995D01*
X164237490Y-62664686D01*
X163967592Y-62611000D01*
X163692408Y-62611000D01*
X163422510Y-62664686D01*
X163168273Y-62769995D01*
X162939465Y-62922880D01*
X162744880Y-63117465D01*
X162591995Y-63346273D01*
X162560000Y-63423515D01*
X162528005Y-63346273D01*
X162375120Y-63117465D01*
X162180535Y-62922880D01*
X161951727Y-62769995D01*
X161697490Y-62664686D01*
X161427592Y-62611000D01*
X161152408Y-62611000D01*
X160882510Y-62664686D01*
X160628273Y-62769995D01*
X160399465Y-62922880D01*
X160204880Y-63117465D01*
X160051995Y-63346273D01*
X159946686Y-63600510D01*
X159893000Y-63870408D01*
X159893000Y-64145592D01*
X159946686Y-64415490D01*
X160051995Y-64669727D01*
X160204880Y-64898535D01*
X160399465Y-65093120D01*
X160628273Y-65246005D01*
X160882510Y-65351314D01*
X161152408Y-65405000D01*
X161265568Y-65405000D01*
X161173547Y-65497021D01*
X148268412Y-65497021D01*
X148375693Y-65389740D01*
X148452408Y-65405000D01*
X148727592Y-65405000D01*
X148997490Y-65351314D01*
X149251727Y-65246005D01*
X149480535Y-65093120D01*
X149675120Y-64898535D01*
X149828005Y-64669727D01*
X149933314Y-64415490D01*
X149987000Y-64145592D01*
X149987000Y-63870408D01*
X149933314Y-63600510D01*
X149828005Y-63346273D01*
X149675120Y-63117465D01*
X149480535Y-62922880D01*
X149251727Y-62769995D01*
X148997490Y-62664686D01*
X148727592Y-62611000D01*
X148452408Y-62611000D01*
X148182510Y-62664686D01*
X147928273Y-62769995D01*
X147699465Y-62922880D01*
X147504880Y-63117465D01*
X147351995Y-63346273D01*
X147320000Y-63423515D01*
X147288005Y-63346273D01*
X147135120Y-63117465D01*
X146940535Y-62922880D01*
X146711727Y-62769995D01*
X146457490Y-62664686D01*
X146187592Y-62611000D01*
X145912408Y-62611000D01*
X145642510Y-62664686D01*
X145388273Y-62769995D01*
X145159465Y-62922880D01*
X144964880Y-63117465D01*
X144811995Y-63346273D01*
X144706686Y-63600510D01*
X144653000Y-63870408D01*
X144653000Y-64145592D01*
X144706686Y-64415490D01*
X144811995Y-64669727D01*
X144964880Y-64898535D01*
X144982356Y-64916011D01*
X134417644Y-64916011D01*
X134435120Y-64898535D01*
X134588005Y-64669727D01*
X134693314Y-64415490D01*
X134747000Y-64145592D01*
X134747000Y-63870408D01*
X134693314Y-63600510D01*
X134588005Y-63346273D01*
X134435120Y-63117465D01*
X134240535Y-62922880D01*
X134011727Y-62769995D01*
X133757490Y-62664686D01*
X133487592Y-62611000D01*
X133212408Y-62611000D01*
X132942510Y-62664686D01*
X132688273Y-62769995D01*
X132459465Y-62922880D01*
X132264880Y-63117465D01*
X132111995Y-63346273D01*
X132080000Y-63423515D01*
X132048005Y-63346273D01*
X131895120Y-63117465D01*
X131700535Y-62922880D01*
X131471727Y-62769995D01*
X131217490Y-62664686D01*
X130947592Y-62611000D01*
X130672408Y-62611000D01*
X130402510Y-62664686D01*
X130148273Y-62769995D01*
X129919465Y-62922880D01*
X129724880Y-63117465D01*
X129571995Y-63346273D01*
X129466686Y-63600510D01*
X129413000Y-63870408D01*
X129413000Y-64145592D01*
X129450676Y-64335001D01*
X122407307Y-64335001D01*
X122366756Y-64331007D01*
X122326206Y-64335001D01*
X122326204Y-64335001D01*
X122204931Y-64346945D01*
X122049323Y-64394148D01*
X121905914Y-64470802D01*
X121844353Y-64521324D01*
X121780216Y-64573960D01*
X121754365Y-64605460D01*
X113864460Y-72495366D01*
X113834605Y-72519867D01*
X113690780Y-72423767D01*
X113436907Y-72318609D01*
X113167396Y-72265000D01*
X112892604Y-72265000D01*
X112704999Y-72302317D01*
X112704999Y-70580433D01*
X117895693Y-65389740D01*
X117972408Y-65405000D01*
X118247592Y-65405000D01*
X118517490Y-65351314D01*
X118771727Y-65246005D01*
X119000535Y-65093120D01*
X119195120Y-64898535D01*
X119348005Y-64669727D01*
X119453314Y-64415490D01*
X119507000Y-64145592D01*
X119507000Y-63870408D01*
X119453314Y-63600510D01*
X119348005Y-63346273D01*
X119195120Y-63117465D01*
X119000535Y-62922880D01*
X118771727Y-62769995D01*
X118517490Y-62664686D01*
X118247592Y-62611000D01*
X117972408Y-62611000D01*
X117702510Y-62664686D01*
X117448273Y-62769995D01*
X117219465Y-62922880D01*
X117024880Y-63117465D01*
X116871995Y-63346273D01*
X116840000Y-63423515D01*
X116808005Y-63346273D01*
X116655120Y-63117465D01*
X116460535Y-62922880D01*
X116231727Y-62769995D01*
X115977490Y-62664686D01*
X115707592Y-62611000D01*
X115432408Y-62611000D01*
X115162510Y-62664686D01*
X114908273Y-62769995D01*
X114679465Y-62922880D01*
X114484880Y-63117465D01*
X114331995Y-63346273D01*
X114226686Y-63600510D01*
X114173000Y-63870408D01*
X114173000Y-64145592D01*
X114226686Y-64415490D01*
X114331995Y-64669727D01*
X114484880Y-64898535D01*
X114679465Y-65093120D01*
X114908273Y-65246005D01*
X115162510Y-65351314D01*
X115432408Y-65405000D01*
X115545567Y-65405000D01*
X111324465Y-69626103D01*
X111292958Y-69651960D01*
X111223713Y-69736336D01*
X111189800Y-69777659D01*
X111113147Y-69921067D01*
X111113146Y-69921068D01*
X111065943Y-70076676D01*
X111053999Y-70197948D01*
X111050005Y-70238501D01*
X111053999Y-70279052D01*
X111053999Y-72383679D01*
X110896907Y-72318609D01*
X110627396Y-72265000D01*
X110352604Y-72265000D01*
X110083093Y-72318609D01*
X109829220Y-72423767D01*
X109600739Y-72576433D01*
X109406433Y-72770739D01*
X109283500Y-72954721D01*
X109283500Y-71414550D01*
X109287494Y-71373999D01*
X109283500Y-71333447D01*
X109271556Y-71212174D01*
X109239000Y-71104851D01*
X109239000Y-71018061D01*
X109199226Y-70818102D01*
X109121205Y-70629744D01*
X109007937Y-70460226D01*
X108863774Y-70316063D01*
X108694256Y-70202795D01*
X108505898Y-70124774D01*
X108305939Y-70085000D01*
X108102061Y-70085000D01*
X107902102Y-70124774D01*
X107713744Y-70202795D01*
X107544226Y-70316063D01*
X107400063Y-70460226D01*
X107286795Y-70629744D01*
X107208774Y-70818102D01*
X107169000Y-71018061D01*
X107169000Y-71221939D01*
X107208774Y-71421898D01*
X107286795Y-71610256D01*
X107400063Y-71779774D01*
X107544226Y-71923937D01*
X107632501Y-71982920D01*
X107632500Y-90868997D01*
X107540795Y-91006244D01*
X107462774Y-91194602D01*
X107423000Y-91394561D01*
X107423000Y-91598439D01*
X107462774Y-91798398D01*
X107540795Y-91986756D01*
X107632500Y-92124003D01*
X107632500Y-100344425D01*
X107567465Y-100387880D01*
X107372880Y-100582465D01*
X107219995Y-100811273D01*
X107114686Y-101065510D01*
X107061000Y-101335408D01*
X46380000Y-101335408D01*
X46380000Y-77457267D01*
X46583093Y-77541391D01*
X46852604Y-77595000D01*
X47127396Y-77595000D01*
X47396907Y-77541391D01*
X47650780Y-77436233D01*
X47879261Y-77283567D01*
X48073567Y-77089261D01*
X48226233Y-76860780D01*
X48260000Y-76779260D01*
X48293767Y-76860780D01*
X48446433Y-77089261D01*
X48640739Y-77283567D01*
X48869220Y-77436233D01*
X49123093Y-77541391D01*
X49392604Y-77595000D01*
X49667396Y-77595000D01*
X49936907Y-77541391D01*
X50190780Y-77436233D01*
X50419261Y-77283567D01*
X50613567Y-77089261D01*
X50766233Y-76860780D01*
X50800000Y-76779260D01*
X50833767Y-76860780D01*
X50986433Y-77089261D01*
X51180739Y-77283567D01*
X51409220Y-77436233D01*
X51663093Y-77541391D01*
X51932604Y-77595000D01*
X52207396Y-77595000D01*
X52476907Y-77541391D01*
X52730780Y-77436233D01*
X52959261Y-77283567D01*
X53153567Y-77089261D01*
X53306233Y-76860780D01*
X53340000Y-76779260D01*
X53373767Y-76860780D01*
X53526433Y-77089261D01*
X53720739Y-77283567D01*
X53949220Y-77436233D01*
X54203093Y-77541391D01*
X54472604Y-77595000D01*
X54747396Y-77595000D01*
X55016907Y-77541391D01*
X55270780Y-77436233D01*
X55499261Y-77283567D01*
X55693567Y-77089261D01*
X55846233Y-76860780D01*
X55880000Y-76779260D01*
X55913767Y-76860780D01*
X56066433Y-77089261D01*
X56260739Y-77283567D01*
X56489220Y-77436233D01*
X56743093Y-77541391D01*
X57012604Y-77595000D01*
X57287396Y-77595000D01*
X57556907Y-77541391D01*
X57810780Y-77436233D01*
X58039261Y-77283567D01*
X58233567Y-77089261D01*
X58386233Y-76860780D01*
X58420000Y-76779260D01*
X58453767Y-76860780D01*
X58606433Y-77089261D01*
X58800739Y-77283567D01*
X59029220Y-77436233D01*
X59283093Y-77541391D01*
X59552604Y-77595000D01*
X59827396Y-77595000D01*
X60096907Y-77541391D01*
X60350780Y-77436233D01*
X60579261Y-77283567D01*
X60773567Y-77089261D01*
X60926233Y-76860780D01*
X60960000Y-76779260D01*
X60993767Y-76860780D01*
X61146433Y-77089261D01*
X61340739Y-77283567D01*
X61404500Y-77326171D01*
X61404501Y-89593439D01*
X61400506Y-89634000D01*
X61416445Y-89795826D01*
X61463647Y-89951433D01*
X61540301Y-90094842D01*
X61584075Y-90148180D01*
X61643460Y-90220541D01*
X61674961Y-90246393D01*
X63488572Y-92060004D01*
X63520774Y-92221898D01*
X63598795Y-92410256D01*
X63712063Y-92579774D01*
X63856226Y-92723937D01*
X64025744Y-92837205D01*
X64214102Y-92915226D01*
X64414061Y-92955000D01*
X64617939Y-92955000D01*
X64817898Y-92915226D01*
X65006256Y-92837205D01*
X65175774Y-92723937D01*
X65319937Y-92579774D01*
X65433205Y-92410256D01*
X65511226Y-92221898D01*
X65551000Y-92021939D01*
X65551000Y-91818061D01*
X65511226Y-91618102D01*
X65433205Y-91429744D01*
X65319937Y-91260226D01*
X65175774Y-91116063D01*
X65006256Y-91002795D01*
X64817898Y-90924774D01*
X64656004Y-90892572D01*
X63055500Y-89292068D01*
X63055500Y-77326171D01*
X63119261Y-77283567D01*
X63313567Y-77089261D01*
X63466233Y-76860780D01*
X63500000Y-76779260D01*
X63533767Y-76860780D01*
X63686433Y-77089261D01*
X63880739Y-77283567D01*
X63944500Y-77326171D01*
X63944501Y-81461080D01*
X63856226Y-81520063D01*
X63712063Y-81664226D01*
X63598795Y-81833744D01*
X63520774Y-82022102D01*
X63481000Y-82222061D01*
X63481000Y-82425939D01*
X63520774Y-82625898D01*
X63598795Y-82814256D01*
X63712063Y-82983774D01*
X63856226Y-83127937D01*
X64025744Y-83241205D01*
X64214102Y-83319226D01*
X64414061Y-83359000D01*
X64617939Y-83359000D01*
X64817898Y-83319226D01*
X65006256Y-83241205D01*
X65175774Y-83127937D01*
X65249711Y-83054000D01*
X69234606Y-83054000D01*
X69268105Y-83394119D01*
X69367314Y-83721168D01*
X69528421Y-84022578D01*
X69745234Y-84286766D01*
X69936994Y-84444139D01*
X69842236Y-84621419D01*
X69763040Y-84882493D01*
X69736299Y-85154000D01*
X69763040Y-85425507D01*
X69842236Y-85686581D01*
X69970843Y-85927188D01*
X70143919Y-86138081D01*
X70163316Y-86154000D01*
X70143919Y-86169919D01*
X69970843Y-86380812D01*
X69842236Y-86621419D01*
X69763040Y-86882493D01*
X69736299Y-87154000D01*
X69763040Y-87425507D01*
X69842236Y-87686581D01*
X69966940Y-87919886D01*
X69926815Y-87952815D01*
X69847463Y-88049506D01*
X69788498Y-88159820D01*
X69752188Y-88279518D01*
X69739928Y-88404000D01*
X69739928Y-89904000D01*
X69751008Y-90016496D01*
X69745234Y-90021234D01*
X69528421Y-90285422D01*
X69367314Y-90586832D01*
X69268105Y-90913881D01*
X69234606Y-91254000D01*
X69268105Y-91594119D01*
X69367314Y-91921168D01*
X69528421Y-92222578D01*
X69745234Y-92486766D01*
X70009422Y-92703579D01*
X70310832Y-92864686D01*
X70637881Y-92963895D01*
X70892775Y-92989000D01*
X72363225Y-92989000D01*
X72618119Y-92963895D01*
X72945168Y-92864686D01*
X73246578Y-92703579D01*
X73510766Y-92486766D01*
X73727579Y-92222578D01*
X73888686Y-91921168D01*
X73987895Y-91594119D01*
X74021394Y-91254000D01*
X73987895Y-90913881D01*
X73888686Y-90586832D01*
X73727579Y-90285422D01*
X73510766Y-90021234D01*
X73504992Y-90016496D01*
X73516072Y-89904000D01*
X73516072Y-88404000D01*
X73503812Y-88279518D01*
X73467502Y-88159820D01*
X73408537Y-88049506D01*
X73329185Y-87952815D01*
X73289060Y-87919886D01*
X73413764Y-87686581D01*
X73492960Y-87425507D01*
X73519701Y-87154000D01*
X73492960Y-86882493D01*
X73413764Y-86621419D01*
X73285157Y-86380812D01*
X73112081Y-86169919D01*
X73092684Y-86154000D01*
X73112081Y-86138081D01*
X73285157Y-85927188D01*
X73413764Y-85686581D01*
X73492960Y-85425507D01*
X73519701Y-85154000D01*
X73492960Y-84882493D01*
X73413764Y-84621419D01*
X73319006Y-84444139D01*
X73510766Y-84286766D01*
X73727579Y-84022578D01*
X73888686Y-83721168D01*
X73987895Y-83394119D01*
X74021394Y-83054000D01*
X73987895Y-82713881D01*
X73888686Y-82386832D01*
X73727579Y-82085422D01*
X73510766Y-81821234D01*
X73246578Y-81604421D01*
X72945168Y-81443314D01*
X72618119Y-81344105D01*
X72363225Y-81319000D01*
X70892775Y-81319000D01*
X70637881Y-81344105D01*
X70310832Y-81443314D01*
X70009422Y-81604421D01*
X69745234Y-81821234D01*
X69528421Y-82085422D01*
X69367314Y-82386832D01*
X69268105Y-82713881D01*
X69234606Y-83054000D01*
X65249711Y-83054000D01*
X65319937Y-82983774D01*
X65433205Y-82814256D01*
X65511226Y-82625898D01*
X65551000Y-82425939D01*
X65551000Y-82339149D01*
X65583556Y-82231826D01*
X65595500Y-82110553D01*
X65595500Y-82110551D01*
X65599494Y-82070001D01*
X65595500Y-82029450D01*
X65595500Y-77840408D01*
X85471000Y-77840408D01*
X85471000Y-78115592D01*
X85524686Y-78385490D01*
X85629995Y-78639727D01*
X85782880Y-78868535D01*
X85977465Y-79063120D01*
X86206273Y-79216005D01*
X86460510Y-79321314D01*
X86730408Y-79375000D01*
X87005592Y-79375000D01*
X87275490Y-79321314D01*
X87529727Y-79216005D01*
X87758535Y-79063120D01*
X87953120Y-78868535D01*
X88106005Y-78639727D01*
X88138000Y-78562485D01*
X88169995Y-78639727D01*
X88322880Y-78868535D01*
X88517465Y-79063120D01*
X88746273Y-79216005D01*
X89000510Y-79321314D01*
X89270408Y-79375000D01*
X89545592Y-79375000D01*
X89815490Y-79321314D01*
X90069727Y-79216005D01*
X90298535Y-79063120D01*
X90493120Y-78868535D01*
X90646005Y-78639727D01*
X90751314Y-78385490D01*
X90805000Y-78115592D01*
X90805000Y-77840408D01*
X96139000Y-77840408D01*
X96139000Y-78115592D01*
X96192686Y-78385490D01*
X96297995Y-78639727D01*
X96450880Y-78868535D01*
X96645465Y-79063120D01*
X96874273Y-79216005D01*
X97128510Y-79321314D01*
X97398408Y-79375000D01*
X97673592Y-79375000D01*
X97943490Y-79321314D01*
X98197727Y-79216005D01*
X98426535Y-79063120D01*
X98621120Y-78868535D01*
X98774005Y-78639727D01*
X98806000Y-78562485D01*
X98837995Y-78639727D01*
X98990880Y-78868535D01*
X99185465Y-79063120D01*
X99414273Y-79216005D01*
X99668510Y-79321314D01*
X99938408Y-79375000D01*
X100213592Y-79375000D01*
X100483490Y-79321314D01*
X100737727Y-79216005D01*
X100966535Y-79063120D01*
X101161120Y-78868535D01*
X101314005Y-78639727D01*
X101419314Y-78385490D01*
X101473000Y-78115592D01*
X101473000Y-77840408D01*
X101419314Y-77570510D01*
X101314005Y-77316273D01*
X101161120Y-77087465D01*
X100966535Y-76892880D01*
X100737727Y-76739995D01*
X100483490Y-76634686D01*
X100213592Y-76581000D01*
X99938408Y-76581000D01*
X99668510Y-76634686D01*
X99414273Y-76739995D01*
X99185465Y-76892880D01*
X98990880Y-77087465D01*
X98837995Y-77316273D01*
X98806000Y-77393515D01*
X98774005Y-77316273D01*
X98621120Y-77087465D01*
X98426535Y-76892880D01*
X98197727Y-76739995D01*
X97943490Y-76634686D01*
X97673592Y-76581000D01*
X97398408Y-76581000D01*
X97128510Y-76634686D01*
X96874273Y-76739995D01*
X96645465Y-76892880D01*
X96450880Y-77087465D01*
X96297995Y-77316273D01*
X96192686Y-77570510D01*
X96139000Y-77840408D01*
X90805000Y-77840408D01*
X90751314Y-77570510D01*
X90646005Y-77316273D01*
X90493120Y-77087465D01*
X90298535Y-76892880D01*
X90069727Y-76739995D01*
X89815490Y-76634686D01*
X89545592Y-76581000D01*
X89270408Y-76581000D01*
X89000510Y-76634686D01*
X88746273Y-76739995D01*
X88517465Y-76892880D01*
X88322880Y-77087465D01*
X88169995Y-77316273D01*
X88138000Y-77393515D01*
X88106005Y-77316273D01*
X87953120Y-77087465D01*
X87758535Y-76892880D01*
X87529727Y-76739995D01*
X87275490Y-76634686D01*
X87005592Y-76581000D01*
X86730408Y-76581000D01*
X86460510Y-76634686D01*
X86206273Y-76739995D01*
X85977465Y-76892880D01*
X85782880Y-77087465D01*
X85629995Y-77316273D01*
X85524686Y-77570510D01*
X85471000Y-77840408D01*
X65595500Y-77840408D01*
X65595500Y-77326171D01*
X65659261Y-77283567D01*
X65853567Y-77089261D01*
X66006233Y-76860780D01*
X66040000Y-76779260D01*
X66073767Y-76860780D01*
X66226433Y-77089261D01*
X66420739Y-77283567D01*
X66649220Y-77436233D01*
X66903093Y-77541391D01*
X67172604Y-77595000D01*
X67447396Y-77595000D01*
X67716907Y-77541391D01*
X67970780Y-77436233D01*
X68199261Y-77283567D01*
X68393567Y-77089261D01*
X68546233Y-76860780D01*
X68580000Y-76779260D01*
X68613767Y-76860780D01*
X68766433Y-77089261D01*
X68960739Y-77283567D01*
X69189220Y-77436233D01*
X69443093Y-77541391D01*
X69712604Y-77595000D01*
X69987396Y-77595000D01*
X70256907Y-77541391D01*
X70510780Y-77436233D01*
X70739261Y-77283567D01*
X70933567Y-77089261D01*
X71086233Y-76860780D01*
X71191391Y-76606907D01*
X71245000Y-76337396D01*
X71245000Y-76062604D01*
X71191391Y-75793093D01*
X71086233Y-75539220D01*
X70933567Y-75310739D01*
X70739261Y-75116433D01*
X70510780Y-74963767D01*
X70429260Y-74930000D01*
X70510780Y-74896233D01*
X70739261Y-74743567D01*
X70933567Y-74549261D01*
X71086233Y-74320780D01*
X71191391Y-74066907D01*
X71245000Y-73797396D01*
X71245000Y-73522604D01*
X71191391Y-73253093D01*
X71086233Y-72999220D01*
X70933567Y-72770739D01*
X70739261Y-72576433D01*
X70510780Y-72423767D01*
X70256907Y-72318609D01*
X69987396Y-72265000D01*
X69712604Y-72265000D01*
X69443093Y-72318609D01*
X69189220Y-72423767D01*
X68960739Y-72576433D01*
X68766433Y-72770739D01*
X68613767Y-72999220D01*
X68580000Y-73080740D01*
X68546233Y-72999220D01*
X68393567Y-72770739D01*
X68199261Y-72576433D01*
X67970780Y-72423767D01*
X67716907Y-72318609D01*
X67447396Y-72265000D01*
X67172604Y-72265000D01*
X66903093Y-72318609D01*
X66649220Y-72423767D01*
X66420739Y-72576433D01*
X66226433Y-72770739D01*
X66073767Y-72999220D01*
X66040000Y-73080740D01*
X66006233Y-72999220D01*
X65853567Y-72770739D01*
X65659261Y-72576433D01*
X65430780Y-72423767D01*
X65176907Y-72318609D01*
X64907396Y-72265000D01*
X64632604Y-72265000D01*
X64363093Y-72318609D01*
X64109220Y-72423767D01*
X63880739Y-72576433D01*
X63686433Y-72770739D01*
X63533767Y-72999220D01*
X63500000Y-73080740D01*
X63466233Y-72999220D01*
X63313567Y-72770739D01*
X63119261Y-72576433D01*
X62890780Y-72423767D01*
X62636907Y-72318609D01*
X62367396Y-72265000D01*
X62092604Y-72265000D01*
X61823093Y-72318609D01*
X61569220Y-72423767D01*
X61340739Y-72576433D01*
X61146433Y-72770739D01*
X60993767Y-72999220D01*
X60960000Y-73080740D01*
X60926233Y-72999220D01*
X60773567Y-72770739D01*
X60579261Y-72576433D01*
X60350780Y-72423767D01*
X60096907Y-72318609D01*
X59827396Y-72265000D01*
X59552604Y-72265000D01*
X59283093Y-72318609D01*
X59029220Y-72423767D01*
X58800739Y-72576433D01*
X58606433Y-72770739D01*
X58453767Y-72999220D01*
X58420000Y-73080740D01*
X58386233Y-72999220D01*
X58233567Y-72770739D01*
X58039261Y-72576433D01*
X57834844Y-72439846D01*
X63126671Y-67148021D01*
X100514929Y-67148021D01*
X100555479Y-67152015D01*
X100596029Y-67148021D01*
X100596032Y-67148021D01*
X100717305Y-67136077D01*
X100872913Y-67088874D01*
X101016321Y-67012220D01*
X101142020Y-66909062D01*
X101167877Y-66877555D01*
X102655692Y-65389740D01*
X102732408Y-65405000D01*
X103007592Y-65405000D01*
X103277490Y-65351314D01*
X103531727Y-65246005D01*
X103760535Y-65093120D01*
X103955120Y-64898535D01*
X104108005Y-64669727D01*
X104213314Y-64415490D01*
X104267000Y-64145592D01*
X104267000Y-63870408D01*
X104213314Y-63600510D01*
X104108005Y-63346273D01*
X103955120Y-63117465D01*
X103760535Y-62922880D01*
X103531727Y-62769995D01*
X103277490Y-62664686D01*
X103007592Y-62611000D01*
X102732408Y-62611000D01*
X102462510Y-62664686D01*
X102208273Y-62769995D01*
X101979465Y-62922880D01*
X101784880Y-63117465D01*
X101631995Y-63346273D01*
X101600000Y-63423515D01*
X101568005Y-63346273D01*
X101415120Y-63117465D01*
X101220535Y-62922880D01*
X100991727Y-62769995D01*
X100737490Y-62664686D01*
X100467592Y-62611000D01*
X100192408Y-62611000D01*
X99922510Y-62664686D01*
X99668273Y-62769995D01*
X99439465Y-62922880D01*
X99244880Y-63117465D01*
X99091995Y-63346273D01*
X98986686Y-63600510D01*
X98933000Y-63870408D01*
X98933000Y-64145592D01*
X98986686Y-64415490D01*
X99091995Y-64669727D01*
X99244880Y-64898535D01*
X99439465Y-65093120D01*
X99668273Y-65246005D01*
X99922510Y-65351314D01*
X100192408Y-65405000D01*
X100305568Y-65405000D01*
X100213547Y-65497021D01*
X87308412Y-65497021D01*
X87415693Y-65389740D01*
X87492408Y-65405000D01*
X87767592Y-65405000D01*
X88037490Y-65351314D01*
X88291727Y-65246005D01*
X88520535Y-65093120D01*
X88715120Y-64898535D01*
X88868005Y-64669727D01*
X88973314Y-64415490D01*
X89027000Y-64145592D01*
X89027000Y-63870408D01*
X88973314Y-63600510D01*
X88868005Y-63346273D01*
X88715120Y-63117465D01*
X88520535Y-62922880D01*
X88291727Y-62769995D01*
X88037490Y-62664686D01*
X87767592Y-62611000D01*
X87492408Y-62611000D01*
X87222510Y-62664686D01*
X86968273Y-62769995D01*
X86739465Y-62922880D01*
X86544880Y-63117465D01*
X86391995Y-63346273D01*
X86360000Y-63423515D01*
X86328005Y-63346273D01*
X86175120Y-63117465D01*
X85980535Y-62922880D01*
X85751727Y-62769995D01*
X85497490Y-62664686D01*
X85227592Y-62611000D01*
X84952408Y-62611000D01*
X84682510Y-62664686D01*
X84428273Y-62769995D01*
X84199465Y-62922880D01*
X84004880Y-63117465D01*
X83851995Y-63346273D01*
X83746686Y-63600510D01*
X83693000Y-63870408D01*
X83693000Y-64145592D01*
X83746686Y-64415490D01*
X83851995Y-64669727D01*
X84004880Y-64898535D01*
X84022356Y-64916011D01*
X73457644Y-64916011D01*
X73475120Y-64898535D01*
X73628005Y-64669727D01*
X73733314Y-64415490D01*
X73787000Y-64145592D01*
X73787000Y-63870408D01*
X73733314Y-63600510D01*
X73628005Y-63346273D01*
X73475120Y-63117465D01*
X73280535Y-62922880D01*
X73051727Y-62769995D01*
X72797490Y-62664686D01*
X72527592Y-62611000D01*
X72252408Y-62611000D01*
X71982510Y-62664686D01*
X71728273Y-62769995D01*
X71499465Y-62922880D01*
X71304880Y-63117465D01*
X71151995Y-63346273D01*
X71120000Y-63423515D01*
X71088005Y-63346273D01*
X70935120Y-63117465D01*
X70740535Y-62922880D01*
X70511727Y-62769995D01*
X70257490Y-62664686D01*
X69987592Y-62611000D01*
X69712408Y-62611000D01*
X69442510Y-62664686D01*
X69188273Y-62769995D01*
X68959465Y-62922880D01*
X68764880Y-63117465D01*
X68611995Y-63346273D01*
X68506686Y-63600510D01*
X68453000Y-63870408D01*
X68453000Y-64145592D01*
X68490676Y-64335001D01*
X58907307Y-64335001D01*
X58866756Y-64331007D01*
X58826206Y-64335001D01*
X58826204Y-64335001D01*
X58704931Y-64346945D01*
X58549323Y-64394148D01*
X58488741Y-64426530D01*
X58493314Y-64415490D01*
X58547000Y-64145592D01*
X58547000Y-63870408D01*
X58493314Y-63600510D01*
X58388005Y-63346273D01*
X58235120Y-63117465D01*
X58040535Y-62922880D01*
X57811727Y-62769995D01*
X57557490Y-62664686D01*
X57287592Y-62611000D01*
X57012408Y-62611000D01*
X56742510Y-62664686D01*
X56488273Y-62769995D01*
X56259465Y-62922880D01*
X56064880Y-63117465D01*
X55911995Y-63346273D01*
X55880000Y-63423515D01*
X55848005Y-63346273D01*
X55695120Y-63117465D01*
X55500535Y-62922880D01*
X55271727Y-62769995D01*
X55017490Y-62664686D01*
X54747592Y-62611000D01*
X54472408Y-62611000D01*
X54202510Y-62664686D01*
X53948273Y-62769995D01*
X53719465Y-62922880D01*
X53524880Y-63117465D01*
X53371995Y-63346273D01*
X53266686Y-63600510D01*
X53213000Y-63870408D01*
X53213000Y-64145592D01*
X53266686Y-64415490D01*
X53371995Y-64669727D01*
X53524880Y-64898535D01*
X53719465Y-65093120D01*
X53948273Y-65246005D01*
X54202510Y-65351314D01*
X54472408Y-65405000D01*
X54585566Y-65405000D01*
X47591398Y-72399170D01*
X47396907Y-72318609D01*
X47127396Y-72265000D01*
X46852604Y-72265000D01*
X46583093Y-72318609D01*
X46380000Y-72402733D01*
X46380000Y-55139560D01*
X48440000Y-55139560D01*
X48440000Y-55604440D01*
X48530694Y-56060387D01*
X48708595Y-56489879D01*
X48966868Y-56876412D01*
X49295588Y-57205132D01*
X49682121Y-57463405D01*
X50111613Y-57641306D01*
X50567560Y-57732000D01*
X51032440Y-57732000D01*
X51488387Y-57641306D01*
X51917879Y-57463405D01*
X52304412Y-57205132D01*
X52633132Y-56876412D01*
X52891405Y-56489879D01*
X53069306Y-56060387D01*
X53160000Y-55604440D01*
X53160000Y-55139560D01*
X56060000Y-55139560D01*
X56060000Y-55604440D01*
X56150694Y-56060387D01*
X56328595Y-56489879D01*
X56586868Y-56876412D01*
X56915588Y-57205132D01*
X57302121Y-57463405D01*
X57731613Y-57641306D01*
X58187560Y-57732000D01*
X58652440Y-57732000D01*
X59108387Y-57641306D01*
X59537879Y-57463405D01*
X59924412Y-57205132D01*
X60253132Y-56876412D01*
X60511405Y-56489879D01*
X60689306Y-56060387D01*
X60780000Y-55604440D01*
X60780000Y-55139560D01*
X63680000Y-55139560D01*
X63680000Y-55604440D01*
X63770694Y-56060387D01*
X63948595Y-56489879D01*
X64206868Y-56876412D01*
X64535588Y-57205132D01*
X64922121Y-57463405D01*
X65351613Y-57641306D01*
X65807560Y-57732000D01*
X66272440Y-57732000D01*
X66728387Y-57641306D01*
X67157879Y-57463405D01*
X67544412Y-57205132D01*
X67873132Y-56876412D01*
X68131405Y-56489879D01*
X68309306Y-56060387D01*
X68400000Y-55604440D01*
X68400000Y-55139560D01*
X71300000Y-55139560D01*
X71300000Y-55604440D01*
X71390694Y-56060387D01*
X71568595Y-56489879D01*
X71826868Y-56876412D01*
X72155588Y-57205132D01*
X72542121Y-57463405D01*
X72971613Y-57641306D01*
X73427560Y-57732000D01*
X73892440Y-57732000D01*
X74348387Y-57641306D01*
X74777879Y-57463405D01*
X75164412Y-57205132D01*
X75493132Y-56876412D01*
X75751405Y-56489879D01*
X75929306Y-56060387D01*
X76020000Y-55604440D01*
X76020000Y-55139560D01*
X78920000Y-55139560D01*
X78920000Y-55604440D01*
X79010694Y-56060387D01*
X79188595Y-56489879D01*
X79446868Y-56876412D01*
X79775588Y-57205132D01*
X80162121Y-57463405D01*
X80591613Y-57641306D01*
X81047560Y-57732000D01*
X81512440Y-57732000D01*
X81968387Y-57641306D01*
X82397879Y-57463405D01*
X82784412Y-57205132D01*
X83113132Y-56876412D01*
X83371405Y-56489879D01*
X83549306Y-56060387D01*
X83640000Y-55604440D01*
X83640000Y-55139560D01*
X86540000Y-55139560D01*
X86540000Y-55604440D01*
X86630694Y-56060387D01*
X86808595Y-56489879D01*
X87066868Y-56876412D01*
X87395588Y-57205132D01*
X87782121Y-57463405D01*
X88211613Y-57641306D01*
X88667560Y-57732000D01*
X89132440Y-57732000D01*
X89588387Y-57641306D01*
X90017879Y-57463405D01*
X90404412Y-57205132D01*
X90733132Y-56876412D01*
X90991405Y-56489879D01*
X91169306Y-56060387D01*
X91260000Y-55604440D01*
X91260000Y-55139560D01*
X94160000Y-55139560D01*
X94160000Y-55604440D01*
X94250694Y-56060387D01*
X94428595Y-56489879D01*
X94686868Y-56876412D01*
X95015588Y-57205132D01*
X95402121Y-57463405D01*
X95831613Y-57641306D01*
X96287560Y-57732000D01*
X96752440Y-57732000D01*
X97208387Y-57641306D01*
X97637879Y-57463405D01*
X98024412Y-57205132D01*
X98353132Y-56876412D01*
X98611405Y-56489879D01*
X98789306Y-56060387D01*
X98880000Y-55604440D01*
X98880000Y-55139560D01*
X101780000Y-55139560D01*
X101780000Y-55604440D01*
X101870694Y-56060387D01*
X102048595Y-56489879D01*
X102306868Y-56876412D01*
X102635588Y-57205132D01*
X103022121Y-57463405D01*
X103451613Y-57641306D01*
X103907560Y-57732000D01*
X104372440Y-57732000D01*
X104828387Y-57641306D01*
X105257879Y-57463405D01*
X105644412Y-57205132D01*
X105973132Y-56876412D01*
X106231405Y-56489879D01*
X106409306Y-56060387D01*
X106500000Y-55604440D01*
X106500000Y-55139560D01*
X109400000Y-55139560D01*
X109400000Y-55604440D01*
X109490694Y-56060387D01*
X109668595Y-56489879D01*
X109926868Y-56876412D01*
X110255588Y-57205132D01*
X110642121Y-57463405D01*
X111071613Y-57641306D01*
X111527560Y-57732000D01*
X111992440Y-57732000D01*
X112448387Y-57641306D01*
X112877879Y-57463405D01*
X113264412Y-57205132D01*
X113593132Y-56876412D01*
X113851405Y-56489879D01*
X114029306Y-56060387D01*
X114120000Y-55604440D01*
X114120000Y-55139560D01*
X117020000Y-55139560D01*
X117020000Y-55604440D01*
X117110694Y-56060387D01*
X117288595Y-56489879D01*
X117546868Y-56876412D01*
X117875588Y-57205132D01*
X118262121Y-57463405D01*
X118691613Y-57641306D01*
X119147560Y-57732000D01*
X119612440Y-57732000D01*
X120068387Y-57641306D01*
X120497879Y-57463405D01*
X120884412Y-57205132D01*
X121213132Y-56876412D01*
X121471405Y-56489879D01*
X121649306Y-56060387D01*
X121740000Y-55604440D01*
X121740000Y-55139560D01*
X124640000Y-55139560D01*
X124640000Y-55604440D01*
X124730694Y-56060387D01*
X124908595Y-56489879D01*
X125166868Y-56876412D01*
X125495588Y-57205132D01*
X125882121Y-57463405D01*
X126311613Y-57641306D01*
X126767560Y-57732000D01*
X127232440Y-57732000D01*
X127688387Y-57641306D01*
X128117879Y-57463405D01*
X128504412Y-57205132D01*
X128833132Y-56876412D01*
X129091405Y-56489879D01*
X129269306Y-56060387D01*
X129360000Y-55604440D01*
X129360000Y-55139560D01*
X132260000Y-55139560D01*
X132260000Y-55604440D01*
X132350694Y-56060387D01*
X132528595Y-56489879D01*
X132786868Y-56876412D01*
X133115588Y-57205132D01*
X133502121Y-57463405D01*
X133931613Y-57641306D01*
X134387560Y-57732000D01*
X134852440Y-57732000D01*
X135308387Y-57641306D01*
X135737879Y-57463405D01*
X136124412Y-57205132D01*
X136453132Y-56876412D01*
X136711405Y-56489879D01*
X136889306Y-56060387D01*
X136980000Y-55604440D01*
X136980000Y-55139560D01*
X139880000Y-55139560D01*
X139880000Y-55604440D01*
X139970694Y-56060387D01*
X140148595Y-56489879D01*
X140406868Y-56876412D01*
X140735588Y-57205132D01*
X141122121Y-57463405D01*
X141551613Y-57641306D01*
X142007560Y-57732000D01*
X142472440Y-57732000D01*
X142928387Y-57641306D01*
X143357879Y-57463405D01*
X143744412Y-57205132D01*
X144073132Y-56876412D01*
X144331405Y-56489879D01*
X144509306Y-56060387D01*
X144600000Y-55604440D01*
X144600000Y-55139560D01*
X147500000Y-55139560D01*
X147500000Y-55604440D01*
X147590694Y-56060387D01*
X147768595Y-56489879D01*
X148026868Y-56876412D01*
X148355588Y-57205132D01*
X148742121Y-57463405D01*
X149171613Y-57641306D01*
X149627560Y-57732000D01*
X150092440Y-57732000D01*
X150548387Y-57641306D01*
X150977879Y-57463405D01*
X151364412Y-57205132D01*
X151693132Y-56876412D01*
X151951405Y-56489879D01*
X152129306Y-56060387D01*
X152220000Y-55604440D01*
X152220000Y-55139560D01*
X155120000Y-55139560D01*
X155120000Y-55604440D01*
X155210694Y-56060387D01*
X155388595Y-56489879D01*
X155646868Y-56876412D01*
X155975588Y-57205132D01*
X156362121Y-57463405D01*
X156791613Y-57641306D01*
X157247560Y-57732000D01*
X157712440Y-57732000D01*
X158168387Y-57641306D01*
X158597879Y-57463405D01*
X158984412Y-57205132D01*
X159313132Y-56876412D01*
X159571405Y-56489879D01*
X159749306Y-56060387D01*
X159840000Y-55604440D01*
X159840000Y-55139560D01*
X162740000Y-55139560D01*
X162740000Y-55604440D01*
X162830694Y-56060387D01*
X163008595Y-56489879D01*
X163266868Y-56876412D01*
X163595588Y-57205132D01*
X163982121Y-57463405D01*
X164411613Y-57641306D01*
X164867560Y-57732000D01*
X165332440Y-57732000D01*
X165788387Y-57641306D01*
X166217879Y-57463405D01*
X166604412Y-57205132D01*
X166933132Y-56876412D01*
X167191405Y-56489879D01*
X167369306Y-56060387D01*
X167460000Y-55604440D01*
X167460000Y-55139560D01*
X167369306Y-54683613D01*
X167191405Y-54254121D01*
X166933132Y-53867588D01*
X166604412Y-53538868D01*
X166217879Y-53280595D01*
X165788387Y-53102694D01*
X165332440Y-53012000D01*
X164867560Y-53012000D01*
X164411613Y-53102694D01*
X163982121Y-53280595D01*
X163595588Y-53538868D01*
X163266868Y-53867588D01*
X163008595Y-54254121D01*
X162830694Y-54683613D01*
X162740000Y-55139560D01*
X159840000Y-55139560D01*
X159749306Y-54683613D01*
X159571405Y-54254121D01*
X159313132Y-53867588D01*
X158984412Y-53538868D01*
X158597879Y-53280595D01*
X158168387Y-53102694D01*
X157712440Y-53012000D01*
X157247560Y-53012000D01*
X156791613Y-53102694D01*
X156362121Y-53280595D01*
X155975588Y-53538868D01*
X155646868Y-53867588D01*
X155388595Y-54254121D01*
X155210694Y-54683613D01*
X155120000Y-55139560D01*
X152220000Y-55139560D01*
X152129306Y-54683613D01*
X151951405Y-54254121D01*
X151693132Y-53867588D01*
X151364412Y-53538868D01*
X150977879Y-53280595D01*
X150548387Y-53102694D01*
X150092440Y-53012000D01*
X149627560Y-53012000D01*
X149171613Y-53102694D01*
X148742121Y-53280595D01*
X148355588Y-53538868D01*
X148026868Y-53867588D01*
X147768595Y-54254121D01*
X147590694Y-54683613D01*
X147500000Y-55139560D01*
X144600000Y-55139560D01*
X144509306Y-54683613D01*
X144331405Y-54254121D01*
X144073132Y-53867588D01*
X143744412Y-53538868D01*
X143357879Y-53280595D01*
X142928387Y-53102694D01*
X142472440Y-53012000D01*
X142007560Y-53012000D01*
X141551613Y-53102694D01*
X141122121Y-53280595D01*
X140735588Y-53538868D01*
X140406868Y-53867588D01*
X140148595Y-54254121D01*
X139970694Y-54683613D01*
X139880000Y-55139560D01*
X136980000Y-55139560D01*
X136889306Y-54683613D01*
X136711405Y-54254121D01*
X136453132Y-53867588D01*
X136124412Y-53538868D01*
X135737879Y-53280595D01*
X135308387Y-53102694D01*
X134852440Y-53012000D01*
X134387560Y-53012000D01*
X133931613Y-53102694D01*
X133502121Y-53280595D01*
X133115588Y-53538868D01*
X132786868Y-53867588D01*
X132528595Y-54254121D01*
X132350694Y-54683613D01*
X132260000Y-55139560D01*
X129360000Y-55139560D01*
X129269306Y-54683613D01*
X129091405Y-54254121D01*
X128833132Y-53867588D01*
X128504412Y-53538868D01*
X128117879Y-53280595D01*
X127688387Y-53102694D01*
X127232440Y-53012000D01*
X126767560Y-53012000D01*
X126311613Y-53102694D01*
X125882121Y-53280595D01*
X125495588Y-53538868D01*
X125166868Y-53867588D01*
X124908595Y-54254121D01*
X124730694Y-54683613D01*
X124640000Y-55139560D01*
X121740000Y-55139560D01*
X121649306Y-54683613D01*
X121471405Y-54254121D01*
X121213132Y-53867588D01*
X120884412Y-53538868D01*
X120497879Y-53280595D01*
X120068387Y-53102694D01*
X119612440Y-53012000D01*
X119147560Y-53012000D01*
X118691613Y-53102694D01*
X118262121Y-53280595D01*
X117875588Y-53538868D01*
X117546868Y-53867588D01*
X117288595Y-54254121D01*
X117110694Y-54683613D01*
X117020000Y-55139560D01*
X114120000Y-55139560D01*
X114029306Y-54683613D01*
X113851405Y-54254121D01*
X113593132Y-53867588D01*
X113264412Y-53538868D01*
X112877879Y-53280595D01*
X112448387Y-53102694D01*
X111992440Y-53012000D01*
X111527560Y-53012000D01*
X111071613Y-53102694D01*
X110642121Y-53280595D01*
X110255588Y-53538868D01*
X109926868Y-53867588D01*
X109668595Y-54254121D01*
X109490694Y-54683613D01*
X109400000Y-55139560D01*
X106500000Y-55139560D01*
X106409306Y-54683613D01*
X106231405Y-54254121D01*
X105973132Y-53867588D01*
X105644412Y-53538868D01*
X105257879Y-53280595D01*
X104828387Y-53102694D01*
X104372440Y-53012000D01*
X103907560Y-53012000D01*
X103451613Y-53102694D01*
X103022121Y-53280595D01*
X102635588Y-53538868D01*
X102306868Y-53867588D01*
X102048595Y-54254121D01*
X101870694Y-54683613D01*
X101780000Y-55139560D01*
X98880000Y-55139560D01*
X98789306Y-54683613D01*
X98611405Y-54254121D01*
X98353132Y-53867588D01*
X98024412Y-53538868D01*
X97637879Y-53280595D01*
X97208387Y-53102694D01*
X96752440Y-53012000D01*
X96287560Y-53012000D01*
X95831613Y-53102694D01*
X95402121Y-53280595D01*
X95015588Y-53538868D01*
X94686868Y-53867588D01*
X94428595Y-54254121D01*
X94250694Y-54683613D01*
X94160000Y-55139560D01*
X91260000Y-55139560D01*
X91169306Y-54683613D01*
X90991405Y-54254121D01*
X90733132Y-53867588D01*
X90404412Y-53538868D01*
X90017879Y-53280595D01*
X89588387Y-53102694D01*
X89132440Y-53012000D01*
X88667560Y-53012000D01*
X88211613Y-53102694D01*
X87782121Y-53280595D01*
X87395588Y-53538868D01*
X87066868Y-53867588D01*
X86808595Y-54254121D01*
X86630694Y-54683613D01*
X86540000Y-55139560D01*
X83640000Y-55139560D01*
X83549306Y-54683613D01*
X83371405Y-54254121D01*
X83113132Y-53867588D01*
X82784412Y-53538868D01*
X82397879Y-53280595D01*
X81968387Y-53102694D01*
X81512440Y-53012000D01*
X81047560Y-53012000D01*
X80591613Y-53102694D01*
X80162121Y-53280595D01*
X79775588Y-53538868D01*
X79446868Y-53867588D01*
X79188595Y-54254121D01*
X79010694Y-54683613D01*
X78920000Y-55139560D01*
X76020000Y-55139560D01*
X75929306Y-54683613D01*
X75751405Y-54254121D01*
X75493132Y-53867588D01*
X75164412Y-53538868D01*
X74777879Y-53280595D01*
X74348387Y-53102694D01*
X73892440Y-53012000D01*
X73427560Y-53012000D01*
X72971613Y-53102694D01*
X72542121Y-53280595D01*
X72155588Y-53538868D01*
X71826868Y-53867588D01*
X71568595Y-54254121D01*
X71390694Y-54683613D01*
X71300000Y-55139560D01*
X68400000Y-55139560D01*
X68309306Y-54683613D01*
X68131405Y-54254121D01*
X67873132Y-53867588D01*
X67544412Y-53538868D01*
X67157879Y-53280595D01*
X66728387Y-53102694D01*
X66272440Y-53012000D01*
X65807560Y-53012000D01*
X65351613Y-53102694D01*
X64922121Y-53280595D01*
X64535588Y-53538868D01*
X64206868Y-53867588D01*
X63948595Y-54254121D01*
X63770694Y-54683613D01*
X63680000Y-55139560D01*
X60780000Y-55139560D01*
X60689306Y-54683613D01*
X60511405Y-54254121D01*
X60253132Y-53867588D01*
X59924412Y-53538868D01*
X59537879Y-53280595D01*
X59108387Y-53102694D01*
X58652440Y-53012000D01*
X58187560Y-53012000D01*
X57731613Y-53102694D01*
X57302121Y-53280595D01*
X56915588Y-53538868D01*
X56586868Y-53867588D01*
X56328595Y-54254121D01*
X56150694Y-54683613D01*
X56060000Y-55139560D01*
X53160000Y-55139560D01*
X53069306Y-54683613D01*
X52891405Y-54254121D01*
X52633132Y-53867588D01*
X52304412Y-53538868D01*
X51917879Y-53280595D01*
X51488387Y-53102694D01*
X51032440Y-53012000D01*
X50567560Y-53012000D01*
X50111613Y-53102694D01*
X49682121Y-53280595D01*
X49295588Y-53538868D01*
X48966868Y-53867588D01*
X48708595Y-54254121D01*
X48530694Y-54683613D01*
X48440000Y-55139560D01*
X46380000Y-55139560D01*
X46380000Y-52610279D01*
X46409234Y-52312125D01*
X46486448Y-52056378D01*
X46611869Y-51820496D01*
X46780716Y-51613470D01*
X46986554Y-51443187D01*
X47221556Y-51316121D01*
X47476756Y-51237124D01*
X47772882Y-51206000D01*
X168115721Y-51206000D01*
X168413875Y-51235234D01*
X168413875Y-51235234D01*
G37*
X168413875Y-51235234D02*
X168669622Y-51312448D01*
X168905504Y-51437869D01*
X169112530Y-51606716D01*
X169282813Y-51812554D01*
X169409879Y-52047556D01*
X169488876Y-52302756D01*
X169520001Y-52598891D01*
X169520000Y-98265721D01*
X169490766Y-98563876D01*
X169413551Y-98819624D01*
X169288131Y-99055504D01*
X169119289Y-99262525D01*
X168913446Y-99432813D01*
X168678444Y-99559879D01*
X168423240Y-99638877D01*
X168127118Y-99670000D01*
X152432419Y-99670000D01*
X152400000Y-99666807D01*
X152367581Y-99670000D01*
X152270617Y-99679550D01*
X152146207Y-99717290D01*
X152031550Y-99778575D01*
X151931052Y-99861052D01*
X151848575Y-99961550D01*
X151787290Y-100076207D01*
X151749550Y-100200617D01*
X151736807Y-100330000D01*
X151740001Y-100362429D01*
X151740000Y-121125581D01*
X151736807Y-121158000D01*
X151749550Y-121287383D01*
X151787290Y-121411793D01*
X151848575Y-121526450D01*
X151929645Y-121625233D01*
X151931052Y-121626948D01*
X152031550Y-121709425D01*
X152146207Y-121770710D01*
X152270617Y-121808450D01*
X152400000Y-121821193D01*
X152432419Y-121818000D01*
X168115721Y-121818000D01*
X168413875Y-121847234D01*
X168669622Y-121924448D01*
X168905504Y-122049869D01*
X169112530Y-122218716D01*
X169282813Y-122424554D01*
X169409879Y-122659556D01*
X169488876Y-122914756D01*
X169520001Y-123210891D01*
X169520000Y-130745339D01*
X169179946Y-130853211D01*
X169124974Y-130876772D01*
X169069659Y-130899571D01*
X169061553Y-130903954D01*
X168714030Y-131095006D01*
X168664674Y-131128801D01*
X168614847Y-131161906D01*
X168607747Y-131167780D01*
X168303951Y-131422695D01*
X168262105Y-131465428D01*
X168219653Y-131507584D01*
X168213829Y-131514725D01*
X167965332Y-131823794D01*
X167932606Y-131873805D01*
X167899127Y-131923439D01*
X167894801Y-131931576D01*
X167711068Y-132283022D01*
X167688656Y-132338494D01*
X167665478Y-132393632D01*
X167662815Y-132402454D01*
X167550845Y-132782896D01*
X167539645Y-132841612D01*
X167527607Y-132900254D01*
X167526708Y-132909425D01*
X167490766Y-133304370D01*
X167491184Y-133364186D01*
X167490766Y-133424003D01*
X167491665Y-133433174D01*
X167533118Y-133827577D01*
X167545148Y-133886183D01*
X167556355Y-133944935D01*
X167559019Y-133953757D01*
X167676290Y-134332599D01*
X167699474Y-134387750D01*
X167721880Y-134443208D01*
X167726206Y-134451345D01*
X167914828Y-134800193D01*
X167948283Y-134849792D01*
X167981032Y-134899838D01*
X167986855Y-134906977D01*
X167986858Y-134906981D01*
X167986862Y-134906985D01*
X168239644Y-135212547D01*
X168282061Y-135254669D01*
X168323943Y-135297438D01*
X168331044Y-135303311D01*
X168638369Y-135553960D01*
X168688178Y-135587052D01*
X168737550Y-135620859D01*
X168745656Y-135625241D01*
X169095813Y-135811423D01*
X169151105Y-135834212D01*
X169206101Y-135857784D01*
X169214905Y-135860509D01*
X169520001Y-135952623D01*
X169520000Y-143985721D01*
X169490766Y-144283876D01*
X169413551Y-144539624D01*
X169288131Y-144775504D01*
X169119289Y-144982525D01*
X168913446Y-145152813D01*
X168678444Y-145279879D01*
X168423240Y-145358877D01*
X168127118Y-145390000D01*
X47784279Y-145390000D01*
X47486124Y-145360766D01*
X47230376Y-145283551D01*
X46994496Y-145158131D01*
X46787475Y-144989289D01*
X46617187Y-144783446D01*
X46490121Y-144548444D01*
X46411123Y-144293240D01*
X46380000Y-143997118D01*
X46380000Y-135954661D01*
X46720055Y-135846789D01*
X46775040Y-135823222D01*
X46830341Y-135800429D01*
X46838447Y-135796046D01*
X47185970Y-135604994D01*
X47235327Y-135571199D01*
X47285153Y-135538094D01*
X47292254Y-135532220D01*
X47596049Y-135277305D01*
X47637912Y-135234555D01*
X47680347Y-135192416D01*
X47686171Y-135185274D01*
X47934668Y-134876206D01*
X47967415Y-134826164D01*
X48000873Y-134776561D01*
X48005199Y-134768425D01*
X48188932Y-134416978D01*
X48211337Y-134361523D01*
X48234522Y-134306368D01*
X48237185Y-134297546D01*
X48349155Y-133917104D01*
X48360355Y-133858388D01*
X48372393Y-133799746D01*
X48373292Y-133790575D01*
X48409234Y-133395630D01*
X48408816Y-133335814D01*
X48409234Y-133275997D01*
X48408334Y-133266826D01*
X48366882Y-132872422D01*
X48354855Y-132813829D01*
X48343645Y-132755065D01*
X48340981Y-132746243D01*
X48223710Y-132367401D01*
X48200526Y-132312250D01*
X48178120Y-132256792D01*
X48173794Y-132248655D01*
X47985172Y-131899807D01*
X47951717Y-131850208D01*
X47918968Y-131800162D01*
X47913144Y-131793021D01*
X47660356Y-131487453D01*
X47617923Y-131445315D01*
X47576057Y-131402562D01*
X47568962Y-131396694D01*
X47568957Y-131396689D01*
X47568952Y-131396685D01*
X47261631Y-131146041D01*
X47211838Y-131112959D01*
X47162449Y-131079141D01*
X47154343Y-131074759D01*
X46804187Y-130888577D01*
X46748867Y-130865776D01*
X46693899Y-130842216D01*
X46685099Y-130839492D01*
X46685093Y-130839490D01*
X46380000Y-130747378D01*
X46380000Y-120637267D01*
X46583093Y-120721391D01*
X46852604Y-120775000D01*
X47127396Y-120775000D01*
X47396907Y-120721391D01*
X47650780Y-120616233D01*
X47879261Y-120463567D01*
X48073567Y-120269261D01*
X48226233Y-120040780D01*
X48260000Y-119959260D01*
X48293767Y-120040780D01*
X48446433Y-120269261D01*
X48640739Y-120463567D01*
X48869220Y-120616233D01*
X49123093Y-120721391D01*
X49392604Y-120775000D01*
X49667396Y-120775000D01*
X49936907Y-120721391D01*
X50190780Y-120616233D01*
X50419261Y-120463567D01*
X50613567Y-120269261D01*
X50766233Y-120040780D01*
X50800000Y-119959260D01*
X50833767Y-120040780D01*
X50986433Y-120269261D01*
X51180739Y-120463567D01*
X51409220Y-120616233D01*
X51663093Y-120721391D01*
X51932604Y-120775000D01*
X52207396Y-120775000D01*
X52476907Y-120721391D01*
X52730780Y-120616233D01*
X52959261Y-120463567D01*
X53153567Y-120269261D01*
X53306233Y-120040780D01*
X53340000Y-119959260D01*
X53373767Y-120040780D01*
X53526433Y-120269261D01*
X53720739Y-120463567D01*
X53949220Y-120616233D01*
X54203093Y-120721391D01*
X54472604Y-120775000D01*
X54747396Y-120775000D01*
X55016907Y-120721391D01*
X55270780Y-120616233D01*
X55499261Y-120463567D01*
X55693567Y-120269261D01*
X55846233Y-120040780D01*
X55880000Y-119959260D01*
X55913767Y-120040780D01*
X56066433Y-120269261D01*
X56260739Y-120463567D01*
X56489220Y-120616233D01*
X56743093Y-120721391D01*
X57012604Y-120775000D01*
X57287396Y-120775000D01*
X57556907Y-120721391D01*
X57810780Y-120616233D01*
X58039261Y-120463567D01*
X58233567Y-120269261D01*
X58386233Y-120040780D01*
X58420000Y-119959260D01*
X58453767Y-120040780D01*
X58606433Y-120269261D01*
X58800739Y-120463567D01*
X59029220Y-120616233D01*
X59283093Y-120721391D01*
X59552604Y-120775000D01*
X59827396Y-120775000D01*
X60096907Y-120721391D01*
X60350780Y-120616233D01*
X60579261Y-120463567D01*
X60773567Y-120269261D01*
X60926233Y-120040780D01*
X60960000Y-119959260D01*
X60993767Y-120040780D01*
X61146433Y-120269261D01*
X61340739Y-120463567D01*
X61569220Y-120616233D01*
X61823093Y-120721391D01*
X62092604Y-120775000D01*
X62367396Y-120775000D01*
X62636907Y-120721391D01*
X62890780Y-120616233D01*
X63119261Y-120463567D01*
X63313567Y-120269261D01*
X63466233Y-120040780D01*
X63500000Y-119959260D01*
X63533767Y-120040780D01*
X63686433Y-120269261D01*
X63880739Y-120463567D01*
X64109220Y-120616233D01*
X64363093Y-120721391D01*
X64632604Y-120775000D01*
X64907396Y-120775000D01*
X65176907Y-120721391D01*
X65430780Y-120616233D01*
X65659261Y-120463567D01*
X65853567Y-120269261D01*
X66006233Y-120040780D01*
X66040000Y-119959260D01*
X66073767Y-120040780D01*
X66226433Y-120269261D01*
X66420739Y-120463567D01*
X66649220Y-120616233D01*
X66903093Y-120721391D01*
X67172604Y-120775000D01*
X67447396Y-120775000D01*
X67716907Y-120721391D01*
X67970780Y-120616233D01*
X68199261Y-120463567D01*
X68393567Y-120269261D01*
X68546233Y-120040780D01*
X68580000Y-119959260D01*
X68613767Y-120040780D01*
X68766433Y-120269261D01*
X68960739Y-120463567D01*
X69189220Y-120616233D01*
X69443093Y-120721391D01*
X69712604Y-120775000D01*
X69987396Y-120775000D01*
X70256907Y-120721391D01*
X70510780Y-120616233D01*
X70739261Y-120463567D01*
X70933567Y-120269261D01*
X71086233Y-120040780D01*
X71191391Y-119786907D01*
X71245000Y-119517396D01*
X71245000Y-119242604D01*
X71191391Y-118973093D01*
X71086233Y-118719220D01*
X70933567Y-118490739D01*
X70739261Y-118296433D01*
X70510780Y-118143767D01*
X70429260Y-118110000D01*
X70510780Y-118076233D01*
X70739261Y-117923567D01*
X70933567Y-117729261D01*
X71086233Y-117500780D01*
X71191391Y-117246907D01*
X71245000Y-116977396D01*
X71245000Y-116702604D01*
X109095000Y-116702604D01*
X109095000Y-116977396D01*
X109148609Y-117246907D01*
X109253767Y-117500780D01*
X109406433Y-117729261D01*
X109600739Y-117923567D01*
X109829220Y-118076233D01*
X109910740Y-118110000D01*
X109829220Y-118143767D01*
X109600739Y-118296433D01*
X109406433Y-118490739D01*
X109253767Y-118719220D01*
X109148609Y-118973093D01*
X109095000Y-119242604D01*
X109095000Y-119517396D01*
X109148609Y-119786907D01*
X109253767Y-120040780D01*
X109406433Y-120269261D01*
X109600739Y-120463567D01*
X109829220Y-120616233D01*
X110083093Y-120721391D01*
X110352604Y-120775000D01*
X110627396Y-120775000D01*
X110896907Y-120721391D01*
X111150780Y-120616233D01*
X111379261Y-120463567D01*
X111573567Y-120269261D01*
X111726233Y-120040780D01*
X111760000Y-119959260D01*
X111793767Y-120040780D01*
X111946433Y-120269261D01*
X112140739Y-120463567D01*
X112369220Y-120616233D01*
X112623093Y-120721391D01*
X112892604Y-120775000D01*
X113167396Y-120775000D01*
X113436907Y-120721391D01*
X113690780Y-120616233D01*
X113919261Y-120463567D01*
X114113567Y-120269261D01*
X114266233Y-120040780D01*
X114300000Y-119959260D01*
X114333767Y-120040780D01*
X114486433Y-120269261D01*
X114680739Y-120463567D01*
X114909220Y-120616233D01*
X115163093Y-120721391D01*
X115432604Y-120775000D01*
X115707396Y-120775000D01*
X115976907Y-120721391D01*
X116230780Y-120616233D01*
X116459261Y-120463567D01*
X116653567Y-120269261D01*
X116806233Y-120040780D01*
X116840000Y-119959260D01*
X116873767Y-120040780D01*
X117026433Y-120269261D01*
X117220739Y-120463567D01*
X117449220Y-120616233D01*
X117703093Y-120721391D01*
X117972604Y-120775000D01*
X118247396Y-120775000D01*
X118516907Y-120721391D01*
X118770780Y-120616233D01*
X118999261Y-120463567D01*
X119193567Y-120269261D01*
X119346233Y-120040780D01*
X119380000Y-119959260D01*
X119413767Y-120040780D01*
X119566433Y-120269261D01*
X119760739Y-120463567D01*
X119989220Y-120616233D01*
X120243093Y-120721391D01*
X120512604Y-120775000D01*
X120787396Y-120775000D01*
X121056907Y-120721391D01*
X121310780Y-120616233D01*
X121539261Y-120463567D01*
X121733567Y-120269261D01*
X121886233Y-120040780D01*
X121920000Y-119959260D01*
X121953767Y-120040780D01*
X122106433Y-120269261D01*
X122300739Y-120463567D01*
X122529220Y-120616233D01*
X122783093Y-120721391D01*
X123052604Y-120775000D01*
X123327396Y-120775000D01*
X123596907Y-120721391D01*
X123850780Y-120616233D01*
X124079261Y-120463567D01*
X124273567Y-120269261D01*
X124426233Y-120040780D01*
X124460000Y-119959260D01*
X124493767Y-120040780D01*
X124646433Y-120269261D01*
X124840739Y-120463567D01*
X125069220Y-120616233D01*
X125323093Y-120721391D01*
X125592604Y-120775000D01*
X125867396Y-120775000D01*
X126136907Y-120721391D01*
X126390780Y-120616233D01*
X126619261Y-120463567D01*
X126813567Y-120269261D01*
X126966233Y-120040780D01*
X127000000Y-119959260D01*
X127033767Y-120040780D01*
X127186433Y-120269261D01*
X127380739Y-120463567D01*
X127609220Y-120616233D01*
X127863093Y-120721391D01*
X128132604Y-120775000D01*
X128407396Y-120775000D01*
X128676907Y-120721391D01*
X128930780Y-120616233D01*
X129159261Y-120463567D01*
X129353567Y-120269261D01*
X129506233Y-120040780D01*
X129540000Y-119959260D01*
X129573767Y-120040780D01*
X129726433Y-120269261D01*
X129920739Y-120463567D01*
X130149220Y-120616233D01*
X130403093Y-120721391D01*
X130672604Y-120775000D01*
X130947396Y-120775000D01*
X131216907Y-120721391D01*
X131470780Y-120616233D01*
X131699261Y-120463567D01*
X131893567Y-120269261D01*
X132046233Y-120040780D01*
X132080000Y-119959260D01*
X132113767Y-120040780D01*
X132266433Y-120269261D01*
X132460739Y-120463567D01*
X132689220Y-120616233D01*
X132943093Y-120721391D01*
X133212604Y-120775000D01*
X133487396Y-120775000D01*
X133756907Y-120721391D01*
X134010780Y-120616233D01*
X134239261Y-120463567D01*
X134433567Y-120269261D01*
X134586233Y-120040780D01*
X134691391Y-119786907D01*
X134745000Y-119517396D01*
X134745000Y-119242604D01*
X134691391Y-118973093D01*
X134586233Y-118719220D01*
X134433567Y-118490739D01*
X134239261Y-118296433D01*
X134010780Y-118143767D01*
X133929260Y-118110000D01*
X134010780Y-118076233D01*
X134239261Y-117923567D01*
X134433567Y-117729261D01*
X134586233Y-117500780D01*
X134691391Y-117246907D01*
X134745000Y-116977396D01*
X134745000Y-116702604D01*
X134691391Y-116433093D01*
X134586233Y-116179220D01*
X134433567Y-115950739D01*
X134239261Y-115756433D01*
X134010780Y-115603767D01*
X133756907Y-115498609D01*
X133487396Y-115445000D01*
X133212604Y-115445000D01*
X132943093Y-115498609D01*
X132689220Y-115603767D01*
X132460739Y-115756433D01*
X132266433Y-115950739D01*
X132113767Y-116179220D01*
X132080000Y-116260740D01*
X132046233Y-116179220D01*
X131893567Y-115950739D01*
X131699261Y-115756433D01*
X131470780Y-115603767D01*
X131216907Y-115498609D01*
X130947396Y-115445000D01*
X130672604Y-115445000D01*
X130403093Y-115498609D01*
X130149220Y-115603767D01*
X129920739Y-115756433D01*
X129726433Y-115950739D01*
X129573767Y-116179220D01*
X129540000Y-116260740D01*
X129506233Y-116179220D01*
X129353567Y-115950739D01*
X129159261Y-115756433D01*
X128930780Y-115603767D01*
X128676907Y-115498609D01*
X128407396Y-115445000D01*
X128132604Y-115445000D01*
X127863093Y-115498609D01*
X127609220Y-115603767D01*
X127380739Y-115756433D01*
X127186433Y-115950739D01*
X127033767Y-116179220D01*
X127000000Y-116260740D01*
X126966233Y-116179220D01*
X126813567Y-115950739D01*
X126619261Y-115756433D01*
X126390780Y-115603767D01*
X126136907Y-115498609D01*
X125867396Y-115445000D01*
X125592604Y-115445000D01*
X125323093Y-115498609D01*
X125069220Y-115603767D01*
X124840739Y-115756433D01*
X124646433Y-115950739D01*
X124493767Y-116179220D01*
X124460000Y-116260740D01*
X124426233Y-116179220D01*
X124273567Y-115950739D01*
X124079261Y-115756433D01*
X123850780Y-115603767D01*
X123596907Y-115498609D01*
X123327396Y-115445000D01*
X123052604Y-115445000D01*
X122783093Y-115498609D01*
X122529220Y-115603767D01*
X122300739Y-115756433D01*
X122106433Y-115950739D01*
X121953767Y-116179220D01*
X121920000Y-116260740D01*
X121886233Y-116179220D01*
X121733567Y-115950739D01*
X121539261Y-115756433D01*
X121310780Y-115603767D01*
X121056907Y-115498609D01*
X120787396Y-115445000D01*
X120512604Y-115445000D01*
X120243093Y-115498609D01*
X119989220Y-115603767D01*
X119760739Y-115756433D01*
X119566433Y-115950739D01*
X119413767Y-116179220D01*
X119380000Y-116260740D01*
X119346233Y-116179220D01*
X119193567Y-115950739D01*
X118999261Y-115756433D01*
X118770780Y-115603767D01*
X118516907Y-115498609D01*
X118247396Y-115445000D01*
X117972604Y-115445000D01*
X117703093Y-115498609D01*
X117449220Y-115603767D01*
X117220739Y-115756433D01*
X117026433Y-115950739D01*
X116873767Y-116179220D01*
X116840000Y-116260740D01*
X116806233Y-116179220D01*
X116653567Y-115950739D01*
X116459261Y-115756433D01*
X116230780Y-115603767D01*
X115976907Y-115498609D01*
X115707396Y-115445000D01*
X115432604Y-115445000D01*
X115163093Y-115498609D01*
X114909220Y-115603767D01*
X114680739Y-115756433D01*
X114486433Y-115950739D01*
X114333767Y-116179220D01*
X114300000Y-116260740D01*
X114266233Y-116179220D01*
X114113567Y-115950739D01*
X113919261Y-115756433D01*
X113690780Y-115603767D01*
X113436907Y-115498609D01*
X113167396Y-115445000D01*
X112892604Y-115445000D01*
X112623093Y-115498609D01*
X112369220Y-115603767D01*
X112140739Y-115756433D01*
X111946433Y-115950739D01*
X111793767Y-116179220D01*
X111760000Y-116260740D01*
X111726233Y-116179220D01*
X111573567Y-115950739D01*
X111379261Y-115756433D01*
X111150780Y-115603767D01*
X110896907Y-115498609D01*
X110627396Y-115445000D01*
X110352604Y-115445000D01*
X110083093Y-115498609D01*
X109829220Y-115603767D01*
X109600739Y-115756433D01*
X109406433Y-115950739D01*
X109253767Y-116179220D01*
X109148609Y-116433093D01*
X109095000Y-116702604D01*
X71245000Y-116702604D01*
X71230040Y-116627393D01*
X72258903Y-115598530D01*
X92871421Y-115598530D01*
X92911971Y-115602524D01*
X92952521Y-115598530D01*
X92952524Y-115598530D01*
X93073797Y-115586586D01*
X93229405Y-115539383D01*
X93372813Y-115462729D01*
X93498512Y-115359571D01*
X93524369Y-115328064D01*
X97755007Y-111097428D01*
X97916899Y-111065226D01*
X98105257Y-110987205D01*
X98274775Y-110873937D01*
X98418938Y-110729774D01*
X98532206Y-110560256D01*
X98610227Y-110371898D01*
X98650001Y-110171939D01*
X98650001Y-109968061D01*
X98610227Y-109768102D01*
X98532206Y-109579744D01*
X98418938Y-109410226D01*
X98274775Y-109266063D01*
X98105257Y-109152795D01*
X97916899Y-109074774D01*
X97716940Y-109035000D01*
X97513062Y-109035000D01*
X97313103Y-109074774D01*
X97124745Y-109152795D01*
X96955227Y-109266063D01*
X96811064Y-109410226D01*
X96697796Y-109579744D01*
X96619775Y-109768102D01*
X96587573Y-109929994D01*
X92570039Y-113947530D01*
X88729902Y-113947530D01*
X91580006Y-111097428D01*
X91741898Y-111065226D01*
X91930256Y-110987205D01*
X92099774Y-110873937D01*
X92243937Y-110729774D01*
X92357205Y-110560256D01*
X92435226Y-110371898D01*
X92475000Y-110171939D01*
X92475000Y-109968061D01*
X92435226Y-109768102D01*
X92357205Y-109579744D01*
X92243937Y-109410226D01*
X92099774Y-109266063D01*
X91930256Y-109152795D01*
X91741898Y-109074774D01*
X91541939Y-109035000D01*
X91338061Y-109035000D01*
X91138102Y-109074774D01*
X90949744Y-109152795D01*
X90780226Y-109266063D01*
X90636063Y-109410226D01*
X90522795Y-109579744D01*
X90444774Y-109768102D01*
X90412572Y-109929994D01*
X86976048Y-113366520D01*
X82960912Y-113366520D01*
X85230005Y-111097428D01*
X85391898Y-111065226D01*
X85580256Y-110987205D01*
X85749774Y-110873937D01*
X85893937Y-110729774D01*
X86007205Y-110560256D01*
X86085226Y-110371898D01*
X86125000Y-110171939D01*
X86125000Y-109968061D01*
X86085226Y-109768102D01*
X86007205Y-109579744D01*
X85893937Y-109410226D01*
X85749774Y-109266063D01*
X85580256Y-109152795D01*
X85391898Y-109074774D01*
X85191939Y-109035000D01*
X84988061Y-109035000D01*
X84788102Y-109074774D01*
X84599744Y-109152795D01*
X84430226Y-109266063D01*
X84286063Y-109410226D01*
X84172795Y-109579744D01*
X84094774Y-109768102D01*
X84062572Y-109929995D01*
X81207058Y-112785510D01*
X77191922Y-112785510D01*
X78880004Y-111097428D01*
X79041898Y-111065226D01*
X79230256Y-110987205D01*
X79399774Y-110873937D01*
X79543937Y-110729774D01*
X79657205Y-110560256D01*
X79735226Y-110371898D01*
X79775000Y-110171939D01*
X79775000Y-109968061D01*
X79735226Y-109768102D01*
X79657205Y-109579744D01*
X79543937Y-109410226D01*
X79399774Y-109266063D01*
X79230256Y-109152795D01*
X79041898Y-109074774D01*
X78841939Y-109035000D01*
X78638061Y-109035000D01*
X78438102Y-109074774D01*
X78249744Y-109152795D01*
X78080226Y-109266063D01*
X77936063Y-109410226D01*
X77822795Y-109579744D01*
X77744774Y-109768102D01*
X77712572Y-109929996D01*
X75438068Y-112204500D01*
X71422933Y-112204500D01*
X72530005Y-111097428D01*
X72691898Y-111065226D01*
X72880256Y-110987205D01*
X73049774Y-110873937D01*
X73193937Y-110729774D01*
X73307205Y-110560256D01*
X73385226Y-110371898D01*
X73425000Y-110171939D01*
X73425000Y-109968061D01*
X73385226Y-109768102D01*
X73307205Y-109579744D01*
X73193937Y-109410226D01*
X73049774Y-109266063D01*
X72880256Y-109152795D01*
X72691898Y-109074774D01*
X72491939Y-109035000D01*
X72288061Y-109035000D01*
X72088102Y-109074774D01*
X71899744Y-109152795D01*
X71730226Y-109266063D01*
X71586063Y-109410226D01*
X71472795Y-109579744D01*
X71394774Y-109768102D01*
X71362572Y-109929995D01*
X69669078Y-111623490D01*
X65653943Y-111623490D01*
X66180005Y-111097428D01*
X66341898Y-111065226D01*
X66530256Y-110987205D01*
X66699774Y-110873937D01*
X66843937Y-110729774D01*
X66957205Y-110560256D01*
X67035226Y-110371898D01*
X67075000Y-110171939D01*
X67075000Y-109968061D01*
X67035226Y-109768102D01*
X66957205Y-109579744D01*
X66843937Y-109410226D01*
X66699774Y-109266063D01*
X66530256Y-109152795D01*
X66341898Y-109074774D01*
X66141939Y-109035000D01*
X65938061Y-109035000D01*
X65738102Y-109074774D01*
X65549744Y-109152795D01*
X65380226Y-109266063D01*
X65236063Y-109410226D01*
X65122795Y-109579744D01*
X65044774Y-109768102D01*
X65012572Y-109929995D01*
X64008068Y-110934500D01*
X62270550Y-110934500D01*
X62230000Y-110930506D01*
X62189449Y-110934500D01*
X62189447Y-110934500D01*
X62068174Y-110946444D01*
X61933803Y-110987205D01*
X61912566Y-110993647D01*
X61769157Y-111070301D01*
X61674958Y-111147608D01*
X61674955Y-111147611D01*
X61643459Y-111173459D01*
X61617611Y-111204955D01*
X57362607Y-115459960D01*
X57287396Y-115445000D01*
X57012604Y-115445000D01*
X56743093Y-115498609D01*
X56489220Y-115603767D01*
X56260739Y-115756433D01*
X56066433Y-115950739D01*
X55913767Y-116179220D01*
X55880000Y-116260740D01*
X55846233Y-116179220D01*
X55693567Y-115950739D01*
X55499261Y-115756433D01*
X55435500Y-115713829D01*
X55435500Y-115491932D01*
X59830006Y-111097428D01*
X59991898Y-111065226D01*
X60180256Y-110987205D01*
X60349774Y-110873937D01*
X60493937Y-110729774D01*
X60607205Y-110560256D01*
X60685226Y-110371898D01*
X60725000Y-110171939D01*
X60725000Y-109968061D01*
X60685226Y-109768102D01*
X60607205Y-109579744D01*
X60493937Y-109410226D01*
X60349774Y-109266063D01*
X60180256Y-109152795D01*
X59991898Y-109074774D01*
X59791939Y-109035000D01*
X59588061Y-109035000D01*
X59388102Y-109074774D01*
X59199744Y-109152795D01*
X59030226Y-109266063D01*
X58886063Y-109410226D01*
X58772795Y-109579744D01*
X58694774Y-109768102D01*
X58662572Y-109929994D01*
X54054961Y-114537607D01*
X54023460Y-114563459D01*
X53997609Y-114594959D01*
X53920301Y-114689158D01*
X53843647Y-114832567D01*
X53796445Y-114988174D01*
X53780506Y-115150000D01*
X53784501Y-115190560D01*
X53784501Y-115713829D01*
X53720739Y-115756433D01*
X53526433Y-115950739D01*
X53373767Y-116179220D01*
X53340000Y-116260740D01*
X53306233Y-116179220D01*
X53153567Y-115950739D01*
X52959261Y-115756433D01*
X52895500Y-115713829D01*
X52895500Y-111681932D01*
X53480004Y-111097428D01*
X53641898Y-111065226D01*
X53830256Y-110987205D01*
X53999774Y-110873937D01*
X54143937Y-110729774D01*
X54257205Y-110560256D01*
X54335226Y-110371898D01*
X54375000Y-110171939D01*
X54375000Y-109968061D01*
X54335226Y-109768102D01*
X54257205Y-109579744D01*
X54143937Y-109410226D01*
X53999774Y-109266063D01*
X53830256Y-109152795D01*
X53641898Y-109074774D01*
X53441939Y-109035000D01*
X53238061Y-109035000D01*
X53038102Y-109074774D01*
X52849744Y-109152795D01*
X52680226Y-109266063D01*
X52536063Y-109410226D01*
X52422795Y-109579744D01*
X52344774Y-109768102D01*
X52312572Y-109929996D01*
X51514961Y-110727607D01*
X51483460Y-110753459D01*
X51457609Y-110784959D01*
X51380301Y-110879158D01*
X51303647Y-111022567D01*
X51256445Y-111178174D01*
X51240506Y-111340000D01*
X51244501Y-111380560D01*
X51244500Y-115713829D01*
X51180739Y-115756433D01*
X50986433Y-115950739D01*
X50833767Y-116179220D01*
X50800000Y-116260740D01*
X50766233Y-116179220D01*
X50613567Y-115950739D01*
X50419261Y-115756433D01*
X50190780Y-115603767D01*
X49936907Y-115498609D01*
X49667396Y-115445000D01*
X49392604Y-115445000D01*
X49123093Y-115498609D01*
X48869220Y-115603767D01*
X48640739Y-115756433D01*
X48446433Y-115950739D01*
X48293767Y-116179220D01*
X48260000Y-116260740D01*
X48226233Y-116179220D01*
X48073567Y-115950739D01*
X47879261Y-115756433D01*
X47650780Y-115603767D01*
X47396907Y-115498609D01*
X47127396Y-115445000D01*
X46852604Y-115445000D01*
X46583093Y-115498609D01*
X46380000Y-115582733D01*
X46380000Y-101335408D01*
X107061000Y-101335408D01*
X107061000Y-101610592D01*
X107114686Y-101880490D01*
X107219995Y-102134727D01*
X107372880Y-102363535D01*
X107567465Y-102558120D01*
X107796273Y-102711005D01*
X107873515Y-102743000D01*
X107796273Y-102774995D01*
X107567465Y-102927880D01*
X107372880Y-103122465D01*
X107219995Y-103351273D01*
X107114686Y-103605510D01*
X107061000Y-103875408D01*
X107061000Y-104150592D01*
X107114686Y-104420490D01*
X107219995Y-104674727D01*
X107372880Y-104903535D01*
X107567465Y-105098120D01*
X107796273Y-105251005D01*
X107873515Y-105283000D01*
X107796273Y-105314995D01*
X107567465Y-105467880D01*
X107372880Y-105662465D01*
X107219995Y-105891273D01*
X107114686Y-106145510D01*
X107061000Y-106415408D01*
X107061000Y-106690592D01*
X107114686Y-106960490D01*
X107219995Y-107214727D01*
X107372880Y-107443535D01*
X107567465Y-107638120D01*
X107796273Y-107791005D01*
X108050510Y-107896314D01*
X108320408Y-107950000D01*
X108595592Y-107950000D01*
X108865490Y-107896314D01*
X109119727Y-107791005D01*
X109348535Y-107638120D01*
X109543120Y-107443535D01*
X109696005Y-107214727D01*
X109801314Y-106960490D01*
X109855000Y-106690592D01*
X109855000Y-106415408D01*
X109801314Y-106145510D01*
X109696005Y-105891273D01*
X109543120Y-105662465D01*
X109348535Y-105467880D01*
X109119727Y-105314995D01*
X109042485Y-105283000D01*
X109119727Y-105251005D01*
X109348535Y-105098120D01*
X109543120Y-104903535D01*
X109696005Y-104674727D01*
X109801314Y-104420490D01*
X109855000Y-104150592D01*
X109855000Y-104037432D01*
X116989611Y-111172045D01*
X117015459Y-111203541D01*
X117046955Y-111229389D01*
X117046958Y-111229392D01*
X117141157Y-111306699D01*
X117203459Y-111340000D01*
X117284566Y-111383353D01*
X117440174Y-111430556D01*
X117561447Y-111442500D01*
X117561449Y-111442500D01*
X117602000Y-111446494D01*
X117642550Y-111442500D01*
X117990497Y-111442500D01*
X118127744Y-111534205D01*
X118316102Y-111612226D01*
X118516061Y-111652000D01*
X118719939Y-111652000D01*
X118919898Y-111612226D01*
X119108256Y-111534205D01*
X119277774Y-111420937D01*
X119421937Y-111276774D01*
X119535205Y-111107256D01*
X119613226Y-110918898D01*
X119653000Y-110718939D01*
X119653000Y-110515061D01*
X119613226Y-110315102D01*
X119535205Y-110126744D01*
X119421937Y-109957226D01*
X119277774Y-109813063D01*
X119108256Y-109699795D01*
X118919898Y-109621774D01*
X118719939Y-109582000D01*
X118516061Y-109582000D01*
X118316102Y-109621774D01*
X118127744Y-109699795D01*
X117990497Y-109791500D01*
X117943934Y-109791500D01*
X109839740Y-101687308D01*
X109855000Y-101610592D01*
X109855000Y-101335408D01*
X109801314Y-101065510D01*
X109696005Y-100811273D01*
X109543120Y-100582465D01*
X109348535Y-100387880D01*
X109283500Y-100344425D01*
X109283500Y-95572290D01*
X148209000Y-95572290D01*
X148209000Y-96197710D01*
X148331014Y-96811113D01*
X148570352Y-97388926D01*
X148917817Y-97908944D01*
X149360056Y-98351183D01*
X149880074Y-98698648D01*
X150457887Y-98937986D01*
X151071290Y-99060000D01*
X151696710Y-99060000D01*
X152310113Y-98937986D01*
X152887926Y-98698648D01*
X153407944Y-98351183D01*
X153850183Y-97908944D01*
X154197648Y-97388926D01*
X154436986Y-96811113D01*
X154559000Y-96197710D01*
X154559000Y-95572290D01*
X154436986Y-94958887D01*
X154197648Y-94381074D01*
X153850183Y-93861056D01*
X153407944Y-93418817D01*
X152887926Y-93071352D01*
X152310113Y-92832014D01*
X151696710Y-92710000D01*
X151071290Y-92710000D01*
X150457887Y-92832014D01*
X149880074Y-93071352D01*
X149360056Y-93418817D01*
X148917817Y-93861056D01*
X148570352Y-94381074D01*
X148331014Y-94958887D01*
X148209000Y-95572290D01*
X109283500Y-95572290D01*
X109283500Y-92124003D01*
X109375205Y-91986756D01*
X109453226Y-91798398D01*
X109493000Y-91598439D01*
X109493000Y-91394561D01*
X109453226Y-91194602D01*
X109375205Y-91006244D01*
X109283500Y-90868997D01*
X109283500Y-87698290D01*
X148209000Y-87698290D01*
X148209000Y-88323710D01*
X148331014Y-88937113D01*
X148570352Y-89514926D01*
X148917817Y-90034944D01*
X149360056Y-90477183D01*
X149880074Y-90824648D01*
X150457887Y-91063986D01*
X151071290Y-91186000D01*
X151696710Y-91186000D01*
X152310113Y-91063986D01*
X152887926Y-90824648D01*
X153407944Y-90477183D01*
X153850183Y-90034944D01*
X154197648Y-89514926D01*
X154436986Y-88937113D01*
X154559000Y-88323710D01*
X154559000Y-87698290D01*
X154436986Y-87084887D01*
X154197648Y-86507074D01*
X153850183Y-85987056D01*
X153407944Y-85544817D01*
X152887926Y-85197352D01*
X152310113Y-84958014D01*
X151696710Y-84836000D01*
X151071290Y-84836000D01*
X150457887Y-84958014D01*
X149880074Y-85197352D01*
X149360056Y-85544817D01*
X148917817Y-85987056D01*
X148570352Y-86507074D01*
X148331014Y-87084887D01*
X148209000Y-87698290D01*
X109283500Y-87698290D01*
X109283500Y-79824290D01*
X148209000Y-79824290D01*
X148209000Y-80449710D01*
X148331014Y-81063113D01*
X148570352Y-81640926D01*
X148917817Y-82160944D01*
X149360056Y-82603183D01*
X149880074Y-82950648D01*
X150457887Y-83189986D01*
X151071290Y-83312000D01*
X151696710Y-83312000D01*
X152310113Y-83189986D01*
X152887926Y-82950648D01*
X153407944Y-82603183D01*
X153850183Y-82160944D01*
X154197648Y-81640926D01*
X154436986Y-81063113D01*
X154559000Y-80449710D01*
X154559000Y-79824290D01*
X154436986Y-79210887D01*
X154197648Y-78633074D01*
X153850183Y-78113056D01*
X153407944Y-77670817D01*
X152887926Y-77323352D01*
X152310113Y-77084014D01*
X151696710Y-76962000D01*
X151071290Y-76962000D01*
X150457887Y-77084014D01*
X149880074Y-77323352D01*
X149360056Y-77670817D01*
X148917817Y-78113056D01*
X148570352Y-78633074D01*
X148331014Y-79210887D01*
X148209000Y-79824290D01*
X109283500Y-79824290D01*
X109283500Y-76905279D01*
X109406433Y-77089261D01*
X109600739Y-77283567D01*
X109829220Y-77436233D01*
X110083093Y-77541391D01*
X110352604Y-77595000D01*
X110627396Y-77595000D01*
X110896907Y-77541391D01*
X111150780Y-77436233D01*
X111379261Y-77283567D01*
X111573567Y-77089261D01*
X111726233Y-76860780D01*
X111760000Y-76779260D01*
X111793767Y-76860780D01*
X111946433Y-77089261D01*
X112140739Y-77283567D01*
X112369220Y-77436233D01*
X112623093Y-77541391D01*
X112892604Y-77595000D01*
X113167396Y-77595000D01*
X113436907Y-77541391D01*
X113690780Y-77436233D01*
X113919261Y-77283567D01*
X114113567Y-77089261D01*
X114266233Y-76860780D01*
X114300000Y-76779260D01*
X114333767Y-76860780D01*
X114486433Y-77089261D01*
X114680739Y-77283567D01*
X114909220Y-77436233D01*
X115163093Y-77541391D01*
X115432604Y-77595000D01*
X115707396Y-77595000D01*
X115976907Y-77541391D01*
X116230780Y-77436233D01*
X116459261Y-77283567D01*
X116653567Y-77089261D01*
X116806233Y-76860780D01*
X116840000Y-76779260D01*
X116873767Y-76860780D01*
X117026433Y-77089261D01*
X117220739Y-77283567D01*
X117449220Y-77436233D01*
X117703093Y-77541391D01*
X117972604Y-77595000D01*
X118247396Y-77595000D01*
X118516907Y-77541391D01*
X118770780Y-77436233D01*
X118999261Y-77283567D01*
X119193567Y-77089261D01*
X119346233Y-76860780D01*
X119380000Y-76779260D01*
X119413767Y-76860780D01*
X119566433Y-77089261D01*
X119760739Y-77283567D01*
X119989220Y-77436233D01*
X120243093Y-77541391D01*
X120512604Y-77595000D01*
X120787396Y-77595000D01*
X121056907Y-77541391D01*
X121310780Y-77436233D01*
X121539261Y-77283567D01*
X121733567Y-77089261D01*
X121886233Y-76860780D01*
X121920000Y-76779260D01*
X121953767Y-76860780D01*
X122106433Y-77089261D01*
X122300739Y-77283567D01*
X122529220Y-77436233D01*
X122783093Y-77541391D01*
X123052604Y-77595000D01*
X123327396Y-77595000D01*
X123596907Y-77541391D01*
X123850780Y-77436233D01*
X124079261Y-77283567D01*
X124273567Y-77089261D01*
X124426233Y-76860780D01*
X124460000Y-76779260D01*
X124493767Y-76860780D01*
X124646433Y-77089261D01*
X124840739Y-77283567D01*
X125069220Y-77436233D01*
X125323093Y-77541391D01*
X125592604Y-77595000D01*
X125867396Y-77595000D01*
X126136907Y-77541391D01*
X126390780Y-77436233D01*
X126619261Y-77283567D01*
X126813567Y-77089261D01*
X126966233Y-76860780D01*
X127000000Y-76779260D01*
X127033767Y-76860780D01*
X127186433Y-77089261D01*
X127380739Y-77283567D01*
X127609220Y-77436233D01*
X127863093Y-77541391D01*
X128132604Y-77595000D01*
X128407396Y-77595000D01*
X128676907Y-77541391D01*
X128930780Y-77436233D01*
X129159261Y-77283567D01*
X129353567Y-77089261D01*
X129506233Y-76860780D01*
X129540000Y-76779260D01*
X129573767Y-76860780D01*
X129726433Y-77089261D01*
X129920739Y-77283567D01*
X130149220Y-77436233D01*
X130403093Y-77541391D01*
X130672604Y-77595000D01*
X130947396Y-77595000D01*
X131216907Y-77541391D01*
X131470780Y-77436233D01*
X131699261Y-77283567D01*
X131893567Y-77089261D01*
X132046233Y-76860780D01*
X132080000Y-76779260D01*
X132113767Y-76860780D01*
X132266433Y-77089261D01*
X132460739Y-77283567D01*
X132689220Y-77436233D01*
X132943093Y-77541391D01*
X133212604Y-77595000D01*
X133487396Y-77595000D01*
X133756907Y-77541391D01*
X134010780Y-77436233D01*
X134239261Y-77283567D01*
X134433567Y-77089261D01*
X134586233Y-76860780D01*
X134691391Y-76606907D01*
X134745000Y-76337396D01*
X134745000Y-76062604D01*
X134691391Y-75793093D01*
X134586233Y-75539220D01*
X134433567Y-75310739D01*
X134239261Y-75116433D01*
X134010780Y-74963767D01*
X133929260Y-74930000D01*
X134010780Y-74896233D01*
X134239261Y-74743567D01*
X134433567Y-74549261D01*
X134586233Y-74320780D01*
X134691391Y-74066907D01*
X134745000Y-73797396D01*
X134745000Y-73522604D01*
X134691391Y-73253093D01*
X134586233Y-72999220D01*
X134433567Y-72770739D01*
X134239261Y-72576433D01*
X134010780Y-72423767D01*
X133756907Y-72318609D01*
X133487396Y-72265000D01*
X133212604Y-72265000D01*
X132943093Y-72318609D01*
X132689220Y-72423767D01*
X132460739Y-72576433D01*
X132266433Y-72770739D01*
X132113767Y-72999220D01*
X132080000Y-73080740D01*
X132046233Y-72999220D01*
X131893567Y-72770739D01*
X131699261Y-72576433D01*
X131470780Y-72423767D01*
X131216907Y-72318609D01*
X130947396Y-72265000D01*
X130672604Y-72265000D01*
X130403093Y-72318609D01*
X130149220Y-72423767D01*
X129920739Y-72576433D01*
X129726433Y-72770739D01*
X129573767Y-72999220D01*
X129540000Y-73080740D01*
X129506233Y-72999220D01*
X129353567Y-72770739D01*
X129159261Y-72576433D01*
X128930780Y-72423767D01*
X128676907Y-72318609D01*
X128407396Y-72265000D01*
X128132604Y-72265000D01*
X127863093Y-72318609D01*
X127609220Y-72423767D01*
X127380739Y-72576433D01*
X127186433Y-72770739D01*
X127033767Y-72999220D01*
X127000000Y-73080740D01*
X126966233Y-72999220D01*
X126813567Y-72770739D01*
X126619261Y-72576433D01*
X126390780Y-72423767D01*
X126136907Y-72318609D01*
X125867396Y-72265000D01*
X125592604Y-72265000D01*
X125323093Y-72318609D01*
X125069220Y-72423767D01*
X124840739Y-72576433D01*
X124646433Y-72770739D01*
X124493767Y-72999220D01*
X124460000Y-73080740D01*
X124426233Y-72999220D01*
X124273567Y-72770739D01*
X124079261Y-72576433D01*
X123850780Y-72423767D01*
X123596907Y-72318609D01*
X123327396Y-72265000D01*
X123052604Y-72265000D01*
X122783093Y-72318609D01*
X122529220Y-72423767D01*
X122300739Y-72576433D01*
X122106433Y-72770739D01*
X121953767Y-72999220D01*
X121920000Y-73080740D01*
X121886233Y-72999220D01*
X121733567Y-72770739D01*
X121539261Y-72576433D01*
X121334844Y-72439846D01*
X126626671Y-67148021D01*
X161474929Y-67148021D01*
X161515479Y-67152015D01*
X161556029Y-67148021D01*
X161556032Y-67148021D01*
X161677305Y-67136077D01*
X161832913Y-67088874D01*
X161976321Y-67012220D01*
X162102020Y-66909062D01*
X162127877Y-66877555D01*
X163615692Y-65389740D01*
X163692408Y-65405000D01*
X163967592Y-65405000D01*
X164237490Y-65351314D01*
X164491727Y-65246005D01*
X164720535Y-65093120D01*
X164915120Y-64898535D01*
X165068005Y-64669727D01*
X165173314Y-64415490D01*
X165227000Y-64145592D01*
X165227000Y-63870408D01*
X165173314Y-63600510D01*
X165068005Y-63346273D01*
X164915120Y-63117465D01*
X164720535Y-62922880D01*
X164491727Y-62769995D01*
X164237490Y-62664686D01*
X163967592Y-62611000D01*
X163692408Y-62611000D01*
X163422510Y-62664686D01*
X163168273Y-62769995D01*
X162939465Y-62922880D01*
X162744880Y-63117465D01*
X162591995Y-63346273D01*
X162560000Y-63423515D01*
X162528005Y-63346273D01*
X162375120Y-63117465D01*
X162180535Y-62922880D01*
X161951727Y-62769995D01*
X161697490Y-62664686D01*
X161427592Y-62611000D01*
X161152408Y-62611000D01*
X160882510Y-62664686D01*
X160628273Y-62769995D01*
X160399465Y-62922880D01*
X160204880Y-63117465D01*
X160051995Y-63346273D01*
X159946686Y-63600510D01*
X159893000Y-63870408D01*
X159893000Y-64145592D01*
X159946686Y-64415490D01*
X160051995Y-64669727D01*
X160204880Y-64898535D01*
X160399465Y-65093120D01*
X160628273Y-65246005D01*
X160882510Y-65351314D01*
X161152408Y-65405000D01*
X161265568Y-65405000D01*
X161173547Y-65497021D01*
X148268412Y-65497021D01*
X148375693Y-65389740D01*
X148452408Y-65405000D01*
X148727592Y-65405000D01*
X148997490Y-65351314D01*
X149251727Y-65246005D01*
X149480535Y-65093120D01*
X149675120Y-64898535D01*
X149828005Y-64669727D01*
X149933314Y-64415490D01*
X149987000Y-64145592D01*
X149987000Y-63870408D01*
X149933314Y-63600510D01*
X149828005Y-63346273D01*
X149675120Y-63117465D01*
X149480535Y-62922880D01*
X149251727Y-62769995D01*
X148997490Y-62664686D01*
X148727592Y-62611000D01*
X148452408Y-62611000D01*
X148182510Y-62664686D01*
X147928273Y-62769995D01*
X147699465Y-62922880D01*
X147504880Y-63117465D01*
X147351995Y-63346273D01*
X147320000Y-63423515D01*
X147288005Y-63346273D01*
X147135120Y-63117465D01*
X146940535Y-62922880D01*
X146711727Y-62769995D01*
X146457490Y-62664686D01*
X146187592Y-62611000D01*
X145912408Y-62611000D01*
X145642510Y-62664686D01*
X145388273Y-62769995D01*
X145159465Y-62922880D01*
X144964880Y-63117465D01*
X144811995Y-63346273D01*
X144706686Y-63600510D01*
X144653000Y-63870408D01*
X144653000Y-64145592D01*
X144706686Y-64415490D01*
X144811995Y-64669727D01*
X144964880Y-64898535D01*
X144982356Y-64916011D01*
X134417644Y-64916011D01*
X134435120Y-64898535D01*
X134588005Y-64669727D01*
X134693314Y-64415490D01*
X134747000Y-64145592D01*
X134747000Y-63870408D01*
X134693314Y-63600510D01*
X134588005Y-63346273D01*
X134435120Y-63117465D01*
X134240535Y-62922880D01*
X134011727Y-62769995D01*
X133757490Y-62664686D01*
X133487592Y-62611000D01*
X133212408Y-62611000D01*
X132942510Y-62664686D01*
X132688273Y-62769995D01*
X132459465Y-62922880D01*
X132264880Y-63117465D01*
X132111995Y-63346273D01*
X132080000Y-63423515D01*
X132048005Y-63346273D01*
X131895120Y-63117465D01*
X131700535Y-62922880D01*
X131471727Y-62769995D01*
X131217490Y-62664686D01*
X130947592Y-62611000D01*
X130672408Y-62611000D01*
X130402510Y-62664686D01*
X130148273Y-62769995D01*
X129919465Y-62922880D01*
X129724880Y-63117465D01*
X129571995Y-63346273D01*
X129466686Y-63600510D01*
X129413000Y-63870408D01*
X129413000Y-64145592D01*
X129450676Y-64335001D01*
X122407307Y-64335001D01*
X122366756Y-64331007D01*
X122326206Y-64335001D01*
X122326204Y-64335001D01*
X122204931Y-64346945D01*
X122049323Y-64394148D01*
X121905914Y-64470802D01*
X121844353Y-64521324D01*
X121780216Y-64573960D01*
X121754365Y-64605460D01*
X113864460Y-72495366D01*
X113834605Y-72519867D01*
X113690780Y-72423767D01*
X113436907Y-72318609D01*
X113167396Y-72265000D01*
X112892604Y-72265000D01*
X112704999Y-72302317D01*
X112704999Y-70580433D01*
X117895693Y-65389740D01*
X117972408Y-65405000D01*
X118247592Y-65405000D01*
X118517490Y-65351314D01*
X118771727Y-65246005D01*
X119000535Y-65093120D01*
X119195120Y-64898535D01*
X119348005Y-64669727D01*
X119453314Y-64415490D01*
X119507000Y-64145592D01*
X119507000Y-63870408D01*
X119453314Y-63600510D01*
X119348005Y-63346273D01*
X119195120Y-63117465D01*
X119000535Y-62922880D01*
X118771727Y-62769995D01*
X118517490Y-62664686D01*
X118247592Y-62611000D01*
X117972408Y-62611000D01*
X117702510Y-62664686D01*
X117448273Y-62769995D01*
X117219465Y-62922880D01*
X117024880Y-63117465D01*
X116871995Y-63346273D01*
X116840000Y-63423515D01*
X116808005Y-63346273D01*
X116655120Y-63117465D01*
X116460535Y-62922880D01*
X116231727Y-62769995D01*
X115977490Y-62664686D01*
X115707592Y-62611000D01*
X115432408Y-62611000D01*
X115162510Y-62664686D01*
X114908273Y-62769995D01*
X114679465Y-62922880D01*
X114484880Y-63117465D01*
X114331995Y-63346273D01*
X114226686Y-63600510D01*
X114173000Y-63870408D01*
X114173000Y-64145592D01*
X114226686Y-64415490D01*
X114331995Y-64669727D01*
X114484880Y-64898535D01*
X114679465Y-65093120D01*
X114908273Y-65246005D01*
X115162510Y-65351314D01*
X115432408Y-65405000D01*
X115545567Y-65405000D01*
X111324465Y-69626103D01*
X111292958Y-69651960D01*
X111223713Y-69736336D01*
X111189800Y-69777659D01*
X111113147Y-69921067D01*
X111113146Y-69921068D01*
X111065943Y-70076676D01*
X111053999Y-70197948D01*
X111050005Y-70238501D01*
X111053999Y-70279052D01*
X111053999Y-72383679D01*
X110896907Y-72318609D01*
X110627396Y-72265000D01*
X110352604Y-72265000D01*
X110083093Y-72318609D01*
X109829220Y-72423767D01*
X109600739Y-72576433D01*
X109406433Y-72770739D01*
X109283500Y-72954721D01*
X109283500Y-71414550D01*
X109287494Y-71373999D01*
X109283500Y-71333447D01*
X109271556Y-71212174D01*
X109239000Y-71104851D01*
X109239000Y-71018061D01*
X109199226Y-70818102D01*
X109121205Y-70629744D01*
X109007937Y-70460226D01*
X108863774Y-70316063D01*
X108694256Y-70202795D01*
X108505898Y-70124774D01*
X108305939Y-70085000D01*
X108102061Y-70085000D01*
X107902102Y-70124774D01*
X107713744Y-70202795D01*
X107544226Y-70316063D01*
X107400063Y-70460226D01*
X107286795Y-70629744D01*
X107208774Y-70818102D01*
X107169000Y-71018061D01*
X107169000Y-71221939D01*
X107208774Y-71421898D01*
X107286795Y-71610256D01*
X107400063Y-71779774D01*
X107544226Y-71923937D01*
X107632501Y-71982920D01*
X107632500Y-90868997D01*
X107540795Y-91006244D01*
X107462774Y-91194602D01*
X107423000Y-91394561D01*
X107423000Y-91598439D01*
X107462774Y-91798398D01*
X107540795Y-91986756D01*
X107632500Y-92124003D01*
X107632500Y-100344425D01*
X107567465Y-100387880D01*
X107372880Y-100582465D01*
X107219995Y-100811273D01*
X107114686Y-101065510D01*
X107061000Y-101335408D01*
X46380000Y-101335408D01*
X46380000Y-77457267D01*
X46583093Y-77541391D01*
X46852604Y-77595000D01*
X47127396Y-77595000D01*
X47396907Y-77541391D01*
X47650780Y-77436233D01*
X47879261Y-77283567D01*
X48073567Y-77089261D01*
X48226233Y-76860780D01*
X48260000Y-76779260D01*
X48293767Y-76860780D01*
X48446433Y-77089261D01*
X48640739Y-77283567D01*
X48869220Y-77436233D01*
X49123093Y-77541391D01*
X49392604Y-77595000D01*
X49667396Y-77595000D01*
X49936907Y-77541391D01*
X50190780Y-77436233D01*
X50419261Y-77283567D01*
X50613567Y-77089261D01*
X50766233Y-76860780D01*
X50800000Y-76779260D01*
X50833767Y-76860780D01*
X50986433Y-77089261D01*
X51180739Y-77283567D01*
X51409220Y-77436233D01*
X51663093Y-77541391D01*
X51932604Y-77595000D01*
X52207396Y-77595000D01*
X52476907Y-77541391D01*
X52730780Y-77436233D01*
X52959261Y-77283567D01*
X53153567Y-77089261D01*
X53306233Y-76860780D01*
X53340000Y-76779260D01*
X53373767Y-76860780D01*
X53526433Y-77089261D01*
X53720739Y-77283567D01*
X53949220Y-77436233D01*
X54203093Y-77541391D01*
X54472604Y-77595000D01*
X54747396Y-77595000D01*
X55016907Y-77541391D01*
X55270780Y-77436233D01*
X55499261Y-77283567D01*
X55693567Y-77089261D01*
X55846233Y-76860780D01*
X55880000Y-76779260D01*
X55913767Y-76860780D01*
X56066433Y-77089261D01*
X56260739Y-77283567D01*
X56489220Y-77436233D01*
X56743093Y-77541391D01*
X57012604Y-77595000D01*
X57287396Y-77595000D01*
X57556907Y-77541391D01*
X57810780Y-77436233D01*
X58039261Y-77283567D01*
X58233567Y-77089261D01*
X58386233Y-76860780D01*
X58420000Y-76779260D01*
X58453767Y-76860780D01*
X58606433Y-77089261D01*
X58800739Y-77283567D01*
X59029220Y-77436233D01*
X59283093Y-77541391D01*
X59552604Y-77595000D01*
X59827396Y-77595000D01*
X60096907Y-77541391D01*
X60350780Y-77436233D01*
X60579261Y-77283567D01*
X60773567Y-77089261D01*
X60926233Y-76860780D01*
X60960000Y-76779260D01*
X60993767Y-76860780D01*
X61146433Y-77089261D01*
X61340739Y-77283567D01*
X61404500Y-77326171D01*
X61404501Y-89593439D01*
X61400506Y-89634000D01*
X61416445Y-89795826D01*
X61463647Y-89951433D01*
X61540301Y-90094842D01*
X61584075Y-90148180D01*
X61643460Y-90220541D01*
X61674961Y-90246393D01*
X63488572Y-92060004D01*
X63520774Y-92221898D01*
X63598795Y-92410256D01*
X63712063Y-92579774D01*
X63856226Y-92723937D01*
X64025744Y-92837205D01*
X64214102Y-92915226D01*
X64414061Y-92955000D01*
X64617939Y-92955000D01*
X64817898Y-92915226D01*
X65006256Y-92837205D01*
X65175774Y-92723937D01*
X65319937Y-92579774D01*
X65433205Y-92410256D01*
X65511226Y-92221898D01*
X65551000Y-92021939D01*
X65551000Y-91818061D01*
X65511226Y-91618102D01*
X65433205Y-91429744D01*
X65319937Y-91260226D01*
X65175774Y-91116063D01*
X65006256Y-91002795D01*
X64817898Y-90924774D01*
X64656004Y-90892572D01*
X63055500Y-89292068D01*
X63055500Y-77326171D01*
X63119261Y-77283567D01*
X63313567Y-77089261D01*
X63466233Y-76860780D01*
X63500000Y-76779260D01*
X63533767Y-76860780D01*
X63686433Y-77089261D01*
X63880739Y-77283567D01*
X63944500Y-77326171D01*
X63944501Y-81461080D01*
X63856226Y-81520063D01*
X63712063Y-81664226D01*
X63598795Y-81833744D01*
X63520774Y-82022102D01*
X63481000Y-82222061D01*
X63481000Y-82425939D01*
X63520774Y-82625898D01*
X63598795Y-82814256D01*
X63712063Y-82983774D01*
X63856226Y-83127937D01*
X64025744Y-83241205D01*
X64214102Y-83319226D01*
X64414061Y-83359000D01*
X64617939Y-83359000D01*
X64817898Y-83319226D01*
X65006256Y-83241205D01*
X65175774Y-83127937D01*
X65249711Y-83054000D01*
X69234606Y-83054000D01*
X69268105Y-83394119D01*
X69367314Y-83721168D01*
X69528421Y-84022578D01*
X69745234Y-84286766D01*
X69936994Y-84444139D01*
X69842236Y-84621419D01*
X69763040Y-84882493D01*
X69736299Y-85154000D01*
X69763040Y-85425507D01*
X69842236Y-85686581D01*
X69970843Y-85927188D01*
X70143919Y-86138081D01*
X70163316Y-86154000D01*
X70143919Y-86169919D01*
X69970843Y-86380812D01*
X69842236Y-86621419D01*
X69763040Y-86882493D01*
X69736299Y-87154000D01*
X69763040Y-87425507D01*
X69842236Y-87686581D01*
X69966940Y-87919886D01*
X69926815Y-87952815D01*
X69847463Y-88049506D01*
X69788498Y-88159820D01*
X69752188Y-88279518D01*
X69739928Y-88404000D01*
X69739928Y-89904000D01*
X69751008Y-90016496D01*
X69745234Y-90021234D01*
X69528421Y-90285422D01*
X69367314Y-90586832D01*
X69268105Y-90913881D01*
X69234606Y-91254000D01*
X69268105Y-91594119D01*
X69367314Y-91921168D01*
X69528421Y-92222578D01*
X69745234Y-92486766D01*
X70009422Y-92703579D01*
X70310832Y-92864686D01*
X70637881Y-92963895D01*
X70892775Y-92989000D01*
X72363225Y-92989000D01*
X72618119Y-92963895D01*
X72945168Y-92864686D01*
X73246578Y-92703579D01*
X73510766Y-92486766D01*
X73727579Y-92222578D01*
X73888686Y-91921168D01*
X73987895Y-91594119D01*
X74021394Y-91254000D01*
X73987895Y-90913881D01*
X73888686Y-90586832D01*
X73727579Y-90285422D01*
X73510766Y-90021234D01*
X73504992Y-90016496D01*
X73516072Y-89904000D01*
X73516072Y-88404000D01*
X73503812Y-88279518D01*
X73467502Y-88159820D01*
X73408537Y-88049506D01*
X73329185Y-87952815D01*
X73289060Y-87919886D01*
X73413764Y-87686581D01*
X73492960Y-87425507D01*
X73519701Y-87154000D01*
X73492960Y-86882493D01*
X73413764Y-86621419D01*
X73285157Y-86380812D01*
X73112081Y-86169919D01*
X73092684Y-86154000D01*
X73112081Y-86138081D01*
X73285157Y-85927188D01*
X73413764Y-85686581D01*
X73492960Y-85425507D01*
X73519701Y-85154000D01*
X73492960Y-84882493D01*
X73413764Y-84621419D01*
X73319006Y-84444139D01*
X73510766Y-84286766D01*
X73727579Y-84022578D01*
X73888686Y-83721168D01*
X73987895Y-83394119D01*
X74021394Y-83054000D01*
X73987895Y-82713881D01*
X73888686Y-82386832D01*
X73727579Y-82085422D01*
X73510766Y-81821234D01*
X73246578Y-81604421D01*
X72945168Y-81443314D01*
X72618119Y-81344105D01*
X72363225Y-81319000D01*
X70892775Y-81319000D01*
X70637881Y-81344105D01*
X70310832Y-81443314D01*
X70009422Y-81604421D01*
X69745234Y-81821234D01*
X69528421Y-82085422D01*
X69367314Y-82386832D01*
X69268105Y-82713881D01*
X69234606Y-83054000D01*
X65249711Y-83054000D01*
X65319937Y-82983774D01*
X65433205Y-82814256D01*
X65511226Y-82625898D01*
X65551000Y-82425939D01*
X65551000Y-82339149D01*
X65583556Y-82231826D01*
X65595500Y-82110553D01*
X65595500Y-82110551D01*
X65599494Y-82070001D01*
X65595500Y-82029450D01*
X65595500Y-77840408D01*
X85471000Y-77840408D01*
X85471000Y-78115592D01*
X85524686Y-78385490D01*
X85629995Y-78639727D01*
X85782880Y-78868535D01*
X85977465Y-79063120D01*
X86206273Y-79216005D01*
X86460510Y-79321314D01*
X86730408Y-79375000D01*
X87005592Y-79375000D01*
X87275490Y-79321314D01*
X87529727Y-79216005D01*
X87758535Y-79063120D01*
X87953120Y-78868535D01*
X88106005Y-78639727D01*
X88138000Y-78562485D01*
X88169995Y-78639727D01*
X88322880Y-78868535D01*
X88517465Y-79063120D01*
X88746273Y-79216005D01*
X89000510Y-79321314D01*
X89270408Y-79375000D01*
X89545592Y-79375000D01*
X89815490Y-79321314D01*
X90069727Y-79216005D01*
X90298535Y-79063120D01*
X90493120Y-78868535D01*
X90646005Y-78639727D01*
X90751314Y-78385490D01*
X90805000Y-78115592D01*
X90805000Y-77840408D01*
X96139000Y-77840408D01*
X96139000Y-78115592D01*
X96192686Y-78385490D01*
X96297995Y-78639727D01*
X96450880Y-78868535D01*
X96645465Y-79063120D01*
X96874273Y-79216005D01*
X97128510Y-79321314D01*
X97398408Y-79375000D01*
X97673592Y-79375000D01*
X97943490Y-79321314D01*
X98197727Y-79216005D01*
X98426535Y-79063120D01*
X98621120Y-78868535D01*
X98774005Y-78639727D01*
X98806000Y-78562485D01*
X98837995Y-78639727D01*
X98990880Y-78868535D01*
X99185465Y-79063120D01*
X99414273Y-79216005D01*
X99668510Y-79321314D01*
X99938408Y-79375000D01*
X100213592Y-79375000D01*
X100483490Y-79321314D01*
X100737727Y-79216005D01*
X100966535Y-79063120D01*
X101161120Y-78868535D01*
X101314005Y-78639727D01*
X101419314Y-78385490D01*
X101473000Y-78115592D01*
X101473000Y-77840408D01*
X101419314Y-77570510D01*
X101314005Y-77316273D01*
X101161120Y-77087465D01*
X100966535Y-76892880D01*
X100737727Y-76739995D01*
X100483490Y-76634686D01*
X100213592Y-76581000D01*
X99938408Y-76581000D01*
X99668510Y-76634686D01*
X99414273Y-76739995D01*
X99185465Y-76892880D01*
X98990880Y-77087465D01*
X98837995Y-77316273D01*
X98806000Y-77393515D01*
X98774005Y-77316273D01*
X98621120Y-77087465D01*
X98426535Y-76892880D01*
X98197727Y-76739995D01*
X97943490Y-76634686D01*
X97673592Y-76581000D01*
X97398408Y-76581000D01*
X97128510Y-76634686D01*
X96874273Y-76739995D01*
X96645465Y-76892880D01*
X96450880Y-77087465D01*
X96297995Y-77316273D01*
X96192686Y-77570510D01*
X96139000Y-77840408D01*
X90805000Y-77840408D01*
X90751314Y-77570510D01*
X90646005Y-77316273D01*
X90493120Y-77087465D01*
X90298535Y-76892880D01*
X90069727Y-76739995D01*
X89815490Y-76634686D01*
X89545592Y-76581000D01*
X89270408Y-76581000D01*
X89000510Y-76634686D01*
X88746273Y-76739995D01*
X88517465Y-76892880D01*
X88322880Y-77087465D01*
X88169995Y-77316273D01*
X88138000Y-77393515D01*
X88106005Y-77316273D01*
X87953120Y-77087465D01*
X87758535Y-76892880D01*
X87529727Y-76739995D01*
X87275490Y-76634686D01*
X87005592Y-76581000D01*
X86730408Y-76581000D01*
X86460510Y-76634686D01*
X86206273Y-76739995D01*
X85977465Y-76892880D01*
X85782880Y-77087465D01*
X85629995Y-77316273D01*
X85524686Y-77570510D01*
X85471000Y-77840408D01*
X65595500Y-77840408D01*
X65595500Y-77326171D01*
X65659261Y-77283567D01*
X65853567Y-77089261D01*
X66006233Y-76860780D01*
X66040000Y-76779260D01*
X66073767Y-76860780D01*
X66226433Y-77089261D01*
X66420739Y-77283567D01*
X66649220Y-77436233D01*
X66903093Y-77541391D01*
X67172604Y-77595000D01*
X67447396Y-77595000D01*
X67716907Y-77541391D01*
X67970780Y-77436233D01*
X68199261Y-77283567D01*
X68393567Y-77089261D01*
X68546233Y-76860780D01*
X68580000Y-76779260D01*
X68613767Y-76860780D01*
X68766433Y-77089261D01*
X68960739Y-77283567D01*
X69189220Y-77436233D01*
X69443093Y-77541391D01*
X69712604Y-77595000D01*
X69987396Y-77595000D01*
X70256907Y-77541391D01*
X70510780Y-77436233D01*
X70739261Y-77283567D01*
X70933567Y-77089261D01*
X71086233Y-76860780D01*
X71191391Y-76606907D01*
X71245000Y-76337396D01*
X71245000Y-76062604D01*
X71191391Y-75793093D01*
X71086233Y-75539220D01*
X70933567Y-75310739D01*
X70739261Y-75116433D01*
X70510780Y-74963767D01*
X70429260Y-74930000D01*
X70510780Y-74896233D01*
X70739261Y-74743567D01*
X70933567Y-74549261D01*
X71086233Y-74320780D01*
X71191391Y-74066907D01*
X71245000Y-73797396D01*
X71245000Y-73522604D01*
X71191391Y-73253093D01*
X71086233Y-72999220D01*
X70933567Y-72770739D01*
X70739261Y-72576433D01*
X70510780Y-72423767D01*
X70256907Y-72318609D01*
X69987396Y-72265000D01*
X69712604Y-72265000D01*
X69443093Y-72318609D01*
X69189220Y-72423767D01*
X68960739Y-72576433D01*
X68766433Y-72770739D01*
X68613767Y-72999220D01*
X68580000Y-73080740D01*
X68546233Y-72999220D01*
X68393567Y-72770739D01*
X68199261Y-72576433D01*
X67970780Y-72423767D01*
X67716907Y-72318609D01*
X67447396Y-72265000D01*
X67172604Y-72265000D01*
X66903093Y-72318609D01*
X66649220Y-72423767D01*
X66420739Y-72576433D01*
X66226433Y-72770739D01*
X66073767Y-72999220D01*
X66040000Y-73080740D01*
X66006233Y-72999220D01*
X65853567Y-72770739D01*
X65659261Y-72576433D01*
X65430780Y-72423767D01*
X65176907Y-72318609D01*
X64907396Y-72265000D01*
X64632604Y-72265000D01*
X64363093Y-72318609D01*
X64109220Y-72423767D01*
X63880739Y-72576433D01*
X63686433Y-72770739D01*
X63533767Y-72999220D01*
X63500000Y-73080740D01*
X63466233Y-72999220D01*
X63313567Y-72770739D01*
X63119261Y-72576433D01*
X62890780Y-72423767D01*
X62636907Y-72318609D01*
X62367396Y-72265000D01*
X62092604Y-72265000D01*
X61823093Y-72318609D01*
X61569220Y-72423767D01*
X61340739Y-72576433D01*
X61146433Y-72770739D01*
X60993767Y-72999220D01*
X60960000Y-73080740D01*
X60926233Y-72999220D01*
X60773567Y-72770739D01*
X60579261Y-72576433D01*
X60350780Y-72423767D01*
X60096907Y-72318609D01*
X59827396Y-72265000D01*
X59552604Y-72265000D01*
X59283093Y-72318609D01*
X59029220Y-72423767D01*
X58800739Y-72576433D01*
X58606433Y-72770739D01*
X58453767Y-72999220D01*
X58420000Y-73080740D01*
X58386233Y-72999220D01*
X58233567Y-72770739D01*
X58039261Y-72576433D01*
X57834844Y-72439846D01*
X63126671Y-67148021D01*
X100514929Y-67148021D01*
X100555479Y-67152015D01*
X100596029Y-67148021D01*
X100596032Y-67148021D01*
X100717305Y-67136077D01*
X100872913Y-67088874D01*
X101016321Y-67012220D01*
X101142020Y-66909062D01*
X101167877Y-66877555D01*
X102655692Y-65389740D01*
X102732408Y-65405000D01*
X103007592Y-65405000D01*
X103277490Y-65351314D01*
X103531727Y-65246005D01*
X103760535Y-65093120D01*
X103955120Y-64898535D01*
X104108005Y-64669727D01*
X104213314Y-64415490D01*
X104267000Y-64145592D01*
X104267000Y-63870408D01*
X104213314Y-63600510D01*
X104108005Y-63346273D01*
X103955120Y-63117465D01*
X103760535Y-62922880D01*
X103531727Y-62769995D01*
X103277490Y-62664686D01*
X103007592Y-62611000D01*
X102732408Y-62611000D01*
X102462510Y-62664686D01*
X102208273Y-62769995D01*
X101979465Y-62922880D01*
X101784880Y-63117465D01*
X101631995Y-63346273D01*
X101600000Y-63423515D01*
X101568005Y-63346273D01*
X101415120Y-63117465D01*
X101220535Y-62922880D01*
X100991727Y-62769995D01*
X100737490Y-62664686D01*
X100467592Y-62611000D01*
X100192408Y-62611000D01*
X99922510Y-62664686D01*
X99668273Y-62769995D01*
X99439465Y-62922880D01*
X99244880Y-63117465D01*
X99091995Y-63346273D01*
X98986686Y-63600510D01*
X98933000Y-63870408D01*
X98933000Y-64145592D01*
X98986686Y-64415490D01*
X99091995Y-64669727D01*
X99244880Y-64898535D01*
X99439465Y-65093120D01*
X99668273Y-65246005D01*
X99922510Y-65351314D01*
X100192408Y-65405000D01*
X100305568Y-65405000D01*
X100213547Y-65497021D01*
X87308412Y-65497021D01*
X87415693Y-65389740D01*
X87492408Y-65405000D01*
X87767592Y-65405000D01*
X88037490Y-65351314D01*
X88291727Y-65246005D01*
X88520535Y-65093120D01*
X88715120Y-64898535D01*
X88868005Y-64669727D01*
X88973314Y-64415490D01*
X89027000Y-64145592D01*
X89027000Y-63870408D01*
X88973314Y-63600510D01*
X88868005Y-63346273D01*
X88715120Y-63117465D01*
X88520535Y-62922880D01*
X88291727Y-62769995D01*
X88037490Y-62664686D01*
X87767592Y-62611000D01*
X87492408Y-62611000D01*
X87222510Y-62664686D01*
X86968273Y-62769995D01*
X86739465Y-62922880D01*
X86544880Y-63117465D01*
X86391995Y-63346273D01*
X86360000Y-63423515D01*
X86328005Y-63346273D01*
X86175120Y-63117465D01*
X85980535Y-62922880D01*
X85751727Y-62769995D01*
X85497490Y-62664686D01*
X85227592Y-62611000D01*
X84952408Y-62611000D01*
X84682510Y-62664686D01*
X84428273Y-62769995D01*
X84199465Y-62922880D01*
X84004880Y-63117465D01*
X83851995Y-63346273D01*
X83746686Y-63600510D01*
X83693000Y-63870408D01*
X83693000Y-64145592D01*
X83746686Y-64415490D01*
X83851995Y-64669727D01*
X84004880Y-64898535D01*
X84022356Y-64916011D01*
X73457644Y-64916011D01*
X73475120Y-64898535D01*
X73628005Y-64669727D01*
X73733314Y-64415490D01*
X73787000Y-64145592D01*
X73787000Y-63870408D01*
X73733314Y-63600510D01*
X73628005Y-63346273D01*
X73475120Y-63117465D01*
X73280535Y-62922880D01*
X73051727Y-62769995D01*
X72797490Y-62664686D01*
X72527592Y-62611000D01*
X72252408Y-62611000D01*
X71982510Y-62664686D01*
X71728273Y-62769995D01*
X71499465Y-62922880D01*
X71304880Y-63117465D01*
X71151995Y-63346273D01*
X71120000Y-63423515D01*
X71088005Y-63346273D01*
X70935120Y-63117465D01*
X70740535Y-62922880D01*
X70511727Y-62769995D01*
X70257490Y-62664686D01*
X69987592Y-62611000D01*
X69712408Y-62611000D01*
X69442510Y-62664686D01*
X69188273Y-62769995D01*
X68959465Y-62922880D01*
X68764880Y-63117465D01*
X68611995Y-63346273D01*
X68506686Y-63600510D01*
X68453000Y-63870408D01*
X68453000Y-64145592D01*
X68490676Y-64335001D01*
X58907307Y-64335001D01*
X58866756Y-64331007D01*
X58826206Y-64335001D01*
X58826204Y-64335001D01*
X58704931Y-64346945D01*
X58549323Y-64394148D01*
X58488741Y-64426530D01*
X58493314Y-64415490D01*
X58547000Y-64145592D01*
X58547000Y-63870408D01*
X58493314Y-63600510D01*
X58388005Y-63346273D01*
X58235120Y-63117465D01*
X58040535Y-62922880D01*
X57811727Y-62769995D01*
X57557490Y-62664686D01*
X57287592Y-62611000D01*
X57012408Y-62611000D01*
X56742510Y-62664686D01*
X56488273Y-62769995D01*
X56259465Y-62922880D01*
X56064880Y-63117465D01*
X55911995Y-63346273D01*
X55880000Y-63423515D01*
X55848005Y-63346273D01*
X55695120Y-63117465D01*
X55500535Y-62922880D01*
X55271727Y-62769995D01*
X55017490Y-62664686D01*
X54747592Y-62611000D01*
X54472408Y-62611000D01*
X54202510Y-62664686D01*
X53948273Y-62769995D01*
X53719465Y-62922880D01*
X53524880Y-63117465D01*
X53371995Y-63346273D01*
X53266686Y-63600510D01*
X53213000Y-63870408D01*
X53213000Y-64145592D01*
X53266686Y-64415490D01*
X53371995Y-64669727D01*
X53524880Y-64898535D01*
X53719465Y-65093120D01*
X53948273Y-65246005D01*
X54202510Y-65351314D01*
X54472408Y-65405000D01*
X54585566Y-65405000D01*
X47591398Y-72399170D01*
X47396907Y-72318609D01*
X47127396Y-72265000D01*
X46852604Y-72265000D01*
X46583093Y-72318609D01*
X46380000Y-72402733D01*
X46380000Y-55139560D01*
X48440000Y-55139560D01*
X48440000Y-55604440D01*
X48530694Y-56060387D01*
X48708595Y-56489879D01*
X48966868Y-56876412D01*
X49295588Y-57205132D01*
X49682121Y-57463405D01*
X50111613Y-57641306D01*
X50567560Y-57732000D01*
X51032440Y-57732000D01*
X51488387Y-57641306D01*
X51917879Y-57463405D01*
X52304412Y-57205132D01*
X52633132Y-56876412D01*
X52891405Y-56489879D01*
X53069306Y-56060387D01*
X53160000Y-55604440D01*
X53160000Y-55139560D01*
X56060000Y-55139560D01*
X56060000Y-55604440D01*
X56150694Y-56060387D01*
X56328595Y-56489879D01*
X56586868Y-56876412D01*
X56915588Y-57205132D01*
X57302121Y-57463405D01*
X57731613Y-57641306D01*
X58187560Y-57732000D01*
X58652440Y-57732000D01*
X59108387Y-57641306D01*
X59537879Y-57463405D01*
X59924412Y-57205132D01*
X60253132Y-56876412D01*
X60511405Y-56489879D01*
X60689306Y-56060387D01*
X60780000Y-55604440D01*
X60780000Y-55139560D01*
X63680000Y-55139560D01*
X63680000Y-55604440D01*
X63770694Y-56060387D01*
X63948595Y-56489879D01*
X64206868Y-56876412D01*
X64535588Y-57205132D01*
X64922121Y-57463405D01*
X65351613Y-57641306D01*
X65807560Y-57732000D01*
X66272440Y-57732000D01*
X66728387Y-57641306D01*
X67157879Y-57463405D01*
X67544412Y-57205132D01*
X67873132Y-56876412D01*
X68131405Y-56489879D01*
X68309306Y-56060387D01*
X68400000Y-55604440D01*
X68400000Y-55139560D01*
X71300000Y-55139560D01*
X71300000Y-55604440D01*
X71390694Y-56060387D01*
X71568595Y-56489879D01*
X71826868Y-56876412D01*
X72155588Y-57205132D01*
X72542121Y-57463405D01*
X72971613Y-57641306D01*
X73427560Y-57732000D01*
X73892440Y-57732000D01*
X74348387Y-57641306D01*
X74777879Y-57463405D01*
X75164412Y-57205132D01*
X75493132Y-56876412D01*
X75751405Y-56489879D01*
X75929306Y-56060387D01*
X76020000Y-55604440D01*
X76020000Y-55139560D01*
X78920000Y-55139560D01*
X78920000Y-55604440D01*
X79010694Y-56060387D01*
X79188595Y-56489879D01*
X79446868Y-56876412D01*
X79775588Y-57205132D01*
X80162121Y-57463405D01*
X80591613Y-57641306D01*
X81047560Y-57732000D01*
X81512440Y-57732000D01*
X81968387Y-57641306D01*
X82397879Y-57463405D01*
X82784412Y-57205132D01*
X83113132Y-56876412D01*
X83371405Y-56489879D01*
X83549306Y-56060387D01*
X83640000Y-55604440D01*
X83640000Y-55139560D01*
X86540000Y-55139560D01*
X86540000Y-55604440D01*
X86630694Y-56060387D01*
X86808595Y-56489879D01*
X87066868Y-56876412D01*
X87395588Y-57205132D01*
X87782121Y-57463405D01*
X88211613Y-57641306D01*
X88667560Y-57732000D01*
X89132440Y-57732000D01*
X89588387Y-57641306D01*
X90017879Y-57463405D01*
X90404412Y-57205132D01*
X90733132Y-56876412D01*
X90991405Y-56489879D01*
X91169306Y-56060387D01*
X91260000Y-55604440D01*
X91260000Y-55139560D01*
X94160000Y-55139560D01*
X94160000Y-55604440D01*
X94250694Y-56060387D01*
X94428595Y-56489879D01*
X94686868Y-56876412D01*
X95015588Y-57205132D01*
X95402121Y-57463405D01*
X95831613Y-57641306D01*
X96287560Y-57732000D01*
X96752440Y-57732000D01*
X97208387Y-57641306D01*
X97637879Y-57463405D01*
X98024412Y-57205132D01*
X98353132Y-56876412D01*
X98611405Y-56489879D01*
X98789306Y-56060387D01*
X98880000Y-55604440D01*
X98880000Y-55139560D01*
X101780000Y-55139560D01*
X101780000Y-55604440D01*
X101870694Y-56060387D01*
X102048595Y-56489879D01*
X102306868Y-56876412D01*
X102635588Y-57205132D01*
X103022121Y-57463405D01*
X103451613Y-57641306D01*
X103907560Y-57732000D01*
X104372440Y-57732000D01*
X104828387Y-57641306D01*
X105257879Y-57463405D01*
X105644412Y-57205132D01*
X105973132Y-56876412D01*
X106231405Y-56489879D01*
X106409306Y-56060387D01*
X106500000Y-55604440D01*
X106500000Y-55139560D01*
X109400000Y-55139560D01*
X109400000Y-55604440D01*
X109490694Y-56060387D01*
X109668595Y-56489879D01*
X109926868Y-56876412D01*
X110255588Y-57205132D01*
X110642121Y-57463405D01*
X111071613Y-57641306D01*
X111527560Y-57732000D01*
X111992440Y-57732000D01*
X112448387Y-57641306D01*
X112877879Y-57463405D01*
X113264412Y-57205132D01*
X113593132Y-56876412D01*
X113851405Y-56489879D01*
X114029306Y-56060387D01*
X114120000Y-55604440D01*
X114120000Y-55139560D01*
X117020000Y-55139560D01*
X117020000Y-55604440D01*
X117110694Y-56060387D01*
X117288595Y-56489879D01*
X117546868Y-56876412D01*
X117875588Y-57205132D01*
X118262121Y-57463405D01*
X118691613Y-57641306D01*
X119147560Y-57732000D01*
X119612440Y-57732000D01*
X120068387Y-57641306D01*
X120497879Y-57463405D01*
X120884412Y-57205132D01*
X121213132Y-56876412D01*
X121471405Y-56489879D01*
X121649306Y-56060387D01*
X121740000Y-55604440D01*
X121740000Y-55139560D01*
X124640000Y-55139560D01*
X124640000Y-55604440D01*
X124730694Y-56060387D01*
X124908595Y-56489879D01*
X125166868Y-56876412D01*
X125495588Y-57205132D01*
X125882121Y-57463405D01*
X126311613Y-57641306D01*
X126767560Y-57732000D01*
X127232440Y-57732000D01*
X127688387Y-57641306D01*
X128117879Y-57463405D01*
X128504412Y-57205132D01*
X128833132Y-56876412D01*
X129091405Y-56489879D01*
X129269306Y-56060387D01*
X129360000Y-55604440D01*
X129360000Y-55139560D01*
X132260000Y-55139560D01*
X132260000Y-55604440D01*
X132350694Y-56060387D01*
X132528595Y-56489879D01*
X132786868Y-56876412D01*
X133115588Y-57205132D01*
X133502121Y-57463405D01*
X133931613Y-57641306D01*
X134387560Y-57732000D01*
X134852440Y-57732000D01*
X135308387Y-57641306D01*
X135737879Y-57463405D01*
X136124412Y-57205132D01*
X136453132Y-56876412D01*
X136711405Y-56489879D01*
X136889306Y-56060387D01*
X136980000Y-55604440D01*
X136980000Y-55139560D01*
X139880000Y-55139560D01*
X139880000Y-55604440D01*
X139970694Y-56060387D01*
X140148595Y-56489879D01*
X140406868Y-56876412D01*
X140735588Y-57205132D01*
X141122121Y-57463405D01*
X141551613Y-57641306D01*
X142007560Y-57732000D01*
X142472440Y-57732000D01*
X142928387Y-57641306D01*
X143357879Y-57463405D01*
X143744412Y-57205132D01*
X144073132Y-56876412D01*
X144331405Y-56489879D01*
X144509306Y-56060387D01*
X144600000Y-55604440D01*
X144600000Y-55139560D01*
X147500000Y-55139560D01*
X147500000Y-55604440D01*
X147590694Y-56060387D01*
X147768595Y-56489879D01*
X148026868Y-56876412D01*
X148355588Y-57205132D01*
X148742121Y-57463405D01*
X149171613Y-57641306D01*
X149627560Y-57732000D01*
X150092440Y-57732000D01*
X150548387Y-57641306D01*
X150977879Y-57463405D01*
X151364412Y-57205132D01*
X151693132Y-56876412D01*
X151951405Y-56489879D01*
X152129306Y-56060387D01*
X152220000Y-55604440D01*
X152220000Y-55139560D01*
X155120000Y-55139560D01*
X155120000Y-55604440D01*
X155210694Y-56060387D01*
X155388595Y-56489879D01*
X155646868Y-56876412D01*
X155975588Y-57205132D01*
X156362121Y-57463405D01*
X156791613Y-57641306D01*
X157247560Y-57732000D01*
X157712440Y-57732000D01*
X158168387Y-57641306D01*
X158597879Y-57463405D01*
X158984412Y-57205132D01*
X159313132Y-56876412D01*
X159571405Y-56489879D01*
X159749306Y-56060387D01*
X159840000Y-55604440D01*
X159840000Y-55139560D01*
X162740000Y-55139560D01*
X162740000Y-55604440D01*
X162830694Y-56060387D01*
X163008595Y-56489879D01*
X163266868Y-56876412D01*
X163595588Y-57205132D01*
X163982121Y-57463405D01*
X164411613Y-57641306D01*
X164867560Y-57732000D01*
X165332440Y-57732000D01*
X165788387Y-57641306D01*
X166217879Y-57463405D01*
X166604412Y-57205132D01*
X166933132Y-56876412D01*
X167191405Y-56489879D01*
X167369306Y-56060387D01*
X167460000Y-55604440D01*
X167460000Y-55139560D01*
X167369306Y-54683613D01*
X167191405Y-54254121D01*
X166933132Y-53867588D01*
X166604412Y-53538868D01*
X166217879Y-53280595D01*
X165788387Y-53102694D01*
X165332440Y-53012000D01*
X164867560Y-53012000D01*
X164411613Y-53102694D01*
X163982121Y-53280595D01*
X163595588Y-53538868D01*
X163266868Y-53867588D01*
X163008595Y-54254121D01*
X162830694Y-54683613D01*
X162740000Y-55139560D01*
X159840000Y-55139560D01*
X159749306Y-54683613D01*
X159571405Y-54254121D01*
X159313132Y-53867588D01*
X158984412Y-53538868D01*
X158597879Y-53280595D01*
X158168387Y-53102694D01*
X157712440Y-53012000D01*
X157247560Y-53012000D01*
X156791613Y-53102694D01*
X156362121Y-53280595D01*
X155975588Y-53538868D01*
X155646868Y-53867588D01*
X155388595Y-54254121D01*
X155210694Y-54683613D01*
X155120000Y-55139560D01*
X152220000Y-55139560D01*
X152129306Y-54683613D01*
X151951405Y-54254121D01*
X151693132Y-53867588D01*
X151364412Y-53538868D01*
X150977879Y-53280595D01*
X150548387Y-53102694D01*
X150092440Y-53012000D01*
X149627560Y-53012000D01*
X149171613Y-53102694D01*
X148742121Y-53280595D01*
X148355588Y-53538868D01*
X148026868Y-53867588D01*
X147768595Y-54254121D01*
X147590694Y-54683613D01*
X147500000Y-55139560D01*
X144600000Y-55139560D01*
X144509306Y-54683613D01*
X144331405Y-54254121D01*
X144073132Y-53867588D01*
X143744412Y-53538868D01*
X143357879Y-53280595D01*
X142928387Y-53102694D01*
X142472440Y-53012000D01*
X142007560Y-53012000D01*
X141551613Y-53102694D01*
X141122121Y-53280595D01*
X140735588Y-53538868D01*
X140406868Y-53867588D01*
X140148595Y-54254121D01*
X139970694Y-54683613D01*
X139880000Y-55139560D01*
X136980000Y-55139560D01*
X136889306Y-54683613D01*
X136711405Y-54254121D01*
X136453132Y-53867588D01*
X136124412Y-53538868D01*
X135737879Y-53280595D01*
X135308387Y-53102694D01*
X134852440Y-53012000D01*
X134387560Y-53012000D01*
X133931613Y-53102694D01*
X133502121Y-53280595D01*
X133115588Y-53538868D01*
X132786868Y-53867588D01*
X132528595Y-54254121D01*
X132350694Y-54683613D01*
X132260000Y-55139560D01*
X129360000Y-55139560D01*
X129269306Y-54683613D01*
X129091405Y-54254121D01*
X128833132Y-53867588D01*
X128504412Y-53538868D01*
X128117879Y-53280595D01*
X127688387Y-53102694D01*
X127232440Y-53012000D01*
X126767560Y-53012000D01*
X126311613Y-53102694D01*
X125882121Y-53280595D01*
X125495588Y-53538868D01*
X125166868Y-53867588D01*
X124908595Y-54254121D01*
X124730694Y-54683613D01*
X124640000Y-55139560D01*
X121740000Y-55139560D01*
X121649306Y-54683613D01*
X121471405Y-54254121D01*
X121213132Y-53867588D01*
X120884412Y-53538868D01*
X120497879Y-53280595D01*
X120068387Y-53102694D01*
X119612440Y-53012000D01*
X119147560Y-53012000D01*
X118691613Y-53102694D01*
X118262121Y-53280595D01*
X117875588Y-53538868D01*
X117546868Y-53867588D01*
X117288595Y-54254121D01*
X117110694Y-54683613D01*
X117020000Y-55139560D01*
X114120000Y-55139560D01*
X114029306Y-54683613D01*
X113851405Y-54254121D01*
X113593132Y-53867588D01*
X113264412Y-53538868D01*
X112877879Y-53280595D01*
X112448387Y-53102694D01*
X111992440Y-53012000D01*
X111527560Y-53012000D01*
X111071613Y-53102694D01*
X110642121Y-53280595D01*
X110255588Y-53538868D01*
X109926868Y-53867588D01*
X109668595Y-54254121D01*
X109490694Y-54683613D01*
X109400000Y-55139560D01*
X106500000Y-55139560D01*
X106409306Y-54683613D01*
X106231405Y-54254121D01*
X105973132Y-53867588D01*
X105644412Y-53538868D01*
X105257879Y-53280595D01*
X104828387Y-53102694D01*
X104372440Y-53012000D01*
X103907560Y-53012000D01*
X103451613Y-53102694D01*
X103022121Y-53280595D01*
X102635588Y-53538868D01*
X102306868Y-53867588D01*
X102048595Y-54254121D01*
X101870694Y-54683613D01*
X101780000Y-55139560D01*
X98880000Y-55139560D01*
X98789306Y-54683613D01*
X98611405Y-54254121D01*
X98353132Y-53867588D01*
X98024412Y-53538868D01*
X97637879Y-53280595D01*
X97208387Y-53102694D01*
X96752440Y-53012000D01*
X96287560Y-53012000D01*
X95831613Y-53102694D01*
X95402121Y-53280595D01*
X95015588Y-53538868D01*
X94686868Y-53867588D01*
X94428595Y-54254121D01*
X94250694Y-54683613D01*
X94160000Y-55139560D01*
X91260000Y-55139560D01*
X91169306Y-54683613D01*
X90991405Y-54254121D01*
X90733132Y-53867588D01*
X90404412Y-53538868D01*
X90017879Y-53280595D01*
X89588387Y-53102694D01*
X89132440Y-53012000D01*
X88667560Y-53012000D01*
X88211613Y-53102694D01*
X87782121Y-53280595D01*
X87395588Y-53538868D01*
X87066868Y-53867588D01*
X86808595Y-54254121D01*
X86630694Y-54683613D01*
X86540000Y-55139560D01*
X83640000Y-55139560D01*
X83549306Y-54683613D01*
X83371405Y-54254121D01*
X83113132Y-53867588D01*
X82784412Y-53538868D01*
X82397879Y-53280595D01*
X81968387Y-53102694D01*
X81512440Y-53012000D01*
X81047560Y-53012000D01*
X80591613Y-53102694D01*
X80162121Y-53280595D01*
X79775588Y-53538868D01*
X79446868Y-53867588D01*
X79188595Y-54254121D01*
X79010694Y-54683613D01*
X78920000Y-55139560D01*
X76020000Y-55139560D01*
X75929306Y-54683613D01*
X75751405Y-54254121D01*
X75493132Y-53867588D01*
X75164412Y-53538868D01*
X74777879Y-53280595D01*
X74348387Y-53102694D01*
X73892440Y-53012000D01*
X73427560Y-53012000D01*
X72971613Y-53102694D01*
X72542121Y-53280595D01*
X72155588Y-53538868D01*
X71826868Y-53867588D01*
X71568595Y-54254121D01*
X71390694Y-54683613D01*
X71300000Y-55139560D01*
X68400000Y-55139560D01*
X68309306Y-54683613D01*
X68131405Y-54254121D01*
X67873132Y-53867588D01*
X67544412Y-53538868D01*
X67157879Y-53280595D01*
X66728387Y-53102694D01*
X66272440Y-53012000D01*
X65807560Y-53012000D01*
X65351613Y-53102694D01*
X64922121Y-53280595D01*
X64535588Y-53538868D01*
X64206868Y-53867588D01*
X63948595Y-54254121D01*
X63770694Y-54683613D01*
X63680000Y-55139560D01*
X60780000Y-55139560D01*
X60689306Y-54683613D01*
X60511405Y-54254121D01*
X60253132Y-53867588D01*
X59924412Y-53538868D01*
X59537879Y-53280595D01*
X59108387Y-53102694D01*
X58652440Y-53012000D01*
X58187560Y-53012000D01*
X57731613Y-53102694D01*
X57302121Y-53280595D01*
X56915588Y-53538868D01*
X56586868Y-53867588D01*
X56328595Y-54254121D01*
X56150694Y-54683613D01*
X56060000Y-55139560D01*
X53160000Y-55139560D01*
X53069306Y-54683613D01*
X52891405Y-54254121D01*
X52633132Y-53867588D01*
X52304412Y-53538868D01*
X51917879Y-53280595D01*
X51488387Y-53102694D01*
X51032440Y-53012000D01*
X50567560Y-53012000D01*
X50111613Y-53102694D01*
X49682121Y-53280595D01*
X49295588Y-53538868D01*
X48966868Y-53867588D01*
X48708595Y-54254121D01*
X48530694Y-54683613D01*
X48440000Y-55139560D01*
X46380000Y-55139560D01*
X46380000Y-52610279D01*
X46409234Y-52312125D01*
X46486448Y-52056378D01*
X46611869Y-51820496D01*
X46780716Y-51613470D01*
X46986554Y-51443187D01*
X47221556Y-51316121D01*
X47476756Y-51237124D01*
X47772882Y-51206000D01*
X168115721Y-51206000D01*
X168413875Y-51235234D01*
M02*
