G04 #@! TF.GenerationSoftware,KiCad,Pcbnew,(5.1.4)-1*
G04 #@! TF.CreationDate,2020-11-27T16:32:11-06:00*
G04 #@! TF.ProjectId,gimble_board,67696d62-6c65-45f6-926f-6172642e6b69,rev?*
G04 #@! TF.SameCoordinates,Original*
G04 #@! TF.FileFunction,Soldermask,Bot*
G04 #@! TF.FilePolarity,Negative*
%FSLAX46Y46*%
G04 Gerber Fmt 4.6, Leading zero omitted, Abs format (unit mm)*
G04 Created by KiCad (PCBNEW (5.1.4)-1) date 2020-11-27 16:32:11*
%MOMM*%
%LPD*%
G04 APERTURE LIST*
%ADD10C,0.100000*%
G04 APERTURE END LIST*
D10*
G36*
X133586560Y-118600166D02*
G01*
X133734153Y-118661301D01*
X133866982Y-118750055D01*
X133979945Y-118863018D01*
X134068699Y-118995847D01*
X134129834Y-119143440D01*
X134161000Y-119300123D01*
X134161000Y-119459877D01*
X134129834Y-119616560D01*
X134068699Y-119764153D01*
X133979945Y-119896982D01*
X133866982Y-120009945D01*
X133734153Y-120098699D01*
X133734152Y-120098700D01*
X133734151Y-120098700D01*
X133586560Y-120159834D01*
X133429878Y-120191000D01*
X133270122Y-120191000D01*
X133113440Y-120159834D01*
X132965849Y-120098700D01*
X132965848Y-120098700D01*
X132965847Y-120098699D01*
X132833018Y-120009945D01*
X132720055Y-119896982D01*
X132631301Y-119764153D01*
X132570166Y-119616560D01*
X132539000Y-119459877D01*
X132539000Y-119300123D01*
X132570166Y-119143440D01*
X132631301Y-118995847D01*
X132720055Y-118863018D01*
X132833018Y-118750055D01*
X132965847Y-118661301D01*
X133113440Y-118600166D01*
X133270122Y-118569000D01*
X133429878Y-118569000D01*
X133586560Y-118600166D01*
X133586560Y-118600166D01*
G37*
G36*
X47226560Y-118600166D02*
G01*
X47374153Y-118661301D01*
X47506982Y-118750055D01*
X47619945Y-118863018D01*
X47708699Y-118995847D01*
X47769834Y-119143440D01*
X47801000Y-119300123D01*
X47801000Y-119459877D01*
X47769834Y-119616560D01*
X47708699Y-119764153D01*
X47619945Y-119896982D01*
X47506982Y-120009945D01*
X47374153Y-120098699D01*
X47374152Y-120098700D01*
X47374151Y-120098700D01*
X47226560Y-120159834D01*
X47069878Y-120191000D01*
X46910122Y-120191000D01*
X46753440Y-120159834D01*
X46605849Y-120098700D01*
X46605848Y-120098700D01*
X46605847Y-120098699D01*
X46473018Y-120009945D01*
X46360055Y-119896982D01*
X46271301Y-119764153D01*
X46210166Y-119616560D01*
X46179000Y-119459877D01*
X46179000Y-119300123D01*
X46210166Y-119143440D01*
X46271301Y-118995847D01*
X46360055Y-118863018D01*
X46473018Y-118750055D01*
X46605847Y-118661301D01*
X46753440Y-118600166D01*
X46910122Y-118569000D01*
X47069878Y-118569000D01*
X47226560Y-118600166D01*
X47226560Y-118600166D01*
G37*
G36*
X110726560Y-118600166D02*
G01*
X110874153Y-118661301D01*
X111006982Y-118750055D01*
X111119945Y-118863018D01*
X111208699Y-118995847D01*
X111269834Y-119143440D01*
X111301000Y-119300123D01*
X111301000Y-119459877D01*
X111269834Y-119616560D01*
X111208699Y-119764153D01*
X111119945Y-119896982D01*
X111006982Y-120009945D01*
X110874153Y-120098699D01*
X110874152Y-120098700D01*
X110874151Y-120098700D01*
X110726560Y-120159834D01*
X110569878Y-120191000D01*
X110410122Y-120191000D01*
X110253440Y-120159834D01*
X110105849Y-120098700D01*
X110105848Y-120098700D01*
X110105847Y-120098699D01*
X109973018Y-120009945D01*
X109860055Y-119896982D01*
X109771301Y-119764153D01*
X109710166Y-119616560D01*
X109679000Y-119459877D01*
X109679000Y-119300123D01*
X109710166Y-119143440D01*
X109771301Y-118995847D01*
X109860055Y-118863018D01*
X109973018Y-118750055D01*
X110105847Y-118661301D01*
X110253440Y-118600166D01*
X110410122Y-118569000D01*
X110569878Y-118569000D01*
X110726560Y-118600166D01*
X110726560Y-118600166D01*
G37*
G36*
X125966560Y-118600166D02*
G01*
X126114153Y-118661301D01*
X126246982Y-118750055D01*
X126359945Y-118863018D01*
X126448699Y-118995847D01*
X126509834Y-119143440D01*
X126541000Y-119300123D01*
X126541000Y-119459877D01*
X126509834Y-119616560D01*
X126448699Y-119764153D01*
X126359945Y-119896982D01*
X126246982Y-120009945D01*
X126114153Y-120098699D01*
X126114152Y-120098700D01*
X126114151Y-120098700D01*
X125966560Y-120159834D01*
X125809878Y-120191000D01*
X125650122Y-120191000D01*
X125493440Y-120159834D01*
X125345849Y-120098700D01*
X125345848Y-120098700D01*
X125345847Y-120098699D01*
X125213018Y-120009945D01*
X125100055Y-119896982D01*
X125011301Y-119764153D01*
X124950166Y-119616560D01*
X124919000Y-119459877D01*
X124919000Y-119300123D01*
X124950166Y-119143440D01*
X125011301Y-118995847D01*
X125100055Y-118863018D01*
X125213018Y-118750055D01*
X125345847Y-118661301D01*
X125493440Y-118600166D01*
X125650122Y-118569000D01*
X125809878Y-118569000D01*
X125966560Y-118600166D01*
X125966560Y-118600166D01*
G37*
G36*
X113266560Y-118600166D02*
G01*
X113414153Y-118661301D01*
X113546982Y-118750055D01*
X113659945Y-118863018D01*
X113748699Y-118995847D01*
X113809834Y-119143440D01*
X113841000Y-119300123D01*
X113841000Y-119459877D01*
X113809834Y-119616560D01*
X113748699Y-119764153D01*
X113659945Y-119896982D01*
X113546982Y-120009945D01*
X113414153Y-120098699D01*
X113414152Y-120098700D01*
X113414151Y-120098700D01*
X113266560Y-120159834D01*
X113109878Y-120191000D01*
X112950122Y-120191000D01*
X112793440Y-120159834D01*
X112645849Y-120098700D01*
X112645848Y-120098700D01*
X112645847Y-120098699D01*
X112513018Y-120009945D01*
X112400055Y-119896982D01*
X112311301Y-119764153D01*
X112250166Y-119616560D01*
X112219000Y-119459877D01*
X112219000Y-119300123D01*
X112250166Y-119143440D01*
X112311301Y-118995847D01*
X112400055Y-118863018D01*
X112513018Y-118750055D01*
X112645847Y-118661301D01*
X112793440Y-118600166D01*
X112950122Y-118569000D01*
X113109878Y-118569000D01*
X113266560Y-118600166D01*
X113266560Y-118600166D01*
G37*
G36*
X115806560Y-118600166D02*
G01*
X115954153Y-118661301D01*
X116086982Y-118750055D01*
X116199945Y-118863018D01*
X116288699Y-118995847D01*
X116349834Y-119143440D01*
X116381000Y-119300123D01*
X116381000Y-119459877D01*
X116349834Y-119616560D01*
X116288699Y-119764153D01*
X116199945Y-119896982D01*
X116086982Y-120009945D01*
X115954153Y-120098699D01*
X115954152Y-120098700D01*
X115954151Y-120098700D01*
X115806560Y-120159834D01*
X115649878Y-120191000D01*
X115490122Y-120191000D01*
X115333440Y-120159834D01*
X115185849Y-120098700D01*
X115185848Y-120098700D01*
X115185847Y-120098699D01*
X115053018Y-120009945D01*
X114940055Y-119896982D01*
X114851301Y-119764153D01*
X114790166Y-119616560D01*
X114759000Y-119459877D01*
X114759000Y-119300123D01*
X114790166Y-119143440D01*
X114851301Y-118995847D01*
X114940055Y-118863018D01*
X115053018Y-118750055D01*
X115185847Y-118661301D01*
X115333440Y-118600166D01*
X115490122Y-118569000D01*
X115649878Y-118569000D01*
X115806560Y-118600166D01*
X115806560Y-118600166D01*
G37*
G36*
X118346560Y-118600166D02*
G01*
X118494153Y-118661301D01*
X118626982Y-118750055D01*
X118739945Y-118863018D01*
X118828699Y-118995847D01*
X118889834Y-119143440D01*
X118921000Y-119300123D01*
X118921000Y-119459877D01*
X118889834Y-119616560D01*
X118828699Y-119764153D01*
X118739945Y-119896982D01*
X118626982Y-120009945D01*
X118494153Y-120098699D01*
X118494152Y-120098700D01*
X118494151Y-120098700D01*
X118346560Y-120159834D01*
X118189878Y-120191000D01*
X118030122Y-120191000D01*
X117873440Y-120159834D01*
X117725849Y-120098700D01*
X117725848Y-120098700D01*
X117725847Y-120098699D01*
X117593018Y-120009945D01*
X117480055Y-119896982D01*
X117391301Y-119764153D01*
X117330166Y-119616560D01*
X117299000Y-119459877D01*
X117299000Y-119300123D01*
X117330166Y-119143440D01*
X117391301Y-118995847D01*
X117480055Y-118863018D01*
X117593018Y-118750055D01*
X117725847Y-118661301D01*
X117873440Y-118600166D01*
X118030122Y-118569000D01*
X118189878Y-118569000D01*
X118346560Y-118600166D01*
X118346560Y-118600166D01*
G37*
G36*
X120886560Y-118600166D02*
G01*
X121034153Y-118661301D01*
X121166982Y-118750055D01*
X121279945Y-118863018D01*
X121368699Y-118995847D01*
X121429834Y-119143440D01*
X121461000Y-119300123D01*
X121461000Y-119459877D01*
X121429834Y-119616560D01*
X121368699Y-119764153D01*
X121279945Y-119896982D01*
X121166982Y-120009945D01*
X121034153Y-120098699D01*
X121034152Y-120098700D01*
X121034151Y-120098700D01*
X120886560Y-120159834D01*
X120729878Y-120191000D01*
X120570122Y-120191000D01*
X120413440Y-120159834D01*
X120265849Y-120098700D01*
X120265848Y-120098700D01*
X120265847Y-120098699D01*
X120133018Y-120009945D01*
X120020055Y-119896982D01*
X119931301Y-119764153D01*
X119870166Y-119616560D01*
X119839000Y-119459877D01*
X119839000Y-119300123D01*
X119870166Y-119143440D01*
X119931301Y-118995847D01*
X120020055Y-118863018D01*
X120133018Y-118750055D01*
X120265847Y-118661301D01*
X120413440Y-118600166D01*
X120570122Y-118569000D01*
X120729878Y-118569000D01*
X120886560Y-118600166D01*
X120886560Y-118600166D01*
G37*
G36*
X123426560Y-118600166D02*
G01*
X123574153Y-118661301D01*
X123706982Y-118750055D01*
X123819945Y-118863018D01*
X123908699Y-118995847D01*
X123969834Y-119143440D01*
X124001000Y-119300123D01*
X124001000Y-119459877D01*
X123969834Y-119616560D01*
X123908699Y-119764153D01*
X123819945Y-119896982D01*
X123706982Y-120009945D01*
X123574153Y-120098699D01*
X123574152Y-120098700D01*
X123574151Y-120098700D01*
X123426560Y-120159834D01*
X123269878Y-120191000D01*
X123110122Y-120191000D01*
X122953440Y-120159834D01*
X122805849Y-120098700D01*
X122805848Y-120098700D01*
X122805847Y-120098699D01*
X122673018Y-120009945D01*
X122560055Y-119896982D01*
X122471301Y-119764153D01*
X122410166Y-119616560D01*
X122379000Y-119459877D01*
X122379000Y-119300123D01*
X122410166Y-119143440D01*
X122471301Y-118995847D01*
X122560055Y-118863018D01*
X122673018Y-118750055D01*
X122805847Y-118661301D01*
X122953440Y-118600166D01*
X123110122Y-118569000D01*
X123269878Y-118569000D01*
X123426560Y-118600166D01*
X123426560Y-118600166D01*
G37*
G36*
X128506560Y-118600166D02*
G01*
X128654153Y-118661301D01*
X128786982Y-118750055D01*
X128899945Y-118863018D01*
X128988699Y-118995847D01*
X129049834Y-119143440D01*
X129081000Y-119300123D01*
X129081000Y-119459877D01*
X129049834Y-119616560D01*
X128988699Y-119764153D01*
X128899945Y-119896982D01*
X128786982Y-120009945D01*
X128654153Y-120098699D01*
X128654152Y-120098700D01*
X128654151Y-120098700D01*
X128506560Y-120159834D01*
X128349878Y-120191000D01*
X128190122Y-120191000D01*
X128033440Y-120159834D01*
X127885849Y-120098700D01*
X127885848Y-120098700D01*
X127885847Y-120098699D01*
X127753018Y-120009945D01*
X127640055Y-119896982D01*
X127551301Y-119764153D01*
X127490166Y-119616560D01*
X127459000Y-119459877D01*
X127459000Y-119300123D01*
X127490166Y-119143440D01*
X127551301Y-118995847D01*
X127640055Y-118863018D01*
X127753018Y-118750055D01*
X127885847Y-118661301D01*
X128033440Y-118600166D01*
X128190122Y-118569000D01*
X128349878Y-118569000D01*
X128506560Y-118600166D01*
X128506560Y-118600166D01*
G37*
G36*
X131046560Y-118600166D02*
G01*
X131194153Y-118661301D01*
X131326982Y-118750055D01*
X131439945Y-118863018D01*
X131528699Y-118995847D01*
X131589834Y-119143440D01*
X131621000Y-119300123D01*
X131621000Y-119459877D01*
X131589834Y-119616560D01*
X131528699Y-119764153D01*
X131439945Y-119896982D01*
X131326982Y-120009945D01*
X131194153Y-120098699D01*
X131194152Y-120098700D01*
X131194151Y-120098700D01*
X131046560Y-120159834D01*
X130889878Y-120191000D01*
X130730122Y-120191000D01*
X130573440Y-120159834D01*
X130425849Y-120098700D01*
X130425848Y-120098700D01*
X130425847Y-120098699D01*
X130293018Y-120009945D01*
X130180055Y-119896982D01*
X130091301Y-119764153D01*
X130030166Y-119616560D01*
X129999000Y-119459877D01*
X129999000Y-119300123D01*
X130030166Y-119143440D01*
X130091301Y-118995847D01*
X130180055Y-118863018D01*
X130293018Y-118750055D01*
X130425847Y-118661301D01*
X130573440Y-118600166D01*
X130730122Y-118569000D01*
X130889878Y-118569000D01*
X131046560Y-118600166D01*
X131046560Y-118600166D01*
G37*
G36*
X52306560Y-118600166D02*
G01*
X52454153Y-118661301D01*
X52586982Y-118750055D01*
X52699945Y-118863018D01*
X52788699Y-118995847D01*
X52849834Y-119143440D01*
X52881000Y-119300123D01*
X52881000Y-119459877D01*
X52849834Y-119616560D01*
X52788699Y-119764153D01*
X52699945Y-119896982D01*
X52586982Y-120009945D01*
X52454153Y-120098699D01*
X52454152Y-120098700D01*
X52454151Y-120098700D01*
X52306560Y-120159834D01*
X52149878Y-120191000D01*
X51990122Y-120191000D01*
X51833440Y-120159834D01*
X51685849Y-120098700D01*
X51685848Y-120098700D01*
X51685847Y-120098699D01*
X51553018Y-120009945D01*
X51440055Y-119896982D01*
X51351301Y-119764153D01*
X51290166Y-119616560D01*
X51259000Y-119459877D01*
X51259000Y-119300123D01*
X51290166Y-119143440D01*
X51351301Y-118995847D01*
X51440055Y-118863018D01*
X51553018Y-118750055D01*
X51685847Y-118661301D01*
X51833440Y-118600166D01*
X51990122Y-118569000D01*
X52149878Y-118569000D01*
X52306560Y-118600166D01*
X52306560Y-118600166D01*
G37*
G36*
X54846560Y-118600166D02*
G01*
X54994153Y-118661301D01*
X55126982Y-118750055D01*
X55239945Y-118863018D01*
X55328699Y-118995847D01*
X55389834Y-119143440D01*
X55421000Y-119300123D01*
X55421000Y-119459877D01*
X55389834Y-119616560D01*
X55328699Y-119764153D01*
X55239945Y-119896982D01*
X55126982Y-120009945D01*
X54994153Y-120098699D01*
X54994152Y-120098700D01*
X54994151Y-120098700D01*
X54846560Y-120159834D01*
X54689878Y-120191000D01*
X54530122Y-120191000D01*
X54373440Y-120159834D01*
X54225849Y-120098700D01*
X54225848Y-120098700D01*
X54225847Y-120098699D01*
X54093018Y-120009945D01*
X53980055Y-119896982D01*
X53891301Y-119764153D01*
X53830166Y-119616560D01*
X53799000Y-119459877D01*
X53799000Y-119300123D01*
X53830166Y-119143440D01*
X53891301Y-118995847D01*
X53980055Y-118863018D01*
X54093018Y-118750055D01*
X54225847Y-118661301D01*
X54373440Y-118600166D01*
X54530122Y-118569000D01*
X54689878Y-118569000D01*
X54846560Y-118600166D01*
X54846560Y-118600166D01*
G37*
G36*
X57386560Y-118600166D02*
G01*
X57534153Y-118661301D01*
X57666982Y-118750055D01*
X57779945Y-118863018D01*
X57868699Y-118995847D01*
X57929834Y-119143440D01*
X57961000Y-119300123D01*
X57961000Y-119459877D01*
X57929834Y-119616560D01*
X57868699Y-119764153D01*
X57779945Y-119896982D01*
X57666982Y-120009945D01*
X57534153Y-120098699D01*
X57534152Y-120098700D01*
X57534151Y-120098700D01*
X57386560Y-120159834D01*
X57229878Y-120191000D01*
X57070122Y-120191000D01*
X56913440Y-120159834D01*
X56765849Y-120098700D01*
X56765848Y-120098700D01*
X56765847Y-120098699D01*
X56633018Y-120009945D01*
X56520055Y-119896982D01*
X56431301Y-119764153D01*
X56370166Y-119616560D01*
X56339000Y-119459877D01*
X56339000Y-119300123D01*
X56370166Y-119143440D01*
X56431301Y-118995847D01*
X56520055Y-118863018D01*
X56633018Y-118750055D01*
X56765847Y-118661301D01*
X56913440Y-118600166D01*
X57070122Y-118569000D01*
X57229878Y-118569000D01*
X57386560Y-118600166D01*
X57386560Y-118600166D01*
G37*
G36*
X59926560Y-118600166D02*
G01*
X60074153Y-118661301D01*
X60206982Y-118750055D01*
X60319945Y-118863018D01*
X60408699Y-118995847D01*
X60469834Y-119143440D01*
X60501000Y-119300123D01*
X60501000Y-119459877D01*
X60469834Y-119616560D01*
X60408699Y-119764153D01*
X60319945Y-119896982D01*
X60206982Y-120009945D01*
X60074153Y-120098699D01*
X60074152Y-120098700D01*
X60074151Y-120098700D01*
X59926560Y-120159834D01*
X59769878Y-120191000D01*
X59610122Y-120191000D01*
X59453440Y-120159834D01*
X59305849Y-120098700D01*
X59305848Y-120098700D01*
X59305847Y-120098699D01*
X59173018Y-120009945D01*
X59060055Y-119896982D01*
X58971301Y-119764153D01*
X58910166Y-119616560D01*
X58879000Y-119459877D01*
X58879000Y-119300123D01*
X58910166Y-119143440D01*
X58971301Y-118995847D01*
X59060055Y-118863018D01*
X59173018Y-118750055D01*
X59305847Y-118661301D01*
X59453440Y-118600166D01*
X59610122Y-118569000D01*
X59769878Y-118569000D01*
X59926560Y-118600166D01*
X59926560Y-118600166D01*
G37*
G36*
X62466560Y-118600166D02*
G01*
X62614153Y-118661301D01*
X62746982Y-118750055D01*
X62859945Y-118863018D01*
X62948699Y-118995847D01*
X63009834Y-119143440D01*
X63041000Y-119300123D01*
X63041000Y-119459877D01*
X63009834Y-119616560D01*
X62948699Y-119764153D01*
X62859945Y-119896982D01*
X62746982Y-120009945D01*
X62614153Y-120098699D01*
X62614152Y-120098700D01*
X62614151Y-120098700D01*
X62466560Y-120159834D01*
X62309878Y-120191000D01*
X62150122Y-120191000D01*
X61993440Y-120159834D01*
X61845849Y-120098700D01*
X61845848Y-120098700D01*
X61845847Y-120098699D01*
X61713018Y-120009945D01*
X61600055Y-119896982D01*
X61511301Y-119764153D01*
X61450166Y-119616560D01*
X61419000Y-119459877D01*
X61419000Y-119300123D01*
X61450166Y-119143440D01*
X61511301Y-118995847D01*
X61600055Y-118863018D01*
X61713018Y-118750055D01*
X61845847Y-118661301D01*
X61993440Y-118600166D01*
X62150122Y-118569000D01*
X62309878Y-118569000D01*
X62466560Y-118600166D01*
X62466560Y-118600166D01*
G37*
G36*
X65006560Y-118600166D02*
G01*
X65154153Y-118661301D01*
X65286982Y-118750055D01*
X65399945Y-118863018D01*
X65488699Y-118995847D01*
X65549834Y-119143440D01*
X65581000Y-119300123D01*
X65581000Y-119459877D01*
X65549834Y-119616560D01*
X65488699Y-119764153D01*
X65399945Y-119896982D01*
X65286982Y-120009945D01*
X65154153Y-120098699D01*
X65154152Y-120098700D01*
X65154151Y-120098700D01*
X65006560Y-120159834D01*
X64849878Y-120191000D01*
X64690122Y-120191000D01*
X64533440Y-120159834D01*
X64385849Y-120098700D01*
X64385848Y-120098700D01*
X64385847Y-120098699D01*
X64253018Y-120009945D01*
X64140055Y-119896982D01*
X64051301Y-119764153D01*
X63990166Y-119616560D01*
X63959000Y-119459877D01*
X63959000Y-119300123D01*
X63990166Y-119143440D01*
X64051301Y-118995847D01*
X64140055Y-118863018D01*
X64253018Y-118750055D01*
X64385847Y-118661301D01*
X64533440Y-118600166D01*
X64690122Y-118569000D01*
X64849878Y-118569000D01*
X65006560Y-118600166D01*
X65006560Y-118600166D01*
G37*
G36*
X67546560Y-118600166D02*
G01*
X67694153Y-118661301D01*
X67826982Y-118750055D01*
X67939945Y-118863018D01*
X68028699Y-118995847D01*
X68089834Y-119143440D01*
X68121000Y-119300123D01*
X68121000Y-119459877D01*
X68089834Y-119616560D01*
X68028699Y-119764153D01*
X67939945Y-119896982D01*
X67826982Y-120009945D01*
X67694153Y-120098699D01*
X67694152Y-120098700D01*
X67694151Y-120098700D01*
X67546560Y-120159834D01*
X67389878Y-120191000D01*
X67230122Y-120191000D01*
X67073440Y-120159834D01*
X66925849Y-120098700D01*
X66925848Y-120098700D01*
X66925847Y-120098699D01*
X66793018Y-120009945D01*
X66680055Y-119896982D01*
X66591301Y-119764153D01*
X66530166Y-119616560D01*
X66499000Y-119459877D01*
X66499000Y-119300123D01*
X66530166Y-119143440D01*
X66591301Y-118995847D01*
X66680055Y-118863018D01*
X66793018Y-118750055D01*
X66925847Y-118661301D01*
X67073440Y-118600166D01*
X67230122Y-118569000D01*
X67389878Y-118569000D01*
X67546560Y-118600166D01*
X67546560Y-118600166D01*
G37*
G36*
X70086560Y-118600166D02*
G01*
X70234153Y-118661301D01*
X70366982Y-118750055D01*
X70479945Y-118863018D01*
X70568699Y-118995847D01*
X70629834Y-119143440D01*
X70661000Y-119300123D01*
X70661000Y-119459877D01*
X70629834Y-119616560D01*
X70568699Y-119764153D01*
X70479945Y-119896982D01*
X70366982Y-120009945D01*
X70234153Y-120098699D01*
X70234152Y-120098700D01*
X70234151Y-120098700D01*
X70086560Y-120159834D01*
X69929878Y-120191000D01*
X69770122Y-120191000D01*
X69613440Y-120159834D01*
X69465849Y-120098700D01*
X69465848Y-120098700D01*
X69465847Y-120098699D01*
X69333018Y-120009945D01*
X69220055Y-119896982D01*
X69131301Y-119764153D01*
X69070166Y-119616560D01*
X69039000Y-119459877D01*
X69039000Y-119300123D01*
X69070166Y-119143440D01*
X69131301Y-118995847D01*
X69220055Y-118863018D01*
X69333018Y-118750055D01*
X69465847Y-118661301D01*
X69613440Y-118600166D01*
X69770122Y-118569000D01*
X69929878Y-118569000D01*
X70086560Y-118600166D01*
X70086560Y-118600166D01*
G37*
G36*
X49766560Y-118600166D02*
G01*
X49914153Y-118661301D01*
X50046982Y-118750055D01*
X50159945Y-118863018D01*
X50248699Y-118995847D01*
X50309834Y-119143440D01*
X50341000Y-119300123D01*
X50341000Y-119459877D01*
X50309834Y-119616560D01*
X50248699Y-119764153D01*
X50159945Y-119896982D01*
X50046982Y-120009945D01*
X49914153Y-120098699D01*
X49914152Y-120098700D01*
X49914151Y-120098700D01*
X49766560Y-120159834D01*
X49609878Y-120191000D01*
X49450122Y-120191000D01*
X49293440Y-120159834D01*
X49145849Y-120098700D01*
X49145848Y-120098700D01*
X49145847Y-120098699D01*
X49013018Y-120009945D01*
X48900055Y-119896982D01*
X48811301Y-119764153D01*
X48750166Y-119616560D01*
X48719000Y-119459877D01*
X48719000Y-119300123D01*
X48750166Y-119143440D01*
X48811301Y-118995847D01*
X48900055Y-118863018D01*
X49013018Y-118750055D01*
X49145847Y-118661301D01*
X49293440Y-118600166D01*
X49450122Y-118569000D01*
X49609878Y-118569000D01*
X49766560Y-118600166D01*
X49766560Y-118600166D01*
G37*
G36*
X57386560Y-116060166D02*
G01*
X57534153Y-116121301D01*
X57666982Y-116210055D01*
X57779945Y-116323018D01*
X57868699Y-116455847D01*
X57929834Y-116603440D01*
X57961000Y-116760123D01*
X57961000Y-116919877D01*
X57929834Y-117076560D01*
X57868699Y-117224153D01*
X57779945Y-117356982D01*
X57666982Y-117469945D01*
X57534153Y-117558699D01*
X57534152Y-117558700D01*
X57534151Y-117558700D01*
X57386560Y-117619834D01*
X57229878Y-117651000D01*
X57070122Y-117651000D01*
X56913440Y-117619834D01*
X56765849Y-117558700D01*
X56765848Y-117558700D01*
X56765847Y-117558699D01*
X56633018Y-117469945D01*
X56520055Y-117356982D01*
X56431301Y-117224153D01*
X56370166Y-117076560D01*
X56339000Y-116919877D01*
X56339000Y-116760123D01*
X56370166Y-116603440D01*
X56431301Y-116455847D01*
X56520055Y-116323018D01*
X56633018Y-116210055D01*
X56765847Y-116121301D01*
X56913440Y-116060166D01*
X57070122Y-116029000D01*
X57229878Y-116029000D01*
X57386560Y-116060166D01*
X57386560Y-116060166D01*
G37*
G36*
X54846560Y-116060166D02*
G01*
X54994153Y-116121301D01*
X55126982Y-116210055D01*
X55239945Y-116323018D01*
X55328699Y-116455847D01*
X55389834Y-116603440D01*
X55421000Y-116760123D01*
X55421000Y-116919877D01*
X55389834Y-117076560D01*
X55328699Y-117224153D01*
X55239945Y-117356982D01*
X55126982Y-117469945D01*
X54994153Y-117558699D01*
X54994152Y-117558700D01*
X54994151Y-117558700D01*
X54846560Y-117619834D01*
X54689878Y-117651000D01*
X54530122Y-117651000D01*
X54373440Y-117619834D01*
X54225849Y-117558700D01*
X54225848Y-117558700D01*
X54225847Y-117558699D01*
X54093018Y-117469945D01*
X53980055Y-117356982D01*
X53891301Y-117224153D01*
X53830166Y-117076560D01*
X53799000Y-116919877D01*
X53799000Y-116760123D01*
X53830166Y-116603440D01*
X53891301Y-116455847D01*
X53980055Y-116323018D01*
X54093018Y-116210055D01*
X54225847Y-116121301D01*
X54373440Y-116060166D01*
X54530122Y-116029000D01*
X54689878Y-116029000D01*
X54846560Y-116060166D01*
X54846560Y-116060166D01*
G37*
G36*
X49766560Y-116060166D02*
G01*
X49914153Y-116121301D01*
X50046982Y-116210055D01*
X50159945Y-116323018D01*
X50248699Y-116455847D01*
X50309834Y-116603440D01*
X50341000Y-116760123D01*
X50341000Y-116919877D01*
X50309834Y-117076560D01*
X50248699Y-117224153D01*
X50159945Y-117356982D01*
X50046982Y-117469945D01*
X49914153Y-117558699D01*
X49914152Y-117558700D01*
X49914151Y-117558700D01*
X49766560Y-117619834D01*
X49609878Y-117651000D01*
X49450122Y-117651000D01*
X49293440Y-117619834D01*
X49145849Y-117558700D01*
X49145848Y-117558700D01*
X49145847Y-117558699D01*
X49013018Y-117469945D01*
X48900055Y-117356982D01*
X48811301Y-117224153D01*
X48750166Y-117076560D01*
X48719000Y-116919877D01*
X48719000Y-116760123D01*
X48750166Y-116603440D01*
X48811301Y-116455847D01*
X48900055Y-116323018D01*
X49013018Y-116210055D01*
X49145847Y-116121301D01*
X49293440Y-116060166D01*
X49450122Y-116029000D01*
X49609878Y-116029000D01*
X49766560Y-116060166D01*
X49766560Y-116060166D01*
G37*
G36*
X47226560Y-116060166D02*
G01*
X47374153Y-116121301D01*
X47506982Y-116210055D01*
X47619945Y-116323018D01*
X47708699Y-116455847D01*
X47769834Y-116603440D01*
X47801000Y-116760123D01*
X47801000Y-116919877D01*
X47769834Y-117076560D01*
X47708699Y-117224153D01*
X47619945Y-117356982D01*
X47506982Y-117469945D01*
X47374153Y-117558699D01*
X47374152Y-117558700D01*
X47374151Y-117558700D01*
X47226560Y-117619834D01*
X47069878Y-117651000D01*
X46910122Y-117651000D01*
X46753440Y-117619834D01*
X46605849Y-117558700D01*
X46605848Y-117558700D01*
X46605847Y-117558699D01*
X46473018Y-117469945D01*
X46360055Y-117356982D01*
X46271301Y-117224153D01*
X46210166Y-117076560D01*
X46179000Y-116919877D01*
X46179000Y-116760123D01*
X46210166Y-116603440D01*
X46271301Y-116455847D01*
X46360055Y-116323018D01*
X46473018Y-116210055D01*
X46605847Y-116121301D01*
X46753440Y-116060166D01*
X46910122Y-116029000D01*
X47069878Y-116029000D01*
X47226560Y-116060166D01*
X47226560Y-116060166D01*
G37*
G36*
X113266560Y-116060166D02*
G01*
X113414153Y-116121301D01*
X113546982Y-116210055D01*
X113659945Y-116323018D01*
X113748699Y-116455847D01*
X113809834Y-116603440D01*
X113841000Y-116760123D01*
X113841000Y-116919877D01*
X113809834Y-117076560D01*
X113748699Y-117224153D01*
X113659945Y-117356982D01*
X113546982Y-117469945D01*
X113414153Y-117558699D01*
X113414152Y-117558700D01*
X113414151Y-117558700D01*
X113266560Y-117619834D01*
X113109878Y-117651000D01*
X112950122Y-117651000D01*
X112793440Y-117619834D01*
X112645849Y-117558700D01*
X112645848Y-117558700D01*
X112645847Y-117558699D01*
X112513018Y-117469945D01*
X112400055Y-117356982D01*
X112311301Y-117224153D01*
X112250166Y-117076560D01*
X112219000Y-116919877D01*
X112219000Y-116760123D01*
X112250166Y-116603440D01*
X112311301Y-116455847D01*
X112400055Y-116323018D01*
X112513018Y-116210055D01*
X112645847Y-116121301D01*
X112793440Y-116060166D01*
X112950122Y-116029000D01*
X113109878Y-116029000D01*
X113266560Y-116060166D01*
X113266560Y-116060166D01*
G37*
G36*
X110726560Y-116060166D02*
G01*
X110874153Y-116121301D01*
X111006982Y-116210055D01*
X111119945Y-116323018D01*
X111208699Y-116455847D01*
X111269834Y-116603440D01*
X111301000Y-116760123D01*
X111301000Y-116919877D01*
X111269834Y-117076560D01*
X111208699Y-117224153D01*
X111119945Y-117356982D01*
X111006982Y-117469945D01*
X110874153Y-117558699D01*
X110874152Y-117558700D01*
X110874151Y-117558700D01*
X110726560Y-117619834D01*
X110569878Y-117651000D01*
X110410122Y-117651000D01*
X110253440Y-117619834D01*
X110105849Y-117558700D01*
X110105848Y-117558700D01*
X110105847Y-117558699D01*
X109973018Y-117469945D01*
X109860055Y-117356982D01*
X109771301Y-117224153D01*
X109710166Y-117076560D01*
X109679000Y-116919877D01*
X109679000Y-116760123D01*
X109710166Y-116603440D01*
X109771301Y-116455847D01*
X109860055Y-116323018D01*
X109973018Y-116210055D01*
X110105847Y-116121301D01*
X110253440Y-116060166D01*
X110410122Y-116029000D01*
X110569878Y-116029000D01*
X110726560Y-116060166D01*
X110726560Y-116060166D01*
G37*
G36*
X131046560Y-116060166D02*
G01*
X131194153Y-116121301D01*
X131326982Y-116210055D01*
X131439945Y-116323018D01*
X131528699Y-116455847D01*
X131589834Y-116603440D01*
X131621000Y-116760123D01*
X131621000Y-116919877D01*
X131589834Y-117076560D01*
X131528699Y-117224153D01*
X131439945Y-117356982D01*
X131326982Y-117469945D01*
X131194153Y-117558699D01*
X131194152Y-117558700D01*
X131194151Y-117558700D01*
X131046560Y-117619834D01*
X130889878Y-117651000D01*
X130730122Y-117651000D01*
X130573440Y-117619834D01*
X130425849Y-117558700D01*
X130425848Y-117558700D01*
X130425847Y-117558699D01*
X130293018Y-117469945D01*
X130180055Y-117356982D01*
X130091301Y-117224153D01*
X130030166Y-117076560D01*
X129999000Y-116919877D01*
X129999000Y-116760123D01*
X130030166Y-116603440D01*
X130091301Y-116455847D01*
X130180055Y-116323018D01*
X130293018Y-116210055D01*
X130425847Y-116121301D01*
X130573440Y-116060166D01*
X130730122Y-116029000D01*
X130889878Y-116029000D01*
X131046560Y-116060166D01*
X131046560Y-116060166D01*
G37*
G36*
X123426560Y-116060166D02*
G01*
X123574153Y-116121301D01*
X123706982Y-116210055D01*
X123819945Y-116323018D01*
X123908699Y-116455847D01*
X123969834Y-116603440D01*
X124001000Y-116760123D01*
X124001000Y-116919877D01*
X123969834Y-117076560D01*
X123908699Y-117224153D01*
X123819945Y-117356982D01*
X123706982Y-117469945D01*
X123574153Y-117558699D01*
X123574152Y-117558700D01*
X123574151Y-117558700D01*
X123426560Y-117619834D01*
X123269878Y-117651000D01*
X123110122Y-117651000D01*
X122953440Y-117619834D01*
X122805849Y-117558700D01*
X122805848Y-117558700D01*
X122805847Y-117558699D01*
X122673018Y-117469945D01*
X122560055Y-117356982D01*
X122471301Y-117224153D01*
X122410166Y-117076560D01*
X122379000Y-116919877D01*
X122379000Y-116760123D01*
X122410166Y-116603440D01*
X122471301Y-116455847D01*
X122560055Y-116323018D01*
X122673018Y-116210055D01*
X122805847Y-116121301D01*
X122953440Y-116060166D01*
X123110122Y-116029000D01*
X123269878Y-116029000D01*
X123426560Y-116060166D01*
X123426560Y-116060166D01*
G37*
G36*
X120886560Y-116060166D02*
G01*
X121034153Y-116121301D01*
X121166982Y-116210055D01*
X121279945Y-116323018D01*
X121368699Y-116455847D01*
X121429834Y-116603440D01*
X121461000Y-116760123D01*
X121461000Y-116919877D01*
X121429834Y-117076560D01*
X121368699Y-117224153D01*
X121279945Y-117356982D01*
X121166982Y-117469945D01*
X121034153Y-117558699D01*
X121034152Y-117558700D01*
X121034151Y-117558700D01*
X120886560Y-117619834D01*
X120729878Y-117651000D01*
X120570122Y-117651000D01*
X120413440Y-117619834D01*
X120265849Y-117558700D01*
X120265848Y-117558700D01*
X120265847Y-117558699D01*
X120133018Y-117469945D01*
X120020055Y-117356982D01*
X119931301Y-117224153D01*
X119870166Y-117076560D01*
X119839000Y-116919877D01*
X119839000Y-116760123D01*
X119870166Y-116603440D01*
X119931301Y-116455847D01*
X120020055Y-116323018D01*
X120133018Y-116210055D01*
X120265847Y-116121301D01*
X120413440Y-116060166D01*
X120570122Y-116029000D01*
X120729878Y-116029000D01*
X120886560Y-116060166D01*
X120886560Y-116060166D01*
G37*
G36*
X52306560Y-116060166D02*
G01*
X52454153Y-116121301D01*
X52586982Y-116210055D01*
X52699945Y-116323018D01*
X52788699Y-116455847D01*
X52849834Y-116603440D01*
X52881000Y-116760123D01*
X52881000Y-116919877D01*
X52849834Y-117076560D01*
X52788699Y-117224153D01*
X52699945Y-117356982D01*
X52586982Y-117469945D01*
X52454153Y-117558699D01*
X52454152Y-117558700D01*
X52454151Y-117558700D01*
X52306560Y-117619834D01*
X52149878Y-117651000D01*
X51990122Y-117651000D01*
X51833440Y-117619834D01*
X51685849Y-117558700D01*
X51685848Y-117558700D01*
X51685847Y-117558699D01*
X51553018Y-117469945D01*
X51440055Y-117356982D01*
X51351301Y-117224153D01*
X51290166Y-117076560D01*
X51259000Y-116919877D01*
X51259000Y-116760123D01*
X51290166Y-116603440D01*
X51351301Y-116455847D01*
X51440055Y-116323018D01*
X51553018Y-116210055D01*
X51685847Y-116121301D01*
X51833440Y-116060166D01*
X51990122Y-116029000D01*
X52149878Y-116029000D01*
X52306560Y-116060166D01*
X52306560Y-116060166D01*
G37*
G36*
X67546560Y-116060166D02*
G01*
X67694153Y-116121301D01*
X67826982Y-116210055D01*
X67939945Y-116323018D01*
X68028699Y-116455847D01*
X68089834Y-116603440D01*
X68121000Y-116760123D01*
X68121000Y-116919877D01*
X68089834Y-117076560D01*
X68028699Y-117224153D01*
X67939945Y-117356982D01*
X67826982Y-117469945D01*
X67694153Y-117558699D01*
X67694152Y-117558700D01*
X67694151Y-117558700D01*
X67546560Y-117619834D01*
X67389878Y-117651000D01*
X67230122Y-117651000D01*
X67073440Y-117619834D01*
X66925849Y-117558700D01*
X66925848Y-117558700D01*
X66925847Y-117558699D01*
X66793018Y-117469945D01*
X66680055Y-117356982D01*
X66591301Y-117224153D01*
X66530166Y-117076560D01*
X66499000Y-116919877D01*
X66499000Y-116760123D01*
X66530166Y-116603440D01*
X66591301Y-116455847D01*
X66680055Y-116323018D01*
X66793018Y-116210055D01*
X66925847Y-116121301D01*
X67073440Y-116060166D01*
X67230122Y-116029000D01*
X67389878Y-116029000D01*
X67546560Y-116060166D01*
X67546560Y-116060166D01*
G37*
G36*
X59926560Y-116060166D02*
G01*
X60074153Y-116121301D01*
X60206982Y-116210055D01*
X60319945Y-116323018D01*
X60408699Y-116455847D01*
X60469834Y-116603440D01*
X60501000Y-116760123D01*
X60501000Y-116919877D01*
X60469834Y-117076560D01*
X60408699Y-117224153D01*
X60319945Y-117356982D01*
X60206982Y-117469945D01*
X60074153Y-117558699D01*
X60074152Y-117558700D01*
X60074151Y-117558700D01*
X59926560Y-117619834D01*
X59769878Y-117651000D01*
X59610122Y-117651000D01*
X59453440Y-117619834D01*
X59305849Y-117558700D01*
X59305848Y-117558700D01*
X59305847Y-117558699D01*
X59173018Y-117469945D01*
X59060055Y-117356982D01*
X58971301Y-117224153D01*
X58910166Y-117076560D01*
X58879000Y-116919877D01*
X58879000Y-116760123D01*
X58910166Y-116603440D01*
X58971301Y-116455847D01*
X59060055Y-116323018D01*
X59173018Y-116210055D01*
X59305847Y-116121301D01*
X59453440Y-116060166D01*
X59610122Y-116029000D01*
X59769878Y-116029000D01*
X59926560Y-116060166D01*
X59926560Y-116060166D01*
G37*
G36*
X128506560Y-116060166D02*
G01*
X128654153Y-116121301D01*
X128786982Y-116210055D01*
X128899945Y-116323018D01*
X128988699Y-116455847D01*
X129049834Y-116603440D01*
X129081000Y-116760123D01*
X129081000Y-116919877D01*
X129049834Y-117076560D01*
X128988699Y-117224153D01*
X128899945Y-117356982D01*
X128786982Y-117469945D01*
X128654153Y-117558699D01*
X128654152Y-117558700D01*
X128654151Y-117558700D01*
X128506560Y-117619834D01*
X128349878Y-117651000D01*
X128190122Y-117651000D01*
X128033440Y-117619834D01*
X127885849Y-117558700D01*
X127885848Y-117558700D01*
X127885847Y-117558699D01*
X127753018Y-117469945D01*
X127640055Y-117356982D01*
X127551301Y-117224153D01*
X127490166Y-117076560D01*
X127459000Y-116919877D01*
X127459000Y-116760123D01*
X127490166Y-116603440D01*
X127551301Y-116455847D01*
X127640055Y-116323018D01*
X127753018Y-116210055D01*
X127885847Y-116121301D01*
X128033440Y-116060166D01*
X128190122Y-116029000D01*
X128349878Y-116029000D01*
X128506560Y-116060166D01*
X128506560Y-116060166D01*
G37*
G36*
X118346560Y-116060166D02*
G01*
X118494153Y-116121301D01*
X118626982Y-116210055D01*
X118739945Y-116323018D01*
X118828699Y-116455847D01*
X118889834Y-116603440D01*
X118921000Y-116760123D01*
X118921000Y-116919877D01*
X118889834Y-117076560D01*
X118828699Y-117224153D01*
X118739945Y-117356982D01*
X118626982Y-117469945D01*
X118494153Y-117558699D01*
X118494152Y-117558700D01*
X118494151Y-117558700D01*
X118346560Y-117619834D01*
X118189878Y-117651000D01*
X118030122Y-117651000D01*
X117873440Y-117619834D01*
X117725849Y-117558700D01*
X117725848Y-117558700D01*
X117725847Y-117558699D01*
X117593018Y-117469945D01*
X117480055Y-117356982D01*
X117391301Y-117224153D01*
X117330166Y-117076560D01*
X117299000Y-116919877D01*
X117299000Y-116760123D01*
X117330166Y-116603440D01*
X117391301Y-116455847D01*
X117480055Y-116323018D01*
X117593018Y-116210055D01*
X117725847Y-116121301D01*
X117873440Y-116060166D01*
X118030122Y-116029000D01*
X118189878Y-116029000D01*
X118346560Y-116060166D01*
X118346560Y-116060166D01*
G37*
G36*
X115806560Y-116060166D02*
G01*
X115954153Y-116121301D01*
X116086982Y-116210055D01*
X116199945Y-116323018D01*
X116288699Y-116455847D01*
X116349834Y-116603440D01*
X116381000Y-116760123D01*
X116381000Y-116919877D01*
X116349834Y-117076560D01*
X116288699Y-117224153D01*
X116199945Y-117356982D01*
X116086982Y-117469945D01*
X115954153Y-117558699D01*
X115954152Y-117558700D01*
X115954151Y-117558700D01*
X115806560Y-117619834D01*
X115649878Y-117651000D01*
X115490122Y-117651000D01*
X115333440Y-117619834D01*
X115185849Y-117558700D01*
X115185848Y-117558700D01*
X115185847Y-117558699D01*
X115053018Y-117469945D01*
X114940055Y-117356982D01*
X114851301Y-117224153D01*
X114790166Y-117076560D01*
X114759000Y-116919877D01*
X114759000Y-116760123D01*
X114790166Y-116603440D01*
X114851301Y-116455847D01*
X114940055Y-116323018D01*
X115053018Y-116210055D01*
X115185847Y-116121301D01*
X115333440Y-116060166D01*
X115490122Y-116029000D01*
X115649878Y-116029000D01*
X115806560Y-116060166D01*
X115806560Y-116060166D01*
G37*
G36*
X70086560Y-116060166D02*
G01*
X70234153Y-116121301D01*
X70366982Y-116210055D01*
X70479945Y-116323018D01*
X70568699Y-116455847D01*
X70629834Y-116603440D01*
X70661000Y-116760123D01*
X70661000Y-116919877D01*
X70629834Y-117076560D01*
X70568699Y-117224153D01*
X70479945Y-117356982D01*
X70366982Y-117469945D01*
X70234153Y-117558699D01*
X70234152Y-117558700D01*
X70234151Y-117558700D01*
X70086560Y-117619834D01*
X69929878Y-117651000D01*
X69770122Y-117651000D01*
X69613440Y-117619834D01*
X69465849Y-117558700D01*
X69465848Y-117558700D01*
X69465847Y-117558699D01*
X69333018Y-117469945D01*
X69220055Y-117356982D01*
X69131301Y-117224153D01*
X69070166Y-117076560D01*
X69039000Y-116919877D01*
X69039000Y-116760123D01*
X69070166Y-116603440D01*
X69131301Y-116455847D01*
X69220055Y-116323018D01*
X69333018Y-116210055D01*
X69465847Y-116121301D01*
X69613440Y-116060166D01*
X69770122Y-116029000D01*
X69929878Y-116029000D01*
X70086560Y-116060166D01*
X70086560Y-116060166D01*
G37*
G36*
X125966560Y-116060166D02*
G01*
X126114153Y-116121301D01*
X126246982Y-116210055D01*
X126359945Y-116323018D01*
X126448699Y-116455847D01*
X126509834Y-116603440D01*
X126541000Y-116760123D01*
X126541000Y-116919877D01*
X126509834Y-117076560D01*
X126448699Y-117224153D01*
X126359945Y-117356982D01*
X126246982Y-117469945D01*
X126114153Y-117558699D01*
X126114152Y-117558700D01*
X126114151Y-117558700D01*
X125966560Y-117619834D01*
X125809878Y-117651000D01*
X125650122Y-117651000D01*
X125493440Y-117619834D01*
X125345849Y-117558700D01*
X125345848Y-117558700D01*
X125345847Y-117558699D01*
X125213018Y-117469945D01*
X125100055Y-117356982D01*
X125011301Y-117224153D01*
X124950166Y-117076560D01*
X124919000Y-116919877D01*
X124919000Y-116760123D01*
X124950166Y-116603440D01*
X125011301Y-116455847D01*
X125100055Y-116323018D01*
X125213018Y-116210055D01*
X125345847Y-116121301D01*
X125493440Y-116060166D01*
X125650122Y-116029000D01*
X125809878Y-116029000D01*
X125966560Y-116060166D01*
X125966560Y-116060166D01*
G37*
G36*
X65006560Y-116060166D02*
G01*
X65154153Y-116121301D01*
X65286982Y-116210055D01*
X65399945Y-116323018D01*
X65488699Y-116455847D01*
X65549834Y-116603440D01*
X65581000Y-116760123D01*
X65581000Y-116919877D01*
X65549834Y-117076560D01*
X65488699Y-117224153D01*
X65399945Y-117356982D01*
X65286982Y-117469945D01*
X65154153Y-117558699D01*
X65154152Y-117558700D01*
X65154151Y-117558700D01*
X65006560Y-117619834D01*
X64849878Y-117651000D01*
X64690122Y-117651000D01*
X64533440Y-117619834D01*
X64385849Y-117558700D01*
X64385848Y-117558700D01*
X64385847Y-117558699D01*
X64253018Y-117469945D01*
X64140055Y-117356982D01*
X64051301Y-117224153D01*
X63990166Y-117076560D01*
X63959000Y-116919877D01*
X63959000Y-116760123D01*
X63990166Y-116603440D01*
X64051301Y-116455847D01*
X64140055Y-116323018D01*
X64253018Y-116210055D01*
X64385847Y-116121301D01*
X64533440Y-116060166D01*
X64690122Y-116029000D01*
X64849878Y-116029000D01*
X65006560Y-116060166D01*
X65006560Y-116060166D01*
G37*
G36*
X133586560Y-116060166D02*
G01*
X133734153Y-116121301D01*
X133866982Y-116210055D01*
X133979945Y-116323018D01*
X134068699Y-116455847D01*
X134129834Y-116603440D01*
X134161000Y-116760123D01*
X134161000Y-116919877D01*
X134129834Y-117076560D01*
X134068699Y-117224153D01*
X133979945Y-117356982D01*
X133866982Y-117469945D01*
X133734153Y-117558699D01*
X133734152Y-117558700D01*
X133734151Y-117558700D01*
X133586560Y-117619834D01*
X133429878Y-117651000D01*
X133270122Y-117651000D01*
X133113440Y-117619834D01*
X132965849Y-117558700D01*
X132965848Y-117558700D01*
X132965847Y-117558699D01*
X132833018Y-117469945D01*
X132720055Y-117356982D01*
X132631301Y-117224153D01*
X132570166Y-117076560D01*
X132539000Y-116919877D01*
X132539000Y-116760123D01*
X132570166Y-116603440D01*
X132631301Y-116455847D01*
X132720055Y-116323018D01*
X132833018Y-116210055D01*
X132965847Y-116121301D01*
X133113440Y-116060166D01*
X133270122Y-116029000D01*
X133429878Y-116029000D01*
X133586560Y-116060166D01*
X133586560Y-116060166D01*
G37*
G36*
X62466560Y-116060166D02*
G01*
X62614153Y-116121301D01*
X62746982Y-116210055D01*
X62859945Y-116323018D01*
X62948699Y-116455847D01*
X63009834Y-116603440D01*
X63041000Y-116760123D01*
X63041000Y-116919877D01*
X63009834Y-117076560D01*
X62948699Y-117224153D01*
X62859945Y-117356982D01*
X62746982Y-117469945D01*
X62614153Y-117558699D01*
X62614152Y-117558700D01*
X62614151Y-117558700D01*
X62466560Y-117619834D01*
X62309878Y-117651000D01*
X62150122Y-117651000D01*
X61993440Y-117619834D01*
X61845849Y-117558700D01*
X61845848Y-117558700D01*
X61845847Y-117558699D01*
X61713018Y-117469945D01*
X61600055Y-117356982D01*
X61511301Y-117224153D01*
X61450166Y-117076560D01*
X61419000Y-116919877D01*
X61419000Y-116760123D01*
X61450166Y-116603440D01*
X61511301Y-116455847D01*
X61600055Y-116323018D01*
X61713018Y-116210055D01*
X61845847Y-116121301D01*
X61993440Y-116060166D01*
X62150122Y-116029000D01*
X62309878Y-116029000D01*
X62466560Y-116060166D01*
X62466560Y-116060166D01*
G37*
G36*
X108695142Y-105771242D02*
G01*
X108843101Y-105832529D01*
X108976255Y-105921499D01*
X109089501Y-106034745D01*
X109178471Y-106167899D01*
X109239758Y-106315858D01*
X109271000Y-106472925D01*
X109271000Y-106633075D01*
X109239758Y-106790142D01*
X109178471Y-106938101D01*
X109089501Y-107071255D01*
X108976255Y-107184501D01*
X108843101Y-107273471D01*
X108695142Y-107334758D01*
X108538075Y-107366000D01*
X108377925Y-107366000D01*
X108220858Y-107334758D01*
X108072899Y-107273471D01*
X107939745Y-107184501D01*
X107826499Y-107071255D01*
X107737529Y-106938101D01*
X107676242Y-106790142D01*
X107645000Y-106633075D01*
X107645000Y-106472925D01*
X107676242Y-106315858D01*
X107737529Y-106167899D01*
X107826499Y-106034745D01*
X107939745Y-105921499D01*
X108072899Y-105832529D01*
X108220858Y-105771242D01*
X108377925Y-105740000D01*
X108538075Y-105740000D01*
X108695142Y-105771242D01*
X108695142Y-105771242D01*
G37*
G36*
X108695142Y-103231242D02*
G01*
X108843101Y-103292529D01*
X108976255Y-103381499D01*
X109089501Y-103494745D01*
X109178471Y-103627899D01*
X109239758Y-103775858D01*
X109271000Y-103932925D01*
X109271000Y-104093075D01*
X109239758Y-104250142D01*
X109178471Y-104398101D01*
X109089501Y-104531255D01*
X108976255Y-104644501D01*
X108843101Y-104733471D01*
X108695142Y-104794758D01*
X108538075Y-104826000D01*
X108377925Y-104826000D01*
X108220858Y-104794758D01*
X108072899Y-104733471D01*
X107939745Y-104644501D01*
X107826499Y-104531255D01*
X107737529Y-104398101D01*
X107676242Y-104250142D01*
X107645000Y-104093075D01*
X107645000Y-103932925D01*
X107676242Y-103775858D01*
X107737529Y-103627899D01*
X107826499Y-103494745D01*
X107939745Y-103381499D01*
X108072899Y-103292529D01*
X108220858Y-103231242D01*
X108377925Y-103200000D01*
X108538075Y-103200000D01*
X108695142Y-103231242D01*
X108695142Y-103231242D01*
G37*
G36*
X108695142Y-100691242D02*
G01*
X108843101Y-100752529D01*
X108976255Y-100841499D01*
X109089501Y-100954745D01*
X109178471Y-101087899D01*
X109239758Y-101235858D01*
X109271000Y-101392925D01*
X109271000Y-101553075D01*
X109239758Y-101710142D01*
X109178471Y-101858101D01*
X109089501Y-101991255D01*
X108976255Y-102104501D01*
X108843101Y-102193471D01*
X108695142Y-102254758D01*
X108538075Y-102286000D01*
X108377925Y-102286000D01*
X108220858Y-102254758D01*
X108072899Y-102193471D01*
X107939745Y-102104501D01*
X107826499Y-101991255D01*
X107737529Y-101858101D01*
X107676242Y-101710142D01*
X107645000Y-101553075D01*
X107645000Y-101392925D01*
X107676242Y-101235858D01*
X107737529Y-101087899D01*
X107826499Y-100954745D01*
X107939745Y-100841499D01*
X108072899Y-100752529D01*
X108220858Y-100691242D01*
X108377925Y-100660000D01*
X108538075Y-100660000D01*
X108695142Y-100691242D01*
X108695142Y-100691242D01*
G37*
G36*
X151972908Y-93360380D02*
G01*
X152139767Y-93393570D01*
X152611299Y-93588885D01*
X152854029Y-93751073D01*
X153035666Y-93872438D01*
X153396562Y-94233334D01*
X153517927Y-94414971D01*
X153680115Y-94657701D01*
X153875430Y-95129233D01*
X153975000Y-95629809D01*
X153975000Y-96140191D01*
X153875430Y-96640767D01*
X153680115Y-97112299D01*
X153517927Y-97355029D01*
X153396562Y-97536666D01*
X153035666Y-97897562D01*
X152854029Y-98018927D01*
X152611299Y-98181115D01*
X152139767Y-98376430D01*
X151972908Y-98409620D01*
X151639193Y-98476000D01*
X151128807Y-98476000D01*
X150795092Y-98409620D01*
X150628233Y-98376430D01*
X150156701Y-98181115D01*
X149913971Y-98018927D01*
X149732334Y-97897562D01*
X149371438Y-97536666D01*
X149250073Y-97355029D01*
X149087885Y-97112299D01*
X148892570Y-96640767D01*
X148793000Y-96140191D01*
X148793000Y-95629809D01*
X148892570Y-95129233D01*
X149087885Y-94657701D01*
X149250073Y-94414971D01*
X149371438Y-94233334D01*
X149732334Y-93872438D01*
X149913971Y-93751073D01*
X150156701Y-93588885D01*
X150628233Y-93393570D01*
X150795092Y-93360380D01*
X151128807Y-93294000D01*
X151639193Y-93294000D01*
X151972908Y-93360380D01*
X151972908Y-93360380D01*
G37*
G36*
X72929000Y-89955000D02*
G01*
X72788445Y-89955000D01*
X72764059Y-89957402D01*
X72740610Y-89964515D01*
X72718999Y-89976066D01*
X72700057Y-89991611D01*
X72684512Y-90010553D01*
X72672961Y-90032164D01*
X72665848Y-90055613D01*
X72663446Y-90079999D01*
X72665848Y-90104385D01*
X72672961Y-90127834D01*
X72684512Y-90149445D01*
X72700057Y-90168387D01*
X72718999Y-90183932D01*
X72729521Y-90190238D01*
X72920555Y-90292347D01*
X73095818Y-90436182D01*
X73239653Y-90611445D01*
X73346529Y-90811398D01*
X73412346Y-91028366D01*
X73434569Y-91254000D01*
X73412346Y-91479634D01*
X73346529Y-91696602D01*
X73239653Y-91896555D01*
X73095818Y-92071818D01*
X72920555Y-92215653D01*
X72720602Y-92322529D01*
X72720600Y-92322530D01*
X72503635Y-92388346D01*
X72447271Y-92393897D01*
X72334545Y-92405000D01*
X70921455Y-92405000D01*
X70808729Y-92393897D01*
X70752365Y-92388346D01*
X70535400Y-92322530D01*
X70535398Y-92322529D01*
X70335445Y-92215653D01*
X70160182Y-92071818D01*
X70016347Y-91896555D01*
X69909471Y-91696602D01*
X69843654Y-91479634D01*
X69821431Y-91254000D01*
X69843654Y-91028366D01*
X69909471Y-90811398D01*
X70016347Y-90611445D01*
X70160182Y-90436182D01*
X70335445Y-90292347D01*
X70526479Y-90190238D01*
X70546853Y-90176625D01*
X70564180Y-90159298D01*
X70577794Y-90138923D01*
X70587172Y-90116285D01*
X70591952Y-90092251D01*
X70591952Y-90067747D01*
X70587172Y-90043714D01*
X70577794Y-90021075D01*
X70564181Y-90000701D01*
X70546854Y-89983374D01*
X70526479Y-89969760D01*
X70503841Y-89960382D01*
X70479807Y-89955602D01*
X70467555Y-89955000D01*
X70327000Y-89955000D01*
X70327000Y-88353000D01*
X72929000Y-88353000D01*
X72929000Y-89955000D01*
X72929000Y-89955000D01*
G37*
G36*
X151972908Y-85486380D02*
G01*
X152139767Y-85519570D01*
X152611299Y-85714885D01*
X152854029Y-85877073D01*
X153035666Y-85998438D01*
X153396562Y-86359334D01*
X153480376Y-86484771D01*
X153680115Y-86783701D01*
X153875430Y-87255233D01*
X153875430Y-87255234D01*
X153968501Y-87723133D01*
X153975000Y-87755809D01*
X153975000Y-88266191D01*
X153875430Y-88766767D01*
X153680115Y-89238299D01*
X153517927Y-89481029D01*
X153396562Y-89662666D01*
X153035666Y-90023562D01*
X152891853Y-90119654D01*
X152611299Y-90307115D01*
X152139767Y-90502430D01*
X151972908Y-90535620D01*
X151639193Y-90602000D01*
X151128807Y-90602000D01*
X150795092Y-90535620D01*
X150628233Y-90502430D01*
X150156701Y-90307115D01*
X149876147Y-90119654D01*
X149732334Y-90023562D01*
X149371438Y-89662666D01*
X149250073Y-89481029D01*
X149087885Y-89238299D01*
X148892570Y-88766767D01*
X148793000Y-88266191D01*
X148793000Y-87755809D01*
X148799500Y-87723133D01*
X148892570Y-87255234D01*
X148892570Y-87255233D01*
X149087885Y-86783701D01*
X149287624Y-86484771D01*
X149371438Y-86359334D01*
X149732334Y-85998438D01*
X149913971Y-85877073D01*
X150156701Y-85714885D01*
X150628233Y-85519570D01*
X150795092Y-85486380D01*
X151128807Y-85420000D01*
X151639193Y-85420000D01*
X151972908Y-85486380D01*
X151972908Y-85486380D01*
G37*
G36*
X72206571Y-86356863D02*
G01*
X72285023Y-86364590D01*
X72385682Y-86395125D01*
X72436013Y-86410392D01*
X72575165Y-86484771D01*
X72697133Y-86584867D01*
X72797229Y-86706835D01*
X72871608Y-86845987D01*
X72871608Y-86845988D01*
X72917410Y-86996977D01*
X72932875Y-87154000D01*
X72917410Y-87311023D01*
X72886875Y-87411682D01*
X72871608Y-87462013D01*
X72797229Y-87601165D01*
X72697133Y-87723133D01*
X72575165Y-87823229D01*
X72436013Y-87897608D01*
X72385682Y-87912875D01*
X72285023Y-87943410D01*
X72206571Y-87951137D01*
X72167346Y-87955000D01*
X71088654Y-87955000D01*
X71049429Y-87951137D01*
X70970977Y-87943410D01*
X70870318Y-87912875D01*
X70819987Y-87897608D01*
X70680835Y-87823229D01*
X70558867Y-87723133D01*
X70458771Y-87601165D01*
X70384392Y-87462013D01*
X70369125Y-87411682D01*
X70338590Y-87311023D01*
X70323125Y-87154000D01*
X70338590Y-86996977D01*
X70384392Y-86845988D01*
X70384392Y-86845987D01*
X70458771Y-86706835D01*
X70558867Y-86584867D01*
X70680835Y-86484771D01*
X70819987Y-86410392D01*
X70870318Y-86395125D01*
X70970977Y-86364590D01*
X71049429Y-86356863D01*
X71088654Y-86353000D01*
X72167346Y-86353000D01*
X72206571Y-86356863D01*
X72206571Y-86356863D01*
G37*
G36*
X72447271Y-81914103D02*
G01*
X72503635Y-81919654D01*
X72720600Y-81985470D01*
X72720602Y-81985471D01*
X72920555Y-82092347D01*
X73095818Y-82236182D01*
X73239653Y-82411445D01*
X73346529Y-82611398D01*
X73412346Y-82828366D01*
X73434569Y-83054000D01*
X73412346Y-83279634D01*
X73346529Y-83496602D01*
X73239653Y-83696555D01*
X73095818Y-83871818D01*
X72920555Y-84015653D01*
X72720602Y-84122529D01*
X72720600Y-84122530D01*
X72503635Y-84188346D01*
X72503631Y-84188346D01*
X72501516Y-84188988D01*
X72481803Y-84192909D01*
X72459164Y-84202285D01*
X72438790Y-84215899D01*
X72421462Y-84233225D01*
X72407848Y-84253599D01*
X72398470Y-84276238D01*
X72393689Y-84300271D01*
X72393689Y-84324775D01*
X72398469Y-84348809D01*
X72407845Y-84371448D01*
X72421459Y-84391822D01*
X72438785Y-84409150D01*
X72459161Y-84422765D01*
X72575165Y-84484771D01*
X72697133Y-84584867D01*
X72797229Y-84706835D01*
X72871608Y-84845987D01*
X72871608Y-84845988D01*
X72917410Y-84996977D01*
X72932875Y-85154000D01*
X72917410Y-85311023D01*
X72886875Y-85411682D01*
X72871608Y-85462013D01*
X72797229Y-85601165D01*
X72697133Y-85723133D01*
X72575165Y-85823229D01*
X72436013Y-85897608D01*
X72385682Y-85912875D01*
X72285023Y-85943410D01*
X72206571Y-85951137D01*
X72167346Y-85955000D01*
X71088654Y-85955000D01*
X71049429Y-85951137D01*
X70970977Y-85943410D01*
X70870318Y-85912875D01*
X70819987Y-85897608D01*
X70680835Y-85823229D01*
X70558867Y-85723133D01*
X70458771Y-85601165D01*
X70384392Y-85462013D01*
X70369125Y-85411682D01*
X70338590Y-85311023D01*
X70323125Y-85154000D01*
X70338590Y-84996977D01*
X70384392Y-84845988D01*
X70384392Y-84845987D01*
X70458771Y-84706835D01*
X70558867Y-84584867D01*
X70680835Y-84484771D01*
X70796839Y-84422765D01*
X70817213Y-84409151D01*
X70834540Y-84391824D01*
X70848154Y-84371450D01*
X70857531Y-84348811D01*
X70862311Y-84324777D01*
X70862311Y-84300273D01*
X70857530Y-84276240D01*
X70848153Y-84253601D01*
X70834539Y-84233227D01*
X70817212Y-84215900D01*
X70796838Y-84202286D01*
X70774199Y-84192909D01*
X70754484Y-84188988D01*
X70752369Y-84188346D01*
X70752365Y-84188346D01*
X70535400Y-84122530D01*
X70535398Y-84122529D01*
X70335445Y-84015653D01*
X70160182Y-83871818D01*
X70016347Y-83696555D01*
X69909471Y-83496602D01*
X69843654Y-83279634D01*
X69821431Y-83054000D01*
X69843654Y-82828366D01*
X69909471Y-82611398D01*
X70016347Y-82411445D01*
X70160182Y-82236182D01*
X70335445Y-82092347D01*
X70535398Y-81985471D01*
X70535400Y-81985470D01*
X70752365Y-81919654D01*
X70808729Y-81914103D01*
X70921455Y-81903000D01*
X72334545Y-81903000D01*
X72447271Y-81914103D01*
X72447271Y-81914103D01*
G37*
G36*
X151972908Y-77612380D02*
G01*
X152139767Y-77645570D01*
X152611299Y-77840885D01*
X152854029Y-78003073D01*
X153035666Y-78124438D01*
X153396562Y-78485334D01*
X153403860Y-78496257D01*
X153680115Y-78909701D01*
X153875430Y-79381233D01*
X153975000Y-79881809D01*
X153975000Y-80392191D01*
X153875430Y-80892767D01*
X153680115Y-81364299D01*
X153517927Y-81607029D01*
X153396562Y-81788666D01*
X153035666Y-82149562D01*
X152906029Y-82236182D01*
X152611299Y-82433115D01*
X152139767Y-82628430D01*
X151972908Y-82661620D01*
X151639193Y-82728000D01*
X151128807Y-82728000D01*
X150795092Y-82661620D01*
X150628233Y-82628430D01*
X150156701Y-82433115D01*
X149861971Y-82236182D01*
X149732334Y-82149562D01*
X149371438Y-81788666D01*
X149250073Y-81607029D01*
X149087885Y-81364299D01*
X148892570Y-80892767D01*
X148793000Y-80392191D01*
X148793000Y-79881809D01*
X148892570Y-79381233D01*
X149087885Y-78909701D01*
X149364140Y-78496257D01*
X149371438Y-78485334D01*
X149732334Y-78124438D01*
X149913971Y-78003073D01*
X150156701Y-77840885D01*
X150628233Y-77645570D01*
X150795092Y-77612380D01*
X151128807Y-77546000D01*
X151639193Y-77546000D01*
X151972908Y-77612380D01*
X151972908Y-77612380D01*
G37*
G36*
X97773142Y-77196242D02*
G01*
X97921101Y-77257529D01*
X98054255Y-77346499D01*
X98167501Y-77459745D01*
X98256471Y-77592899D01*
X98317758Y-77740858D01*
X98349000Y-77897925D01*
X98349000Y-78058075D01*
X98317758Y-78215142D01*
X98256471Y-78363101D01*
X98167501Y-78496255D01*
X98054255Y-78609501D01*
X97921101Y-78698471D01*
X97773142Y-78759758D01*
X97616075Y-78791000D01*
X97455925Y-78791000D01*
X97298858Y-78759758D01*
X97150899Y-78698471D01*
X97017745Y-78609501D01*
X96904499Y-78496255D01*
X96815529Y-78363101D01*
X96754242Y-78215142D01*
X96723000Y-78058075D01*
X96723000Y-77897925D01*
X96754242Y-77740858D01*
X96815529Y-77592899D01*
X96904499Y-77459745D01*
X97017745Y-77346499D01*
X97150899Y-77257529D01*
X97298858Y-77196242D01*
X97455925Y-77165000D01*
X97616075Y-77165000D01*
X97773142Y-77196242D01*
X97773142Y-77196242D01*
G37*
G36*
X100313142Y-77196242D02*
G01*
X100461101Y-77257529D01*
X100594255Y-77346499D01*
X100707501Y-77459745D01*
X100796471Y-77592899D01*
X100857758Y-77740858D01*
X100889000Y-77897925D01*
X100889000Y-78058075D01*
X100857758Y-78215142D01*
X100796471Y-78363101D01*
X100707501Y-78496255D01*
X100594255Y-78609501D01*
X100461101Y-78698471D01*
X100313142Y-78759758D01*
X100156075Y-78791000D01*
X99995925Y-78791000D01*
X99838858Y-78759758D01*
X99690899Y-78698471D01*
X99557745Y-78609501D01*
X99444499Y-78496255D01*
X99355529Y-78363101D01*
X99294242Y-78215142D01*
X99263000Y-78058075D01*
X99263000Y-77897925D01*
X99294242Y-77740858D01*
X99355529Y-77592899D01*
X99444499Y-77459745D01*
X99557745Y-77346499D01*
X99690899Y-77257529D01*
X99838858Y-77196242D01*
X99995925Y-77165000D01*
X100156075Y-77165000D01*
X100313142Y-77196242D01*
X100313142Y-77196242D01*
G37*
G36*
X102853142Y-77196242D02*
G01*
X103001101Y-77257529D01*
X103134255Y-77346499D01*
X103247501Y-77459745D01*
X103336471Y-77592899D01*
X103397758Y-77740858D01*
X103429000Y-77897925D01*
X103429000Y-78058075D01*
X103397758Y-78215142D01*
X103336471Y-78363101D01*
X103247501Y-78496255D01*
X103134255Y-78609501D01*
X103001101Y-78698471D01*
X102853142Y-78759758D01*
X102696075Y-78791000D01*
X102535925Y-78791000D01*
X102378858Y-78759758D01*
X102230899Y-78698471D01*
X102097745Y-78609501D01*
X101984499Y-78496255D01*
X101895529Y-78363101D01*
X101834242Y-78215142D01*
X101803000Y-78058075D01*
X101803000Y-77897925D01*
X101834242Y-77740858D01*
X101895529Y-77592899D01*
X101984499Y-77459745D01*
X102097745Y-77346499D01*
X102230899Y-77257529D01*
X102378858Y-77196242D01*
X102535925Y-77165000D01*
X102696075Y-77165000D01*
X102853142Y-77196242D01*
X102853142Y-77196242D01*
G37*
G36*
X87105142Y-77196242D02*
G01*
X87253101Y-77257529D01*
X87386255Y-77346499D01*
X87499501Y-77459745D01*
X87588471Y-77592899D01*
X87649758Y-77740858D01*
X87681000Y-77897925D01*
X87681000Y-78058075D01*
X87649758Y-78215142D01*
X87588471Y-78363101D01*
X87499501Y-78496255D01*
X87386255Y-78609501D01*
X87253101Y-78698471D01*
X87105142Y-78759758D01*
X86948075Y-78791000D01*
X86787925Y-78791000D01*
X86630858Y-78759758D01*
X86482899Y-78698471D01*
X86349745Y-78609501D01*
X86236499Y-78496255D01*
X86147529Y-78363101D01*
X86086242Y-78215142D01*
X86055000Y-78058075D01*
X86055000Y-77897925D01*
X86086242Y-77740858D01*
X86147529Y-77592899D01*
X86236499Y-77459745D01*
X86349745Y-77346499D01*
X86482899Y-77257529D01*
X86630858Y-77196242D01*
X86787925Y-77165000D01*
X86948075Y-77165000D01*
X87105142Y-77196242D01*
X87105142Y-77196242D01*
G37*
G36*
X89645142Y-77196242D02*
G01*
X89793101Y-77257529D01*
X89926255Y-77346499D01*
X90039501Y-77459745D01*
X90128471Y-77592899D01*
X90189758Y-77740858D01*
X90221000Y-77897925D01*
X90221000Y-78058075D01*
X90189758Y-78215142D01*
X90128471Y-78363101D01*
X90039501Y-78496255D01*
X89926255Y-78609501D01*
X89793101Y-78698471D01*
X89645142Y-78759758D01*
X89488075Y-78791000D01*
X89327925Y-78791000D01*
X89170858Y-78759758D01*
X89022899Y-78698471D01*
X88889745Y-78609501D01*
X88776499Y-78496255D01*
X88687529Y-78363101D01*
X88626242Y-78215142D01*
X88595000Y-78058075D01*
X88595000Y-77897925D01*
X88626242Y-77740858D01*
X88687529Y-77592899D01*
X88776499Y-77459745D01*
X88889745Y-77346499D01*
X89022899Y-77257529D01*
X89170858Y-77196242D01*
X89327925Y-77165000D01*
X89488075Y-77165000D01*
X89645142Y-77196242D01*
X89645142Y-77196242D01*
G37*
G36*
X92185142Y-77196242D02*
G01*
X92333101Y-77257529D01*
X92466255Y-77346499D01*
X92579501Y-77459745D01*
X92668471Y-77592899D01*
X92729758Y-77740858D01*
X92761000Y-77897925D01*
X92761000Y-78058075D01*
X92729758Y-78215142D01*
X92668471Y-78363101D01*
X92579501Y-78496255D01*
X92466255Y-78609501D01*
X92333101Y-78698471D01*
X92185142Y-78759758D01*
X92028075Y-78791000D01*
X91867925Y-78791000D01*
X91710858Y-78759758D01*
X91562899Y-78698471D01*
X91429745Y-78609501D01*
X91316499Y-78496255D01*
X91227529Y-78363101D01*
X91166242Y-78215142D01*
X91135000Y-78058075D01*
X91135000Y-77897925D01*
X91166242Y-77740858D01*
X91227529Y-77592899D01*
X91316499Y-77459745D01*
X91429745Y-77346499D01*
X91562899Y-77257529D01*
X91710858Y-77196242D01*
X91867925Y-77165000D01*
X92028075Y-77165000D01*
X92185142Y-77196242D01*
X92185142Y-77196242D01*
G37*
G36*
X131046560Y-75420166D02*
G01*
X131194153Y-75481301D01*
X131326982Y-75570055D01*
X131439945Y-75683018D01*
X131528699Y-75815847D01*
X131589834Y-75963440D01*
X131621000Y-76120123D01*
X131621000Y-76279877D01*
X131589834Y-76436560D01*
X131528699Y-76584153D01*
X131439945Y-76716982D01*
X131326982Y-76829945D01*
X131194153Y-76918699D01*
X131194152Y-76918700D01*
X131194151Y-76918700D01*
X131046560Y-76979834D01*
X130889878Y-77011000D01*
X130730122Y-77011000D01*
X130573440Y-76979834D01*
X130425849Y-76918700D01*
X130425848Y-76918700D01*
X130425847Y-76918699D01*
X130293018Y-76829945D01*
X130180055Y-76716982D01*
X130091301Y-76584153D01*
X130030166Y-76436560D01*
X129999000Y-76279877D01*
X129999000Y-76120123D01*
X130030166Y-75963440D01*
X130091301Y-75815847D01*
X130180055Y-75683018D01*
X130293018Y-75570055D01*
X130425847Y-75481301D01*
X130573440Y-75420166D01*
X130730122Y-75389000D01*
X130889878Y-75389000D01*
X131046560Y-75420166D01*
X131046560Y-75420166D01*
G37*
G36*
X128506560Y-75420166D02*
G01*
X128654153Y-75481301D01*
X128786982Y-75570055D01*
X128899945Y-75683018D01*
X128988699Y-75815847D01*
X129049834Y-75963440D01*
X129081000Y-76120123D01*
X129081000Y-76279877D01*
X129049834Y-76436560D01*
X128988699Y-76584153D01*
X128899945Y-76716982D01*
X128786982Y-76829945D01*
X128654153Y-76918699D01*
X128654152Y-76918700D01*
X128654151Y-76918700D01*
X128506560Y-76979834D01*
X128349878Y-77011000D01*
X128190122Y-77011000D01*
X128033440Y-76979834D01*
X127885849Y-76918700D01*
X127885848Y-76918700D01*
X127885847Y-76918699D01*
X127753018Y-76829945D01*
X127640055Y-76716982D01*
X127551301Y-76584153D01*
X127490166Y-76436560D01*
X127459000Y-76279877D01*
X127459000Y-76120123D01*
X127490166Y-75963440D01*
X127551301Y-75815847D01*
X127640055Y-75683018D01*
X127753018Y-75570055D01*
X127885847Y-75481301D01*
X128033440Y-75420166D01*
X128190122Y-75389000D01*
X128349878Y-75389000D01*
X128506560Y-75420166D01*
X128506560Y-75420166D01*
G37*
G36*
X125966560Y-75420166D02*
G01*
X126114153Y-75481301D01*
X126246982Y-75570055D01*
X126359945Y-75683018D01*
X126448699Y-75815847D01*
X126509834Y-75963440D01*
X126541000Y-76120123D01*
X126541000Y-76279877D01*
X126509834Y-76436560D01*
X126448699Y-76584153D01*
X126359945Y-76716982D01*
X126246982Y-76829945D01*
X126114153Y-76918699D01*
X126114152Y-76918700D01*
X126114151Y-76918700D01*
X125966560Y-76979834D01*
X125809878Y-77011000D01*
X125650122Y-77011000D01*
X125493440Y-76979834D01*
X125345849Y-76918700D01*
X125345848Y-76918700D01*
X125345847Y-76918699D01*
X125213018Y-76829945D01*
X125100055Y-76716982D01*
X125011301Y-76584153D01*
X124950166Y-76436560D01*
X124919000Y-76279877D01*
X124919000Y-76120123D01*
X124950166Y-75963440D01*
X125011301Y-75815847D01*
X125100055Y-75683018D01*
X125213018Y-75570055D01*
X125345847Y-75481301D01*
X125493440Y-75420166D01*
X125650122Y-75389000D01*
X125809878Y-75389000D01*
X125966560Y-75420166D01*
X125966560Y-75420166D01*
G37*
G36*
X123426560Y-75420166D02*
G01*
X123574153Y-75481301D01*
X123706982Y-75570055D01*
X123819945Y-75683018D01*
X123908699Y-75815847D01*
X123969834Y-75963440D01*
X124001000Y-76120123D01*
X124001000Y-76279877D01*
X123969834Y-76436560D01*
X123908699Y-76584153D01*
X123819945Y-76716982D01*
X123706982Y-76829945D01*
X123574153Y-76918699D01*
X123574152Y-76918700D01*
X123574151Y-76918700D01*
X123426560Y-76979834D01*
X123269878Y-77011000D01*
X123110122Y-77011000D01*
X122953440Y-76979834D01*
X122805849Y-76918700D01*
X122805848Y-76918700D01*
X122805847Y-76918699D01*
X122673018Y-76829945D01*
X122560055Y-76716982D01*
X122471301Y-76584153D01*
X122410166Y-76436560D01*
X122379000Y-76279877D01*
X122379000Y-76120123D01*
X122410166Y-75963440D01*
X122471301Y-75815847D01*
X122560055Y-75683018D01*
X122673018Y-75570055D01*
X122805847Y-75481301D01*
X122953440Y-75420166D01*
X123110122Y-75389000D01*
X123269878Y-75389000D01*
X123426560Y-75420166D01*
X123426560Y-75420166D01*
G37*
G36*
X120886560Y-75420166D02*
G01*
X121034153Y-75481301D01*
X121166982Y-75570055D01*
X121279945Y-75683018D01*
X121368699Y-75815847D01*
X121429834Y-75963440D01*
X121461000Y-76120123D01*
X121461000Y-76279877D01*
X121429834Y-76436560D01*
X121368699Y-76584153D01*
X121279945Y-76716982D01*
X121166982Y-76829945D01*
X121034153Y-76918699D01*
X121034152Y-76918700D01*
X121034151Y-76918700D01*
X120886560Y-76979834D01*
X120729878Y-77011000D01*
X120570122Y-77011000D01*
X120413440Y-76979834D01*
X120265849Y-76918700D01*
X120265848Y-76918700D01*
X120265847Y-76918699D01*
X120133018Y-76829945D01*
X120020055Y-76716982D01*
X119931301Y-76584153D01*
X119870166Y-76436560D01*
X119839000Y-76279877D01*
X119839000Y-76120123D01*
X119870166Y-75963440D01*
X119931301Y-75815847D01*
X120020055Y-75683018D01*
X120133018Y-75570055D01*
X120265847Y-75481301D01*
X120413440Y-75420166D01*
X120570122Y-75389000D01*
X120729878Y-75389000D01*
X120886560Y-75420166D01*
X120886560Y-75420166D01*
G37*
G36*
X118346560Y-75420166D02*
G01*
X118494153Y-75481301D01*
X118626982Y-75570055D01*
X118739945Y-75683018D01*
X118828699Y-75815847D01*
X118889834Y-75963440D01*
X118921000Y-76120123D01*
X118921000Y-76279877D01*
X118889834Y-76436560D01*
X118828699Y-76584153D01*
X118739945Y-76716982D01*
X118626982Y-76829945D01*
X118494153Y-76918699D01*
X118494152Y-76918700D01*
X118494151Y-76918700D01*
X118346560Y-76979834D01*
X118189878Y-77011000D01*
X118030122Y-77011000D01*
X117873440Y-76979834D01*
X117725849Y-76918700D01*
X117725848Y-76918700D01*
X117725847Y-76918699D01*
X117593018Y-76829945D01*
X117480055Y-76716982D01*
X117391301Y-76584153D01*
X117330166Y-76436560D01*
X117299000Y-76279877D01*
X117299000Y-76120123D01*
X117330166Y-75963440D01*
X117391301Y-75815847D01*
X117480055Y-75683018D01*
X117593018Y-75570055D01*
X117725847Y-75481301D01*
X117873440Y-75420166D01*
X118030122Y-75389000D01*
X118189878Y-75389000D01*
X118346560Y-75420166D01*
X118346560Y-75420166D01*
G37*
G36*
X115806560Y-75420166D02*
G01*
X115954153Y-75481301D01*
X116086982Y-75570055D01*
X116199945Y-75683018D01*
X116288699Y-75815847D01*
X116349834Y-75963440D01*
X116381000Y-76120123D01*
X116381000Y-76279877D01*
X116349834Y-76436560D01*
X116288699Y-76584153D01*
X116199945Y-76716982D01*
X116086982Y-76829945D01*
X115954153Y-76918699D01*
X115954152Y-76918700D01*
X115954151Y-76918700D01*
X115806560Y-76979834D01*
X115649878Y-77011000D01*
X115490122Y-77011000D01*
X115333440Y-76979834D01*
X115185849Y-76918700D01*
X115185848Y-76918700D01*
X115185847Y-76918699D01*
X115053018Y-76829945D01*
X114940055Y-76716982D01*
X114851301Y-76584153D01*
X114790166Y-76436560D01*
X114759000Y-76279877D01*
X114759000Y-76120123D01*
X114790166Y-75963440D01*
X114851301Y-75815847D01*
X114940055Y-75683018D01*
X115053018Y-75570055D01*
X115185847Y-75481301D01*
X115333440Y-75420166D01*
X115490122Y-75389000D01*
X115649878Y-75389000D01*
X115806560Y-75420166D01*
X115806560Y-75420166D01*
G37*
G36*
X113266560Y-75420166D02*
G01*
X113414153Y-75481301D01*
X113546982Y-75570055D01*
X113659945Y-75683018D01*
X113748699Y-75815847D01*
X113809834Y-75963440D01*
X113841000Y-76120123D01*
X113841000Y-76279877D01*
X113809834Y-76436560D01*
X113748699Y-76584153D01*
X113659945Y-76716982D01*
X113546982Y-76829945D01*
X113414153Y-76918699D01*
X113414152Y-76918700D01*
X113414151Y-76918700D01*
X113266560Y-76979834D01*
X113109878Y-77011000D01*
X112950122Y-77011000D01*
X112793440Y-76979834D01*
X112645849Y-76918700D01*
X112645848Y-76918700D01*
X112645847Y-76918699D01*
X112513018Y-76829945D01*
X112400055Y-76716982D01*
X112311301Y-76584153D01*
X112250166Y-76436560D01*
X112219000Y-76279877D01*
X112219000Y-76120123D01*
X112250166Y-75963440D01*
X112311301Y-75815847D01*
X112400055Y-75683018D01*
X112513018Y-75570055D01*
X112645847Y-75481301D01*
X112793440Y-75420166D01*
X112950122Y-75389000D01*
X113109878Y-75389000D01*
X113266560Y-75420166D01*
X113266560Y-75420166D01*
G37*
G36*
X54846560Y-75420166D02*
G01*
X54994153Y-75481301D01*
X55126982Y-75570055D01*
X55239945Y-75683018D01*
X55328699Y-75815847D01*
X55389834Y-75963440D01*
X55421000Y-76120123D01*
X55421000Y-76279877D01*
X55389834Y-76436560D01*
X55328699Y-76584153D01*
X55239945Y-76716982D01*
X55126982Y-76829945D01*
X54994153Y-76918699D01*
X54994152Y-76918700D01*
X54994151Y-76918700D01*
X54846560Y-76979834D01*
X54689878Y-77011000D01*
X54530122Y-77011000D01*
X54373440Y-76979834D01*
X54225849Y-76918700D01*
X54225848Y-76918700D01*
X54225847Y-76918699D01*
X54093018Y-76829945D01*
X53980055Y-76716982D01*
X53891301Y-76584153D01*
X53830166Y-76436560D01*
X53799000Y-76279877D01*
X53799000Y-76120123D01*
X53830166Y-75963440D01*
X53891301Y-75815847D01*
X53980055Y-75683018D01*
X54093018Y-75570055D01*
X54225847Y-75481301D01*
X54373440Y-75420166D01*
X54530122Y-75389000D01*
X54689878Y-75389000D01*
X54846560Y-75420166D01*
X54846560Y-75420166D01*
G37*
G36*
X70086560Y-75420166D02*
G01*
X70234153Y-75481301D01*
X70366982Y-75570055D01*
X70479945Y-75683018D01*
X70568699Y-75815847D01*
X70629834Y-75963440D01*
X70661000Y-76120123D01*
X70661000Y-76279877D01*
X70629834Y-76436560D01*
X70568699Y-76584153D01*
X70479945Y-76716982D01*
X70366982Y-76829945D01*
X70234153Y-76918699D01*
X70234152Y-76918700D01*
X70234151Y-76918700D01*
X70086560Y-76979834D01*
X69929878Y-77011000D01*
X69770122Y-77011000D01*
X69613440Y-76979834D01*
X69465849Y-76918700D01*
X69465848Y-76918700D01*
X69465847Y-76918699D01*
X69333018Y-76829945D01*
X69220055Y-76716982D01*
X69131301Y-76584153D01*
X69070166Y-76436560D01*
X69039000Y-76279877D01*
X69039000Y-76120123D01*
X69070166Y-75963440D01*
X69131301Y-75815847D01*
X69220055Y-75683018D01*
X69333018Y-75570055D01*
X69465847Y-75481301D01*
X69613440Y-75420166D01*
X69770122Y-75389000D01*
X69929878Y-75389000D01*
X70086560Y-75420166D01*
X70086560Y-75420166D01*
G37*
G36*
X49766560Y-75420166D02*
G01*
X49914153Y-75481301D01*
X50046982Y-75570055D01*
X50159945Y-75683018D01*
X50248699Y-75815847D01*
X50309834Y-75963440D01*
X50341000Y-76120123D01*
X50341000Y-76279877D01*
X50309834Y-76436560D01*
X50248699Y-76584153D01*
X50159945Y-76716982D01*
X50046982Y-76829945D01*
X49914153Y-76918699D01*
X49914152Y-76918700D01*
X49914151Y-76918700D01*
X49766560Y-76979834D01*
X49609878Y-77011000D01*
X49450122Y-77011000D01*
X49293440Y-76979834D01*
X49145849Y-76918700D01*
X49145848Y-76918700D01*
X49145847Y-76918699D01*
X49013018Y-76829945D01*
X48900055Y-76716982D01*
X48811301Y-76584153D01*
X48750166Y-76436560D01*
X48719000Y-76279877D01*
X48719000Y-76120123D01*
X48750166Y-75963440D01*
X48811301Y-75815847D01*
X48900055Y-75683018D01*
X49013018Y-75570055D01*
X49145847Y-75481301D01*
X49293440Y-75420166D01*
X49450122Y-75389000D01*
X49609878Y-75389000D01*
X49766560Y-75420166D01*
X49766560Y-75420166D01*
G37*
G36*
X133586560Y-75420166D02*
G01*
X133734153Y-75481301D01*
X133866982Y-75570055D01*
X133979945Y-75683018D01*
X134068699Y-75815847D01*
X134129834Y-75963440D01*
X134161000Y-76120123D01*
X134161000Y-76279877D01*
X134129834Y-76436560D01*
X134068699Y-76584153D01*
X133979945Y-76716982D01*
X133866982Y-76829945D01*
X133734153Y-76918699D01*
X133734152Y-76918700D01*
X133734151Y-76918700D01*
X133586560Y-76979834D01*
X133429878Y-77011000D01*
X133270122Y-77011000D01*
X133113440Y-76979834D01*
X132965849Y-76918700D01*
X132965848Y-76918700D01*
X132965847Y-76918699D01*
X132833018Y-76829945D01*
X132720055Y-76716982D01*
X132631301Y-76584153D01*
X132570166Y-76436560D01*
X132539000Y-76279877D01*
X132539000Y-76120123D01*
X132570166Y-75963440D01*
X132631301Y-75815847D01*
X132720055Y-75683018D01*
X132833018Y-75570055D01*
X132965847Y-75481301D01*
X133113440Y-75420166D01*
X133270122Y-75389000D01*
X133429878Y-75389000D01*
X133586560Y-75420166D01*
X133586560Y-75420166D01*
G37*
G36*
X47226560Y-75420166D02*
G01*
X47374153Y-75481301D01*
X47506982Y-75570055D01*
X47619945Y-75683018D01*
X47708699Y-75815847D01*
X47769834Y-75963440D01*
X47801000Y-76120123D01*
X47801000Y-76279877D01*
X47769834Y-76436560D01*
X47708699Y-76584153D01*
X47619945Y-76716982D01*
X47506982Y-76829945D01*
X47374153Y-76918699D01*
X47374152Y-76918700D01*
X47374151Y-76918700D01*
X47226560Y-76979834D01*
X47069878Y-77011000D01*
X46910122Y-77011000D01*
X46753440Y-76979834D01*
X46605849Y-76918700D01*
X46605848Y-76918700D01*
X46605847Y-76918699D01*
X46473018Y-76829945D01*
X46360055Y-76716982D01*
X46271301Y-76584153D01*
X46210166Y-76436560D01*
X46179000Y-76279877D01*
X46179000Y-76120123D01*
X46210166Y-75963440D01*
X46271301Y-75815847D01*
X46360055Y-75683018D01*
X46473018Y-75570055D01*
X46605847Y-75481301D01*
X46753440Y-75420166D01*
X46910122Y-75389000D01*
X47069878Y-75389000D01*
X47226560Y-75420166D01*
X47226560Y-75420166D01*
G37*
G36*
X110726560Y-75420166D02*
G01*
X110874153Y-75481301D01*
X111006982Y-75570055D01*
X111119945Y-75683018D01*
X111208699Y-75815847D01*
X111269834Y-75963440D01*
X111301000Y-76120123D01*
X111301000Y-76279877D01*
X111269834Y-76436560D01*
X111208699Y-76584153D01*
X111119945Y-76716982D01*
X111006982Y-76829945D01*
X110874153Y-76918699D01*
X110874152Y-76918700D01*
X110874151Y-76918700D01*
X110726560Y-76979834D01*
X110569878Y-77011000D01*
X110410122Y-77011000D01*
X110253440Y-76979834D01*
X110105849Y-76918700D01*
X110105848Y-76918700D01*
X110105847Y-76918699D01*
X109973018Y-76829945D01*
X109860055Y-76716982D01*
X109771301Y-76584153D01*
X109710166Y-76436560D01*
X109679000Y-76279877D01*
X109679000Y-76120123D01*
X109710166Y-75963440D01*
X109771301Y-75815847D01*
X109860055Y-75683018D01*
X109973018Y-75570055D01*
X110105847Y-75481301D01*
X110253440Y-75420166D01*
X110410122Y-75389000D01*
X110569878Y-75389000D01*
X110726560Y-75420166D01*
X110726560Y-75420166D01*
G37*
G36*
X67546560Y-75420166D02*
G01*
X67694153Y-75481301D01*
X67826982Y-75570055D01*
X67939945Y-75683018D01*
X68028699Y-75815847D01*
X68089834Y-75963440D01*
X68121000Y-76120123D01*
X68121000Y-76279877D01*
X68089834Y-76436560D01*
X68028699Y-76584153D01*
X67939945Y-76716982D01*
X67826982Y-76829945D01*
X67694153Y-76918699D01*
X67694152Y-76918700D01*
X67694151Y-76918700D01*
X67546560Y-76979834D01*
X67389878Y-77011000D01*
X67230122Y-77011000D01*
X67073440Y-76979834D01*
X66925849Y-76918700D01*
X66925848Y-76918700D01*
X66925847Y-76918699D01*
X66793018Y-76829945D01*
X66680055Y-76716982D01*
X66591301Y-76584153D01*
X66530166Y-76436560D01*
X66499000Y-76279877D01*
X66499000Y-76120123D01*
X66530166Y-75963440D01*
X66591301Y-75815847D01*
X66680055Y-75683018D01*
X66793018Y-75570055D01*
X66925847Y-75481301D01*
X67073440Y-75420166D01*
X67230122Y-75389000D01*
X67389878Y-75389000D01*
X67546560Y-75420166D01*
X67546560Y-75420166D01*
G37*
G36*
X65006560Y-75420166D02*
G01*
X65154153Y-75481301D01*
X65286982Y-75570055D01*
X65399945Y-75683018D01*
X65488699Y-75815847D01*
X65549834Y-75963440D01*
X65581000Y-76120123D01*
X65581000Y-76279877D01*
X65549834Y-76436560D01*
X65488699Y-76584153D01*
X65399945Y-76716982D01*
X65286982Y-76829945D01*
X65154153Y-76918699D01*
X65154152Y-76918700D01*
X65154151Y-76918700D01*
X65006560Y-76979834D01*
X64849878Y-77011000D01*
X64690122Y-77011000D01*
X64533440Y-76979834D01*
X64385849Y-76918700D01*
X64385848Y-76918700D01*
X64385847Y-76918699D01*
X64253018Y-76829945D01*
X64140055Y-76716982D01*
X64051301Y-76584153D01*
X63990166Y-76436560D01*
X63959000Y-76279877D01*
X63959000Y-76120123D01*
X63990166Y-75963440D01*
X64051301Y-75815847D01*
X64140055Y-75683018D01*
X64253018Y-75570055D01*
X64385847Y-75481301D01*
X64533440Y-75420166D01*
X64690122Y-75389000D01*
X64849878Y-75389000D01*
X65006560Y-75420166D01*
X65006560Y-75420166D01*
G37*
G36*
X62466560Y-75420166D02*
G01*
X62614153Y-75481301D01*
X62746982Y-75570055D01*
X62859945Y-75683018D01*
X62948699Y-75815847D01*
X63009834Y-75963440D01*
X63041000Y-76120123D01*
X63041000Y-76279877D01*
X63009834Y-76436560D01*
X62948699Y-76584153D01*
X62859945Y-76716982D01*
X62746982Y-76829945D01*
X62614153Y-76918699D01*
X62614152Y-76918700D01*
X62614151Y-76918700D01*
X62466560Y-76979834D01*
X62309878Y-77011000D01*
X62150122Y-77011000D01*
X61993440Y-76979834D01*
X61845849Y-76918700D01*
X61845848Y-76918700D01*
X61845847Y-76918699D01*
X61713018Y-76829945D01*
X61600055Y-76716982D01*
X61511301Y-76584153D01*
X61450166Y-76436560D01*
X61419000Y-76279877D01*
X61419000Y-76120123D01*
X61450166Y-75963440D01*
X61511301Y-75815847D01*
X61600055Y-75683018D01*
X61713018Y-75570055D01*
X61845847Y-75481301D01*
X61993440Y-75420166D01*
X62150122Y-75389000D01*
X62309878Y-75389000D01*
X62466560Y-75420166D01*
X62466560Y-75420166D01*
G37*
G36*
X59926560Y-75420166D02*
G01*
X60074153Y-75481301D01*
X60206982Y-75570055D01*
X60319945Y-75683018D01*
X60408699Y-75815847D01*
X60469834Y-75963440D01*
X60501000Y-76120123D01*
X60501000Y-76279877D01*
X60469834Y-76436560D01*
X60408699Y-76584153D01*
X60319945Y-76716982D01*
X60206982Y-76829945D01*
X60074153Y-76918699D01*
X60074152Y-76918700D01*
X60074151Y-76918700D01*
X59926560Y-76979834D01*
X59769878Y-77011000D01*
X59610122Y-77011000D01*
X59453440Y-76979834D01*
X59305849Y-76918700D01*
X59305848Y-76918700D01*
X59305847Y-76918699D01*
X59173018Y-76829945D01*
X59060055Y-76716982D01*
X58971301Y-76584153D01*
X58910166Y-76436560D01*
X58879000Y-76279877D01*
X58879000Y-76120123D01*
X58910166Y-75963440D01*
X58971301Y-75815847D01*
X59060055Y-75683018D01*
X59173018Y-75570055D01*
X59305847Y-75481301D01*
X59453440Y-75420166D01*
X59610122Y-75389000D01*
X59769878Y-75389000D01*
X59926560Y-75420166D01*
X59926560Y-75420166D01*
G37*
G36*
X57386560Y-75420166D02*
G01*
X57534153Y-75481301D01*
X57666982Y-75570055D01*
X57779945Y-75683018D01*
X57868699Y-75815847D01*
X57929834Y-75963440D01*
X57961000Y-76120123D01*
X57961000Y-76279877D01*
X57929834Y-76436560D01*
X57868699Y-76584153D01*
X57779945Y-76716982D01*
X57666982Y-76829945D01*
X57534153Y-76918699D01*
X57534152Y-76918700D01*
X57534151Y-76918700D01*
X57386560Y-76979834D01*
X57229878Y-77011000D01*
X57070122Y-77011000D01*
X56913440Y-76979834D01*
X56765849Y-76918700D01*
X56765848Y-76918700D01*
X56765847Y-76918699D01*
X56633018Y-76829945D01*
X56520055Y-76716982D01*
X56431301Y-76584153D01*
X56370166Y-76436560D01*
X56339000Y-76279877D01*
X56339000Y-76120123D01*
X56370166Y-75963440D01*
X56431301Y-75815847D01*
X56520055Y-75683018D01*
X56633018Y-75570055D01*
X56765847Y-75481301D01*
X56913440Y-75420166D01*
X57070122Y-75389000D01*
X57229878Y-75389000D01*
X57386560Y-75420166D01*
X57386560Y-75420166D01*
G37*
G36*
X52306560Y-75420166D02*
G01*
X52454153Y-75481301D01*
X52586982Y-75570055D01*
X52699945Y-75683018D01*
X52788699Y-75815847D01*
X52849834Y-75963440D01*
X52881000Y-76120123D01*
X52881000Y-76279877D01*
X52849834Y-76436560D01*
X52788699Y-76584153D01*
X52699945Y-76716982D01*
X52586982Y-76829945D01*
X52454153Y-76918699D01*
X52454152Y-76918700D01*
X52454151Y-76918700D01*
X52306560Y-76979834D01*
X52149878Y-77011000D01*
X51990122Y-77011000D01*
X51833440Y-76979834D01*
X51685849Y-76918700D01*
X51685848Y-76918700D01*
X51685847Y-76918699D01*
X51553018Y-76829945D01*
X51440055Y-76716982D01*
X51351301Y-76584153D01*
X51290166Y-76436560D01*
X51259000Y-76279877D01*
X51259000Y-76120123D01*
X51290166Y-75963440D01*
X51351301Y-75815847D01*
X51440055Y-75683018D01*
X51553018Y-75570055D01*
X51685847Y-75481301D01*
X51833440Y-75420166D01*
X51990122Y-75389000D01*
X52149878Y-75389000D01*
X52306560Y-75420166D01*
X52306560Y-75420166D01*
G37*
G36*
X52306560Y-72880166D02*
G01*
X52454153Y-72941301D01*
X52586982Y-73030055D01*
X52699945Y-73143018D01*
X52788699Y-73275847D01*
X52849834Y-73423440D01*
X52881000Y-73580123D01*
X52881000Y-73739877D01*
X52849834Y-73896560D01*
X52788699Y-74044153D01*
X52699945Y-74176982D01*
X52586982Y-74289945D01*
X52454153Y-74378699D01*
X52454152Y-74378700D01*
X52454151Y-74378700D01*
X52306560Y-74439834D01*
X52149878Y-74471000D01*
X51990122Y-74471000D01*
X51833440Y-74439834D01*
X51685849Y-74378700D01*
X51685848Y-74378700D01*
X51685847Y-74378699D01*
X51553018Y-74289945D01*
X51440055Y-74176982D01*
X51351301Y-74044153D01*
X51290166Y-73896560D01*
X51259000Y-73739877D01*
X51259000Y-73580123D01*
X51290166Y-73423440D01*
X51351301Y-73275847D01*
X51440055Y-73143018D01*
X51553018Y-73030055D01*
X51685847Y-72941301D01*
X51833440Y-72880166D01*
X51990122Y-72849000D01*
X52149878Y-72849000D01*
X52306560Y-72880166D01*
X52306560Y-72880166D01*
G37*
G36*
X110726560Y-72880166D02*
G01*
X110874153Y-72941301D01*
X111006982Y-73030055D01*
X111119945Y-73143018D01*
X111208699Y-73275847D01*
X111269834Y-73423440D01*
X111301000Y-73580123D01*
X111301000Y-73739877D01*
X111269834Y-73896560D01*
X111208699Y-74044153D01*
X111119945Y-74176982D01*
X111006982Y-74289945D01*
X110874153Y-74378699D01*
X110874152Y-74378700D01*
X110874151Y-74378700D01*
X110726560Y-74439834D01*
X110569878Y-74471000D01*
X110410122Y-74471000D01*
X110253440Y-74439834D01*
X110105849Y-74378700D01*
X110105848Y-74378700D01*
X110105847Y-74378699D01*
X109973018Y-74289945D01*
X109860055Y-74176982D01*
X109771301Y-74044153D01*
X109710166Y-73896560D01*
X109679000Y-73739877D01*
X109679000Y-73580123D01*
X109710166Y-73423440D01*
X109771301Y-73275847D01*
X109860055Y-73143018D01*
X109973018Y-73030055D01*
X110105847Y-72941301D01*
X110253440Y-72880166D01*
X110410122Y-72849000D01*
X110569878Y-72849000D01*
X110726560Y-72880166D01*
X110726560Y-72880166D01*
G37*
G36*
X70086560Y-72880166D02*
G01*
X70234153Y-72941301D01*
X70366982Y-73030055D01*
X70479945Y-73143018D01*
X70568699Y-73275847D01*
X70629834Y-73423440D01*
X70661000Y-73580123D01*
X70661000Y-73739877D01*
X70629834Y-73896560D01*
X70568699Y-74044153D01*
X70479945Y-74176982D01*
X70366982Y-74289945D01*
X70234153Y-74378699D01*
X70234152Y-74378700D01*
X70234151Y-74378700D01*
X70086560Y-74439834D01*
X69929878Y-74471000D01*
X69770122Y-74471000D01*
X69613440Y-74439834D01*
X69465849Y-74378700D01*
X69465848Y-74378700D01*
X69465847Y-74378699D01*
X69333018Y-74289945D01*
X69220055Y-74176982D01*
X69131301Y-74044153D01*
X69070166Y-73896560D01*
X69039000Y-73739877D01*
X69039000Y-73580123D01*
X69070166Y-73423440D01*
X69131301Y-73275847D01*
X69220055Y-73143018D01*
X69333018Y-73030055D01*
X69465847Y-72941301D01*
X69613440Y-72880166D01*
X69770122Y-72849000D01*
X69929878Y-72849000D01*
X70086560Y-72880166D01*
X70086560Y-72880166D01*
G37*
G36*
X67546560Y-72880166D02*
G01*
X67694153Y-72941301D01*
X67826982Y-73030055D01*
X67939945Y-73143018D01*
X68028699Y-73275847D01*
X68089834Y-73423440D01*
X68121000Y-73580123D01*
X68121000Y-73739877D01*
X68089834Y-73896560D01*
X68028699Y-74044153D01*
X67939945Y-74176982D01*
X67826982Y-74289945D01*
X67694153Y-74378699D01*
X67694152Y-74378700D01*
X67694151Y-74378700D01*
X67546560Y-74439834D01*
X67389878Y-74471000D01*
X67230122Y-74471000D01*
X67073440Y-74439834D01*
X66925849Y-74378700D01*
X66925848Y-74378700D01*
X66925847Y-74378699D01*
X66793018Y-74289945D01*
X66680055Y-74176982D01*
X66591301Y-74044153D01*
X66530166Y-73896560D01*
X66499000Y-73739877D01*
X66499000Y-73580123D01*
X66530166Y-73423440D01*
X66591301Y-73275847D01*
X66680055Y-73143018D01*
X66793018Y-73030055D01*
X66925847Y-72941301D01*
X67073440Y-72880166D01*
X67230122Y-72849000D01*
X67389878Y-72849000D01*
X67546560Y-72880166D01*
X67546560Y-72880166D01*
G37*
G36*
X65006560Y-72880166D02*
G01*
X65154153Y-72941301D01*
X65286982Y-73030055D01*
X65399945Y-73143018D01*
X65488699Y-73275847D01*
X65549834Y-73423440D01*
X65581000Y-73580123D01*
X65581000Y-73739877D01*
X65549834Y-73896560D01*
X65488699Y-74044153D01*
X65399945Y-74176982D01*
X65286982Y-74289945D01*
X65154153Y-74378699D01*
X65154152Y-74378700D01*
X65154151Y-74378700D01*
X65006560Y-74439834D01*
X64849878Y-74471000D01*
X64690122Y-74471000D01*
X64533440Y-74439834D01*
X64385849Y-74378700D01*
X64385848Y-74378700D01*
X64385847Y-74378699D01*
X64253018Y-74289945D01*
X64140055Y-74176982D01*
X64051301Y-74044153D01*
X63990166Y-73896560D01*
X63959000Y-73739877D01*
X63959000Y-73580123D01*
X63990166Y-73423440D01*
X64051301Y-73275847D01*
X64140055Y-73143018D01*
X64253018Y-73030055D01*
X64385847Y-72941301D01*
X64533440Y-72880166D01*
X64690122Y-72849000D01*
X64849878Y-72849000D01*
X65006560Y-72880166D01*
X65006560Y-72880166D01*
G37*
G36*
X62466560Y-72880166D02*
G01*
X62614153Y-72941301D01*
X62746982Y-73030055D01*
X62859945Y-73143018D01*
X62948699Y-73275847D01*
X63009834Y-73423440D01*
X63041000Y-73580123D01*
X63041000Y-73739877D01*
X63009834Y-73896560D01*
X62948699Y-74044153D01*
X62859945Y-74176982D01*
X62746982Y-74289945D01*
X62614153Y-74378699D01*
X62614152Y-74378700D01*
X62614151Y-74378700D01*
X62466560Y-74439834D01*
X62309878Y-74471000D01*
X62150122Y-74471000D01*
X61993440Y-74439834D01*
X61845849Y-74378700D01*
X61845848Y-74378700D01*
X61845847Y-74378699D01*
X61713018Y-74289945D01*
X61600055Y-74176982D01*
X61511301Y-74044153D01*
X61450166Y-73896560D01*
X61419000Y-73739877D01*
X61419000Y-73580123D01*
X61450166Y-73423440D01*
X61511301Y-73275847D01*
X61600055Y-73143018D01*
X61713018Y-73030055D01*
X61845847Y-72941301D01*
X61993440Y-72880166D01*
X62150122Y-72849000D01*
X62309878Y-72849000D01*
X62466560Y-72880166D01*
X62466560Y-72880166D01*
G37*
G36*
X59926560Y-72880166D02*
G01*
X60074153Y-72941301D01*
X60206982Y-73030055D01*
X60319945Y-73143018D01*
X60408699Y-73275847D01*
X60469834Y-73423440D01*
X60501000Y-73580123D01*
X60501000Y-73739877D01*
X60469834Y-73896560D01*
X60408699Y-74044153D01*
X60319945Y-74176982D01*
X60206982Y-74289945D01*
X60074153Y-74378699D01*
X60074152Y-74378700D01*
X60074151Y-74378700D01*
X59926560Y-74439834D01*
X59769878Y-74471000D01*
X59610122Y-74471000D01*
X59453440Y-74439834D01*
X59305849Y-74378700D01*
X59305848Y-74378700D01*
X59305847Y-74378699D01*
X59173018Y-74289945D01*
X59060055Y-74176982D01*
X58971301Y-74044153D01*
X58910166Y-73896560D01*
X58879000Y-73739877D01*
X58879000Y-73580123D01*
X58910166Y-73423440D01*
X58971301Y-73275847D01*
X59060055Y-73143018D01*
X59173018Y-73030055D01*
X59305847Y-72941301D01*
X59453440Y-72880166D01*
X59610122Y-72849000D01*
X59769878Y-72849000D01*
X59926560Y-72880166D01*
X59926560Y-72880166D01*
G37*
G36*
X57386560Y-72880166D02*
G01*
X57534153Y-72941301D01*
X57666982Y-73030055D01*
X57779945Y-73143018D01*
X57868699Y-73275847D01*
X57929834Y-73423440D01*
X57961000Y-73580123D01*
X57961000Y-73739877D01*
X57929834Y-73896560D01*
X57868699Y-74044153D01*
X57779945Y-74176982D01*
X57666982Y-74289945D01*
X57534153Y-74378699D01*
X57534152Y-74378700D01*
X57534151Y-74378700D01*
X57386560Y-74439834D01*
X57229878Y-74471000D01*
X57070122Y-74471000D01*
X56913440Y-74439834D01*
X56765849Y-74378700D01*
X56765848Y-74378700D01*
X56765847Y-74378699D01*
X56633018Y-74289945D01*
X56520055Y-74176982D01*
X56431301Y-74044153D01*
X56370166Y-73896560D01*
X56339000Y-73739877D01*
X56339000Y-73580123D01*
X56370166Y-73423440D01*
X56431301Y-73275847D01*
X56520055Y-73143018D01*
X56633018Y-73030055D01*
X56765847Y-72941301D01*
X56913440Y-72880166D01*
X57070122Y-72849000D01*
X57229878Y-72849000D01*
X57386560Y-72880166D01*
X57386560Y-72880166D01*
G37*
G36*
X54846560Y-72880166D02*
G01*
X54994153Y-72941301D01*
X55126982Y-73030055D01*
X55239945Y-73143018D01*
X55328699Y-73275847D01*
X55389834Y-73423440D01*
X55421000Y-73580123D01*
X55421000Y-73739877D01*
X55389834Y-73896560D01*
X55328699Y-74044153D01*
X55239945Y-74176982D01*
X55126982Y-74289945D01*
X54994153Y-74378699D01*
X54994152Y-74378700D01*
X54994151Y-74378700D01*
X54846560Y-74439834D01*
X54689878Y-74471000D01*
X54530122Y-74471000D01*
X54373440Y-74439834D01*
X54225849Y-74378700D01*
X54225848Y-74378700D01*
X54225847Y-74378699D01*
X54093018Y-74289945D01*
X53980055Y-74176982D01*
X53891301Y-74044153D01*
X53830166Y-73896560D01*
X53799000Y-73739877D01*
X53799000Y-73580123D01*
X53830166Y-73423440D01*
X53891301Y-73275847D01*
X53980055Y-73143018D01*
X54093018Y-73030055D01*
X54225847Y-72941301D01*
X54373440Y-72880166D01*
X54530122Y-72849000D01*
X54689878Y-72849000D01*
X54846560Y-72880166D01*
X54846560Y-72880166D01*
G37*
G36*
X49766560Y-72880166D02*
G01*
X49914153Y-72941301D01*
X50046982Y-73030055D01*
X50159945Y-73143018D01*
X50248699Y-73275847D01*
X50309834Y-73423440D01*
X50341000Y-73580123D01*
X50341000Y-73739877D01*
X50309834Y-73896560D01*
X50248699Y-74044153D01*
X50159945Y-74176982D01*
X50046982Y-74289945D01*
X49914153Y-74378699D01*
X49914152Y-74378700D01*
X49914151Y-74378700D01*
X49766560Y-74439834D01*
X49609878Y-74471000D01*
X49450122Y-74471000D01*
X49293440Y-74439834D01*
X49145849Y-74378700D01*
X49145848Y-74378700D01*
X49145847Y-74378699D01*
X49013018Y-74289945D01*
X48900055Y-74176982D01*
X48811301Y-74044153D01*
X48750166Y-73896560D01*
X48719000Y-73739877D01*
X48719000Y-73580123D01*
X48750166Y-73423440D01*
X48811301Y-73275847D01*
X48900055Y-73143018D01*
X49013018Y-73030055D01*
X49145847Y-72941301D01*
X49293440Y-72880166D01*
X49450122Y-72849000D01*
X49609878Y-72849000D01*
X49766560Y-72880166D01*
X49766560Y-72880166D01*
G37*
G36*
X133586560Y-72880166D02*
G01*
X133734153Y-72941301D01*
X133866982Y-73030055D01*
X133979945Y-73143018D01*
X134068699Y-73275847D01*
X134129834Y-73423440D01*
X134161000Y-73580123D01*
X134161000Y-73739877D01*
X134129834Y-73896560D01*
X134068699Y-74044153D01*
X133979945Y-74176982D01*
X133866982Y-74289945D01*
X133734153Y-74378699D01*
X133734152Y-74378700D01*
X133734151Y-74378700D01*
X133586560Y-74439834D01*
X133429878Y-74471000D01*
X133270122Y-74471000D01*
X133113440Y-74439834D01*
X132965849Y-74378700D01*
X132965848Y-74378700D01*
X132965847Y-74378699D01*
X132833018Y-74289945D01*
X132720055Y-74176982D01*
X132631301Y-74044153D01*
X132570166Y-73896560D01*
X132539000Y-73739877D01*
X132539000Y-73580123D01*
X132570166Y-73423440D01*
X132631301Y-73275847D01*
X132720055Y-73143018D01*
X132833018Y-73030055D01*
X132965847Y-72941301D01*
X133113440Y-72880166D01*
X133270122Y-72849000D01*
X133429878Y-72849000D01*
X133586560Y-72880166D01*
X133586560Y-72880166D01*
G37*
G36*
X128506560Y-72880166D02*
G01*
X128654153Y-72941301D01*
X128786982Y-73030055D01*
X128899945Y-73143018D01*
X128988699Y-73275847D01*
X129049834Y-73423440D01*
X129081000Y-73580123D01*
X129081000Y-73739877D01*
X129049834Y-73896560D01*
X128988699Y-74044153D01*
X128899945Y-74176982D01*
X128786982Y-74289945D01*
X128654153Y-74378699D01*
X128654152Y-74378700D01*
X128654151Y-74378700D01*
X128506560Y-74439834D01*
X128349878Y-74471000D01*
X128190122Y-74471000D01*
X128033440Y-74439834D01*
X127885849Y-74378700D01*
X127885848Y-74378700D01*
X127885847Y-74378699D01*
X127753018Y-74289945D01*
X127640055Y-74176982D01*
X127551301Y-74044153D01*
X127490166Y-73896560D01*
X127459000Y-73739877D01*
X127459000Y-73580123D01*
X127490166Y-73423440D01*
X127551301Y-73275847D01*
X127640055Y-73143018D01*
X127753018Y-73030055D01*
X127885847Y-72941301D01*
X128033440Y-72880166D01*
X128190122Y-72849000D01*
X128349878Y-72849000D01*
X128506560Y-72880166D01*
X128506560Y-72880166D01*
G37*
G36*
X125966560Y-72880166D02*
G01*
X126114153Y-72941301D01*
X126246982Y-73030055D01*
X126359945Y-73143018D01*
X126448699Y-73275847D01*
X126509834Y-73423440D01*
X126541000Y-73580123D01*
X126541000Y-73739877D01*
X126509834Y-73896560D01*
X126448699Y-74044153D01*
X126359945Y-74176982D01*
X126246982Y-74289945D01*
X126114153Y-74378699D01*
X126114152Y-74378700D01*
X126114151Y-74378700D01*
X125966560Y-74439834D01*
X125809878Y-74471000D01*
X125650122Y-74471000D01*
X125493440Y-74439834D01*
X125345849Y-74378700D01*
X125345848Y-74378700D01*
X125345847Y-74378699D01*
X125213018Y-74289945D01*
X125100055Y-74176982D01*
X125011301Y-74044153D01*
X124950166Y-73896560D01*
X124919000Y-73739877D01*
X124919000Y-73580123D01*
X124950166Y-73423440D01*
X125011301Y-73275847D01*
X125100055Y-73143018D01*
X125213018Y-73030055D01*
X125345847Y-72941301D01*
X125493440Y-72880166D01*
X125650122Y-72849000D01*
X125809878Y-72849000D01*
X125966560Y-72880166D01*
X125966560Y-72880166D01*
G37*
G36*
X123426560Y-72880166D02*
G01*
X123574153Y-72941301D01*
X123706982Y-73030055D01*
X123819945Y-73143018D01*
X123908699Y-73275847D01*
X123969834Y-73423440D01*
X124001000Y-73580123D01*
X124001000Y-73739877D01*
X123969834Y-73896560D01*
X123908699Y-74044153D01*
X123819945Y-74176982D01*
X123706982Y-74289945D01*
X123574153Y-74378699D01*
X123574152Y-74378700D01*
X123574151Y-74378700D01*
X123426560Y-74439834D01*
X123269878Y-74471000D01*
X123110122Y-74471000D01*
X122953440Y-74439834D01*
X122805849Y-74378700D01*
X122805848Y-74378700D01*
X122805847Y-74378699D01*
X122673018Y-74289945D01*
X122560055Y-74176982D01*
X122471301Y-74044153D01*
X122410166Y-73896560D01*
X122379000Y-73739877D01*
X122379000Y-73580123D01*
X122410166Y-73423440D01*
X122471301Y-73275847D01*
X122560055Y-73143018D01*
X122673018Y-73030055D01*
X122805847Y-72941301D01*
X122953440Y-72880166D01*
X123110122Y-72849000D01*
X123269878Y-72849000D01*
X123426560Y-72880166D01*
X123426560Y-72880166D01*
G37*
G36*
X120886560Y-72880166D02*
G01*
X121034153Y-72941301D01*
X121166982Y-73030055D01*
X121279945Y-73143018D01*
X121368699Y-73275847D01*
X121429834Y-73423440D01*
X121461000Y-73580123D01*
X121461000Y-73739877D01*
X121429834Y-73896560D01*
X121368699Y-74044153D01*
X121279945Y-74176982D01*
X121166982Y-74289945D01*
X121034153Y-74378699D01*
X121034152Y-74378700D01*
X121034151Y-74378700D01*
X120886560Y-74439834D01*
X120729878Y-74471000D01*
X120570122Y-74471000D01*
X120413440Y-74439834D01*
X120265849Y-74378700D01*
X120265848Y-74378700D01*
X120265847Y-74378699D01*
X120133018Y-74289945D01*
X120020055Y-74176982D01*
X119931301Y-74044153D01*
X119870166Y-73896560D01*
X119839000Y-73739877D01*
X119839000Y-73580123D01*
X119870166Y-73423440D01*
X119931301Y-73275847D01*
X120020055Y-73143018D01*
X120133018Y-73030055D01*
X120265847Y-72941301D01*
X120413440Y-72880166D01*
X120570122Y-72849000D01*
X120729878Y-72849000D01*
X120886560Y-72880166D01*
X120886560Y-72880166D01*
G37*
G36*
X118346560Y-72880166D02*
G01*
X118494153Y-72941301D01*
X118626982Y-73030055D01*
X118739945Y-73143018D01*
X118828699Y-73275847D01*
X118889834Y-73423440D01*
X118921000Y-73580123D01*
X118921000Y-73739877D01*
X118889834Y-73896560D01*
X118828699Y-74044153D01*
X118739945Y-74176982D01*
X118626982Y-74289945D01*
X118494153Y-74378699D01*
X118494152Y-74378700D01*
X118494151Y-74378700D01*
X118346560Y-74439834D01*
X118189878Y-74471000D01*
X118030122Y-74471000D01*
X117873440Y-74439834D01*
X117725849Y-74378700D01*
X117725848Y-74378700D01*
X117725847Y-74378699D01*
X117593018Y-74289945D01*
X117480055Y-74176982D01*
X117391301Y-74044153D01*
X117330166Y-73896560D01*
X117299000Y-73739877D01*
X117299000Y-73580123D01*
X117330166Y-73423440D01*
X117391301Y-73275847D01*
X117480055Y-73143018D01*
X117593018Y-73030055D01*
X117725847Y-72941301D01*
X117873440Y-72880166D01*
X118030122Y-72849000D01*
X118189878Y-72849000D01*
X118346560Y-72880166D01*
X118346560Y-72880166D01*
G37*
G36*
X115806560Y-72880166D02*
G01*
X115954153Y-72941301D01*
X116086982Y-73030055D01*
X116199945Y-73143018D01*
X116288699Y-73275847D01*
X116349834Y-73423440D01*
X116381000Y-73580123D01*
X116381000Y-73739877D01*
X116349834Y-73896560D01*
X116288699Y-74044153D01*
X116199945Y-74176982D01*
X116086982Y-74289945D01*
X115954153Y-74378699D01*
X115954152Y-74378700D01*
X115954151Y-74378700D01*
X115806560Y-74439834D01*
X115649878Y-74471000D01*
X115490122Y-74471000D01*
X115333440Y-74439834D01*
X115185849Y-74378700D01*
X115185848Y-74378700D01*
X115185847Y-74378699D01*
X115053018Y-74289945D01*
X114940055Y-74176982D01*
X114851301Y-74044153D01*
X114790166Y-73896560D01*
X114759000Y-73739877D01*
X114759000Y-73580123D01*
X114790166Y-73423440D01*
X114851301Y-73275847D01*
X114940055Y-73143018D01*
X115053018Y-73030055D01*
X115185847Y-72941301D01*
X115333440Y-72880166D01*
X115490122Y-72849000D01*
X115649878Y-72849000D01*
X115806560Y-72880166D01*
X115806560Y-72880166D01*
G37*
G36*
X113266560Y-72880166D02*
G01*
X113414153Y-72941301D01*
X113546982Y-73030055D01*
X113659945Y-73143018D01*
X113748699Y-73275847D01*
X113809834Y-73423440D01*
X113841000Y-73580123D01*
X113841000Y-73739877D01*
X113809834Y-73896560D01*
X113748699Y-74044153D01*
X113659945Y-74176982D01*
X113546982Y-74289945D01*
X113414153Y-74378699D01*
X113414152Y-74378700D01*
X113414151Y-74378700D01*
X113266560Y-74439834D01*
X113109878Y-74471000D01*
X112950122Y-74471000D01*
X112793440Y-74439834D01*
X112645849Y-74378700D01*
X112645848Y-74378700D01*
X112645847Y-74378699D01*
X112513018Y-74289945D01*
X112400055Y-74176982D01*
X112311301Y-74044153D01*
X112250166Y-73896560D01*
X112219000Y-73739877D01*
X112219000Y-73580123D01*
X112250166Y-73423440D01*
X112311301Y-73275847D01*
X112400055Y-73143018D01*
X112513018Y-73030055D01*
X112645847Y-72941301D01*
X112793440Y-72880166D01*
X112950122Y-72849000D01*
X113109878Y-72849000D01*
X113266560Y-72880166D01*
X113266560Y-72880166D01*
G37*
G36*
X47226560Y-72880166D02*
G01*
X47374153Y-72941301D01*
X47506982Y-73030055D01*
X47619945Y-73143018D01*
X47708699Y-73275847D01*
X47769834Y-73423440D01*
X47801000Y-73580123D01*
X47801000Y-73739877D01*
X47769834Y-73896560D01*
X47708699Y-74044153D01*
X47619945Y-74176982D01*
X47506982Y-74289945D01*
X47374153Y-74378699D01*
X47374152Y-74378700D01*
X47374151Y-74378700D01*
X47226560Y-74439834D01*
X47069878Y-74471000D01*
X46910122Y-74471000D01*
X46753440Y-74439834D01*
X46605849Y-74378700D01*
X46605848Y-74378700D01*
X46605847Y-74378699D01*
X46473018Y-74289945D01*
X46360055Y-74176982D01*
X46271301Y-74044153D01*
X46210166Y-73896560D01*
X46179000Y-73739877D01*
X46179000Y-73580123D01*
X46210166Y-73423440D01*
X46271301Y-73275847D01*
X46360055Y-73143018D01*
X46473018Y-73030055D01*
X46605847Y-72941301D01*
X46753440Y-72880166D01*
X46910122Y-72849000D01*
X47069878Y-72849000D01*
X47226560Y-72880166D01*
X47226560Y-72880166D01*
G37*
G36*
X131046560Y-72880166D02*
G01*
X131194153Y-72941301D01*
X131326982Y-73030055D01*
X131439945Y-73143018D01*
X131528699Y-73275847D01*
X131589834Y-73423440D01*
X131621000Y-73580123D01*
X131621000Y-73739877D01*
X131589834Y-73896560D01*
X131528699Y-74044153D01*
X131439945Y-74176982D01*
X131326982Y-74289945D01*
X131194153Y-74378699D01*
X131194152Y-74378700D01*
X131194151Y-74378700D01*
X131046560Y-74439834D01*
X130889878Y-74471000D01*
X130730122Y-74471000D01*
X130573440Y-74439834D01*
X130425849Y-74378700D01*
X130425848Y-74378700D01*
X130425847Y-74378699D01*
X130293018Y-74289945D01*
X130180055Y-74176982D01*
X130091301Y-74044153D01*
X130030166Y-73896560D01*
X129999000Y-73739877D01*
X129999000Y-73580123D01*
X130030166Y-73423440D01*
X130091301Y-73275847D01*
X130180055Y-73143018D01*
X130293018Y-73030055D01*
X130425847Y-72941301D01*
X130573440Y-72880166D01*
X130730122Y-72849000D01*
X130889878Y-72849000D01*
X131046560Y-72880166D01*
X131046560Y-72880166D01*
G37*
G36*
X113267142Y-63226242D02*
G01*
X113415101Y-63287529D01*
X113548255Y-63376499D01*
X113661501Y-63489745D01*
X113750471Y-63622899D01*
X113811758Y-63770858D01*
X113843000Y-63927925D01*
X113843000Y-64088075D01*
X113811758Y-64245142D01*
X113750471Y-64393101D01*
X113661501Y-64526255D01*
X113548255Y-64639501D01*
X113415101Y-64728471D01*
X113267142Y-64789758D01*
X113110075Y-64821000D01*
X112949925Y-64821000D01*
X112792858Y-64789758D01*
X112644899Y-64728471D01*
X112511745Y-64639501D01*
X112398499Y-64526255D01*
X112309529Y-64393101D01*
X112248242Y-64245142D01*
X112217000Y-64088075D01*
X112217000Y-63927925D01*
X112248242Y-63770858D01*
X112309529Y-63622899D01*
X112398499Y-63489745D01*
X112511745Y-63376499D01*
X112644899Y-63287529D01*
X112792858Y-63226242D01*
X112949925Y-63195000D01*
X113110075Y-63195000D01*
X113267142Y-63226242D01*
X113267142Y-63226242D01*
G37*
G36*
X158987142Y-63226242D02*
G01*
X159135101Y-63287529D01*
X159268255Y-63376499D01*
X159381501Y-63489745D01*
X159470471Y-63622899D01*
X159531758Y-63770858D01*
X159563000Y-63927925D01*
X159563000Y-64088075D01*
X159531758Y-64245142D01*
X159470471Y-64393101D01*
X159381501Y-64526255D01*
X159268255Y-64639501D01*
X159135101Y-64728471D01*
X158987142Y-64789758D01*
X158830075Y-64821000D01*
X158669925Y-64821000D01*
X158512858Y-64789758D01*
X158364899Y-64728471D01*
X158231745Y-64639501D01*
X158118499Y-64526255D01*
X158029529Y-64393101D01*
X157968242Y-64245142D01*
X157937000Y-64088075D01*
X157937000Y-63927925D01*
X157968242Y-63770858D01*
X158029529Y-63622899D01*
X158118499Y-63489745D01*
X158231745Y-63376499D01*
X158364899Y-63287529D01*
X158512858Y-63226242D01*
X158669925Y-63195000D01*
X158830075Y-63195000D01*
X158987142Y-63226242D01*
X158987142Y-63226242D01*
G37*
G36*
X118347142Y-63226242D02*
G01*
X118495101Y-63287529D01*
X118628255Y-63376499D01*
X118741501Y-63489745D01*
X118830471Y-63622899D01*
X118891758Y-63770858D01*
X118923000Y-63927925D01*
X118923000Y-64088075D01*
X118891758Y-64245142D01*
X118830471Y-64393101D01*
X118741501Y-64526255D01*
X118628255Y-64639501D01*
X118495101Y-64728471D01*
X118347142Y-64789758D01*
X118190075Y-64821000D01*
X118029925Y-64821000D01*
X117872858Y-64789758D01*
X117724899Y-64728471D01*
X117591745Y-64639501D01*
X117478499Y-64526255D01*
X117389529Y-64393101D01*
X117328242Y-64245142D01*
X117297000Y-64088075D01*
X117297000Y-63927925D01*
X117328242Y-63770858D01*
X117389529Y-63622899D01*
X117478499Y-63489745D01*
X117591745Y-63376499D01*
X117724899Y-63287529D01*
X117872858Y-63226242D01*
X118029925Y-63195000D01*
X118190075Y-63195000D01*
X118347142Y-63226242D01*
X118347142Y-63226242D01*
G37*
G36*
X164067142Y-63226242D02*
G01*
X164215101Y-63287529D01*
X164348255Y-63376499D01*
X164461501Y-63489745D01*
X164550471Y-63622899D01*
X164611758Y-63770858D01*
X164643000Y-63927925D01*
X164643000Y-64088075D01*
X164611758Y-64245142D01*
X164550471Y-64393101D01*
X164461501Y-64526255D01*
X164348255Y-64639501D01*
X164215101Y-64728471D01*
X164067142Y-64789758D01*
X163910075Y-64821000D01*
X163749925Y-64821000D01*
X163592858Y-64789758D01*
X163444899Y-64728471D01*
X163311745Y-64639501D01*
X163198499Y-64526255D01*
X163109529Y-64393101D01*
X163048242Y-64245142D01*
X163017000Y-64088075D01*
X163017000Y-63927925D01*
X163048242Y-63770858D01*
X163109529Y-63622899D01*
X163198499Y-63489745D01*
X163311745Y-63376499D01*
X163444899Y-63287529D01*
X163592858Y-63226242D01*
X163749925Y-63195000D01*
X163910075Y-63195000D01*
X164067142Y-63226242D01*
X164067142Y-63226242D01*
G37*
G36*
X148827142Y-63226242D02*
G01*
X148975101Y-63287529D01*
X149108255Y-63376499D01*
X149221501Y-63489745D01*
X149310471Y-63622899D01*
X149371758Y-63770858D01*
X149403000Y-63927925D01*
X149403000Y-64088075D01*
X149371758Y-64245142D01*
X149310471Y-64393101D01*
X149221501Y-64526255D01*
X149108255Y-64639501D01*
X148975101Y-64728471D01*
X148827142Y-64789758D01*
X148670075Y-64821000D01*
X148509925Y-64821000D01*
X148352858Y-64789758D01*
X148204899Y-64728471D01*
X148071745Y-64639501D01*
X147958499Y-64526255D01*
X147869529Y-64393101D01*
X147808242Y-64245142D01*
X147777000Y-64088075D01*
X147777000Y-63927925D01*
X147808242Y-63770858D01*
X147869529Y-63622899D01*
X147958499Y-63489745D01*
X148071745Y-63376499D01*
X148204899Y-63287529D01*
X148352858Y-63226242D01*
X148509925Y-63195000D01*
X148670075Y-63195000D01*
X148827142Y-63226242D01*
X148827142Y-63226242D01*
G37*
G36*
X146287142Y-63226242D02*
G01*
X146435101Y-63287529D01*
X146568255Y-63376499D01*
X146681501Y-63489745D01*
X146770471Y-63622899D01*
X146831758Y-63770858D01*
X146863000Y-63927925D01*
X146863000Y-64088075D01*
X146831758Y-64245142D01*
X146770471Y-64393101D01*
X146681501Y-64526255D01*
X146568255Y-64639501D01*
X146435101Y-64728471D01*
X146287142Y-64789758D01*
X146130075Y-64821000D01*
X145969925Y-64821000D01*
X145812858Y-64789758D01*
X145664899Y-64728471D01*
X145531745Y-64639501D01*
X145418499Y-64526255D01*
X145329529Y-64393101D01*
X145268242Y-64245142D01*
X145237000Y-64088075D01*
X145237000Y-63927925D01*
X145268242Y-63770858D01*
X145329529Y-63622899D01*
X145418499Y-63489745D01*
X145531745Y-63376499D01*
X145664899Y-63287529D01*
X145812858Y-63226242D01*
X145969925Y-63195000D01*
X146130075Y-63195000D01*
X146287142Y-63226242D01*
X146287142Y-63226242D01*
G37*
G36*
X143747142Y-63226242D02*
G01*
X143895101Y-63287529D01*
X144028255Y-63376499D01*
X144141501Y-63489745D01*
X144230471Y-63622899D01*
X144291758Y-63770858D01*
X144323000Y-63927925D01*
X144323000Y-64088075D01*
X144291758Y-64245142D01*
X144230471Y-64393101D01*
X144141501Y-64526255D01*
X144028255Y-64639501D01*
X143895101Y-64728471D01*
X143747142Y-64789758D01*
X143590075Y-64821000D01*
X143429925Y-64821000D01*
X143272858Y-64789758D01*
X143124899Y-64728471D01*
X142991745Y-64639501D01*
X142878499Y-64526255D01*
X142789529Y-64393101D01*
X142728242Y-64245142D01*
X142697000Y-64088075D01*
X142697000Y-63927925D01*
X142728242Y-63770858D01*
X142789529Y-63622899D01*
X142878499Y-63489745D01*
X142991745Y-63376499D01*
X143124899Y-63287529D01*
X143272858Y-63226242D01*
X143429925Y-63195000D01*
X143590075Y-63195000D01*
X143747142Y-63226242D01*
X143747142Y-63226242D01*
G37*
G36*
X133587142Y-63226242D02*
G01*
X133735101Y-63287529D01*
X133868255Y-63376499D01*
X133981501Y-63489745D01*
X134070471Y-63622899D01*
X134131758Y-63770858D01*
X134163000Y-63927925D01*
X134163000Y-64088075D01*
X134131758Y-64245142D01*
X134070471Y-64393101D01*
X133981501Y-64526255D01*
X133868255Y-64639501D01*
X133735101Y-64728471D01*
X133587142Y-64789758D01*
X133430075Y-64821000D01*
X133269925Y-64821000D01*
X133112858Y-64789758D01*
X132964899Y-64728471D01*
X132831745Y-64639501D01*
X132718499Y-64526255D01*
X132629529Y-64393101D01*
X132568242Y-64245142D01*
X132537000Y-64088075D01*
X132537000Y-63927925D01*
X132568242Y-63770858D01*
X132629529Y-63622899D01*
X132718499Y-63489745D01*
X132831745Y-63376499D01*
X132964899Y-63287529D01*
X133112858Y-63226242D01*
X133269925Y-63195000D01*
X133430075Y-63195000D01*
X133587142Y-63226242D01*
X133587142Y-63226242D01*
G37*
G36*
X131047142Y-63226242D02*
G01*
X131195101Y-63287529D01*
X131328255Y-63376499D01*
X131441501Y-63489745D01*
X131530471Y-63622899D01*
X131591758Y-63770858D01*
X131623000Y-63927925D01*
X131623000Y-64088075D01*
X131591758Y-64245142D01*
X131530471Y-64393101D01*
X131441501Y-64526255D01*
X131328255Y-64639501D01*
X131195101Y-64728471D01*
X131047142Y-64789758D01*
X130890075Y-64821000D01*
X130729925Y-64821000D01*
X130572858Y-64789758D01*
X130424899Y-64728471D01*
X130291745Y-64639501D01*
X130178499Y-64526255D01*
X130089529Y-64393101D01*
X130028242Y-64245142D01*
X129997000Y-64088075D01*
X129997000Y-63927925D01*
X130028242Y-63770858D01*
X130089529Y-63622899D01*
X130178499Y-63489745D01*
X130291745Y-63376499D01*
X130424899Y-63287529D01*
X130572858Y-63226242D01*
X130729925Y-63195000D01*
X130890075Y-63195000D01*
X131047142Y-63226242D01*
X131047142Y-63226242D01*
G37*
G36*
X128507142Y-63226242D02*
G01*
X128655101Y-63287529D01*
X128788255Y-63376499D01*
X128901501Y-63489745D01*
X128990471Y-63622899D01*
X129051758Y-63770858D01*
X129083000Y-63927925D01*
X129083000Y-64088075D01*
X129051758Y-64245142D01*
X128990471Y-64393101D01*
X128901501Y-64526255D01*
X128788255Y-64639501D01*
X128655101Y-64728471D01*
X128507142Y-64789758D01*
X128350075Y-64821000D01*
X128189925Y-64821000D01*
X128032858Y-64789758D01*
X127884899Y-64728471D01*
X127751745Y-64639501D01*
X127638499Y-64526255D01*
X127549529Y-64393101D01*
X127488242Y-64245142D01*
X127457000Y-64088075D01*
X127457000Y-63927925D01*
X127488242Y-63770858D01*
X127549529Y-63622899D01*
X127638499Y-63489745D01*
X127751745Y-63376499D01*
X127884899Y-63287529D01*
X128032858Y-63226242D01*
X128189925Y-63195000D01*
X128350075Y-63195000D01*
X128507142Y-63226242D01*
X128507142Y-63226242D01*
G37*
G36*
X115807142Y-63226242D02*
G01*
X115955101Y-63287529D01*
X116088255Y-63376499D01*
X116201501Y-63489745D01*
X116290471Y-63622899D01*
X116351758Y-63770858D01*
X116383000Y-63927925D01*
X116383000Y-64088075D01*
X116351758Y-64245142D01*
X116290471Y-64393101D01*
X116201501Y-64526255D01*
X116088255Y-64639501D01*
X115955101Y-64728471D01*
X115807142Y-64789758D01*
X115650075Y-64821000D01*
X115489925Y-64821000D01*
X115332858Y-64789758D01*
X115184899Y-64728471D01*
X115051745Y-64639501D01*
X114938499Y-64526255D01*
X114849529Y-64393101D01*
X114788242Y-64245142D01*
X114757000Y-64088075D01*
X114757000Y-63927925D01*
X114788242Y-63770858D01*
X114849529Y-63622899D01*
X114938499Y-63489745D01*
X115051745Y-63376499D01*
X115184899Y-63287529D01*
X115332858Y-63226242D01*
X115489925Y-63195000D01*
X115650075Y-63195000D01*
X115807142Y-63226242D01*
X115807142Y-63226242D01*
G37*
G36*
X85327142Y-63226242D02*
G01*
X85475101Y-63287529D01*
X85608255Y-63376499D01*
X85721501Y-63489745D01*
X85810471Y-63622899D01*
X85871758Y-63770858D01*
X85903000Y-63927925D01*
X85903000Y-64088075D01*
X85871758Y-64245142D01*
X85810471Y-64393101D01*
X85721501Y-64526255D01*
X85608255Y-64639501D01*
X85475101Y-64728471D01*
X85327142Y-64789758D01*
X85170075Y-64821000D01*
X85009925Y-64821000D01*
X84852858Y-64789758D01*
X84704899Y-64728471D01*
X84571745Y-64639501D01*
X84458499Y-64526255D01*
X84369529Y-64393101D01*
X84308242Y-64245142D01*
X84277000Y-64088075D01*
X84277000Y-63927925D01*
X84308242Y-63770858D01*
X84369529Y-63622899D01*
X84458499Y-63489745D01*
X84571745Y-63376499D01*
X84704899Y-63287529D01*
X84852858Y-63226242D01*
X85009925Y-63195000D01*
X85170075Y-63195000D01*
X85327142Y-63226242D01*
X85327142Y-63226242D01*
G37*
G36*
X54847142Y-63226242D02*
G01*
X54995101Y-63287529D01*
X55128255Y-63376499D01*
X55241501Y-63489745D01*
X55330471Y-63622899D01*
X55391758Y-63770858D01*
X55423000Y-63927925D01*
X55423000Y-64088075D01*
X55391758Y-64245142D01*
X55330471Y-64393101D01*
X55241501Y-64526255D01*
X55128255Y-64639501D01*
X54995101Y-64728471D01*
X54847142Y-64789758D01*
X54690075Y-64821000D01*
X54529925Y-64821000D01*
X54372858Y-64789758D01*
X54224899Y-64728471D01*
X54091745Y-64639501D01*
X53978499Y-64526255D01*
X53889529Y-64393101D01*
X53828242Y-64245142D01*
X53797000Y-64088075D01*
X53797000Y-63927925D01*
X53828242Y-63770858D01*
X53889529Y-63622899D01*
X53978499Y-63489745D01*
X54091745Y-63376499D01*
X54224899Y-63287529D01*
X54372858Y-63226242D01*
X54529925Y-63195000D01*
X54690075Y-63195000D01*
X54847142Y-63226242D01*
X54847142Y-63226242D01*
G37*
G36*
X161527142Y-63226242D02*
G01*
X161675101Y-63287529D01*
X161808255Y-63376499D01*
X161921501Y-63489745D01*
X162010471Y-63622899D01*
X162071758Y-63770858D01*
X162103000Y-63927925D01*
X162103000Y-64088075D01*
X162071758Y-64245142D01*
X162010471Y-64393101D01*
X161921501Y-64526255D01*
X161808255Y-64639501D01*
X161675101Y-64728471D01*
X161527142Y-64789758D01*
X161370075Y-64821000D01*
X161209925Y-64821000D01*
X161052858Y-64789758D01*
X160904899Y-64728471D01*
X160771745Y-64639501D01*
X160658499Y-64526255D01*
X160569529Y-64393101D01*
X160508242Y-64245142D01*
X160477000Y-64088075D01*
X160477000Y-63927925D01*
X160508242Y-63770858D01*
X160569529Y-63622899D01*
X160658499Y-63489745D01*
X160771745Y-63376499D01*
X160904899Y-63287529D01*
X161052858Y-63226242D01*
X161209925Y-63195000D01*
X161370075Y-63195000D01*
X161527142Y-63226242D01*
X161527142Y-63226242D01*
G37*
G36*
X57387142Y-63226242D02*
G01*
X57535101Y-63287529D01*
X57668255Y-63376499D01*
X57781501Y-63489745D01*
X57870471Y-63622899D01*
X57931758Y-63770858D01*
X57963000Y-63927925D01*
X57963000Y-64088075D01*
X57931758Y-64245142D01*
X57870471Y-64393101D01*
X57781501Y-64526255D01*
X57668255Y-64639501D01*
X57535101Y-64728471D01*
X57387142Y-64789758D01*
X57230075Y-64821000D01*
X57069925Y-64821000D01*
X56912858Y-64789758D01*
X56764899Y-64728471D01*
X56631745Y-64639501D01*
X56518499Y-64526255D01*
X56429529Y-64393101D01*
X56368242Y-64245142D01*
X56337000Y-64088075D01*
X56337000Y-63927925D01*
X56368242Y-63770858D01*
X56429529Y-63622899D01*
X56518499Y-63489745D01*
X56631745Y-63376499D01*
X56764899Y-63287529D01*
X56912858Y-63226242D01*
X57069925Y-63195000D01*
X57230075Y-63195000D01*
X57387142Y-63226242D01*
X57387142Y-63226242D01*
G37*
G36*
X103107142Y-63226242D02*
G01*
X103255101Y-63287529D01*
X103388255Y-63376499D01*
X103501501Y-63489745D01*
X103590471Y-63622899D01*
X103651758Y-63770858D01*
X103683000Y-63927925D01*
X103683000Y-64088075D01*
X103651758Y-64245142D01*
X103590471Y-64393101D01*
X103501501Y-64526255D01*
X103388255Y-64639501D01*
X103255101Y-64728471D01*
X103107142Y-64789758D01*
X102950075Y-64821000D01*
X102789925Y-64821000D01*
X102632858Y-64789758D01*
X102484899Y-64728471D01*
X102351745Y-64639501D01*
X102238499Y-64526255D01*
X102149529Y-64393101D01*
X102088242Y-64245142D01*
X102057000Y-64088075D01*
X102057000Y-63927925D01*
X102088242Y-63770858D01*
X102149529Y-63622899D01*
X102238499Y-63489745D01*
X102351745Y-63376499D01*
X102484899Y-63287529D01*
X102632858Y-63226242D01*
X102789925Y-63195000D01*
X102950075Y-63195000D01*
X103107142Y-63226242D01*
X103107142Y-63226242D01*
G37*
G36*
X100567142Y-63226242D02*
G01*
X100715101Y-63287529D01*
X100848255Y-63376499D01*
X100961501Y-63489745D01*
X101050471Y-63622899D01*
X101111758Y-63770858D01*
X101143000Y-63927925D01*
X101143000Y-64088075D01*
X101111758Y-64245142D01*
X101050471Y-64393101D01*
X100961501Y-64526255D01*
X100848255Y-64639501D01*
X100715101Y-64728471D01*
X100567142Y-64789758D01*
X100410075Y-64821000D01*
X100249925Y-64821000D01*
X100092858Y-64789758D01*
X99944899Y-64728471D01*
X99811745Y-64639501D01*
X99698499Y-64526255D01*
X99609529Y-64393101D01*
X99548242Y-64245142D01*
X99517000Y-64088075D01*
X99517000Y-63927925D01*
X99548242Y-63770858D01*
X99609529Y-63622899D01*
X99698499Y-63489745D01*
X99811745Y-63376499D01*
X99944899Y-63287529D01*
X100092858Y-63226242D01*
X100249925Y-63195000D01*
X100410075Y-63195000D01*
X100567142Y-63226242D01*
X100567142Y-63226242D01*
G37*
G36*
X98027142Y-63226242D02*
G01*
X98175101Y-63287529D01*
X98308255Y-63376499D01*
X98421501Y-63489745D01*
X98510471Y-63622899D01*
X98571758Y-63770858D01*
X98603000Y-63927925D01*
X98603000Y-64088075D01*
X98571758Y-64245142D01*
X98510471Y-64393101D01*
X98421501Y-64526255D01*
X98308255Y-64639501D01*
X98175101Y-64728471D01*
X98027142Y-64789758D01*
X97870075Y-64821000D01*
X97709925Y-64821000D01*
X97552858Y-64789758D01*
X97404899Y-64728471D01*
X97271745Y-64639501D01*
X97158499Y-64526255D01*
X97069529Y-64393101D01*
X97008242Y-64245142D01*
X96977000Y-64088075D01*
X96977000Y-63927925D01*
X97008242Y-63770858D01*
X97069529Y-63622899D01*
X97158499Y-63489745D01*
X97271745Y-63376499D01*
X97404899Y-63287529D01*
X97552858Y-63226242D01*
X97709925Y-63195000D01*
X97870075Y-63195000D01*
X98027142Y-63226242D01*
X98027142Y-63226242D01*
G37*
G36*
X82787142Y-63226242D02*
G01*
X82935101Y-63287529D01*
X83068255Y-63376499D01*
X83181501Y-63489745D01*
X83270471Y-63622899D01*
X83331758Y-63770858D01*
X83363000Y-63927925D01*
X83363000Y-64088075D01*
X83331758Y-64245142D01*
X83270471Y-64393101D01*
X83181501Y-64526255D01*
X83068255Y-64639501D01*
X82935101Y-64728471D01*
X82787142Y-64789758D01*
X82630075Y-64821000D01*
X82469925Y-64821000D01*
X82312858Y-64789758D01*
X82164899Y-64728471D01*
X82031745Y-64639501D01*
X81918499Y-64526255D01*
X81829529Y-64393101D01*
X81768242Y-64245142D01*
X81737000Y-64088075D01*
X81737000Y-63927925D01*
X81768242Y-63770858D01*
X81829529Y-63622899D01*
X81918499Y-63489745D01*
X82031745Y-63376499D01*
X82164899Y-63287529D01*
X82312858Y-63226242D01*
X82469925Y-63195000D01*
X82630075Y-63195000D01*
X82787142Y-63226242D01*
X82787142Y-63226242D01*
G37*
G36*
X87867142Y-63226242D02*
G01*
X88015101Y-63287529D01*
X88148255Y-63376499D01*
X88261501Y-63489745D01*
X88350471Y-63622899D01*
X88411758Y-63770858D01*
X88443000Y-63927925D01*
X88443000Y-64088075D01*
X88411758Y-64245142D01*
X88350471Y-64393101D01*
X88261501Y-64526255D01*
X88148255Y-64639501D01*
X88015101Y-64728471D01*
X87867142Y-64789758D01*
X87710075Y-64821000D01*
X87549925Y-64821000D01*
X87392858Y-64789758D01*
X87244899Y-64728471D01*
X87111745Y-64639501D01*
X86998499Y-64526255D01*
X86909529Y-64393101D01*
X86848242Y-64245142D01*
X86817000Y-64088075D01*
X86817000Y-63927925D01*
X86848242Y-63770858D01*
X86909529Y-63622899D01*
X86998499Y-63489745D01*
X87111745Y-63376499D01*
X87244899Y-63287529D01*
X87392858Y-63226242D01*
X87549925Y-63195000D01*
X87710075Y-63195000D01*
X87867142Y-63226242D01*
X87867142Y-63226242D01*
G37*
G36*
X72627142Y-63226242D02*
G01*
X72775101Y-63287529D01*
X72908255Y-63376499D01*
X73021501Y-63489745D01*
X73110471Y-63622899D01*
X73171758Y-63770858D01*
X73203000Y-63927925D01*
X73203000Y-64088075D01*
X73171758Y-64245142D01*
X73110471Y-64393101D01*
X73021501Y-64526255D01*
X72908255Y-64639501D01*
X72775101Y-64728471D01*
X72627142Y-64789758D01*
X72470075Y-64821000D01*
X72309925Y-64821000D01*
X72152858Y-64789758D01*
X72004899Y-64728471D01*
X71871745Y-64639501D01*
X71758499Y-64526255D01*
X71669529Y-64393101D01*
X71608242Y-64245142D01*
X71577000Y-64088075D01*
X71577000Y-63927925D01*
X71608242Y-63770858D01*
X71669529Y-63622899D01*
X71758499Y-63489745D01*
X71871745Y-63376499D01*
X72004899Y-63287529D01*
X72152858Y-63226242D01*
X72309925Y-63195000D01*
X72470075Y-63195000D01*
X72627142Y-63226242D01*
X72627142Y-63226242D01*
G37*
G36*
X70087142Y-63226242D02*
G01*
X70235101Y-63287529D01*
X70368255Y-63376499D01*
X70481501Y-63489745D01*
X70570471Y-63622899D01*
X70631758Y-63770858D01*
X70663000Y-63927925D01*
X70663000Y-64088075D01*
X70631758Y-64245142D01*
X70570471Y-64393101D01*
X70481501Y-64526255D01*
X70368255Y-64639501D01*
X70235101Y-64728471D01*
X70087142Y-64789758D01*
X69930075Y-64821000D01*
X69769925Y-64821000D01*
X69612858Y-64789758D01*
X69464899Y-64728471D01*
X69331745Y-64639501D01*
X69218499Y-64526255D01*
X69129529Y-64393101D01*
X69068242Y-64245142D01*
X69037000Y-64088075D01*
X69037000Y-63927925D01*
X69068242Y-63770858D01*
X69129529Y-63622899D01*
X69218499Y-63489745D01*
X69331745Y-63376499D01*
X69464899Y-63287529D01*
X69612858Y-63226242D01*
X69769925Y-63195000D01*
X69930075Y-63195000D01*
X70087142Y-63226242D01*
X70087142Y-63226242D01*
G37*
G36*
X67547142Y-63226242D02*
G01*
X67695101Y-63287529D01*
X67828255Y-63376499D01*
X67941501Y-63489745D01*
X68030471Y-63622899D01*
X68091758Y-63770858D01*
X68123000Y-63927925D01*
X68123000Y-64088075D01*
X68091758Y-64245142D01*
X68030471Y-64393101D01*
X67941501Y-64526255D01*
X67828255Y-64639501D01*
X67695101Y-64728471D01*
X67547142Y-64789758D01*
X67390075Y-64821000D01*
X67229925Y-64821000D01*
X67072858Y-64789758D01*
X66924899Y-64728471D01*
X66791745Y-64639501D01*
X66678499Y-64526255D01*
X66589529Y-64393101D01*
X66528242Y-64245142D01*
X66497000Y-64088075D01*
X66497000Y-63927925D01*
X66528242Y-63770858D01*
X66589529Y-63622899D01*
X66678499Y-63489745D01*
X66791745Y-63376499D01*
X66924899Y-63287529D01*
X67072858Y-63226242D01*
X67229925Y-63195000D01*
X67390075Y-63195000D01*
X67547142Y-63226242D01*
X67547142Y-63226242D01*
G37*
G36*
X52307142Y-63226242D02*
G01*
X52455101Y-63287529D01*
X52588255Y-63376499D01*
X52701501Y-63489745D01*
X52790471Y-63622899D01*
X52851758Y-63770858D01*
X52883000Y-63927925D01*
X52883000Y-64088075D01*
X52851758Y-64245142D01*
X52790471Y-64393101D01*
X52701501Y-64526255D01*
X52588255Y-64639501D01*
X52455101Y-64728471D01*
X52307142Y-64789758D01*
X52150075Y-64821000D01*
X51989925Y-64821000D01*
X51832858Y-64789758D01*
X51684899Y-64728471D01*
X51551745Y-64639501D01*
X51438499Y-64526255D01*
X51349529Y-64393101D01*
X51288242Y-64245142D01*
X51257000Y-64088075D01*
X51257000Y-63927925D01*
X51288242Y-63770858D01*
X51349529Y-63622899D01*
X51438499Y-63489745D01*
X51551745Y-63376499D01*
X51684899Y-63287529D01*
X51832858Y-63226242D01*
X51989925Y-63195000D01*
X52150075Y-63195000D01*
X52307142Y-63226242D01*
X52307142Y-63226242D01*
G37*
G36*
X112278039Y-53664250D02*
G01*
X112467372Y-53742675D01*
X112601251Y-53798129D01*
X112892134Y-53992491D01*
X113139509Y-54239866D01*
X113333871Y-54530749D01*
X113333871Y-54530750D01*
X113467750Y-54853961D01*
X113536000Y-55197078D01*
X113536000Y-55546922D01*
X113467750Y-55890039D01*
X113389325Y-56079372D01*
X113333871Y-56213251D01*
X113139509Y-56504134D01*
X112892134Y-56751509D01*
X112601251Y-56945871D01*
X112467372Y-57001325D01*
X112278039Y-57079750D01*
X111934922Y-57148000D01*
X111585078Y-57148000D01*
X111241961Y-57079750D01*
X111052628Y-57001325D01*
X110918749Y-56945871D01*
X110627866Y-56751509D01*
X110380491Y-56504134D01*
X110186129Y-56213251D01*
X110130675Y-56079372D01*
X110052250Y-55890039D01*
X109984000Y-55546922D01*
X109984000Y-55197078D01*
X110052250Y-54853961D01*
X110186129Y-54530750D01*
X110186129Y-54530749D01*
X110380491Y-54239866D01*
X110627866Y-53992491D01*
X110918749Y-53798129D01*
X111052628Y-53742675D01*
X111241961Y-53664250D01*
X111585078Y-53596000D01*
X111934922Y-53596000D01*
X112278039Y-53664250D01*
X112278039Y-53664250D01*
G37*
G36*
X119898039Y-53664250D02*
G01*
X120087372Y-53742675D01*
X120221251Y-53798129D01*
X120512134Y-53992491D01*
X120759509Y-54239866D01*
X120953871Y-54530749D01*
X120953871Y-54530750D01*
X121087750Y-54853961D01*
X121156000Y-55197078D01*
X121156000Y-55546922D01*
X121087750Y-55890039D01*
X121009325Y-56079372D01*
X120953871Y-56213251D01*
X120759509Y-56504134D01*
X120512134Y-56751509D01*
X120221251Y-56945871D01*
X120087372Y-57001325D01*
X119898039Y-57079750D01*
X119554922Y-57148000D01*
X119205078Y-57148000D01*
X118861961Y-57079750D01*
X118672628Y-57001325D01*
X118538749Y-56945871D01*
X118247866Y-56751509D01*
X118000491Y-56504134D01*
X117806129Y-56213251D01*
X117750675Y-56079372D01*
X117672250Y-55890039D01*
X117604000Y-55546922D01*
X117604000Y-55197078D01*
X117672250Y-54853961D01*
X117806129Y-54530750D01*
X117806129Y-54530749D01*
X118000491Y-54239866D01*
X118247866Y-53992491D01*
X118538749Y-53798129D01*
X118672628Y-53742675D01*
X118861961Y-53664250D01*
X119205078Y-53596000D01*
X119554922Y-53596000D01*
X119898039Y-53664250D01*
X119898039Y-53664250D01*
G37*
G36*
X127518039Y-53664250D02*
G01*
X127707372Y-53742675D01*
X127841251Y-53798129D01*
X128132134Y-53992491D01*
X128379509Y-54239866D01*
X128573871Y-54530749D01*
X128573871Y-54530750D01*
X128707750Y-54853961D01*
X128776000Y-55197078D01*
X128776000Y-55546922D01*
X128707750Y-55890039D01*
X128629325Y-56079372D01*
X128573871Y-56213251D01*
X128379509Y-56504134D01*
X128132134Y-56751509D01*
X127841251Y-56945871D01*
X127707372Y-57001325D01*
X127518039Y-57079750D01*
X127174922Y-57148000D01*
X126825078Y-57148000D01*
X126481961Y-57079750D01*
X126292628Y-57001325D01*
X126158749Y-56945871D01*
X125867866Y-56751509D01*
X125620491Y-56504134D01*
X125426129Y-56213251D01*
X125370675Y-56079372D01*
X125292250Y-55890039D01*
X125224000Y-55546922D01*
X125224000Y-55197078D01*
X125292250Y-54853961D01*
X125426129Y-54530750D01*
X125426129Y-54530749D01*
X125620491Y-54239866D01*
X125867866Y-53992491D01*
X126158749Y-53798129D01*
X126292628Y-53742675D01*
X126481961Y-53664250D01*
X126825078Y-53596000D01*
X127174922Y-53596000D01*
X127518039Y-53664250D01*
X127518039Y-53664250D01*
G37*
G36*
X89418039Y-53664250D02*
G01*
X89607372Y-53742675D01*
X89741251Y-53798129D01*
X90032134Y-53992491D01*
X90279509Y-54239866D01*
X90473871Y-54530749D01*
X90473871Y-54530750D01*
X90607750Y-54853961D01*
X90676000Y-55197078D01*
X90676000Y-55546922D01*
X90607750Y-55890039D01*
X90529325Y-56079372D01*
X90473871Y-56213251D01*
X90279509Y-56504134D01*
X90032134Y-56751509D01*
X89741251Y-56945871D01*
X89607372Y-57001325D01*
X89418039Y-57079750D01*
X89074922Y-57148000D01*
X88725078Y-57148000D01*
X88381961Y-57079750D01*
X88192628Y-57001325D01*
X88058749Y-56945871D01*
X87767866Y-56751509D01*
X87520491Y-56504134D01*
X87326129Y-56213251D01*
X87270675Y-56079372D01*
X87192250Y-55890039D01*
X87124000Y-55546922D01*
X87124000Y-55197078D01*
X87192250Y-54853961D01*
X87326129Y-54530750D01*
X87326129Y-54530749D01*
X87520491Y-54239866D01*
X87767866Y-53992491D01*
X88058749Y-53798129D01*
X88192628Y-53742675D01*
X88381961Y-53664250D01*
X88725078Y-53596000D01*
X89074922Y-53596000D01*
X89418039Y-53664250D01*
X89418039Y-53664250D01*
G37*
G36*
X97038039Y-53664250D02*
G01*
X97227372Y-53742675D01*
X97361251Y-53798129D01*
X97652134Y-53992491D01*
X97899509Y-54239866D01*
X98093871Y-54530749D01*
X98093871Y-54530750D01*
X98227750Y-54853961D01*
X98296000Y-55197078D01*
X98296000Y-55546922D01*
X98227750Y-55890039D01*
X98149325Y-56079372D01*
X98093871Y-56213251D01*
X97899509Y-56504134D01*
X97652134Y-56751509D01*
X97361251Y-56945871D01*
X97227372Y-57001325D01*
X97038039Y-57079750D01*
X96694922Y-57148000D01*
X96345078Y-57148000D01*
X96001961Y-57079750D01*
X95812628Y-57001325D01*
X95678749Y-56945871D01*
X95387866Y-56751509D01*
X95140491Y-56504134D01*
X94946129Y-56213251D01*
X94890675Y-56079372D01*
X94812250Y-55890039D01*
X94744000Y-55546922D01*
X94744000Y-55197078D01*
X94812250Y-54853961D01*
X94946129Y-54530750D01*
X94946129Y-54530749D01*
X95140491Y-54239866D01*
X95387866Y-53992491D01*
X95678749Y-53798129D01*
X95812628Y-53742675D01*
X96001961Y-53664250D01*
X96345078Y-53596000D01*
X96694922Y-53596000D01*
X97038039Y-53664250D01*
X97038039Y-53664250D01*
G37*
G36*
X104658039Y-53664250D02*
G01*
X104847372Y-53742675D01*
X104981251Y-53798129D01*
X105272134Y-53992491D01*
X105519509Y-54239866D01*
X105713871Y-54530749D01*
X105713871Y-54530750D01*
X105847750Y-54853961D01*
X105916000Y-55197078D01*
X105916000Y-55546922D01*
X105847750Y-55890039D01*
X105769325Y-56079372D01*
X105713871Y-56213251D01*
X105519509Y-56504134D01*
X105272134Y-56751509D01*
X104981251Y-56945871D01*
X104847372Y-57001325D01*
X104658039Y-57079750D01*
X104314922Y-57148000D01*
X103965078Y-57148000D01*
X103621961Y-57079750D01*
X103432628Y-57001325D01*
X103298749Y-56945871D01*
X103007866Y-56751509D01*
X102760491Y-56504134D01*
X102566129Y-56213251D01*
X102510675Y-56079372D01*
X102432250Y-55890039D01*
X102364000Y-55546922D01*
X102364000Y-55197078D01*
X102432250Y-54853961D01*
X102566129Y-54530750D01*
X102566129Y-54530749D01*
X102760491Y-54239866D01*
X103007866Y-53992491D01*
X103298749Y-53798129D01*
X103432628Y-53742675D01*
X103621961Y-53664250D01*
X103965078Y-53596000D01*
X104314922Y-53596000D01*
X104658039Y-53664250D01*
X104658039Y-53664250D01*
G37*
G36*
X51318039Y-53664250D02*
G01*
X51507372Y-53742675D01*
X51641251Y-53798129D01*
X51932134Y-53992491D01*
X52179509Y-54239866D01*
X52373871Y-54530749D01*
X52373871Y-54530750D01*
X52507750Y-54853961D01*
X52576000Y-55197078D01*
X52576000Y-55546922D01*
X52507750Y-55890039D01*
X52429325Y-56079372D01*
X52373871Y-56213251D01*
X52179509Y-56504134D01*
X51932134Y-56751509D01*
X51641251Y-56945871D01*
X51507372Y-57001325D01*
X51318039Y-57079750D01*
X50974922Y-57148000D01*
X50625078Y-57148000D01*
X50281961Y-57079750D01*
X50092628Y-57001325D01*
X49958749Y-56945871D01*
X49667866Y-56751509D01*
X49420491Y-56504134D01*
X49226129Y-56213251D01*
X49170675Y-56079372D01*
X49092250Y-55890039D01*
X49024000Y-55546922D01*
X49024000Y-55197078D01*
X49092250Y-54853961D01*
X49226129Y-54530750D01*
X49226129Y-54530749D01*
X49420491Y-54239866D01*
X49667866Y-53992491D01*
X49958749Y-53798129D01*
X50092628Y-53742675D01*
X50281961Y-53664250D01*
X50625078Y-53596000D01*
X50974922Y-53596000D01*
X51318039Y-53664250D01*
X51318039Y-53664250D01*
G37*
G36*
X58938039Y-53664250D02*
G01*
X59127372Y-53742675D01*
X59261251Y-53798129D01*
X59552134Y-53992491D01*
X59799509Y-54239866D01*
X59993871Y-54530749D01*
X59993871Y-54530750D01*
X60127750Y-54853961D01*
X60196000Y-55197078D01*
X60196000Y-55546922D01*
X60127750Y-55890039D01*
X60049325Y-56079372D01*
X59993871Y-56213251D01*
X59799509Y-56504134D01*
X59552134Y-56751509D01*
X59261251Y-56945871D01*
X59127372Y-57001325D01*
X58938039Y-57079750D01*
X58594922Y-57148000D01*
X58245078Y-57148000D01*
X57901961Y-57079750D01*
X57712628Y-57001325D01*
X57578749Y-56945871D01*
X57287866Y-56751509D01*
X57040491Y-56504134D01*
X56846129Y-56213251D01*
X56790675Y-56079372D01*
X56712250Y-55890039D01*
X56644000Y-55546922D01*
X56644000Y-55197078D01*
X56712250Y-54853961D01*
X56846129Y-54530750D01*
X56846129Y-54530749D01*
X57040491Y-54239866D01*
X57287866Y-53992491D01*
X57578749Y-53798129D01*
X57712628Y-53742675D01*
X57901961Y-53664250D01*
X58245078Y-53596000D01*
X58594922Y-53596000D01*
X58938039Y-53664250D01*
X58938039Y-53664250D01*
G37*
G36*
X157998039Y-53664250D02*
G01*
X158187372Y-53742675D01*
X158321251Y-53798129D01*
X158612134Y-53992491D01*
X158859509Y-54239866D01*
X159053871Y-54530749D01*
X159053871Y-54530750D01*
X159187750Y-54853961D01*
X159256000Y-55197078D01*
X159256000Y-55546922D01*
X159187750Y-55890039D01*
X159109325Y-56079372D01*
X159053871Y-56213251D01*
X158859509Y-56504134D01*
X158612134Y-56751509D01*
X158321251Y-56945871D01*
X158187372Y-57001325D01*
X157998039Y-57079750D01*
X157654922Y-57148000D01*
X157305078Y-57148000D01*
X156961961Y-57079750D01*
X156772628Y-57001325D01*
X156638749Y-56945871D01*
X156347866Y-56751509D01*
X156100491Y-56504134D01*
X155906129Y-56213251D01*
X155850675Y-56079372D01*
X155772250Y-55890039D01*
X155704000Y-55546922D01*
X155704000Y-55197078D01*
X155772250Y-54853961D01*
X155906129Y-54530750D01*
X155906129Y-54530749D01*
X156100491Y-54239866D01*
X156347866Y-53992491D01*
X156638749Y-53798129D01*
X156772628Y-53742675D01*
X156961961Y-53664250D01*
X157305078Y-53596000D01*
X157654922Y-53596000D01*
X157998039Y-53664250D01*
X157998039Y-53664250D01*
G37*
G36*
X165618039Y-53664250D02*
G01*
X165807372Y-53742675D01*
X165941251Y-53798129D01*
X166232134Y-53992491D01*
X166479509Y-54239866D01*
X166673871Y-54530749D01*
X166673871Y-54530750D01*
X166807750Y-54853961D01*
X166876000Y-55197078D01*
X166876000Y-55546922D01*
X166807750Y-55890039D01*
X166729325Y-56079372D01*
X166673871Y-56213251D01*
X166479509Y-56504134D01*
X166232134Y-56751509D01*
X165941251Y-56945871D01*
X165807372Y-57001325D01*
X165618039Y-57079750D01*
X165274922Y-57148000D01*
X164925078Y-57148000D01*
X164581961Y-57079750D01*
X164392628Y-57001325D01*
X164258749Y-56945871D01*
X163967866Y-56751509D01*
X163720491Y-56504134D01*
X163526129Y-56213251D01*
X163470675Y-56079372D01*
X163392250Y-55890039D01*
X163324000Y-55546922D01*
X163324000Y-55197078D01*
X163392250Y-54853961D01*
X163526129Y-54530750D01*
X163526129Y-54530749D01*
X163720491Y-54239866D01*
X163967866Y-53992491D01*
X164258749Y-53798129D01*
X164392628Y-53742675D01*
X164581961Y-53664250D01*
X164925078Y-53596000D01*
X165274922Y-53596000D01*
X165618039Y-53664250D01*
X165618039Y-53664250D01*
G37*
G36*
X150378039Y-53664250D02*
G01*
X150567372Y-53742675D01*
X150701251Y-53798129D01*
X150992134Y-53992491D01*
X151239509Y-54239866D01*
X151433871Y-54530749D01*
X151433871Y-54530750D01*
X151567750Y-54853961D01*
X151636000Y-55197078D01*
X151636000Y-55546922D01*
X151567750Y-55890039D01*
X151489325Y-56079372D01*
X151433871Y-56213251D01*
X151239509Y-56504134D01*
X150992134Y-56751509D01*
X150701251Y-56945871D01*
X150567372Y-57001325D01*
X150378039Y-57079750D01*
X150034922Y-57148000D01*
X149685078Y-57148000D01*
X149341961Y-57079750D01*
X149152628Y-57001325D01*
X149018749Y-56945871D01*
X148727866Y-56751509D01*
X148480491Y-56504134D01*
X148286129Y-56213251D01*
X148230675Y-56079372D01*
X148152250Y-55890039D01*
X148084000Y-55546922D01*
X148084000Y-55197078D01*
X148152250Y-54853961D01*
X148286129Y-54530750D01*
X148286129Y-54530749D01*
X148480491Y-54239866D01*
X148727866Y-53992491D01*
X149018749Y-53798129D01*
X149152628Y-53742675D01*
X149341961Y-53664250D01*
X149685078Y-53596000D01*
X150034922Y-53596000D01*
X150378039Y-53664250D01*
X150378039Y-53664250D01*
G37*
G36*
X142758039Y-53664250D02*
G01*
X142947372Y-53742675D01*
X143081251Y-53798129D01*
X143372134Y-53992491D01*
X143619509Y-54239866D01*
X143813871Y-54530749D01*
X143813871Y-54530750D01*
X143947750Y-54853961D01*
X144016000Y-55197078D01*
X144016000Y-55546922D01*
X143947750Y-55890039D01*
X143869325Y-56079372D01*
X143813871Y-56213251D01*
X143619509Y-56504134D01*
X143372134Y-56751509D01*
X143081251Y-56945871D01*
X142947372Y-57001325D01*
X142758039Y-57079750D01*
X142414922Y-57148000D01*
X142065078Y-57148000D01*
X141721961Y-57079750D01*
X141532628Y-57001325D01*
X141398749Y-56945871D01*
X141107866Y-56751509D01*
X140860491Y-56504134D01*
X140666129Y-56213251D01*
X140610675Y-56079372D01*
X140532250Y-55890039D01*
X140464000Y-55546922D01*
X140464000Y-55197078D01*
X140532250Y-54853961D01*
X140666129Y-54530750D01*
X140666129Y-54530749D01*
X140860491Y-54239866D01*
X141107866Y-53992491D01*
X141398749Y-53798129D01*
X141532628Y-53742675D01*
X141721961Y-53664250D01*
X142065078Y-53596000D01*
X142414922Y-53596000D01*
X142758039Y-53664250D01*
X142758039Y-53664250D01*
G37*
G36*
X66558039Y-53664250D02*
G01*
X66747372Y-53742675D01*
X66881251Y-53798129D01*
X67172134Y-53992491D01*
X67419509Y-54239866D01*
X67613871Y-54530749D01*
X67613871Y-54530750D01*
X67747750Y-54853961D01*
X67816000Y-55197078D01*
X67816000Y-55546922D01*
X67747750Y-55890039D01*
X67669325Y-56079372D01*
X67613871Y-56213251D01*
X67419509Y-56504134D01*
X67172134Y-56751509D01*
X66881251Y-56945871D01*
X66747372Y-57001325D01*
X66558039Y-57079750D01*
X66214922Y-57148000D01*
X65865078Y-57148000D01*
X65521961Y-57079750D01*
X65332628Y-57001325D01*
X65198749Y-56945871D01*
X64907866Y-56751509D01*
X64660491Y-56504134D01*
X64466129Y-56213251D01*
X64410675Y-56079372D01*
X64332250Y-55890039D01*
X64264000Y-55546922D01*
X64264000Y-55197078D01*
X64332250Y-54853961D01*
X64466129Y-54530750D01*
X64466129Y-54530749D01*
X64660491Y-54239866D01*
X64907866Y-53992491D01*
X65198749Y-53798129D01*
X65332628Y-53742675D01*
X65521961Y-53664250D01*
X65865078Y-53596000D01*
X66214922Y-53596000D01*
X66558039Y-53664250D01*
X66558039Y-53664250D01*
G37*
G36*
X74178039Y-53664250D02*
G01*
X74367372Y-53742675D01*
X74501251Y-53798129D01*
X74792134Y-53992491D01*
X75039509Y-54239866D01*
X75233871Y-54530749D01*
X75233871Y-54530750D01*
X75367750Y-54853961D01*
X75436000Y-55197078D01*
X75436000Y-55546922D01*
X75367750Y-55890039D01*
X75289325Y-56079372D01*
X75233871Y-56213251D01*
X75039509Y-56504134D01*
X74792134Y-56751509D01*
X74501251Y-56945871D01*
X74367372Y-57001325D01*
X74178039Y-57079750D01*
X73834922Y-57148000D01*
X73485078Y-57148000D01*
X73141961Y-57079750D01*
X72952628Y-57001325D01*
X72818749Y-56945871D01*
X72527866Y-56751509D01*
X72280491Y-56504134D01*
X72086129Y-56213251D01*
X72030675Y-56079372D01*
X71952250Y-55890039D01*
X71884000Y-55546922D01*
X71884000Y-55197078D01*
X71952250Y-54853961D01*
X72086129Y-54530750D01*
X72086129Y-54530749D01*
X72280491Y-54239866D01*
X72527866Y-53992491D01*
X72818749Y-53798129D01*
X72952628Y-53742675D01*
X73141961Y-53664250D01*
X73485078Y-53596000D01*
X73834922Y-53596000D01*
X74178039Y-53664250D01*
X74178039Y-53664250D01*
G37*
G36*
X81798039Y-53664250D02*
G01*
X81987372Y-53742675D01*
X82121251Y-53798129D01*
X82412134Y-53992491D01*
X82659509Y-54239866D01*
X82853871Y-54530749D01*
X82853871Y-54530750D01*
X82987750Y-54853961D01*
X83056000Y-55197078D01*
X83056000Y-55546922D01*
X82987750Y-55890039D01*
X82909325Y-56079372D01*
X82853871Y-56213251D01*
X82659509Y-56504134D01*
X82412134Y-56751509D01*
X82121251Y-56945871D01*
X81987372Y-57001325D01*
X81798039Y-57079750D01*
X81454922Y-57148000D01*
X81105078Y-57148000D01*
X80761961Y-57079750D01*
X80572628Y-57001325D01*
X80438749Y-56945871D01*
X80147866Y-56751509D01*
X79900491Y-56504134D01*
X79706129Y-56213251D01*
X79650675Y-56079372D01*
X79572250Y-55890039D01*
X79504000Y-55546922D01*
X79504000Y-55197078D01*
X79572250Y-54853961D01*
X79706129Y-54530750D01*
X79706129Y-54530749D01*
X79900491Y-54239866D01*
X80147866Y-53992491D01*
X80438749Y-53798129D01*
X80572628Y-53742675D01*
X80761961Y-53664250D01*
X81105078Y-53596000D01*
X81454922Y-53596000D01*
X81798039Y-53664250D01*
X81798039Y-53664250D01*
G37*
G36*
X135138039Y-53664250D02*
G01*
X135327372Y-53742675D01*
X135461251Y-53798129D01*
X135752134Y-53992491D01*
X135999509Y-54239866D01*
X136193871Y-54530749D01*
X136193871Y-54530750D01*
X136327750Y-54853961D01*
X136396000Y-55197078D01*
X136396000Y-55546922D01*
X136327750Y-55890039D01*
X136249325Y-56079372D01*
X136193871Y-56213251D01*
X135999509Y-56504134D01*
X135752134Y-56751509D01*
X135461251Y-56945871D01*
X135327372Y-57001325D01*
X135138039Y-57079750D01*
X134794922Y-57148000D01*
X134445078Y-57148000D01*
X134101961Y-57079750D01*
X133912628Y-57001325D01*
X133778749Y-56945871D01*
X133487866Y-56751509D01*
X133240491Y-56504134D01*
X133046129Y-56213251D01*
X132990675Y-56079372D01*
X132912250Y-55890039D01*
X132844000Y-55546922D01*
X132844000Y-55197078D01*
X132912250Y-54853961D01*
X133046129Y-54530750D01*
X133046129Y-54530749D01*
X133240491Y-54239866D01*
X133487866Y-53992491D01*
X133778749Y-53798129D01*
X133912628Y-53742675D01*
X134101961Y-53664250D01*
X134445078Y-53596000D01*
X134794922Y-53596000D01*
X135138039Y-53664250D01*
X135138039Y-53664250D01*
G37*
M02*
