M48
;DRILL file {KiCad (5.0.0)} date 12/16/18 13:09:53
;FORMAT={-:-/ absolute / inch / decimal}
FMAT,2
INCH,TZ
T1C0.0157
T2C0.0300
T3C0.0350
T4C0.0394
T5C0.1598
%
G90
G05
M72
T1
X3.74Y-4.09
X3.78Y-4.32
X3.785Y-3.665
X3.825Y-3.63
X3.865Y-3.595
X3.905Y-3.56
X4.145Y-3.36
X4.2444Y-3.73
X4.2444Y-3.845
X4.2444Y-3.96
X4.29Y-4.33
X4.29Y-4.8
X4.305Y-4.075
X4.35Y-3.4762
X4.35Y-3.63
X4.35Y-4.67
X4.375Y-4.075
X4.39Y-3.4375
X4.39Y-3.63
X4.43Y-3.3987
X4.43Y-3.63
X4.445Y-4.075
X4.52Y-4.075
X4.59Y-4.075
X4.66Y-4.075
X4.7689Y-3.73
X4.7689Y-3.845
X4.7689Y-3.96
X5.525Y-3.075
T2
X4.281Y-2.9556
X4.381Y-2.9556
X4.481Y-2.9556
X5.2437Y-2.9556
X5.3437Y-2.9556
X5.4437Y-2.9556
X5.5396Y-3.7533
X5.5396Y-3.8533
X5.5396Y-3.9533
X3.7996Y-2.9556
X3.8996Y-2.9556
X3.9996Y-2.9556
X5.205Y-3.7525
X5.205Y-3.8525
X5.205Y-3.9525
X4.7623Y-2.9556
X4.8623Y-2.9556
X4.9623Y-2.9556
X5.5396Y-3.25
X5.5396Y-3.35
X5.5396Y-3.45
X5.725Y-2.9556
X5.825Y-2.9556
X5.925Y-2.9556
T3
X3.86Y-4.23
X3.96Y-4.23
X4.06Y-4.23
X4.44Y-4.78
X4.54Y-4.78
X4.64Y-4.78
T4
X3.711Y-3.19
X3.711Y-3.29
X3.711Y-4.89
X3.711Y-4.99
X3.811Y-3.19
X3.811Y-3.29
X3.811Y-4.89
X3.811Y-4.99
X3.911Y-3.19
X3.911Y-3.29
X3.911Y-4.89
X3.911Y-4.99
X4.011Y-3.19
X4.011Y-3.29
X4.011Y-4.89
X4.011Y-4.99
X4.111Y-3.19
X4.111Y-3.29
X4.111Y-4.89
X4.111Y-4.99
X4.211Y-3.19
X4.211Y-3.29
X4.211Y-4.89
X4.211Y-4.99
X4.311Y-3.19
X4.311Y-3.29
X4.311Y-4.89
X4.311Y-4.99
X4.411Y-3.19
X4.411Y-3.29
X4.411Y-4.89
X4.411Y-4.99
X4.511Y-3.19
X4.511Y-3.29
X4.511Y-4.89
X4.511Y-4.99
X4.611Y-3.19
X4.611Y-3.29
X4.611Y-4.89
X4.611Y-4.99
T5
X4.949Y-4.285
X4.949Y-4.6
X4.949Y-4.915
T0
M30
