G04 #@! TF.GenerationSoftware,KiCad,Pcbnew,(5.0.0)*
G04 #@! TF.CreationDate,2018-12-16T13:09:34-06:00*
G04 #@! TF.ProjectId,ShimbleBoard_Hardware,5368696D626C65426F6172645F486172,rev?*
G04 #@! TF.SameCoordinates,Original*
G04 #@! TF.FileFunction,Soldermask,Bot*
G04 #@! TF.FilePolarity,Negative*
%FSLAX46Y46*%
G04 Gerber Fmt 4.6, Leading zero omitted, Abs format (unit mm)*
G04 Created by KiCad (PCBNEW (5.0.0)) date 12/16/18 13:09:34*
%MOMM*%
%LPD*%
G01*
G04 APERTURE LIST*
%ADD10C,1.924000*%
%ADD11C,5.480000*%
%ADD12C,1.920000*%
%ADD13C,0.100000*%
%ADD14C,1.350000*%
G04 APERTURE END LIST*
D10*
G04 #@! TO.C,Conn6*
X145415000Y-75073001D03*
X147955000Y-75073001D03*
X150495000Y-75073001D03*
G04 #@! TD*
G04 #@! TO.C,Conn2*
X96510001Y-75073001D03*
X99050001Y-75073001D03*
X101590001Y-75073001D03*
G04 #@! TD*
G04 #@! TO.C,Conn3*
X108736250Y-75073001D03*
X111276250Y-75073001D03*
X113816250Y-75073001D03*
G04 #@! TD*
G04 #@! TO.C,Conn4*
X120962499Y-75073001D03*
X123502499Y-75073001D03*
X126042499Y-75073001D03*
G04 #@! TD*
G04 #@! TO.C,Conn5*
X133188748Y-75073001D03*
X135728748Y-75073001D03*
X138268748Y-75073001D03*
G04 #@! TD*
G04 #@! TO.C,Conn7*
X140705043Y-82550000D03*
X140705043Y-85090000D03*
X140705043Y-87630000D03*
G04 #@! TD*
G04 #@! TO.C,Conn8*
X140705043Y-95334522D03*
X140705043Y-97874522D03*
X140705043Y-100414522D03*
G04 #@! TD*
D11*
G04 #@! TO.C,Conn1*
X125704600Y-124840000D03*
X125704600Y-116839000D03*
X125704600Y-108840000D03*
G04 #@! TD*
D10*
G04 #@! TO.C,U2*
X103124000Y-107442000D03*
X100584000Y-107442000D03*
X98044000Y-107442000D03*
G04 #@! TD*
D12*
G04 #@! TO.C,U1*
X99339001Y-81025001D03*
X96799001Y-81025001D03*
X94259001Y-81025001D03*
X117119001Y-83565001D03*
X114579001Y-83565001D03*
X112039001Y-83565001D03*
X109499001Y-83565001D03*
X106959001Y-83565001D03*
X104419001Y-83565001D03*
X101879001Y-83565001D03*
X99339001Y-83565001D03*
X96799001Y-83565001D03*
X94259001Y-83565001D03*
X117119001Y-126745001D03*
X112039001Y-126745001D03*
X106959001Y-126745001D03*
X104419001Y-126745001D03*
X101879001Y-126745001D03*
X99339001Y-126745001D03*
X96799001Y-126745001D03*
X117119001Y-124205001D03*
X112039001Y-124205001D03*
X101879001Y-124205001D03*
X99339001Y-124205001D03*
X96799001Y-124205001D03*
X94259001Y-124205001D03*
X106959001Y-124205001D03*
X109499001Y-124205001D03*
X114579001Y-126745001D03*
X101879001Y-81025001D03*
X104419001Y-81025001D03*
X114579001Y-124205001D03*
X109499001Y-126745001D03*
X112039001Y-81025001D03*
X109499001Y-81025001D03*
X104419001Y-124205001D03*
X106959001Y-81025001D03*
X114579001Y-81025001D03*
X117119001Y-81025001D03*
X94259001Y-126745001D03*
G04 #@! TD*
D13*
G04 #@! TO.C,C2*
G36*
X108320581Y-104686625D02*
X108353343Y-104691485D01*
X108385471Y-104699533D01*
X108416656Y-104710691D01*
X108446596Y-104724852D01*
X108475005Y-104741879D01*
X108501608Y-104761609D01*
X108526149Y-104783851D01*
X108548391Y-104808392D01*
X108568121Y-104834995D01*
X108585148Y-104863404D01*
X108599309Y-104893344D01*
X108610467Y-104924529D01*
X108618515Y-104956657D01*
X108623375Y-104989419D01*
X108625000Y-105022500D01*
X108625000Y-105797500D01*
X108623375Y-105830581D01*
X108618515Y-105863343D01*
X108610467Y-105895471D01*
X108599309Y-105926656D01*
X108585148Y-105956596D01*
X108568121Y-105985005D01*
X108548391Y-106011608D01*
X108526149Y-106036149D01*
X108501608Y-106058391D01*
X108475005Y-106078121D01*
X108446596Y-106095148D01*
X108416656Y-106109309D01*
X108385471Y-106120467D01*
X108353343Y-106128515D01*
X108320581Y-106133375D01*
X108287500Y-106135000D01*
X107612500Y-106135000D01*
X107579419Y-106133375D01*
X107546657Y-106128515D01*
X107514529Y-106120467D01*
X107483344Y-106109309D01*
X107453404Y-106095148D01*
X107424995Y-106078121D01*
X107398392Y-106058391D01*
X107373851Y-106036149D01*
X107351609Y-106011608D01*
X107331879Y-105985005D01*
X107314852Y-105956596D01*
X107300691Y-105926656D01*
X107289533Y-105895471D01*
X107281485Y-105863343D01*
X107276625Y-105830581D01*
X107275000Y-105797500D01*
X107275000Y-105022500D01*
X107276625Y-104989419D01*
X107281485Y-104956657D01*
X107289533Y-104924529D01*
X107300691Y-104893344D01*
X107314852Y-104863404D01*
X107331879Y-104834995D01*
X107351609Y-104808392D01*
X107373851Y-104783851D01*
X107398392Y-104761609D01*
X107424995Y-104741879D01*
X107453404Y-104724852D01*
X107483344Y-104710691D01*
X107514529Y-104699533D01*
X107546657Y-104691485D01*
X107579419Y-104686625D01*
X107612500Y-104685000D01*
X108287500Y-104685000D01*
X108320581Y-104686625D01*
X108320581Y-104686625D01*
G37*
D14*
X107950000Y-105410000D03*
D13*
G36*
X108320581Y-106436625D02*
X108353343Y-106441485D01*
X108385471Y-106449533D01*
X108416656Y-106460691D01*
X108446596Y-106474852D01*
X108475005Y-106491879D01*
X108501608Y-106511609D01*
X108526149Y-106533851D01*
X108548391Y-106558392D01*
X108568121Y-106584995D01*
X108585148Y-106613404D01*
X108599309Y-106643344D01*
X108610467Y-106674529D01*
X108618515Y-106706657D01*
X108623375Y-106739419D01*
X108625000Y-106772500D01*
X108625000Y-107547500D01*
X108623375Y-107580581D01*
X108618515Y-107613343D01*
X108610467Y-107645471D01*
X108599309Y-107676656D01*
X108585148Y-107706596D01*
X108568121Y-107735005D01*
X108548391Y-107761608D01*
X108526149Y-107786149D01*
X108501608Y-107808391D01*
X108475005Y-107828121D01*
X108446596Y-107845148D01*
X108416656Y-107859309D01*
X108385471Y-107870467D01*
X108353343Y-107878515D01*
X108320581Y-107883375D01*
X108287500Y-107885000D01*
X107612500Y-107885000D01*
X107579419Y-107883375D01*
X107546657Y-107878515D01*
X107514529Y-107870467D01*
X107483344Y-107859309D01*
X107453404Y-107845148D01*
X107424995Y-107828121D01*
X107398392Y-107808391D01*
X107373851Y-107786149D01*
X107351609Y-107761608D01*
X107331879Y-107735005D01*
X107314852Y-107706596D01*
X107300691Y-107676656D01*
X107289533Y-107645471D01*
X107281485Y-107613343D01*
X107276625Y-107580581D01*
X107275000Y-107547500D01*
X107275000Y-106772500D01*
X107276625Y-106739419D01*
X107281485Y-106706657D01*
X107289533Y-106674529D01*
X107300691Y-106643344D01*
X107314852Y-106613404D01*
X107331879Y-106584995D01*
X107351609Y-106558392D01*
X107373851Y-106533851D01*
X107398392Y-106511609D01*
X107424995Y-106491879D01*
X107453404Y-106474852D01*
X107483344Y-106460691D01*
X107514529Y-106449533D01*
X107546657Y-106441485D01*
X107579419Y-106436625D01*
X107612500Y-106435000D01*
X108287500Y-106435000D01*
X108320581Y-106436625D01*
X108320581Y-106436625D01*
G37*
D14*
X107950000Y-107160000D03*
G04 #@! TD*
D10*
G04 #@! TO.C,Conn9*
X132207000Y-100393500D03*
X132207000Y-97853500D03*
X132207000Y-95313500D03*
G04 #@! TD*
G04 #@! TO.C,U3*
X117856000Y-121412000D03*
X115316000Y-121412000D03*
X112776000Y-121412000D03*
G04 #@! TD*
M02*
