G04 #@! TF.GenerationSoftware,KiCad,Pcbnew,(5.0.0)*
G04 #@! TF.CreationDate,2018-12-16T13:09:34-06:00*
G04 #@! TF.ProjectId,ShimbleBoard_Hardware,5368696D626C65426F6172645F486172,rev?*
G04 #@! TF.SameCoordinates,Original*
G04 #@! TF.FileFunction,Copper,L2,Bot,Signal*
G04 #@! TF.FilePolarity,Positive*
%FSLAX46Y46*%
G04 Gerber Fmt 4.6, Leading zero omitted, Abs format (unit mm)*
G04 Created by KiCad (PCBNEW (5.0.0)) date 12/16/18 13:09:34*
%MOMM*%
%LPD*%
G01*
G04 APERTURE LIST*
G04 #@! TA.AperFunction,ComponentPad*
%ADD10C,1.524000*%
G04 #@! TD*
G04 #@! TA.AperFunction,ComponentPad*
%ADD11C,5.080000*%
G04 #@! TD*
G04 #@! TA.AperFunction,ComponentPad*
%ADD12C,1.520000*%
G04 #@! TD*
G04 #@! TA.AperFunction,Conductor*
%ADD13C,0.100000*%
G04 #@! TD*
G04 #@! TA.AperFunction,SMDPad,CuDef*
%ADD14C,0.950000*%
G04 #@! TD*
G04 #@! TA.AperFunction,ViaPad*
%ADD15C,0.800000*%
G04 #@! TD*
G04 #@! TA.AperFunction,Conductor*
%ADD16C,0.381000*%
G04 #@! TD*
G04 #@! TA.AperFunction,Conductor*
%ADD17C,0.762000*%
G04 #@! TD*
G04 #@! TA.AperFunction,Conductor*
%ADD18C,0.254000*%
G04 #@! TD*
G04 APERTURE END LIST*
D10*
G04 #@! TO.P,Conn6,1*
G04 #@! TO.N,+5VA*
X145415000Y-75073001D03*
G04 #@! TO.P,Conn6,2*
G04 #@! TO.N,Servo_5_Ctrl*
X147955000Y-75073001D03*
G04 #@! TO.P,Conn6,3*
G04 #@! TO.N,GND*
X150495000Y-75073001D03*
G04 #@! TD*
G04 #@! TO.P,Conn2,1*
G04 #@! TO.N,+5VA*
X96510001Y-75073001D03*
G04 #@! TO.P,Conn2,2*
G04 #@! TO.N,Servo_1_Ctrl*
X99050001Y-75073001D03*
G04 #@! TO.P,Conn2,3*
G04 #@! TO.N,GND*
X101590001Y-75073001D03*
G04 #@! TD*
G04 #@! TO.P,Conn3,1*
G04 #@! TO.N,+5VA*
X108736250Y-75073001D03*
G04 #@! TO.P,Conn3,2*
G04 #@! TO.N,Servo_2_Ctrl*
X111276250Y-75073001D03*
G04 #@! TO.P,Conn3,3*
G04 #@! TO.N,GND*
X113816250Y-75073001D03*
G04 #@! TD*
G04 #@! TO.P,Conn4,1*
G04 #@! TO.N,+5VA*
X120962499Y-75073001D03*
G04 #@! TO.P,Conn4,2*
G04 #@! TO.N,Servo_3_Ctrl*
X123502499Y-75073001D03*
G04 #@! TO.P,Conn4,3*
G04 #@! TO.N,GND*
X126042499Y-75073001D03*
G04 #@! TD*
G04 #@! TO.P,Conn5,1*
G04 #@! TO.N,+5VA*
X133188748Y-75073001D03*
G04 #@! TO.P,Conn5,2*
G04 #@! TO.N,Servo_4_Ctrl*
X135728748Y-75073001D03*
G04 #@! TO.P,Conn5,3*
G04 #@! TO.N,GND*
X138268748Y-75073001D03*
G04 #@! TD*
G04 #@! TO.P,Conn7,1*
G04 #@! TO.N,+5VA*
X140705043Y-82550000D03*
G04 #@! TO.P,Conn7,2*
G04 #@! TO.N,Servo_6_Ctrl*
X140705043Y-85090000D03*
G04 #@! TO.P,Conn7,3*
G04 #@! TO.N,GND*
X140705043Y-87630000D03*
G04 #@! TD*
G04 #@! TO.P,Conn8,1*
G04 #@! TO.N,+5VA*
X140705043Y-95334522D03*
G04 #@! TO.P,Conn8,2*
G04 #@! TO.N,Servo_7_Ctrl*
X140705043Y-97874522D03*
G04 #@! TO.P,Conn8,3*
G04 #@! TO.N,GND*
X140705043Y-100414522D03*
G04 #@! TD*
D11*
G04 #@! TO.P,Conn1,1*
G04 #@! TO.N,GND*
X125704600Y-124840000D03*
G04 #@! TO.P,Conn1,2*
G04 #@! TO.N,V+Log*
X125704600Y-116839000D03*
G04 #@! TO.P,Conn1,3*
G04 #@! TO.N,V+Act*
X125704600Y-108840000D03*
G04 #@! TD*
D10*
G04 #@! TO.P,U2,3*
G04 #@! TO.N,+5VA*
X103124000Y-107442000D03*
G04 #@! TO.P,U2,2*
G04 #@! TO.N,GND*
X100584000Y-107442000D03*
G04 #@! TO.P,U2,1*
G04 #@! TO.N,V+Act*
X98044000Y-107442000D03*
G04 #@! TD*
D12*
G04 #@! TO.P,U1,PP5*
G04 #@! TO.N,Net-(U1-PadPP5)*
X99339001Y-81025001D03*
G04 #@! TO.P,U1,PM7*
G04 #@! TO.N,Servo_1_Ctrl*
X96799001Y-81025001D03*
G04 #@! TO.P,U1,GND*
G04 #@! TO.N,GND*
X94259001Y-81025001D03*
G04 #@! TO.P,U1,PK7*
G04 #@! TO.N,Net-(U1-PadPK7)*
X117119001Y-83565001D03*
G04 #@! TO.P,U1,PK6*
G04 #@! TO.N,Net-(U1-PadPK6)*
X114579001Y-83565001D03*
G04 #@! TO.P,U1,PH1*
G04 #@! TO.N,Net-(U1-PadPH1)*
X112039001Y-83565001D03*
G04 #@! TO.P,U1,PH0*
G04 #@! TO.N,Net-(U1-PadPH0)*
X109499001Y-83565001D03*
G04 #@! TO.P,U1,PM2*
G04 #@! TO.N,Net-(U1-PadPM2)*
X106959001Y-83565001D03*
G04 #@! TO.P,U1,PM1*
G04 #@! TO.N,Servo_4_Ctrl*
X104419001Y-83565001D03*
G04 #@! TO.P,U1,PM0*
G04 #@! TO.N,Servo_5_Ctrl*
X101879001Y-83565001D03*
G04 #@! TO.P,U1,PK5*
G04 #@! TO.N,Servo_6_Ctrl*
X99339001Y-83565001D03*
G04 #@! TO.P,U1,PK4*
G04 #@! TO.N,Servo_7_Ctrl*
X96799001Y-83565001D03*
G04 #@! TO.P,U1,PG1*
G04 #@! TO.N,Servo_8_Ctrl*
X94259001Y-83565001D03*
G04 #@! TO.P,U1,PN4*
G04 #@! TO.N,Net-(U1-PadPN4)*
X117119001Y-126745001D03*
G04 #@! TO.P,U1,PP4*
G04 #@! TO.N,Net-(U1-PadPP4)*
X112039001Y-126745001D03*
G04 #@! TO.P,U1,PD5*
G04 #@! TO.N,Net-(U1-PadPD5)*
X106959001Y-126745001D03*
G04 #@! TO.P,U1,PD4*
G04 #@! TO.N,Net-(U1-PadPD4)*
X104419001Y-126745001D03*
G04 #@! TO.P,U1,PP1*
G04 #@! TO.N,Net-(U1-PadPP1)*
X101879001Y-126745001D03*
G04 #@! TO.P,U1,PP0*
G04 #@! TO.N,Net-(U1-PadPP0)*
X99339001Y-126745001D03*
G04 #@! TO.P,U1,PD2*
G04 #@! TO.N,Net-(U1-PadPD2)*
X96799001Y-126745001D03*
G04 #@! TO.P,U1,PA5*
G04 #@! TO.N,Net-(U1-PadPA5)*
X117119001Y-124205001D03*
G04 #@! TO.P,U1,PK3*
G04 #@! TO.N,Net-(U1-PadPK3)*
X112039001Y-124205001D03*
G04 #@! TO.P,U1,PB5*
G04 #@! TO.N,Net-(U1-PadPB5)*
X101879001Y-124205001D03*
G04 #@! TO.P,U1,PB4*
G04 #@! TO.N,Net-(U1-PadPB4)*
X99339001Y-124205001D03*
G04 #@! TO.P,U1,GND*
G04 #@! TO.N,GND*
X96799001Y-124205001D03*
G04 #@! TO.P,U1,+5V*
G04 #@! TO.N,+5VL*
X94259001Y-124205001D03*
G04 #@! TO.P,U1,PK1*
G04 #@! TO.N,Net-(U1-PadPK1)*
X106959001Y-124205001D03*
G04 #@! TO.P,U1,PK2*
G04 #@! TO.N,Net-(U1-PadPK2)*
X109499001Y-124205001D03*
G04 #@! TO.P,U1,PN5*
G04 #@! TO.N,Net-(U1-PadPN5)*
X114579001Y-126745001D03*
G04 #@! TO.P,U1,PA7*
G04 #@! TO.N,Servo_2_Ctrl*
X101879001Y-81025001D03*
G04 #@! TO.P,U1,Rese*
G04 #@! TO.N,Net-(U1-PadRese)*
X104419001Y-81025001D03*
G04 #@! TO.P,U1,PA4*
G04 #@! TO.N,Net-(U1-PadPA4)*
X114579001Y-124205001D03*
G04 #@! TO.P,U1,PQ0*
G04 #@! TO.N,Net-(U1-PadPQ0)*
X109499001Y-126745001D03*
G04 #@! TO.P,U1,PP3*
G04 #@! TO.N,Net-(U1-PadPP3)*
X112039001Y-81025001D03*
G04 #@! TO.P,U1,PQ3*
G04 #@! TO.N,Net-(U1-PadPQ3)*
X109499001Y-81025001D03*
G04 #@! TO.P,U1,PK0*
G04 #@! TO.N,Net-(U1-PadPK0)*
X104419001Y-124205001D03*
G04 #@! TO.P,U1,PQ2*
G04 #@! TO.N,Net-(U1-PadPQ2)*
X106959001Y-81025001D03*
G04 #@! TO.P,U1,PQ1*
G04 #@! TO.N,Net-(U1-PadPQ1)*
X114579001Y-81025001D03*
G04 #@! TO.P,U1,PM6*
G04 #@! TO.N,Servo_3_Ctrl*
X117119001Y-81025001D03*
G04 #@! TO.P,U1,+3V3*
G04 #@! TO.N,Net-(U1-Pad+3V3)*
X94259001Y-126745001D03*
G04 #@! TD*
D13*
G04 #@! TO.N,V+Act*
G04 #@! TO.C,C2*
G36*
X108210779Y-104886144D02*
X108233834Y-104889563D01*
X108256443Y-104895227D01*
X108278387Y-104903079D01*
X108299457Y-104913044D01*
X108319448Y-104925026D01*
X108338168Y-104938910D01*
X108355438Y-104954562D01*
X108371090Y-104971832D01*
X108384974Y-104990552D01*
X108396956Y-105010543D01*
X108406921Y-105031613D01*
X108414773Y-105053557D01*
X108420437Y-105076166D01*
X108423856Y-105099221D01*
X108425000Y-105122500D01*
X108425000Y-105697500D01*
X108423856Y-105720779D01*
X108420437Y-105743834D01*
X108414773Y-105766443D01*
X108406921Y-105788387D01*
X108396956Y-105809457D01*
X108384974Y-105829448D01*
X108371090Y-105848168D01*
X108355438Y-105865438D01*
X108338168Y-105881090D01*
X108319448Y-105894974D01*
X108299457Y-105906956D01*
X108278387Y-105916921D01*
X108256443Y-105924773D01*
X108233834Y-105930437D01*
X108210779Y-105933856D01*
X108187500Y-105935000D01*
X107712500Y-105935000D01*
X107689221Y-105933856D01*
X107666166Y-105930437D01*
X107643557Y-105924773D01*
X107621613Y-105916921D01*
X107600543Y-105906956D01*
X107580552Y-105894974D01*
X107561832Y-105881090D01*
X107544562Y-105865438D01*
X107528910Y-105848168D01*
X107515026Y-105829448D01*
X107503044Y-105809457D01*
X107493079Y-105788387D01*
X107485227Y-105766443D01*
X107479563Y-105743834D01*
X107476144Y-105720779D01*
X107475000Y-105697500D01*
X107475000Y-105122500D01*
X107476144Y-105099221D01*
X107479563Y-105076166D01*
X107485227Y-105053557D01*
X107493079Y-105031613D01*
X107503044Y-105010543D01*
X107515026Y-104990552D01*
X107528910Y-104971832D01*
X107544562Y-104954562D01*
X107561832Y-104938910D01*
X107580552Y-104925026D01*
X107600543Y-104913044D01*
X107621613Y-104903079D01*
X107643557Y-104895227D01*
X107666166Y-104889563D01*
X107689221Y-104886144D01*
X107712500Y-104885000D01*
X108187500Y-104885000D01*
X108210779Y-104886144D01*
X108210779Y-104886144D01*
G37*
D14*
G04 #@! TD*
G04 #@! TO.P,C2,2*
G04 #@! TO.N,V+Act*
X107950000Y-105410000D03*
D13*
G04 #@! TO.N,GND*
G04 #@! TO.C,C2*
G36*
X108210779Y-106636144D02*
X108233834Y-106639563D01*
X108256443Y-106645227D01*
X108278387Y-106653079D01*
X108299457Y-106663044D01*
X108319448Y-106675026D01*
X108338168Y-106688910D01*
X108355438Y-106704562D01*
X108371090Y-106721832D01*
X108384974Y-106740552D01*
X108396956Y-106760543D01*
X108406921Y-106781613D01*
X108414773Y-106803557D01*
X108420437Y-106826166D01*
X108423856Y-106849221D01*
X108425000Y-106872500D01*
X108425000Y-107447500D01*
X108423856Y-107470779D01*
X108420437Y-107493834D01*
X108414773Y-107516443D01*
X108406921Y-107538387D01*
X108396956Y-107559457D01*
X108384974Y-107579448D01*
X108371090Y-107598168D01*
X108355438Y-107615438D01*
X108338168Y-107631090D01*
X108319448Y-107644974D01*
X108299457Y-107656956D01*
X108278387Y-107666921D01*
X108256443Y-107674773D01*
X108233834Y-107680437D01*
X108210779Y-107683856D01*
X108187500Y-107685000D01*
X107712500Y-107685000D01*
X107689221Y-107683856D01*
X107666166Y-107680437D01*
X107643557Y-107674773D01*
X107621613Y-107666921D01*
X107600543Y-107656956D01*
X107580552Y-107644974D01*
X107561832Y-107631090D01*
X107544562Y-107615438D01*
X107528910Y-107598168D01*
X107515026Y-107579448D01*
X107503044Y-107559457D01*
X107493079Y-107538387D01*
X107485227Y-107516443D01*
X107479563Y-107493834D01*
X107476144Y-107470779D01*
X107475000Y-107447500D01*
X107475000Y-106872500D01*
X107476144Y-106849221D01*
X107479563Y-106826166D01*
X107485227Y-106803557D01*
X107493079Y-106781613D01*
X107503044Y-106760543D01*
X107515026Y-106740552D01*
X107528910Y-106721832D01*
X107544562Y-106704562D01*
X107561832Y-106688910D01*
X107580552Y-106675026D01*
X107600543Y-106663044D01*
X107621613Y-106653079D01*
X107643557Y-106645227D01*
X107666166Y-106639563D01*
X107689221Y-106636144D01*
X107712500Y-106635000D01*
X108187500Y-106635000D01*
X108210779Y-106636144D01*
X108210779Y-106636144D01*
G37*
D14*
G04 #@! TD*
G04 #@! TO.P,C2,1*
G04 #@! TO.N,GND*
X107950000Y-107160000D03*
D10*
G04 #@! TO.P,Conn9,3*
G04 #@! TO.N,GND*
X132207000Y-100393500D03*
G04 #@! TO.P,Conn9,2*
G04 #@! TO.N,Servo_8_Ctrl*
X132207000Y-97853500D03*
G04 #@! TO.P,Conn9,1*
G04 #@! TO.N,+5VA*
X132207000Y-95313500D03*
G04 #@! TD*
G04 #@! TO.P,U3,1*
G04 #@! TO.N,V+Log*
X117856000Y-121412000D03*
G04 #@! TO.P,U3,2*
G04 #@! TO.N,GND*
X115316000Y-121412000D03*
G04 #@! TO.P,U3,3*
G04 #@! TO.N,+5VL*
X112776000Y-121412000D03*
G04 #@! TD*
D15*
G04 #@! TO.N,GND*
X107809000Y-94742000D03*
X107809000Y-97663000D03*
X107809000Y-100584000D03*
X109347000Y-103505000D03*
X111125000Y-103505000D03*
X121130000Y-94742000D03*
X121130000Y-97663000D03*
X121130000Y-100584000D03*
X116586000Y-103505000D03*
X118364000Y-103505000D03*
X114808000Y-103505000D03*
X110490000Y-118618000D03*
X108966000Y-121920000D03*
X108966000Y-109982000D03*
X112903000Y-103505000D03*
G04 #@! TO.N,Servo_1_Ctrl*
X99187000Y-90424000D03*
G04 #@! TO.N,Servo_2_Ctrl*
X98171000Y-91313000D03*
G04 #@! TO.N,Servo_3_Ctrl*
X97155000Y-92202000D03*
G04 #@! TO.N,Servo_4_Ctrl*
X105283000Y-85344000D03*
X96139000Y-93091000D03*
G04 #@! TO.N,Servo_5_Ctrl*
X112522000Y-92202000D03*
X112522000Y-86328250D03*
X140335000Y-78105000D03*
G04 #@! TO.N,Servo_6_Ctrl*
X111506000Y-92202000D03*
X111506000Y-87312500D03*
G04 #@! TO.N,Servo_7_Ctrl*
X110490000Y-92202000D03*
X110490000Y-88296750D03*
G04 #@! TO.N,+5VA*
X96012000Y-109728000D03*
X94996000Y-103886000D03*
G04 #@! TD*
D16*
G04 #@! TO.N,Servo_1_Ctrl*
X98552000Y-90424000D02*
X99187000Y-90424000D01*
X97949502Y-89821502D02*
X98552000Y-90424000D01*
X96799001Y-81025001D02*
X97949502Y-82175502D01*
X97949502Y-82175502D02*
X97949502Y-89821502D01*
G04 #@! TO.N,Servo_2_Ctrl*
X101119002Y-81785000D02*
X101879001Y-81025001D01*
X100728500Y-82175502D02*
X101119002Y-81785000D01*
X100728500Y-90787500D02*
X100728500Y-82175502D01*
X98171000Y-91313000D02*
X100203000Y-91313000D01*
X100203000Y-91313000D02*
X100728500Y-90787500D01*
G04 #@! TO.N,Servo_3_Ctrl*
X116359002Y-81785000D02*
X117119001Y-81025001D01*
X102489000Y-92202000D02*
X103029502Y-91661498D01*
X103029502Y-91661498D02*
X103029502Y-83251758D01*
X103029502Y-83251758D02*
X104105758Y-82175502D01*
X104105758Y-82175502D02*
X115968500Y-82175502D01*
X115968500Y-82175502D02*
X116359002Y-81785000D01*
X97155000Y-92202000D02*
X102489000Y-92202000D01*
G04 #@! TO.N,Servo_4_Ctrl*
X105283000Y-92202000D02*
X105283000Y-85344000D01*
X105283000Y-92583000D02*
X105283000Y-92202000D01*
X96139000Y-93091000D02*
X104775000Y-93091000D01*
X104775000Y-93091000D02*
X105283000Y-92583000D01*
G04 #@! TO.N,Servo_5_Ctrl*
X112522000Y-92202000D02*
X112522000Y-86328250D01*
X147955000Y-76150631D02*
X147955000Y-75073001D01*
X147955000Y-77343000D02*
X147955000Y-76150631D01*
X140335000Y-78105000D02*
X147193000Y-78105000D01*
X147193000Y-78105000D02*
X147955000Y-77343000D01*
G04 #@! TO.N,Servo_6_Ctrl*
X111506000Y-92202000D02*
X111506000Y-87312500D01*
G04 #@! TO.N,Servo_7_Ctrl*
X110490000Y-92202000D02*
X110490000Y-88296750D01*
D17*
G04 #@! TO.N,V+Act*
X125704600Y-108840000D02*
X122274600Y-105410000D01*
X100076000Y-105410000D02*
X98044000Y-107442000D01*
X122274600Y-105410000D02*
X100076000Y-105410000D01*
G04 #@! TO.N,+5VA*
X96012000Y-109728000D02*
X94996000Y-108712000D01*
X94996000Y-108712000D02*
X94996000Y-103886000D01*
G04 #@! TD*
D18*
G04 #@! TO.N,GND*
G36*
X152253922Y-62643331D02*
X152586746Y-62794657D01*
X152863720Y-63033313D01*
X153062580Y-63340116D01*
X153174618Y-63714748D01*
X153189000Y-63908274D01*
X153189001Y-105611627D01*
X153129669Y-106025922D01*
X152978343Y-106358746D01*
X152739687Y-106635720D01*
X152432885Y-106834579D01*
X152058252Y-106946618D01*
X151864726Y-106961000D01*
X136216388Y-106961000D01*
X136144000Y-106946601D01*
X136071612Y-106961000D01*
X135857217Y-107003646D01*
X135614095Y-107166095D01*
X135451646Y-107409217D01*
X135394601Y-107696000D01*
X135409000Y-107768388D01*
X135409001Y-128451607D01*
X135394601Y-128524000D01*
X135451646Y-128810783D01*
X135614095Y-129053905D01*
X135857217Y-129216354D01*
X136071612Y-129259000D01*
X136144000Y-129273399D01*
X136216388Y-129259000D01*
X151839634Y-129259000D01*
X152253922Y-129318331D01*
X152586746Y-129469657D01*
X152863720Y-129708313D01*
X153062580Y-130015116D01*
X153174618Y-130389748D01*
X153189001Y-130583288D01*
X153189000Y-138055046D01*
X153121443Y-138075700D01*
X153025685Y-138103702D01*
X153017534Y-138107468D01*
X152496019Y-138352318D01*
X152412606Y-138407110D01*
X152328608Y-138460829D01*
X152321841Y-138466731D01*
X151890009Y-138848113D01*
X151825341Y-138924097D01*
X151759781Y-138999250D01*
X151754947Y-139006810D01*
X151754944Y-139006813D01*
X151754944Y-139006814D01*
X151447511Y-139494067D01*
X151406784Y-139585114D01*
X151364938Y-139675677D01*
X151362417Y-139684296D01*
X151204096Y-140238249D01*
X151190558Y-140337083D01*
X151175814Y-140435737D01*
X151175814Y-140444717D01*
X151179334Y-141020840D01*
X151194076Y-141119483D01*
X151207616Y-141218326D01*
X151210136Y-141226944D01*
X151375212Y-141778922D01*
X151417071Y-141869513D01*
X151457787Y-141960534D01*
X151462624Y-141968099D01*
X151775987Y-142451558D01*
X151841558Y-142526723D01*
X151906214Y-142602694D01*
X151912977Y-142608593D01*
X151912981Y-142608597D01*
X151912986Y-142608600D01*
X152349440Y-142984673D01*
X152433465Y-143038410D01*
X152516851Y-143093184D01*
X152525002Y-143096950D01*
X153049469Y-143335411D01*
X153145237Y-143363416D01*
X153189001Y-143376796D01*
X153189000Y-151331634D01*
X153129669Y-151745922D01*
X152978343Y-152078746D01*
X152739687Y-152355720D01*
X152432885Y-152554579D01*
X152058252Y-152666618D01*
X151864726Y-152681000D01*
X95048366Y-152681000D01*
X94634078Y-152621669D01*
X94301254Y-152470343D01*
X94024280Y-152231687D01*
X93825421Y-151924885D01*
X93713382Y-151550252D01*
X93699000Y-151356726D01*
X93699000Y-143376954D01*
X93766569Y-143356296D01*
X93862314Y-143328298D01*
X93870466Y-143324532D01*
X94391980Y-143079682D01*
X94475357Y-143024914D01*
X94559392Y-142971171D01*
X94566159Y-142965268D01*
X94997991Y-142583887D01*
X95062642Y-142507922D01*
X95128219Y-142432750D01*
X95133053Y-142425190D01*
X95133056Y-142425187D01*
X95133058Y-142425184D01*
X95440489Y-141937933D01*
X95481216Y-141846886D01*
X95523062Y-141756323D01*
X95525583Y-141747704D01*
X95683904Y-141193752D01*
X95697443Y-141094911D01*
X95712186Y-140996263D01*
X95712186Y-140987284D01*
X95708666Y-140411160D01*
X95693924Y-140312523D01*
X95680384Y-140213674D01*
X95677864Y-140205055D01*
X95512788Y-139653078D01*
X95470937Y-139562505D01*
X95430213Y-139471466D01*
X95425376Y-139463901D01*
X95112013Y-138980442D01*
X95046442Y-138905277D01*
X94981786Y-138829306D01*
X94975023Y-138823407D01*
X94975019Y-138823403D01*
X94975014Y-138823400D01*
X94538560Y-138447327D01*
X94454535Y-138393590D01*
X94371149Y-138338816D01*
X94362998Y-138335050D01*
X93838531Y-138096589D01*
X93742774Y-138068587D01*
X93699000Y-138055205D01*
X93699000Y-128022978D01*
X93981518Y-128140001D01*
X94536484Y-128140001D01*
X95049205Y-127927625D01*
X95441625Y-127535205D01*
X95529001Y-127324261D01*
X95616377Y-127535205D01*
X96008797Y-127927625D01*
X96521518Y-128140001D01*
X97076484Y-128140001D01*
X97589205Y-127927625D01*
X97981625Y-127535205D01*
X98069001Y-127324261D01*
X98156377Y-127535205D01*
X98548797Y-127927625D01*
X99061518Y-128140001D01*
X99616484Y-128140001D01*
X100129205Y-127927625D01*
X100521625Y-127535205D01*
X100609001Y-127324261D01*
X100696377Y-127535205D01*
X101088797Y-127927625D01*
X101601518Y-128140001D01*
X102156484Y-128140001D01*
X102669205Y-127927625D01*
X103061625Y-127535205D01*
X103149001Y-127324261D01*
X103236377Y-127535205D01*
X103628797Y-127927625D01*
X104141518Y-128140001D01*
X104696484Y-128140001D01*
X105209205Y-127927625D01*
X105601625Y-127535205D01*
X105689001Y-127324261D01*
X105776377Y-127535205D01*
X106168797Y-127927625D01*
X106681518Y-128140001D01*
X107236484Y-128140001D01*
X107749205Y-127927625D01*
X108141625Y-127535205D01*
X108229001Y-127324261D01*
X108316377Y-127535205D01*
X108708797Y-127927625D01*
X109221518Y-128140001D01*
X109776484Y-128140001D01*
X110289205Y-127927625D01*
X110681625Y-127535205D01*
X110769001Y-127324261D01*
X110856377Y-127535205D01*
X111248797Y-127927625D01*
X111761518Y-128140001D01*
X112316484Y-128140001D01*
X112829205Y-127927625D01*
X113221625Y-127535205D01*
X113309001Y-127324261D01*
X113396377Y-127535205D01*
X113788797Y-127927625D01*
X114301518Y-128140001D01*
X114856484Y-128140001D01*
X115369205Y-127927625D01*
X115761625Y-127535205D01*
X115849001Y-127324261D01*
X115936377Y-127535205D01*
X116328797Y-127927625D01*
X116841518Y-128140001D01*
X117396484Y-128140001D01*
X117909205Y-127927625D01*
X118301625Y-127535205D01*
X118514001Y-127022484D01*
X118514001Y-126467518D01*
X118301625Y-125954797D01*
X117909205Y-125562377D01*
X117698261Y-125475001D01*
X117909205Y-125387625D01*
X118301625Y-124995205D01*
X118514001Y-124482484D01*
X118514001Y-123927518D01*
X118301625Y-123414797D01*
X117909205Y-123022377D01*
X117396484Y-122810001D01*
X116841518Y-122810001D01*
X116328797Y-123022377D01*
X115936377Y-123414797D01*
X115849001Y-123625741D01*
X115761625Y-123414797D01*
X115369205Y-123022377D01*
X114856484Y-122810001D01*
X114301518Y-122810001D01*
X113788797Y-123022377D01*
X113396377Y-123414797D01*
X113309001Y-123625741D01*
X113221625Y-123414797D01*
X112829205Y-123022377D01*
X112316484Y-122810001D01*
X111761518Y-122810001D01*
X111248797Y-123022377D01*
X110856377Y-123414797D01*
X110769001Y-123625741D01*
X110681625Y-123414797D01*
X110289205Y-123022377D01*
X109776484Y-122810001D01*
X109221518Y-122810001D01*
X108708797Y-123022377D01*
X108316377Y-123414797D01*
X108229001Y-123625741D01*
X108141625Y-123414797D01*
X107749205Y-123022377D01*
X107236484Y-122810001D01*
X106681518Y-122810001D01*
X106168797Y-123022377D01*
X105776377Y-123414797D01*
X105689001Y-123625741D01*
X105601625Y-123414797D01*
X105209205Y-123022377D01*
X104696484Y-122810001D01*
X104141518Y-122810001D01*
X103628797Y-123022377D01*
X103236377Y-123414797D01*
X103149001Y-123625741D01*
X103061625Y-123414797D01*
X102669205Y-123022377D01*
X102156484Y-122810001D01*
X101601518Y-122810001D01*
X101088797Y-123022377D01*
X100696377Y-123414797D01*
X100609001Y-123625741D01*
X100521625Y-123414797D01*
X100129205Y-123022377D01*
X99616484Y-122810001D01*
X99061518Y-122810001D01*
X98548797Y-123022377D01*
X98156377Y-123414797D01*
X97944001Y-123927518D01*
X97944001Y-124482484D01*
X98156377Y-124995205D01*
X98548797Y-125387625D01*
X98759741Y-125475001D01*
X98548797Y-125562377D01*
X98156377Y-125954797D01*
X98069001Y-126165741D01*
X97981625Y-125954797D01*
X97589205Y-125562377D01*
X97076484Y-125350001D01*
X96521518Y-125350001D01*
X96008797Y-125562377D01*
X95616377Y-125954797D01*
X95529001Y-126165741D01*
X95441625Y-125954797D01*
X95049205Y-125562377D01*
X94838261Y-125475001D01*
X95049205Y-125387625D01*
X95441625Y-124995205D01*
X95654001Y-124482484D01*
X95654001Y-123927518D01*
X95441625Y-123414797D01*
X95049205Y-123022377D01*
X94536484Y-122810001D01*
X93981518Y-122810001D01*
X93699000Y-122927024D01*
X93699000Y-121134119D01*
X111379000Y-121134119D01*
X111379000Y-121689881D01*
X111591680Y-122203337D01*
X111984663Y-122596320D01*
X112498119Y-122809000D01*
X113053881Y-122809000D01*
X113567337Y-122596320D01*
X113960320Y-122203337D01*
X114173000Y-121689881D01*
X114173000Y-121134119D01*
X116459000Y-121134119D01*
X116459000Y-121689881D01*
X116671680Y-122203337D01*
X117064663Y-122596320D01*
X117578119Y-122809000D01*
X118133881Y-122809000D01*
X118647337Y-122596320D01*
X119040320Y-122203337D01*
X119253000Y-121689881D01*
X119253000Y-121134119D01*
X119040320Y-120620663D01*
X118647337Y-120227680D01*
X118133881Y-120015000D01*
X117578119Y-120015000D01*
X117064663Y-120227680D01*
X116671680Y-120620663D01*
X116459000Y-121134119D01*
X114173000Y-121134119D01*
X113960320Y-120620663D01*
X113567337Y-120227680D01*
X113053881Y-120015000D01*
X112498119Y-120015000D01*
X111984663Y-120227680D01*
X111591680Y-120620663D01*
X111379000Y-121134119D01*
X93699000Y-121134119D01*
X93699000Y-116207453D01*
X122529600Y-116207453D01*
X122529600Y-117470547D01*
X123012965Y-118637493D01*
X123906107Y-119530635D01*
X125073053Y-120014000D01*
X126336147Y-120014000D01*
X127503093Y-119530635D01*
X128396235Y-118637493D01*
X128879600Y-117470547D01*
X128879600Y-116207453D01*
X128396235Y-115040507D01*
X127503093Y-114147365D01*
X126336147Y-113664000D01*
X125073053Y-113664000D01*
X123906107Y-114147365D01*
X123012965Y-115040507D01*
X122529600Y-116207453D01*
X93699000Y-116207453D01*
X93699000Y-108712000D01*
X93960096Y-108712000D01*
X93980000Y-108812063D01*
X93980000Y-108812064D01*
X94038949Y-109108422D01*
X94263505Y-109444495D01*
X94348339Y-109501179D01*
X95115569Y-110268410D01*
X95134569Y-110314280D01*
X95425720Y-110605431D01*
X95611724Y-110682476D01*
X95615576Y-110685050D01*
X95620120Y-110685954D01*
X95806126Y-110763000D01*
X96007455Y-110763000D01*
X96012000Y-110763904D01*
X96016545Y-110763000D01*
X96217874Y-110763000D01*
X96403881Y-110685953D01*
X96408423Y-110685050D01*
X96412273Y-110682477D01*
X96598280Y-110605431D01*
X96740646Y-110463065D01*
X96744494Y-110460494D01*
X96747065Y-110456646D01*
X96889431Y-110314280D01*
X96966477Y-110128273D01*
X96969050Y-110124423D01*
X96969953Y-110119881D01*
X97047000Y-109933874D01*
X97047000Y-109732545D01*
X97047904Y-109728000D01*
X97047000Y-109723455D01*
X97047000Y-109522126D01*
X96969954Y-109336120D01*
X96969050Y-109331576D01*
X96966476Y-109327724D01*
X96889431Y-109141720D01*
X96598280Y-108850569D01*
X96552410Y-108831569D01*
X96012000Y-108291160D01*
X96012000Y-107164119D01*
X96647000Y-107164119D01*
X96647000Y-107719881D01*
X96859680Y-108233337D01*
X97252663Y-108626320D01*
X97766119Y-108839000D01*
X98321881Y-108839000D01*
X98835337Y-108626320D01*
X99228320Y-108233337D01*
X99441000Y-107719881D01*
X99441000Y-107481840D01*
X100496841Y-106426000D01*
X102164343Y-106426000D01*
X101939680Y-106650663D01*
X101727000Y-107164119D01*
X101727000Y-107719881D01*
X101939680Y-108233337D01*
X102332663Y-108626320D01*
X102846119Y-108839000D01*
X103401881Y-108839000D01*
X103915337Y-108626320D01*
X104308320Y-108233337D01*
X104521000Y-107719881D01*
X104521000Y-107164119D01*
X104308320Y-106650663D01*
X104083657Y-106426000D01*
X107240534Y-106426000D01*
X107373848Y-106515078D01*
X107712500Y-106582440D01*
X108187500Y-106582440D01*
X108526152Y-106515078D01*
X108659466Y-106426000D01*
X121853760Y-106426000D01*
X122853719Y-107425960D01*
X122529600Y-108208453D01*
X122529600Y-109471547D01*
X123012965Y-110638493D01*
X123906107Y-111531635D01*
X125073053Y-112015000D01*
X126336147Y-112015000D01*
X127503093Y-111531635D01*
X128396235Y-110638493D01*
X128879600Y-109471547D01*
X128879600Y-108208453D01*
X128396235Y-107041507D01*
X127503093Y-106148365D01*
X126336147Y-105665000D01*
X125073053Y-105665000D01*
X124290560Y-105989119D01*
X123063780Y-104762340D01*
X123007095Y-104677505D01*
X122671023Y-104452949D01*
X122374665Y-104394000D01*
X122374663Y-104394000D01*
X122274600Y-104374096D01*
X122174537Y-104394000D01*
X108659466Y-104394000D01*
X108526152Y-104304922D01*
X108187500Y-104237560D01*
X107712500Y-104237560D01*
X107373848Y-104304922D01*
X107240534Y-104394000D01*
X100176063Y-104394000D01*
X100076000Y-104374096D01*
X99975936Y-104394000D01*
X99975935Y-104394000D01*
X99679577Y-104452949D01*
X99343505Y-104677505D01*
X99286822Y-104762337D01*
X98004160Y-106045000D01*
X97766119Y-106045000D01*
X97252663Y-106257680D01*
X96859680Y-106650663D01*
X96647000Y-107164119D01*
X96012000Y-107164119D01*
X96012000Y-104137744D01*
X96031000Y-104091874D01*
X96031000Y-103680126D01*
X95953955Y-103494123D01*
X95953051Y-103489577D01*
X95950476Y-103485723D01*
X95873431Y-103299720D01*
X95731070Y-103157359D01*
X95728495Y-103153505D01*
X95724641Y-103150930D01*
X95582280Y-103008569D01*
X95396277Y-102931524D01*
X95392423Y-102928949D01*
X95387877Y-102928045D01*
X95201874Y-102851000D01*
X95000545Y-102851000D01*
X94996000Y-102850096D01*
X94991455Y-102851000D01*
X94790126Y-102851000D01*
X94604122Y-102928045D01*
X94599578Y-102928949D01*
X94595725Y-102931523D01*
X94409720Y-103008569D01*
X94267357Y-103150932D01*
X94263506Y-103153505D01*
X94260933Y-103157356D01*
X94118569Y-103299720D01*
X94041523Y-103485727D01*
X94038950Y-103489577D01*
X94038047Y-103494119D01*
X93961000Y-103680126D01*
X93961000Y-104091874D01*
X93980001Y-104137746D01*
X93980000Y-108611936D01*
X93960096Y-108712000D01*
X93699000Y-108712000D01*
X93699000Y-95035619D01*
X130810000Y-95035619D01*
X130810000Y-95591381D01*
X131022680Y-96104837D01*
X131415663Y-96497820D01*
X131622513Y-96583500D01*
X131415663Y-96669180D01*
X131022680Y-97062163D01*
X130810000Y-97575619D01*
X130810000Y-98131381D01*
X131022680Y-98644837D01*
X131415663Y-99037820D01*
X131929119Y-99250500D01*
X132484881Y-99250500D01*
X132998337Y-99037820D01*
X133391320Y-98644837D01*
X133604000Y-98131381D01*
X133604000Y-97575619D01*
X133391320Y-97062163D01*
X132998337Y-96669180D01*
X132791487Y-96583500D01*
X132998337Y-96497820D01*
X133391320Y-96104837D01*
X133604000Y-95591381D01*
X133604000Y-95056641D01*
X139308043Y-95056641D01*
X139308043Y-95612403D01*
X139520723Y-96125859D01*
X139913706Y-96518842D01*
X140120556Y-96604522D01*
X139913706Y-96690202D01*
X139520723Y-97083185D01*
X139308043Y-97596641D01*
X139308043Y-98152403D01*
X139520723Y-98665859D01*
X139913706Y-99058842D01*
X140427162Y-99271522D01*
X140982924Y-99271522D01*
X141496380Y-99058842D01*
X141889363Y-98665859D01*
X142102043Y-98152403D01*
X142102043Y-97596641D01*
X141889363Y-97083185D01*
X141496380Y-96690202D01*
X141289530Y-96604522D01*
X141496380Y-96518842D01*
X141889363Y-96125859D01*
X142102043Y-95612403D01*
X142102043Y-95056641D01*
X141889363Y-94543185D01*
X141496380Y-94150202D01*
X140982924Y-93937522D01*
X140427162Y-93937522D01*
X139913706Y-94150202D01*
X139520723Y-94543185D01*
X139308043Y-95056641D01*
X133604000Y-95056641D01*
X133604000Y-95035619D01*
X133391320Y-94522163D01*
X132998337Y-94129180D01*
X132484881Y-93916500D01*
X131929119Y-93916500D01*
X131415663Y-94129180D01*
X131022680Y-94522163D01*
X130810000Y-95035619D01*
X93699000Y-95035619D01*
X93699000Y-84842978D01*
X93981518Y-84960001D01*
X94536484Y-84960001D01*
X95049205Y-84747625D01*
X95441625Y-84355205D01*
X95529001Y-84144261D01*
X95616377Y-84355205D01*
X96008797Y-84747625D01*
X96521518Y-84960001D01*
X97076484Y-84960001D01*
X97124002Y-84940318D01*
X97124003Y-89740196D01*
X97107830Y-89821502D01*
X97163606Y-90101905D01*
X97171899Y-90143596D01*
X97354351Y-90416654D01*
X97423277Y-90462709D01*
X97490428Y-90529861D01*
X97293569Y-90726720D01*
X97136000Y-91107126D01*
X97136000Y-91167000D01*
X96949126Y-91167000D01*
X96568720Y-91324569D01*
X96277569Y-91615720D01*
X96120000Y-91996126D01*
X96120000Y-92056000D01*
X95933126Y-92056000D01*
X95552720Y-92213569D01*
X95261569Y-92504720D01*
X95104000Y-92885126D01*
X95104000Y-93296874D01*
X95261569Y-93677280D01*
X95552720Y-93968431D01*
X95933126Y-94126000D01*
X96344874Y-94126000D01*
X96725280Y-93968431D01*
X96777211Y-93916500D01*
X104693699Y-93916500D01*
X104775000Y-93932672D01*
X104856301Y-93916500D01*
X104856303Y-93916500D01*
X105097094Y-93868604D01*
X105370152Y-93686152D01*
X105416209Y-93617224D01*
X105809226Y-93224207D01*
X105878152Y-93178152D01*
X106060604Y-92905094D01*
X106108500Y-92664303D01*
X106108500Y-92664299D01*
X106124671Y-92583001D01*
X106108500Y-92501703D01*
X106108500Y-88090876D01*
X109455000Y-88090876D01*
X109455000Y-88502624D01*
X109612569Y-88883030D01*
X109664501Y-88934962D01*
X109664500Y-91563789D01*
X109612569Y-91615720D01*
X109455000Y-91996126D01*
X109455000Y-92407874D01*
X109612569Y-92788280D01*
X109903720Y-93079431D01*
X110284126Y-93237000D01*
X110695874Y-93237000D01*
X110998000Y-93111856D01*
X111300126Y-93237000D01*
X111711874Y-93237000D01*
X112014000Y-93111856D01*
X112316126Y-93237000D01*
X112727874Y-93237000D01*
X113108280Y-93079431D01*
X113399431Y-92788280D01*
X113557000Y-92407874D01*
X113557000Y-91996126D01*
X113399431Y-91615720D01*
X113347500Y-91563789D01*
X113347500Y-86966461D01*
X113399431Y-86914530D01*
X113557000Y-86534124D01*
X113557000Y-86122376D01*
X113399431Y-85741970D01*
X113108280Y-85450819D01*
X112727874Y-85293250D01*
X112316126Y-85293250D01*
X111935720Y-85450819D01*
X111644569Y-85741970D01*
X111487000Y-86122376D01*
X111487000Y-86277500D01*
X111300126Y-86277500D01*
X110919720Y-86435069D01*
X110628569Y-86726220D01*
X110471000Y-87106626D01*
X110471000Y-87261750D01*
X110284126Y-87261750D01*
X109903720Y-87419319D01*
X109612569Y-87710470D01*
X109455000Y-88090876D01*
X106108500Y-88090876D01*
X106108500Y-85982211D01*
X106160431Y-85930280D01*
X106318000Y-85549874D01*
X106318000Y-85138126D01*
X106160431Y-84757720D01*
X105869280Y-84466569D01*
X105601273Y-84355557D01*
X105601625Y-84355205D01*
X105689001Y-84144261D01*
X105776377Y-84355205D01*
X106168797Y-84747625D01*
X106681518Y-84960001D01*
X107236484Y-84960001D01*
X107749205Y-84747625D01*
X108141625Y-84355205D01*
X108229001Y-84144261D01*
X108316377Y-84355205D01*
X108708797Y-84747625D01*
X109221518Y-84960001D01*
X109776484Y-84960001D01*
X110289205Y-84747625D01*
X110681625Y-84355205D01*
X110769001Y-84144261D01*
X110856377Y-84355205D01*
X111248797Y-84747625D01*
X111761518Y-84960001D01*
X112316484Y-84960001D01*
X112829205Y-84747625D01*
X113221625Y-84355205D01*
X113309001Y-84144261D01*
X113396377Y-84355205D01*
X113788797Y-84747625D01*
X114301518Y-84960001D01*
X114856484Y-84960001D01*
X115369205Y-84747625D01*
X115761625Y-84355205D01*
X115849001Y-84144261D01*
X115936377Y-84355205D01*
X116328797Y-84747625D01*
X116841518Y-84960001D01*
X117396484Y-84960001D01*
X117909205Y-84747625D01*
X118301625Y-84355205D01*
X118514001Y-83842484D01*
X118514001Y-83287518D01*
X118301625Y-82774797D01*
X117909205Y-82382377D01*
X117698261Y-82295001D01*
X117753502Y-82272119D01*
X139308043Y-82272119D01*
X139308043Y-82827881D01*
X139520723Y-83341337D01*
X139913706Y-83734320D01*
X140120556Y-83820000D01*
X139913706Y-83905680D01*
X139520723Y-84298663D01*
X139308043Y-84812119D01*
X139308043Y-85367881D01*
X139520723Y-85881337D01*
X139913706Y-86274320D01*
X140427162Y-86487000D01*
X140982924Y-86487000D01*
X141496380Y-86274320D01*
X141889363Y-85881337D01*
X142102043Y-85367881D01*
X142102043Y-84812119D01*
X141889363Y-84298663D01*
X141496380Y-83905680D01*
X141289530Y-83820000D01*
X141496380Y-83734320D01*
X141889363Y-83341337D01*
X142102043Y-82827881D01*
X142102043Y-82272119D01*
X141889363Y-81758663D01*
X141496380Y-81365680D01*
X140982924Y-81153000D01*
X140427162Y-81153000D01*
X139913706Y-81365680D01*
X139520723Y-81758663D01*
X139308043Y-82272119D01*
X117753502Y-82272119D01*
X117909205Y-82207625D01*
X118301625Y-81815205D01*
X118514001Y-81302484D01*
X118514001Y-80747518D01*
X118301625Y-80234797D01*
X117909205Y-79842377D01*
X117396484Y-79630001D01*
X116841518Y-79630001D01*
X116328797Y-79842377D01*
X115936377Y-80234797D01*
X115849001Y-80445741D01*
X115761625Y-80234797D01*
X115369205Y-79842377D01*
X114856484Y-79630001D01*
X114301518Y-79630001D01*
X113788797Y-79842377D01*
X113396377Y-80234797D01*
X113309001Y-80445741D01*
X113221625Y-80234797D01*
X112829205Y-79842377D01*
X112316484Y-79630001D01*
X111761518Y-79630001D01*
X111248797Y-79842377D01*
X110856377Y-80234797D01*
X110769001Y-80445741D01*
X110681625Y-80234797D01*
X110289205Y-79842377D01*
X109776484Y-79630001D01*
X109221518Y-79630001D01*
X108708797Y-79842377D01*
X108316377Y-80234797D01*
X108229001Y-80445741D01*
X108141625Y-80234797D01*
X107749205Y-79842377D01*
X107236484Y-79630001D01*
X106681518Y-79630001D01*
X106168797Y-79842377D01*
X105776377Y-80234797D01*
X105689001Y-80445741D01*
X105601625Y-80234797D01*
X105209205Y-79842377D01*
X104696484Y-79630001D01*
X104141518Y-79630001D01*
X103628797Y-79842377D01*
X103236377Y-80234797D01*
X103149001Y-80445741D01*
X103061625Y-80234797D01*
X102669205Y-79842377D01*
X102156484Y-79630001D01*
X101601518Y-79630001D01*
X101088797Y-79842377D01*
X100696377Y-80234797D01*
X100609001Y-80445741D01*
X100521625Y-80234797D01*
X100129205Y-79842377D01*
X99616484Y-79630001D01*
X99061518Y-79630001D01*
X98548797Y-79842377D01*
X98156377Y-80234797D01*
X98069001Y-80445741D01*
X97981625Y-80234797D01*
X97589205Y-79842377D01*
X97076484Y-79630001D01*
X96521518Y-79630001D01*
X96008797Y-79842377D01*
X95616377Y-80234797D01*
X95404001Y-80747518D01*
X95404001Y-81302484D01*
X95616377Y-81815205D01*
X96008797Y-82207625D01*
X96219741Y-82295001D01*
X96008797Y-82382377D01*
X95616377Y-82774797D01*
X95529001Y-82985741D01*
X95441625Y-82774797D01*
X95049205Y-82382377D01*
X94536484Y-82170001D01*
X93981518Y-82170001D01*
X93699000Y-82287024D01*
X93699000Y-77899126D01*
X139300000Y-77899126D01*
X139300000Y-78310874D01*
X139457569Y-78691280D01*
X139748720Y-78982431D01*
X140129126Y-79140000D01*
X140540874Y-79140000D01*
X140921280Y-78982431D01*
X140973211Y-78930500D01*
X147111699Y-78930500D01*
X147193000Y-78946672D01*
X147274301Y-78930500D01*
X147274303Y-78930500D01*
X147515094Y-78882604D01*
X147788152Y-78700152D01*
X147834209Y-78631223D01*
X148481226Y-77984207D01*
X148550152Y-77938152D01*
X148653884Y-77782906D01*
X148732604Y-77665095D01*
X148796672Y-77343000D01*
X148780500Y-77261697D01*
X148780500Y-76223158D01*
X149139320Y-75864338D01*
X149352000Y-75350882D01*
X149352000Y-74795120D01*
X149139320Y-74281664D01*
X148746337Y-73888681D01*
X148232881Y-73676001D01*
X147677119Y-73676001D01*
X147163663Y-73888681D01*
X146770680Y-74281664D01*
X146685000Y-74488514D01*
X146599320Y-74281664D01*
X146206337Y-73888681D01*
X145692881Y-73676001D01*
X145137119Y-73676001D01*
X144623663Y-73888681D01*
X144230680Y-74281664D01*
X144018000Y-74795120D01*
X144018000Y-75350882D01*
X144230680Y-75864338D01*
X144623663Y-76257321D01*
X145137119Y-76470001D01*
X145692881Y-76470001D01*
X146206337Y-76257321D01*
X146599320Y-75864338D01*
X146685000Y-75657488D01*
X146770680Y-75864338D01*
X147129500Y-76223158D01*
X147129500Y-76231933D01*
X147129501Y-76231937D01*
X147129500Y-77001067D01*
X146851068Y-77279500D01*
X140973211Y-77279500D01*
X140921280Y-77227569D01*
X140540874Y-77070000D01*
X140129126Y-77070000D01*
X139748720Y-77227569D01*
X139457569Y-77518720D01*
X139300000Y-77899126D01*
X93699000Y-77899126D01*
X93699000Y-74795120D01*
X95113001Y-74795120D01*
X95113001Y-75350882D01*
X95325681Y-75864338D01*
X95718664Y-76257321D01*
X96232120Y-76470001D01*
X96787882Y-76470001D01*
X97301338Y-76257321D01*
X97694321Y-75864338D01*
X97780001Y-75657488D01*
X97865681Y-75864338D01*
X98258664Y-76257321D01*
X98772120Y-76470001D01*
X99327882Y-76470001D01*
X99841338Y-76257321D01*
X100234321Y-75864338D01*
X100447001Y-75350882D01*
X100447001Y-74795120D01*
X107339250Y-74795120D01*
X107339250Y-75350882D01*
X107551930Y-75864338D01*
X107944913Y-76257321D01*
X108458369Y-76470001D01*
X109014131Y-76470001D01*
X109527587Y-76257321D01*
X109920570Y-75864338D01*
X110006250Y-75657488D01*
X110091930Y-75864338D01*
X110484913Y-76257321D01*
X110998369Y-76470001D01*
X111554131Y-76470001D01*
X112067587Y-76257321D01*
X112460570Y-75864338D01*
X112673250Y-75350882D01*
X112673250Y-74795120D01*
X119565499Y-74795120D01*
X119565499Y-75350882D01*
X119778179Y-75864338D01*
X120171162Y-76257321D01*
X120684618Y-76470001D01*
X121240380Y-76470001D01*
X121753836Y-76257321D01*
X122146819Y-75864338D01*
X122232499Y-75657488D01*
X122318179Y-75864338D01*
X122711162Y-76257321D01*
X123224618Y-76470001D01*
X123780380Y-76470001D01*
X124293836Y-76257321D01*
X124686819Y-75864338D01*
X124899499Y-75350882D01*
X124899499Y-74795120D01*
X131791748Y-74795120D01*
X131791748Y-75350882D01*
X132004428Y-75864338D01*
X132397411Y-76257321D01*
X132910867Y-76470001D01*
X133466629Y-76470001D01*
X133980085Y-76257321D01*
X134373068Y-75864338D01*
X134458748Y-75657488D01*
X134544428Y-75864338D01*
X134937411Y-76257321D01*
X135450867Y-76470001D01*
X136006629Y-76470001D01*
X136520085Y-76257321D01*
X136913068Y-75864338D01*
X137125748Y-75350882D01*
X137125748Y-74795120D01*
X136913068Y-74281664D01*
X136520085Y-73888681D01*
X136006629Y-73676001D01*
X135450867Y-73676001D01*
X134937411Y-73888681D01*
X134544428Y-74281664D01*
X134458748Y-74488514D01*
X134373068Y-74281664D01*
X133980085Y-73888681D01*
X133466629Y-73676001D01*
X132910867Y-73676001D01*
X132397411Y-73888681D01*
X132004428Y-74281664D01*
X131791748Y-74795120D01*
X124899499Y-74795120D01*
X124686819Y-74281664D01*
X124293836Y-73888681D01*
X123780380Y-73676001D01*
X123224618Y-73676001D01*
X122711162Y-73888681D01*
X122318179Y-74281664D01*
X122232499Y-74488514D01*
X122146819Y-74281664D01*
X121753836Y-73888681D01*
X121240380Y-73676001D01*
X120684618Y-73676001D01*
X120171162Y-73888681D01*
X119778179Y-74281664D01*
X119565499Y-74795120D01*
X112673250Y-74795120D01*
X112460570Y-74281664D01*
X112067587Y-73888681D01*
X111554131Y-73676001D01*
X110998369Y-73676001D01*
X110484913Y-73888681D01*
X110091930Y-74281664D01*
X110006250Y-74488514D01*
X109920570Y-74281664D01*
X109527587Y-73888681D01*
X109014131Y-73676001D01*
X108458369Y-73676001D01*
X107944913Y-73888681D01*
X107551930Y-74281664D01*
X107339250Y-74795120D01*
X100447001Y-74795120D01*
X100234321Y-74281664D01*
X99841338Y-73888681D01*
X99327882Y-73676001D01*
X98772120Y-73676001D01*
X98258664Y-73888681D01*
X97865681Y-74281664D01*
X97780001Y-74488514D01*
X97694321Y-74281664D01*
X97301338Y-73888681D01*
X96787882Y-73676001D01*
X96232120Y-73676001D01*
X95718664Y-73888681D01*
X95325681Y-74281664D01*
X95113001Y-74795120D01*
X93699000Y-74795120D01*
X93699000Y-63933366D01*
X93758331Y-63519078D01*
X93909657Y-63186254D01*
X94148313Y-62909280D01*
X94455116Y-62710420D01*
X94829748Y-62598382D01*
X95023274Y-62584000D01*
X151839634Y-62584000D01*
X152253922Y-62643331D01*
X152253922Y-62643331D01*
G37*
X152253922Y-62643331D02*
X152586746Y-62794657D01*
X152863720Y-63033313D01*
X153062580Y-63340116D01*
X153174618Y-63714748D01*
X153189000Y-63908274D01*
X153189001Y-105611627D01*
X153129669Y-106025922D01*
X152978343Y-106358746D01*
X152739687Y-106635720D01*
X152432885Y-106834579D01*
X152058252Y-106946618D01*
X151864726Y-106961000D01*
X136216388Y-106961000D01*
X136144000Y-106946601D01*
X136071612Y-106961000D01*
X135857217Y-107003646D01*
X135614095Y-107166095D01*
X135451646Y-107409217D01*
X135394601Y-107696000D01*
X135409000Y-107768388D01*
X135409001Y-128451607D01*
X135394601Y-128524000D01*
X135451646Y-128810783D01*
X135614095Y-129053905D01*
X135857217Y-129216354D01*
X136071612Y-129259000D01*
X136144000Y-129273399D01*
X136216388Y-129259000D01*
X151839634Y-129259000D01*
X152253922Y-129318331D01*
X152586746Y-129469657D01*
X152863720Y-129708313D01*
X153062580Y-130015116D01*
X153174618Y-130389748D01*
X153189001Y-130583288D01*
X153189000Y-138055046D01*
X153121443Y-138075700D01*
X153025685Y-138103702D01*
X153017534Y-138107468D01*
X152496019Y-138352318D01*
X152412606Y-138407110D01*
X152328608Y-138460829D01*
X152321841Y-138466731D01*
X151890009Y-138848113D01*
X151825341Y-138924097D01*
X151759781Y-138999250D01*
X151754947Y-139006810D01*
X151754944Y-139006813D01*
X151754944Y-139006814D01*
X151447511Y-139494067D01*
X151406784Y-139585114D01*
X151364938Y-139675677D01*
X151362417Y-139684296D01*
X151204096Y-140238249D01*
X151190558Y-140337083D01*
X151175814Y-140435737D01*
X151175814Y-140444717D01*
X151179334Y-141020840D01*
X151194076Y-141119483D01*
X151207616Y-141218326D01*
X151210136Y-141226944D01*
X151375212Y-141778922D01*
X151417071Y-141869513D01*
X151457787Y-141960534D01*
X151462624Y-141968099D01*
X151775987Y-142451558D01*
X151841558Y-142526723D01*
X151906214Y-142602694D01*
X151912977Y-142608593D01*
X151912981Y-142608597D01*
X151912986Y-142608600D01*
X152349440Y-142984673D01*
X152433465Y-143038410D01*
X152516851Y-143093184D01*
X152525002Y-143096950D01*
X153049469Y-143335411D01*
X153145237Y-143363416D01*
X153189001Y-143376796D01*
X153189000Y-151331634D01*
X153129669Y-151745922D01*
X152978343Y-152078746D01*
X152739687Y-152355720D01*
X152432885Y-152554579D01*
X152058252Y-152666618D01*
X151864726Y-152681000D01*
X95048366Y-152681000D01*
X94634078Y-152621669D01*
X94301254Y-152470343D01*
X94024280Y-152231687D01*
X93825421Y-151924885D01*
X93713382Y-151550252D01*
X93699000Y-151356726D01*
X93699000Y-143376954D01*
X93766569Y-143356296D01*
X93862314Y-143328298D01*
X93870466Y-143324532D01*
X94391980Y-143079682D01*
X94475357Y-143024914D01*
X94559392Y-142971171D01*
X94566159Y-142965268D01*
X94997991Y-142583887D01*
X95062642Y-142507922D01*
X95128219Y-142432750D01*
X95133053Y-142425190D01*
X95133056Y-142425187D01*
X95133058Y-142425184D01*
X95440489Y-141937933D01*
X95481216Y-141846886D01*
X95523062Y-141756323D01*
X95525583Y-141747704D01*
X95683904Y-141193752D01*
X95697443Y-141094911D01*
X95712186Y-140996263D01*
X95712186Y-140987284D01*
X95708666Y-140411160D01*
X95693924Y-140312523D01*
X95680384Y-140213674D01*
X95677864Y-140205055D01*
X95512788Y-139653078D01*
X95470937Y-139562505D01*
X95430213Y-139471466D01*
X95425376Y-139463901D01*
X95112013Y-138980442D01*
X95046442Y-138905277D01*
X94981786Y-138829306D01*
X94975023Y-138823407D01*
X94975019Y-138823403D01*
X94975014Y-138823400D01*
X94538560Y-138447327D01*
X94454535Y-138393590D01*
X94371149Y-138338816D01*
X94362998Y-138335050D01*
X93838531Y-138096589D01*
X93742774Y-138068587D01*
X93699000Y-138055205D01*
X93699000Y-128022978D01*
X93981518Y-128140001D01*
X94536484Y-128140001D01*
X95049205Y-127927625D01*
X95441625Y-127535205D01*
X95529001Y-127324261D01*
X95616377Y-127535205D01*
X96008797Y-127927625D01*
X96521518Y-128140001D01*
X97076484Y-128140001D01*
X97589205Y-127927625D01*
X97981625Y-127535205D01*
X98069001Y-127324261D01*
X98156377Y-127535205D01*
X98548797Y-127927625D01*
X99061518Y-128140001D01*
X99616484Y-128140001D01*
X100129205Y-127927625D01*
X100521625Y-127535205D01*
X100609001Y-127324261D01*
X100696377Y-127535205D01*
X101088797Y-127927625D01*
X101601518Y-128140001D01*
X102156484Y-128140001D01*
X102669205Y-127927625D01*
X103061625Y-127535205D01*
X103149001Y-127324261D01*
X103236377Y-127535205D01*
X103628797Y-127927625D01*
X104141518Y-128140001D01*
X104696484Y-128140001D01*
X105209205Y-127927625D01*
X105601625Y-127535205D01*
X105689001Y-127324261D01*
X105776377Y-127535205D01*
X106168797Y-127927625D01*
X106681518Y-128140001D01*
X107236484Y-128140001D01*
X107749205Y-127927625D01*
X108141625Y-127535205D01*
X108229001Y-127324261D01*
X108316377Y-127535205D01*
X108708797Y-127927625D01*
X109221518Y-128140001D01*
X109776484Y-128140001D01*
X110289205Y-127927625D01*
X110681625Y-127535205D01*
X110769001Y-127324261D01*
X110856377Y-127535205D01*
X111248797Y-127927625D01*
X111761518Y-128140001D01*
X112316484Y-128140001D01*
X112829205Y-127927625D01*
X113221625Y-127535205D01*
X113309001Y-127324261D01*
X113396377Y-127535205D01*
X113788797Y-127927625D01*
X114301518Y-128140001D01*
X114856484Y-128140001D01*
X115369205Y-127927625D01*
X115761625Y-127535205D01*
X115849001Y-127324261D01*
X115936377Y-127535205D01*
X116328797Y-127927625D01*
X116841518Y-128140001D01*
X117396484Y-128140001D01*
X117909205Y-127927625D01*
X118301625Y-127535205D01*
X118514001Y-127022484D01*
X118514001Y-126467518D01*
X118301625Y-125954797D01*
X117909205Y-125562377D01*
X117698261Y-125475001D01*
X117909205Y-125387625D01*
X118301625Y-124995205D01*
X118514001Y-124482484D01*
X118514001Y-123927518D01*
X118301625Y-123414797D01*
X117909205Y-123022377D01*
X117396484Y-122810001D01*
X116841518Y-122810001D01*
X116328797Y-123022377D01*
X115936377Y-123414797D01*
X115849001Y-123625741D01*
X115761625Y-123414797D01*
X115369205Y-123022377D01*
X114856484Y-122810001D01*
X114301518Y-122810001D01*
X113788797Y-123022377D01*
X113396377Y-123414797D01*
X113309001Y-123625741D01*
X113221625Y-123414797D01*
X112829205Y-123022377D01*
X112316484Y-122810001D01*
X111761518Y-122810001D01*
X111248797Y-123022377D01*
X110856377Y-123414797D01*
X110769001Y-123625741D01*
X110681625Y-123414797D01*
X110289205Y-123022377D01*
X109776484Y-122810001D01*
X109221518Y-122810001D01*
X108708797Y-123022377D01*
X108316377Y-123414797D01*
X108229001Y-123625741D01*
X108141625Y-123414797D01*
X107749205Y-123022377D01*
X107236484Y-122810001D01*
X106681518Y-122810001D01*
X106168797Y-123022377D01*
X105776377Y-123414797D01*
X105689001Y-123625741D01*
X105601625Y-123414797D01*
X105209205Y-123022377D01*
X104696484Y-122810001D01*
X104141518Y-122810001D01*
X103628797Y-123022377D01*
X103236377Y-123414797D01*
X103149001Y-123625741D01*
X103061625Y-123414797D01*
X102669205Y-123022377D01*
X102156484Y-122810001D01*
X101601518Y-122810001D01*
X101088797Y-123022377D01*
X100696377Y-123414797D01*
X100609001Y-123625741D01*
X100521625Y-123414797D01*
X100129205Y-123022377D01*
X99616484Y-122810001D01*
X99061518Y-122810001D01*
X98548797Y-123022377D01*
X98156377Y-123414797D01*
X97944001Y-123927518D01*
X97944001Y-124482484D01*
X98156377Y-124995205D01*
X98548797Y-125387625D01*
X98759741Y-125475001D01*
X98548797Y-125562377D01*
X98156377Y-125954797D01*
X98069001Y-126165741D01*
X97981625Y-125954797D01*
X97589205Y-125562377D01*
X97076484Y-125350001D01*
X96521518Y-125350001D01*
X96008797Y-125562377D01*
X95616377Y-125954797D01*
X95529001Y-126165741D01*
X95441625Y-125954797D01*
X95049205Y-125562377D01*
X94838261Y-125475001D01*
X95049205Y-125387625D01*
X95441625Y-124995205D01*
X95654001Y-124482484D01*
X95654001Y-123927518D01*
X95441625Y-123414797D01*
X95049205Y-123022377D01*
X94536484Y-122810001D01*
X93981518Y-122810001D01*
X93699000Y-122927024D01*
X93699000Y-121134119D01*
X111379000Y-121134119D01*
X111379000Y-121689881D01*
X111591680Y-122203337D01*
X111984663Y-122596320D01*
X112498119Y-122809000D01*
X113053881Y-122809000D01*
X113567337Y-122596320D01*
X113960320Y-122203337D01*
X114173000Y-121689881D01*
X114173000Y-121134119D01*
X116459000Y-121134119D01*
X116459000Y-121689881D01*
X116671680Y-122203337D01*
X117064663Y-122596320D01*
X117578119Y-122809000D01*
X118133881Y-122809000D01*
X118647337Y-122596320D01*
X119040320Y-122203337D01*
X119253000Y-121689881D01*
X119253000Y-121134119D01*
X119040320Y-120620663D01*
X118647337Y-120227680D01*
X118133881Y-120015000D01*
X117578119Y-120015000D01*
X117064663Y-120227680D01*
X116671680Y-120620663D01*
X116459000Y-121134119D01*
X114173000Y-121134119D01*
X113960320Y-120620663D01*
X113567337Y-120227680D01*
X113053881Y-120015000D01*
X112498119Y-120015000D01*
X111984663Y-120227680D01*
X111591680Y-120620663D01*
X111379000Y-121134119D01*
X93699000Y-121134119D01*
X93699000Y-116207453D01*
X122529600Y-116207453D01*
X122529600Y-117470547D01*
X123012965Y-118637493D01*
X123906107Y-119530635D01*
X125073053Y-120014000D01*
X126336147Y-120014000D01*
X127503093Y-119530635D01*
X128396235Y-118637493D01*
X128879600Y-117470547D01*
X128879600Y-116207453D01*
X128396235Y-115040507D01*
X127503093Y-114147365D01*
X126336147Y-113664000D01*
X125073053Y-113664000D01*
X123906107Y-114147365D01*
X123012965Y-115040507D01*
X122529600Y-116207453D01*
X93699000Y-116207453D01*
X93699000Y-108712000D01*
X93960096Y-108712000D01*
X93980000Y-108812063D01*
X93980000Y-108812064D01*
X94038949Y-109108422D01*
X94263505Y-109444495D01*
X94348339Y-109501179D01*
X95115569Y-110268410D01*
X95134569Y-110314280D01*
X95425720Y-110605431D01*
X95611724Y-110682476D01*
X95615576Y-110685050D01*
X95620120Y-110685954D01*
X95806126Y-110763000D01*
X96007455Y-110763000D01*
X96012000Y-110763904D01*
X96016545Y-110763000D01*
X96217874Y-110763000D01*
X96403881Y-110685953D01*
X96408423Y-110685050D01*
X96412273Y-110682477D01*
X96598280Y-110605431D01*
X96740646Y-110463065D01*
X96744494Y-110460494D01*
X96747065Y-110456646D01*
X96889431Y-110314280D01*
X96966477Y-110128273D01*
X96969050Y-110124423D01*
X96969953Y-110119881D01*
X97047000Y-109933874D01*
X97047000Y-109732545D01*
X97047904Y-109728000D01*
X97047000Y-109723455D01*
X97047000Y-109522126D01*
X96969954Y-109336120D01*
X96969050Y-109331576D01*
X96966476Y-109327724D01*
X96889431Y-109141720D01*
X96598280Y-108850569D01*
X96552410Y-108831569D01*
X96012000Y-108291160D01*
X96012000Y-107164119D01*
X96647000Y-107164119D01*
X96647000Y-107719881D01*
X96859680Y-108233337D01*
X97252663Y-108626320D01*
X97766119Y-108839000D01*
X98321881Y-108839000D01*
X98835337Y-108626320D01*
X99228320Y-108233337D01*
X99441000Y-107719881D01*
X99441000Y-107481840D01*
X100496841Y-106426000D01*
X102164343Y-106426000D01*
X101939680Y-106650663D01*
X101727000Y-107164119D01*
X101727000Y-107719881D01*
X101939680Y-108233337D01*
X102332663Y-108626320D01*
X102846119Y-108839000D01*
X103401881Y-108839000D01*
X103915337Y-108626320D01*
X104308320Y-108233337D01*
X104521000Y-107719881D01*
X104521000Y-107164119D01*
X104308320Y-106650663D01*
X104083657Y-106426000D01*
X107240534Y-106426000D01*
X107373848Y-106515078D01*
X107712500Y-106582440D01*
X108187500Y-106582440D01*
X108526152Y-106515078D01*
X108659466Y-106426000D01*
X121853760Y-106426000D01*
X122853719Y-107425960D01*
X122529600Y-108208453D01*
X122529600Y-109471547D01*
X123012965Y-110638493D01*
X123906107Y-111531635D01*
X125073053Y-112015000D01*
X126336147Y-112015000D01*
X127503093Y-111531635D01*
X128396235Y-110638493D01*
X128879600Y-109471547D01*
X128879600Y-108208453D01*
X128396235Y-107041507D01*
X127503093Y-106148365D01*
X126336147Y-105665000D01*
X125073053Y-105665000D01*
X124290560Y-105989119D01*
X123063780Y-104762340D01*
X123007095Y-104677505D01*
X122671023Y-104452949D01*
X122374665Y-104394000D01*
X122374663Y-104394000D01*
X122274600Y-104374096D01*
X122174537Y-104394000D01*
X108659466Y-104394000D01*
X108526152Y-104304922D01*
X108187500Y-104237560D01*
X107712500Y-104237560D01*
X107373848Y-104304922D01*
X107240534Y-104394000D01*
X100176063Y-104394000D01*
X100076000Y-104374096D01*
X99975936Y-104394000D01*
X99975935Y-104394000D01*
X99679577Y-104452949D01*
X99343505Y-104677505D01*
X99286822Y-104762337D01*
X98004160Y-106045000D01*
X97766119Y-106045000D01*
X97252663Y-106257680D01*
X96859680Y-106650663D01*
X96647000Y-107164119D01*
X96012000Y-107164119D01*
X96012000Y-104137744D01*
X96031000Y-104091874D01*
X96031000Y-103680126D01*
X95953955Y-103494123D01*
X95953051Y-103489577D01*
X95950476Y-103485723D01*
X95873431Y-103299720D01*
X95731070Y-103157359D01*
X95728495Y-103153505D01*
X95724641Y-103150930D01*
X95582280Y-103008569D01*
X95396277Y-102931524D01*
X95392423Y-102928949D01*
X95387877Y-102928045D01*
X95201874Y-102851000D01*
X95000545Y-102851000D01*
X94996000Y-102850096D01*
X94991455Y-102851000D01*
X94790126Y-102851000D01*
X94604122Y-102928045D01*
X94599578Y-102928949D01*
X94595725Y-102931523D01*
X94409720Y-103008569D01*
X94267357Y-103150932D01*
X94263506Y-103153505D01*
X94260933Y-103157356D01*
X94118569Y-103299720D01*
X94041523Y-103485727D01*
X94038950Y-103489577D01*
X94038047Y-103494119D01*
X93961000Y-103680126D01*
X93961000Y-104091874D01*
X93980001Y-104137746D01*
X93980000Y-108611936D01*
X93960096Y-108712000D01*
X93699000Y-108712000D01*
X93699000Y-95035619D01*
X130810000Y-95035619D01*
X130810000Y-95591381D01*
X131022680Y-96104837D01*
X131415663Y-96497820D01*
X131622513Y-96583500D01*
X131415663Y-96669180D01*
X131022680Y-97062163D01*
X130810000Y-97575619D01*
X130810000Y-98131381D01*
X131022680Y-98644837D01*
X131415663Y-99037820D01*
X131929119Y-99250500D01*
X132484881Y-99250500D01*
X132998337Y-99037820D01*
X133391320Y-98644837D01*
X133604000Y-98131381D01*
X133604000Y-97575619D01*
X133391320Y-97062163D01*
X132998337Y-96669180D01*
X132791487Y-96583500D01*
X132998337Y-96497820D01*
X133391320Y-96104837D01*
X133604000Y-95591381D01*
X133604000Y-95056641D01*
X139308043Y-95056641D01*
X139308043Y-95612403D01*
X139520723Y-96125859D01*
X139913706Y-96518842D01*
X140120556Y-96604522D01*
X139913706Y-96690202D01*
X139520723Y-97083185D01*
X139308043Y-97596641D01*
X139308043Y-98152403D01*
X139520723Y-98665859D01*
X139913706Y-99058842D01*
X140427162Y-99271522D01*
X140982924Y-99271522D01*
X141496380Y-99058842D01*
X141889363Y-98665859D01*
X142102043Y-98152403D01*
X142102043Y-97596641D01*
X141889363Y-97083185D01*
X141496380Y-96690202D01*
X141289530Y-96604522D01*
X141496380Y-96518842D01*
X141889363Y-96125859D01*
X142102043Y-95612403D01*
X142102043Y-95056641D01*
X141889363Y-94543185D01*
X141496380Y-94150202D01*
X140982924Y-93937522D01*
X140427162Y-93937522D01*
X139913706Y-94150202D01*
X139520723Y-94543185D01*
X139308043Y-95056641D01*
X133604000Y-95056641D01*
X133604000Y-95035619D01*
X133391320Y-94522163D01*
X132998337Y-94129180D01*
X132484881Y-93916500D01*
X131929119Y-93916500D01*
X131415663Y-94129180D01*
X131022680Y-94522163D01*
X130810000Y-95035619D01*
X93699000Y-95035619D01*
X93699000Y-84842978D01*
X93981518Y-84960001D01*
X94536484Y-84960001D01*
X95049205Y-84747625D01*
X95441625Y-84355205D01*
X95529001Y-84144261D01*
X95616377Y-84355205D01*
X96008797Y-84747625D01*
X96521518Y-84960001D01*
X97076484Y-84960001D01*
X97124002Y-84940318D01*
X97124003Y-89740196D01*
X97107830Y-89821502D01*
X97163606Y-90101905D01*
X97171899Y-90143596D01*
X97354351Y-90416654D01*
X97423277Y-90462709D01*
X97490428Y-90529861D01*
X97293569Y-90726720D01*
X97136000Y-91107126D01*
X97136000Y-91167000D01*
X96949126Y-91167000D01*
X96568720Y-91324569D01*
X96277569Y-91615720D01*
X96120000Y-91996126D01*
X96120000Y-92056000D01*
X95933126Y-92056000D01*
X95552720Y-92213569D01*
X95261569Y-92504720D01*
X95104000Y-92885126D01*
X95104000Y-93296874D01*
X95261569Y-93677280D01*
X95552720Y-93968431D01*
X95933126Y-94126000D01*
X96344874Y-94126000D01*
X96725280Y-93968431D01*
X96777211Y-93916500D01*
X104693699Y-93916500D01*
X104775000Y-93932672D01*
X104856301Y-93916500D01*
X104856303Y-93916500D01*
X105097094Y-93868604D01*
X105370152Y-93686152D01*
X105416209Y-93617224D01*
X105809226Y-93224207D01*
X105878152Y-93178152D01*
X106060604Y-92905094D01*
X106108500Y-92664303D01*
X106108500Y-92664299D01*
X106124671Y-92583001D01*
X106108500Y-92501703D01*
X106108500Y-88090876D01*
X109455000Y-88090876D01*
X109455000Y-88502624D01*
X109612569Y-88883030D01*
X109664501Y-88934962D01*
X109664500Y-91563789D01*
X109612569Y-91615720D01*
X109455000Y-91996126D01*
X109455000Y-92407874D01*
X109612569Y-92788280D01*
X109903720Y-93079431D01*
X110284126Y-93237000D01*
X110695874Y-93237000D01*
X110998000Y-93111856D01*
X111300126Y-93237000D01*
X111711874Y-93237000D01*
X112014000Y-93111856D01*
X112316126Y-93237000D01*
X112727874Y-93237000D01*
X113108280Y-93079431D01*
X113399431Y-92788280D01*
X113557000Y-92407874D01*
X113557000Y-91996126D01*
X113399431Y-91615720D01*
X113347500Y-91563789D01*
X113347500Y-86966461D01*
X113399431Y-86914530D01*
X113557000Y-86534124D01*
X113557000Y-86122376D01*
X113399431Y-85741970D01*
X113108280Y-85450819D01*
X112727874Y-85293250D01*
X112316126Y-85293250D01*
X111935720Y-85450819D01*
X111644569Y-85741970D01*
X111487000Y-86122376D01*
X111487000Y-86277500D01*
X111300126Y-86277500D01*
X110919720Y-86435069D01*
X110628569Y-86726220D01*
X110471000Y-87106626D01*
X110471000Y-87261750D01*
X110284126Y-87261750D01*
X109903720Y-87419319D01*
X109612569Y-87710470D01*
X109455000Y-88090876D01*
X106108500Y-88090876D01*
X106108500Y-85982211D01*
X106160431Y-85930280D01*
X106318000Y-85549874D01*
X106318000Y-85138126D01*
X106160431Y-84757720D01*
X105869280Y-84466569D01*
X105601273Y-84355557D01*
X105601625Y-84355205D01*
X105689001Y-84144261D01*
X105776377Y-84355205D01*
X106168797Y-84747625D01*
X106681518Y-84960001D01*
X107236484Y-84960001D01*
X107749205Y-84747625D01*
X108141625Y-84355205D01*
X108229001Y-84144261D01*
X108316377Y-84355205D01*
X108708797Y-84747625D01*
X109221518Y-84960001D01*
X109776484Y-84960001D01*
X110289205Y-84747625D01*
X110681625Y-84355205D01*
X110769001Y-84144261D01*
X110856377Y-84355205D01*
X111248797Y-84747625D01*
X111761518Y-84960001D01*
X112316484Y-84960001D01*
X112829205Y-84747625D01*
X113221625Y-84355205D01*
X113309001Y-84144261D01*
X113396377Y-84355205D01*
X113788797Y-84747625D01*
X114301518Y-84960001D01*
X114856484Y-84960001D01*
X115369205Y-84747625D01*
X115761625Y-84355205D01*
X115849001Y-84144261D01*
X115936377Y-84355205D01*
X116328797Y-84747625D01*
X116841518Y-84960001D01*
X117396484Y-84960001D01*
X117909205Y-84747625D01*
X118301625Y-84355205D01*
X118514001Y-83842484D01*
X118514001Y-83287518D01*
X118301625Y-82774797D01*
X117909205Y-82382377D01*
X117698261Y-82295001D01*
X117753502Y-82272119D01*
X139308043Y-82272119D01*
X139308043Y-82827881D01*
X139520723Y-83341337D01*
X139913706Y-83734320D01*
X140120556Y-83820000D01*
X139913706Y-83905680D01*
X139520723Y-84298663D01*
X139308043Y-84812119D01*
X139308043Y-85367881D01*
X139520723Y-85881337D01*
X139913706Y-86274320D01*
X140427162Y-86487000D01*
X140982924Y-86487000D01*
X141496380Y-86274320D01*
X141889363Y-85881337D01*
X142102043Y-85367881D01*
X142102043Y-84812119D01*
X141889363Y-84298663D01*
X141496380Y-83905680D01*
X141289530Y-83820000D01*
X141496380Y-83734320D01*
X141889363Y-83341337D01*
X142102043Y-82827881D01*
X142102043Y-82272119D01*
X141889363Y-81758663D01*
X141496380Y-81365680D01*
X140982924Y-81153000D01*
X140427162Y-81153000D01*
X139913706Y-81365680D01*
X139520723Y-81758663D01*
X139308043Y-82272119D01*
X117753502Y-82272119D01*
X117909205Y-82207625D01*
X118301625Y-81815205D01*
X118514001Y-81302484D01*
X118514001Y-80747518D01*
X118301625Y-80234797D01*
X117909205Y-79842377D01*
X117396484Y-79630001D01*
X116841518Y-79630001D01*
X116328797Y-79842377D01*
X115936377Y-80234797D01*
X115849001Y-80445741D01*
X115761625Y-80234797D01*
X115369205Y-79842377D01*
X114856484Y-79630001D01*
X114301518Y-79630001D01*
X113788797Y-79842377D01*
X113396377Y-80234797D01*
X113309001Y-80445741D01*
X113221625Y-80234797D01*
X112829205Y-79842377D01*
X112316484Y-79630001D01*
X111761518Y-79630001D01*
X111248797Y-79842377D01*
X110856377Y-80234797D01*
X110769001Y-80445741D01*
X110681625Y-80234797D01*
X110289205Y-79842377D01*
X109776484Y-79630001D01*
X109221518Y-79630001D01*
X108708797Y-79842377D01*
X108316377Y-80234797D01*
X108229001Y-80445741D01*
X108141625Y-80234797D01*
X107749205Y-79842377D01*
X107236484Y-79630001D01*
X106681518Y-79630001D01*
X106168797Y-79842377D01*
X105776377Y-80234797D01*
X105689001Y-80445741D01*
X105601625Y-80234797D01*
X105209205Y-79842377D01*
X104696484Y-79630001D01*
X104141518Y-79630001D01*
X103628797Y-79842377D01*
X103236377Y-80234797D01*
X103149001Y-80445741D01*
X103061625Y-80234797D01*
X102669205Y-79842377D01*
X102156484Y-79630001D01*
X101601518Y-79630001D01*
X101088797Y-79842377D01*
X100696377Y-80234797D01*
X100609001Y-80445741D01*
X100521625Y-80234797D01*
X100129205Y-79842377D01*
X99616484Y-79630001D01*
X99061518Y-79630001D01*
X98548797Y-79842377D01*
X98156377Y-80234797D01*
X98069001Y-80445741D01*
X97981625Y-80234797D01*
X97589205Y-79842377D01*
X97076484Y-79630001D01*
X96521518Y-79630001D01*
X96008797Y-79842377D01*
X95616377Y-80234797D01*
X95404001Y-80747518D01*
X95404001Y-81302484D01*
X95616377Y-81815205D01*
X96008797Y-82207625D01*
X96219741Y-82295001D01*
X96008797Y-82382377D01*
X95616377Y-82774797D01*
X95529001Y-82985741D01*
X95441625Y-82774797D01*
X95049205Y-82382377D01*
X94536484Y-82170001D01*
X93981518Y-82170001D01*
X93699000Y-82287024D01*
X93699000Y-77899126D01*
X139300000Y-77899126D01*
X139300000Y-78310874D01*
X139457569Y-78691280D01*
X139748720Y-78982431D01*
X140129126Y-79140000D01*
X140540874Y-79140000D01*
X140921280Y-78982431D01*
X140973211Y-78930500D01*
X147111699Y-78930500D01*
X147193000Y-78946672D01*
X147274301Y-78930500D01*
X147274303Y-78930500D01*
X147515094Y-78882604D01*
X147788152Y-78700152D01*
X147834209Y-78631223D01*
X148481226Y-77984207D01*
X148550152Y-77938152D01*
X148653884Y-77782906D01*
X148732604Y-77665095D01*
X148796672Y-77343000D01*
X148780500Y-77261697D01*
X148780500Y-76223158D01*
X149139320Y-75864338D01*
X149352000Y-75350882D01*
X149352000Y-74795120D01*
X149139320Y-74281664D01*
X148746337Y-73888681D01*
X148232881Y-73676001D01*
X147677119Y-73676001D01*
X147163663Y-73888681D01*
X146770680Y-74281664D01*
X146685000Y-74488514D01*
X146599320Y-74281664D01*
X146206337Y-73888681D01*
X145692881Y-73676001D01*
X145137119Y-73676001D01*
X144623663Y-73888681D01*
X144230680Y-74281664D01*
X144018000Y-74795120D01*
X144018000Y-75350882D01*
X144230680Y-75864338D01*
X144623663Y-76257321D01*
X145137119Y-76470001D01*
X145692881Y-76470001D01*
X146206337Y-76257321D01*
X146599320Y-75864338D01*
X146685000Y-75657488D01*
X146770680Y-75864338D01*
X147129500Y-76223158D01*
X147129500Y-76231933D01*
X147129501Y-76231937D01*
X147129500Y-77001067D01*
X146851068Y-77279500D01*
X140973211Y-77279500D01*
X140921280Y-77227569D01*
X140540874Y-77070000D01*
X140129126Y-77070000D01*
X139748720Y-77227569D01*
X139457569Y-77518720D01*
X139300000Y-77899126D01*
X93699000Y-77899126D01*
X93699000Y-74795120D01*
X95113001Y-74795120D01*
X95113001Y-75350882D01*
X95325681Y-75864338D01*
X95718664Y-76257321D01*
X96232120Y-76470001D01*
X96787882Y-76470001D01*
X97301338Y-76257321D01*
X97694321Y-75864338D01*
X97780001Y-75657488D01*
X97865681Y-75864338D01*
X98258664Y-76257321D01*
X98772120Y-76470001D01*
X99327882Y-76470001D01*
X99841338Y-76257321D01*
X100234321Y-75864338D01*
X100447001Y-75350882D01*
X100447001Y-74795120D01*
X107339250Y-74795120D01*
X107339250Y-75350882D01*
X107551930Y-75864338D01*
X107944913Y-76257321D01*
X108458369Y-76470001D01*
X109014131Y-76470001D01*
X109527587Y-76257321D01*
X109920570Y-75864338D01*
X110006250Y-75657488D01*
X110091930Y-75864338D01*
X110484913Y-76257321D01*
X110998369Y-76470001D01*
X111554131Y-76470001D01*
X112067587Y-76257321D01*
X112460570Y-75864338D01*
X112673250Y-75350882D01*
X112673250Y-74795120D01*
X119565499Y-74795120D01*
X119565499Y-75350882D01*
X119778179Y-75864338D01*
X120171162Y-76257321D01*
X120684618Y-76470001D01*
X121240380Y-76470001D01*
X121753836Y-76257321D01*
X122146819Y-75864338D01*
X122232499Y-75657488D01*
X122318179Y-75864338D01*
X122711162Y-76257321D01*
X123224618Y-76470001D01*
X123780380Y-76470001D01*
X124293836Y-76257321D01*
X124686819Y-75864338D01*
X124899499Y-75350882D01*
X124899499Y-74795120D01*
X131791748Y-74795120D01*
X131791748Y-75350882D01*
X132004428Y-75864338D01*
X132397411Y-76257321D01*
X132910867Y-76470001D01*
X133466629Y-76470001D01*
X133980085Y-76257321D01*
X134373068Y-75864338D01*
X134458748Y-75657488D01*
X134544428Y-75864338D01*
X134937411Y-76257321D01*
X135450867Y-76470001D01*
X136006629Y-76470001D01*
X136520085Y-76257321D01*
X136913068Y-75864338D01*
X137125748Y-75350882D01*
X137125748Y-74795120D01*
X136913068Y-74281664D01*
X136520085Y-73888681D01*
X136006629Y-73676001D01*
X135450867Y-73676001D01*
X134937411Y-73888681D01*
X134544428Y-74281664D01*
X134458748Y-74488514D01*
X134373068Y-74281664D01*
X133980085Y-73888681D01*
X133466629Y-73676001D01*
X132910867Y-73676001D01*
X132397411Y-73888681D01*
X132004428Y-74281664D01*
X131791748Y-74795120D01*
X124899499Y-74795120D01*
X124686819Y-74281664D01*
X124293836Y-73888681D01*
X123780380Y-73676001D01*
X123224618Y-73676001D01*
X122711162Y-73888681D01*
X122318179Y-74281664D01*
X122232499Y-74488514D01*
X122146819Y-74281664D01*
X121753836Y-73888681D01*
X121240380Y-73676001D01*
X120684618Y-73676001D01*
X120171162Y-73888681D01*
X119778179Y-74281664D01*
X119565499Y-74795120D01*
X112673250Y-74795120D01*
X112460570Y-74281664D01*
X112067587Y-73888681D01*
X111554131Y-73676001D01*
X110998369Y-73676001D01*
X110484913Y-73888681D01*
X110091930Y-74281664D01*
X110006250Y-74488514D01*
X109920570Y-74281664D01*
X109527587Y-73888681D01*
X109014131Y-73676001D01*
X108458369Y-73676001D01*
X107944913Y-73888681D01*
X107551930Y-74281664D01*
X107339250Y-74795120D01*
X100447001Y-74795120D01*
X100234321Y-74281664D01*
X99841338Y-73888681D01*
X99327882Y-73676001D01*
X98772120Y-73676001D01*
X98258664Y-73888681D01*
X97865681Y-74281664D01*
X97780001Y-74488514D01*
X97694321Y-74281664D01*
X97301338Y-73888681D01*
X96787882Y-73676001D01*
X96232120Y-73676001D01*
X95718664Y-73888681D01*
X95325681Y-74281664D01*
X95113001Y-74795120D01*
X93699000Y-74795120D01*
X93699000Y-63933366D01*
X93758331Y-63519078D01*
X93909657Y-63186254D01*
X94148313Y-62909280D01*
X94455116Y-62710420D01*
X94829748Y-62598382D01*
X95023274Y-62584000D01*
X151839634Y-62584000D01*
X152253922Y-62643331D01*
G04 #@! TD*
M02*
