G04 #@! TF.GenerationSoftware,KiCad,Pcbnew,(5.0.0)*
G04 #@! TF.CreationDate,2018-12-16T13:09:34-06:00*
G04 #@! TF.ProjectId,ShimbleBoard_Hardware,5368696D626C65426F6172645F486172,rev?*
G04 #@! TF.SameCoordinates,Original*
G04 #@! TF.FileFunction,Soldermask,Top*
G04 #@! TF.FilePolarity,Negative*
%FSLAX46Y46*%
G04 Gerber Fmt 4.6, Leading zero omitted, Abs format (unit mm)*
G04 Created by KiCad (PCBNEW (5.0.0)) date 12/16/18 13:09:34*
%MOMM*%
%LPD*%
G01*
G04 APERTURE LIST*
%ADD10C,1.924000*%
%ADD11C,5.480000*%
%ADD12C,1.920000*%
%ADD13C,0.100000*%
%ADD14C,1.350000*%
G04 APERTURE END LIST*
D10*
G04 #@! TO.C,Conn6*
X145415000Y-75073001D03*
X147955000Y-75073001D03*
X150495000Y-75073001D03*
G04 #@! TD*
G04 #@! TO.C,Conn2*
X96510001Y-75073001D03*
X99050001Y-75073001D03*
X101590001Y-75073001D03*
G04 #@! TD*
G04 #@! TO.C,Conn3*
X108736250Y-75073001D03*
X111276250Y-75073001D03*
X113816250Y-75073001D03*
G04 #@! TD*
G04 #@! TO.C,Conn4*
X120962499Y-75073001D03*
X123502499Y-75073001D03*
X126042499Y-75073001D03*
G04 #@! TD*
G04 #@! TO.C,Conn5*
X133188748Y-75073001D03*
X135728748Y-75073001D03*
X138268748Y-75073001D03*
G04 #@! TD*
G04 #@! TO.C,Conn7*
X140705043Y-82550000D03*
X140705043Y-85090000D03*
X140705043Y-87630000D03*
G04 #@! TD*
G04 #@! TO.C,Conn8*
X140705043Y-95334522D03*
X140705043Y-97874522D03*
X140705043Y-100414522D03*
G04 #@! TD*
D11*
G04 #@! TO.C,Conn1*
X125704600Y-124840000D03*
X125704600Y-116839000D03*
X125704600Y-108840000D03*
G04 #@! TD*
D10*
G04 #@! TO.C,U2*
X103124000Y-107442000D03*
X100584000Y-107442000D03*
X98044000Y-107442000D03*
G04 #@! TD*
D12*
G04 #@! TO.C,U1*
X99339001Y-81025001D03*
X96799001Y-81025001D03*
X94259001Y-81025001D03*
X117119001Y-83565001D03*
X114579001Y-83565001D03*
X112039001Y-83565001D03*
X109499001Y-83565001D03*
X106959001Y-83565001D03*
X104419001Y-83565001D03*
X101879001Y-83565001D03*
X99339001Y-83565001D03*
X96799001Y-83565001D03*
X94259001Y-83565001D03*
X117119001Y-126745001D03*
X112039001Y-126745001D03*
X106959001Y-126745001D03*
X104419001Y-126745001D03*
X101879001Y-126745001D03*
X99339001Y-126745001D03*
X96799001Y-126745001D03*
X117119001Y-124205001D03*
X112039001Y-124205001D03*
X101879001Y-124205001D03*
X99339001Y-124205001D03*
X96799001Y-124205001D03*
X94259001Y-124205001D03*
X106959001Y-124205001D03*
X109499001Y-124205001D03*
X114579001Y-126745001D03*
X101879001Y-81025001D03*
X104419001Y-81025001D03*
X114579001Y-124205001D03*
X109499001Y-126745001D03*
X112039001Y-81025001D03*
X109499001Y-81025001D03*
X104419001Y-124205001D03*
X106959001Y-81025001D03*
X114579001Y-81025001D03*
X117119001Y-81025001D03*
X94259001Y-126745001D03*
G04 #@! TD*
D13*
G04 #@! TO.C,C4*
G36*
X109245581Y-110527825D02*
X109278343Y-110532685D01*
X109310471Y-110540733D01*
X109341656Y-110551891D01*
X109371596Y-110566052D01*
X109400005Y-110583079D01*
X109426608Y-110602809D01*
X109451149Y-110625051D01*
X109473391Y-110649592D01*
X109493121Y-110676195D01*
X109510148Y-110704604D01*
X109524309Y-110734544D01*
X109535467Y-110765729D01*
X109543515Y-110797857D01*
X109548375Y-110830619D01*
X109550000Y-110863700D01*
X109550000Y-111538700D01*
X109548375Y-111571781D01*
X109543515Y-111604543D01*
X109535467Y-111636671D01*
X109524309Y-111667856D01*
X109510148Y-111697796D01*
X109493121Y-111726205D01*
X109473391Y-111752808D01*
X109451149Y-111777349D01*
X109426608Y-111799591D01*
X109400005Y-111819321D01*
X109371596Y-111836348D01*
X109341656Y-111850509D01*
X109310471Y-111861667D01*
X109278343Y-111869715D01*
X109245581Y-111874575D01*
X109212500Y-111876200D01*
X108437500Y-111876200D01*
X108404419Y-111874575D01*
X108371657Y-111869715D01*
X108339529Y-111861667D01*
X108308344Y-111850509D01*
X108278404Y-111836348D01*
X108249995Y-111819321D01*
X108223392Y-111799591D01*
X108198851Y-111777349D01*
X108176609Y-111752808D01*
X108156879Y-111726205D01*
X108139852Y-111697796D01*
X108125691Y-111667856D01*
X108114533Y-111636671D01*
X108106485Y-111604543D01*
X108101625Y-111571781D01*
X108100000Y-111538700D01*
X108100000Y-110863700D01*
X108101625Y-110830619D01*
X108106485Y-110797857D01*
X108114533Y-110765729D01*
X108125691Y-110734544D01*
X108139852Y-110704604D01*
X108156879Y-110676195D01*
X108176609Y-110649592D01*
X108198851Y-110625051D01*
X108223392Y-110602809D01*
X108249995Y-110583079D01*
X108278404Y-110566052D01*
X108308344Y-110551891D01*
X108339529Y-110540733D01*
X108371657Y-110532685D01*
X108404419Y-110527825D01*
X108437500Y-110526200D01*
X109212500Y-110526200D01*
X109245581Y-110527825D01*
X109245581Y-110527825D01*
G37*
D14*
X108825000Y-111201200D03*
D13*
G36*
X107495581Y-110527825D02*
X107528343Y-110532685D01*
X107560471Y-110540733D01*
X107591656Y-110551891D01*
X107621596Y-110566052D01*
X107650005Y-110583079D01*
X107676608Y-110602809D01*
X107701149Y-110625051D01*
X107723391Y-110649592D01*
X107743121Y-110676195D01*
X107760148Y-110704604D01*
X107774309Y-110734544D01*
X107785467Y-110765729D01*
X107793515Y-110797857D01*
X107798375Y-110830619D01*
X107800000Y-110863700D01*
X107800000Y-111538700D01*
X107798375Y-111571781D01*
X107793515Y-111604543D01*
X107785467Y-111636671D01*
X107774309Y-111667856D01*
X107760148Y-111697796D01*
X107743121Y-111726205D01*
X107723391Y-111752808D01*
X107701149Y-111777349D01*
X107676608Y-111799591D01*
X107650005Y-111819321D01*
X107621596Y-111836348D01*
X107591656Y-111850509D01*
X107560471Y-111861667D01*
X107528343Y-111869715D01*
X107495581Y-111874575D01*
X107462500Y-111876200D01*
X106687500Y-111876200D01*
X106654419Y-111874575D01*
X106621657Y-111869715D01*
X106589529Y-111861667D01*
X106558344Y-111850509D01*
X106528404Y-111836348D01*
X106499995Y-111819321D01*
X106473392Y-111799591D01*
X106448851Y-111777349D01*
X106426609Y-111752808D01*
X106406879Y-111726205D01*
X106389852Y-111697796D01*
X106375691Y-111667856D01*
X106364533Y-111636671D01*
X106356485Y-111604543D01*
X106351625Y-111571781D01*
X106350000Y-111538700D01*
X106350000Y-110863700D01*
X106351625Y-110830619D01*
X106356485Y-110797857D01*
X106364533Y-110765729D01*
X106375691Y-110734544D01*
X106389852Y-110704604D01*
X106406879Y-110676195D01*
X106426609Y-110649592D01*
X106448851Y-110625051D01*
X106473392Y-110602809D01*
X106499995Y-110583079D01*
X106528404Y-110566052D01*
X106558344Y-110551891D01*
X106589529Y-110540733D01*
X106621657Y-110532685D01*
X106654419Y-110527825D01*
X106687500Y-110526200D01*
X107462500Y-110526200D01*
X107495581Y-110527825D01*
X107495581Y-110527825D01*
G37*
D14*
X107075000Y-111201200D03*
G04 #@! TD*
D13*
G04 #@! TO.C,R7*
G36*
X115849581Y-92671625D02*
X115882343Y-92676485D01*
X115914471Y-92684533D01*
X115945656Y-92695691D01*
X115975596Y-92709852D01*
X116004005Y-92726879D01*
X116030608Y-92746609D01*
X116055149Y-92768851D01*
X116077391Y-92793392D01*
X116097121Y-92819995D01*
X116114148Y-92848404D01*
X116128309Y-92878344D01*
X116139467Y-92909529D01*
X116147515Y-92941657D01*
X116152375Y-92974419D01*
X116154000Y-93007500D01*
X116154000Y-93682500D01*
X116152375Y-93715581D01*
X116147515Y-93748343D01*
X116139467Y-93780471D01*
X116128309Y-93811656D01*
X116114148Y-93841596D01*
X116097121Y-93870005D01*
X116077391Y-93896608D01*
X116055149Y-93921149D01*
X116030608Y-93943391D01*
X116004005Y-93963121D01*
X115975596Y-93980148D01*
X115945656Y-93994309D01*
X115914471Y-94005467D01*
X115882343Y-94013515D01*
X115849581Y-94018375D01*
X115816500Y-94020000D01*
X115041500Y-94020000D01*
X115008419Y-94018375D01*
X114975657Y-94013515D01*
X114943529Y-94005467D01*
X114912344Y-93994309D01*
X114882404Y-93980148D01*
X114853995Y-93963121D01*
X114827392Y-93943391D01*
X114802851Y-93921149D01*
X114780609Y-93896608D01*
X114760879Y-93870005D01*
X114743852Y-93841596D01*
X114729691Y-93811656D01*
X114718533Y-93780471D01*
X114710485Y-93748343D01*
X114705625Y-93715581D01*
X114704000Y-93682500D01*
X114704000Y-93007500D01*
X114705625Y-92974419D01*
X114710485Y-92941657D01*
X114718533Y-92909529D01*
X114729691Y-92878344D01*
X114743852Y-92848404D01*
X114760879Y-92819995D01*
X114780609Y-92793392D01*
X114802851Y-92768851D01*
X114827392Y-92746609D01*
X114853995Y-92726879D01*
X114882404Y-92709852D01*
X114912344Y-92695691D01*
X114943529Y-92684533D01*
X114975657Y-92676485D01*
X115008419Y-92671625D01*
X115041500Y-92670000D01*
X115816500Y-92670000D01*
X115849581Y-92671625D01*
X115849581Y-92671625D01*
G37*
D14*
X115429000Y-93345000D03*
D13*
G36*
X114099581Y-92671625D02*
X114132343Y-92676485D01*
X114164471Y-92684533D01*
X114195656Y-92695691D01*
X114225596Y-92709852D01*
X114254005Y-92726879D01*
X114280608Y-92746609D01*
X114305149Y-92768851D01*
X114327391Y-92793392D01*
X114347121Y-92819995D01*
X114364148Y-92848404D01*
X114378309Y-92878344D01*
X114389467Y-92909529D01*
X114397515Y-92941657D01*
X114402375Y-92974419D01*
X114404000Y-93007500D01*
X114404000Y-93682500D01*
X114402375Y-93715581D01*
X114397515Y-93748343D01*
X114389467Y-93780471D01*
X114378309Y-93811656D01*
X114364148Y-93841596D01*
X114347121Y-93870005D01*
X114327391Y-93896608D01*
X114305149Y-93921149D01*
X114280608Y-93943391D01*
X114254005Y-93963121D01*
X114225596Y-93980148D01*
X114195656Y-93994309D01*
X114164471Y-94005467D01*
X114132343Y-94013515D01*
X114099581Y-94018375D01*
X114066500Y-94020000D01*
X113291500Y-94020000D01*
X113258419Y-94018375D01*
X113225657Y-94013515D01*
X113193529Y-94005467D01*
X113162344Y-93994309D01*
X113132404Y-93980148D01*
X113103995Y-93963121D01*
X113077392Y-93943391D01*
X113052851Y-93921149D01*
X113030609Y-93896608D01*
X113010879Y-93870005D01*
X112993852Y-93841596D01*
X112979691Y-93811656D01*
X112968533Y-93780471D01*
X112960485Y-93748343D01*
X112955625Y-93715581D01*
X112954000Y-93682500D01*
X112954000Y-93007500D01*
X112955625Y-92974419D01*
X112960485Y-92941657D01*
X112968533Y-92909529D01*
X112979691Y-92878344D01*
X112993852Y-92848404D01*
X113010879Y-92819995D01*
X113030609Y-92793392D01*
X113052851Y-92768851D01*
X113077392Y-92746609D01*
X113103995Y-92726879D01*
X113132404Y-92709852D01*
X113162344Y-92695691D01*
X113193529Y-92684533D01*
X113225657Y-92676485D01*
X113258419Y-92671625D01*
X113291500Y-92670000D01*
X114066500Y-92670000D01*
X114099581Y-92671625D01*
X114099581Y-92671625D01*
G37*
D14*
X113679000Y-93345000D03*
G04 #@! TD*
D10*
G04 #@! TO.C,Conn9*
X132207000Y-100393500D03*
X132207000Y-97853500D03*
X132207000Y-95313500D03*
G04 #@! TD*
D13*
G04 #@! TO.C,C3*
G36*
X109245581Y-119976625D02*
X109278343Y-119981485D01*
X109310471Y-119989533D01*
X109341656Y-120000691D01*
X109371596Y-120014852D01*
X109400005Y-120031879D01*
X109426608Y-120051609D01*
X109451149Y-120073851D01*
X109473391Y-120098392D01*
X109493121Y-120124995D01*
X109510148Y-120153404D01*
X109524309Y-120183344D01*
X109535467Y-120214529D01*
X109543515Y-120246657D01*
X109548375Y-120279419D01*
X109550000Y-120312500D01*
X109550000Y-120987500D01*
X109548375Y-121020581D01*
X109543515Y-121053343D01*
X109535467Y-121085471D01*
X109524309Y-121116656D01*
X109510148Y-121146596D01*
X109493121Y-121175005D01*
X109473391Y-121201608D01*
X109451149Y-121226149D01*
X109426608Y-121248391D01*
X109400005Y-121268121D01*
X109371596Y-121285148D01*
X109341656Y-121299309D01*
X109310471Y-121310467D01*
X109278343Y-121318515D01*
X109245581Y-121323375D01*
X109212500Y-121325000D01*
X108437500Y-121325000D01*
X108404419Y-121323375D01*
X108371657Y-121318515D01*
X108339529Y-121310467D01*
X108308344Y-121299309D01*
X108278404Y-121285148D01*
X108249995Y-121268121D01*
X108223392Y-121248391D01*
X108198851Y-121226149D01*
X108176609Y-121201608D01*
X108156879Y-121175005D01*
X108139852Y-121146596D01*
X108125691Y-121116656D01*
X108114533Y-121085471D01*
X108106485Y-121053343D01*
X108101625Y-121020581D01*
X108100000Y-120987500D01*
X108100000Y-120312500D01*
X108101625Y-120279419D01*
X108106485Y-120246657D01*
X108114533Y-120214529D01*
X108125691Y-120183344D01*
X108139852Y-120153404D01*
X108156879Y-120124995D01*
X108176609Y-120098392D01*
X108198851Y-120073851D01*
X108223392Y-120051609D01*
X108249995Y-120031879D01*
X108278404Y-120014852D01*
X108308344Y-120000691D01*
X108339529Y-119989533D01*
X108371657Y-119981485D01*
X108404419Y-119976625D01*
X108437500Y-119975000D01*
X109212500Y-119975000D01*
X109245581Y-119976625D01*
X109245581Y-119976625D01*
G37*
D14*
X108825000Y-120650000D03*
D13*
G36*
X107495581Y-119976625D02*
X107528343Y-119981485D01*
X107560471Y-119989533D01*
X107591656Y-120000691D01*
X107621596Y-120014852D01*
X107650005Y-120031879D01*
X107676608Y-120051609D01*
X107701149Y-120073851D01*
X107723391Y-120098392D01*
X107743121Y-120124995D01*
X107760148Y-120153404D01*
X107774309Y-120183344D01*
X107785467Y-120214529D01*
X107793515Y-120246657D01*
X107798375Y-120279419D01*
X107800000Y-120312500D01*
X107800000Y-120987500D01*
X107798375Y-121020581D01*
X107793515Y-121053343D01*
X107785467Y-121085471D01*
X107774309Y-121116656D01*
X107760148Y-121146596D01*
X107743121Y-121175005D01*
X107723391Y-121201608D01*
X107701149Y-121226149D01*
X107676608Y-121248391D01*
X107650005Y-121268121D01*
X107621596Y-121285148D01*
X107591656Y-121299309D01*
X107560471Y-121310467D01*
X107528343Y-121318515D01*
X107495581Y-121323375D01*
X107462500Y-121325000D01*
X106687500Y-121325000D01*
X106654419Y-121323375D01*
X106621657Y-121318515D01*
X106589529Y-121310467D01*
X106558344Y-121299309D01*
X106528404Y-121285148D01*
X106499995Y-121268121D01*
X106473392Y-121248391D01*
X106448851Y-121226149D01*
X106426609Y-121201608D01*
X106406879Y-121175005D01*
X106389852Y-121146596D01*
X106375691Y-121116656D01*
X106364533Y-121085471D01*
X106356485Y-121053343D01*
X106351625Y-121020581D01*
X106350000Y-120987500D01*
X106350000Y-120312500D01*
X106351625Y-120279419D01*
X106356485Y-120246657D01*
X106364533Y-120214529D01*
X106375691Y-120183344D01*
X106389852Y-120153404D01*
X106406879Y-120124995D01*
X106426609Y-120098392D01*
X106448851Y-120073851D01*
X106473392Y-120051609D01*
X106499995Y-120031879D01*
X106528404Y-120014852D01*
X106558344Y-120000691D01*
X106589529Y-119989533D01*
X106621657Y-119981485D01*
X106654419Y-119976625D01*
X106687500Y-119975000D01*
X107462500Y-119975000D01*
X107495581Y-119976625D01*
X107495581Y-119976625D01*
G37*
D14*
X107075000Y-120650000D03*
G04 #@! TD*
D13*
G04 #@! TO.C,D3*
G36*
X106846581Y-104228622D02*
X106879343Y-104233482D01*
X106911471Y-104241530D01*
X106942656Y-104252688D01*
X106972596Y-104266849D01*
X107001005Y-104283876D01*
X107027608Y-104303606D01*
X107052149Y-104325848D01*
X107074391Y-104350389D01*
X107094121Y-104376992D01*
X107111148Y-104405401D01*
X107125309Y-104435341D01*
X107136467Y-104466526D01*
X107144515Y-104498654D01*
X107149375Y-104531416D01*
X107151000Y-104564497D01*
X107151000Y-105239497D01*
X107149375Y-105272578D01*
X107144515Y-105305340D01*
X107136467Y-105337468D01*
X107125309Y-105368653D01*
X107111148Y-105398593D01*
X107094121Y-105427002D01*
X107074391Y-105453605D01*
X107052149Y-105478146D01*
X107027608Y-105500388D01*
X107001005Y-105520118D01*
X106972596Y-105537145D01*
X106942656Y-105551306D01*
X106911471Y-105562464D01*
X106879343Y-105570512D01*
X106846581Y-105575372D01*
X106813500Y-105576997D01*
X106038500Y-105576997D01*
X106005419Y-105575372D01*
X105972657Y-105570512D01*
X105940529Y-105562464D01*
X105909344Y-105551306D01*
X105879404Y-105537145D01*
X105850995Y-105520118D01*
X105824392Y-105500388D01*
X105799851Y-105478146D01*
X105777609Y-105453605D01*
X105757879Y-105427002D01*
X105740852Y-105398593D01*
X105726691Y-105368653D01*
X105715533Y-105337468D01*
X105707485Y-105305340D01*
X105702625Y-105272578D01*
X105701000Y-105239497D01*
X105701000Y-104564497D01*
X105702625Y-104531416D01*
X105707485Y-104498654D01*
X105715533Y-104466526D01*
X105726691Y-104435341D01*
X105740852Y-104405401D01*
X105757879Y-104376992D01*
X105777609Y-104350389D01*
X105799851Y-104325848D01*
X105824392Y-104303606D01*
X105850995Y-104283876D01*
X105879404Y-104266849D01*
X105909344Y-104252688D01*
X105940529Y-104241530D01*
X105972657Y-104233482D01*
X106005419Y-104228622D01*
X106038500Y-104226997D01*
X106813500Y-104226997D01*
X106846581Y-104228622D01*
X106846581Y-104228622D01*
G37*
D14*
X106426000Y-104901997D03*
D13*
G36*
X108596581Y-104228622D02*
X108629343Y-104233482D01*
X108661471Y-104241530D01*
X108692656Y-104252688D01*
X108722596Y-104266849D01*
X108751005Y-104283876D01*
X108777608Y-104303606D01*
X108802149Y-104325848D01*
X108824391Y-104350389D01*
X108844121Y-104376992D01*
X108861148Y-104405401D01*
X108875309Y-104435341D01*
X108886467Y-104466526D01*
X108894515Y-104498654D01*
X108899375Y-104531416D01*
X108901000Y-104564497D01*
X108901000Y-105239497D01*
X108899375Y-105272578D01*
X108894515Y-105305340D01*
X108886467Y-105337468D01*
X108875309Y-105368653D01*
X108861148Y-105398593D01*
X108844121Y-105427002D01*
X108824391Y-105453605D01*
X108802149Y-105478146D01*
X108777608Y-105500388D01*
X108751005Y-105520118D01*
X108722596Y-105537145D01*
X108692656Y-105551306D01*
X108661471Y-105562464D01*
X108629343Y-105570512D01*
X108596581Y-105575372D01*
X108563500Y-105576997D01*
X107788500Y-105576997D01*
X107755419Y-105575372D01*
X107722657Y-105570512D01*
X107690529Y-105562464D01*
X107659344Y-105551306D01*
X107629404Y-105537145D01*
X107600995Y-105520118D01*
X107574392Y-105500388D01*
X107549851Y-105478146D01*
X107527609Y-105453605D01*
X107507879Y-105427002D01*
X107490852Y-105398593D01*
X107476691Y-105368653D01*
X107465533Y-105337468D01*
X107457485Y-105305340D01*
X107452625Y-105272578D01*
X107451000Y-105239497D01*
X107451000Y-104564497D01*
X107452625Y-104531416D01*
X107457485Y-104498654D01*
X107465533Y-104466526D01*
X107476691Y-104435341D01*
X107490852Y-104405401D01*
X107507879Y-104376992D01*
X107527609Y-104350389D01*
X107549851Y-104325848D01*
X107574392Y-104303606D01*
X107600995Y-104283876D01*
X107629404Y-104266849D01*
X107659344Y-104252688D01*
X107690529Y-104241530D01*
X107722657Y-104233482D01*
X107755419Y-104228622D01*
X107788500Y-104226997D01*
X108563500Y-104226997D01*
X108596581Y-104228622D01*
X108596581Y-104228622D01*
G37*
D14*
X108176000Y-104901997D03*
G04 #@! TD*
D13*
G04 #@! TO.C,D4*
G36*
X120195581Y-104228622D02*
X120228343Y-104233482D01*
X120260471Y-104241530D01*
X120291656Y-104252688D01*
X120321596Y-104266849D01*
X120350005Y-104283876D01*
X120376608Y-104303606D01*
X120401149Y-104325848D01*
X120423391Y-104350389D01*
X120443121Y-104376992D01*
X120460148Y-104405401D01*
X120474309Y-104435341D01*
X120485467Y-104466526D01*
X120493515Y-104498654D01*
X120498375Y-104531416D01*
X120500000Y-104564497D01*
X120500000Y-105239497D01*
X120498375Y-105272578D01*
X120493515Y-105305340D01*
X120485467Y-105337468D01*
X120474309Y-105368653D01*
X120460148Y-105398593D01*
X120443121Y-105427002D01*
X120423391Y-105453605D01*
X120401149Y-105478146D01*
X120376608Y-105500388D01*
X120350005Y-105520118D01*
X120321596Y-105537145D01*
X120291656Y-105551306D01*
X120260471Y-105562464D01*
X120228343Y-105570512D01*
X120195581Y-105575372D01*
X120162500Y-105576997D01*
X119387500Y-105576997D01*
X119354419Y-105575372D01*
X119321657Y-105570512D01*
X119289529Y-105562464D01*
X119258344Y-105551306D01*
X119228404Y-105537145D01*
X119199995Y-105520118D01*
X119173392Y-105500388D01*
X119148851Y-105478146D01*
X119126609Y-105453605D01*
X119106879Y-105427002D01*
X119089852Y-105398593D01*
X119075691Y-105368653D01*
X119064533Y-105337468D01*
X119056485Y-105305340D01*
X119051625Y-105272578D01*
X119050000Y-105239497D01*
X119050000Y-104564497D01*
X119051625Y-104531416D01*
X119056485Y-104498654D01*
X119064533Y-104466526D01*
X119075691Y-104435341D01*
X119089852Y-104405401D01*
X119106879Y-104376992D01*
X119126609Y-104350389D01*
X119148851Y-104325848D01*
X119173392Y-104303606D01*
X119199995Y-104283876D01*
X119228404Y-104266849D01*
X119258344Y-104252688D01*
X119289529Y-104241530D01*
X119321657Y-104233482D01*
X119354419Y-104228622D01*
X119387500Y-104226997D01*
X120162500Y-104226997D01*
X120195581Y-104228622D01*
X120195581Y-104228622D01*
G37*
D14*
X119775000Y-104901997D03*
D13*
G36*
X121945581Y-104228622D02*
X121978343Y-104233482D01*
X122010471Y-104241530D01*
X122041656Y-104252688D01*
X122071596Y-104266849D01*
X122100005Y-104283876D01*
X122126608Y-104303606D01*
X122151149Y-104325848D01*
X122173391Y-104350389D01*
X122193121Y-104376992D01*
X122210148Y-104405401D01*
X122224309Y-104435341D01*
X122235467Y-104466526D01*
X122243515Y-104498654D01*
X122248375Y-104531416D01*
X122250000Y-104564497D01*
X122250000Y-105239497D01*
X122248375Y-105272578D01*
X122243515Y-105305340D01*
X122235467Y-105337468D01*
X122224309Y-105368653D01*
X122210148Y-105398593D01*
X122193121Y-105427002D01*
X122173391Y-105453605D01*
X122151149Y-105478146D01*
X122126608Y-105500388D01*
X122100005Y-105520118D01*
X122071596Y-105537145D01*
X122041656Y-105551306D01*
X122010471Y-105562464D01*
X121978343Y-105570512D01*
X121945581Y-105575372D01*
X121912500Y-105576997D01*
X121137500Y-105576997D01*
X121104419Y-105575372D01*
X121071657Y-105570512D01*
X121039529Y-105562464D01*
X121008344Y-105551306D01*
X120978404Y-105537145D01*
X120949995Y-105520118D01*
X120923392Y-105500388D01*
X120898851Y-105478146D01*
X120876609Y-105453605D01*
X120856879Y-105427002D01*
X120839852Y-105398593D01*
X120825691Y-105368653D01*
X120814533Y-105337468D01*
X120806485Y-105305340D01*
X120801625Y-105272578D01*
X120800000Y-105239497D01*
X120800000Y-104564497D01*
X120801625Y-104531416D01*
X120806485Y-104498654D01*
X120814533Y-104466526D01*
X120825691Y-104435341D01*
X120839852Y-104405401D01*
X120856879Y-104376992D01*
X120876609Y-104350389D01*
X120898851Y-104325848D01*
X120923392Y-104303606D01*
X120949995Y-104283876D01*
X120978404Y-104266849D01*
X121008344Y-104252688D01*
X121039529Y-104241530D01*
X121071657Y-104233482D01*
X121104419Y-104228622D01*
X121137500Y-104226997D01*
X121912500Y-104226997D01*
X121945581Y-104228622D01*
X121945581Y-104228622D01*
G37*
D14*
X121525000Y-104901997D03*
G04 #@! TD*
D13*
G04 #@! TO.C,D5*
G36*
X106846581Y-92773958D02*
X106879343Y-92778818D01*
X106911471Y-92786866D01*
X106942656Y-92798024D01*
X106972596Y-92812185D01*
X107001005Y-92829212D01*
X107027608Y-92848942D01*
X107052149Y-92871184D01*
X107074391Y-92895725D01*
X107094121Y-92922328D01*
X107111148Y-92950737D01*
X107125309Y-92980677D01*
X107136467Y-93011862D01*
X107144515Y-93043990D01*
X107149375Y-93076752D01*
X107151000Y-93109833D01*
X107151000Y-93784833D01*
X107149375Y-93817914D01*
X107144515Y-93850676D01*
X107136467Y-93882804D01*
X107125309Y-93913989D01*
X107111148Y-93943929D01*
X107094121Y-93972338D01*
X107074391Y-93998941D01*
X107052149Y-94023482D01*
X107027608Y-94045724D01*
X107001005Y-94065454D01*
X106972596Y-94082481D01*
X106942656Y-94096642D01*
X106911471Y-94107800D01*
X106879343Y-94115848D01*
X106846581Y-94120708D01*
X106813500Y-94122333D01*
X106038500Y-94122333D01*
X106005419Y-94120708D01*
X105972657Y-94115848D01*
X105940529Y-94107800D01*
X105909344Y-94096642D01*
X105879404Y-94082481D01*
X105850995Y-94065454D01*
X105824392Y-94045724D01*
X105799851Y-94023482D01*
X105777609Y-93998941D01*
X105757879Y-93972338D01*
X105740852Y-93943929D01*
X105726691Y-93913989D01*
X105715533Y-93882804D01*
X105707485Y-93850676D01*
X105702625Y-93817914D01*
X105701000Y-93784833D01*
X105701000Y-93109833D01*
X105702625Y-93076752D01*
X105707485Y-93043990D01*
X105715533Y-93011862D01*
X105726691Y-92980677D01*
X105740852Y-92950737D01*
X105757879Y-92922328D01*
X105777609Y-92895725D01*
X105799851Y-92871184D01*
X105824392Y-92848942D01*
X105850995Y-92829212D01*
X105879404Y-92812185D01*
X105909344Y-92798024D01*
X105940529Y-92786866D01*
X105972657Y-92778818D01*
X106005419Y-92773958D01*
X106038500Y-92772333D01*
X106813500Y-92772333D01*
X106846581Y-92773958D01*
X106846581Y-92773958D01*
G37*
D14*
X106426000Y-93447333D03*
D13*
G36*
X108596581Y-92773958D02*
X108629343Y-92778818D01*
X108661471Y-92786866D01*
X108692656Y-92798024D01*
X108722596Y-92812185D01*
X108751005Y-92829212D01*
X108777608Y-92848942D01*
X108802149Y-92871184D01*
X108824391Y-92895725D01*
X108844121Y-92922328D01*
X108861148Y-92950737D01*
X108875309Y-92980677D01*
X108886467Y-93011862D01*
X108894515Y-93043990D01*
X108899375Y-93076752D01*
X108901000Y-93109833D01*
X108901000Y-93784833D01*
X108899375Y-93817914D01*
X108894515Y-93850676D01*
X108886467Y-93882804D01*
X108875309Y-93913989D01*
X108861148Y-93943929D01*
X108844121Y-93972338D01*
X108824391Y-93998941D01*
X108802149Y-94023482D01*
X108777608Y-94045724D01*
X108751005Y-94065454D01*
X108722596Y-94082481D01*
X108692656Y-94096642D01*
X108661471Y-94107800D01*
X108629343Y-94115848D01*
X108596581Y-94120708D01*
X108563500Y-94122333D01*
X107788500Y-94122333D01*
X107755419Y-94120708D01*
X107722657Y-94115848D01*
X107690529Y-94107800D01*
X107659344Y-94096642D01*
X107629404Y-94082481D01*
X107600995Y-94065454D01*
X107574392Y-94045724D01*
X107549851Y-94023482D01*
X107527609Y-93998941D01*
X107507879Y-93972338D01*
X107490852Y-93943929D01*
X107476691Y-93913989D01*
X107465533Y-93882804D01*
X107457485Y-93850676D01*
X107452625Y-93817914D01*
X107451000Y-93784833D01*
X107451000Y-93109833D01*
X107452625Y-93076752D01*
X107457485Y-93043990D01*
X107465533Y-93011862D01*
X107476691Y-92980677D01*
X107490852Y-92950737D01*
X107507879Y-92922328D01*
X107527609Y-92895725D01*
X107549851Y-92871184D01*
X107574392Y-92848942D01*
X107600995Y-92829212D01*
X107629404Y-92812185D01*
X107659344Y-92798024D01*
X107690529Y-92786866D01*
X107722657Y-92778818D01*
X107755419Y-92773958D01*
X107788500Y-92772333D01*
X108563500Y-92772333D01*
X108596581Y-92773958D01*
X108596581Y-92773958D01*
G37*
D14*
X108176000Y-93447333D03*
G04 #@! TD*
D13*
G04 #@! TO.C,D6*
G36*
X106846581Y-95637624D02*
X106879343Y-95642484D01*
X106911471Y-95650532D01*
X106942656Y-95661690D01*
X106972596Y-95675851D01*
X107001005Y-95692878D01*
X107027608Y-95712608D01*
X107052149Y-95734850D01*
X107074391Y-95759391D01*
X107094121Y-95785994D01*
X107111148Y-95814403D01*
X107125309Y-95844343D01*
X107136467Y-95875528D01*
X107144515Y-95907656D01*
X107149375Y-95940418D01*
X107151000Y-95973499D01*
X107151000Y-96648499D01*
X107149375Y-96681580D01*
X107144515Y-96714342D01*
X107136467Y-96746470D01*
X107125309Y-96777655D01*
X107111148Y-96807595D01*
X107094121Y-96836004D01*
X107074391Y-96862607D01*
X107052149Y-96887148D01*
X107027608Y-96909390D01*
X107001005Y-96929120D01*
X106972596Y-96946147D01*
X106942656Y-96960308D01*
X106911471Y-96971466D01*
X106879343Y-96979514D01*
X106846581Y-96984374D01*
X106813500Y-96985999D01*
X106038500Y-96985999D01*
X106005419Y-96984374D01*
X105972657Y-96979514D01*
X105940529Y-96971466D01*
X105909344Y-96960308D01*
X105879404Y-96946147D01*
X105850995Y-96929120D01*
X105824392Y-96909390D01*
X105799851Y-96887148D01*
X105777609Y-96862607D01*
X105757879Y-96836004D01*
X105740852Y-96807595D01*
X105726691Y-96777655D01*
X105715533Y-96746470D01*
X105707485Y-96714342D01*
X105702625Y-96681580D01*
X105701000Y-96648499D01*
X105701000Y-95973499D01*
X105702625Y-95940418D01*
X105707485Y-95907656D01*
X105715533Y-95875528D01*
X105726691Y-95844343D01*
X105740852Y-95814403D01*
X105757879Y-95785994D01*
X105777609Y-95759391D01*
X105799851Y-95734850D01*
X105824392Y-95712608D01*
X105850995Y-95692878D01*
X105879404Y-95675851D01*
X105909344Y-95661690D01*
X105940529Y-95650532D01*
X105972657Y-95642484D01*
X106005419Y-95637624D01*
X106038500Y-95635999D01*
X106813500Y-95635999D01*
X106846581Y-95637624D01*
X106846581Y-95637624D01*
G37*
D14*
X106426000Y-96310999D03*
D13*
G36*
X108596581Y-95637624D02*
X108629343Y-95642484D01*
X108661471Y-95650532D01*
X108692656Y-95661690D01*
X108722596Y-95675851D01*
X108751005Y-95692878D01*
X108777608Y-95712608D01*
X108802149Y-95734850D01*
X108824391Y-95759391D01*
X108844121Y-95785994D01*
X108861148Y-95814403D01*
X108875309Y-95844343D01*
X108886467Y-95875528D01*
X108894515Y-95907656D01*
X108899375Y-95940418D01*
X108901000Y-95973499D01*
X108901000Y-96648499D01*
X108899375Y-96681580D01*
X108894515Y-96714342D01*
X108886467Y-96746470D01*
X108875309Y-96777655D01*
X108861148Y-96807595D01*
X108844121Y-96836004D01*
X108824391Y-96862607D01*
X108802149Y-96887148D01*
X108777608Y-96909390D01*
X108751005Y-96929120D01*
X108722596Y-96946147D01*
X108692656Y-96960308D01*
X108661471Y-96971466D01*
X108629343Y-96979514D01*
X108596581Y-96984374D01*
X108563500Y-96985999D01*
X107788500Y-96985999D01*
X107755419Y-96984374D01*
X107722657Y-96979514D01*
X107690529Y-96971466D01*
X107659344Y-96960308D01*
X107629404Y-96946147D01*
X107600995Y-96929120D01*
X107574392Y-96909390D01*
X107549851Y-96887148D01*
X107527609Y-96862607D01*
X107507879Y-96836004D01*
X107490852Y-96807595D01*
X107476691Y-96777655D01*
X107465533Y-96746470D01*
X107457485Y-96714342D01*
X107452625Y-96681580D01*
X107451000Y-96648499D01*
X107451000Y-95973499D01*
X107452625Y-95940418D01*
X107457485Y-95907656D01*
X107465533Y-95875528D01*
X107476691Y-95844343D01*
X107490852Y-95814403D01*
X107507879Y-95785994D01*
X107527609Y-95759391D01*
X107549851Y-95734850D01*
X107574392Y-95712608D01*
X107600995Y-95692878D01*
X107629404Y-95675851D01*
X107659344Y-95661690D01*
X107690529Y-95650532D01*
X107722657Y-95642484D01*
X107755419Y-95637624D01*
X107788500Y-95635999D01*
X108563500Y-95635999D01*
X108596581Y-95637624D01*
X108596581Y-95637624D01*
G37*
D14*
X108176000Y-96310999D03*
G04 #@! TD*
D13*
G04 #@! TO.C,D7*
G36*
X106846581Y-98501290D02*
X106879343Y-98506150D01*
X106911471Y-98514198D01*
X106942656Y-98525356D01*
X106972596Y-98539517D01*
X107001005Y-98556544D01*
X107027608Y-98576274D01*
X107052149Y-98598516D01*
X107074391Y-98623057D01*
X107094121Y-98649660D01*
X107111148Y-98678069D01*
X107125309Y-98708009D01*
X107136467Y-98739194D01*
X107144515Y-98771322D01*
X107149375Y-98804084D01*
X107151000Y-98837165D01*
X107151000Y-99512165D01*
X107149375Y-99545246D01*
X107144515Y-99578008D01*
X107136467Y-99610136D01*
X107125309Y-99641321D01*
X107111148Y-99671261D01*
X107094121Y-99699670D01*
X107074391Y-99726273D01*
X107052149Y-99750814D01*
X107027608Y-99773056D01*
X107001005Y-99792786D01*
X106972596Y-99809813D01*
X106942656Y-99823974D01*
X106911471Y-99835132D01*
X106879343Y-99843180D01*
X106846581Y-99848040D01*
X106813500Y-99849665D01*
X106038500Y-99849665D01*
X106005419Y-99848040D01*
X105972657Y-99843180D01*
X105940529Y-99835132D01*
X105909344Y-99823974D01*
X105879404Y-99809813D01*
X105850995Y-99792786D01*
X105824392Y-99773056D01*
X105799851Y-99750814D01*
X105777609Y-99726273D01*
X105757879Y-99699670D01*
X105740852Y-99671261D01*
X105726691Y-99641321D01*
X105715533Y-99610136D01*
X105707485Y-99578008D01*
X105702625Y-99545246D01*
X105701000Y-99512165D01*
X105701000Y-98837165D01*
X105702625Y-98804084D01*
X105707485Y-98771322D01*
X105715533Y-98739194D01*
X105726691Y-98708009D01*
X105740852Y-98678069D01*
X105757879Y-98649660D01*
X105777609Y-98623057D01*
X105799851Y-98598516D01*
X105824392Y-98576274D01*
X105850995Y-98556544D01*
X105879404Y-98539517D01*
X105909344Y-98525356D01*
X105940529Y-98514198D01*
X105972657Y-98506150D01*
X106005419Y-98501290D01*
X106038500Y-98499665D01*
X106813500Y-98499665D01*
X106846581Y-98501290D01*
X106846581Y-98501290D01*
G37*
D14*
X106426000Y-99174665D03*
D13*
G36*
X108596581Y-98501290D02*
X108629343Y-98506150D01*
X108661471Y-98514198D01*
X108692656Y-98525356D01*
X108722596Y-98539517D01*
X108751005Y-98556544D01*
X108777608Y-98576274D01*
X108802149Y-98598516D01*
X108824391Y-98623057D01*
X108844121Y-98649660D01*
X108861148Y-98678069D01*
X108875309Y-98708009D01*
X108886467Y-98739194D01*
X108894515Y-98771322D01*
X108899375Y-98804084D01*
X108901000Y-98837165D01*
X108901000Y-99512165D01*
X108899375Y-99545246D01*
X108894515Y-99578008D01*
X108886467Y-99610136D01*
X108875309Y-99641321D01*
X108861148Y-99671261D01*
X108844121Y-99699670D01*
X108824391Y-99726273D01*
X108802149Y-99750814D01*
X108777608Y-99773056D01*
X108751005Y-99792786D01*
X108722596Y-99809813D01*
X108692656Y-99823974D01*
X108661471Y-99835132D01*
X108629343Y-99843180D01*
X108596581Y-99848040D01*
X108563500Y-99849665D01*
X107788500Y-99849665D01*
X107755419Y-99848040D01*
X107722657Y-99843180D01*
X107690529Y-99835132D01*
X107659344Y-99823974D01*
X107629404Y-99809813D01*
X107600995Y-99792786D01*
X107574392Y-99773056D01*
X107549851Y-99750814D01*
X107527609Y-99726273D01*
X107507879Y-99699670D01*
X107490852Y-99671261D01*
X107476691Y-99641321D01*
X107465533Y-99610136D01*
X107457485Y-99578008D01*
X107452625Y-99545246D01*
X107451000Y-99512165D01*
X107451000Y-98837165D01*
X107452625Y-98804084D01*
X107457485Y-98771322D01*
X107465533Y-98739194D01*
X107476691Y-98708009D01*
X107490852Y-98678069D01*
X107507879Y-98649660D01*
X107527609Y-98623057D01*
X107549851Y-98598516D01*
X107574392Y-98576274D01*
X107600995Y-98556544D01*
X107629404Y-98539517D01*
X107659344Y-98525356D01*
X107690529Y-98514198D01*
X107722657Y-98506150D01*
X107755419Y-98501290D01*
X107788500Y-98499665D01*
X108563500Y-98499665D01*
X108596581Y-98501290D01*
X108596581Y-98501290D01*
G37*
D14*
X108176000Y-99174665D03*
G04 #@! TD*
D13*
G04 #@! TO.C,D8*
G36*
X106846581Y-101364956D02*
X106879343Y-101369816D01*
X106911471Y-101377864D01*
X106942656Y-101389022D01*
X106972596Y-101403183D01*
X107001005Y-101420210D01*
X107027608Y-101439940D01*
X107052149Y-101462182D01*
X107074391Y-101486723D01*
X107094121Y-101513326D01*
X107111148Y-101541735D01*
X107125309Y-101571675D01*
X107136467Y-101602860D01*
X107144515Y-101634988D01*
X107149375Y-101667750D01*
X107151000Y-101700831D01*
X107151000Y-102375831D01*
X107149375Y-102408912D01*
X107144515Y-102441674D01*
X107136467Y-102473802D01*
X107125309Y-102504987D01*
X107111148Y-102534927D01*
X107094121Y-102563336D01*
X107074391Y-102589939D01*
X107052149Y-102614480D01*
X107027608Y-102636722D01*
X107001005Y-102656452D01*
X106972596Y-102673479D01*
X106942656Y-102687640D01*
X106911471Y-102698798D01*
X106879343Y-102706846D01*
X106846581Y-102711706D01*
X106813500Y-102713331D01*
X106038500Y-102713331D01*
X106005419Y-102711706D01*
X105972657Y-102706846D01*
X105940529Y-102698798D01*
X105909344Y-102687640D01*
X105879404Y-102673479D01*
X105850995Y-102656452D01*
X105824392Y-102636722D01*
X105799851Y-102614480D01*
X105777609Y-102589939D01*
X105757879Y-102563336D01*
X105740852Y-102534927D01*
X105726691Y-102504987D01*
X105715533Y-102473802D01*
X105707485Y-102441674D01*
X105702625Y-102408912D01*
X105701000Y-102375831D01*
X105701000Y-101700831D01*
X105702625Y-101667750D01*
X105707485Y-101634988D01*
X105715533Y-101602860D01*
X105726691Y-101571675D01*
X105740852Y-101541735D01*
X105757879Y-101513326D01*
X105777609Y-101486723D01*
X105799851Y-101462182D01*
X105824392Y-101439940D01*
X105850995Y-101420210D01*
X105879404Y-101403183D01*
X105909344Y-101389022D01*
X105940529Y-101377864D01*
X105972657Y-101369816D01*
X106005419Y-101364956D01*
X106038500Y-101363331D01*
X106813500Y-101363331D01*
X106846581Y-101364956D01*
X106846581Y-101364956D01*
G37*
D14*
X106426000Y-102038331D03*
D13*
G36*
X108596581Y-101364956D02*
X108629343Y-101369816D01*
X108661471Y-101377864D01*
X108692656Y-101389022D01*
X108722596Y-101403183D01*
X108751005Y-101420210D01*
X108777608Y-101439940D01*
X108802149Y-101462182D01*
X108824391Y-101486723D01*
X108844121Y-101513326D01*
X108861148Y-101541735D01*
X108875309Y-101571675D01*
X108886467Y-101602860D01*
X108894515Y-101634988D01*
X108899375Y-101667750D01*
X108901000Y-101700831D01*
X108901000Y-102375831D01*
X108899375Y-102408912D01*
X108894515Y-102441674D01*
X108886467Y-102473802D01*
X108875309Y-102504987D01*
X108861148Y-102534927D01*
X108844121Y-102563336D01*
X108824391Y-102589939D01*
X108802149Y-102614480D01*
X108777608Y-102636722D01*
X108751005Y-102656452D01*
X108722596Y-102673479D01*
X108692656Y-102687640D01*
X108661471Y-102698798D01*
X108629343Y-102706846D01*
X108596581Y-102711706D01*
X108563500Y-102713331D01*
X107788500Y-102713331D01*
X107755419Y-102711706D01*
X107722657Y-102706846D01*
X107690529Y-102698798D01*
X107659344Y-102687640D01*
X107629404Y-102673479D01*
X107600995Y-102656452D01*
X107574392Y-102636722D01*
X107549851Y-102614480D01*
X107527609Y-102589939D01*
X107507879Y-102563336D01*
X107490852Y-102534927D01*
X107476691Y-102504987D01*
X107465533Y-102473802D01*
X107457485Y-102441674D01*
X107452625Y-102408912D01*
X107451000Y-102375831D01*
X107451000Y-101700831D01*
X107452625Y-101667750D01*
X107457485Y-101634988D01*
X107465533Y-101602860D01*
X107476691Y-101571675D01*
X107490852Y-101541735D01*
X107507879Y-101513326D01*
X107527609Y-101486723D01*
X107549851Y-101462182D01*
X107574392Y-101439940D01*
X107600995Y-101420210D01*
X107629404Y-101403183D01*
X107659344Y-101389022D01*
X107690529Y-101377864D01*
X107722657Y-101369816D01*
X107755419Y-101364956D01*
X107788500Y-101363331D01*
X108563500Y-101363331D01*
X108596581Y-101364956D01*
X108596581Y-101364956D01*
G37*
D14*
X108176000Y-102038331D03*
G04 #@! TD*
D13*
G04 #@! TO.C,D9*
G36*
X120195581Y-92671625D02*
X120228343Y-92676485D01*
X120260471Y-92684533D01*
X120291656Y-92695691D01*
X120321596Y-92709852D01*
X120350005Y-92726879D01*
X120376608Y-92746609D01*
X120401149Y-92768851D01*
X120423391Y-92793392D01*
X120443121Y-92819995D01*
X120460148Y-92848404D01*
X120474309Y-92878344D01*
X120485467Y-92909529D01*
X120493515Y-92941657D01*
X120498375Y-92974419D01*
X120500000Y-93007500D01*
X120500000Y-93682500D01*
X120498375Y-93715581D01*
X120493515Y-93748343D01*
X120485467Y-93780471D01*
X120474309Y-93811656D01*
X120460148Y-93841596D01*
X120443121Y-93870005D01*
X120423391Y-93896608D01*
X120401149Y-93921149D01*
X120376608Y-93943391D01*
X120350005Y-93963121D01*
X120321596Y-93980148D01*
X120291656Y-93994309D01*
X120260471Y-94005467D01*
X120228343Y-94013515D01*
X120195581Y-94018375D01*
X120162500Y-94020000D01*
X119387500Y-94020000D01*
X119354419Y-94018375D01*
X119321657Y-94013515D01*
X119289529Y-94005467D01*
X119258344Y-93994309D01*
X119228404Y-93980148D01*
X119199995Y-93963121D01*
X119173392Y-93943391D01*
X119148851Y-93921149D01*
X119126609Y-93896608D01*
X119106879Y-93870005D01*
X119089852Y-93841596D01*
X119075691Y-93811656D01*
X119064533Y-93780471D01*
X119056485Y-93748343D01*
X119051625Y-93715581D01*
X119050000Y-93682500D01*
X119050000Y-93007500D01*
X119051625Y-92974419D01*
X119056485Y-92941657D01*
X119064533Y-92909529D01*
X119075691Y-92878344D01*
X119089852Y-92848404D01*
X119106879Y-92819995D01*
X119126609Y-92793392D01*
X119148851Y-92768851D01*
X119173392Y-92746609D01*
X119199995Y-92726879D01*
X119228404Y-92709852D01*
X119258344Y-92695691D01*
X119289529Y-92684533D01*
X119321657Y-92676485D01*
X119354419Y-92671625D01*
X119387500Y-92670000D01*
X120162500Y-92670000D01*
X120195581Y-92671625D01*
X120195581Y-92671625D01*
G37*
D14*
X119775000Y-93345000D03*
D13*
G36*
X121945581Y-92671625D02*
X121978343Y-92676485D01*
X122010471Y-92684533D01*
X122041656Y-92695691D01*
X122071596Y-92709852D01*
X122100005Y-92726879D01*
X122126608Y-92746609D01*
X122151149Y-92768851D01*
X122173391Y-92793392D01*
X122193121Y-92819995D01*
X122210148Y-92848404D01*
X122224309Y-92878344D01*
X122235467Y-92909529D01*
X122243515Y-92941657D01*
X122248375Y-92974419D01*
X122250000Y-93007500D01*
X122250000Y-93682500D01*
X122248375Y-93715581D01*
X122243515Y-93748343D01*
X122235467Y-93780471D01*
X122224309Y-93811656D01*
X122210148Y-93841596D01*
X122193121Y-93870005D01*
X122173391Y-93896608D01*
X122151149Y-93921149D01*
X122126608Y-93943391D01*
X122100005Y-93963121D01*
X122071596Y-93980148D01*
X122041656Y-93994309D01*
X122010471Y-94005467D01*
X121978343Y-94013515D01*
X121945581Y-94018375D01*
X121912500Y-94020000D01*
X121137500Y-94020000D01*
X121104419Y-94018375D01*
X121071657Y-94013515D01*
X121039529Y-94005467D01*
X121008344Y-93994309D01*
X120978404Y-93980148D01*
X120949995Y-93963121D01*
X120923392Y-93943391D01*
X120898851Y-93921149D01*
X120876609Y-93896608D01*
X120856879Y-93870005D01*
X120839852Y-93841596D01*
X120825691Y-93811656D01*
X120814533Y-93780471D01*
X120806485Y-93748343D01*
X120801625Y-93715581D01*
X120800000Y-93682500D01*
X120800000Y-93007500D01*
X120801625Y-92974419D01*
X120806485Y-92941657D01*
X120814533Y-92909529D01*
X120825691Y-92878344D01*
X120839852Y-92848404D01*
X120856879Y-92819995D01*
X120876609Y-92793392D01*
X120898851Y-92768851D01*
X120923392Y-92746609D01*
X120949995Y-92726879D01*
X120978404Y-92709852D01*
X121008344Y-92695691D01*
X121039529Y-92684533D01*
X121071657Y-92676485D01*
X121104419Y-92671625D01*
X121137500Y-92670000D01*
X121912500Y-92670000D01*
X121945581Y-92671625D01*
X121945581Y-92671625D01*
G37*
D14*
X121525000Y-93345000D03*
G04 #@! TD*
D13*
G04 #@! TO.C,D10*
G36*
X120195581Y-95554525D02*
X120228343Y-95559385D01*
X120260471Y-95567433D01*
X120291656Y-95578591D01*
X120321596Y-95592752D01*
X120350005Y-95609779D01*
X120376608Y-95629509D01*
X120401149Y-95651751D01*
X120423391Y-95676292D01*
X120443121Y-95702895D01*
X120460148Y-95731304D01*
X120474309Y-95761244D01*
X120485467Y-95792429D01*
X120493515Y-95824557D01*
X120498375Y-95857319D01*
X120500000Y-95890400D01*
X120500000Y-96565400D01*
X120498375Y-96598481D01*
X120493515Y-96631243D01*
X120485467Y-96663371D01*
X120474309Y-96694556D01*
X120460148Y-96724496D01*
X120443121Y-96752905D01*
X120423391Y-96779508D01*
X120401149Y-96804049D01*
X120376608Y-96826291D01*
X120350005Y-96846021D01*
X120321596Y-96863048D01*
X120291656Y-96877209D01*
X120260471Y-96888367D01*
X120228343Y-96896415D01*
X120195581Y-96901275D01*
X120162500Y-96902900D01*
X119387500Y-96902900D01*
X119354419Y-96901275D01*
X119321657Y-96896415D01*
X119289529Y-96888367D01*
X119258344Y-96877209D01*
X119228404Y-96863048D01*
X119199995Y-96846021D01*
X119173392Y-96826291D01*
X119148851Y-96804049D01*
X119126609Y-96779508D01*
X119106879Y-96752905D01*
X119089852Y-96724496D01*
X119075691Y-96694556D01*
X119064533Y-96663371D01*
X119056485Y-96631243D01*
X119051625Y-96598481D01*
X119050000Y-96565400D01*
X119050000Y-95890400D01*
X119051625Y-95857319D01*
X119056485Y-95824557D01*
X119064533Y-95792429D01*
X119075691Y-95761244D01*
X119089852Y-95731304D01*
X119106879Y-95702895D01*
X119126609Y-95676292D01*
X119148851Y-95651751D01*
X119173392Y-95629509D01*
X119199995Y-95609779D01*
X119228404Y-95592752D01*
X119258344Y-95578591D01*
X119289529Y-95567433D01*
X119321657Y-95559385D01*
X119354419Y-95554525D01*
X119387500Y-95552900D01*
X120162500Y-95552900D01*
X120195581Y-95554525D01*
X120195581Y-95554525D01*
G37*
D14*
X119775000Y-96227900D03*
D13*
G36*
X121945581Y-95554525D02*
X121978343Y-95559385D01*
X122010471Y-95567433D01*
X122041656Y-95578591D01*
X122071596Y-95592752D01*
X122100005Y-95609779D01*
X122126608Y-95629509D01*
X122151149Y-95651751D01*
X122173391Y-95676292D01*
X122193121Y-95702895D01*
X122210148Y-95731304D01*
X122224309Y-95761244D01*
X122235467Y-95792429D01*
X122243515Y-95824557D01*
X122248375Y-95857319D01*
X122250000Y-95890400D01*
X122250000Y-96565400D01*
X122248375Y-96598481D01*
X122243515Y-96631243D01*
X122235467Y-96663371D01*
X122224309Y-96694556D01*
X122210148Y-96724496D01*
X122193121Y-96752905D01*
X122173391Y-96779508D01*
X122151149Y-96804049D01*
X122126608Y-96826291D01*
X122100005Y-96846021D01*
X122071596Y-96863048D01*
X122041656Y-96877209D01*
X122010471Y-96888367D01*
X121978343Y-96896415D01*
X121945581Y-96901275D01*
X121912500Y-96902900D01*
X121137500Y-96902900D01*
X121104419Y-96901275D01*
X121071657Y-96896415D01*
X121039529Y-96888367D01*
X121008344Y-96877209D01*
X120978404Y-96863048D01*
X120949995Y-96846021D01*
X120923392Y-96826291D01*
X120898851Y-96804049D01*
X120876609Y-96779508D01*
X120856879Y-96752905D01*
X120839852Y-96724496D01*
X120825691Y-96694556D01*
X120814533Y-96663371D01*
X120806485Y-96631243D01*
X120801625Y-96598481D01*
X120800000Y-96565400D01*
X120800000Y-95890400D01*
X120801625Y-95857319D01*
X120806485Y-95824557D01*
X120814533Y-95792429D01*
X120825691Y-95761244D01*
X120839852Y-95731304D01*
X120856879Y-95702895D01*
X120876609Y-95676292D01*
X120898851Y-95651751D01*
X120923392Y-95629509D01*
X120949995Y-95609779D01*
X120978404Y-95592752D01*
X121008344Y-95578591D01*
X121039529Y-95567433D01*
X121071657Y-95559385D01*
X121104419Y-95554525D01*
X121137500Y-95552900D01*
X121912500Y-95552900D01*
X121945581Y-95554525D01*
X121945581Y-95554525D01*
G37*
D14*
X121525000Y-96227900D03*
G04 #@! TD*
D13*
G04 #@! TO.C,D11*
G36*
X120195581Y-98450125D02*
X120228343Y-98454985D01*
X120260471Y-98463033D01*
X120291656Y-98474191D01*
X120321596Y-98488352D01*
X120350005Y-98505379D01*
X120376608Y-98525109D01*
X120401149Y-98547351D01*
X120423391Y-98571892D01*
X120443121Y-98598495D01*
X120460148Y-98626904D01*
X120474309Y-98656844D01*
X120485467Y-98688029D01*
X120493515Y-98720157D01*
X120498375Y-98752919D01*
X120500000Y-98786000D01*
X120500000Y-99461000D01*
X120498375Y-99494081D01*
X120493515Y-99526843D01*
X120485467Y-99558971D01*
X120474309Y-99590156D01*
X120460148Y-99620096D01*
X120443121Y-99648505D01*
X120423391Y-99675108D01*
X120401149Y-99699649D01*
X120376608Y-99721891D01*
X120350005Y-99741621D01*
X120321596Y-99758648D01*
X120291656Y-99772809D01*
X120260471Y-99783967D01*
X120228343Y-99792015D01*
X120195581Y-99796875D01*
X120162500Y-99798500D01*
X119387500Y-99798500D01*
X119354419Y-99796875D01*
X119321657Y-99792015D01*
X119289529Y-99783967D01*
X119258344Y-99772809D01*
X119228404Y-99758648D01*
X119199995Y-99741621D01*
X119173392Y-99721891D01*
X119148851Y-99699649D01*
X119126609Y-99675108D01*
X119106879Y-99648505D01*
X119089852Y-99620096D01*
X119075691Y-99590156D01*
X119064533Y-99558971D01*
X119056485Y-99526843D01*
X119051625Y-99494081D01*
X119050000Y-99461000D01*
X119050000Y-98786000D01*
X119051625Y-98752919D01*
X119056485Y-98720157D01*
X119064533Y-98688029D01*
X119075691Y-98656844D01*
X119089852Y-98626904D01*
X119106879Y-98598495D01*
X119126609Y-98571892D01*
X119148851Y-98547351D01*
X119173392Y-98525109D01*
X119199995Y-98505379D01*
X119228404Y-98488352D01*
X119258344Y-98474191D01*
X119289529Y-98463033D01*
X119321657Y-98454985D01*
X119354419Y-98450125D01*
X119387500Y-98448500D01*
X120162500Y-98448500D01*
X120195581Y-98450125D01*
X120195581Y-98450125D01*
G37*
D14*
X119775000Y-99123500D03*
D13*
G36*
X121945581Y-98450125D02*
X121978343Y-98454985D01*
X122010471Y-98463033D01*
X122041656Y-98474191D01*
X122071596Y-98488352D01*
X122100005Y-98505379D01*
X122126608Y-98525109D01*
X122151149Y-98547351D01*
X122173391Y-98571892D01*
X122193121Y-98598495D01*
X122210148Y-98626904D01*
X122224309Y-98656844D01*
X122235467Y-98688029D01*
X122243515Y-98720157D01*
X122248375Y-98752919D01*
X122250000Y-98786000D01*
X122250000Y-99461000D01*
X122248375Y-99494081D01*
X122243515Y-99526843D01*
X122235467Y-99558971D01*
X122224309Y-99590156D01*
X122210148Y-99620096D01*
X122193121Y-99648505D01*
X122173391Y-99675108D01*
X122151149Y-99699649D01*
X122126608Y-99721891D01*
X122100005Y-99741621D01*
X122071596Y-99758648D01*
X122041656Y-99772809D01*
X122010471Y-99783967D01*
X121978343Y-99792015D01*
X121945581Y-99796875D01*
X121912500Y-99798500D01*
X121137500Y-99798500D01*
X121104419Y-99796875D01*
X121071657Y-99792015D01*
X121039529Y-99783967D01*
X121008344Y-99772809D01*
X120978404Y-99758648D01*
X120949995Y-99741621D01*
X120923392Y-99721891D01*
X120898851Y-99699649D01*
X120876609Y-99675108D01*
X120856879Y-99648505D01*
X120839852Y-99620096D01*
X120825691Y-99590156D01*
X120814533Y-99558971D01*
X120806485Y-99526843D01*
X120801625Y-99494081D01*
X120800000Y-99461000D01*
X120800000Y-98786000D01*
X120801625Y-98752919D01*
X120806485Y-98720157D01*
X120814533Y-98688029D01*
X120825691Y-98656844D01*
X120839852Y-98626904D01*
X120856879Y-98598495D01*
X120876609Y-98571892D01*
X120898851Y-98547351D01*
X120923392Y-98525109D01*
X120949995Y-98505379D01*
X120978404Y-98488352D01*
X121008344Y-98474191D01*
X121039529Y-98463033D01*
X121071657Y-98454985D01*
X121104419Y-98450125D01*
X121137500Y-98448500D01*
X121912500Y-98448500D01*
X121945581Y-98450125D01*
X121945581Y-98450125D01*
G37*
D14*
X121525000Y-99123500D03*
G04 #@! TD*
D13*
G04 #@! TO.C,D12*
G36*
X120195581Y-101345725D02*
X120228343Y-101350585D01*
X120260471Y-101358633D01*
X120291656Y-101369791D01*
X120321596Y-101383952D01*
X120350005Y-101400979D01*
X120376608Y-101420709D01*
X120401149Y-101442951D01*
X120423391Y-101467492D01*
X120443121Y-101494095D01*
X120460148Y-101522504D01*
X120474309Y-101552444D01*
X120485467Y-101583629D01*
X120493515Y-101615757D01*
X120498375Y-101648519D01*
X120500000Y-101681600D01*
X120500000Y-102356600D01*
X120498375Y-102389681D01*
X120493515Y-102422443D01*
X120485467Y-102454571D01*
X120474309Y-102485756D01*
X120460148Y-102515696D01*
X120443121Y-102544105D01*
X120423391Y-102570708D01*
X120401149Y-102595249D01*
X120376608Y-102617491D01*
X120350005Y-102637221D01*
X120321596Y-102654248D01*
X120291656Y-102668409D01*
X120260471Y-102679567D01*
X120228343Y-102687615D01*
X120195581Y-102692475D01*
X120162500Y-102694100D01*
X119387500Y-102694100D01*
X119354419Y-102692475D01*
X119321657Y-102687615D01*
X119289529Y-102679567D01*
X119258344Y-102668409D01*
X119228404Y-102654248D01*
X119199995Y-102637221D01*
X119173392Y-102617491D01*
X119148851Y-102595249D01*
X119126609Y-102570708D01*
X119106879Y-102544105D01*
X119089852Y-102515696D01*
X119075691Y-102485756D01*
X119064533Y-102454571D01*
X119056485Y-102422443D01*
X119051625Y-102389681D01*
X119050000Y-102356600D01*
X119050000Y-101681600D01*
X119051625Y-101648519D01*
X119056485Y-101615757D01*
X119064533Y-101583629D01*
X119075691Y-101552444D01*
X119089852Y-101522504D01*
X119106879Y-101494095D01*
X119126609Y-101467492D01*
X119148851Y-101442951D01*
X119173392Y-101420709D01*
X119199995Y-101400979D01*
X119228404Y-101383952D01*
X119258344Y-101369791D01*
X119289529Y-101358633D01*
X119321657Y-101350585D01*
X119354419Y-101345725D01*
X119387500Y-101344100D01*
X120162500Y-101344100D01*
X120195581Y-101345725D01*
X120195581Y-101345725D01*
G37*
D14*
X119775000Y-102019100D03*
D13*
G36*
X121945581Y-101345725D02*
X121978343Y-101350585D01*
X122010471Y-101358633D01*
X122041656Y-101369791D01*
X122071596Y-101383952D01*
X122100005Y-101400979D01*
X122126608Y-101420709D01*
X122151149Y-101442951D01*
X122173391Y-101467492D01*
X122193121Y-101494095D01*
X122210148Y-101522504D01*
X122224309Y-101552444D01*
X122235467Y-101583629D01*
X122243515Y-101615757D01*
X122248375Y-101648519D01*
X122250000Y-101681600D01*
X122250000Y-102356600D01*
X122248375Y-102389681D01*
X122243515Y-102422443D01*
X122235467Y-102454571D01*
X122224309Y-102485756D01*
X122210148Y-102515696D01*
X122193121Y-102544105D01*
X122173391Y-102570708D01*
X122151149Y-102595249D01*
X122126608Y-102617491D01*
X122100005Y-102637221D01*
X122071596Y-102654248D01*
X122041656Y-102668409D01*
X122010471Y-102679567D01*
X121978343Y-102687615D01*
X121945581Y-102692475D01*
X121912500Y-102694100D01*
X121137500Y-102694100D01*
X121104419Y-102692475D01*
X121071657Y-102687615D01*
X121039529Y-102679567D01*
X121008344Y-102668409D01*
X120978404Y-102654248D01*
X120949995Y-102637221D01*
X120923392Y-102617491D01*
X120898851Y-102595249D01*
X120876609Y-102570708D01*
X120856879Y-102544105D01*
X120839852Y-102515696D01*
X120825691Y-102485756D01*
X120814533Y-102454571D01*
X120806485Y-102422443D01*
X120801625Y-102389681D01*
X120800000Y-102356600D01*
X120800000Y-101681600D01*
X120801625Y-101648519D01*
X120806485Y-101615757D01*
X120814533Y-101583629D01*
X120825691Y-101552444D01*
X120839852Y-101522504D01*
X120856879Y-101494095D01*
X120876609Y-101467492D01*
X120898851Y-101442951D01*
X120923392Y-101420709D01*
X120949995Y-101400979D01*
X120978404Y-101383952D01*
X121008344Y-101369791D01*
X121039529Y-101358633D01*
X121071657Y-101350585D01*
X121104419Y-101345725D01*
X121137500Y-101344100D01*
X121912500Y-101344100D01*
X121945581Y-101345725D01*
X121945581Y-101345725D01*
G37*
D14*
X121525000Y-102019100D03*
G04 #@! TD*
D13*
G04 #@! TO.C,R1*
G36*
X102514581Y-104228625D02*
X102547343Y-104233485D01*
X102579471Y-104241533D01*
X102610656Y-104252691D01*
X102640596Y-104266852D01*
X102669005Y-104283879D01*
X102695608Y-104303609D01*
X102720149Y-104325851D01*
X102742391Y-104350392D01*
X102762121Y-104376995D01*
X102779148Y-104405404D01*
X102793309Y-104435344D01*
X102804467Y-104466529D01*
X102812515Y-104498657D01*
X102817375Y-104531419D01*
X102819000Y-104564500D01*
X102819000Y-105239500D01*
X102817375Y-105272581D01*
X102812515Y-105305343D01*
X102804467Y-105337471D01*
X102793309Y-105368656D01*
X102779148Y-105398596D01*
X102762121Y-105427005D01*
X102742391Y-105453608D01*
X102720149Y-105478149D01*
X102695608Y-105500391D01*
X102669005Y-105520121D01*
X102640596Y-105537148D01*
X102610656Y-105551309D01*
X102579471Y-105562467D01*
X102547343Y-105570515D01*
X102514581Y-105575375D01*
X102481500Y-105577000D01*
X101706500Y-105577000D01*
X101673419Y-105575375D01*
X101640657Y-105570515D01*
X101608529Y-105562467D01*
X101577344Y-105551309D01*
X101547404Y-105537148D01*
X101518995Y-105520121D01*
X101492392Y-105500391D01*
X101467851Y-105478149D01*
X101445609Y-105453608D01*
X101425879Y-105427005D01*
X101408852Y-105398596D01*
X101394691Y-105368656D01*
X101383533Y-105337471D01*
X101375485Y-105305343D01*
X101370625Y-105272581D01*
X101369000Y-105239500D01*
X101369000Y-104564500D01*
X101370625Y-104531419D01*
X101375485Y-104498657D01*
X101383533Y-104466529D01*
X101394691Y-104435344D01*
X101408852Y-104405404D01*
X101425879Y-104376995D01*
X101445609Y-104350392D01*
X101467851Y-104325851D01*
X101492392Y-104303609D01*
X101518995Y-104283879D01*
X101547404Y-104266852D01*
X101577344Y-104252691D01*
X101608529Y-104241533D01*
X101640657Y-104233485D01*
X101673419Y-104228625D01*
X101706500Y-104227000D01*
X102481500Y-104227000D01*
X102514581Y-104228625D01*
X102514581Y-104228625D01*
G37*
D14*
X102094000Y-104902000D03*
D13*
G36*
X100764581Y-104228625D02*
X100797343Y-104233485D01*
X100829471Y-104241533D01*
X100860656Y-104252691D01*
X100890596Y-104266852D01*
X100919005Y-104283879D01*
X100945608Y-104303609D01*
X100970149Y-104325851D01*
X100992391Y-104350392D01*
X101012121Y-104376995D01*
X101029148Y-104405404D01*
X101043309Y-104435344D01*
X101054467Y-104466529D01*
X101062515Y-104498657D01*
X101067375Y-104531419D01*
X101069000Y-104564500D01*
X101069000Y-105239500D01*
X101067375Y-105272581D01*
X101062515Y-105305343D01*
X101054467Y-105337471D01*
X101043309Y-105368656D01*
X101029148Y-105398596D01*
X101012121Y-105427005D01*
X100992391Y-105453608D01*
X100970149Y-105478149D01*
X100945608Y-105500391D01*
X100919005Y-105520121D01*
X100890596Y-105537148D01*
X100860656Y-105551309D01*
X100829471Y-105562467D01*
X100797343Y-105570515D01*
X100764581Y-105575375D01*
X100731500Y-105577000D01*
X99956500Y-105577000D01*
X99923419Y-105575375D01*
X99890657Y-105570515D01*
X99858529Y-105562467D01*
X99827344Y-105551309D01*
X99797404Y-105537148D01*
X99768995Y-105520121D01*
X99742392Y-105500391D01*
X99717851Y-105478149D01*
X99695609Y-105453608D01*
X99675879Y-105427005D01*
X99658852Y-105398596D01*
X99644691Y-105368656D01*
X99633533Y-105337471D01*
X99625485Y-105305343D01*
X99620625Y-105272581D01*
X99619000Y-105239500D01*
X99619000Y-104564500D01*
X99620625Y-104531419D01*
X99625485Y-104498657D01*
X99633533Y-104466529D01*
X99644691Y-104435344D01*
X99658852Y-104405404D01*
X99675879Y-104376995D01*
X99695609Y-104350392D01*
X99717851Y-104325851D01*
X99742392Y-104303609D01*
X99768995Y-104283879D01*
X99797404Y-104266852D01*
X99827344Y-104252691D01*
X99858529Y-104241533D01*
X99890657Y-104233485D01*
X99923419Y-104228625D01*
X99956500Y-104227000D01*
X100731500Y-104227000D01*
X100764581Y-104228625D01*
X100764581Y-104228625D01*
G37*
D14*
X100344000Y-104902000D03*
G04 #@! TD*
D13*
G04 #@! TO.C,R2*
G36*
X115849581Y-104228625D02*
X115882343Y-104233485D01*
X115914471Y-104241533D01*
X115945656Y-104252691D01*
X115975596Y-104266852D01*
X116004005Y-104283879D01*
X116030608Y-104303609D01*
X116055149Y-104325851D01*
X116077391Y-104350392D01*
X116097121Y-104376995D01*
X116114148Y-104405404D01*
X116128309Y-104435344D01*
X116139467Y-104466529D01*
X116147515Y-104498657D01*
X116152375Y-104531419D01*
X116154000Y-104564500D01*
X116154000Y-105239500D01*
X116152375Y-105272581D01*
X116147515Y-105305343D01*
X116139467Y-105337471D01*
X116128309Y-105368656D01*
X116114148Y-105398596D01*
X116097121Y-105427005D01*
X116077391Y-105453608D01*
X116055149Y-105478149D01*
X116030608Y-105500391D01*
X116004005Y-105520121D01*
X115975596Y-105537148D01*
X115945656Y-105551309D01*
X115914471Y-105562467D01*
X115882343Y-105570515D01*
X115849581Y-105575375D01*
X115816500Y-105577000D01*
X115041500Y-105577000D01*
X115008419Y-105575375D01*
X114975657Y-105570515D01*
X114943529Y-105562467D01*
X114912344Y-105551309D01*
X114882404Y-105537148D01*
X114853995Y-105520121D01*
X114827392Y-105500391D01*
X114802851Y-105478149D01*
X114780609Y-105453608D01*
X114760879Y-105427005D01*
X114743852Y-105398596D01*
X114729691Y-105368656D01*
X114718533Y-105337471D01*
X114710485Y-105305343D01*
X114705625Y-105272581D01*
X114704000Y-105239500D01*
X114704000Y-104564500D01*
X114705625Y-104531419D01*
X114710485Y-104498657D01*
X114718533Y-104466529D01*
X114729691Y-104435344D01*
X114743852Y-104405404D01*
X114760879Y-104376995D01*
X114780609Y-104350392D01*
X114802851Y-104325851D01*
X114827392Y-104303609D01*
X114853995Y-104283879D01*
X114882404Y-104266852D01*
X114912344Y-104252691D01*
X114943529Y-104241533D01*
X114975657Y-104233485D01*
X115008419Y-104228625D01*
X115041500Y-104227000D01*
X115816500Y-104227000D01*
X115849581Y-104228625D01*
X115849581Y-104228625D01*
G37*
D14*
X115429000Y-104902000D03*
D13*
G36*
X114099581Y-104228625D02*
X114132343Y-104233485D01*
X114164471Y-104241533D01*
X114195656Y-104252691D01*
X114225596Y-104266852D01*
X114254005Y-104283879D01*
X114280608Y-104303609D01*
X114305149Y-104325851D01*
X114327391Y-104350392D01*
X114347121Y-104376995D01*
X114364148Y-104405404D01*
X114378309Y-104435344D01*
X114389467Y-104466529D01*
X114397515Y-104498657D01*
X114402375Y-104531419D01*
X114404000Y-104564500D01*
X114404000Y-105239500D01*
X114402375Y-105272581D01*
X114397515Y-105305343D01*
X114389467Y-105337471D01*
X114378309Y-105368656D01*
X114364148Y-105398596D01*
X114347121Y-105427005D01*
X114327391Y-105453608D01*
X114305149Y-105478149D01*
X114280608Y-105500391D01*
X114254005Y-105520121D01*
X114225596Y-105537148D01*
X114195656Y-105551309D01*
X114164471Y-105562467D01*
X114132343Y-105570515D01*
X114099581Y-105575375D01*
X114066500Y-105577000D01*
X113291500Y-105577000D01*
X113258419Y-105575375D01*
X113225657Y-105570515D01*
X113193529Y-105562467D01*
X113162344Y-105551309D01*
X113132404Y-105537148D01*
X113103995Y-105520121D01*
X113077392Y-105500391D01*
X113052851Y-105478149D01*
X113030609Y-105453608D01*
X113010879Y-105427005D01*
X112993852Y-105398596D01*
X112979691Y-105368656D01*
X112968533Y-105337471D01*
X112960485Y-105305343D01*
X112955625Y-105272581D01*
X112954000Y-105239500D01*
X112954000Y-104564500D01*
X112955625Y-104531419D01*
X112960485Y-104498657D01*
X112968533Y-104466529D01*
X112979691Y-104435344D01*
X112993852Y-104405404D01*
X113010879Y-104376995D01*
X113030609Y-104350392D01*
X113052851Y-104325851D01*
X113077392Y-104303609D01*
X113103995Y-104283879D01*
X113132404Y-104266852D01*
X113162344Y-104252691D01*
X113193529Y-104241533D01*
X113225657Y-104233485D01*
X113258419Y-104228625D01*
X113291500Y-104227000D01*
X114066500Y-104227000D01*
X114099581Y-104228625D01*
X114099581Y-104228625D01*
G37*
D14*
X113679000Y-104902000D03*
G04 #@! TD*
D13*
G04 #@! TO.C,R3*
G36*
X102514581Y-92773225D02*
X102547343Y-92778085D01*
X102579471Y-92786133D01*
X102610656Y-92797291D01*
X102640596Y-92811452D01*
X102669005Y-92828479D01*
X102695608Y-92848209D01*
X102720149Y-92870451D01*
X102742391Y-92894992D01*
X102762121Y-92921595D01*
X102779148Y-92950004D01*
X102793309Y-92979944D01*
X102804467Y-93011129D01*
X102812515Y-93043257D01*
X102817375Y-93076019D01*
X102819000Y-93109100D01*
X102819000Y-93784100D01*
X102817375Y-93817181D01*
X102812515Y-93849943D01*
X102804467Y-93882071D01*
X102793309Y-93913256D01*
X102779148Y-93943196D01*
X102762121Y-93971605D01*
X102742391Y-93998208D01*
X102720149Y-94022749D01*
X102695608Y-94044991D01*
X102669005Y-94064721D01*
X102640596Y-94081748D01*
X102610656Y-94095909D01*
X102579471Y-94107067D01*
X102547343Y-94115115D01*
X102514581Y-94119975D01*
X102481500Y-94121600D01*
X101706500Y-94121600D01*
X101673419Y-94119975D01*
X101640657Y-94115115D01*
X101608529Y-94107067D01*
X101577344Y-94095909D01*
X101547404Y-94081748D01*
X101518995Y-94064721D01*
X101492392Y-94044991D01*
X101467851Y-94022749D01*
X101445609Y-93998208D01*
X101425879Y-93971605D01*
X101408852Y-93943196D01*
X101394691Y-93913256D01*
X101383533Y-93882071D01*
X101375485Y-93849943D01*
X101370625Y-93817181D01*
X101369000Y-93784100D01*
X101369000Y-93109100D01*
X101370625Y-93076019D01*
X101375485Y-93043257D01*
X101383533Y-93011129D01*
X101394691Y-92979944D01*
X101408852Y-92950004D01*
X101425879Y-92921595D01*
X101445609Y-92894992D01*
X101467851Y-92870451D01*
X101492392Y-92848209D01*
X101518995Y-92828479D01*
X101547404Y-92811452D01*
X101577344Y-92797291D01*
X101608529Y-92786133D01*
X101640657Y-92778085D01*
X101673419Y-92773225D01*
X101706500Y-92771600D01*
X102481500Y-92771600D01*
X102514581Y-92773225D01*
X102514581Y-92773225D01*
G37*
D14*
X102094000Y-93446600D03*
D13*
G36*
X100764581Y-92773225D02*
X100797343Y-92778085D01*
X100829471Y-92786133D01*
X100860656Y-92797291D01*
X100890596Y-92811452D01*
X100919005Y-92828479D01*
X100945608Y-92848209D01*
X100970149Y-92870451D01*
X100992391Y-92894992D01*
X101012121Y-92921595D01*
X101029148Y-92950004D01*
X101043309Y-92979944D01*
X101054467Y-93011129D01*
X101062515Y-93043257D01*
X101067375Y-93076019D01*
X101069000Y-93109100D01*
X101069000Y-93784100D01*
X101067375Y-93817181D01*
X101062515Y-93849943D01*
X101054467Y-93882071D01*
X101043309Y-93913256D01*
X101029148Y-93943196D01*
X101012121Y-93971605D01*
X100992391Y-93998208D01*
X100970149Y-94022749D01*
X100945608Y-94044991D01*
X100919005Y-94064721D01*
X100890596Y-94081748D01*
X100860656Y-94095909D01*
X100829471Y-94107067D01*
X100797343Y-94115115D01*
X100764581Y-94119975D01*
X100731500Y-94121600D01*
X99956500Y-94121600D01*
X99923419Y-94119975D01*
X99890657Y-94115115D01*
X99858529Y-94107067D01*
X99827344Y-94095909D01*
X99797404Y-94081748D01*
X99768995Y-94064721D01*
X99742392Y-94044991D01*
X99717851Y-94022749D01*
X99695609Y-93998208D01*
X99675879Y-93971605D01*
X99658852Y-93943196D01*
X99644691Y-93913256D01*
X99633533Y-93882071D01*
X99625485Y-93849943D01*
X99620625Y-93817181D01*
X99619000Y-93784100D01*
X99619000Y-93109100D01*
X99620625Y-93076019D01*
X99625485Y-93043257D01*
X99633533Y-93011129D01*
X99644691Y-92979944D01*
X99658852Y-92950004D01*
X99675879Y-92921595D01*
X99695609Y-92894992D01*
X99717851Y-92870451D01*
X99742392Y-92848209D01*
X99768995Y-92828479D01*
X99797404Y-92811452D01*
X99827344Y-92797291D01*
X99858529Y-92786133D01*
X99890657Y-92778085D01*
X99923419Y-92773225D01*
X99956500Y-92771600D01*
X100731500Y-92771600D01*
X100764581Y-92773225D01*
X100764581Y-92773225D01*
G37*
D14*
X100344000Y-93446600D03*
G04 #@! TD*
D13*
G04 #@! TO.C,R4*
G36*
X102528581Y-95637075D02*
X102561343Y-95641935D01*
X102593471Y-95649983D01*
X102624656Y-95661141D01*
X102654596Y-95675302D01*
X102683005Y-95692329D01*
X102709608Y-95712059D01*
X102734149Y-95734301D01*
X102756391Y-95758842D01*
X102776121Y-95785445D01*
X102793148Y-95813854D01*
X102807309Y-95843794D01*
X102818467Y-95874979D01*
X102826515Y-95907107D01*
X102831375Y-95939869D01*
X102833000Y-95972950D01*
X102833000Y-96647950D01*
X102831375Y-96681031D01*
X102826515Y-96713793D01*
X102818467Y-96745921D01*
X102807309Y-96777106D01*
X102793148Y-96807046D01*
X102776121Y-96835455D01*
X102756391Y-96862058D01*
X102734149Y-96886599D01*
X102709608Y-96908841D01*
X102683005Y-96928571D01*
X102654596Y-96945598D01*
X102624656Y-96959759D01*
X102593471Y-96970917D01*
X102561343Y-96978965D01*
X102528581Y-96983825D01*
X102495500Y-96985450D01*
X101720500Y-96985450D01*
X101687419Y-96983825D01*
X101654657Y-96978965D01*
X101622529Y-96970917D01*
X101591344Y-96959759D01*
X101561404Y-96945598D01*
X101532995Y-96928571D01*
X101506392Y-96908841D01*
X101481851Y-96886599D01*
X101459609Y-96862058D01*
X101439879Y-96835455D01*
X101422852Y-96807046D01*
X101408691Y-96777106D01*
X101397533Y-96745921D01*
X101389485Y-96713793D01*
X101384625Y-96681031D01*
X101383000Y-96647950D01*
X101383000Y-95972950D01*
X101384625Y-95939869D01*
X101389485Y-95907107D01*
X101397533Y-95874979D01*
X101408691Y-95843794D01*
X101422852Y-95813854D01*
X101439879Y-95785445D01*
X101459609Y-95758842D01*
X101481851Y-95734301D01*
X101506392Y-95712059D01*
X101532995Y-95692329D01*
X101561404Y-95675302D01*
X101591344Y-95661141D01*
X101622529Y-95649983D01*
X101654657Y-95641935D01*
X101687419Y-95637075D01*
X101720500Y-95635450D01*
X102495500Y-95635450D01*
X102528581Y-95637075D01*
X102528581Y-95637075D01*
G37*
D14*
X102108000Y-96310450D03*
D13*
G36*
X100778581Y-95637075D02*
X100811343Y-95641935D01*
X100843471Y-95649983D01*
X100874656Y-95661141D01*
X100904596Y-95675302D01*
X100933005Y-95692329D01*
X100959608Y-95712059D01*
X100984149Y-95734301D01*
X101006391Y-95758842D01*
X101026121Y-95785445D01*
X101043148Y-95813854D01*
X101057309Y-95843794D01*
X101068467Y-95874979D01*
X101076515Y-95907107D01*
X101081375Y-95939869D01*
X101083000Y-95972950D01*
X101083000Y-96647950D01*
X101081375Y-96681031D01*
X101076515Y-96713793D01*
X101068467Y-96745921D01*
X101057309Y-96777106D01*
X101043148Y-96807046D01*
X101026121Y-96835455D01*
X101006391Y-96862058D01*
X100984149Y-96886599D01*
X100959608Y-96908841D01*
X100933005Y-96928571D01*
X100904596Y-96945598D01*
X100874656Y-96959759D01*
X100843471Y-96970917D01*
X100811343Y-96978965D01*
X100778581Y-96983825D01*
X100745500Y-96985450D01*
X99970500Y-96985450D01*
X99937419Y-96983825D01*
X99904657Y-96978965D01*
X99872529Y-96970917D01*
X99841344Y-96959759D01*
X99811404Y-96945598D01*
X99782995Y-96928571D01*
X99756392Y-96908841D01*
X99731851Y-96886599D01*
X99709609Y-96862058D01*
X99689879Y-96835455D01*
X99672852Y-96807046D01*
X99658691Y-96777106D01*
X99647533Y-96745921D01*
X99639485Y-96713793D01*
X99634625Y-96681031D01*
X99633000Y-96647950D01*
X99633000Y-95972950D01*
X99634625Y-95939869D01*
X99639485Y-95907107D01*
X99647533Y-95874979D01*
X99658691Y-95843794D01*
X99672852Y-95813854D01*
X99689879Y-95785445D01*
X99709609Y-95758842D01*
X99731851Y-95734301D01*
X99756392Y-95712059D01*
X99782995Y-95692329D01*
X99811404Y-95675302D01*
X99841344Y-95661141D01*
X99872529Y-95649983D01*
X99904657Y-95641935D01*
X99937419Y-95637075D01*
X99970500Y-95635450D01*
X100745500Y-95635450D01*
X100778581Y-95637075D01*
X100778581Y-95637075D01*
G37*
D14*
X100358000Y-96310450D03*
G04 #@! TD*
D13*
G04 #@! TO.C,R5*
G36*
X102514581Y-98500925D02*
X102547343Y-98505785D01*
X102579471Y-98513833D01*
X102610656Y-98524991D01*
X102640596Y-98539152D01*
X102669005Y-98556179D01*
X102695608Y-98575909D01*
X102720149Y-98598151D01*
X102742391Y-98622692D01*
X102762121Y-98649295D01*
X102779148Y-98677704D01*
X102793309Y-98707644D01*
X102804467Y-98738829D01*
X102812515Y-98770957D01*
X102817375Y-98803719D01*
X102819000Y-98836800D01*
X102819000Y-99511800D01*
X102817375Y-99544881D01*
X102812515Y-99577643D01*
X102804467Y-99609771D01*
X102793309Y-99640956D01*
X102779148Y-99670896D01*
X102762121Y-99699305D01*
X102742391Y-99725908D01*
X102720149Y-99750449D01*
X102695608Y-99772691D01*
X102669005Y-99792421D01*
X102640596Y-99809448D01*
X102610656Y-99823609D01*
X102579471Y-99834767D01*
X102547343Y-99842815D01*
X102514581Y-99847675D01*
X102481500Y-99849300D01*
X101706500Y-99849300D01*
X101673419Y-99847675D01*
X101640657Y-99842815D01*
X101608529Y-99834767D01*
X101577344Y-99823609D01*
X101547404Y-99809448D01*
X101518995Y-99792421D01*
X101492392Y-99772691D01*
X101467851Y-99750449D01*
X101445609Y-99725908D01*
X101425879Y-99699305D01*
X101408852Y-99670896D01*
X101394691Y-99640956D01*
X101383533Y-99609771D01*
X101375485Y-99577643D01*
X101370625Y-99544881D01*
X101369000Y-99511800D01*
X101369000Y-98836800D01*
X101370625Y-98803719D01*
X101375485Y-98770957D01*
X101383533Y-98738829D01*
X101394691Y-98707644D01*
X101408852Y-98677704D01*
X101425879Y-98649295D01*
X101445609Y-98622692D01*
X101467851Y-98598151D01*
X101492392Y-98575909D01*
X101518995Y-98556179D01*
X101547404Y-98539152D01*
X101577344Y-98524991D01*
X101608529Y-98513833D01*
X101640657Y-98505785D01*
X101673419Y-98500925D01*
X101706500Y-98499300D01*
X102481500Y-98499300D01*
X102514581Y-98500925D01*
X102514581Y-98500925D01*
G37*
D14*
X102094000Y-99174300D03*
D13*
G36*
X100764581Y-98500925D02*
X100797343Y-98505785D01*
X100829471Y-98513833D01*
X100860656Y-98524991D01*
X100890596Y-98539152D01*
X100919005Y-98556179D01*
X100945608Y-98575909D01*
X100970149Y-98598151D01*
X100992391Y-98622692D01*
X101012121Y-98649295D01*
X101029148Y-98677704D01*
X101043309Y-98707644D01*
X101054467Y-98738829D01*
X101062515Y-98770957D01*
X101067375Y-98803719D01*
X101069000Y-98836800D01*
X101069000Y-99511800D01*
X101067375Y-99544881D01*
X101062515Y-99577643D01*
X101054467Y-99609771D01*
X101043309Y-99640956D01*
X101029148Y-99670896D01*
X101012121Y-99699305D01*
X100992391Y-99725908D01*
X100970149Y-99750449D01*
X100945608Y-99772691D01*
X100919005Y-99792421D01*
X100890596Y-99809448D01*
X100860656Y-99823609D01*
X100829471Y-99834767D01*
X100797343Y-99842815D01*
X100764581Y-99847675D01*
X100731500Y-99849300D01*
X99956500Y-99849300D01*
X99923419Y-99847675D01*
X99890657Y-99842815D01*
X99858529Y-99834767D01*
X99827344Y-99823609D01*
X99797404Y-99809448D01*
X99768995Y-99792421D01*
X99742392Y-99772691D01*
X99717851Y-99750449D01*
X99695609Y-99725908D01*
X99675879Y-99699305D01*
X99658852Y-99670896D01*
X99644691Y-99640956D01*
X99633533Y-99609771D01*
X99625485Y-99577643D01*
X99620625Y-99544881D01*
X99619000Y-99511800D01*
X99619000Y-98836800D01*
X99620625Y-98803719D01*
X99625485Y-98770957D01*
X99633533Y-98738829D01*
X99644691Y-98707644D01*
X99658852Y-98677704D01*
X99675879Y-98649295D01*
X99695609Y-98622692D01*
X99717851Y-98598151D01*
X99742392Y-98575909D01*
X99768995Y-98556179D01*
X99797404Y-98539152D01*
X99827344Y-98524991D01*
X99858529Y-98513833D01*
X99890657Y-98505785D01*
X99923419Y-98500925D01*
X99956500Y-98499300D01*
X100731500Y-98499300D01*
X100764581Y-98500925D01*
X100764581Y-98500925D01*
G37*
D14*
X100344000Y-99174300D03*
G04 #@! TD*
D13*
G04 #@! TO.C,R6*
G36*
X102514581Y-101364775D02*
X102547343Y-101369635D01*
X102579471Y-101377683D01*
X102610656Y-101388841D01*
X102640596Y-101403002D01*
X102669005Y-101420029D01*
X102695608Y-101439759D01*
X102720149Y-101462001D01*
X102742391Y-101486542D01*
X102762121Y-101513145D01*
X102779148Y-101541554D01*
X102793309Y-101571494D01*
X102804467Y-101602679D01*
X102812515Y-101634807D01*
X102817375Y-101667569D01*
X102819000Y-101700650D01*
X102819000Y-102375650D01*
X102817375Y-102408731D01*
X102812515Y-102441493D01*
X102804467Y-102473621D01*
X102793309Y-102504806D01*
X102779148Y-102534746D01*
X102762121Y-102563155D01*
X102742391Y-102589758D01*
X102720149Y-102614299D01*
X102695608Y-102636541D01*
X102669005Y-102656271D01*
X102640596Y-102673298D01*
X102610656Y-102687459D01*
X102579471Y-102698617D01*
X102547343Y-102706665D01*
X102514581Y-102711525D01*
X102481500Y-102713150D01*
X101706500Y-102713150D01*
X101673419Y-102711525D01*
X101640657Y-102706665D01*
X101608529Y-102698617D01*
X101577344Y-102687459D01*
X101547404Y-102673298D01*
X101518995Y-102656271D01*
X101492392Y-102636541D01*
X101467851Y-102614299D01*
X101445609Y-102589758D01*
X101425879Y-102563155D01*
X101408852Y-102534746D01*
X101394691Y-102504806D01*
X101383533Y-102473621D01*
X101375485Y-102441493D01*
X101370625Y-102408731D01*
X101369000Y-102375650D01*
X101369000Y-101700650D01*
X101370625Y-101667569D01*
X101375485Y-101634807D01*
X101383533Y-101602679D01*
X101394691Y-101571494D01*
X101408852Y-101541554D01*
X101425879Y-101513145D01*
X101445609Y-101486542D01*
X101467851Y-101462001D01*
X101492392Y-101439759D01*
X101518995Y-101420029D01*
X101547404Y-101403002D01*
X101577344Y-101388841D01*
X101608529Y-101377683D01*
X101640657Y-101369635D01*
X101673419Y-101364775D01*
X101706500Y-101363150D01*
X102481500Y-101363150D01*
X102514581Y-101364775D01*
X102514581Y-101364775D01*
G37*
D14*
X102094000Y-102038150D03*
D13*
G36*
X100764581Y-101364775D02*
X100797343Y-101369635D01*
X100829471Y-101377683D01*
X100860656Y-101388841D01*
X100890596Y-101403002D01*
X100919005Y-101420029D01*
X100945608Y-101439759D01*
X100970149Y-101462001D01*
X100992391Y-101486542D01*
X101012121Y-101513145D01*
X101029148Y-101541554D01*
X101043309Y-101571494D01*
X101054467Y-101602679D01*
X101062515Y-101634807D01*
X101067375Y-101667569D01*
X101069000Y-101700650D01*
X101069000Y-102375650D01*
X101067375Y-102408731D01*
X101062515Y-102441493D01*
X101054467Y-102473621D01*
X101043309Y-102504806D01*
X101029148Y-102534746D01*
X101012121Y-102563155D01*
X100992391Y-102589758D01*
X100970149Y-102614299D01*
X100945608Y-102636541D01*
X100919005Y-102656271D01*
X100890596Y-102673298D01*
X100860656Y-102687459D01*
X100829471Y-102698617D01*
X100797343Y-102706665D01*
X100764581Y-102711525D01*
X100731500Y-102713150D01*
X99956500Y-102713150D01*
X99923419Y-102711525D01*
X99890657Y-102706665D01*
X99858529Y-102698617D01*
X99827344Y-102687459D01*
X99797404Y-102673298D01*
X99768995Y-102656271D01*
X99742392Y-102636541D01*
X99717851Y-102614299D01*
X99695609Y-102589758D01*
X99675879Y-102563155D01*
X99658852Y-102534746D01*
X99644691Y-102504806D01*
X99633533Y-102473621D01*
X99625485Y-102441493D01*
X99620625Y-102408731D01*
X99619000Y-102375650D01*
X99619000Y-101700650D01*
X99620625Y-101667569D01*
X99625485Y-101634807D01*
X99633533Y-101602679D01*
X99644691Y-101571494D01*
X99658852Y-101541554D01*
X99675879Y-101513145D01*
X99695609Y-101486542D01*
X99717851Y-101462001D01*
X99742392Y-101439759D01*
X99768995Y-101420029D01*
X99797404Y-101403002D01*
X99827344Y-101388841D01*
X99858529Y-101377683D01*
X99890657Y-101369635D01*
X99923419Y-101364775D01*
X99956500Y-101363150D01*
X100731500Y-101363150D01*
X100764581Y-101364775D01*
X100764581Y-101364775D01*
G37*
D14*
X100344000Y-102038150D03*
G04 #@! TD*
D13*
G04 #@! TO.C,R8*
G36*
X115849581Y-95560875D02*
X115882343Y-95565735D01*
X115914471Y-95573783D01*
X115945656Y-95584941D01*
X115975596Y-95599102D01*
X116004005Y-95616129D01*
X116030608Y-95635859D01*
X116055149Y-95658101D01*
X116077391Y-95682642D01*
X116097121Y-95709245D01*
X116114148Y-95737654D01*
X116128309Y-95767594D01*
X116139467Y-95798779D01*
X116147515Y-95830907D01*
X116152375Y-95863669D01*
X116154000Y-95896750D01*
X116154000Y-96571750D01*
X116152375Y-96604831D01*
X116147515Y-96637593D01*
X116139467Y-96669721D01*
X116128309Y-96700906D01*
X116114148Y-96730846D01*
X116097121Y-96759255D01*
X116077391Y-96785858D01*
X116055149Y-96810399D01*
X116030608Y-96832641D01*
X116004005Y-96852371D01*
X115975596Y-96869398D01*
X115945656Y-96883559D01*
X115914471Y-96894717D01*
X115882343Y-96902765D01*
X115849581Y-96907625D01*
X115816500Y-96909250D01*
X115041500Y-96909250D01*
X115008419Y-96907625D01*
X114975657Y-96902765D01*
X114943529Y-96894717D01*
X114912344Y-96883559D01*
X114882404Y-96869398D01*
X114853995Y-96852371D01*
X114827392Y-96832641D01*
X114802851Y-96810399D01*
X114780609Y-96785858D01*
X114760879Y-96759255D01*
X114743852Y-96730846D01*
X114729691Y-96700906D01*
X114718533Y-96669721D01*
X114710485Y-96637593D01*
X114705625Y-96604831D01*
X114704000Y-96571750D01*
X114704000Y-95896750D01*
X114705625Y-95863669D01*
X114710485Y-95830907D01*
X114718533Y-95798779D01*
X114729691Y-95767594D01*
X114743852Y-95737654D01*
X114760879Y-95709245D01*
X114780609Y-95682642D01*
X114802851Y-95658101D01*
X114827392Y-95635859D01*
X114853995Y-95616129D01*
X114882404Y-95599102D01*
X114912344Y-95584941D01*
X114943529Y-95573783D01*
X114975657Y-95565735D01*
X115008419Y-95560875D01*
X115041500Y-95559250D01*
X115816500Y-95559250D01*
X115849581Y-95560875D01*
X115849581Y-95560875D01*
G37*
D14*
X115429000Y-96234250D03*
D13*
G36*
X114099581Y-95560875D02*
X114132343Y-95565735D01*
X114164471Y-95573783D01*
X114195656Y-95584941D01*
X114225596Y-95599102D01*
X114254005Y-95616129D01*
X114280608Y-95635859D01*
X114305149Y-95658101D01*
X114327391Y-95682642D01*
X114347121Y-95709245D01*
X114364148Y-95737654D01*
X114378309Y-95767594D01*
X114389467Y-95798779D01*
X114397515Y-95830907D01*
X114402375Y-95863669D01*
X114404000Y-95896750D01*
X114404000Y-96571750D01*
X114402375Y-96604831D01*
X114397515Y-96637593D01*
X114389467Y-96669721D01*
X114378309Y-96700906D01*
X114364148Y-96730846D01*
X114347121Y-96759255D01*
X114327391Y-96785858D01*
X114305149Y-96810399D01*
X114280608Y-96832641D01*
X114254005Y-96852371D01*
X114225596Y-96869398D01*
X114195656Y-96883559D01*
X114164471Y-96894717D01*
X114132343Y-96902765D01*
X114099581Y-96907625D01*
X114066500Y-96909250D01*
X113291500Y-96909250D01*
X113258419Y-96907625D01*
X113225657Y-96902765D01*
X113193529Y-96894717D01*
X113162344Y-96883559D01*
X113132404Y-96869398D01*
X113103995Y-96852371D01*
X113077392Y-96832641D01*
X113052851Y-96810399D01*
X113030609Y-96785858D01*
X113010879Y-96759255D01*
X112993852Y-96730846D01*
X112979691Y-96700906D01*
X112968533Y-96669721D01*
X112960485Y-96637593D01*
X112955625Y-96604831D01*
X112954000Y-96571750D01*
X112954000Y-95896750D01*
X112955625Y-95863669D01*
X112960485Y-95830907D01*
X112968533Y-95798779D01*
X112979691Y-95767594D01*
X112993852Y-95737654D01*
X113010879Y-95709245D01*
X113030609Y-95682642D01*
X113052851Y-95658101D01*
X113077392Y-95635859D01*
X113103995Y-95616129D01*
X113132404Y-95599102D01*
X113162344Y-95584941D01*
X113193529Y-95573783D01*
X113225657Y-95565735D01*
X113258419Y-95560875D01*
X113291500Y-95559250D01*
X114066500Y-95559250D01*
X114099581Y-95560875D01*
X114099581Y-95560875D01*
G37*
D14*
X113679000Y-96234250D03*
G04 #@! TD*
D13*
G04 #@! TO.C,R9*
G36*
X115849581Y-98450125D02*
X115882343Y-98454985D01*
X115914471Y-98463033D01*
X115945656Y-98474191D01*
X115975596Y-98488352D01*
X116004005Y-98505379D01*
X116030608Y-98525109D01*
X116055149Y-98547351D01*
X116077391Y-98571892D01*
X116097121Y-98598495D01*
X116114148Y-98626904D01*
X116128309Y-98656844D01*
X116139467Y-98688029D01*
X116147515Y-98720157D01*
X116152375Y-98752919D01*
X116154000Y-98786000D01*
X116154000Y-99461000D01*
X116152375Y-99494081D01*
X116147515Y-99526843D01*
X116139467Y-99558971D01*
X116128309Y-99590156D01*
X116114148Y-99620096D01*
X116097121Y-99648505D01*
X116077391Y-99675108D01*
X116055149Y-99699649D01*
X116030608Y-99721891D01*
X116004005Y-99741621D01*
X115975596Y-99758648D01*
X115945656Y-99772809D01*
X115914471Y-99783967D01*
X115882343Y-99792015D01*
X115849581Y-99796875D01*
X115816500Y-99798500D01*
X115041500Y-99798500D01*
X115008419Y-99796875D01*
X114975657Y-99792015D01*
X114943529Y-99783967D01*
X114912344Y-99772809D01*
X114882404Y-99758648D01*
X114853995Y-99741621D01*
X114827392Y-99721891D01*
X114802851Y-99699649D01*
X114780609Y-99675108D01*
X114760879Y-99648505D01*
X114743852Y-99620096D01*
X114729691Y-99590156D01*
X114718533Y-99558971D01*
X114710485Y-99526843D01*
X114705625Y-99494081D01*
X114704000Y-99461000D01*
X114704000Y-98786000D01*
X114705625Y-98752919D01*
X114710485Y-98720157D01*
X114718533Y-98688029D01*
X114729691Y-98656844D01*
X114743852Y-98626904D01*
X114760879Y-98598495D01*
X114780609Y-98571892D01*
X114802851Y-98547351D01*
X114827392Y-98525109D01*
X114853995Y-98505379D01*
X114882404Y-98488352D01*
X114912344Y-98474191D01*
X114943529Y-98463033D01*
X114975657Y-98454985D01*
X115008419Y-98450125D01*
X115041500Y-98448500D01*
X115816500Y-98448500D01*
X115849581Y-98450125D01*
X115849581Y-98450125D01*
G37*
D14*
X115429000Y-99123500D03*
D13*
G36*
X114099581Y-98450125D02*
X114132343Y-98454985D01*
X114164471Y-98463033D01*
X114195656Y-98474191D01*
X114225596Y-98488352D01*
X114254005Y-98505379D01*
X114280608Y-98525109D01*
X114305149Y-98547351D01*
X114327391Y-98571892D01*
X114347121Y-98598495D01*
X114364148Y-98626904D01*
X114378309Y-98656844D01*
X114389467Y-98688029D01*
X114397515Y-98720157D01*
X114402375Y-98752919D01*
X114404000Y-98786000D01*
X114404000Y-99461000D01*
X114402375Y-99494081D01*
X114397515Y-99526843D01*
X114389467Y-99558971D01*
X114378309Y-99590156D01*
X114364148Y-99620096D01*
X114347121Y-99648505D01*
X114327391Y-99675108D01*
X114305149Y-99699649D01*
X114280608Y-99721891D01*
X114254005Y-99741621D01*
X114225596Y-99758648D01*
X114195656Y-99772809D01*
X114164471Y-99783967D01*
X114132343Y-99792015D01*
X114099581Y-99796875D01*
X114066500Y-99798500D01*
X113291500Y-99798500D01*
X113258419Y-99796875D01*
X113225657Y-99792015D01*
X113193529Y-99783967D01*
X113162344Y-99772809D01*
X113132404Y-99758648D01*
X113103995Y-99741621D01*
X113077392Y-99721891D01*
X113052851Y-99699649D01*
X113030609Y-99675108D01*
X113010879Y-99648505D01*
X112993852Y-99620096D01*
X112979691Y-99590156D01*
X112968533Y-99558971D01*
X112960485Y-99526843D01*
X112955625Y-99494081D01*
X112954000Y-99461000D01*
X112954000Y-98786000D01*
X112955625Y-98752919D01*
X112960485Y-98720157D01*
X112968533Y-98688029D01*
X112979691Y-98656844D01*
X112993852Y-98626904D01*
X113010879Y-98598495D01*
X113030609Y-98571892D01*
X113052851Y-98547351D01*
X113077392Y-98525109D01*
X113103995Y-98505379D01*
X113132404Y-98488352D01*
X113162344Y-98474191D01*
X113193529Y-98463033D01*
X113225657Y-98454985D01*
X113258419Y-98450125D01*
X113291500Y-98448500D01*
X114066500Y-98448500D01*
X114099581Y-98450125D01*
X114099581Y-98450125D01*
G37*
D14*
X113679000Y-99123500D03*
G04 #@! TD*
D13*
G04 #@! TO.C,R10*
G36*
X115849581Y-101339375D02*
X115882343Y-101344235D01*
X115914471Y-101352283D01*
X115945656Y-101363441D01*
X115975596Y-101377602D01*
X116004005Y-101394629D01*
X116030608Y-101414359D01*
X116055149Y-101436601D01*
X116077391Y-101461142D01*
X116097121Y-101487745D01*
X116114148Y-101516154D01*
X116128309Y-101546094D01*
X116139467Y-101577279D01*
X116147515Y-101609407D01*
X116152375Y-101642169D01*
X116154000Y-101675250D01*
X116154000Y-102350250D01*
X116152375Y-102383331D01*
X116147515Y-102416093D01*
X116139467Y-102448221D01*
X116128309Y-102479406D01*
X116114148Y-102509346D01*
X116097121Y-102537755D01*
X116077391Y-102564358D01*
X116055149Y-102588899D01*
X116030608Y-102611141D01*
X116004005Y-102630871D01*
X115975596Y-102647898D01*
X115945656Y-102662059D01*
X115914471Y-102673217D01*
X115882343Y-102681265D01*
X115849581Y-102686125D01*
X115816500Y-102687750D01*
X115041500Y-102687750D01*
X115008419Y-102686125D01*
X114975657Y-102681265D01*
X114943529Y-102673217D01*
X114912344Y-102662059D01*
X114882404Y-102647898D01*
X114853995Y-102630871D01*
X114827392Y-102611141D01*
X114802851Y-102588899D01*
X114780609Y-102564358D01*
X114760879Y-102537755D01*
X114743852Y-102509346D01*
X114729691Y-102479406D01*
X114718533Y-102448221D01*
X114710485Y-102416093D01*
X114705625Y-102383331D01*
X114704000Y-102350250D01*
X114704000Y-101675250D01*
X114705625Y-101642169D01*
X114710485Y-101609407D01*
X114718533Y-101577279D01*
X114729691Y-101546094D01*
X114743852Y-101516154D01*
X114760879Y-101487745D01*
X114780609Y-101461142D01*
X114802851Y-101436601D01*
X114827392Y-101414359D01*
X114853995Y-101394629D01*
X114882404Y-101377602D01*
X114912344Y-101363441D01*
X114943529Y-101352283D01*
X114975657Y-101344235D01*
X115008419Y-101339375D01*
X115041500Y-101337750D01*
X115816500Y-101337750D01*
X115849581Y-101339375D01*
X115849581Y-101339375D01*
G37*
D14*
X115429000Y-102012750D03*
D13*
G36*
X114099581Y-101339375D02*
X114132343Y-101344235D01*
X114164471Y-101352283D01*
X114195656Y-101363441D01*
X114225596Y-101377602D01*
X114254005Y-101394629D01*
X114280608Y-101414359D01*
X114305149Y-101436601D01*
X114327391Y-101461142D01*
X114347121Y-101487745D01*
X114364148Y-101516154D01*
X114378309Y-101546094D01*
X114389467Y-101577279D01*
X114397515Y-101609407D01*
X114402375Y-101642169D01*
X114404000Y-101675250D01*
X114404000Y-102350250D01*
X114402375Y-102383331D01*
X114397515Y-102416093D01*
X114389467Y-102448221D01*
X114378309Y-102479406D01*
X114364148Y-102509346D01*
X114347121Y-102537755D01*
X114327391Y-102564358D01*
X114305149Y-102588899D01*
X114280608Y-102611141D01*
X114254005Y-102630871D01*
X114225596Y-102647898D01*
X114195656Y-102662059D01*
X114164471Y-102673217D01*
X114132343Y-102681265D01*
X114099581Y-102686125D01*
X114066500Y-102687750D01*
X113291500Y-102687750D01*
X113258419Y-102686125D01*
X113225657Y-102681265D01*
X113193529Y-102673217D01*
X113162344Y-102662059D01*
X113132404Y-102647898D01*
X113103995Y-102630871D01*
X113077392Y-102611141D01*
X113052851Y-102588899D01*
X113030609Y-102564358D01*
X113010879Y-102537755D01*
X112993852Y-102509346D01*
X112979691Y-102479406D01*
X112968533Y-102448221D01*
X112960485Y-102416093D01*
X112955625Y-102383331D01*
X112954000Y-102350250D01*
X112954000Y-101675250D01*
X112955625Y-101642169D01*
X112960485Y-101609407D01*
X112968533Y-101577279D01*
X112979691Y-101546094D01*
X112993852Y-101516154D01*
X113010879Y-101487745D01*
X113030609Y-101461142D01*
X113052851Y-101436601D01*
X113077392Y-101414359D01*
X113103995Y-101394629D01*
X113132404Y-101377602D01*
X113162344Y-101363441D01*
X113193529Y-101352283D01*
X113225657Y-101344235D01*
X113258419Y-101339375D01*
X113291500Y-101337750D01*
X114066500Y-101337750D01*
X114099581Y-101339375D01*
X114099581Y-101339375D01*
G37*
D14*
X113679000Y-102012750D03*
G04 #@! TD*
D13*
G04 #@! TO.C,C1*
G36*
X109245581Y-117944625D02*
X109278343Y-117949485D01*
X109310471Y-117957533D01*
X109341656Y-117968691D01*
X109371596Y-117982852D01*
X109400005Y-117999879D01*
X109426608Y-118019609D01*
X109451149Y-118041851D01*
X109473391Y-118066392D01*
X109493121Y-118092995D01*
X109510148Y-118121404D01*
X109524309Y-118151344D01*
X109535467Y-118182529D01*
X109543515Y-118214657D01*
X109548375Y-118247419D01*
X109550000Y-118280500D01*
X109550000Y-118955500D01*
X109548375Y-118988581D01*
X109543515Y-119021343D01*
X109535467Y-119053471D01*
X109524309Y-119084656D01*
X109510148Y-119114596D01*
X109493121Y-119143005D01*
X109473391Y-119169608D01*
X109451149Y-119194149D01*
X109426608Y-119216391D01*
X109400005Y-119236121D01*
X109371596Y-119253148D01*
X109341656Y-119267309D01*
X109310471Y-119278467D01*
X109278343Y-119286515D01*
X109245581Y-119291375D01*
X109212500Y-119293000D01*
X108437500Y-119293000D01*
X108404419Y-119291375D01*
X108371657Y-119286515D01*
X108339529Y-119278467D01*
X108308344Y-119267309D01*
X108278404Y-119253148D01*
X108249995Y-119236121D01*
X108223392Y-119216391D01*
X108198851Y-119194149D01*
X108176609Y-119169608D01*
X108156879Y-119143005D01*
X108139852Y-119114596D01*
X108125691Y-119084656D01*
X108114533Y-119053471D01*
X108106485Y-119021343D01*
X108101625Y-118988581D01*
X108100000Y-118955500D01*
X108100000Y-118280500D01*
X108101625Y-118247419D01*
X108106485Y-118214657D01*
X108114533Y-118182529D01*
X108125691Y-118151344D01*
X108139852Y-118121404D01*
X108156879Y-118092995D01*
X108176609Y-118066392D01*
X108198851Y-118041851D01*
X108223392Y-118019609D01*
X108249995Y-117999879D01*
X108278404Y-117982852D01*
X108308344Y-117968691D01*
X108339529Y-117957533D01*
X108371657Y-117949485D01*
X108404419Y-117944625D01*
X108437500Y-117943000D01*
X109212500Y-117943000D01*
X109245581Y-117944625D01*
X109245581Y-117944625D01*
G37*
D14*
X108825000Y-118618000D03*
D13*
G36*
X107495581Y-117944625D02*
X107528343Y-117949485D01*
X107560471Y-117957533D01*
X107591656Y-117968691D01*
X107621596Y-117982852D01*
X107650005Y-117999879D01*
X107676608Y-118019609D01*
X107701149Y-118041851D01*
X107723391Y-118066392D01*
X107743121Y-118092995D01*
X107760148Y-118121404D01*
X107774309Y-118151344D01*
X107785467Y-118182529D01*
X107793515Y-118214657D01*
X107798375Y-118247419D01*
X107800000Y-118280500D01*
X107800000Y-118955500D01*
X107798375Y-118988581D01*
X107793515Y-119021343D01*
X107785467Y-119053471D01*
X107774309Y-119084656D01*
X107760148Y-119114596D01*
X107743121Y-119143005D01*
X107723391Y-119169608D01*
X107701149Y-119194149D01*
X107676608Y-119216391D01*
X107650005Y-119236121D01*
X107621596Y-119253148D01*
X107591656Y-119267309D01*
X107560471Y-119278467D01*
X107528343Y-119286515D01*
X107495581Y-119291375D01*
X107462500Y-119293000D01*
X106687500Y-119293000D01*
X106654419Y-119291375D01*
X106621657Y-119286515D01*
X106589529Y-119278467D01*
X106558344Y-119267309D01*
X106528404Y-119253148D01*
X106499995Y-119236121D01*
X106473392Y-119216391D01*
X106448851Y-119194149D01*
X106426609Y-119169608D01*
X106406879Y-119143005D01*
X106389852Y-119114596D01*
X106375691Y-119084656D01*
X106364533Y-119053471D01*
X106356485Y-119021343D01*
X106351625Y-118988581D01*
X106350000Y-118955500D01*
X106350000Y-118280500D01*
X106351625Y-118247419D01*
X106356485Y-118214657D01*
X106364533Y-118182529D01*
X106375691Y-118151344D01*
X106389852Y-118121404D01*
X106406879Y-118092995D01*
X106426609Y-118066392D01*
X106448851Y-118041851D01*
X106473392Y-118019609D01*
X106499995Y-117999879D01*
X106528404Y-117982852D01*
X106558344Y-117968691D01*
X106589529Y-117957533D01*
X106621657Y-117949485D01*
X106654419Y-117944625D01*
X106687500Y-117943000D01*
X107462500Y-117943000D01*
X107495581Y-117944625D01*
X107495581Y-117944625D01*
G37*
D14*
X107075000Y-118618000D03*
G04 #@! TD*
D10*
G04 #@! TO.C,U3*
X117856000Y-121412000D03*
X115316000Y-121412000D03*
X112776000Y-121412000D03*
G04 #@! TD*
M02*
