G04 #@! TF.GenerationSoftware,KiCad,Pcbnew,(5.0.0)*
G04 #@! TF.CreationDate,2018-12-16T13:09:34-06:00*
G04 #@! TF.ProjectId,ShimbleBoard_Hardware,5368696D626C65426F6172645F486172,rev?*
G04 #@! TF.SameCoordinates,Original*
G04 #@! TF.FileFunction,Paste,Top*
G04 #@! TF.FilePolarity,Positive*
%FSLAX46Y46*%
G04 Gerber Fmt 4.6, Leading zero omitted, Abs format (unit mm)*
G04 Created by KiCad (PCBNEW (5.0.0)) date 12/16/18 13:09:34*
%MOMM*%
%LPD*%
G01*
G04 APERTURE LIST*
%ADD10C,5.080000*%
%ADD11C,1.520000*%
%ADD12C,0.100000*%
%ADD13C,0.950000*%
G04 APERTURE END LIST*
D10*
G04 #@! TO.C,Conn1*
X125704600Y-124840000D03*
X125704600Y-116839000D03*
X125704600Y-108840000D03*
G04 #@! TD*
D11*
G04 #@! TO.C,U1*
X99339001Y-81025001D03*
X96799001Y-81025001D03*
X94259001Y-81025001D03*
X117119001Y-83565001D03*
X114579001Y-83565001D03*
X112039001Y-83565001D03*
X109499001Y-83565001D03*
X106959001Y-83565001D03*
X104419001Y-83565001D03*
X101879001Y-83565001D03*
X99339001Y-83565001D03*
X96799001Y-83565001D03*
X94259001Y-83565001D03*
X117119001Y-126745001D03*
X112039001Y-126745001D03*
X106959001Y-126745001D03*
X104419001Y-126745001D03*
X101879001Y-126745001D03*
X99339001Y-126745001D03*
X96799001Y-126745001D03*
X117119001Y-124205001D03*
X112039001Y-124205001D03*
X101879001Y-124205001D03*
X99339001Y-124205001D03*
X96799001Y-124205001D03*
X94259001Y-124205001D03*
X106959001Y-124205001D03*
X109499001Y-124205001D03*
X114579001Y-126745001D03*
X101879001Y-81025001D03*
X104419001Y-81025001D03*
X114579001Y-124205001D03*
X109499001Y-126745001D03*
X112039001Y-81025001D03*
X109499001Y-81025001D03*
X104419001Y-124205001D03*
X106959001Y-81025001D03*
X114579001Y-81025001D03*
X117119001Y-81025001D03*
X94259001Y-126745001D03*
G04 #@! TD*
D12*
G04 #@! TO.C,C4*
G36*
X109135779Y-110727344D02*
X109158834Y-110730763D01*
X109181443Y-110736427D01*
X109203387Y-110744279D01*
X109224457Y-110754244D01*
X109244448Y-110766226D01*
X109263168Y-110780110D01*
X109280438Y-110795762D01*
X109296090Y-110813032D01*
X109309974Y-110831752D01*
X109321956Y-110851743D01*
X109331921Y-110872813D01*
X109339773Y-110894757D01*
X109345437Y-110917366D01*
X109348856Y-110940421D01*
X109350000Y-110963700D01*
X109350000Y-111438700D01*
X109348856Y-111461979D01*
X109345437Y-111485034D01*
X109339773Y-111507643D01*
X109331921Y-111529587D01*
X109321956Y-111550657D01*
X109309974Y-111570648D01*
X109296090Y-111589368D01*
X109280438Y-111606638D01*
X109263168Y-111622290D01*
X109244448Y-111636174D01*
X109224457Y-111648156D01*
X109203387Y-111658121D01*
X109181443Y-111665973D01*
X109158834Y-111671637D01*
X109135779Y-111675056D01*
X109112500Y-111676200D01*
X108537500Y-111676200D01*
X108514221Y-111675056D01*
X108491166Y-111671637D01*
X108468557Y-111665973D01*
X108446613Y-111658121D01*
X108425543Y-111648156D01*
X108405552Y-111636174D01*
X108386832Y-111622290D01*
X108369562Y-111606638D01*
X108353910Y-111589368D01*
X108340026Y-111570648D01*
X108328044Y-111550657D01*
X108318079Y-111529587D01*
X108310227Y-111507643D01*
X108304563Y-111485034D01*
X108301144Y-111461979D01*
X108300000Y-111438700D01*
X108300000Y-110963700D01*
X108301144Y-110940421D01*
X108304563Y-110917366D01*
X108310227Y-110894757D01*
X108318079Y-110872813D01*
X108328044Y-110851743D01*
X108340026Y-110831752D01*
X108353910Y-110813032D01*
X108369562Y-110795762D01*
X108386832Y-110780110D01*
X108405552Y-110766226D01*
X108425543Y-110754244D01*
X108446613Y-110744279D01*
X108468557Y-110736427D01*
X108491166Y-110730763D01*
X108514221Y-110727344D01*
X108537500Y-110726200D01*
X109112500Y-110726200D01*
X109135779Y-110727344D01*
X109135779Y-110727344D01*
G37*
D13*
X108825000Y-111201200D03*
D12*
G36*
X107385779Y-110727344D02*
X107408834Y-110730763D01*
X107431443Y-110736427D01*
X107453387Y-110744279D01*
X107474457Y-110754244D01*
X107494448Y-110766226D01*
X107513168Y-110780110D01*
X107530438Y-110795762D01*
X107546090Y-110813032D01*
X107559974Y-110831752D01*
X107571956Y-110851743D01*
X107581921Y-110872813D01*
X107589773Y-110894757D01*
X107595437Y-110917366D01*
X107598856Y-110940421D01*
X107600000Y-110963700D01*
X107600000Y-111438700D01*
X107598856Y-111461979D01*
X107595437Y-111485034D01*
X107589773Y-111507643D01*
X107581921Y-111529587D01*
X107571956Y-111550657D01*
X107559974Y-111570648D01*
X107546090Y-111589368D01*
X107530438Y-111606638D01*
X107513168Y-111622290D01*
X107494448Y-111636174D01*
X107474457Y-111648156D01*
X107453387Y-111658121D01*
X107431443Y-111665973D01*
X107408834Y-111671637D01*
X107385779Y-111675056D01*
X107362500Y-111676200D01*
X106787500Y-111676200D01*
X106764221Y-111675056D01*
X106741166Y-111671637D01*
X106718557Y-111665973D01*
X106696613Y-111658121D01*
X106675543Y-111648156D01*
X106655552Y-111636174D01*
X106636832Y-111622290D01*
X106619562Y-111606638D01*
X106603910Y-111589368D01*
X106590026Y-111570648D01*
X106578044Y-111550657D01*
X106568079Y-111529587D01*
X106560227Y-111507643D01*
X106554563Y-111485034D01*
X106551144Y-111461979D01*
X106550000Y-111438700D01*
X106550000Y-110963700D01*
X106551144Y-110940421D01*
X106554563Y-110917366D01*
X106560227Y-110894757D01*
X106568079Y-110872813D01*
X106578044Y-110851743D01*
X106590026Y-110831752D01*
X106603910Y-110813032D01*
X106619562Y-110795762D01*
X106636832Y-110780110D01*
X106655552Y-110766226D01*
X106675543Y-110754244D01*
X106696613Y-110744279D01*
X106718557Y-110736427D01*
X106741166Y-110730763D01*
X106764221Y-110727344D01*
X106787500Y-110726200D01*
X107362500Y-110726200D01*
X107385779Y-110727344D01*
X107385779Y-110727344D01*
G37*
D13*
X107075000Y-111201200D03*
G04 #@! TD*
D12*
G04 #@! TO.C,R7*
G36*
X115739779Y-92871144D02*
X115762834Y-92874563D01*
X115785443Y-92880227D01*
X115807387Y-92888079D01*
X115828457Y-92898044D01*
X115848448Y-92910026D01*
X115867168Y-92923910D01*
X115884438Y-92939562D01*
X115900090Y-92956832D01*
X115913974Y-92975552D01*
X115925956Y-92995543D01*
X115935921Y-93016613D01*
X115943773Y-93038557D01*
X115949437Y-93061166D01*
X115952856Y-93084221D01*
X115954000Y-93107500D01*
X115954000Y-93582500D01*
X115952856Y-93605779D01*
X115949437Y-93628834D01*
X115943773Y-93651443D01*
X115935921Y-93673387D01*
X115925956Y-93694457D01*
X115913974Y-93714448D01*
X115900090Y-93733168D01*
X115884438Y-93750438D01*
X115867168Y-93766090D01*
X115848448Y-93779974D01*
X115828457Y-93791956D01*
X115807387Y-93801921D01*
X115785443Y-93809773D01*
X115762834Y-93815437D01*
X115739779Y-93818856D01*
X115716500Y-93820000D01*
X115141500Y-93820000D01*
X115118221Y-93818856D01*
X115095166Y-93815437D01*
X115072557Y-93809773D01*
X115050613Y-93801921D01*
X115029543Y-93791956D01*
X115009552Y-93779974D01*
X114990832Y-93766090D01*
X114973562Y-93750438D01*
X114957910Y-93733168D01*
X114944026Y-93714448D01*
X114932044Y-93694457D01*
X114922079Y-93673387D01*
X114914227Y-93651443D01*
X114908563Y-93628834D01*
X114905144Y-93605779D01*
X114904000Y-93582500D01*
X114904000Y-93107500D01*
X114905144Y-93084221D01*
X114908563Y-93061166D01*
X114914227Y-93038557D01*
X114922079Y-93016613D01*
X114932044Y-92995543D01*
X114944026Y-92975552D01*
X114957910Y-92956832D01*
X114973562Y-92939562D01*
X114990832Y-92923910D01*
X115009552Y-92910026D01*
X115029543Y-92898044D01*
X115050613Y-92888079D01*
X115072557Y-92880227D01*
X115095166Y-92874563D01*
X115118221Y-92871144D01*
X115141500Y-92870000D01*
X115716500Y-92870000D01*
X115739779Y-92871144D01*
X115739779Y-92871144D01*
G37*
D13*
X115429000Y-93345000D03*
D12*
G36*
X113989779Y-92871144D02*
X114012834Y-92874563D01*
X114035443Y-92880227D01*
X114057387Y-92888079D01*
X114078457Y-92898044D01*
X114098448Y-92910026D01*
X114117168Y-92923910D01*
X114134438Y-92939562D01*
X114150090Y-92956832D01*
X114163974Y-92975552D01*
X114175956Y-92995543D01*
X114185921Y-93016613D01*
X114193773Y-93038557D01*
X114199437Y-93061166D01*
X114202856Y-93084221D01*
X114204000Y-93107500D01*
X114204000Y-93582500D01*
X114202856Y-93605779D01*
X114199437Y-93628834D01*
X114193773Y-93651443D01*
X114185921Y-93673387D01*
X114175956Y-93694457D01*
X114163974Y-93714448D01*
X114150090Y-93733168D01*
X114134438Y-93750438D01*
X114117168Y-93766090D01*
X114098448Y-93779974D01*
X114078457Y-93791956D01*
X114057387Y-93801921D01*
X114035443Y-93809773D01*
X114012834Y-93815437D01*
X113989779Y-93818856D01*
X113966500Y-93820000D01*
X113391500Y-93820000D01*
X113368221Y-93818856D01*
X113345166Y-93815437D01*
X113322557Y-93809773D01*
X113300613Y-93801921D01*
X113279543Y-93791956D01*
X113259552Y-93779974D01*
X113240832Y-93766090D01*
X113223562Y-93750438D01*
X113207910Y-93733168D01*
X113194026Y-93714448D01*
X113182044Y-93694457D01*
X113172079Y-93673387D01*
X113164227Y-93651443D01*
X113158563Y-93628834D01*
X113155144Y-93605779D01*
X113154000Y-93582500D01*
X113154000Y-93107500D01*
X113155144Y-93084221D01*
X113158563Y-93061166D01*
X113164227Y-93038557D01*
X113172079Y-93016613D01*
X113182044Y-92995543D01*
X113194026Y-92975552D01*
X113207910Y-92956832D01*
X113223562Y-92939562D01*
X113240832Y-92923910D01*
X113259552Y-92910026D01*
X113279543Y-92898044D01*
X113300613Y-92888079D01*
X113322557Y-92880227D01*
X113345166Y-92874563D01*
X113368221Y-92871144D01*
X113391500Y-92870000D01*
X113966500Y-92870000D01*
X113989779Y-92871144D01*
X113989779Y-92871144D01*
G37*
D13*
X113679000Y-93345000D03*
G04 #@! TD*
D12*
G04 #@! TO.C,C3*
G36*
X109135779Y-120176144D02*
X109158834Y-120179563D01*
X109181443Y-120185227D01*
X109203387Y-120193079D01*
X109224457Y-120203044D01*
X109244448Y-120215026D01*
X109263168Y-120228910D01*
X109280438Y-120244562D01*
X109296090Y-120261832D01*
X109309974Y-120280552D01*
X109321956Y-120300543D01*
X109331921Y-120321613D01*
X109339773Y-120343557D01*
X109345437Y-120366166D01*
X109348856Y-120389221D01*
X109350000Y-120412500D01*
X109350000Y-120887500D01*
X109348856Y-120910779D01*
X109345437Y-120933834D01*
X109339773Y-120956443D01*
X109331921Y-120978387D01*
X109321956Y-120999457D01*
X109309974Y-121019448D01*
X109296090Y-121038168D01*
X109280438Y-121055438D01*
X109263168Y-121071090D01*
X109244448Y-121084974D01*
X109224457Y-121096956D01*
X109203387Y-121106921D01*
X109181443Y-121114773D01*
X109158834Y-121120437D01*
X109135779Y-121123856D01*
X109112500Y-121125000D01*
X108537500Y-121125000D01*
X108514221Y-121123856D01*
X108491166Y-121120437D01*
X108468557Y-121114773D01*
X108446613Y-121106921D01*
X108425543Y-121096956D01*
X108405552Y-121084974D01*
X108386832Y-121071090D01*
X108369562Y-121055438D01*
X108353910Y-121038168D01*
X108340026Y-121019448D01*
X108328044Y-120999457D01*
X108318079Y-120978387D01*
X108310227Y-120956443D01*
X108304563Y-120933834D01*
X108301144Y-120910779D01*
X108300000Y-120887500D01*
X108300000Y-120412500D01*
X108301144Y-120389221D01*
X108304563Y-120366166D01*
X108310227Y-120343557D01*
X108318079Y-120321613D01*
X108328044Y-120300543D01*
X108340026Y-120280552D01*
X108353910Y-120261832D01*
X108369562Y-120244562D01*
X108386832Y-120228910D01*
X108405552Y-120215026D01*
X108425543Y-120203044D01*
X108446613Y-120193079D01*
X108468557Y-120185227D01*
X108491166Y-120179563D01*
X108514221Y-120176144D01*
X108537500Y-120175000D01*
X109112500Y-120175000D01*
X109135779Y-120176144D01*
X109135779Y-120176144D01*
G37*
D13*
X108825000Y-120650000D03*
D12*
G36*
X107385779Y-120176144D02*
X107408834Y-120179563D01*
X107431443Y-120185227D01*
X107453387Y-120193079D01*
X107474457Y-120203044D01*
X107494448Y-120215026D01*
X107513168Y-120228910D01*
X107530438Y-120244562D01*
X107546090Y-120261832D01*
X107559974Y-120280552D01*
X107571956Y-120300543D01*
X107581921Y-120321613D01*
X107589773Y-120343557D01*
X107595437Y-120366166D01*
X107598856Y-120389221D01*
X107600000Y-120412500D01*
X107600000Y-120887500D01*
X107598856Y-120910779D01*
X107595437Y-120933834D01*
X107589773Y-120956443D01*
X107581921Y-120978387D01*
X107571956Y-120999457D01*
X107559974Y-121019448D01*
X107546090Y-121038168D01*
X107530438Y-121055438D01*
X107513168Y-121071090D01*
X107494448Y-121084974D01*
X107474457Y-121096956D01*
X107453387Y-121106921D01*
X107431443Y-121114773D01*
X107408834Y-121120437D01*
X107385779Y-121123856D01*
X107362500Y-121125000D01*
X106787500Y-121125000D01*
X106764221Y-121123856D01*
X106741166Y-121120437D01*
X106718557Y-121114773D01*
X106696613Y-121106921D01*
X106675543Y-121096956D01*
X106655552Y-121084974D01*
X106636832Y-121071090D01*
X106619562Y-121055438D01*
X106603910Y-121038168D01*
X106590026Y-121019448D01*
X106578044Y-120999457D01*
X106568079Y-120978387D01*
X106560227Y-120956443D01*
X106554563Y-120933834D01*
X106551144Y-120910779D01*
X106550000Y-120887500D01*
X106550000Y-120412500D01*
X106551144Y-120389221D01*
X106554563Y-120366166D01*
X106560227Y-120343557D01*
X106568079Y-120321613D01*
X106578044Y-120300543D01*
X106590026Y-120280552D01*
X106603910Y-120261832D01*
X106619562Y-120244562D01*
X106636832Y-120228910D01*
X106655552Y-120215026D01*
X106675543Y-120203044D01*
X106696613Y-120193079D01*
X106718557Y-120185227D01*
X106741166Y-120179563D01*
X106764221Y-120176144D01*
X106787500Y-120175000D01*
X107362500Y-120175000D01*
X107385779Y-120176144D01*
X107385779Y-120176144D01*
G37*
D13*
X107075000Y-120650000D03*
G04 #@! TD*
D12*
G04 #@! TO.C,D3*
G36*
X106736779Y-104428141D02*
X106759834Y-104431560D01*
X106782443Y-104437224D01*
X106804387Y-104445076D01*
X106825457Y-104455041D01*
X106845448Y-104467023D01*
X106864168Y-104480907D01*
X106881438Y-104496559D01*
X106897090Y-104513829D01*
X106910974Y-104532549D01*
X106922956Y-104552540D01*
X106932921Y-104573610D01*
X106940773Y-104595554D01*
X106946437Y-104618163D01*
X106949856Y-104641218D01*
X106951000Y-104664497D01*
X106951000Y-105139497D01*
X106949856Y-105162776D01*
X106946437Y-105185831D01*
X106940773Y-105208440D01*
X106932921Y-105230384D01*
X106922956Y-105251454D01*
X106910974Y-105271445D01*
X106897090Y-105290165D01*
X106881438Y-105307435D01*
X106864168Y-105323087D01*
X106845448Y-105336971D01*
X106825457Y-105348953D01*
X106804387Y-105358918D01*
X106782443Y-105366770D01*
X106759834Y-105372434D01*
X106736779Y-105375853D01*
X106713500Y-105376997D01*
X106138500Y-105376997D01*
X106115221Y-105375853D01*
X106092166Y-105372434D01*
X106069557Y-105366770D01*
X106047613Y-105358918D01*
X106026543Y-105348953D01*
X106006552Y-105336971D01*
X105987832Y-105323087D01*
X105970562Y-105307435D01*
X105954910Y-105290165D01*
X105941026Y-105271445D01*
X105929044Y-105251454D01*
X105919079Y-105230384D01*
X105911227Y-105208440D01*
X105905563Y-105185831D01*
X105902144Y-105162776D01*
X105901000Y-105139497D01*
X105901000Y-104664497D01*
X105902144Y-104641218D01*
X105905563Y-104618163D01*
X105911227Y-104595554D01*
X105919079Y-104573610D01*
X105929044Y-104552540D01*
X105941026Y-104532549D01*
X105954910Y-104513829D01*
X105970562Y-104496559D01*
X105987832Y-104480907D01*
X106006552Y-104467023D01*
X106026543Y-104455041D01*
X106047613Y-104445076D01*
X106069557Y-104437224D01*
X106092166Y-104431560D01*
X106115221Y-104428141D01*
X106138500Y-104426997D01*
X106713500Y-104426997D01*
X106736779Y-104428141D01*
X106736779Y-104428141D01*
G37*
D13*
X106426000Y-104901997D03*
D12*
G36*
X108486779Y-104428141D02*
X108509834Y-104431560D01*
X108532443Y-104437224D01*
X108554387Y-104445076D01*
X108575457Y-104455041D01*
X108595448Y-104467023D01*
X108614168Y-104480907D01*
X108631438Y-104496559D01*
X108647090Y-104513829D01*
X108660974Y-104532549D01*
X108672956Y-104552540D01*
X108682921Y-104573610D01*
X108690773Y-104595554D01*
X108696437Y-104618163D01*
X108699856Y-104641218D01*
X108701000Y-104664497D01*
X108701000Y-105139497D01*
X108699856Y-105162776D01*
X108696437Y-105185831D01*
X108690773Y-105208440D01*
X108682921Y-105230384D01*
X108672956Y-105251454D01*
X108660974Y-105271445D01*
X108647090Y-105290165D01*
X108631438Y-105307435D01*
X108614168Y-105323087D01*
X108595448Y-105336971D01*
X108575457Y-105348953D01*
X108554387Y-105358918D01*
X108532443Y-105366770D01*
X108509834Y-105372434D01*
X108486779Y-105375853D01*
X108463500Y-105376997D01*
X107888500Y-105376997D01*
X107865221Y-105375853D01*
X107842166Y-105372434D01*
X107819557Y-105366770D01*
X107797613Y-105358918D01*
X107776543Y-105348953D01*
X107756552Y-105336971D01*
X107737832Y-105323087D01*
X107720562Y-105307435D01*
X107704910Y-105290165D01*
X107691026Y-105271445D01*
X107679044Y-105251454D01*
X107669079Y-105230384D01*
X107661227Y-105208440D01*
X107655563Y-105185831D01*
X107652144Y-105162776D01*
X107651000Y-105139497D01*
X107651000Y-104664497D01*
X107652144Y-104641218D01*
X107655563Y-104618163D01*
X107661227Y-104595554D01*
X107669079Y-104573610D01*
X107679044Y-104552540D01*
X107691026Y-104532549D01*
X107704910Y-104513829D01*
X107720562Y-104496559D01*
X107737832Y-104480907D01*
X107756552Y-104467023D01*
X107776543Y-104455041D01*
X107797613Y-104445076D01*
X107819557Y-104437224D01*
X107842166Y-104431560D01*
X107865221Y-104428141D01*
X107888500Y-104426997D01*
X108463500Y-104426997D01*
X108486779Y-104428141D01*
X108486779Y-104428141D01*
G37*
D13*
X108176000Y-104901997D03*
G04 #@! TD*
D12*
G04 #@! TO.C,D4*
G36*
X120085779Y-104428141D02*
X120108834Y-104431560D01*
X120131443Y-104437224D01*
X120153387Y-104445076D01*
X120174457Y-104455041D01*
X120194448Y-104467023D01*
X120213168Y-104480907D01*
X120230438Y-104496559D01*
X120246090Y-104513829D01*
X120259974Y-104532549D01*
X120271956Y-104552540D01*
X120281921Y-104573610D01*
X120289773Y-104595554D01*
X120295437Y-104618163D01*
X120298856Y-104641218D01*
X120300000Y-104664497D01*
X120300000Y-105139497D01*
X120298856Y-105162776D01*
X120295437Y-105185831D01*
X120289773Y-105208440D01*
X120281921Y-105230384D01*
X120271956Y-105251454D01*
X120259974Y-105271445D01*
X120246090Y-105290165D01*
X120230438Y-105307435D01*
X120213168Y-105323087D01*
X120194448Y-105336971D01*
X120174457Y-105348953D01*
X120153387Y-105358918D01*
X120131443Y-105366770D01*
X120108834Y-105372434D01*
X120085779Y-105375853D01*
X120062500Y-105376997D01*
X119487500Y-105376997D01*
X119464221Y-105375853D01*
X119441166Y-105372434D01*
X119418557Y-105366770D01*
X119396613Y-105358918D01*
X119375543Y-105348953D01*
X119355552Y-105336971D01*
X119336832Y-105323087D01*
X119319562Y-105307435D01*
X119303910Y-105290165D01*
X119290026Y-105271445D01*
X119278044Y-105251454D01*
X119268079Y-105230384D01*
X119260227Y-105208440D01*
X119254563Y-105185831D01*
X119251144Y-105162776D01*
X119250000Y-105139497D01*
X119250000Y-104664497D01*
X119251144Y-104641218D01*
X119254563Y-104618163D01*
X119260227Y-104595554D01*
X119268079Y-104573610D01*
X119278044Y-104552540D01*
X119290026Y-104532549D01*
X119303910Y-104513829D01*
X119319562Y-104496559D01*
X119336832Y-104480907D01*
X119355552Y-104467023D01*
X119375543Y-104455041D01*
X119396613Y-104445076D01*
X119418557Y-104437224D01*
X119441166Y-104431560D01*
X119464221Y-104428141D01*
X119487500Y-104426997D01*
X120062500Y-104426997D01*
X120085779Y-104428141D01*
X120085779Y-104428141D01*
G37*
D13*
X119775000Y-104901997D03*
D12*
G36*
X121835779Y-104428141D02*
X121858834Y-104431560D01*
X121881443Y-104437224D01*
X121903387Y-104445076D01*
X121924457Y-104455041D01*
X121944448Y-104467023D01*
X121963168Y-104480907D01*
X121980438Y-104496559D01*
X121996090Y-104513829D01*
X122009974Y-104532549D01*
X122021956Y-104552540D01*
X122031921Y-104573610D01*
X122039773Y-104595554D01*
X122045437Y-104618163D01*
X122048856Y-104641218D01*
X122050000Y-104664497D01*
X122050000Y-105139497D01*
X122048856Y-105162776D01*
X122045437Y-105185831D01*
X122039773Y-105208440D01*
X122031921Y-105230384D01*
X122021956Y-105251454D01*
X122009974Y-105271445D01*
X121996090Y-105290165D01*
X121980438Y-105307435D01*
X121963168Y-105323087D01*
X121944448Y-105336971D01*
X121924457Y-105348953D01*
X121903387Y-105358918D01*
X121881443Y-105366770D01*
X121858834Y-105372434D01*
X121835779Y-105375853D01*
X121812500Y-105376997D01*
X121237500Y-105376997D01*
X121214221Y-105375853D01*
X121191166Y-105372434D01*
X121168557Y-105366770D01*
X121146613Y-105358918D01*
X121125543Y-105348953D01*
X121105552Y-105336971D01*
X121086832Y-105323087D01*
X121069562Y-105307435D01*
X121053910Y-105290165D01*
X121040026Y-105271445D01*
X121028044Y-105251454D01*
X121018079Y-105230384D01*
X121010227Y-105208440D01*
X121004563Y-105185831D01*
X121001144Y-105162776D01*
X121000000Y-105139497D01*
X121000000Y-104664497D01*
X121001144Y-104641218D01*
X121004563Y-104618163D01*
X121010227Y-104595554D01*
X121018079Y-104573610D01*
X121028044Y-104552540D01*
X121040026Y-104532549D01*
X121053910Y-104513829D01*
X121069562Y-104496559D01*
X121086832Y-104480907D01*
X121105552Y-104467023D01*
X121125543Y-104455041D01*
X121146613Y-104445076D01*
X121168557Y-104437224D01*
X121191166Y-104431560D01*
X121214221Y-104428141D01*
X121237500Y-104426997D01*
X121812500Y-104426997D01*
X121835779Y-104428141D01*
X121835779Y-104428141D01*
G37*
D13*
X121525000Y-104901997D03*
G04 #@! TD*
D12*
G04 #@! TO.C,D5*
G36*
X106736779Y-92973477D02*
X106759834Y-92976896D01*
X106782443Y-92982560D01*
X106804387Y-92990412D01*
X106825457Y-93000377D01*
X106845448Y-93012359D01*
X106864168Y-93026243D01*
X106881438Y-93041895D01*
X106897090Y-93059165D01*
X106910974Y-93077885D01*
X106922956Y-93097876D01*
X106932921Y-93118946D01*
X106940773Y-93140890D01*
X106946437Y-93163499D01*
X106949856Y-93186554D01*
X106951000Y-93209833D01*
X106951000Y-93684833D01*
X106949856Y-93708112D01*
X106946437Y-93731167D01*
X106940773Y-93753776D01*
X106932921Y-93775720D01*
X106922956Y-93796790D01*
X106910974Y-93816781D01*
X106897090Y-93835501D01*
X106881438Y-93852771D01*
X106864168Y-93868423D01*
X106845448Y-93882307D01*
X106825457Y-93894289D01*
X106804387Y-93904254D01*
X106782443Y-93912106D01*
X106759834Y-93917770D01*
X106736779Y-93921189D01*
X106713500Y-93922333D01*
X106138500Y-93922333D01*
X106115221Y-93921189D01*
X106092166Y-93917770D01*
X106069557Y-93912106D01*
X106047613Y-93904254D01*
X106026543Y-93894289D01*
X106006552Y-93882307D01*
X105987832Y-93868423D01*
X105970562Y-93852771D01*
X105954910Y-93835501D01*
X105941026Y-93816781D01*
X105929044Y-93796790D01*
X105919079Y-93775720D01*
X105911227Y-93753776D01*
X105905563Y-93731167D01*
X105902144Y-93708112D01*
X105901000Y-93684833D01*
X105901000Y-93209833D01*
X105902144Y-93186554D01*
X105905563Y-93163499D01*
X105911227Y-93140890D01*
X105919079Y-93118946D01*
X105929044Y-93097876D01*
X105941026Y-93077885D01*
X105954910Y-93059165D01*
X105970562Y-93041895D01*
X105987832Y-93026243D01*
X106006552Y-93012359D01*
X106026543Y-93000377D01*
X106047613Y-92990412D01*
X106069557Y-92982560D01*
X106092166Y-92976896D01*
X106115221Y-92973477D01*
X106138500Y-92972333D01*
X106713500Y-92972333D01*
X106736779Y-92973477D01*
X106736779Y-92973477D01*
G37*
D13*
X106426000Y-93447333D03*
D12*
G36*
X108486779Y-92973477D02*
X108509834Y-92976896D01*
X108532443Y-92982560D01*
X108554387Y-92990412D01*
X108575457Y-93000377D01*
X108595448Y-93012359D01*
X108614168Y-93026243D01*
X108631438Y-93041895D01*
X108647090Y-93059165D01*
X108660974Y-93077885D01*
X108672956Y-93097876D01*
X108682921Y-93118946D01*
X108690773Y-93140890D01*
X108696437Y-93163499D01*
X108699856Y-93186554D01*
X108701000Y-93209833D01*
X108701000Y-93684833D01*
X108699856Y-93708112D01*
X108696437Y-93731167D01*
X108690773Y-93753776D01*
X108682921Y-93775720D01*
X108672956Y-93796790D01*
X108660974Y-93816781D01*
X108647090Y-93835501D01*
X108631438Y-93852771D01*
X108614168Y-93868423D01*
X108595448Y-93882307D01*
X108575457Y-93894289D01*
X108554387Y-93904254D01*
X108532443Y-93912106D01*
X108509834Y-93917770D01*
X108486779Y-93921189D01*
X108463500Y-93922333D01*
X107888500Y-93922333D01*
X107865221Y-93921189D01*
X107842166Y-93917770D01*
X107819557Y-93912106D01*
X107797613Y-93904254D01*
X107776543Y-93894289D01*
X107756552Y-93882307D01*
X107737832Y-93868423D01*
X107720562Y-93852771D01*
X107704910Y-93835501D01*
X107691026Y-93816781D01*
X107679044Y-93796790D01*
X107669079Y-93775720D01*
X107661227Y-93753776D01*
X107655563Y-93731167D01*
X107652144Y-93708112D01*
X107651000Y-93684833D01*
X107651000Y-93209833D01*
X107652144Y-93186554D01*
X107655563Y-93163499D01*
X107661227Y-93140890D01*
X107669079Y-93118946D01*
X107679044Y-93097876D01*
X107691026Y-93077885D01*
X107704910Y-93059165D01*
X107720562Y-93041895D01*
X107737832Y-93026243D01*
X107756552Y-93012359D01*
X107776543Y-93000377D01*
X107797613Y-92990412D01*
X107819557Y-92982560D01*
X107842166Y-92976896D01*
X107865221Y-92973477D01*
X107888500Y-92972333D01*
X108463500Y-92972333D01*
X108486779Y-92973477D01*
X108486779Y-92973477D01*
G37*
D13*
X108176000Y-93447333D03*
G04 #@! TD*
D12*
G04 #@! TO.C,D6*
G36*
X106736779Y-95837143D02*
X106759834Y-95840562D01*
X106782443Y-95846226D01*
X106804387Y-95854078D01*
X106825457Y-95864043D01*
X106845448Y-95876025D01*
X106864168Y-95889909D01*
X106881438Y-95905561D01*
X106897090Y-95922831D01*
X106910974Y-95941551D01*
X106922956Y-95961542D01*
X106932921Y-95982612D01*
X106940773Y-96004556D01*
X106946437Y-96027165D01*
X106949856Y-96050220D01*
X106951000Y-96073499D01*
X106951000Y-96548499D01*
X106949856Y-96571778D01*
X106946437Y-96594833D01*
X106940773Y-96617442D01*
X106932921Y-96639386D01*
X106922956Y-96660456D01*
X106910974Y-96680447D01*
X106897090Y-96699167D01*
X106881438Y-96716437D01*
X106864168Y-96732089D01*
X106845448Y-96745973D01*
X106825457Y-96757955D01*
X106804387Y-96767920D01*
X106782443Y-96775772D01*
X106759834Y-96781436D01*
X106736779Y-96784855D01*
X106713500Y-96785999D01*
X106138500Y-96785999D01*
X106115221Y-96784855D01*
X106092166Y-96781436D01*
X106069557Y-96775772D01*
X106047613Y-96767920D01*
X106026543Y-96757955D01*
X106006552Y-96745973D01*
X105987832Y-96732089D01*
X105970562Y-96716437D01*
X105954910Y-96699167D01*
X105941026Y-96680447D01*
X105929044Y-96660456D01*
X105919079Y-96639386D01*
X105911227Y-96617442D01*
X105905563Y-96594833D01*
X105902144Y-96571778D01*
X105901000Y-96548499D01*
X105901000Y-96073499D01*
X105902144Y-96050220D01*
X105905563Y-96027165D01*
X105911227Y-96004556D01*
X105919079Y-95982612D01*
X105929044Y-95961542D01*
X105941026Y-95941551D01*
X105954910Y-95922831D01*
X105970562Y-95905561D01*
X105987832Y-95889909D01*
X106006552Y-95876025D01*
X106026543Y-95864043D01*
X106047613Y-95854078D01*
X106069557Y-95846226D01*
X106092166Y-95840562D01*
X106115221Y-95837143D01*
X106138500Y-95835999D01*
X106713500Y-95835999D01*
X106736779Y-95837143D01*
X106736779Y-95837143D01*
G37*
D13*
X106426000Y-96310999D03*
D12*
G36*
X108486779Y-95837143D02*
X108509834Y-95840562D01*
X108532443Y-95846226D01*
X108554387Y-95854078D01*
X108575457Y-95864043D01*
X108595448Y-95876025D01*
X108614168Y-95889909D01*
X108631438Y-95905561D01*
X108647090Y-95922831D01*
X108660974Y-95941551D01*
X108672956Y-95961542D01*
X108682921Y-95982612D01*
X108690773Y-96004556D01*
X108696437Y-96027165D01*
X108699856Y-96050220D01*
X108701000Y-96073499D01*
X108701000Y-96548499D01*
X108699856Y-96571778D01*
X108696437Y-96594833D01*
X108690773Y-96617442D01*
X108682921Y-96639386D01*
X108672956Y-96660456D01*
X108660974Y-96680447D01*
X108647090Y-96699167D01*
X108631438Y-96716437D01*
X108614168Y-96732089D01*
X108595448Y-96745973D01*
X108575457Y-96757955D01*
X108554387Y-96767920D01*
X108532443Y-96775772D01*
X108509834Y-96781436D01*
X108486779Y-96784855D01*
X108463500Y-96785999D01*
X107888500Y-96785999D01*
X107865221Y-96784855D01*
X107842166Y-96781436D01*
X107819557Y-96775772D01*
X107797613Y-96767920D01*
X107776543Y-96757955D01*
X107756552Y-96745973D01*
X107737832Y-96732089D01*
X107720562Y-96716437D01*
X107704910Y-96699167D01*
X107691026Y-96680447D01*
X107679044Y-96660456D01*
X107669079Y-96639386D01*
X107661227Y-96617442D01*
X107655563Y-96594833D01*
X107652144Y-96571778D01*
X107651000Y-96548499D01*
X107651000Y-96073499D01*
X107652144Y-96050220D01*
X107655563Y-96027165D01*
X107661227Y-96004556D01*
X107669079Y-95982612D01*
X107679044Y-95961542D01*
X107691026Y-95941551D01*
X107704910Y-95922831D01*
X107720562Y-95905561D01*
X107737832Y-95889909D01*
X107756552Y-95876025D01*
X107776543Y-95864043D01*
X107797613Y-95854078D01*
X107819557Y-95846226D01*
X107842166Y-95840562D01*
X107865221Y-95837143D01*
X107888500Y-95835999D01*
X108463500Y-95835999D01*
X108486779Y-95837143D01*
X108486779Y-95837143D01*
G37*
D13*
X108176000Y-96310999D03*
G04 #@! TD*
D12*
G04 #@! TO.C,D7*
G36*
X106736779Y-98700809D02*
X106759834Y-98704228D01*
X106782443Y-98709892D01*
X106804387Y-98717744D01*
X106825457Y-98727709D01*
X106845448Y-98739691D01*
X106864168Y-98753575D01*
X106881438Y-98769227D01*
X106897090Y-98786497D01*
X106910974Y-98805217D01*
X106922956Y-98825208D01*
X106932921Y-98846278D01*
X106940773Y-98868222D01*
X106946437Y-98890831D01*
X106949856Y-98913886D01*
X106951000Y-98937165D01*
X106951000Y-99412165D01*
X106949856Y-99435444D01*
X106946437Y-99458499D01*
X106940773Y-99481108D01*
X106932921Y-99503052D01*
X106922956Y-99524122D01*
X106910974Y-99544113D01*
X106897090Y-99562833D01*
X106881438Y-99580103D01*
X106864168Y-99595755D01*
X106845448Y-99609639D01*
X106825457Y-99621621D01*
X106804387Y-99631586D01*
X106782443Y-99639438D01*
X106759834Y-99645102D01*
X106736779Y-99648521D01*
X106713500Y-99649665D01*
X106138500Y-99649665D01*
X106115221Y-99648521D01*
X106092166Y-99645102D01*
X106069557Y-99639438D01*
X106047613Y-99631586D01*
X106026543Y-99621621D01*
X106006552Y-99609639D01*
X105987832Y-99595755D01*
X105970562Y-99580103D01*
X105954910Y-99562833D01*
X105941026Y-99544113D01*
X105929044Y-99524122D01*
X105919079Y-99503052D01*
X105911227Y-99481108D01*
X105905563Y-99458499D01*
X105902144Y-99435444D01*
X105901000Y-99412165D01*
X105901000Y-98937165D01*
X105902144Y-98913886D01*
X105905563Y-98890831D01*
X105911227Y-98868222D01*
X105919079Y-98846278D01*
X105929044Y-98825208D01*
X105941026Y-98805217D01*
X105954910Y-98786497D01*
X105970562Y-98769227D01*
X105987832Y-98753575D01*
X106006552Y-98739691D01*
X106026543Y-98727709D01*
X106047613Y-98717744D01*
X106069557Y-98709892D01*
X106092166Y-98704228D01*
X106115221Y-98700809D01*
X106138500Y-98699665D01*
X106713500Y-98699665D01*
X106736779Y-98700809D01*
X106736779Y-98700809D01*
G37*
D13*
X106426000Y-99174665D03*
D12*
G36*
X108486779Y-98700809D02*
X108509834Y-98704228D01*
X108532443Y-98709892D01*
X108554387Y-98717744D01*
X108575457Y-98727709D01*
X108595448Y-98739691D01*
X108614168Y-98753575D01*
X108631438Y-98769227D01*
X108647090Y-98786497D01*
X108660974Y-98805217D01*
X108672956Y-98825208D01*
X108682921Y-98846278D01*
X108690773Y-98868222D01*
X108696437Y-98890831D01*
X108699856Y-98913886D01*
X108701000Y-98937165D01*
X108701000Y-99412165D01*
X108699856Y-99435444D01*
X108696437Y-99458499D01*
X108690773Y-99481108D01*
X108682921Y-99503052D01*
X108672956Y-99524122D01*
X108660974Y-99544113D01*
X108647090Y-99562833D01*
X108631438Y-99580103D01*
X108614168Y-99595755D01*
X108595448Y-99609639D01*
X108575457Y-99621621D01*
X108554387Y-99631586D01*
X108532443Y-99639438D01*
X108509834Y-99645102D01*
X108486779Y-99648521D01*
X108463500Y-99649665D01*
X107888500Y-99649665D01*
X107865221Y-99648521D01*
X107842166Y-99645102D01*
X107819557Y-99639438D01*
X107797613Y-99631586D01*
X107776543Y-99621621D01*
X107756552Y-99609639D01*
X107737832Y-99595755D01*
X107720562Y-99580103D01*
X107704910Y-99562833D01*
X107691026Y-99544113D01*
X107679044Y-99524122D01*
X107669079Y-99503052D01*
X107661227Y-99481108D01*
X107655563Y-99458499D01*
X107652144Y-99435444D01*
X107651000Y-99412165D01*
X107651000Y-98937165D01*
X107652144Y-98913886D01*
X107655563Y-98890831D01*
X107661227Y-98868222D01*
X107669079Y-98846278D01*
X107679044Y-98825208D01*
X107691026Y-98805217D01*
X107704910Y-98786497D01*
X107720562Y-98769227D01*
X107737832Y-98753575D01*
X107756552Y-98739691D01*
X107776543Y-98727709D01*
X107797613Y-98717744D01*
X107819557Y-98709892D01*
X107842166Y-98704228D01*
X107865221Y-98700809D01*
X107888500Y-98699665D01*
X108463500Y-98699665D01*
X108486779Y-98700809D01*
X108486779Y-98700809D01*
G37*
D13*
X108176000Y-99174665D03*
G04 #@! TD*
D12*
G04 #@! TO.C,D8*
G36*
X106736779Y-101564475D02*
X106759834Y-101567894D01*
X106782443Y-101573558D01*
X106804387Y-101581410D01*
X106825457Y-101591375D01*
X106845448Y-101603357D01*
X106864168Y-101617241D01*
X106881438Y-101632893D01*
X106897090Y-101650163D01*
X106910974Y-101668883D01*
X106922956Y-101688874D01*
X106932921Y-101709944D01*
X106940773Y-101731888D01*
X106946437Y-101754497D01*
X106949856Y-101777552D01*
X106951000Y-101800831D01*
X106951000Y-102275831D01*
X106949856Y-102299110D01*
X106946437Y-102322165D01*
X106940773Y-102344774D01*
X106932921Y-102366718D01*
X106922956Y-102387788D01*
X106910974Y-102407779D01*
X106897090Y-102426499D01*
X106881438Y-102443769D01*
X106864168Y-102459421D01*
X106845448Y-102473305D01*
X106825457Y-102485287D01*
X106804387Y-102495252D01*
X106782443Y-102503104D01*
X106759834Y-102508768D01*
X106736779Y-102512187D01*
X106713500Y-102513331D01*
X106138500Y-102513331D01*
X106115221Y-102512187D01*
X106092166Y-102508768D01*
X106069557Y-102503104D01*
X106047613Y-102495252D01*
X106026543Y-102485287D01*
X106006552Y-102473305D01*
X105987832Y-102459421D01*
X105970562Y-102443769D01*
X105954910Y-102426499D01*
X105941026Y-102407779D01*
X105929044Y-102387788D01*
X105919079Y-102366718D01*
X105911227Y-102344774D01*
X105905563Y-102322165D01*
X105902144Y-102299110D01*
X105901000Y-102275831D01*
X105901000Y-101800831D01*
X105902144Y-101777552D01*
X105905563Y-101754497D01*
X105911227Y-101731888D01*
X105919079Y-101709944D01*
X105929044Y-101688874D01*
X105941026Y-101668883D01*
X105954910Y-101650163D01*
X105970562Y-101632893D01*
X105987832Y-101617241D01*
X106006552Y-101603357D01*
X106026543Y-101591375D01*
X106047613Y-101581410D01*
X106069557Y-101573558D01*
X106092166Y-101567894D01*
X106115221Y-101564475D01*
X106138500Y-101563331D01*
X106713500Y-101563331D01*
X106736779Y-101564475D01*
X106736779Y-101564475D01*
G37*
D13*
X106426000Y-102038331D03*
D12*
G36*
X108486779Y-101564475D02*
X108509834Y-101567894D01*
X108532443Y-101573558D01*
X108554387Y-101581410D01*
X108575457Y-101591375D01*
X108595448Y-101603357D01*
X108614168Y-101617241D01*
X108631438Y-101632893D01*
X108647090Y-101650163D01*
X108660974Y-101668883D01*
X108672956Y-101688874D01*
X108682921Y-101709944D01*
X108690773Y-101731888D01*
X108696437Y-101754497D01*
X108699856Y-101777552D01*
X108701000Y-101800831D01*
X108701000Y-102275831D01*
X108699856Y-102299110D01*
X108696437Y-102322165D01*
X108690773Y-102344774D01*
X108682921Y-102366718D01*
X108672956Y-102387788D01*
X108660974Y-102407779D01*
X108647090Y-102426499D01*
X108631438Y-102443769D01*
X108614168Y-102459421D01*
X108595448Y-102473305D01*
X108575457Y-102485287D01*
X108554387Y-102495252D01*
X108532443Y-102503104D01*
X108509834Y-102508768D01*
X108486779Y-102512187D01*
X108463500Y-102513331D01*
X107888500Y-102513331D01*
X107865221Y-102512187D01*
X107842166Y-102508768D01*
X107819557Y-102503104D01*
X107797613Y-102495252D01*
X107776543Y-102485287D01*
X107756552Y-102473305D01*
X107737832Y-102459421D01*
X107720562Y-102443769D01*
X107704910Y-102426499D01*
X107691026Y-102407779D01*
X107679044Y-102387788D01*
X107669079Y-102366718D01*
X107661227Y-102344774D01*
X107655563Y-102322165D01*
X107652144Y-102299110D01*
X107651000Y-102275831D01*
X107651000Y-101800831D01*
X107652144Y-101777552D01*
X107655563Y-101754497D01*
X107661227Y-101731888D01*
X107669079Y-101709944D01*
X107679044Y-101688874D01*
X107691026Y-101668883D01*
X107704910Y-101650163D01*
X107720562Y-101632893D01*
X107737832Y-101617241D01*
X107756552Y-101603357D01*
X107776543Y-101591375D01*
X107797613Y-101581410D01*
X107819557Y-101573558D01*
X107842166Y-101567894D01*
X107865221Y-101564475D01*
X107888500Y-101563331D01*
X108463500Y-101563331D01*
X108486779Y-101564475D01*
X108486779Y-101564475D01*
G37*
D13*
X108176000Y-102038331D03*
G04 #@! TD*
D12*
G04 #@! TO.C,D9*
G36*
X120085779Y-92871144D02*
X120108834Y-92874563D01*
X120131443Y-92880227D01*
X120153387Y-92888079D01*
X120174457Y-92898044D01*
X120194448Y-92910026D01*
X120213168Y-92923910D01*
X120230438Y-92939562D01*
X120246090Y-92956832D01*
X120259974Y-92975552D01*
X120271956Y-92995543D01*
X120281921Y-93016613D01*
X120289773Y-93038557D01*
X120295437Y-93061166D01*
X120298856Y-93084221D01*
X120300000Y-93107500D01*
X120300000Y-93582500D01*
X120298856Y-93605779D01*
X120295437Y-93628834D01*
X120289773Y-93651443D01*
X120281921Y-93673387D01*
X120271956Y-93694457D01*
X120259974Y-93714448D01*
X120246090Y-93733168D01*
X120230438Y-93750438D01*
X120213168Y-93766090D01*
X120194448Y-93779974D01*
X120174457Y-93791956D01*
X120153387Y-93801921D01*
X120131443Y-93809773D01*
X120108834Y-93815437D01*
X120085779Y-93818856D01*
X120062500Y-93820000D01*
X119487500Y-93820000D01*
X119464221Y-93818856D01*
X119441166Y-93815437D01*
X119418557Y-93809773D01*
X119396613Y-93801921D01*
X119375543Y-93791956D01*
X119355552Y-93779974D01*
X119336832Y-93766090D01*
X119319562Y-93750438D01*
X119303910Y-93733168D01*
X119290026Y-93714448D01*
X119278044Y-93694457D01*
X119268079Y-93673387D01*
X119260227Y-93651443D01*
X119254563Y-93628834D01*
X119251144Y-93605779D01*
X119250000Y-93582500D01*
X119250000Y-93107500D01*
X119251144Y-93084221D01*
X119254563Y-93061166D01*
X119260227Y-93038557D01*
X119268079Y-93016613D01*
X119278044Y-92995543D01*
X119290026Y-92975552D01*
X119303910Y-92956832D01*
X119319562Y-92939562D01*
X119336832Y-92923910D01*
X119355552Y-92910026D01*
X119375543Y-92898044D01*
X119396613Y-92888079D01*
X119418557Y-92880227D01*
X119441166Y-92874563D01*
X119464221Y-92871144D01*
X119487500Y-92870000D01*
X120062500Y-92870000D01*
X120085779Y-92871144D01*
X120085779Y-92871144D01*
G37*
D13*
X119775000Y-93345000D03*
D12*
G36*
X121835779Y-92871144D02*
X121858834Y-92874563D01*
X121881443Y-92880227D01*
X121903387Y-92888079D01*
X121924457Y-92898044D01*
X121944448Y-92910026D01*
X121963168Y-92923910D01*
X121980438Y-92939562D01*
X121996090Y-92956832D01*
X122009974Y-92975552D01*
X122021956Y-92995543D01*
X122031921Y-93016613D01*
X122039773Y-93038557D01*
X122045437Y-93061166D01*
X122048856Y-93084221D01*
X122050000Y-93107500D01*
X122050000Y-93582500D01*
X122048856Y-93605779D01*
X122045437Y-93628834D01*
X122039773Y-93651443D01*
X122031921Y-93673387D01*
X122021956Y-93694457D01*
X122009974Y-93714448D01*
X121996090Y-93733168D01*
X121980438Y-93750438D01*
X121963168Y-93766090D01*
X121944448Y-93779974D01*
X121924457Y-93791956D01*
X121903387Y-93801921D01*
X121881443Y-93809773D01*
X121858834Y-93815437D01*
X121835779Y-93818856D01*
X121812500Y-93820000D01*
X121237500Y-93820000D01*
X121214221Y-93818856D01*
X121191166Y-93815437D01*
X121168557Y-93809773D01*
X121146613Y-93801921D01*
X121125543Y-93791956D01*
X121105552Y-93779974D01*
X121086832Y-93766090D01*
X121069562Y-93750438D01*
X121053910Y-93733168D01*
X121040026Y-93714448D01*
X121028044Y-93694457D01*
X121018079Y-93673387D01*
X121010227Y-93651443D01*
X121004563Y-93628834D01*
X121001144Y-93605779D01*
X121000000Y-93582500D01*
X121000000Y-93107500D01*
X121001144Y-93084221D01*
X121004563Y-93061166D01*
X121010227Y-93038557D01*
X121018079Y-93016613D01*
X121028044Y-92995543D01*
X121040026Y-92975552D01*
X121053910Y-92956832D01*
X121069562Y-92939562D01*
X121086832Y-92923910D01*
X121105552Y-92910026D01*
X121125543Y-92898044D01*
X121146613Y-92888079D01*
X121168557Y-92880227D01*
X121191166Y-92874563D01*
X121214221Y-92871144D01*
X121237500Y-92870000D01*
X121812500Y-92870000D01*
X121835779Y-92871144D01*
X121835779Y-92871144D01*
G37*
D13*
X121525000Y-93345000D03*
G04 #@! TD*
D12*
G04 #@! TO.C,D10*
G36*
X120085779Y-95754044D02*
X120108834Y-95757463D01*
X120131443Y-95763127D01*
X120153387Y-95770979D01*
X120174457Y-95780944D01*
X120194448Y-95792926D01*
X120213168Y-95806810D01*
X120230438Y-95822462D01*
X120246090Y-95839732D01*
X120259974Y-95858452D01*
X120271956Y-95878443D01*
X120281921Y-95899513D01*
X120289773Y-95921457D01*
X120295437Y-95944066D01*
X120298856Y-95967121D01*
X120300000Y-95990400D01*
X120300000Y-96465400D01*
X120298856Y-96488679D01*
X120295437Y-96511734D01*
X120289773Y-96534343D01*
X120281921Y-96556287D01*
X120271956Y-96577357D01*
X120259974Y-96597348D01*
X120246090Y-96616068D01*
X120230438Y-96633338D01*
X120213168Y-96648990D01*
X120194448Y-96662874D01*
X120174457Y-96674856D01*
X120153387Y-96684821D01*
X120131443Y-96692673D01*
X120108834Y-96698337D01*
X120085779Y-96701756D01*
X120062500Y-96702900D01*
X119487500Y-96702900D01*
X119464221Y-96701756D01*
X119441166Y-96698337D01*
X119418557Y-96692673D01*
X119396613Y-96684821D01*
X119375543Y-96674856D01*
X119355552Y-96662874D01*
X119336832Y-96648990D01*
X119319562Y-96633338D01*
X119303910Y-96616068D01*
X119290026Y-96597348D01*
X119278044Y-96577357D01*
X119268079Y-96556287D01*
X119260227Y-96534343D01*
X119254563Y-96511734D01*
X119251144Y-96488679D01*
X119250000Y-96465400D01*
X119250000Y-95990400D01*
X119251144Y-95967121D01*
X119254563Y-95944066D01*
X119260227Y-95921457D01*
X119268079Y-95899513D01*
X119278044Y-95878443D01*
X119290026Y-95858452D01*
X119303910Y-95839732D01*
X119319562Y-95822462D01*
X119336832Y-95806810D01*
X119355552Y-95792926D01*
X119375543Y-95780944D01*
X119396613Y-95770979D01*
X119418557Y-95763127D01*
X119441166Y-95757463D01*
X119464221Y-95754044D01*
X119487500Y-95752900D01*
X120062500Y-95752900D01*
X120085779Y-95754044D01*
X120085779Y-95754044D01*
G37*
D13*
X119775000Y-96227900D03*
D12*
G36*
X121835779Y-95754044D02*
X121858834Y-95757463D01*
X121881443Y-95763127D01*
X121903387Y-95770979D01*
X121924457Y-95780944D01*
X121944448Y-95792926D01*
X121963168Y-95806810D01*
X121980438Y-95822462D01*
X121996090Y-95839732D01*
X122009974Y-95858452D01*
X122021956Y-95878443D01*
X122031921Y-95899513D01*
X122039773Y-95921457D01*
X122045437Y-95944066D01*
X122048856Y-95967121D01*
X122050000Y-95990400D01*
X122050000Y-96465400D01*
X122048856Y-96488679D01*
X122045437Y-96511734D01*
X122039773Y-96534343D01*
X122031921Y-96556287D01*
X122021956Y-96577357D01*
X122009974Y-96597348D01*
X121996090Y-96616068D01*
X121980438Y-96633338D01*
X121963168Y-96648990D01*
X121944448Y-96662874D01*
X121924457Y-96674856D01*
X121903387Y-96684821D01*
X121881443Y-96692673D01*
X121858834Y-96698337D01*
X121835779Y-96701756D01*
X121812500Y-96702900D01*
X121237500Y-96702900D01*
X121214221Y-96701756D01*
X121191166Y-96698337D01*
X121168557Y-96692673D01*
X121146613Y-96684821D01*
X121125543Y-96674856D01*
X121105552Y-96662874D01*
X121086832Y-96648990D01*
X121069562Y-96633338D01*
X121053910Y-96616068D01*
X121040026Y-96597348D01*
X121028044Y-96577357D01*
X121018079Y-96556287D01*
X121010227Y-96534343D01*
X121004563Y-96511734D01*
X121001144Y-96488679D01*
X121000000Y-96465400D01*
X121000000Y-95990400D01*
X121001144Y-95967121D01*
X121004563Y-95944066D01*
X121010227Y-95921457D01*
X121018079Y-95899513D01*
X121028044Y-95878443D01*
X121040026Y-95858452D01*
X121053910Y-95839732D01*
X121069562Y-95822462D01*
X121086832Y-95806810D01*
X121105552Y-95792926D01*
X121125543Y-95780944D01*
X121146613Y-95770979D01*
X121168557Y-95763127D01*
X121191166Y-95757463D01*
X121214221Y-95754044D01*
X121237500Y-95752900D01*
X121812500Y-95752900D01*
X121835779Y-95754044D01*
X121835779Y-95754044D01*
G37*
D13*
X121525000Y-96227900D03*
G04 #@! TD*
D12*
G04 #@! TO.C,D11*
G36*
X120085779Y-98649644D02*
X120108834Y-98653063D01*
X120131443Y-98658727D01*
X120153387Y-98666579D01*
X120174457Y-98676544D01*
X120194448Y-98688526D01*
X120213168Y-98702410D01*
X120230438Y-98718062D01*
X120246090Y-98735332D01*
X120259974Y-98754052D01*
X120271956Y-98774043D01*
X120281921Y-98795113D01*
X120289773Y-98817057D01*
X120295437Y-98839666D01*
X120298856Y-98862721D01*
X120300000Y-98886000D01*
X120300000Y-99361000D01*
X120298856Y-99384279D01*
X120295437Y-99407334D01*
X120289773Y-99429943D01*
X120281921Y-99451887D01*
X120271956Y-99472957D01*
X120259974Y-99492948D01*
X120246090Y-99511668D01*
X120230438Y-99528938D01*
X120213168Y-99544590D01*
X120194448Y-99558474D01*
X120174457Y-99570456D01*
X120153387Y-99580421D01*
X120131443Y-99588273D01*
X120108834Y-99593937D01*
X120085779Y-99597356D01*
X120062500Y-99598500D01*
X119487500Y-99598500D01*
X119464221Y-99597356D01*
X119441166Y-99593937D01*
X119418557Y-99588273D01*
X119396613Y-99580421D01*
X119375543Y-99570456D01*
X119355552Y-99558474D01*
X119336832Y-99544590D01*
X119319562Y-99528938D01*
X119303910Y-99511668D01*
X119290026Y-99492948D01*
X119278044Y-99472957D01*
X119268079Y-99451887D01*
X119260227Y-99429943D01*
X119254563Y-99407334D01*
X119251144Y-99384279D01*
X119250000Y-99361000D01*
X119250000Y-98886000D01*
X119251144Y-98862721D01*
X119254563Y-98839666D01*
X119260227Y-98817057D01*
X119268079Y-98795113D01*
X119278044Y-98774043D01*
X119290026Y-98754052D01*
X119303910Y-98735332D01*
X119319562Y-98718062D01*
X119336832Y-98702410D01*
X119355552Y-98688526D01*
X119375543Y-98676544D01*
X119396613Y-98666579D01*
X119418557Y-98658727D01*
X119441166Y-98653063D01*
X119464221Y-98649644D01*
X119487500Y-98648500D01*
X120062500Y-98648500D01*
X120085779Y-98649644D01*
X120085779Y-98649644D01*
G37*
D13*
X119775000Y-99123500D03*
D12*
G36*
X121835779Y-98649644D02*
X121858834Y-98653063D01*
X121881443Y-98658727D01*
X121903387Y-98666579D01*
X121924457Y-98676544D01*
X121944448Y-98688526D01*
X121963168Y-98702410D01*
X121980438Y-98718062D01*
X121996090Y-98735332D01*
X122009974Y-98754052D01*
X122021956Y-98774043D01*
X122031921Y-98795113D01*
X122039773Y-98817057D01*
X122045437Y-98839666D01*
X122048856Y-98862721D01*
X122050000Y-98886000D01*
X122050000Y-99361000D01*
X122048856Y-99384279D01*
X122045437Y-99407334D01*
X122039773Y-99429943D01*
X122031921Y-99451887D01*
X122021956Y-99472957D01*
X122009974Y-99492948D01*
X121996090Y-99511668D01*
X121980438Y-99528938D01*
X121963168Y-99544590D01*
X121944448Y-99558474D01*
X121924457Y-99570456D01*
X121903387Y-99580421D01*
X121881443Y-99588273D01*
X121858834Y-99593937D01*
X121835779Y-99597356D01*
X121812500Y-99598500D01*
X121237500Y-99598500D01*
X121214221Y-99597356D01*
X121191166Y-99593937D01*
X121168557Y-99588273D01*
X121146613Y-99580421D01*
X121125543Y-99570456D01*
X121105552Y-99558474D01*
X121086832Y-99544590D01*
X121069562Y-99528938D01*
X121053910Y-99511668D01*
X121040026Y-99492948D01*
X121028044Y-99472957D01*
X121018079Y-99451887D01*
X121010227Y-99429943D01*
X121004563Y-99407334D01*
X121001144Y-99384279D01*
X121000000Y-99361000D01*
X121000000Y-98886000D01*
X121001144Y-98862721D01*
X121004563Y-98839666D01*
X121010227Y-98817057D01*
X121018079Y-98795113D01*
X121028044Y-98774043D01*
X121040026Y-98754052D01*
X121053910Y-98735332D01*
X121069562Y-98718062D01*
X121086832Y-98702410D01*
X121105552Y-98688526D01*
X121125543Y-98676544D01*
X121146613Y-98666579D01*
X121168557Y-98658727D01*
X121191166Y-98653063D01*
X121214221Y-98649644D01*
X121237500Y-98648500D01*
X121812500Y-98648500D01*
X121835779Y-98649644D01*
X121835779Y-98649644D01*
G37*
D13*
X121525000Y-99123500D03*
G04 #@! TD*
D12*
G04 #@! TO.C,D12*
G36*
X120085779Y-101545244D02*
X120108834Y-101548663D01*
X120131443Y-101554327D01*
X120153387Y-101562179D01*
X120174457Y-101572144D01*
X120194448Y-101584126D01*
X120213168Y-101598010D01*
X120230438Y-101613662D01*
X120246090Y-101630932D01*
X120259974Y-101649652D01*
X120271956Y-101669643D01*
X120281921Y-101690713D01*
X120289773Y-101712657D01*
X120295437Y-101735266D01*
X120298856Y-101758321D01*
X120300000Y-101781600D01*
X120300000Y-102256600D01*
X120298856Y-102279879D01*
X120295437Y-102302934D01*
X120289773Y-102325543D01*
X120281921Y-102347487D01*
X120271956Y-102368557D01*
X120259974Y-102388548D01*
X120246090Y-102407268D01*
X120230438Y-102424538D01*
X120213168Y-102440190D01*
X120194448Y-102454074D01*
X120174457Y-102466056D01*
X120153387Y-102476021D01*
X120131443Y-102483873D01*
X120108834Y-102489537D01*
X120085779Y-102492956D01*
X120062500Y-102494100D01*
X119487500Y-102494100D01*
X119464221Y-102492956D01*
X119441166Y-102489537D01*
X119418557Y-102483873D01*
X119396613Y-102476021D01*
X119375543Y-102466056D01*
X119355552Y-102454074D01*
X119336832Y-102440190D01*
X119319562Y-102424538D01*
X119303910Y-102407268D01*
X119290026Y-102388548D01*
X119278044Y-102368557D01*
X119268079Y-102347487D01*
X119260227Y-102325543D01*
X119254563Y-102302934D01*
X119251144Y-102279879D01*
X119250000Y-102256600D01*
X119250000Y-101781600D01*
X119251144Y-101758321D01*
X119254563Y-101735266D01*
X119260227Y-101712657D01*
X119268079Y-101690713D01*
X119278044Y-101669643D01*
X119290026Y-101649652D01*
X119303910Y-101630932D01*
X119319562Y-101613662D01*
X119336832Y-101598010D01*
X119355552Y-101584126D01*
X119375543Y-101572144D01*
X119396613Y-101562179D01*
X119418557Y-101554327D01*
X119441166Y-101548663D01*
X119464221Y-101545244D01*
X119487500Y-101544100D01*
X120062500Y-101544100D01*
X120085779Y-101545244D01*
X120085779Y-101545244D01*
G37*
D13*
X119775000Y-102019100D03*
D12*
G36*
X121835779Y-101545244D02*
X121858834Y-101548663D01*
X121881443Y-101554327D01*
X121903387Y-101562179D01*
X121924457Y-101572144D01*
X121944448Y-101584126D01*
X121963168Y-101598010D01*
X121980438Y-101613662D01*
X121996090Y-101630932D01*
X122009974Y-101649652D01*
X122021956Y-101669643D01*
X122031921Y-101690713D01*
X122039773Y-101712657D01*
X122045437Y-101735266D01*
X122048856Y-101758321D01*
X122050000Y-101781600D01*
X122050000Y-102256600D01*
X122048856Y-102279879D01*
X122045437Y-102302934D01*
X122039773Y-102325543D01*
X122031921Y-102347487D01*
X122021956Y-102368557D01*
X122009974Y-102388548D01*
X121996090Y-102407268D01*
X121980438Y-102424538D01*
X121963168Y-102440190D01*
X121944448Y-102454074D01*
X121924457Y-102466056D01*
X121903387Y-102476021D01*
X121881443Y-102483873D01*
X121858834Y-102489537D01*
X121835779Y-102492956D01*
X121812500Y-102494100D01*
X121237500Y-102494100D01*
X121214221Y-102492956D01*
X121191166Y-102489537D01*
X121168557Y-102483873D01*
X121146613Y-102476021D01*
X121125543Y-102466056D01*
X121105552Y-102454074D01*
X121086832Y-102440190D01*
X121069562Y-102424538D01*
X121053910Y-102407268D01*
X121040026Y-102388548D01*
X121028044Y-102368557D01*
X121018079Y-102347487D01*
X121010227Y-102325543D01*
X121004563Y-102302934D01*
X121001144Y-102279879D01*
X121000000Y-102256600D01*
X121000000Y-101781600D01*
X121001144Y-101758321D01*
X121004563Y-101735266D01*
X121010227Y-101712657D01*
X121018079Y-101690713D01*
X121028044Y-101669643D01*
X121040026Y-101649652D01*
X121053910Y-101630932D01*
X121069562Y-101613662D01*
X121086832Y-101598010D01*
X121105552Y-101584126D01*
X121125543Y-101572144D01*
X121146613Y-101562179D01*
X121168557Y-101554327D01*
X121191166Y-101548663D01*
X121214221Y-101545244D01*
X121237500Y-101544100D01*
X121812500Y-101544100D01*
X121835779Y-101545244D01*
X121835779Y-101545244D01*
G37*
D13*
X121525000Y-102019100D03*
G04 #@! TD*
D12*
G04 #@! TO.C,R1*
G36*
X102404779Y-104428144D02*
X102427834Y-104431563D01*
X102450443Y-104437227D01*
X102472387Y-104445079D01*
X102493457Y-104455044D01*
X102513448Y-104467026D01*
X102532168Y-104480910D01*
X102549438Y-104496562D01*
X102565090Y-104513832D01*
X102578974Y-104532552D01*
X102590956Y-104552543D01*
X102600921Y-104573613D01*
X102608773Y-104595557D01*
X102614437Y-104618166D01*
X102617856Y-104641221D01*
X102619000Y-104664500D01*
X102619000Y-105139500D01*
X102617856Y-105162779D01*
X102614437Y-105185834D01*
X102608773Y-105208443D01*
X102600921Y-105230387D01*
X102590956Y-105251457D01*
X102578974Y-105271448D01*
X102565090Y-105290168D01*
X102549438Y-105307438D01*
X102532168Y-105323090D01*
X102513448Y-105336974D01*
X102493457Y-105348956D01*
X102472387Y-105358921D01*
X102450443Y-105366773D01*
X102427834Y-105372437D01*
X102404779Y-105375856D01*
X102381500Y-105377000D01*
X101806500Y-105377000D01*
X101783221Y-105375856D01*
X101760166Y-105372437D01*
X101737557Y-105366773D01*
X101715613Y-105358921D01*
X101694543Y-105348956D01*
X101674552Y-105336974D01*
X101655832Y-105323090D01*
X101638562Y-105307438D01*
X101622910Y-105290168D01*
X101609026Y-105271448D01*
X101597044Y-105251457D01*
X101587079Y-105230387D01*
X101579227Y-105208443D01*
X101573563Y-105185834D01*
X101570144Y-105162779D01*
X101569000Y-105139500D01*
X101569000Y-104664500D01*
X101570144Y-104641221D01*
X101573563Y-104618166D01*
X101579227Y-104595557D01*
X101587079Y-104573613D01*
X101597044Y-104552543D01*
X101609026Y-104532552D01*
X101622910Y-104513832D01*
X101638562Y-104496562D01*
X101655832Y-104480910D01*
X101674552Y-104467026D01*
X101694543Y-104455044D01*
X101715613Y-104445079D01*
X101737557Y-104437227D01*
X101760166Y-104431563D01*
X101783221Y-104428144D01*
X101806500Y-104427000D01*
X102381500Y-104427000D01*
X102404779Y-104428144D01*
X102404779Y-104428144D01*
G37*
D13*
X102094000Y-104902000D03*
D12*
G36*
X100654779Y-104428144D02*
X100677834Y-104431563D01*
X100700443Y-104437227D01*
X100722387Y-104445079D01*
X100743457Y-104455044D01*
X100763448Y-104467026D01*
X100782168Y-104480910D01*
X100799438Y-104496562D01*
X100815090Y-104513832D01*
X100828974Y-104532552D01*
X100840956Y-104552543D01*
X100850921Y-104573613D01*
X100858773Y-104595557D01*
X100864437Y-104618166D01*
X100867856Y-104641221D01*
X100869000Y-104664500D01*
X100869000Y-105139500D01*
X100867856Y-105162779D01*
X100864437Y-105185834D01*
X100858773Y-105208443D01*
X100850921Y-105230387D01*
X100840956Y-105251457D01*
X100828974Y-105271448D01*
X100815090Y-105290168D01*
X100799438Y-105307438D01*
X100782168Y-105323090D01*
X100763448Y-105336974D01*
X100743457Y-105348956D01*
X100722387Y-105358921D01*
X100700443Y-105366773D01*
X100677834Y-105372437D01*
X100654779Y-105375856D01*
X100631500Y-105377000D01*
X100056500Y-105377000D01*
X100033221Y-105375856D01*
X100010166Y-105372437D01*
X99987557Y-105366773D01*
X99965613Y-105358921D01*
X99944543Y-105348956D01*
X99924552Y-105336974D01*
X99905832Y-105323090D01*
X99888562Y-105307438D01*
X99872910Y-105290168D01*
X99859026Y-105271448D01*
X99847044Y-105251457D01*
X99837079Y-105230387D01*
X99829227Y-105208443D01*
X99823563Y-105185834D01*
X99820144Y-105162779D01*
X99819000Y-105139500D01*
X99819000Y-104664500D01*
X99820144Y-104641221D01*
X99823563Y-104618166D01*
X99829227Y-104595557D01*
X99837079Y-104573613D01*
X99847044Y-104552543D01*
X99859026Y-104532552D01*
X99872910Y-104513832D01*
X99888562Y-104496562D01*
X99905832Y-104480910D01*
X99924552Y-104467026D01*
X99944543Y-104455044D01*
X99965613Y-104445079D01*
X99987557Y-104437227D01*
X100010166Y-104431563D01*
X100033221Y-104428144D01*
X100056500Y-104427000D01*
X100631500Y-104427000D01*
X100654779Y-104428144D01*
X100654779Y-104428144D01*
G37*
D13*
X100344000Y-104902000D03*
G04 #@! TD*
D12*
G04 #@! TO.C,R2*
G36*
X115739779Y-104428144D02*
X115762834Y-104431563D01*
X115785443Y-104437227D01*
X115807387Y-104445079D01*
X115828457Y-104455044D01*
X115848448Y-104467026D01*
X115867168Y-104480910D01*
X115884438Y-104496562D01*
X115900090Y-104513832D01*
X115913974Y-104532552D01*
X115925956Y-104552543D01*
X115935921Y-104573613D01*
X115943773Y-104595557D01*
X115949437Y-104618166D01*
X115952856Y-104641221D01*
X115954000Y-104664500D01*
X115954000Y-105139500D01*
X115952856Y-105162779D01*
X115949437Y-105185834D01*
X115943773Y-105208443D01*
X115935921Y-105230387D01*
X115925956Y-105251457D01*
X115913974Y-105271448D01*
X115900090Y-105290168D01*
X115884438Y-105307438D01*
X115867168Y-105323090D01*
X115848448Y-105336974D01*
X115828457Y-105348956D01*
X115807387Y-105358921D01*
X115785443Y-105366773D01*
X115762834Y-105372437D01*
X115739779Y-105375856D01*
X115716500Y-105377000D01*
X115141500Y-105377000D01*
X115118221Y-105375856D01*
X115095166Y-105372437D01*
X115072557Y-105366773D01*
X115050613Y-105358921D01*
X115029543Y-105348956D01*
X115009552Y-105336974D01*
X114990832Y-105323090D01*
X114973562Y-105307438D01*
X114957910Y-105290168D01*
X114944026Y-105271448D01*
X114932044Y-105251457D01*
X114922079Y-105230387D01*
X114914227Y-105208443D01*
X114908563Y-105185834D01*
X114905144Y-105162779D01*
X114904000Y-105139500D01*
X114904000Y-104664500D01*
X114905144Y-104641221D01*
X114908563Y-104618166D01*
X114914227Y-104595557D01*
X114922079Y-104573613D01*
X114932044Y-104552543D01*
X114944026Y-104532552D01*
X114957910Y-104513832D01*
X114973562Y-104496562D01*
X114990832Y-104480910D01*
X115009552Y-104467026D01*
X115029543Y-104455044D01*
X115050613Y-104445079D01*
X115072557Y-104437227D01*
X115095166Y-104431563D01*
X115118221Y-104428144D01*
X115141500Y-104427000D01*
X115716500Y-104427000D01*
X115739779Y-104428144D01*
X115739779Y-104428144D01*
G37*
D13*
X115429000Y-104902000D03*
D12*
G36*
X113989779Y-104428144D02*
X114012834Y-104431563D01*
X114035443Y-104437227D01*
X114057387Y-104445079D01*
X114078457Y-104455044D01*
X114098448Y-104467026D01*
X114117168Y-104480910D01*
X114134438Y-104496562D01*
X114150090Y-104513832D01*
X114163974Y-104532552D01*
X114175956Y-104552543D01*
X114185921Y-104573613D01*
X114193773Y-104595557D01*
X114199437Y-104618166D01*
X114202856Y-104641221D01*
X114204000Y-104664500D01*
X114204000Y-105139500D01*
X114202856Y-105162779D01*
X114199437Y-105185834D01*
X114193773Y-105208443D01*
X114185921Y-105230387D01*
X114175956Y-105251457D01*
X114163974Y-105271448D01*
X114150090Y-105290168D01*
X114134438Y-105307438D01*
X114117168Y-105323090D01*
X114098448Y-105336974D01*
X114078457Y-105348956D01*
X114057387Y-105358921D01*
X114035443Y-105366773D01*
X114012834Y-105372437D01*
X113989779Y-105375856D01*
X113966500Y-105377000D01*
X113391500Y-105377000D01*
X113368221Y-105375856D01*
X113345166Y-105372437D01*
X113322557Y-105366773D01*
X113300613Y-105358921D01*
X113279543Y-105348956D01*
X113259552Y-105336974D01*
X113240832Y-105323090D01*
X113223562Y-105307438D01*
X113207910Y-105290168D01*
X113194026Y-105271448D01*
X113182044Y-105251457D01*
X113172079Y-105230387D01*
X113164227Y-105208443D01*
X113158563Y-105185834D01*
X113155144Y-105162779D01*
X113154000Y-105139500D01*
X113154000Y-104664500D01*
X113155144Y-104641221D01*
X113158563Y-104618166D01*
X113164227Y-104595557D01*
X113172079Y-104573613D01*
X113182044Y-104552543D01*
X113194026Y-104532552D01*
X113207910Y-104513832D01*
X113223562Y-104496562D01*
X113240832Y-104480910D01*
X113259552Y-104467026D01*
X113279543Y-104455044D01*
X113300613Y-104445079D01*
X113322557Y-104437227D01*
X113345166Y-104431563D01*
X113368221Y-104428144D01*
X113391500Y-104427000D01*
X113966500Y-104427000D01*
X113989779Y-104428144D01*
X113989779Y-104428144D01*
G37*
D13*
X113679000Y-104902000D03*
G04 #@! TD*
D12*
G04 #@! TO.C,R3*
G36*
X102404779Y-92972744D02*
X102427834Y-92976163D01*
X102450443Y-92981827D01*
X102472387Y-92989679D01*
X102493457Y-92999644D01*
X102513448Y-93011626D01*
X102532168Y-93025510D01*
X102549438Y-93041162D01*
X102565090Y-93058432D01*
X102578974Y-93077152D01*
X102590956Y-93097143D01*
X102600921Y-93118213D01*
X102608773Y-93140157D01*
X102614437Y-93162766D01*
X102617856Y-93185821D01*
X102619000Y-93209100D01*
X102619000Y-93684100D01*
X102617856Y-93707379D01*
X102614437Y-93730434D01*
X102608773Y-93753043D01*
X102600921Y-93774987D01*
X102590956Y-93796057D01*
X102578974Y-93816048D01*
X102565090Y-93834768D01*
X102549438Y-93852038D01*
X102532168Y-93867690D01*
X102513448Y-93881574D01*
X102493457Y-93893556D01*
X102472387Y-93903521D01*
X102450443Y-93911373D01*
X102427834Y-93917037D01*
X102404779Y-93920456D01*
X102381500Y-93921600D01*
X101806500Y-93921600D01*
X101783221Y-93920456D01*
X101760166Y-93917037D01*
X101737557Y-93911373D01*
X101715613Y-93903521D01*
X101694543Y-93893556D01*
X101674552Y-93881574D01*
X101655832Y-93867690D01*
X101638562Y-93852038D01*
X101622910Y-93834768D01*
X101609026Y-93816048D01*
X101597044Y-93796057D01*
X101587079Y-93774987D01*
X101579227Y-93753043D01*
X101573563Y-93730434D01*
X101570144Y-93707379D01*
X101569000Y-93684100D01*
X101569000Y-93209100D01*
X101570144Y-93185821D01*
X101573563Y-93162766D01*
X101579227Y-93140157D01*
X101587079Y-93118213D01*
X101597044Y-93097143D01*
X101609026Y-93077152D01*
X101622910Y-93058432D01*
X101638562Y-93041162D01*
X101655832Y-93025510D01*
X101674552Y-93011626D01*
X101694543Y-92999644D01*
X101715613Y-92989679D01*
X101737557Y-92981827D01*
X101760166Y-92976163D01*
X101783221Y-92972744D01*
X101806500Y-92971600D01*
X102381500Y-92971600D01*
X102404779Y-92972744D01*
X102404779Y-92972744D01*
G37*
D13*
X102094000Y-93446600D03*
D12*
G36*
X100654779Y-92972744D02*
X100677834Y-92976163D01*
X100700443Y-92981827D01*
X100722387Y-92989679D01*
X100743457Y-92999644D01*
X100763448Y-93011626D01*
X100782168Y-93025510D01*
X100799438Y-93041162D01*
X100815090Y-93058432D01*
X100828974Y-93077152D01*
X100840956Y-93097143D01*
X100850921Y-93118213D01*
X100858773Y-93140157D01*
X100864437Y-93162766D01*
X100867856Y-93185821D01*
X100869000Y-93209100D01*
X100869000Y-93684100D01*
X100867856Y-93707379D01*
X100864437Y-93730434D01*
X100858773Y-93753043D01*
X100850921Y-93774987D01*
X100840956Y-93796057D01*
X100828974Y-93816048D01*
X100815090Y-93834768D01*
X100799438Y-93852038D01*
X100782168Y-93867690D01*
X100763448Y-93881574D01*
X100743457Y-93893556D01*
X100722387Y-93903521D01*
X100700443Y-93911373D01*
X100677834Y-93917037D01*
X100654779Y-93920456D01*
X100631500Y-93921600D01*
X100056500Y-93921600D01*
X100033221Y-93920456D01*
X100010166Y-93917037D01*
X99987557Y-93911373D01*
X99965613Y-93903521D01*
X99944543Y-93893556D01*
X99924552Y-93881574D01*
X99905832Y-93867690D01*
X99888562Y-93852038D01*
X99872910Y-93834768D01*
X99859026Y-93816048D01*
X99847044Y-93796057D01*
X99837079Y-93774987D01*
X99829227Y-93753043D01*
X99823563Y-93730434D01*
X99820144Y-93707379D01*
X99819000Y-93684100D01*
X99819000Y-93209100D01*
X99820144Y-93185821D01*
X99823563Y-93162766D01*
X99829227Y-93140157D01*
X99837079Y-93118213D01*
X99847044Y-93097143D01*
X99859026Y-93077152D01*
X99872910Y-93058432D01*
X99888562Y-93041162D01*
X99905832Y-93025510D01*
X99924552Y-93011626D01*
X99944543Y-92999644D01*
X99965613Y-92989679D01*
X99987557Y-92981827D01*
X100010166Y-92976163D01*
X100033221Y-92972744D01*
X100056500Y-92971600D01*
X100631500Y-92971600D01*
X100654779Y-92972744D01*
X100654779Y-92972744D01*
G37*
D13*
X100344000Y-93446600D03*
G04 #@! TD*
D12*
G04 #@! TO.C,R4*
G36*
X102418779Y-95836594D02*
X102441834Y-95840013D01*
X102464443Y-95845677D01*
X102486387Y-95853529D01*
X102507457Y-95863494D01*
X102527448Y-95875476D01*
X102546168Y-95889360D01*
X102563438Y-95905012D01*
X102579090Y-95922282D01*
X102592974Y-95941002D01*
X102604956Y-95960993D01*
X102614921Y-95982063D01*
X102622773Y-96004007D01*
X102628437Y-96026616D01*
X102631856Y-96049671D01*
X102633000Y-96072950D01*
X102633000Y-96547950D01*
X102631856Y-96571229D01*
X102628437Y-96594284D01*
X102622773Y-96616893D01*
X102614921Y-96638837D01*
X102604956Y-96659907D01*
X102592974Y-96679898D01*
X102579090Y-96698618D01*
X102563438Y-96715888D01*
X102546168Y-96731540D01*
X102527448Y-96745424D01*
X102507457Y-96757406D01*
X102486387Y-96767371D01*
X102464443Y-96775223D01*
X102441834Y-96780887D01*
X102418779Y-96784306D01*
X102395500Y-96785450D01*
X101820500Y-96785450D01*
X101797221Y-96784306D01*
X101774166Y-96780887D01*
X101751557Y-96775223D01*
X101729613Y-96767371D01*
X101708543Y-96757406D01*
X101688552Y-96745424D01*
X101669832Y-96731540D01*
X101652562Y-96715888D01*
X101636910Y-96698618D01*
X101623026Y-96679898D01*
X101611044Y-96659907D01*
X101601079Y-96638837D01*
X101593227Y-96616893D01*
X101587563Y-96594284D01*
X101584144Y-96571229D01*
X101583000Y-96547950D01*
X101583000Y-96072950D01*
X101584144Y-96049671D01*
X101587563Y-96026616D01*
X101593227Y-96004007D01*
X101601079Y-95982063D01*
X101611044Y-95960993D01*
X101623026Y-95941002D01*
X101636910Y-95922282D01*
X101652562Y-95905012D01*
X101669832Y-95889360D01*
X101688552Y-95875476D01*
X101708543Y-95863494D01*
X101729613Y-95853529D01*
X101751557Y-95845677D01*
X101774166Y-95840013D01*
X101797221Y-95836594D01*
X101820500Y-95835450D01*
X102395500Y-95835450D01*
X102418779Y-95836594D01*
X102418779Y-95836594D01*
G37*
D13*
X102108000Y-96310450D03*
D12*
G36*
X100668779Y-95836594D02*
X100691834Y-95840013D01*
X100714443Y-95845677D01*
X100736387Y-95853529D01*
X100757457Y-95863494D01*
X100777448Y-95875476D01*
X100796168Y-95889360D01*
X100813438Y-95905012D01*
X100829090Y-95922282D01*
X100842974Y-95941002D01*
X100854956Y-95960993D01*
X100864921Y-95982063D01*
X100872773Y-96004007D01*
X100878437Y-96026616D01*
X100881856Y-96049671D01*
X100883000Y-96072950D01*
X100883000Y-96547950D01*
X100881856Y-96571229D01*
X100878437Y-96594284D01*
X100872773Y-96616893D01*
X100864921Y-96638837D01*
X100854956Y-96659907D01*
X100842974Y-96679898D01*
X100829090Y-96698618D01*
X100813438Y-96715888D01*
X100796168Y-96731540D01*
X100777448Y-96745424D01*
X100757457Y-96757406D01*
X100736387Y-96767371D01*
X100714443Y-96775223D01*
X100691834Y-96780887D01*
X100668779Y-96784306D01*
X100645500Y-96785450D01*
X100070500Y-96785450D01*
X100047221Y-96784306D01*
X100024166Y-96780887D01*
X100001557Y-96775223D01*
X99979613Y-96767371D01*
X99958543Y-96757406D01*
X99938552Y-96745424D01*
X99919832Y-96731540D01*
X99902562Y-96715888D01*
X99886910Y-96698618D01*
X99873026Y-96679898D01*
X99861044Y-96659907D01*
X99851079Y-96638837D01*
X99843227Y-96616893D01*
X99837563Y-96594284D01*
X99834144Y-96571229D01*
X99833000Y-96547950D01*
X99833000Y-96072950D01*
X99834144Y-96049671D01*
X99837563Y-96026616D01*
X99843227Y-96004007D01*
X99851079Y-95982063D01*
X99861044Y-95960993D01*
X99873026Y-95941002D01*
X99886910Y-95922282D01*
X99902562Y-95905012D01*
X99919832Y-95889360D01*
X99938552Y-95875476D01*
X99958543Y-95863494D01*
X99979613Y-95853529D01*
X100001557Y-95845677D01*
X100024166Y-95840013D01*
X100047221Y-95836594D01*
X100070500Y-95835450D01*
X100645500Y-95835450D01*
X100668779Y-95836594D01*
X100668779Y-95836594D01*
G37*
D13*
X100358000Y-96310450D03*
G04 #@! TD*
D12*
G04 #@! TO.C,R5*
G36*
X102404779Y-98700444D02*
X102427834Y-98703863D01*
X102450443Y-98709527D01*
X102472387Y-98717379D01*
X102493457Y-98727344D01*
X102513448Y-98739326D01*
X102532168Y-98753210D01*
X102549438Y-98768862D01*
X102565090Y-98786132D01*
X102578974Y-98804852D01*
X102590956Y-98824843D01*
X102600921Y-98845913D01*
X102608773Y-98867857D01*
X102614437Y-98890466D01*
X102617856Y-98913521D01*
X102619000Y-98936800D01*
X102619000Y-99411800D01*
X102617856Y-99435079D01*
X102614437Y-99458134D01*
X102608773Y-99480743D01*
X102600921Y-99502687D01*
X102590956Y-99523757D01*
X102578974Y-99543748D01*
X102565090Y-99562468D01*
X102549438Y-99579738D01*
X102532168Y-99595390D01*
X102513448Y-99609274D01*
X102493457Y-99621256D01*
X102472387Y-99631221D01*
X102450443Y-99639073D01*
X102427834Y-99644737D01*
X102404779Y-99648156D01*
X102381500Y-99649300D01*
X101806500Y-99649300D01*
X101783221Y-99648156D01*
X101760166Y-99644737D01*
X101737557Y-99639073D01*
X101715613Y-99631221D01*
X101694543Y-99621256D01*
X101674552Y-99609274D01*
X101655832Y-99595390D01*
X101638562Y-99579738D01*
X101622910Y-99562468D01*
X101609026Y-99543748D01*
X101597044Y-99523757D01*
X101587079Y-99502687D01*
X101579227Y-99480743D01*
X101573563Y-99458134D01*
X101570144Y-99435079D01*
X101569000Y-99411800D01*
X101569000Y-98936800D01*
X101570144Y-98913521D01*
X101573563Y-98890466D01*
X101579227Y-98867857D01*
X101587079Y-98845913D01*
X101597044Y-98824843D01*
X101609026Y-98804852D01*
X101622910Y-98786132D01*
X101638562Y-98768862D01*
X101655832Y-98753210D01*
X101674552Y-98739326D01*
X101694543Y-98727344D01*
X101715613Y-98717379D01*
X101737557Y-98709527D01*
X101760166Y-98703863D01*
X101783221Y-98700444D01*
X101806500Y-98699300D01*
X102381500Y-98699300D01*
X102404779Y-98700444D01*
X102404779Y-98700444D01*
G37*
D13*
X102094000Y-99174300D03*
D12*
G36*
X100654779Y-98700444D02*
X100677834Y-98703863D01*
X100700443Y-98709527D01*
X100722387Y-98717379D01*
X100743457Y-98727344D01*
X100763448Y-98739326D01*
X100782168Y-98753210D01*
X100799438Y-98768862D01*
X100815090Y-98786132D01*
X100828974Y-98804852D01*
X100840956Y-98824843D01*
X100850921Y-98845913D01*
X100858773Y-98867857D01*
X100864437Y-98890466D01*
X100867856Y-98913521D01*
X100869000Y-98936800D01*
X100869000Y-99411800D01*
X100867856Y-99435079D01*
X100864437Y-99458134D01*
X100858773Y-99480743D01*
X100850921Y-99502687D01*
X100840956Y-99523757D01*
X100828974Y-99543748D01*
X100815090Y-99562468D01*
X100799438Y-99579738D01*
X100782168Y-99595390D01*
X100763448Y-99609274D01*
X100743457Y-99621256D01*
X100722387Y-99631221D01*
X100700443Y-99639073D01*
X100677834Y-99644737D01*
X100654779Y-99648156D01*
X100631500Y-99649300D01*
X100056500Y-99649300D01*
X100033221Y-99648156D01*
X100010166Y-99644737D01*
X99987557Y-99639073D01*
X99965613Y-99631221D01*
X99944543Y-99621256D01*
X99924552Y-99609274D01*
X99905832Y-99595390D01*
X99888562Y-99579738D01*
X99872910Y-99562468D01*
X99859026Y-99543748D01*
X99847044Y-99523757D01*
X99837079Y-99502687D01*
X99829227Y-99480743D01*
X99823563Y-99458134D01*
X99820144Y-99435079D01*
X99819000Y-99411800D01*
X99819000Y-98936800D01*
X99820144Y-98913521D01*
X99823563Y-98890466D01*
X99829227Y-98867857D01*
X99837079Y-98845913D01*
X99847044Y-98824843D01*
X99859026Y-98804852D01*
X99872910Y-98786132D01*
X99888562Y-98768862D01*
X99905832Y-98753210D01*
X99924552Y-98739326D01*
X99944543Y-98727344D01*
X99965613Y-98717379D01*
X99987557Y-98709527D01*
X100010166Y-98703863D01*
X100033221Y-98700444D01*
X100056500Y-98699300D01*
X100631500Y-98699300D01*
X100654779Y-98700444D01*
X100654779Y-98700444D01*
G37*
D13*
X100344000Y-99174300D03*
G04 #@! TD*
D12*
G04 #@! TO.C,R6*
G36*
X102404779Y-101564294D02*
X102427834Y-101567713D01*
X102450443Y-101573377D01*
X102472387Y-101581229D01*
X102493457Y-101591194D01*
X102513448Y-101603176D01*
X102532168Y-101617060D01*
X102549438Y-101632712D01*
X102565090Y-101649982D01*
X102578974Y-101668702D01*
X102590956Y-101688693D01*
X102600921Y-101709763D01*
X102608773Y-101731707D01*
X102614437Y-101754316D01*
X102617856Y-101777371D01*
X102619000Y-101800650D01*
X102619000Y-102275650D01*
X102617856Y-102298929D01*
X102614437Y-102321984D01*
X102608773Y-102344593D01*
X102600921Y-102366537D01*
X102590956Y-102387607D01*
X102578974Y-102407598D01*
X102565090Y-102426318D01*
X102549438Y-102443588D01*
X102532168Y-102459240D01*
X102513448Y-102473124D01*
X102493457Y-102485106D01*
X102472387Y-102495071D01*
X102450443Y-102502923D01*
X102427834Y-102508587D01*
X102404779Y-102512006D01*
X102381500Y-102513150D01*
X101806500Y-102513150D01*
X101783221Y-102512006D01*
X101760166Y-102508587D01*
X101737557Y-102502923D01*
X101715613Y-102495071D01*
X101694543Y-102485106D01*
X101674552Y-102473124D01*
X101655832Y-102459240D01*
X101638562Y-102443588D01*
X101622910Y-102426318D01*
X101609026Y-102407598D01*
X101597044Y-102387607D01*
X101587079Y-102366537D01*
X101579227Y-102344593D01*
X101573563Y-102321984D01*
X101570144Y-102298929D01*
X101569000Y-102275650D01*
X101569000Y-101800650D01*
X101570144Y-101777371D01*
X101573563Y-101754316D01*
X101579227Y-101731707D01*
X101587079Y-101709763D01*
X101597044Y-101688693D01*
X101609026Y-101668702D01*
X101622910Y-101649982D01*
X101638562Y-101632712D01*
X101655832Y-101617060D01*
X101674552Y-101603176D01*
X101694543Y-101591194D01*
X101715613Y-101581229D01*
X101737557Y-101573377D01*
X101760166Y-101567713D01*
X101783221Y-101564294D01*
X101806500Y-101563150D01*
X102381500Y-101563150D01*
X102404779Y-101564294D01*
X102404779Y-101564294D01*
G37*
D13*
X102094000Y-102038150D03*
D12*
G36*
X100654779Y-101564294D02*
X100677834Y-101567713D01*
X100700443Y-101573377D01*
X100722387Y-101581229D01*
X100743457Y-101591194D01*
X100763448Y-101603176D01*
X100782168Y-101617060D01*
X100799438Y-101632712D01*
X100815090Y-101649982D01*
X100828974Y-101668702D01*
X100840956Y-101688693D01*
X100850921Y-101709763D01*
X100858773Y-101731707D01*
X100864437Y-101754316D01*
X100867856Y-101777371D01*
X100869000Y-101800650D01*
X100869000Y-102275650D01*
X100867856Y-102298929D01*
X100864437Y-102321984D01*
X100858773Y-102344593D01*
X100850921Y-102366537D01*
X100840956Y-102387607D01*
X100828974Y-102407598D01*
X100815090Y-102426318D01*
X100799438Y-102443588D01*
X100782168Y-102459240D01*
X100763448Y-102473124D01*
X100743457Y-102485106D01*
X100722387Y-102495071D01*
X100700443Y-102502923D01*
X100677834Y-102508587D01*
X100654779Y-102512006D01*
X100631500Y-102513150D01*
X100056500Y-102513150D01*
X100033221Y-102512006D01*
X100010166Y-102508587D01*
X99987557Y-102502923D01*
X99965613Y-102495071D01*
X99944543Y-102485106D01*
X99924552Y-102473124D01*
X99905832Y-102459240D01*
X99888562Y-102443588D01*
X99872910Y-102426318D01*
X99859026Y-102407598D01*
X99847044Y-102387607D01*
X99837079Y-102366537D01*
X99829227Y-102344593D01*
X99823563Y-102321984D01*
X99820144Y-102298929D01*
X99819000Y-102275650D01*
X99819000Y-101800650D01*
X99820144Y-101777371D01*
X99823563Y-101754316D01*
X99829227Y-101731707D01*
X99837079Y-101709763D01*
X99847044Y-101688693D01*
X99859026Y-101668702D01*
X99872910Y-101649982D01*
X99888562Y-101632712D01*
X99905832Y-101617060D01*
X99924552Y-101603176D01*
X99944543Y-101591194D01*
X99965613Y-101581229D01*
X99987557Y-101573377D01*
X100010166Y-101567713D01*
X100033221Y-101564294D01*
X100056500Y-101563150D01*
X100631500Y-101563150D01*
X100654779Y-101564294D01*
X100654779Y-101564294D01*
G37*
D13*
X100344000Y-102038150D03*
G04 #@! TD*
D12*
G04 #@! TO.C,R8*
G36*
X115739779Y-95760394D02*
X115762834Y-95763813D01*
X115785443Y-95769477D01*
X115807387Y-95777329D01*
X115828457Y-95787294D01*
X115848448Y-95799276D01*
X115867168Y-95813160D01*
X115884438Y-95828812D01*
X115900090Y-95846082D01*
X115913974Y-95864802D01*
X115925956Y-95884793D01*
X115935921Y-95905863D01*
X115943773Y-95927807D01*
X115949437Y-95950416D01*
X115952856Y-95973471D01*
X115954000Y-95996750D01*
X115954000Y-96471750D01*
X115952856Y-96495029D01*
X115949437Y-96518084D01*
X115943773Y-96540693D01*
X115935921Y-96562637D01*
X115925956Y-96583707D01*
X115913974Y-96603698D01*
X115900090Y-96622418D01*
X115884438Y-96639688D01*
X115867168Y-96655340D01*
X115848448Y-96669224D01*
X115828457Y-96681206D01*
X115807387Y-96691171D01*
X115785443Y-96699023D01*
X115762834Y-96704687D01*
X115739779Y-96708106D01*
X115716500Y-96709250D01*
X115141500Y-96709250D01*
X115118221Y-96708106D01*
X115095166Y-96704687D01*
X115072557Y-96699023D01*
X115050613Y-96691171D01*
X115029543Y-96681206D01*
X115009552Y-96669224D01*
X114990832Y-96655340D01*
X114973562Y-96639688D01*
X114957910Y-96622418D01*
X114944026Y-96603698D01*
X114932044Y-96583707D01*
X114922079Y-96562637D01*
X114914227Y-96540693D01*
X114908563Y-96518084D01*
X114905144Y-96495029D01*
X114904000Y-96471750D01*
X114904000Y-95996750D01*
X114905144Y-95973471D01*
X114908563Y-95950416D01*
X114914227Y-95927807D01*
X114922079Y-95905863D01*
X114932044Y-95884793D01*
X114944026Y-95864802D01*
X114957910Y-95846082D01*
X114973562Y-95828812D01*
X114990832Y-95813160D01*
X115009552Y-95799276D01*
X115029543Y-95787294D01*
X115050613Y-95777329D01*
X115072557Y-95769477D01*
X115095166Y-95763813D01*
X115118221Y-95760394D01*
X115141500Y-95759250D01*
X115716500Y-95759250D01*
X115739779Y-95760394D01*
X115739779Y-95760394D01*
G37*
D13*
X115429000Y-96234250D03*
D12*
G36*
X113989779Y-95760394D02*
X114012834Y-95763813D01*
X114035443Y-95769477D01*
X114057387Y-95777329D01*
X114078457Y-95787294D01*
X114098448Y-95799276D01*
X114117168Y-95813160D01*
X114134438Y-95828812D01*
X114150090Y-95846082D01*
X114163974Y-95864802D01*
X114175956Y-95884793D01*
X114185921Y-95905863D01*
X114193773Y-95927807D01*
X114199437Y-95950416D01*
X114202856Y-95973471D01*
X114204000Y-95996750D01*
X114204000Y-96471750D01*
X114202856Y-96495029D01*
X114199437Y-96518084D01*
X114193773Y-96540693D01*
X114185921Y-96562637D01*
X114175956Y-96583707D01*
X114163974Y-96603698D01*
X114150090Y-96622418D01*
X114134438Y-96639688D01*
X114117168Y-96655340D01*
X114098448Y-96669224D01*
X114078457Y-96681206D01*
X114057387Y-96691171D01*
X114035443Y-96699023D01*
X114012834Y-96704687D01*
X113989779Y-96708106D01*
X113966500Y-96709250D01*
X113391500Y-96709250D01*
X113368221Y-96708106D01*
X113345166Y-96704687D01*
X113322557Y-96699023D01*
X113300613Y-96691171D01*
X113279543Y-96681206D01*
X113259552Y-96669224D01*
X113240832Y-96655340D01*
X113223562Y-96639688D01*
X113207910Y-96622418D01*
X113194026Y-96603698D01*
X113182044Y-96583707D01*
X113172079Y-96562637D01*
X113164227Y-96540693D01*
X113158563Y-96518084D01*
X113155144Y-96495029D01*
X113154000Y-96471750D01*
X113154000Y-95996750D01*
X113155144Y-95973471D01*
X113158563Y-95950416D01*
X113164227Y-95927807D01*
X113172079Y-95905863D01*
X113182044Y-95884793D01*
X113194026Y-95864802D01*
X113207910Y-95846082D01*
X113223562Y-95828812D01*
X113240832Y-95813160D01*
X113259552Y-95799276D01*
X113279543Y-95787294D01*
X113300613Y-95777329D01*
X113322557Y-95769477D01*
X113345166Y-95763813D01*
X113368221Y-95760394D01*
X113391500Y-95759250D01*
X113966500Y-95759250D01*
X113989779Y-95760394D01*
X113989779Y-95760394D01*
G37*
D13*
X113679000Y-96234250D03*
G04 #@! TD*
D12*
G04 #@! TO.C,R9*
G36*
X115739779Y-98649644D02*
X115762834Y-98653063D01*
X115785443Y-98658727D01*
X115807387Y-98666579D01*
X115828457Y-98676544D01*
X115848448Y-98688526D01*
X115867168Y-98702410D01*
X115884438Y-98718062D01*
X115900090Y-98735332D01*
X115913974Y-98754052D01*
X115925956Y-98774043D01*
X115935921Y-98795113D01*
X115943773Y-98817057D01*
X115949437Y-98839666D01*
X115952856Y-98862721D01*
X115954000Y-98886000D01*
X115954000Y-99361000D01*
X115952856Y-99384279D01*
X115949437Y-99407334D01*
X115943773Y-99429943D01*
X115935921Y-99451887D01*
X115925956Y-99472957D01*
X115913974Y-99492948D01*
X115900090Y-99511668D01*
X115884438Y-99528938D01*
X115867168Y-99544590D01*
X115848448Y-99558474D01*
X115828457Y-99570456D01*
X115807387Y-99580421D01*
X115785443Y-99588273D01*
X115762834Y-99593937D01*
X115739779Y-99597356D01*
X115716500Y-99598500D01*
X115141500Y-99598500D01*
X115118221Y-99597356D01*
X115095166Y-99593937D01*
X115072557Y-99588273D01*
X115050613Y-99580421D01*
X115029543Y-99570456D01*
X115009552Y-99558474D01*
X114990832Y-99544590D01*
X114973562Y-99528938D01*
X114957910Y-99511668D01*
X114944026Y-99492948D01*
X114932044Y-99472957D01*
X114922079Y-99451887D01*
X114914227Y-99429943D01*
X114908563Y-99407334D01*
X114905144Y-99384279D01*
X114904000Y-99361000D01*
X114904000Y-98886000D01*
X114905144Y-98862721D01*
X114908563Y-98839666D01*
X114914227Y-98817057D01*
X114922079Y-98795113D01*
X114932044Y-98774043D01*
X114944026Y-98754052D01*
X114957910Y-98735332D01*
X114973562Y-98718062D01*
X114990832Y-98702410D01*
X115009552Y-98688526D01*
X115029543Y-98676544D01*
X115050613Y-98666579D01*
X115072557Y-98658727D01*
X115095166Y-98653063D01*
X115118221Y-98649644D01*
X115141500Y-98648500D01*
X115716500Y-98648500D01*
X115739779Y-98649644D01*
X115739779Y-98649644D01*
G37*
D13*
X115429000Y-99123500D03*
D12*
G36*
X113989779Y-98649644D02*
X114012834Y-98653063D01*
X114035443Y-98658727D01*
X114057387Y-98666579D01*
X114078457Y-98676544D01*
X114098448Y-98688526D01*
X114117168Y-98702410D01*
X114134438Y-98718062D01*
X114150090Y-98735332D01*
X114163974Y-98754052D01*
X114175956Y-98774043D01*
X114185921Y-98795113D01*
X114193773Y-98817057D01*
X114199437Y-98839666D01*
X114202856Y-98862721D01*
X114204000Y-98886000D01*
X114204000Y-99361000D01*
X114202856Y-99384279D01*
X114199437Y-99407334D01*
X114193773Y-99429943D01*
X114185921Y-99451887D01*
X114175956Y-99472957D01*
X114163974Y-99492948D01*
X114150090Y-99511668D01*
X114134438Y-99528938D01*
X114117168Y-99544590D01*
X114098448Y-99558474D01*
X114078457Y-99570456D01*
X114057387Y-99580421D01*
X114035443Y-99588273D01*
X114012834Y-99593937D01*
X113989779Y-99597356D01*
X113966500Y-99598500D01*
X113391500Y-99598500D01*
X113368221Y-99597356D01*
X113345166Y-99593937D01*
X113322557Y-99588273D01*
X113300613Y-99580421D01*
X113279543Y-99570456D01*
X113259552Y-99558474D01*
X113240832Y-99544590D01*
X113223562Y-99528938D01*
X113207910Y-99511668D01*
X113194026Y-99492948D01*
X113182044Y-99472957D01*
X113172079Y-99451887D01*
X113164227Y-99429943D01*
X113158563Y-99407334D01*
X113155144Y-99384279D01*
X113154000Y-99361000D01*
X113154000Y-98886000D01*
X113155144Y-98862721D01*
X113158563Y-98839666D01*
X113164227Y-98817057D01*
X113172079Y-98795113D01*
X113182044Y-98774043D01*
X113194026Y-98754052D01*
X113207910Y-98735332D01*
X113223562Y-98718062D01*
X113240832Y-98702410D01*
X113259552Y-98688526D01*
X113279543Y-98676544D01*
X113300613Y-98666579D01*
X113322557Y-98658727D01*
X113345166Y-98653063D01*
X113368221Y-98649644D01*
X113391500Y-98648500D01*
X113966500Y-98648500D01*
X113989779Y-98649644D01*
X113989779Y-98649644D01*
G37*
D13*
X113679000Y-99123500D03*
G04 #@! TD*
D12*
G04 #@! TO.C,R10*
G36*
X115739779Y-101538894D02*
X115762834Y-101542313D01*
X115785443Y-101547977D01*
X115807387Y-101555829D01*
X115828457Y-101565794D01*
X115848448Y-101577776D01*
X115867168Y-101591660D01*
X115884438Y-101607312D01*
X115900090Y-101624582D01*
X115913974Y-101643302D01*
X115925956Y-101663293D01*
X115935921Y-101684363D01*
X115943773Y-101706307D01*
X115949437Y-101728916D01*
X115952856Y-101751971D01*
X115954000Y-101775250D01*
X115954000Y-102250250D01*
X115952856Y-102273529D01*
X115949437Y-102296584D01*
X115943773Y-102319193D01*
X115935921Y-102341137D01*
X115925956Y-102362207D01*
X115913974Y-102382198D01*
X115900090Y-102400918D01*
X115884438Y-102418188D01*
X115867168Y-102433840D01*
X115848448Y-102447724D01*
X115828457Y-102459706D01*
X115807387Y-102469671D01*
X115785443Y-102477523D01*
X115762834Y-102483187D01*
X115739779Y-102486606D01*
X115716500Y-102487750D01*
X115141500Y-102487750D01*
X115118221Y-102486606D01*
X115095166Y-102483187D01*
X115072557Y-102477523D01*
X115050613Y-102469671D01*
X115029543Y-102459706D01*
X115009552Y-102447724D01*
X114990832Y-102433840D01*
X114973562Y-102418188D01*
X114957910Y-102400918D01*
X114944026Y-102382198D01*
X114932044Y-102362207D01*
X114922079Y-102341137D01*
X114914227Y-102319193D01*
X114908563Y-102296584D01*
X114905144Y-102273529D01*
X114904000Y-102250250D01*
X114904000Y-101775250D01*
X114905144Y-101751971D01*
X114908563Y-101728916D01*
X114914227Y-101706307D01*
X114922079Y-101684363D01*
X114932044Y-101663293D01*
X114944026Y-101643302D01*
X114957910Y-101624582D01*
X114973562Y-101607312D01*
X114990832Y-101591660D01*
X115009552Y-101577776D01*
X115029543Y-101565794D01*
X115050613Y-101555829D01*
X115072557Y-101547977D01*
X115095166Y-101542313D01*
X115118221Y-101538894D01*
X115141500Y-101537750D01*
X115716500Y-101537750D01*
X115739779Y-101538894D01*
X115739779Y-101538894D01*
G37*
D13*
X115429000Y-102012750D03*
D12*
G36*
X113989779Y-101538894D02*
X114012834Y-101542313D01*
X114035443Y-101547977D01*
X114057387Y-101555829D01*
X114078457Y-101565794D01*
X114098448Y-101577776D01*
X114117168Y-101591660D01*
X114134438Y-101607312D01*
X114150090Y-101624582D01*
X114163974Y-101643302D01*
X114175956Y-101663293D01*
X114185921Y-101684363D01*
X114193773Y-101706307D01*
X114199437Y-101728916D01*
X114202856Y-101751971D01*
X114204000Y-101775250D01*
X114204000Y-102250250D01*
X114202856Y-102273529D01*
X114199437Y-102296584D01*
X114193773Y-102319193D01*
X114185921Y-102341137D01*
X114175956Y-102362207D01*
X114163974Y-102382198D01*
X114150090Y-102400918D01*
X114134438Y-102418188D01*
X114117168Y-102433840D01*
X114098448Y-102447724D01*
X114078457Y-102459706D01*
X114057387Y-102469671D01*
X114035443Y-102477523D01*
X114012834Y-102483187D01*
X113989779Y-102486606D01*
X113966500Y-102487750D01*
X113391500Y-102487750D01*
X113368221Y-102486606D01*
X113345166Y-102483187D01*
X113322557Y-102477523D01*
X113300613Y-102469671D01*
X113279543Y-102459706D01*
X113259552Y-102447724D01*
X113240832Y-102433840D01*
X113223562Y-102418188D01*
X113207910Y-102400918D01*
X113194026Y-102382198D01*
X113182044Y-102362207D01*
X113172079Y-102341137D01*
X113164227Y-102319193D01*
X113158563Y-102296584D01*
X113155144Y-102273529D01*
X113154000Y-102250250D01*
X113154000Y-101775250D01*
X113155144Y-101751971D01*
X113158563Y-101728916D01*
X113164227Y-101706307D01*
X113172079Y-101684363D01*
X113182044Y-101663293D01*
X113194026Y-101643302D01*
X113207910Y-101624582D01*
X113223562Y-101607312D01*
X113240832Y-101591660D01*
X113259552Y-101577776D01*
X113279543Y-101565794D01*
X113300613Y-101555829D01*
X113322557Y-101547977D01*
X113345166Y-101542313D01*
X113368221Y-101538894D01*
X113391500Y-101537750D01*
X113966500Y-101537750D01*
X113989779Y-101538894D01*
X113989779Y-101538894D01*
G37*
D13*
X113679000Y-102012750D03*
G04 #@! TD*
D12*
G04 #@! TO.C,C1*
G36*
X109135779Y-118144144D02*
X109158834Y-118147563D01*
X109181443Y-118153227D01*
X109203387Y-118161079D01*
X109224457Y-118171044D01*
X109244448Y-118183026D01*
X109263168Y-118196910D01*
X109280438Y-118212562D01*
X109296090Y-118229832D01*
X109309974Y-118248552D01*
X109321956Y-118268543D01*
X109331921Y-118289613D01*
X109339773Y-118311557D01*
X109345437Y-118334166D01*
X109348856Y-118357221D01*
X109350000Y-118380500D01*
X109350000Y-118855500D01*
X109348856Y-118878779D01*
X109345437Y-118901834D01*
X109339773Y-118924443D01*
X109331921Y-118946387D01*
X109321956Y-118967457D01*
X109309974Y-118987448D01*
X109296090Y-119006168D01*
X109280438Y-119023438D01*
X109263168Y-119039090D01*
X109244448Y-119052974D01*
X109224457Y-119064956D01*
X109203387Y-119074921D01*
X109181443Y-119082773D01*
X109158834Y-119088437D01*
X109135779Y-119091856D01*
X109112500Y-119093000D01*
X108537500Y-119093000D01*
X108514221Y-119091856D01*
X108491166Y-119088437D01*
X108468557Y-119082773D01*
X108446613Y-119074921D01*
X108425543Y-119064956D01*
X108405552Y-119052974D01*
X108386832Y-119039090D01*
X108369562Y-119023438D01*
X108353910Y-119006168D01*
X108340026Y-118987448D01*
X108328044Y-118967457D01*
X108318079Y-118946387D01*
X108310227Y-118924443D01*
X108304563Y-118901834D01*
X108301144Y-118878779D01*
X108300000Y-118855500D01*
X108300000Y-118380500D01*
X108301144Y-118357221D01*
X108304563Y-118334166D01*
X108310227Y-118311557D01*
X108318079Y-118289613D01*
X108328044Y-118268543D01*
X108340026Y-118248552D01*
X108353910Y-118229832D01*
X108369562Y-118212562D01*
X108386832Y-118196910D01*
X108405552Y-118183026D01*
X108425543Y-118171044D01*
X108446613Y-118161079D01*
X108468557Y-118153227D01*
X108491166Y-118147563D01*
X108514221Y-118144144D01*
X108537500Y-118143000D01*
X109112500Y-118143000D01*
X109135779Y-118144144D01*
X109135779Y-118144144D01*
G37*
D13*
X108825000Y-118618000D03*
D12*
G36*
X107385779Y-118144144D02*
X107408834Y-118147563D01*
X107431443Y-118153227D01*
X107453387Y-118161079D01*
X107474457Y-118171044D01*
X107494448Y-118183026D01*
X107513168Y-118196910D01*
X107530438Y-118212562D01*
X107546090Y-118229832D01*
X107559974Y-118248552D01*
X107571956Y-118268543D01*
X107581921Y-118289613D01*
X107589773Y-118311557D01*
X107595437Y-118334166D01*
X107598856Y-118357221D01*
X107600000Y-118380500D01*
X107600000Y-118855500D01*
X107598856Y-118878779D01*
X107595437Y-118901834D01*
X107589773Y-118924443D01*
X107581921Y-118946387D01*
X107571956Y-118967457D01*
X107559974Y-118987448D01*
X107546090Y-119006168D01*
X107530438Y-119023438D01*
X107513168Y-119039090D01*
X107494448Y-119052974D01*
X107474457Y-119064956D01*
X107453387Y-119074921D01*
X107431443Y-119082773D01*
X107408834Y-119088437D01*
X107385779Y-119091856D01*
X107362500Y-119093000D01*
X106787500Y-119093000D01*
X106764221Y-119091856D01*
X106741166Y-119088437D01*
X106718557Y-119082773D01*
X106696613Y-119074921D01*
X106675543Y-119064956D01*
X106655552Y-119052974D01*
X106636832Y-119039090D01*
X106619562Y-119023438D01*
X106603910Y-119006168D01*
X106590026Y-118987448D01*
X106578044Y-118967457D01*
X106568079Y-118946387D01*
X106560227Y-118924443D01*
X106554563Y-118901834D01*
X106551144Y-118878779D01*
X106550000Y-118855500D01*
X106550000Y-118380500D01*
X106551144Y-118357221D01*
X106554563Y-118334166D01*
X106560227Y-118311557D01*
X106568079Y-118289613D01*
X106578044Y-118268543D01*
X106590026Y-118248552D01*
X106603910Y-118229832D01*
X106619562Y-118212562D01*
X106636832Y-118196910D01*
X106655552Y-118183026D01*
X106675543Y-118171044D01*
X106696613Y-118161079D01*
X106718557Y-118153227D01*
X106741166Y-118147563D01*
X106764221Y-118144144D01*
X106787500Y-118143000D01*
X107362500Y-118143000D01*
X107385779Y-118144144D01*
X107385779Y-118144144D01*
G37*
D13*
X107075000Y-118618000D03*
G04 #@! TD*
M02*
