G04 #@! TF.GenerationSoftware,KiCad,Pcbnew,(5.0.0)*
G04 #@! TF.CreationDate,2018-12-16T13:09:34-06:00*
G04 #@! TF.ProjectId,ShimbleBoard_Hardware,5368696D626C65426F6172645F486172,rev?*
G04 #@! TF.SameCoordinates,Original*
G04 #@! TF.FileFunction,Legend,Bot*
G04 #@! TF.FilePolarity,Positive*
%FSLAX46Y46*%
G04 Gerber Fmt 4.6, Leading zero omitted, Abs format (unit mm)*
G04 Created by KiCad (PCBNEW (5.0.0)) date 12/16/18 13:09:34*
%MOMM*%
%LPD*%
G01*
G04 APERTURE LIST*
%ADD10C,0.200000*%
%ADD11C,0.120000*%
%ADD12C,0.150000*%
G04 APERTURE END LIST*
D10*
X95995714Y-73216285D02*
X96681428Y-73216285D01*
X96338571Y-73559142D02*
X96338571Y-72873428D01*
X97795714Y-73559142D02*
X97795714Y-72659142D01*
X98138571Y-72659142D01*
X98224285Y-72702000D01*
X98267142Y-72744857D01*
X98310000Y-72830571D01*
X98310000Y-72959142D01*
X98267142Y-73044857D01*
X98224285Y-73087714D01*
X98138571Y-73130571D01*
X97795714Y-73130571D01*
X98610000Y-72659142D02*
X98824285Y-73559142D01*
X98995714Y-72916285D01*
X99167142Y-73559142D01*
X99381428Y-72659142D01*
X99724285Y-73559142D02*
X99724285Y-72659142D01*
X100024285Y-73302000D01*
X100324285Y-72659142D01*
X100324285Y-73559142D01*
X101438571Y-73216285D02*
X102124285Y-73216285D01*
X108187714Y-73216285D02*
X108873428Y-73216285D01*
X108530571Y-73559142D02*
X108530571Y-72873428D01*
X109987714Y-73559142D02*
X109987714Y-72659142D01*
X110330571Y-72659142D01*
X110416285Y-72702000D01*
X110459142Y-72744857D01*
X110502000Y-72830571D01*
X110502000Y-72959142D01*
X110459142Y-73044857D01*
X110416285Y-73087714D01*
X110330571Y-73130571D01*
X109987714Y-73130571D01*
X110802000Y-72659142D02*
X111016285Y-73559142D01*
X111187714Y-72916285D01*
X111359142Y-73559142D01*
X111573428Y-72659142D01*
X111916285Y-73559142D02*
X111916285Y-72659142D01*
X112216285Y-73302000D01*
X112516285Y-72659142D01*
X112516285Y-73559142D01*
X113630571Y-73216285D02*
X114316285Y-73216285D01*
X120379714Y-73216285D02*
X121065428Y-73216285D01*
X120722571Y-73559142D02*
X120722571Y-72873428D01*
X122179714Y-73559142D02*
X122179714Y-72659142D01*
X122522571Y-72659142D01*
X122608285Y-72702000D01*
X122651142Y-72744857D01*
X122694000Y-72830571D01*
X122694000Y-72959142D01*
X122651142Y-73044857D01*
X122608285Y-73087714D01*
X122522571Y-73130571D01*
X122179714Y-73130571D01*
X122994000Y-72659142D02*
X123208285Y-73559142D01*
X123379714Y-72916285D01*
X123551142Y-73559142D01*
X123765428Y-72659142D01*
X124108285Y-73559142D02*
X124108285Y-72659142D01*
X124408285Y-73302000D01*
X124708285Y-72659142D01*
X124708285Y-73559142D01*
X125822571Y-73216285D02*
X126508285Y-73216285D01*
X132825714Y-73216285D02*
X133511428Y-73216285D01*
X133168571Y-73559142D02*
X133168571Y-72873428D01*
X134625714Y-73559142D02*
X134625714Y-72659142D01*
X134968571Y-72659142D01*
X135054285Y-72702000D01*
X135097142Y-72744857D01*
X135140000Y-72830571D01*
X135140000Y-72959142D01*
X135097142Y-73044857D01*
X135054285Y-73087714D01*
X134968571Y-73130571D01*
X134625714Y-73130571D01*
X135440000Y-72659142D02*
X135654285Y-73559142D01*
X135825714Y-72916285D01*
X135997142Y-73559142D01*
X136211428Y-72659142D01*
X136554285Y-73559142D02*
X136554285Y-72659142D01*
X136854285Y-73302000D01*
X137154285Y-72659142D01*
X137154285Y-73559142D01*
X138268571Y-73216285D02*
X138954285Y-73216285D01*
X144763714Y-73216285D02*
X145449428Y-73216285D01*
X145106571Y-73559142D02*
X145106571Y-72873428D01*
X146563714Y-73559142D02*
X146563714Y-72659142D01*
X146906571Y-72659142D01*
X146992285Y-72702000D01*
X147035142Y-72744857D01*
X147078000Y-72830571D01*
X147078000Y-72959142D01*
X147035142Y-73044857D01*
X146992285Y-73087714D01*
X146906571Y-73130571D01*
X146563714Y-73130571D01*
X147378000Y-72659142D02*
X147592285Y-73559142D01*
X147763714Y-72916285D01*
X147935142Y-73559142D01*
X148149428Y-72659142D01*
X148492285Y-73559142D02*
X148492285Y-72659142D01*
X148792285Y-73302000D01*
X149092285Y-72659142D01*
X149092285Y-73559142D01*
X150206571Y-73216285D02*
X150892285Y-73216285D01*
X142683714Y-82025714D02*
X142683714Y-82711428D01*
X142340857Y-82368571D02*
X143026571Y-82368571D01*
X142340857Y-83825714D02*
X143240857Y-83825714D01*
X143240857Y-84168571D01*
X143198000Y-84254285D01*
X143155142Y-84297142D01*
X143069428Y-84340000D01*
X142940857Y-84340000D01*
X142855142Y-84297142D01*
X142812285Y-84254285D01*
X142769428Y-84168571D01*
X142769428Y-83825714D01*
X143240857Y-84640000D02*
X142340857Y-84854285D01*
X142983714Y-85025714D01*
X142340857Y-85197142D01*
X143240857Y-85411428D01*
X142340857Y-85754285D02*
X143240857Y-85754285D01*
X142598000Y-86054285D01*
X143240857Y-86354285D01*
X142340857Y-86354285D01*
X142683714Y-87468571D02*
X142683714Y-88154285D01*
X134047714Y-94979714D02*
X134047714Y-95665428D01*
X133704857Y-95322571D02*
X134390571Y-95322571D01*
X133704857Y-96779714D02*
X134604857Y-96779714D01*
X134604857Y-97122571D01*
X134562000Y-97208285D01*
X134519142Y-97251142D01*
X134433428Y-97294000D01*
X134304857Y-97294000D01*
X134219142Y-97251142D01*
X134176285Y-97208285D01*
X134133428Y-97122571D01*
X134133428Y-96779714D01*
X134604857Y-97594000D02*
X133704857Y-97808285D01*
X134347714Y-97979714D01*
X133704857Y-98151142D01*
X134604857Y-98365428D01*
X133704857Y-98708285D02*
X134604857Y-98708285D01*
X133962000Y-99008285D01*
X134604857Y-99308285D01*
X133704857Y-99308285D01*
X134047714Y-100422571D02*
X134047714Y-101108285D01*
X142683714Y-94725714D02*
X142683714Y-95411428D01*
X142340857Y-95068571D02*
X143026571Y-95068571D01*
X142340857Y-96525714D02*
X143240857Y-96525714D01*
X143240857Y-96868571D01*
X143198000Y-96954285D01*
X143155142Y-96997142D01*
X143069428Y-97040000D01*
X142940857Y-97040000D01*
X142855142Y-96997142D01*
X142812285Y-96954285D01*
X142769428Y-96868571D01*
X142769428Y-96525714D01*
X143240857Y-97340000D02*
X142340857Y-97554285D01*
X142983714Y-97725714D01*
X142340857Y-97897142D01*
X143240857Y-98111428D01*
X142340857Y-98454285D02*
X143240857Y-98454285D01*
X142598000Y-98754285D01*
X143240857Y-99054285D01*
X142340857Y-99054285D01*
X142683714Y-100168571D02*
X142683714Y-100854285D01*
D11*
G04 #@! TO.C,C2*
X107440000Y-106456267D02*
X107440000Y-106113733D01*
X108460000Y-106456267D02*
X108460000Y-106113733D01*
D12*
X109831142Y-106005333D02*
X109878761Y-105957714D01*
X109926380Y-105814857D01*
X109926380Y-105719619D01*
X109878761Y-105576761D01*
X109783523Y-105481523D01*
X109688285Y-105433904D01*
X109497809Y-105386285D01*
X109354952Y-105386285D01*
X109164476Y-105433904D01*
X109069238Y-105481523D01*
X108974000Y-105576761D01*
X108926380Y-105719619D01*
X108926380Y-105814857D01*
X108974000Y-105957714D01*
X109021619Y-106005333D01*
X109021619Y-106386285D02*
X108974000Y-106433904D01*
X108926380Y-106529142D01*
X108926380Y-106767238D01*
X108974000Y-106862476D01*
X109021619Y-106910095D01*
X109116857Y-106957714D01*
X109212095Y-106957714D01*
X109354952Y-106910095D01*
X109926380Y-106338666D01*
X109926380Y-106957714D01*
G04 #@! TD*
M02*
