%TF.GenerationSoftware,KiCad,Pcbnew,(5.1.10)-1*%
%TF.CreationDate,2021-12-04T20:09:58-06:00*%
%TF.ProjectId,GimbalBoard_Hardware,47696d62-616c-4426-9f61-72645f486172,rev?*%
%TF.SameCoordinates,Original*%
%TF.FileFunction,Paste,Top*%
%TF.FilePolarity,Positive*%
%FSLAX46Y46*%
G04 Gerber Fmt 4.6, Leading zero omitted, Abs format (unit mm)*
G04 Created by KiCad (PCBNEW (5.1.10)-1) date 2021-12-04 20:09:58*
%MOMM*%
%LPD*%
G01*
G04 APERTURE LIST*
%ADD10R,1.000000X2.750000*%
%ADD11R,0.800000X0.900000*%
G04 APERTURE END LIST*
D10*
%TO.C,SW1*%
X145916400Y-86065720D03*
X145916400Y-91825720D03*
X141916400Y-91825720D03*
X141916400Y-86065720D03*
%TD*%
%TO.C,C5*%
G36*
G01*
X48846100Y-89373700D02*
X48846100Y-89848700D01*
G75*
G02*
X48608600Y-90086200I-237500J0D01*
G01*
X48008600Y-90086200D01*
G75*
G02*
X47771100Y-89848700I0J237500D01*
G01*
X47771100Y-89373700D01*
G75*
G02*
X48008600Y-89136200I237500J0D01*
G01*
X48608600Y-89136200D01*
G75*
G02*
X48846100Y-89373700I0J-237500D01*
G01*
G37*
G36*
G01*
X47121100Y-89373700D02*
X47121100Y-89848700D01*
G75*
G02*
X46883600Y-90086200I-237500J0D01*
G01*
X46283600Y-90086200D01*
G75*
G02*
X46046100Y-89848700I0J237500D01*
G01*
X46046100Y-89373700D01*
G75*
G02*
X46283600Y-89136200I237500J0D01*
G01*
X46883600Y-89136200D01*
G75*
G02*
X47121100Y-89373700I0J-237500D01*
G01*
G37*
%TD*%
%TO.C,SW8*%
X87344000Y-86274000D03*
X87344000Y-92034000D03*
X83344000Y-92034000D03*
X83344000Y-86274000D03*
%TD*%
%TO.C,SW7*%
X95624400Y-86065720D03*
X95624400Y-91825720D03*
X91624400Y-91825720D03*
X91624400Y-86065720D03*
%TD*%
%TO.C,SW6*%
X104006400Y-86065720D03*
X104006400Y-91825720D03*
X100006400Y-91825720D03*
X100006400Y-86065720D03*
%TD*%
%TO.C,SW5*%
X112261400Y-86192720D03*
X112261400Y-91952720D03*
X108261400Y-91952720D03*
X108261400Y-86192720D03*
%TD*%
%TO.C,SW4*%
X116643400Y-86065720D03*
X116643400Y-91825720D03*
X120643400Y-91825720D03*
X120643400Y-86065720D03*
%TD*%
%TO.C,SW3*%
X129025400Y-86065720D03*
X129025400Y-91825720D03*
X125025400Y-91825720D03*
X125025400Y-86065720D03*
%TD*%
%TO.C,SW2*%
X137407400Y-86065720D03*
X137407400Y-91825720D03*
X133407400Y-91825720D03*
X133407400Y-86065720D03*
%TD*%
%TO.C,R32*%
G36*
G01*
X80001100Y-49933400D02*
X80476100Y-49933400D01*
G75*
G02*
X80713600Y-50170900I0J-237500D01*
G01*
X80713600Y-50670900D01*
G75*
G02*
X80476100Y-50908400I-237500J0D01*
G01*
X80001100Y-50908400D01*
G75*
G02*
X79763600Y-50670900I0J237500D01*
G01*
X79763600Y-50170900D01*
G75*
G02*
X80001100Y-49933400I237500J0D01*
G01*
G37*
G36*
G01*
X80001100Y-51758400D02*
X80476100Y-51758400D01*
G75*
G02*
X80713600Y-51995900I0J-237500D01*
G01*
X80713600Y-52495900D01*
G75*
G02*
X80476100Y-52733400I-237500J0D01*
G01*
X80001100Y-52733400D01*
G75*
G02*
X79763600Y-52495900I0J237500D01*
G01*
X79763600Y-51995900D01*
G75*
G02*
X80001100Y-51758400I237500J0D01*
G01*
G37*
%TD*%
%TO.C,R31*%
G36*
G01*
X92853500Y-49933400D02*
X93328500Y-49933400D01*
G75*
G02*
X93566000Y-50170900I0J-237500D01*
G01*
X93566000Y-50670900D01*
G75*
G02*
X93328500Y-50908400I-237500J0D01*
G01*
X92853500Y-50908400D01*
G75*
G02*
X92616000Y-50670900I0J237500D01*
G01*
X92616000Y-50170900D01*
G75*
G02*
X92853500Y-49933400I237500J0D01*
G01*
G37*
G36*
G01*
X92853500Y-51758400D02*
X93328500Y-51758400D01*
G75*
G02*
X93566000Y-51995900I0J-237500D01*
G01*
X93566000Y-52495900D01*
G75*
G02*
X93328500Y-52733400I-237500J0D01*
G01*
X92853500Y-52733400D01*
G75*
G02*
X92616000Y-52495900I0J237500D01*
G01*
X92616000Y-51995900D01*
G75*
G02*
X92853500Y-51758400I237500J0D01*
G01*
G37*
%TD*%
%TO.C,R30*%
G36*
G01*
X105299500Y-49933400D02*
X105774500Y-49933400D01*
G75*
G02*
X106012000Y-50170900I0J-237500D01*
G01*
X106012000Y-50670900D01*
G75*
G02*
X105774500Y-50908400I-237500J0D01*
G01*
X105299500Y-50908400D01*
G75*
G02*
X105062000Y-50670900I0J237500D01*
G01*
X105062000Y-50170900D01*
G75*
G02*
X105299500Y-49933400I237500J0D01*
G01*
G37*
G36*
G01*
X105299500Y-51758400D02*
X105774500Y-51758400D01*
G75*
G02*
X106012000Y-51995900I0J-237500D01*
G01*
X106012000Y-52495900D01*
G75*
G02*
X105774500Y-52733400I-237500J0D01*
G01*
X105299500Y-52733400D01*
G75*
G02*
X105062000Y-52495900I0J237500D01*
G01*
X105062000Y-51995900D01*
G75*
G02*
X105299500Y-51758400I237500J0D01*
G01*
G37*
%TD*%
%TO.C,R29*%
G36*
G01*
X117682000Y-49857200D02*
X118157000Y-49857200D01*
G75*
G02*
X118394500Y-50094700I0J-237500D01*
G01*
X118394500Y-50594700D01*
G75*
G02*
X118157000Y-50832200I-237500J0D01*
G01*
X117682000Y-50832200D01*
G75*
G02*
X117444500Y-50594700I0J237500D01*
G01*
X117444500Y-50094700D01*
G75*
G02*
X117682000Y-49857200I237500J0D01*
G01*
G37*
G36*
G01*
X117682000Y-51682200D02*
X118157000Y-51682200D01*
G75*
G02*
X118394500Y-51919700I0J-237500D01*
G01*
X118394500Y-52419700D01*
G75*
G02*
X118157000Y-52657200I-237500J0D01*
G01*
X117682000Y-52657200D01*
G75*
G02*
X117444500Y-52419700I0J237500D01*
G01*
X117444500Y-51919700D01*
G75*
G02*
X117682000Y-51682200I237500J0D01*
G01*
G37*
%TD*%
%TO.C,R28*%
G36*
G01*
X130801100Y-49730200D02*
X131276100Y-49730200D01*
G75*
G02*
X131513600Y-49967700I0J-237500D01*
G01*
X131513600Y-50467700D01*
G75*
G02*
X131276100Y-50705200I-237500J0D01*
G01*
X130801100Y-50705200D01*
G75*
G02*
X130563600Y-50467700I0J237500D01*
G01*
X130563600Y-49967700D01*
G75*
G02*
X130801100Y-49730200I237500J0D01*
G01*
G37*
G36*
G01*
X130801100Y-51555200D02*
X131276100Y-51555200D01*
G75*
G02*
X131513600Y-51792700I0J-237500D01*
G01*
X131513600Y-52292700D01*
G75*
G02*
X131276100Y-52530200I-237500J0D01*
G01*
X130801100Y-52530200D01*
G75*
G02*
X130563600Y-52292700I0J237500D01*
G01*
X130563600Y-51792700D01*
G75*
G02*
X130801100Y-51555200I237500J0D01*
G01*
G37*
%TD*%
%TO.C,R27*%
G36*
G01*
X143297900Y-49882600D02*
X143772900Y-49882600D01*
G75*
G02*
X144010400Y-50120100I0J-237500D01*
G01*
X144010400Y-50620100D01*
G75*
G02*
X143772900Y-50857600I-237500J0D01*
G01*
X143297900Y-50857600D01*
G75*
G02*
X143060400Y-50620100I0J237500D01*
G01*
X143060400Y-50120100D01*
G75*
G02*
X143297900Y-49882600I237500J0D01*
G01*
G37*
G36*
G01*
X143297900Y-51707600D02*
X143772900Y-51707600D01*
G75*
G02*
X144010400Y-51945100I0J-237500D01*
G01*
X144010400Y-52445100D01*
G75*
G02*
X143772900Y-52682600I-237500J0D01*
G01*
X143297900Y-52682600D01*
G75*
G02*
X143060400Y-52445100I0J237500D01*
G01*
X143060400Y-51945100D01*
G75*
G02*
X143297900Y-51707600I237500J0D01*
G01*
G37*
%TD*%
%TO.C,R26*%
G36*
G01*
X68444100Y-51858100D02*
X68919100Y-51858100D01*
G75*
G02*
X69156600Y-52095600I0J-237500D01*
G01*
X69156600Y-52595600D01*
G75*
G02*
X68919100Y-52833100I-237500J0D01*
G01*
X68444100Y-52833100D01*
G75*
G02*
X68206600Y-52595600I0J237500D01*
G01*
X68206600Y-52095600D01*
G75*
G02*
X68444100Y-51858100I237500J0D01*
G01*
G37*
G36*
G01*
X68444100Y-50033100D02*
X68919100Y-50033100D01*
G75*
G02*
X69156600Y-50270600I0J-237500D01*
G01*
X69156600Y-50770600D01*
G75*
G02*
X68919100Y-51008100I-237500J0D01*
G01*
X68444100Y-51008100D01*
G75*
G02*
X68206600Y-50770600I0J237500D01*
G01*
X68206600Y-50270600D01*
G75*
G02*
X68444100Y-50033100I237500J0D01*
G01*
G37*
%TD*%
%TO.C,R25*%
G36*
G01*
X59223900Y-51874600D02*
X59698900Y-51874600D01*
G75*
G02*
X59936400Y-52112100I0J-237500D01*
G01*
X59936400Y-52612100D01*
G75*
G02*
X59698900Y-52849600I-237500J0D01*
G01*
X59223900Y-52849600D01*
G75*
G02*
X58986400Y-52612100I0J237500D01*
G01*
X58986400Y-52112100D01*
G75*
G02*
X59223900Y-51874600I237500J0D01*
G01*
G37*
G36*
G01*
X59223900Y-50049600D02*
X59698900Y-50049600D01*
G75*
G02*
X59936400Y-50287100I0J-237500D01*
G01*
X59936400Y-50787100D01*
G75*
G02*
X59698900Y-51024600I-237500J0D01*
G01*
X59223900Y-51024600D01*
G75*
G02*
X58986400Y-50787100I0J237500D01*
G01*
X58986400Y-50287100D01*
G75*
G02*
X59223900Y-50049600I237500J0D01*
G01*
G37*
%TD*%
%TO.C,R24*%
G36*
G01*
X74819500Y-48106500D02*
X75294500Y-48106500D01*
G75*
G02*
X75532000Y-48344000I0J-237500D01*
G01*
X75532000Y-48844000D01*
G75*
G02*
X75294500Y-49081500I-237500J0D01*
G01*
X74819500Y-49081500D01*
G75*
G02*
X74582000Y-48844000I0J237500D01*
G01*
X74582000Y-48344000D01*
G75*
G02*
X74819500Y-48106500I237500J0D01*
G01*
G37*
G36*
G01*
X74819500Y-49931500D02*
X75294500Y-49931500D01*
G75*
G02*
X75532000Y-50169000I0J-237500D01*
G01*
X75532000Y-50669000D01*
G75*
G02*
X75294500Y-50906500I-237500J0D01*
G01*
X74819500Y-50906500D01*
G75*
G02*
X74582000Y-50669000I0J237500D01*
G01*
X74582000Y-50169000D01*
G75*
G02*
X74819500Y-49931500I237500J0D01*
G01*
G37*
%TD*%
%TO.C,R23*%
G36*
G01*
X87519500Y-48130000D02*
X87994500Y-48130000D01*
G75*
G02*
X88232000Y-48367500I0J-237500D01*
G01*
X88232000Y-48867500D01*
G75*
G02*
X87994500Y-49105000I-237500J0D01*
G01*
X87519500Y-49105000D01*
G75*
G02*
X87282000Y-48867500I0J237500D01*
G01*
X87282000Y-48367500D01*
G75*
G02*
X87519500Y-48130000I237500J0D01*
G01*
G37*
G36*
G01*
X87519500Y-49955000D02*
X87994500Y-49955000D01*
G75*
G02*
X88232000Y-50192500I0J-237500D01*
G01*
X88232000Y-50692500D01*
G75*
G02*
X87994500Y-50930000I-237500J0D01*
G01*
X87519500Y-50930000D01*
G75*
G02*
X87282000Y-50692500I0J237500D01*
G01*
X87282000Y-50192500D01*
G75*
G02*
X87519500Y-49955000I237500J0D01*
G01*
G37*
%TD*%
%TO.C,R22*%
G36*
G01*
X100168700Y-49929600D02*
X100643700Y-49929600D01*
G75*
G02*
X100881200Y-50167100I0J-237500D01*
G01*
X100881200Y-50667100D01*
G75*
G02*
X100643700Y-50904600I-237500J0D01*
G01*
X100168700Y-50904600D01*
G75*
G02*
X99931200Y-50667100I0J237500D01*
G01*
X99931200Y-50167100D01*
G75*
G02*
X100168700Y-49929600I237500J0D01*
G01*
G37*
G36*
G01*
X100168700Y-48104600D02*
X100643700Y-48104600D01*
G75*
G02*
X100881200Y-48342100I0J-237500D01*
G01*
X100881200Y-48842100D01*
G75*
G02*
X100643700Y-49079600I-237500J0D01*
G01*
X100168700Y-49079600D01*
G75*
G02*
X99931200Y-48842100I0J237500D01*
G01*
X99931200Y-48342100D01*
G75*
G02*
X100168700Y-48104600I237500J0D01*
G01*
G37*
%TD*%
%TO.C,R21*%
G36*
G01*
X112919500Y-48130000D02*
X113394500Y-48130000D01*
G75*
G02*
X113632000Y-48367500I0J-237500D01*
G01*
X113632000Y-48867500D01*
G75*
G02*
X113394500Y-49105000I-237500J0D01*
G01*
X112919500Y-49105000D01*
G75*
G02*
X112682000Y-48867500I0J237500D01*
G01*
X112682000Y-48367500D01*
G75*
G02*
X112919500Y-48130000I237500J0D01*
G01*
G37*
G36*
G01*
X112919500Y-49955000D02*
X113394500Y-49955000D01*
G75*
G02*
X113632000Y-50192500I0J-237500D01*
G01*
X113632000Y-50692500D01*
G75*
G02*
X113394500Y-50930000I-237500J0D01*
G01*
X112919500Y-50930000D01*
G75*
G02*
X112682000Y-50692500I0J237500D01*
G01*
X112682000Y-50192500D01*
G75*
G02*
X112919500Y-49955000I237500J0D01*
G01*
G37*
%TD*%
%TO.C,R20*%
G36*
G01*
X125644900Y-47977600D02*
X126119900Y-47977600D01*
G75*
G02*
X126357400Y-48215100I0J-237500D01*
G01*
X126357400Y-48715100D01*
G75*
G02*
X126119900Y-48952600I-237500J0D01*
G01*
X125644900Y-48952600D01*
G75*
G02*
X125407400Y-48715100I0J237500D01*
G01*
X125407400Y-48215100D01*
G75*
G02*
X125644900Y-47977600I237500J0D01*
G01*
G37*
G36*
G01*
X125644900Y-49802600D02*
X126119900Y-49802600D01*
G75*
G02*
X126357400Y-50040100I0J-237500D01*
G01*
X126357400Y-50540100D01*
G75*
G02*
X126119900Y-50777600I-237500J0D01*
G01*
X125644900Y-50777600D01*
G75*
G02*
X125407400Y-50540100I0J237500D01*
G01*
X125407400Y-50040100D01*
G75*
G02*
X125644900Y-49802600I237500J0D01*
G01*
G37*
%TD*%
%TO.C,R19*%
G36*
G01*
X138319500Y-48003000D02*
X138794500Y-48003000D01*
G75*
G02*
X139032000Y-48240500I0J-237500D01*
G01*
X139032000Y-48740500D01*
G75*
G02*
X138794500Y-48978000I-237500J0D01*
G01*
X138319500Y-48978000D01*
G75*
G02*
X138082000Y-48740500I0J237500D01*
G01*
X138082000Y-48240500D01*
G75*
G02*
X138319500Y-48003000I237500J0D01*
G01*
G37*
G36*
G01*
X138319500Y-49828000D02*
X138794500Y-49828000D01*
G75*
G02*
X139032000Y-50065500I0J-237500D01*
G01*
X139032000Y-50565500D01*
G75*
G02*
X138794500Y-50803000I-237500J0D01*
G01*
X138319500Y-50803000D01*
G75*
G02*
X138082000Y-50565500I0J237500D01*
G01*
X138082000Y-50065500D01*
G75*
G02*
X138319500Y-49828000I237500J0D01*
G01*
G37*
%TD*%
%TO.C,R18*%
G36*
G01*
X63135500Y-50082000D02*
X63610500Y-50082000D01*
G75*
G02*
X63848000Y-50319500I0J-237500D01*
G01*
X63848000Y-50819500D01*
G75*
G02*
X63610500Y-51057000I-237500J0D01*
G01*
X63135500Y-51057000D01*
G75*
G02*
X62898000Y-50819500I0J237500D01*
G01*
X62898000Y-50319500D01*
G75*
G02*
X63135500Y-50082000I237500J0D01*
G01*
G37*
G36*
G01*
X63135500Y-48257000D02*
X63610500Y-48257000D01*
G75*
G02*
X63848000Y-48494500I0J-237500D01*
G01*
X63848000Y-48994500D01*
G75*
G02*
X63610500Y-49232000I-237500J0D01*
G01*
X63135500Y-49232000D01*
G75*
G02*
X62898000Y-48994500I0J237500D01*
G01*
X62898000Y-48494500D01*
G75*
G02*
X63135500Y-48257000I237500J0D01*
G01*
G37*
%TD*%
%TO.C,R17*%
G36*
G01*
X54118500Y-50029300D02*
X54593500Y-50029300D01*
G75*
G02*
X54831000Y-50266800I0J-237500D01*
G01*
X54831000Y-50766800D01*
G75*
G02*
X54593500Y-51004300I-237500J0D01*
G01*
X54118500Y-51004300D01*
G75*
G02*
X53881000Y-50766800I0J237500D01*
G01*
X53881000Y-50266800D01*
G75*
G02*
X54118500Y-50029300I237500J0D01*
G01*
G37*
G36*
G01*
X54118500Y-48204300D02*
X54593500Y-48204300D01*
G75*
G02*
X54831000Y-48441800I0J-237500D01*
G01*
X54831000Y-48941800D01*
G75*
G02*
X54593500Y-49179300I-237500J0D01*
G01*
X54118500Y-49179300D01*
G75*
G02*
X53881000Y-48941800I0J237500D01*
G01*
X53881000Y-48441800D01*
G75*
G02*
X54118500Y-48204300I237500J0D01*
G01*
G37*
%TD*%
%TO.C,R16*%
G36*
G01*
X73504600Y-90382100D02*
X73504600Y-89907100D01*
G75*
G02*
X73742100Y-89669600I237500J0D01*
G01*
X74242100Y-89669600D01*
G75*
G02*
X74479600Y-89907100I0J-237500D01*
G01*
X74479600Y-90382100D01*
G75*
G02*
X74242100Y-90619600I-237500J0D01*
G01*
X73742100Y-90619600D01*
G75*
G02*
X73504600Y-90382100I0J237500D01*
G01*
G37*
G36*
G01*
X75329600Y-90382100D02*
X75329600Y-89907100D01*
G75*
G02*
X75567100Y-89669600I237500J0D01*
G01*
X76067100Y-89669600D01*
G75*
G02*
X76304600Y-89907100I0J-237500D01*
G01*
X76304600Y-90382100D01*
G75*
G02*
X76067100Y-90619600I-237500J0D01*
G01*
X75567100Y-90619600D01*
G75*
G02*
X75329600Y-90382100I0J237500D01*
G01*
G37*
%TD*%
%TO.C,R15*%
G36*
G01*
X73504600Y-86572100D02*
X73504600Y-86097100D01*
G75*
G02*
X73742100Y-85859600I237500J0D01*
G01*
X74242100Y-85859600D01*
G75*
G02*
X74479600Y-86097100I0J-237500D01*
G01*
X74479600Y-86572100D01*
G75*
G02*
X74242100Y-86809600I-237500J0D01*
G01*
X73742100Y-86809600D01*
G75*
G02*
X73504600Y-86572100I0J237500D01*
G01*
G37*
G36*
G01*
X75329600Y-86572100D02*
X75329600Y-86097100D01*
G75*
G02*
X75567100Y-85859600I237500J0D01*
G01*
X76067100Y-85859600D01*
G75*
G02*
X76304600Y-86097100I0J-237500D01*
G01*
X76304600Y-86572100D01*
G75*
G02*
X76067100Y-86809600I-237500J0D01*
G01*
X75567100Y-86809600D01*
G75*
G02*
X75329600Y-86572100I0J237500D01*
G01*
G37*
%TD*%
%TO.C,R13*%
G36*
G01*
X87562700Y-84051600D02*
X87087700Y-84051600D01*
G75*
G02*
X86850200Y-83814100I0J237500D01*
G01*
X86850200Y-83314100D01*
G75*
G02*
X87087700Y-83076600I237500J0D01*
G01*
X87562700Y-83076600D01*
G75*
G02*
X87800200Y-83314100I0J-237500D01*
G01*
X87800200Y-83814100D01*
G75*
G02*
X87562700Y-84051600I-237500J0D01*
G01*
G37*
G36*
G01*
X87562700Y-82226600D02*
X87087700Y-82226600D01*
G75*
G02*
X86850200Y-81989100I0J237500D01*
G01*
X86850200Y-81489100D01*
G75*
G02*
X87087700Y-81251600I237500J0D01*
G01*
X87562700Y-81251600D01*
G75*
G02*
X87800200Y-81489100I0J-237500D01*
G01*
X87800200Y-81989100D01*
G75*
G02*
X87562700Y-82226600I-237500J0D01*
G01*
G37*
%TD*%
%TO.C,R12*%
G36*
G01*
X95995500Y-82021500D02*
X95520500Y-82021500D01*
G75*
G02*
X95283000Y-81784000I0J237500D01*
G01*
X95283000Y-81284000D01*
G75*
G02*
X95520500Y-81046500I237500J0D01*
G01*
X95995500Y-81046500D01*
G75*
G02*
X96233000Y-81284000I0J-237500D01*
G01*
X96233000Y-81784000D01*
G75*
G02*
X95995500Y-82021500I-237500J0D01*
G01*
G37*
G36*
G01*
X95995500Y-83846500D02*
X95520500Y-83846500D01*
G75*
G02*
X95283000Y-83609000I0J237500D01*
G01*
X95283000Y-83109000D01*
G75*
G02*
X95520500Y-82871500I237500J0D01*
G01*
X95995500Y-82871500D01*
G75*
G02*
X96233000Y-83109000I0J-237500D01*
G01*
X96233000Y-83609000D01*
G75*
G02*
X95995500Y-83846500I-237500J0D01*
G01*
G37*
%TD*%
%TO.C,R11*%
G36*
G01*
X104250500Y-82021500D02*
X103775500Y-82021500D01*
G75*
G02*
X103538000Y-81784000I0J237500D01*
G01*
X103538000Y-81284000D01*
G75*
G02*
X103775500Y-81046500I237500J0D01*
G01*
X104250500Y-81046500D01*
G75*
G02*
X104488000Y-81284000I0J-237500D01*
G01*
X104488000Y-81784000D01*
G75*
G02*
X104250500Y-82021500I-237500J0D01*
G01*
G37*
G36*
G01*
X104250500Y-83846500D02*
X103775500Y-83846500D01*
G75*
G02*
X103538000Y-83609000I0J237500D01*
G01*
X103538000Y-83109000D01*
G75*
G02*
X103775500Y-82871500I237500J0D01*
G01*
X104250500Y-82871500D01*
G75*
G02*
X104488000Y-83109000I0J-237500D01*
G01*
X104488000Y-83609000D01*
G75*
G02*
X104250500Y-83846500I-237500J0D01*
G01*
G37*
%TD*%
%TO.C,R10*%
G36*
G01*
X112632500Y-81894500D02*
X112157500Y-81894500D01*
G75*
G02*
X111920000Y-81657000I0J237500D01*
G01*
X111920000Y-81157000D01*
G75*
G02*
X112157500Y-80919500I237500J0D01*
G01*
X112632500Y-80919500D01*
G75*
G02*
X112870000Y-81157000I0J-237500D01*
G01*
X112870000Y-81657000D01*
G75*
G02*
X112632500Y-81894500I-237500J0D01*
G01*
G37*
G36*
G01*
X112632500Y-83719500D02*
X112157500Y-83719500D01*
G75*
G02*
X111920000Y-83482000I0J237500D01*
G01*
X111920000Y-82982000D01*
G75*
G02*
X112157500Y-82744500I237500J0D01*
G01*
X112632500Y-82744500D01*
G75*
G02*
X112870000Y-82982000I0J-237500D01*
G01*
X112870000Y-83482000D01*
G75*
G02*
X112632500Y-83719500I-237500J0D01*
G01*
G37*
%TD*%
%TO.C,R9*%
G36*
G01*
X120887500Y-83846500D02*
X120412500Y-83846500D01*
G75*
G02*
X120175000Y-83609000I0J237500D01*
G01*
X120175000Y-83109000D01*
G75*
G02*
X120412500Y-82871500I237500J0D01*
G01*
X120887500Y-82871500D01*
G75*
G02*
X121125000Y-83109000I0J-237500D01*
G01*
X121125000Y-83609000D01*
G75*
G02*
X120887500Y-83846500I-237500J0D01*
G01*
G37*
G36*
G01*
X120887500Y-82021500D02*
X120412500Y-82021500D01*
G75*
G02*
X120175000Y-81784000I0J237500D01*
G01*
X120175000Y-81284000D01*
G75*
G02*
X120412500Y-81046500I237500J0D01*
G01*
X120887500Y-81046500D01*
G75*
G02*
X121125000Y-81284000I0J-237500D01*
G01*
X121125000Y-81784000D01*
G75*
G02*
X120887500Y-82021500I-237500J0D01*
G01*
G37*
%TD*%
%TO.C,R8*%
G36*
G01*
X129396500Y-82021500D02*
X128921500Y-82021500D01*
G75*
G02*
X128684000Y-81784000I0J237500D01*
G01*
X128684000Y-81284000D01*
G75*
G02*
X128921500Y-81046500I237500J0D01*
G01*
X129396500Y-81046500D01*
G75*
G02*
X129634000Y-81284000I0J-237500D01*
G01*
X129634000Y-81784000D01*
G75*
G02*
X129396500Y-82021500I-237500J0D01*
G01*
G37*
G36*
G01*
X129396500Y-83846500D02*
X128921500Y-83846500D01*
G75*
G02*
X128684000Y-83609000I0J237500D01*
G01*
X128684000Y-83109000D01*
G75*
G02*
X128921500Y-82871500I237500J0D01*
G01*
X129396500Y-82871500D01*
G75*
G02*
X129634000Y-83109000I0J-237500D01*
G01*
X129634000Y-83609000D01*
G75*
G02*
X129396500Y-83846500I-237500J0D01*
G01*
G37*
%TD*%
%TO.C,R7*%
G36*
G01*
X137651500Y-82021500D02*
X137176500Y-82021500D01*
G75*
G02*
X136939000Y-81784000I0J237500D01*
G01*
X136939000Y-81284000D01*
G75*
G02*
X137176500Y-81046500I237500J0D01*
G01*
X137651500Y-81046500D01*
G75*
G02*
X137889000Y-81284000I0J-237500D01*
G01*
X137889000Y-81784000D01*
G75*
G02*
X137651500Y-82021500I-237500J0D01*
G01*
G37*
G36*
G01*
X137651500Y-83846500D02*
X137176500Y-83846500D01*
G75*
G02*
X136939000Y-83609000I0J237500D01*
G01*
X136939000Y-83109000D01*
G75*
G02*
X137176500Y-82871500I237500J0D01*
G01*
X137651500Y-82871500D01*
G75*
G02*
X137889000Y-83109000I0J-237500D01*
G01*
X137889000Y-83609000D01*
G75*
G02*
X137651500Y-83846500I-237500J0D01*
G01*
G37*
%TD*%
%TO.C,R6*%
G36*
G01*
X146287500Y-82021500D02*
X145812500Y-82021500D01*
G75*
G02*
X145575000Y-81784000I0J237500D01*
G01*
X145575000Y-81284000D01*
G75*
G02*
X145812500Y-81046500I237500J0D01*
G01*
X146287500Y-81046500D01*
G75*
G02*
X146525000Y-81284000I0J-237500D01*
G01*
X146525000Y-81784000D01*
G75*
G02*
X146287500Y-82021500I-237500J0D01*
G01*
G37*
G36*
G01*
X146287500Y-83846500D02*
X145812500Y-83846500D01*
G75*
G02*
X145575000Y-83609000I0J237500D01*
G01*
X145575000Y-83109000D01*
G75*
G02*
X145812500Y-82871500I237500J0D01*
G01*
X146287500Y-82871500D01*
G75*
G02*
X146525000Y-83109000I0J-237500D01*
G01*
X146525000Y-83609000D01*
G75*
G02*
X146287500Y-83846500I-237500J0D01*
G01*
G37*
%TD*%
%TO.C,R5*%
G36*
G01*
X73930500Y-73704000D02*
X74405500Y-73704000D01*
G75*
G02*
X74643000Y-73941500I0J-237500D01*
G01*
X74643000Y-74441500D01*
G75*
G02*
X74405500Y-74679000I-237500J0D01*
G01*
X73930500Y-74679000D01*
G75*
G02*
X73693000Y-74441500I0J237500D01*
G01*
X73693000Y-73941500D01*
G75*
G02*
X73930500Y-73704000I237500J0D01*
G01*
G37*
G36*
G01*
X73930500Y-71879000D02*
X74405500Y-71879000D01*
G75*
G02*
X74643000Y-72116500I0J-237500D01*
G01*
X74643000Y-72616500D01*
G75*
G02*
X74405500Y-72854000I-237500J0D01*
G01*
X73930500Y-72854000D01*
G75*
G02*
X73693000Y-72616500I0J237500D01*
G01*
X73693000Y-72116500D01*
G75*
G02*
X73930500Y-71879000I237500J0D01*
G01*
G37*
%TD*%
%TO.C,R3*%
G36*
G01*
X64028500Y-64372500D02*
X64028500Y-63897500D01*
G75*
G02*
X64266000Y-63660000I237500J0D01*
G01*
X64766000Y-63660000D01*
G75*
G02*
X65003500Y-63897500I0J-237500D01*
G01*
X65003500Y-64372500D01*
G75*
G02*
X64766000Y-64610000I-237500J0D01*
G01*
X64266000Y-64610000D01*
G75*
G02*
X64028500Y-64372500I0J237500D01*
G01*
G37*
G36*
G01*
X62203500Y-64372500D02*
X62203500Y-63897500D01*
G75*
G02*
X62441000Y-63660000I237500J0D01*
G01*
X62941000Y-63660000D01*
G75*
G02*
X63178500Y-63897500I0J-237500D01*
G01*
X63178500Y-64372500D01*
G75*
G02*
X62941000Y-64610000I-237500J0D01*
G01*
X62441000Y-64610000D01*
G75*
G02*
X62203500Y-64372500I0J237500D01*
G01*
G37*
%TD*%
%TO.C,R2*%
G36*
G01*
X80280500Y-73704000D02*
X80755500Y-73704000D01*
G75*
G02*
X80993000Y-73941500I0J-237500D01*
G01*
X80993000Y-74441500D01*
G75*
G02*
X80755500Y-74679000I-237500J0D01*
G01*
X80280500Y-74679000D01*
G75*
G02*
X80043000Y-74441500I0J237500D01*
G01*
X80043000Y-73941500D01*
G75*
G02*
X80280500Y-73704000I237500J0D01*
G01*
G37*
G36*
G01*
X80280500Y-71879000D02*
X80755500Y-71879000D01*
G75*
G02*
X80993000Y-72116500I0J-237500D01*
G01*
X80993000Y-72616500D01*
G75*
G02*
X80755500Y-72854000I-237500J0D01*
G01*
X80280500Y-72854000D01*
G75*
G02*
X80043000Y-72616500I0J237500D01*
G01*
X80043000Y-72116500D01*
G75*
G02*
X80280500Y-71879000I237500J0D01*
G01*
G37*
%TD*%
%TO.C,R1*%
G36*
G01*
X63872300Y-73237100D02*
X63872300Y-72762100D01*
G75*
G02*
X64109800Y-72524600I237500J0D01*
G01*
X64609800Y-72524600D01*
G75*
G02*
X64847300Y-72762100I0J-237500D01*
G01*
X64847300Y-73237100D01*
G75*
G02*
X64609800Y-73474600I-237500J0D01*
G01*
X64109800Y-73474600D01*
G75*
G02*
X63872300Y-73237100I0J237500D01*
G01*
G37*
G36*
G01*
X62047300Y-73237100D02*
X62047300Y-72762100D01*
G75*
G02*
X62284800Y-72524600I237500J0D01*
G01*
X62784800Y-72524600D01*
G75*
G02*
X63022300Y-72762100I0J-237500D01*
G01*
X63022300Y-73237100D01*
G75*
G02*
X62784800Y-73474600I-237500J0D01*
G01*
X62284800Y-73474600D01*
G75*
G02*
X62047300Y-73237100I0J237500D01*
G01*
G37*
%TD*%
D11*
%TO.C,Q8*%
X80261500Y-55159400D03*
X78361500Y-55159400D03*
X79311500Y-57159400D03*
%TD*%
%TO.C,Q7*%
X93126600Y-55159400D03*
X91226600Y-55159400D03*
X92176600Y-57159400D03*
%TD*%
%TO.C,Q6*%
X105521800Y-55108600D03*
X103621800Y-55108600D03*
X104571800Y-57108600D03*
%TD*%
%TO.C,Q5*%
X117967800Y-55210200D03*
X116067800Y-55210200D03*
X117017800Y-57210200D03*
%TD*%
%TO.C,Q4*%
X131023400Y-55159400D03*
X129123400Y-55159400D03*
X130073400Y-57159400D03*
%TD*%
%TO.C,Q3*%
X143469400Y-55057800D03*
X141569400Y-55057800D03*
X142519400Y-57057800D03*
%TD*%
%TO.C,Q2*%
X67741800Y-56753000D03*
X66791800Y-54753000D03*
X68691800Y-54753000D03*
%TD*%
%TO.C,Q1*%
X58511400Y-56483000D03*
X57561400Y-54483000D03*
X59461400Y-54483000D03*
%TD*%
%TO.C,D24*%
G36*
G01*
X78596500Y-52682600D02*
X78121500Y-52682600D01*
G75*
G02*
X77884000Y-52445100I0J237500D01*
G01*
X77884000Y-51870100D01*
G75*
G02*
X78121500Y-51632600I237500J0D01*
G01*
X78596500Y-51632600D01*
G75*
G02*
X78834000Y-51870100I0J-237500D01*
G01*
X78834000Y-52445100D01*
G75*
G02*
X78596500Y-52682600I-237500J0D01*
G01*
G37*
G36*
G01*
X78596500Y-50932600D02*
X78121500Y-50932600D01*
G75*
G02*
X77884000Y-50695100I0J237500D01*
G01*
X77884000Y-50120100D01*
G75*
G02*
X78121500Y-49882600I237500J0D01*
G01*
X78596500Y-49882600D01*
G75*
G02*
X78834000Y-50120100I0J-237500D01*
G01*
X78834000Y-50695100D01*
G75*
G02*
X78596500Y-50932600I-237500J0D01*
G01*
G37*
%TD*%
%TO.C,D23*%
G36*
G01*
X91474300Y-52733400D02*
X90999300Y-52733400D01*
G75*
G02*
X90761800Y-52495900I0J237500D01*
G01*
X90761800Y-51920900D01*
G75*
G02*
X90999300Y-51683400I237500J0D01*
G01*
X91474300Y-51683400D01*
G75*
G02*
X91711800Y-51920900I0J-237500D01*
G01*
X91711800Y-52495900D01*
G75*
G02*
X91474300Y-52733400I-237500J0D01*
G01*
G37*
G36*
G01*
X91474300Y-50983400D02*
X90999300Y-50983400D01*
G75*
G02*
X90761800Y-50745900I0J237500D01*
G01*
X90761800Y-50170900D01*
G75*
G02*
X90999300Y-49933400I237500J0D01*
G01*
X91474300Y-49933400D01*
G75*
G02*
X91711800Y-50170900I0J-237500D01*
G01*
X91711800Y-50745900D01*
G75*
G02*
X91474300Y-50983400I-237500J0D01*
G01*
G37*
%TD*%
%TO.C,D22*%
G36*
G01*
X103844100Y-52682600D02*
X103369100Y-52682600D01*
G75*
G02*
X103131600Y-52445100I0J237500D01*
G01*
X103131600Y-51870100D01*
G75*
G02*
X103369100Y-51632600I237500J0D01*
G01*
X103844100Y-51632600D01*
G75*
G02*
X104081600Y-51870100I0J-237500D01*
G01*
X104081600Y-52445100D01*
G75*
G02*
X103844100Y-52682600I-237500J0D01*
G01*
G37*
G36*
G01*
X103844100Y-50932600D02*
X103369100Y-50932600D01*
G75*
G02*
X103131600Y-50695100I0J237500D01*
G01*
X103131600Y-50120100D01*
G75*
G02*
X103369100Y-49882600I237500J0D01*
G01*
X103844100Y-49882600D01*
G75*
G02*
X104081600Y-50120100I0J-237500D01*
G01*
X104081600Y-50695100D01*
G75*
G02*
X103844100Y-50932600I-237500J0D01*
G01*
G37*
%TD*%
%TO.C,D21*%
G36*
G01*
X116277400Y-52657200D02*
X115802400Y-52657200D01*
G75*
G02*
X115564900Y-52419700I0J237500D01*
G01*
X115564900Y-51844700D01*
G75*
G02*
X115802400Y-51607200I237500J0D01*
G01*
X116277400Y-51607200D01*
G75*
G02*
X116514900Y-51844700I0J-237500D01*
G01*
X116514900Y-52419700D01*
G75*
G02*
X116277400Y-52657200I-237500J0D01*
G01*
G37*
G36*
G01*
X116277400Y-50907200D02*
X115802400Y-50907200D01*
G75*
G02*
X115564900Y-50669700I0J237500D01*
G01*
X115564900Y-50094700D01*
G75*
G02*
X115802400Y-49857200I237500J0D01*
G01*
X116277400Y-49857200D01*
G75*
G02*
X116514900Y-50094700I0J-237500D01*
G01*
X116514900Y-50669700D01*
G75*
G02*
X116277400Y-50907200I-237500J0D01*
G01*
G37*
%TD*%
%TO.C,D20*%
G36*
G01*
X129345700Y-52542900D02*
X128870700Y-52542900D01*
G75*
G02*
X128633200Y-52305400I0J237500D01*
G01*
X128633200Y-51730400D01*
G75*
G02*
X128870700Y-51492900I237500J0D01*
G01*
X129345700Y-51492900D01*
G75*
G02*
X129583200Y-51730400I0J-237500D01*
G01*
X129583200Y-52305400D01*
G75*
G02*
X129345700Y-52542900I-237500J0D01*
G01*
G37*
G36*
G01*
X129345700Y-50792900D02*
X128870700Y-50792900D01*
G75*
G02*
X128633200Y-50555400I0J237500D01*
G01*
X128633200Y-49980400D01*
G75*
G02*
X128870700Y-49742900I237500J0D01*
G01*
X129345700Y-49742900D01*
G75*
G02*
X129583200Y-49980400I0J-237500D01*
G01*
X129583200Y-50555400D01*
G75*
G02*
X129345700Y-50792900I-237500J0D01*
G01*
G37*
%TD*%
%TO.C,D19*%
G36*
G01*
X141817100Y-50856400D02*
X141342100Y-50856400D01*
G75*
G02*
X141104600Y-50618900I0J237500D01*
G01*
X141104600Y-50043900D01*
G75*
G02*
X141342100Y-49806400I237500J0D01*
G01*
X141817100Y-49806400D01*
G75*
G02*
X142054600Y-50043900I0J-237500D01*
G01*
X142054600Y-50618900D01*
G75*
G02*
X141817100Y-50856400I-237500J0D01*
G01*
G37*
G36*
G01*
X141817100Y-52606400D02*
X141342100Y-52606400D01*
G75*
G02*
X141104600Y-52368900I0J237500D01*
G01*
X141104600Y-51793900D01*
G75*
G02*
X141342100Y-51556400I237500J0D01*
G01*
X141817100Y-51556400D01*
G75*
G02*
X142054600Y-51793900I0J-237500D01*
G01*
X142054600Y-52368900D01*
G75*
G02*
X141817100Y-52606400I-237500J0D01*
G01*
G37*
%TD*%
%TO.C,D18*%
G36*
G01*
X67090300Y-51034200D02*
X66615300Y-51034200D01*
G75*
G02*
X66377800Y-50796700I0J237500D01*
G01*
X66377800Y-50221700D01*
G75*
G02*
X66615300Y-49984200I237500J0D01*
G01*
X67090300Y-49984200D01*
G75*
G02*
X67327800Y-50221700I0J-237500D01*
G01*
X67327800Y-50796700D01*
G75*
G02*
X67090300Y-51034200I-237500J0D01*
G01*
G37*
G36*
G01*
X67090300Y-52784200D02*
X66615300Y-52784200D01*
G75*
G02*
X66377800Y-52546700I0J237500D01*
G01*
X66377800Y-51971700D01*
G75*
G02*
X66615300Y-51734200I237500J0D01*
G01*
X67090300Y-51734200D01*
G75*
G02*
X67327800Y-51971700I0J-237500D01*
G01*
X67327800Y-52546700D01*
G75*
G02*
X67090300Y-52784200I-237500J0D01*
G01*
G37*
%TD*%
%TO.C,D17*%
G36*
G01*
X57793900Y-51045600D02*
X57318900Y-51045600D01*
G75*
G02*
X57081400Y-50808100I0J237500D01*
G01*
X57081400Y-50233100D01*
G75*
G02*
X57318900Y-49995600I237500J0D01*
G01*
X57793900Y-49995600D01*
G75*
G02*
X58031400Y-50233100I0J-237500D01*
G01*
X58031400Y-50808100D01*
G75*
G02*
X57793900Y-51045600I-237500J0D01*
G01*
G37*
G36*
G01*
X57793900Y-52795600D02*
X57318900Y-52795600D01*
G75*
G02*
X57081400Y-52558100I0J237500D01*
G01*
X57081400Y-51983100D01*
G75*
G02*
X57318900Y-51745600I237500J0D01*
G01*
X57793900Y-51745600D01*
G75*
G02*
X58031400Y-51983100I0J-237500D01*
G01*
X58031400Y-52558100D01*
G75*
G02*
X57793900Y-52795600I-237500J0D01*
G01*
G37*
%TD*%
%TO.C,D16*%
G36*
G01*
X68537600Y-90382100D02*
X68537600Y-89907100D01*
G75*
G02*
X68775100Y-89669600I237500J0D01*
G01*
X69350100Y-89669600D01*
G75*
G02*
X69587600Y-89907100I0J-237500D01*
G01*
X69587600Y-90382100D01*
G75*
G02*
X69350100Y-90619600I-237500J0D01*
G01*
X68775100Y-90619600D01*
G75*
G02*
X68537600Y-90382100I0J237500D01*
G01*
G37*
G36*
G01*
X70287600Y-90382100D02*
X70287600Y-89907100D01*
G75*
G02*
X70525100Y-89669600I237500J0D01*
G01*
X71100100Y-89669600D01*
G75*
G02*
X71337600Y-89907100I0J-237500D01*
G01*
X71337600Y-90382100D01*
G75*
G02*
X71100100Y-90619600I-237500J0D01*
G01*
X70525100Y-90619600D01*
G75*
G02*
X70287600Y-90382100I0J237500D01*
G01*
G37*
%TD*%
%TO.C,D15*%
G36*
G01*
X68551600Y-86572100D02*
X68551600Y-86097100D01*
G75*
G02*
X68789100Y-85859600I237500J0D01*
G01*
X69364100Y-85859600D01*
G75*
G02*
X69601600Y-86097100I0J-237500D01*
G01*
X69601600Y-86572100D01*
G75*
G02*
X69364100Y-86809600I-237500J0D01*
G01*
X68789100Y-86809600D01*
G75*
G02*
X68551600Y-86572100I0J237500D01*
G01*
G37*
G36*
G01*
X70301600Y-86572100D02*
X70301600Y-86097100D01*
G75*
G02*
X70539100Y-85859600I237500J0D01*
G01*
X71114100Y-85859600D01*
G75*
G02*
X71351600Y-86097100I0J-237500D01*
G01*
X71351600Y-86572100D01*
G75*
G02*
X71114100Y-86809600I-237500J0D01*
G01*
X70539100Y-86809600D01*
G75*
G02*
X70301600Y-86572100I0J237500D01*
G01*
G37*
%TD*%
%TO.C,D13*%
G36*
G01*
X83023700Y-81265600D02*
X83498700Y-81265600D01*
G75*
G02*
X83736200Y-81503100I0J-237500D01*
G01*
X83736200Y-82078100D01*
G75*
G02*
X83498700Y-82315600I-237500J0D01*
G01*
X83023700Y-82315600D01*
G75*
G02*
X82786200Y-82078100I0J237500D01*
G01*
X82786200Y-81503100D01*
G75*
G02*
X83023700Y-81265600I237500J0D01*
G01*
G37*
G36*
G01*
X83023700Y-83015600D02*
X83498700Y-83015600D01*
G75*
G02*
X83736200Y-83253100I0J-237500D01*
G01*
X83736200Y-83828100D01*
G75*
G02*
X83498700Y-84065600I-237500J0D01*
G01*
X83023700Y-84065600D01*
G75*
G02*
X82786200Y-83828100I0J237500D01*
G01*
X82786200Y-83253100D01*
G75*
G02*
X83023700Y-83015600I237500J0D01*
G01*
G37*
%TD*%
%TO.C,D12*%
G36*
G01*
X91405700Y-82849200D02*
X91880700Y-82849200D01*
G75*
G02*
X92118200Y-83086700I0J-237500D01*
G01*
X92118200Y-83661700D01*
G75*
G02*
X91880700Y-83899200I-237500J0D01*
G01*
X91405700Y-83899200D01*
G75*
G02*
X91168200Y-83661700I0J237500D01*
G01*
X91168200Y-83086700D01*
G75*
G02*
X91405700Y-82849200I237500J0D01*
G01*
G37*
G36*
G01*
X91405700Y-81099200D02*
X91880700Y-81099200D01*
G75*
G02*
X92118200Y-81336700I0J-237500D01*
G01*
X92118200Y-81911700D01*
G75*
G02*
X91880700Y-82149200I-237500J0D01*
G01*
X91405700Y-82149200D01*
G75*
G02*
X91168200Y-81911700I0J237500D01*
G01*
X91168200Y-81336700D01*
G75*
G02*
X91405700Y-81099200I237500J0D01*
G01*
G37*
%TD*%
%TO.C,D11*%
G36*
G01*
X99686100Y-82849200D02*
X100161100Y-82849200D01*
G75*
G02*
X100398600Y-83086700I0J-237500D01*
G01*
X100398600Y-83661700D01*
G75*
G02*
X100161100Y-83899200I-237500J0D01*
G01*
X99686100Y-83899200D01*
G75*
G02*
X99448600Y-83661700I0J237500D01*
G01*
X99448600Y-83086700D01*
G75*
G02*
X99686100Y-82849200I237500J0D01*
G01*
G37*
G36*
G01*
X99686100Y-81099200D02*
X100161100Y-81099200D01*
G75*
G02*
X100398600Y-81336700I0J-237500D01*
G01*
X100398600Y-81911700D01*
G75*
G02*
X100161100Y-82149200I-237500J0D01*
G01*
X99686100Y-82149200D01*
G75*
G02*
X99448600Y-81911700I0J237500D01*
G01*
X99448600Y-81336700D01*
G75*
G02*
X99686100Y-81099200I237500J0D01*
G01*
G37*
%TD*%
%TO.C,D10*%
G36*
G01*
X108017300Y-82798400D02*
X108492300Y-82798400D01*
G75*
G02*
X108729800Y-83035900I0J-237500D01*
G01*
X108729800Y-83610900D01*
G75*
G02*
X108492300Y-83848400I-237500J0D01*
G01*
X108017300Y-83848400D01*
G75*
G02*
X107779800Y-83610900I0J237500D01*
G01*
X107779800Y-83035900D01*
G75*
G02*
X108017300Y-82798400I237500J0D01*
G01*
G37*
G36*
G01*
X108017300Y-81048400D02*
X108492300Y-81048400D01*
G75*
G02*
X108729800Y-81285900I0J-237500D01*
G01*
X108729800Y-81860900D01*
G75*
G02*
X108492300Y-82098400I-237500J0D01*
G01*
X108017300Y-82098400D01*
G75*
G02*
X107779800Y-81860900I0J237500D01*
G01*
X107779800Y-81285900D01*
G75*
G02*
X108017300Y-81048400I237500J0D01*
G01*
G37*
%TD*%
%TO.C,D9*%
G36*
G01*
X116399300Y-81048400D02*
X116874300Y-81048400D01*
G75*
G02*
X117111800Y-81285900I0J-237500D01*
G01*
X117111800Y-81860900D01*
G75*
G02*
X116874300Y-82098400I-237500J0D01*
G01*
X116399300Y-82098400D01*
G75*
G02*
X116161800Y-81860900I0J237500D01*
G01*
X116161800Y-81285900D01*
G75*
G02*
X116399300Y-81048400I237500J0D01*
G01*
G37*
G36*
G01*
X116399300Y-82798400D02*
X116874300Y-82798400D01*
G75*
G02*
X117111800Y-83035900I0J-237500D01*
G01*
X117111800Y-83610900D01*
G75*
G02*
X116874300Y-83848400I-237500J0D01*
G01*
X116399300Y-83848400D01*
G75*
G02*
X116161800Y-83610900I0J237500D01*
G01*
X116161800Y-83035900D01*
G75*
G02*
X116399300Y-82798400I237500J0D01*
G01*
G37*
%TD*%
%TO.C,D8*%
G36*
G01*
X124628900Y-82849200D02*
X125103900Y-82849200D01*
G75*
G02*
X125341400Y-83086700I0J-237500D01*
G01*
X125341400Y-83661700D01*
G75*
G02*
X125103900Y-83899200I-237500J0D01*
G01*
X124628900Y-83899200D01*
G75*
G02*
X124391400Y-83661700I0J237500D01*
G01*
X124391400Y-83086700D01*
G75*
G02*
X124628900Y-82849200I237500J0D01*
G01*
G37*
G36*
G01*
X124628900Y-81099200D02*
X125103900Y-81099200D01*
G75*
G02*
X125341400Y-81336700I0J-237500D01*
G01*
X125341400Y-81911700D01*
G75*
G02*
X125103900Y-82149200I-237500J0D01*
G01*
X124628900Y-82149200D01*
G75*
G02*
X124391400Y-81911700I0J237500D01*
G01*
X124391400Y-81336700D01*
G75*
G02*
X124628900Y-81099200I237500J0D01*
G01*
G37*
%TD*%
%TO.C,D7*%
G36*
G01*
X133010900Y-82787000D02*
X133485900Y-82787000D01*
G75*
G02*
X133723400Y-83024500I0J-237500D01*
G01*
X133723400Y-83599500D01*
G75*
G02*
X133485900Y-83837000I-237500J0D01*
G01*
X133010900Y-83837000D01*
G75*
G02*
X132773400Y-83599500I0J237500D01*
G01*
X132773400Y-83024500D01*
G75*
G02*
X133010900Y-82787000I237500J0D01*
G01*
G37*
G36*
G01*
X133010900Y-81037000D02*
X133485900Y-81037000D01*
G75*
G02*
X133723400Y-81274500I0J-237500D01*
G01*
X133723400Y-81849500D01*
G75*
G02*
X133485900Y-82087000I-237500J0D01*
G01*
X133010900Y-82087000D01*
G75*
G02*
X132773400Y-81849500I0J237500D01*
G01*
X132773400Y-81274500D01*
G75*
G02*
X133010900Y-81037000I237500J0D01*
G01*
G37*
%TD*%
%TO.C,D6*%
G36*
G01*
X141596100Y-82900000D02*
X142071100Y-82900000D01*
G75*
G02*
X142308600Y-83137500I0J-237500D01*
G01*
X142308600Y-83712500D01*
G75*
G02*
X142071100Y-83950000I-237500J0D01*
G01*
X141596100Y-83950000D01*
G75*
G02*
X141358600Y-83712500I0J237500D01*
G01*
X141358600Y-83137500D01*
G75*
G02*
X141596100Y-82900000I237500J0D01*
G01*
G37*
G36*
G01*
X141596100Y-81150000D02*
X142071100Y-81150000D01*
G75*
G02*
X142308600Y-81387500I0J-237500D01*
G01*
X142308600Y-81962500D01*
G75*
G02*
X142071100Y-82200000I-237500J0D01*
G01*
X141596100Y-82200000D01*
G75*
G02*
X141358600Y-81962500I0J237500D01*
G01*
X141358600Y-81387500D01*
G75*
G02*
X141596100Y-81150000I237500J0D01*
G01*
G37*
%TD*%
%TO.C,D5*%
G36*
G01*
X73930500Y-69946000D02*
X74405500Y-69946000D01*
G75*
G02*
X74643000Y-70183500I0J-237500D01*
G01*
X74643000Y-70758500D01*
G75*
G02*
X74405500Y-70996000I-237500J0D01*
G01*
X73930500Y-70996000D01*
G75*
G02*
X73693000Y-70758500I0J237500D01*
G01*
X73693000Y-70183500D01*
G75*
G02*
X73930500Y-69946000I237500J0D01*
G01*
G37*
G36*
G01*
X73930500Y-68196000D02*
X74405500Y-68196000D01*
G75*
G02*
X74643000Y-68433500I0J-237500D01*
G01*
X74643000Y-69008500D01*
G75*
G02*
X74405500Y-69246000I-237500J0D01*
G01*
X73930500Y-69246000D01*
G75*
G02*
X73693000Y-69008500I0J237500D01*
G01*
X73693000Y-68433500D01*
G75*
G02*
X73930500Y-68196000I237500J0D01*
G01*
G37*
%TD*%
%TO.C,D3*%
G36*
G01*
X60294000Y-64372500D02*
X60294000Y-63897500D01*
G75*
G02*
X60531500Y-63660000I237500J0D01*
G01*
X61106500Y-63660000D01*
G75*
G02*
X61344000Y-63897500I0J-237500D01*
G01*
X61344000Y-64372500D01*
G75*
G02*
X61106500Y-64610000I-237500J0D01*
G01*
X60531500Y-64610000D01*
G75*
G02*
X60294000Y-64372500I0J237500D01*
G01*
G37*
G36*
G01*
X58544000Y-64372500D02*
X58544000Y-63897500D01*
G75*
G02*
X58781500Y-63660000I237500J0D01*
G01*
X59356500Y-63660000D01*
G75*
G02*
X59594000Y-63897500I0J-237500D01*
G01*
X59594000Y-64372500D01*
G75*
G02*
X59356500Y-64610000I-237500J0D01*
G01*
X58781500Y-64610000D01*
G75*
G02*
X58544000Y-64372500I0J237500D01*
G01*
G37*
%TD*%
%TO.C,D2*%
G36*
G01*
X80280500Y-70073000D02*
X80755500Y-70073000D01*
G75*
G02*
X80993000Y-70310500I0J-237500D01*
G01*
X80993000Y-70885500D01*
G75*
G02*
X80755500Y-71123000I-237500J0D01*
G01*
X80280500Y-71123000D01*
G75*
G02*
X80043000Y-70885500I0J237500D01*
G01*
X80043000Y-70310500D01*
G75*
G02*
X80280500Y-70073000I237500J0D01*
G01*
G37*
G36*
G01*
X80280500Y-68323000D02*
X80755500Y-68323000D01*
G75*
G02*
X80993000Y-68560500I0J-237500D01*
G01*
X80993000Y-69135500D01*
G75*
G02*
X80755500Y-69373000I-237500J0D01*
G01*
X80280500Y-69373000D01*
G75*
G02*
X80043000Y-69135500I0J237500D01*
G01*
X80043000Y-68560500D01*
G75*
G02*
X80280500Y-68323000I237500J0D01*
G01*
G37*
%TD*%
%TO.C,D1*%
G36*
G01*
X59914300Y-73237100D02*
X59914300Y-72762100D01*
G75*
G02*
X60151800Y-72524600I237500J0D01*
G01*
X60726800Y-72524600D01*
G75*
G02*
X60964300Y-72762100I0J-237500D01*
G01*
X60964300Y-73237100D01*
G75*
G02*
X60726800Y-73474600I-237500J0D01*
G01*
X60151800Y-73474600D01*
G75*
G02*
X59914300Y-73237100I0J237500D01*
G01*
G37*
G36*
G01*
X58164300Y-73237100D02*
X58164300Y-72762100D01*
G75*
G02*
X58401800Y-72524600I237500J0D01*
G01*
X58976800Y-72524600D01*
G75*
G02*
X59214300Y-72762100I0J-237500D01*
G01*
X59214300Y-73237100D01*
G75*
G02*
X58976800Y-73474600I-237500J0D01*
G01*
X58401800Y-73474600D01*
G75*
G02*
X58164300Y-73237100I0J237500D01*
G01*
G37*
%TD*%
%TO.C,C4*%
G36*
G01*
X72627500Y-72954000D02*
X72152500Y-72954000D01*
G75*
G02*
X71915000Y-72716500I0J237500D01*
G01*
X71915000Y-72116500D01*
G75*
G02*
X72152500Y-71879000I237500J0D01*
G01*
X72627500Y-71879000D01*
G75*
G02*
X72865000Y-72116500I0J-237500D01*
G01*
X72865000Y-72716500D01*
G75*
G02*
X72627500Y-72954000I-237500J0D01*
G01*
G37*
G36*
G01*
X72627500Y-74679000D02*
X72152500Y-74679000D01*
G75*
G02*
X71915000Y-74441500I0J237500D01*
G01*
X71915000Y-73841500D01*
G75*
G02*
X72152500Y-73604000I237500J0D01*
G01*
X72627500Y-73604000D01*
G75*
G02*
X72865000Y-73841500I0J-237500D01*
G01*
X72865000Y-74441500D01*
G75*
G02*
X72627500Y-74679000I-237500J0D01*
G01*
G37*
%TD*%
%TO.C,C3*%
G36*
G01*
X77580500Y-72954000D02*
X77105500Y-72954000D01*
G75*
G02*
X76868000Y-72716500I0J237500D01*
G01*
X76868000Y-72116500D01*
G75*
G02*
X77105500Y-71879000I237500J0D01*
G01*
X77580500Y-71879000D01*
G75*
G02*
X77818000Y-72116500I0J-237500D01*
G01*
X77818000Y-72716500D01*
G75*
G02*
X77580500Y-72954000I-237500J0D01*
G01*
G37*
G36*
G01*
X77580500Y-74679000D02*
X77105500Y-74679000D01*
G75*
G02*
X76868000Y-74441500I0J237500D01*
G01*
X76868000Y-73841500D01*
G75*
G02*
X77105500Y-73604000I237500J0D01*
G01*
X77580500Y-73604000D01*
G75*
G02*
X77818000Y-73841500I0J-237500D01*
G01*
X77818000Y-74441500D01*
G75*
G02*
X77580500Y-74679000I-237500J0D01*
G01*
G37*
%TD*%
%TO.C,C2*%
G36*
G01*
X63302000Y-65802500D02*
X63302000Y-66277500D01*
G75*
G02*
X63064500Y-66515000I-237500J0D01*
G01*
X62464500Y-66515000D01*
G75*
G02*
X62227000Y-66277500I0J237500D01*
G01*
X62227000Y-65802500D01*
G75*
G02*
X62464500Y-65565000I237500J0D01*
G01*
X63064500Y-65565000D01*
G75*
G02*
X63302000Y-65802500I0J-237500D01*
G01*
G37*
G36*
G01*
X65027000Y-65802500D02*
X65027000Y-66277500D01*
G75*
G02*
X64789500Y-66515000I-237500J0D01*
G01*
X64189500Y-66515000D01*
G75*
G02*
X63952000Y-66277500I0J237500D01*
G01*
X63952000Y-65802500D01*
G75*
G02*
X64189500Y-65565000I237500J0D01*
G01*
X64789500Y-65565000D01*
G75*
G02*
X65027000Y-65802500I0J-237500D01*
G01*
G37*
%TD*%
%TO.C,C1*%
G36*
G01*
X63175000Y-70882500D02*
X63175000Y-71357500D01*
G75*
G02*
X62937500Y-71595000I-237500J0D01*
G01*
X62337500Y-71595000D01*
G75*
G02*
X62100000Y-71357500I0J237500D01*
G01*
X62100000Y-70882500D01*
G75*
G02*
X62337500Y-70645000I237500J0D01*
G01*
X62937500Y-70645000D01*
G75*
G02*
X63175000Y-70882500I0J-237500D01*
G01*
G37*
G36*
G01*
X64900000Y-70882500D02*
X64900000Y-71357500D01*
G75*
G02*
X64662500Y-71595000I-237500J0D01*
G01*
X64062500Y-71595000D01*
G75*
G02*
X63825000Y-71357500I0J237500D01*
G01*
X63825000Y-70882500D01*
G75*
G02*
X64062500Y-70645000I237500J0D01*
G01*
X64662500Y-70645000D01*
G75*
G02*
X64900000Y-70882500I0J-237500D01*
G01*
G37*
%TD*%
M02*
