M48
; DRILL file {KiCad (5.1.10)-1} date 12/03/21 23:43:21
; FORMAT={-:-/ absolute / inch / decimal}
; #@! TF.CreationDate,2021-12-03T23:43:21-06:00
; #@! TF.GenerationSoftware,Kicad,Pcbnew,(5.1.10)-1
; #@! TF.FileFunction,Plated,1,2,PTH
FMAT,2
INCH
T1C0.0157
T2C0.0276
T3C0.0295
T4C0.0315
T5C0.0350
T6C0.0354
T7C0.0400
T8C0.0402
T9C0.0591
T10C0.0630
T11C0.1210
T12C0.1280
T13C0.1598
%
G90
G05
T1
X1.83Y-3.44
X1.88Y-3.37
X1.97Y-2.38
X2.405Y-1.97
X2.57Y-1.75
X2.765Y-1.97
X2.82Y-2.606
X2.83Y-2.145
X2.95Y-3.45
X3.02Y-2.504
X3.09Y-3.31
X3.124Y-3.548
X3.134Y-2.464
X3.174Y-3.222
X3.245Y-2.995
X3.255Y-1.97
X3.495Y-3.16
X3.555Y-2.315
X3.78Y-1.9627
X3.805Y-3.14
X3.865Y-2.58
X3.87Y-1.83
X3.92Y-2.305
X4.12Y-3.13
X4.175Y-1.845
X4.25Y-1.965
X4.29Y-1.81
X4.295Y-2.295
X4.42Y-3.14
X4.485Y-2.24
X4.72Y-3.135
X4.755Y-1.965
X4.765Y-2.245
X5.005Y-2.24
X5.015Y-3.15
X5.215Y-2.305
X5.26Y-1.97
X5.38Y-2.215
X5.415Y-3.145
X5.605Y-2.385
X5.705Y-3.14
T2
X5.1806Y-2.8061
X5.1806Y-2.8848
X5.1806Y-2.9635
X5.2594Y-2.8061
X5.2594Y-2.8848
X5.2594Y-2.9635
T3
X5.12Y-2.5801
X5.22Y-2.5801
X5.32Y-2.5801
X5.42Y-2.5801
X5.52Y-2.5801
T4
X1.8173Y-3.0585
X1.8173Y-3.1373
X1.8173Y-3.216
X1.896Y-3.0585
X1.896Y-3.1373
X1.896Y-3.216
X2.45Y-3.35
X2.45Y-3.4287
X2.45Y-3.5075
X3.47Y-2.46
X3.47Y-3.06
X3.57Y-2.46
X3.57Y-3.06
X3.67Y-2.46
X3.67Y-3.06
X3.77Y-2.46
X3.77Y-3.06
X3.87Y-2.46
X3.87Y-3.06
X3.97Y-2.46
X3.97Y-2.56
X3.97Y-2.66
X3.97Y-2.76
X3.97Y-2.86
X3.97Y-2.96
X3.97Y-3.06
X4.07Y-2.46
X4.07Y-3.06
X4.17Y-2.46
X4.17Y-3.06
X4.27Y-2.46
X4.27Y-3.06
X4.37Y-2.46
X4.37Y-3.06
X4.47Y-2.46
X4.47Y-3.06
X4.57Y-2.46
X4.57Y-3.06
X4.67Y-2.46
X4.67Y-3.06
X4.77Y-2.46
X4.77Y-3.06
X4.87Y-2.46
X4.87Y-3.06
X4.97Y-2.46
X4.97Y-3.06
X5.07Y-2.46
X5.07Y-3.06
X5.17Y-2.46
X5.17Y-3.06
X5.27Y-2.46
X5.27Y-3.06
X5.37Y-2.46
X5.37Y-3.06
X5.47Y-2.46
X5.47Y-3.06
X5.57Y-2.46
X5.57Y-3.06
X5.67Y-2.46
X5.67Y-2.96
X5.67Y-3.06
X5.77Y-2.46
X5.77Y-3.06
T5
X1.914Y-2.6
X1.914Y-2.7
X1.914Y-2.8
X2.654Y-2.6
X2.654Y-2.7
X2.654Y-2.8
X2.85Y-3.09
X2.95Y-3.09
X3.05Y-3.09
T6
X1.5918Y-3.1121
X1.5918Y-3.2121
X1.5918Y-3.3121
X1.5918Y-3.4121
X1.6918Y-3.1621
X1.6918Y-3.2621
X1.6918Y-3.3621
X1.6918Y-3.4621
T7
X2.227Y-1.602
X2.227Y-1.72
X2.345Y-1.602
X2.345Y-1.72
X2.463Y-1.602
X2.463Y-1.72
X2.827Y-1.602
X2.827Y-1.72
X2.945Y-1.602
X2.945Y-1.72
X3.063Y-1.602
X3.063Y-1.72
X3.427Y-1.602
X3.427Y-1.72
X3.545Y-1.602
X3.545Y-1.72
X3.663Y-1.602
X3.663Y-1.72
X4.027Y-1.602
X4.027Y-1.72
X4.145Y-1.602
X4.145Y-1.72
X4.263Y-1.602
X4.263Y-1.72
T8
X1.1418Y-3.0381
X1.1418Y-3.4361
X1.2123Y-3.1381
X1.2123Y-3.5361
T9
X2.45Y-3.2673
X2.45Y-3.5902
T10
X1.4619Y-2.977
X1.4619Y-3.5971
T11
X2.345Y-1.442
X2.945Y-1.442
X3.545Y-1.442
X4.145Y-1.442
T12
X1.3418Y-3.0621
X1.3418Y-3.5121
T13
X1.24Y-2.06
X1.55Y-2.06
X1.86Y-2.06
T0
M30
