G04 #@! TF.GenerationSoftware,KiCad,Pcbnew,(6.0.7)*
G04 #@! TF.CreationDate,2022-11-19T15:08:40-06:00*
G04 #@! TF.ProjectId,Gimbal_Board_2023,47696d62-616c-45f4-926f-6172645f3230,rev?*
G04 #@! TF.SameCoordinates,Original*
G04 #@! TF.FileFunction,Soldermask,Top*
G04 #@! TF.FilePolarity,Negative*
%FSLAX46Y46*%
G04 Gerber Fmt 4.6, Leading zero omitted, Abs format (unit mm)*
G04 Created by KiCad (PCBNEW (6.0.7)) date 2022-11-19 15:08:40*
%MOMM*%
%LPD*%
G01*
G04 APERTURE LIST*
G04 Aperture macros list*
%AMRoundRect*
0 Rectangle with rounded corners*
0 $1 Rounding radius*
0 $2 $3 $4 $5 $6 $7 $8 $9 X,Y pos of 4 corners*
0 Add a 4 corners polygon primitive as box body*
4,1,4,$2,$3,$4,$5,$6,$7,$8,$9,$2,$3,0*
0 Add four circle primitives for the rounded corners*
1,1,$1+$1,$2,$3*
1,1,$1+$1,$4,$5*
1,1,$1+$1,$6,$7*
1,1,$1+$1,$8,$9*
0 Add four rect primitives between the rounded corners*
20,1,$1+$1,$2,$3,$4,$5,0*
20,1,$1+$1,$4,$5,$6,$7,0*
20,1,$1+$1,$6,$7,$8,$9,0*
20,1,$1+$1,$8,$9,$2,$3,0*%
G04 Aperture macros list end*
%ADD10RoundRect,0.237500X-0.287500X-0.237500X0.287500X-0.237500X0.287500X0.237500X-0.287500X0.237500X0*%
%ADD11RoundRect,0.150000X-0.150000X0.587500X-0.150000X-0.587500X0.150000X-0.587500X0.150000X0.587500X0*%
%ADD12RoundRect,0.237500X0.250000X0.237500X-0.250000X0.237500X-0.250000X-0.237500X0.250000X-0.237500X0*%
%ADD13RoundRect,0.237500X-0.250000X-0.237500X0.250000X-0.237500X0.250000X0.237500X-0.250000X0.237500X0*%
%ADD14R,1.500000X2.500000*%
%ADD15O,1.500000X2.500000*%
%ADD16R,2.750000X1.000000*%
%ADD17C,3.450000*%
%ADD18C,1.524000*%
%ADD19RoundRect,0.237500X0.287500X0.237500X-0.287500X0.237500X-0.287500X-0.237500X0.287500X-0.237500X0*%
%ADD20RoundRect,0.237500X-0.237500X0.300000X-0.237500X-0.300000X0.237500X-0.300000X0.237500X0.300000X0*%
%ADD21O,3.000000X5.100000*%
%ADD22RoundRect,0.237500X0.237500X-0.300000X0.237500X0.300000X-0.237500X0.300000X-0.237500X-0.300000X0*%
%ADD23RoundRect,0.237500X-0.300000X-0.237500X0.300000X-0.237500X0.300000X0.237500X-0.300000X0.237500X0*%
%ADD24RoundRect,0.237500X0.237500X-0.250000X0.237500X0.250000X-0.237500X0.250000X-0.237500X-0.250000X0*%
%ADD25R,1.350000X1.350000*%
%ADD26O,1.350000X1.350000*%
%ADD27C,1.100000*%
%ADD28C,1.400000*%
%ADD29C,4.000000*%
%ADD30C,2.000000*%
%ADD31C,1.308000*%
%ADD32C,1.258000*%
%ADD33C,1.208000*%
%ADD34O,2.200000X3.500000*%
%ADD35RoundRect,0.237500X0.237500X-0.287500X0.237500X0.287500X-0.237500X0.287500X-0.237500X-0.287500X0*%
G04 APERTURE END LIST*
D10*
X106059000Y-54102000D03*
X107809000Y-54102000D03*
D11*
X140650000Y-66959000D03*
X138750000Y-66959000D03*
X139700000Y-68834000D03*
D12*
X168148000Y-54102000D03*
X166323000Y-54102000D03*
D13*
X159625500Y-64516000D03*
X161450500Y-64516000D03*
D14*
X93579500Y-43702000D03*
D15*
X96119500Y-43702000D03*
X98659500Y-43702000D03*
D16*
X116246000Y-56674000D03*
X122006000Y-56674000D03*
X122006000Y-60674000D03*
X116246000Y-60674000D03*
D11*
X165833500Y-66880500D03*
X163933500Y-66880500D03*
X164883500Y-68755500D03*
D10*
X134525000Y-66626500D03*
X136275000Y-66626500D03*
D17*
X117068600Y-40792400D03*
X109448600Y-40792400D03*
D18*
X110718600Y-49428400D03*
X113258600Y-49428400D03*
X115798600Y-49428400D03*
D13*
X171911000Y-64426500D03*
X173736000Y-64426500D03*
D12*
X138176000Y-54102000D03*
X136351000Y-54102000D03*
D13*
X130339500Y-64516000D03*
X132164500Y-64516000D03*
D17*
X123469400Y-40792400D03*
X146329400Y-40792400D03*
D18*
X124739400Y-49428400D03*
X127279400Y-49428400D03*
X129819400Y-49428400D03*
X132359400Y-49428400D03*
X134899400Y-49428400D03*
X137439400Y-49428400D03*
X139979400Y-49428400D03*
X142519400Y-49428400D03*
X145059400Y-49428400D03*
D10*
X105043000Y-66548000D03*
X106793000Y-66548000D03*
X151411000Y-66626500D03*
X153161000Y-66626500D03*
D16*
X161884000Y-56706000D03*
X156124000Y-56706000D03*
X156124000Y-60706000D03*
X161884000Y-60706000D03*
D19*
X161643000Y-54102000D03*
X159893000Y-54102000D03*
D13*
X134535500Y-64594500D03*
X136360500Y-64594500D03*
D12*
X148082000Y-54102000D03*
X146257000Y-54102000D03*
D13*
X142955000Y-64516000D03*
X144780000Y-64516000D03*
D20*
X100330000Y-51387500D03*
X100330000Y-53112500D03*
D16*
X106086000Y-56738000D03*
X111846000Y-56738000D03*
X106086000Y-60738000D03*
X111846000Y-60738000D03*
D19*
X131658000Y-54102000D03*
X129908000Y-54102000D03*
D13*
X109577500Y-54102000D03*
X111402500Y-54102000D03*
D21*
X82485200Y-45339000D03*
X82485200Y-53213000D03*
D12*
X128166500Y-54102000D03*
X126341500Y-54102000D03*
D13*
X138787500Y-64594500D03*
X140612500Y-64594500D03*
X151373500Y-64594500D03*
X153198500Y-64594500D03*
D22*
X95250000Y-53112500D03*
X95250000Y-51387500D03*
D16*
X151978000Y-56706000D03*
X146218000Y-56706000D03*
X151978000Y-60706000D03*
X146218000Y-60706000D03*
D10*
X142992500Y-66802000D03*
X144742500Y-66802000D03*
D19*
X121525000Y-54102000D03*
X119775000Y-54102000D03*
X116445000Y-71882000D03*
X114695000Y-71882000D03*
D11*
X149135500Y-66880500D03*
X147235500Y-66880500D03*
X148185500Y-68755500D03*
D23*
X87404000Y-75473500D03*
X89129000Y-75473500D03*
D13*
X147273000Y-64516000D03*
X149098000Y-64516000D03*
D10*
X85485000Y-51054000D03*
X87235000Y-51054000D03*
D19*
X152005000Y-54102000D03*
X150255000Y-54102000D03*
D24*
X103250000Y-47162500D03*
X103250000Y-45337500D03*
D19*
X142099000Y-54102000D03*
X140349000Y-54102000D03*
D13*
X105005500Y-64516000D03*
X106830500Y-64516000D03*
D25*
X87316500Y-63401500D03*
D26*
X89316500Y-63401500D03*
X87316500Y-65401500D03*
X89316500Y-65401500D03*
X87316500Y-67401500D03*
X89316500Y-67401500D03*
D13*
X109323500Y-64516000D03*
X111148500Y-64516000D03*
X120245500Y-70104000D03*
X122070500Y-70104000D03*
X89220000Y-56325000D03*
X91045000Y-56325000D03*
D11*
X111186000Y-66880500D03*
X109286000Y-66880500D03*
X110236000Y-68755500D03*
D19*
X122033000Y-71882000D03*
X120283000Y-71882000D03*
D27*
X81611000Y-64932500D03*
X84151000Y-66202500D03*
X81611000Y-67472500D03*
X84151000Y-68742500D03*
X81611000Y-70012500D03*
X84151000Y-71282500D03*
X81611000Y-72552500D03*
X84151000Y-73822500D03*
D28*
X70181000Y-63052500D03*
X71971000Y-65592500D03*
X70181000Y-73162500D03*
X71971000Y-75702500D03*
D29*
X75261000Y-63662500D03*
X75261000Y-75092500D03*
D30*
X78311000Y-77252500D03*
X78311000Y-61502500D03*
D13*
X163933500Y-64516000D03*
X165758500Y-64516000D03*
D11*
X132202000Y-66880500D03*
X130302000Y-66880500D03*
X131252000Y-68755500D03*
D12*
X157870500Y-54102000D03*
X156045500Y-54102000D03*
D10*
X168002000Y-66458500D03*
X169752000Y-66458500D03*
D16*
X126406000Y-56674000D03*
X132166000Y-56674000D03*
X126406000Y-60674000D03*
X132166000Y-60674000D03*
D13*
X155805500Y-64594500D03*
X157630500Y-64594500D03*
D31*
X163479988Y-75705487D03*
X160939988Y-75705487D03*
X158399988Y-75705487D03*
X155859988Y-75705487D03*
X130459988Y-75705487D03*
X160939988Y-90945487D03*
X120299988Y-80785487D03*
X153319988Y-75705487D03*
X150779988Y-75705487D03*
D32*
X159669988Y-78755487D03*
D31*
X148239988Y-75705487D03*
X145699988Y-75705487D03*
X143159988Y-75705487D03*
X140619988Y-75705487D03*
X138079988Y-75705487D03*
X135539988Y-75705487D03*
X132999988Y-75705487D03*
X132999988Y-90945487D03*
X135539988Y-90945487D03*
X138079988Y-90945487D03*
X140619988Y-90945487D03*
X143159988Y-90945487D03*
X145699988Y-90945487D03*
X148239988Y-90945487D03*
X150779988Y-90945487D03*
X153319988Y-90945487D03*
X155859988Y-90945487D03*
X158399988Y-90945487D03*
X127919988Y-75705487D03*
X125379988Y-75705487D03*
X122839988Y-75705487D03*
X120299988Y-75705487D03*
X117759988Y-75705487D03*
X115219988Y-75705487D03*
X112679988Y-75705487D03*
X110139988Y-75705487D03*
X107599988Y-75705487D03*
X107599988Y-90945487D03*
X110139988Y-90945487D03*
X112679988Y-90945487D03*
X115219988Y-90945487D03*
X117759988Y-90945487D03*
X120299988Y-90945487D03*
X122839988Y-90945487D03*
X125379988Y-90945487D03*
X127919988Y-90945487D03*
D32*
X154589988Y-78755487D03*
X157129988Y-78755487D03*
D31*
X166019988Y-75705487D03*
X130459988Y-90945487D03*
X163479988Y-90945487D03*
X120299988Y-83325487D03*
D33*
X151049988Y-86495487D03*
X153049988Y-86495487D03*
D31*
X120299988Y-88405487D03*
X120299988Y-85865487D03*
D33*
X153049988Y-88495487D03*
X151049988Y-88495487D03*
X151049988Y-84495487D03*
X153049988Y-84495487D03*
D32*
X152049988Y-78755487D03*
X149509988Y-78755487D03*
D31*
X120299988Y-78245487D03*
X166019988Y-90945487D03*
X163479988Y-88405487D03*
D13*
X167964500Y-64426500D03*
X169789500Y-64426500D03*
D11*
X173811000Y-66712500D03*
X171911000Y-66712500D03*
X172861000Y-68587500D03*
D19*
X171860500Y-54102000D03*
X170110500Y-54102000D03*
D12*
X118006500Y-54102000D03*
X116181500Y-54102000D03*
D18*
X95250000Y-55499000D03*
X97790000Y-55499000D03*
X100330000Y-55499000D03*
D11*
X157668000Y-66880500D03*
X155768000Y-66880500D03*
X156718000Y-68755500D03*
D16*
X166284000Y-60674000D03*
X172044000Y-60674000D03*
X166284000Y-56674000D03*
X172044000Y-56674000D03*
D17*
X151384000Y-40767000D03*
X174244000Y-40767000D03*
D18*
X152654000Y-49403000D03*
X155194000Y-49403000D03*
X157734000Y-49403000D03*
X160274000Y-49403000D03*
X162814000Y-49403000D03*
X165354000Y-49403000D03*
X167894000Y-49403000D03*
X170434000Y-49403000D03*
X172974000Y-49403000D03*
D13*
X126172000Y-64516000D03*
X127997000Y-64516000D03*
X114749500Y-70132000D03*
X116574500Y-70132000D03*
D16*
X136312000Y-56706000D03*
X142072000Y-56706000D03*
X142072000Y-60706000D03*
X136312000Y-60706000D03*
D34*
X114202000Y-66112500D03*
X122402000Y-66112500D03*
D14*
X120302000Y-66112500D03*
D15*
X118302000Y-66112500D03*
X116302000Y-66112500D03*
D35*
X101250000Y-48875000D03*
X101250000Y-47125000D03*
D10*
X159663000Y-66548000D03*
X161413000Y-66548000D03*
D12*
X87272500Y-53086000D03*
X85447500Y-53086000D03*
D19*
X90970000Y-57976000D03*
X89220000Y-57976000D03*
D10*
X126209500Y-66548000D03*
X127959500Y-66548000D03*
M02*
