M48
; DRILL file {KiCad (6.0.7)} date Sat Nov 19 15:08:50 2022
; FORMAT={-:-/ absolute / metric / decimal}
; #@! TF.CreationDate,2022-11-19T15:08:50-06:00
; #@! TF.GenerationSoftware,Kicad,Pcbnew,(6.0.7)
; #@! TF.FileFunction,Plated,1,2,PTH
FMAT,2
METRIC
; #@! TA.AperFunction,Plated,PTH,ViaDrill
T1C0.400
; #@! TA.AperFunction,Plated,PTH,ComponentDrill
T2C0.700
; #@! TA.AperFunction,Plated,PTH,ComponentDrill
T3C0.750
; #@! TA.AperFunction,Plated,PTH,ComponentDrill
T4C0.762
; #@! TA.AperFunction,Plated,PTH,ComponentDrill
T5C0.800
; #@! TA.AperFunction,Plated,PTH,ComponentDrill
T6C0.889
; #@! TA.AperFunction,Plated,PTH,ComponentDrill
T7C0.900
; #@! TA.AperFunction,Plated,PTH,ComponentDrill
T8C1.000
; #@! TA.AperFunction,Plated,PTH,ComponentDrill
T9C1.020
; #@! TA.AperFunction,Plated,PTH,ComponentDrill
T10C1.500
; #@! TA.AperFunction,Plated,PTH,ComponentDrill
T11C1.600
; #@! TA.AperFunction,Plated,PTH,ComponentDrill
T12C2.000
; #@! TA.AperFunction,Plated,PTH,ComponentDrill
T13C3.250
%
G90
G05
T1
X103.886Y-51.562
X103.886Y-61.468
X104.648Y-70.104
X108.204Y-64.262
X114.046Y-55.372
X114.046Y-59.436
X115.316Y-55.118
X115.316Y-59.436
X118.364Y-59.182
X123.698Y-71.12
X124.714Y-55.118
X124.714Y-59.69
X129.794Y-63.5
X129.794Y-70.358
X130.9Y-73.876
X132.08Y-86.106
X132.842Y-69.088
X133.35Y-80.772
X134.62Y-55.372
X134.62Y-59.69
X137.668Y-64.262
X138.176Y-70.866
X141.224Y-69.088
X144.78Y-55.372
X144.78Y-59.69
X146.558Y-63.754
X146.818Y-70.606
X149.86Y-69.088
X153.416Y-59.182
X153.67Y-55.118
X155.194Y-64.262
X155.194Y-69.088
X158.242Y-69.088
X162.814Y-64.262
X162.814Y-69.596
X164.592Y-55.372
X164.592Y-58.928
X166.37Y-69.088
X170.434Y-73.152
X172.974Y-62.992
X174.244Y-69.088
T2
X151.05Y-84.495
X151.05Y-86.495
X151.05Y-88.495
X153.05Y-84.495
X153.05Y-86.495
X153.05Y-88.495
T3
X149.51Y-78.755
X152.05Y-78.755
X154.59Y-78.755
X157.13Y-78.755
X159.67Y-78.755
T4
X115.799Y-49.428
T5
X87.316Y-63.401
X87.316Y-65.401
X87.316Y-67.401
X89.316Y-63.401
X89.316Y-65.401
X89.316Y-67.401
X107.6Y-75.705
X107.6Y-90.945
X110.14Y-75.705
X110.14Y-90.945
X112.68Y-75.705
X112.68Y-90.945
X115.22Y-75.705
X115.22Y-90.945
X116.302Y-66.112
X117.76Y-75.705
X117.76Y-90.945
X118.302Y-66.112
X120.3Y-75.705
X120.3Y-78.245
X120.3Y-80.785
X120.3Y-83.325
X120.3Y-85.865
X120.3Y-88.405
X120.3Y-90.945
X120.302Y-66.112
X122.84Y-75.705
X122.84Y-90.945
X125.38Y-75.705
X125.38Y-90.945
X127.92Y-75.705
X127.92Y-90.945
X130.46Y-75.705
X130.46Y-90.945
X133.0Y-75.705
X133.0Y-90.945
X135.54Y-75.705
X135.54Y-90.945
X138.08Y-75.705
X138.08Y-90.945
X140.62Y-75.705
X140.62Y-90.945
X143.16Y-75.705
X143.16Y-90.945
X145.7Y-75.705
X145.7Y-90.945
X148.24Y-75.705
X148.24Y-90.945
X150.78Y-75.705
X150.78Y-90.945
X153.32Y-75.705
X153.32Y-90.945
X155.86Y-75.705
X155.86Y-90.945
X158.4Y-75.705
X158.4Y-90.945
X160.94Y-75.705
X160.94Y-90.945
X163.48Y-75.705
X163.48Y-88.405
X163.48Y-90.945
X166.02Y-75.705
X166.02Y-90.945
T6
X95.25Y-55.499
X97.79Y-55.499
X100.33Y-55.499
T7
X81.611Y-64.932
X81.611Y-67.472
X81.611Y-70.013
X81.611Y-72.552
X84.151Y-66.203
X84.151Y-68.742
X84.151Y-71.282
X84.151Y-73.822
X110.719Y-49.428
X113.259Y-49.428
X124.739Y-49.428
X127.279Y-49.428
X129.819Y-49.428
X132.359Y-49.428
X134.899Y-49.428
X137.439Y-49.428
X139.979Y-49.428
X142.519Y-49.428
X145.059Y-49.428
X152.654Y-49.403
X155.194Y-49.403
X157.734Y-49.403
X160.274Y-49.403
X162.814Y-49.403
X165.354Y-49.403
X167.894Y-49.403
X170.434Y-49.403
X172.974Y-49.403
T8
X93.579Y-43.702
X96.12Y-43.702
X98.659Y-43.702
T9
X70.181Y-63.052
X70.181Y-73.162
X71.971Y-65.593
X71.971Y-75.703
T10
X114.202Y-66.112
X122.402Y-66.112
T11
X78.311Y-61.502
X78.311Y-77.252
T13
X75.261Y-63.662
X75.261Y-75.093
T12
X82.485Y-44.289G85X82.485Y-46.389
G05
X82.485Y-52.163G85X82.485Y-54.263
G05
T0
M30
