G04 #@! TF.GenerationSoftware,KiCad,Pcbnew,(6.0.7)*
G04 #@! TF.CreationDate,2022-11-19T15:08:40-06:00*
G04 #@! TF.ProjectId,Gimbal_Board_2023,47696d62-616c-45f4-926f-6172645f3230,rev?*
G04 #@! TF.SameCoordinates,Original*
G04 #@! TF.FileFunction,Soldermask,Bot*
G04 #@! TF.FilePolarity,Negative*
%FSLAX46Y46*%
G04 Gerber Fmt 4.6, Leading zero omitted, Abs format (unit mm)*
G04 Created by KiCad (PCBNEW (6.0.7)) date 2022-11-19 15:08:40*
%MOMM*%
%LPD*%
G01*
G04 APERTURE LIST*
%ADD10R,1.500000X2.500000*%
%ADD11O,1.500000X2.500000*%
%ADD12C,3.450000*%
%ADD13C,1.524000*%
%ADD14O,3.000000X5.100000*%
%ADD15R,1.350000X1.350000*%
%ADD16O,1.350000X1.350000*%
%ADD17C,1.100000*%
%ADD18C,1.400000*%
%ADD19C,4.000000*%
%ADD20C,2.000000*%
%ADD21C,1.308000*%
%ADD22C,1.258000*%
%ADD23C,1.208000*%
%ADD24O,2.200000X3.500000*%
G04 APERTURE END LIST*
D10*
X93579500Y-43702000D03*
D11*
X96119500Y-43702000D03*
X98659500Y-43702000D03*
D12*
X117068600Y-40792400D03*
X109448600Y-40792400D03*
D13*
X110718600Y-49428400D03*
X113258600Y-49428400D03*
X115798600Y-49428400D03*
D12*
X123469400Y-40792400D03*
X146329400Y-40792400D03*
D13*
X124739400Y-49428400D03*
X127279400Y-49428400D03*
X129819400Y-49428400D03*
X132359400Y-49428400D03*
X134899400Y-49428400D03*
X137439400Y-49428400D03*
X139979400Y-49428400D03*
X142519400Y-49428400D03*
X145059400Y-49428400D03*
D14*
X82485200Y-45339000D03*
X82485200Y-53213000D03*
D15*
X87316500Y-63401500D03*
D16*
X89316500Y-63401500D03*
X87316500Y-65401500D03*
X89316500Y-65401500D03*
X87316500Y-67401500D03*
X89316500Y-67401500D03*
D17*
X81611000Y-64932500D03*
X84151000Y-66202500D03*
X81611000Y-67472500D03*
X84151000Y-68742500D03*
X81611000Y-70012500D03*
X84151000Y-71282500D03*
X81611000Y-72552500D03*
X84151000Y-73822500D03*
D18*
X70181000Y-63052500D03*
X71971000Y-65592500D03*
X70181000Y-73162500D03*
X71971000Y-75702500D03*
D19*
X75261000Y-63662500D03*
X75261000Y-75092500D03*
D20*
X78311000Y-77252500D03*
X78311000Y-61502500D03*
D21*
X163479988Y-75705487D03*
X160939988Y-75705487D03*
X158399988Y-75705487D03*
X155859988Y-75705487D03*
X130459988Y-75705487D03*
X160939988Y-90945487D03*
X120299988Y-80785487D03*
X153319988Y-75705487D03*
X150779988Y-75705487D03*
D22*
X159669988Y-78755487D03*
D21*
X148239988Y-75705487D03*
X145699988Y-75705487D03*
X143159988Y-75705487D03*
X140619988Y-75705487D03*
X138079988Y-75705487D03*
X135539988Y-75705487D03*
X132999988Y-75705487D03*
X132999988Y-90945487D03*
X135539988Y-90945487D03*
X138079988Y-90945487D03*
X140619988Y-90945487D03*
X143159988Y-90945487D03*
X145699988Y-90945487D03*
X148239988Y-90945487D03*
X150779988Y-90945487D03*
X153319988Y-90945487D03*
X155859988Y-90945487D03*
X158399988Y-90945487D03*
X127919988Y-75705487D03*
X125379988Y-75705487D03*
X122839988Y-75705487D03*
X120299988Y-75705487D03*
X117759988Y-75705487D03*
X115219988Y-75705487D03*
X112679988Y-75705487D03*
X110139988Y-75705487D03*
X107599988Y-75705487D03*
X107599988Y-90945487D03*
X110139988Y-90945487D03*
X112679988Y-90945487D03*
X115219988Y-90945487D03*
X117759988Y-90945487D03*
X120299988Y-90945487D03*
X122839988Y-90945487D03*
X125379988Y-90945487D03*
X127919988Y-90945487D03*
D22*
X154589988Y-78755487D03*
X157129988Y-78755487D03*
D21*
X166019988Y-75705487D03*
X130459988Y-90945487D03*
X163479988Y-90945487D03*
X120299988Y-83325487D03*
D23*
X151049988Y-86495487D03*
X153049988Y-86495487D03*
D21*
X120299988Y-88405487D03*
X120299988Y-85865487D03*
D23*
X153049988Y-88495487D03*
X151049988Y-88495487D03*
X151049988Y-84495487D03*
X153049988Y-84495487D03*
D22*
X152049988Y-78755487D03*
X149509988Y-78755487D03*
D21*
X120299988Y-78245487D03*
X166019988Y-90945487D03*
X163479988Y-88405487D03*
D13*
X95250000Y-55499000D03*
X97790000Y-55499000D03*
X100330000Y-55499000D03*
D12*
X151384000Y-40767000D03*
X174244000Y-40767000D03*
D13*
X152654000Y-49403000D03*
X155194000Y-49403000D03*
X157734000Y-49403000D03*
X160274000Y-49403000D03*
X162814000Y-49403000D03*
X165354000Y-49403000D03*
X167894000Y-49403000D03*
X170434000Y-49403000D03*
X172974000Y-49403000D03*
D24*
X114202000Y-66112500D03*
X122402000Y-66112500D03*
D10*
X120302000Y-66112500D03*
D11*
X118302000Y-66112500D03*
X116302000Y-66112500D03*
M02*
