M48
; DRILL file {KiCad (5.1.4)-1} date 11/30/2020 1:37:14 PM
; FORMAT={-:-/ absolute / inch / decimal}
; #@! TF.CreationDate,2020-11-30T13:37:14-06:00
; #@! TF.GenerationSoftware,Kicad,Pcbnew,(5.1.4)-1
; #@! TF.FileFunction,Plated,1,2,PTH
FMAT,2
INCH
T1C0.0157
T2C0.0300
T3C0.0350
T4C0.0354
T5C0.0394
T6C0.0591
T7C0.1598
%
G90
G05
T1
X2.1Y-4.3335
X2.35Y-4.3335
X2.54Y-3.2411
X2.54Y-3.6189
X2.6Y-4.3335
X2.85Y-4.3335
X3.1Y-4.3335
X3.28Y-3.5711
X3.35Y-4.3335
X3.6Y-4.3335
X3.8431Y-4.3335
X4.26Y-2.8
X4.27Y-3.6022
X4.67Y-4.355
T2
X5.85Y-2.52
X5.25Y-2.52
X6.45Y-2.52
X4.05Y-2.52
X4.65Y-2.52
X3.45Y-2.52
X2.25Y-2.52
X2.85Y-2.52
T3
X3.42Y-3.07
X3.52Y-3.07
X3.62Y-3.07
X3.84Y-3.07
X3.94Y-3.07
X4.04Y-3.07
X4.27Y-3.995
X4.27Y-4.095
X4.27Y-4.195
T4
X3.85Y-2.52
X3.95Y-2.52
X4.45Y-2.52
X4.55Y-2.52
X3.25Y-2.52
X3.35Y-2.52
X2.05Y-2.52
X2.15Y-2.52
X5.65Y-2.52
X5.75Y-2.52
X5.05Y-2.52
X5.15Y-2.52
X2.65Y-2.52
X2.75Y-2.52
X6.25Y-2.52
X6.35Y-2.52
X2.82Y-3.3525
X2.82Y-3.4313
X2.82Y-3.51
T5
X1.85Y-2.9
X1.85Y-3.0
X1.85Y-4.6
X1.85Y-4.7
X1.95Y-2.9
X1.95Y-3.0
X1.95Y-4.6
X1.95Y-4.7
X2.05Y-2.9
X2.05Y-3.0
X2.05Y-4.6
X2.05Y-4.7
X2.15Y-2.9
X2.15Y-3.0
X2.15Y-4.6
X2.15Y-4.7
X2.25Y-2.9
X2.25Y-3.0
X2.25Y-4.6
X2.25Y-4.7
X2.35Y-2.9
X2.35Y-3.0
X2.35Y-4.6
X2.35Y-4.7
X2.45Y-2.9
X2.45Y-3.0
X2.45Y-4.6
X2.45Y-4.7
X2.55Y-2.9
X2.55Y-3.0
X2.55Y-4.6
X2.55Y-4.7
X2.65Y-2.9
X2.65Y-3.0
X2.65Y-4.6
X2.65Y-4.7
X2.75Y-2.9
X2.75Y-3.0
X2.75Y-4.6
X2.75Y-4.7
X4.35Y-2.9
X4.35Y-3.0
X4.35Y-4.6
X4.35Y-4.7
X4.45Y-2.9
X4.45Y-3.0
X4.45Y-4.6
X4.45Y-4.7
X4.55Y-2.9
X4.55Y-3.0
X4.55Y-4.6
X4.55Y-4.7
X4.65Y-2.9
X4.65Y-3.0
X4.65Y-4.6
X4.65Y-4.7
X4.75Y-2.9
X4.75Y-3.0
X4.75Y-4.6
X4.75Y-4.7
X4.85Y-2.9
X4.85Y-3.0
X4.85Y-4.6
X4.85Y-4.7
X4.95Y-2.9
X4.95Y-3.0
X4.95Y-4.6
X4.95Y-4.7
X5.05Y-2.9
X5.05Y-3.0
X5.05Y-4.6
X5.05Y-4.7
X5.15Y-2.9
X5.15Y-3.0
X5.15Y-4.6
X5.15Y-4.7
X5.25Y-2.9
X5.25Y-3.0
X5.25Y-4.6
X5.25Y-4.7
T6
X2.82Y-3.2698
X2.82Y-3.5927
T7
X5.96Y-3.155
X5.96Y-3.465
X5.96Y-3.775
T0
M30
