G04 #@! TF.GenerationSoftware,KiCad,Pcbnew,(6.0.7)*
G04 #@! TF.CreationDate,2022-11-19T15:08:40-06:00*
G04 #@! TF.ProjectId,Gimbal_Board_2023,47696d62-616c-45f4-926f-6172645f3230,rev?*
G04 #@! TF.SameCoordinates,Original*
G04 #@! TF.FileFunction,Paste,Top*
G04 #@! TF.FilePolarity,Positive*
%FSLAX46Y46*%
G04 Gerber Fmt 4.6, Leading zero omitted, Abs format (unit mm)*
G04 Created by KiCad (PCBNEW (6.0.7)) date 2022-11-19 15:08:40*
%MOMM*%
%LPD*%
G01*
G04 APERTURE LIST*
G04 Aperture macros list*
%AMRoundRect*
0 Rectangle with rounded corners*
0 $1 Rounding radius*
0 $2 $3 $4 $5 $6 $7 $8 $9 X,Y pos of 4 corners*
0 Add a 4 corners polygon primitive as box body*
4,1,4,$2,$3,$4,$5,$6,$7,$8,$9,$2,$3,0*
0 Add four circle primitives for the rounded corners*
1,1,$1+$1,$2,$3*
1,1,$1+$1,$4,$5*
1,1,$1+$1,$6,$7*
1,1,$1+$1,$8,$9*
0 Add four rect primitives between the rounded corners*
20,1,$1+$1,$2,$3,$4,$5,0*
20,1,$1+$1,$4,$5,$6,$7,0*
20,1,$1+$1,$6,$7,$8,$9,0*
20,1,$1+$1,$8,$9,$2,$3,0*%
G04 Aperture macros list end*
%ADD10RoundRect,0.237500X-0.287500X-0.237500X0.287500X-0.237500X0.287500X0.237500X-0.287500X0.237500X0*%
%ADD11RoundRect,0.150000X-0.150000X0.587500X-0.150000X-0.587500X0.150000X-0.587500X0.150000X0.587500X0*%
%ADD12RoundRect,0.237500X0.250000X0.237500X-0.250000X0.237500X-0.250000X-0.237500X0.250000X-0.237500X0*%
%ADD13RoundRect,0.237500X-0.250000X-0.237500X0.250000X-0.237500X0.250000X0.237500X-0.250000X0.237500X0*%
%ADD14R,2.750000X1.000000*%
%ADD15RoundRect,0.237500X0.287500X0.237500X-0.287500X0.237500X-0.287500X-0.237500X0.287500X-0.237500X0*%
%ADD16RoundRect,0.237500X-0.237500X0.300000X-0.237500X-0.300000X0.237500X-0.300000X0.237500X0.300000X0*%
%ADD17RoundRect,0.237500X0.237500X-0.300000X0.237500X0.300000X-0.237500X0.300000X-0.237500X-0.300000X0*%
%ADD18RoundRect,0.237500X-0.300000X-0.237500X0.300000X-0.237500X0.300000X0.237500X-0.300000X0.237500X0*%
%ADD19RoundRect,0.237500X0.237500X-0.250000X0.237500X0.250000X-0.237500X0.250000X-0.237500X-0.250000X0*%
%ADD20RoundRect,0.237500X0.237500X-0.287500X0.237500X0.287500X-0.237500X0.287500X-0.237500X-0.287500X0*%
G04 APERTURE END LIST*
D10*
X106059000Y-54102000D03*
X107809000Y-54102000D03*
D11*
X140650000Y-66959000D03*
X138750000Y-66959000D03*
X139700000Y-68834000D03*
D12*
X168148000Y-54102000D03*
X166323000Y-54102000D03*
D13*
X159625500Y-64516000D03*
X161450500Y-64516000D03*
D14*
X116246000Y-56674000D03*
X122006000Y-56674000D03*
X122006000Y-60674000D03*
X116246000Y-60674000D03*
D11*
X165833500Y-66880500D03*
X163933500Y-66880500D03*
X164883500Y-68755500D03*
D10*
X134525000Y-66626500D03*
X136275000Y-66626500D03*
D13*
X171911000Y-64426500D03*
X173736000Y-64426500D03*
D12*
X138176000Y-54102000D03*
X136351000Y-54102000D03*
D13*
X130339500Y-64516000D03*
X132164500Y-64516000D03*
D10*
X105043000Y-66548000D03*
X106793000Y-66548000D03*
X151411000Y-66626500D03*
X153161000Y-66626500D03*
D14*
X161884000Y-56706000D03*
X156124000Y-56706000D03*
X156124000Y-60706000D03*
X161884000Y-60706000D03*
D15*
X161643000Y-54102000D03*
X159893000Y-54102000D03*
D13*
X134535500Y-64594500D03*
X136360500Y-64594500D03*
D12*
X148082000Y-54102000D03*
X146257000Y-54102000D03*
D13*
X142955000Y-64516000D03*
X144780000Y-64516000D03*
D16*
X100330000Y-51387500D03*
X100330000Y-53112500D03*
D14*
X106086000Y-56738000D03*
X111846000Y-56738000D03*
X106086000Y-60738000D03*
X111846000Y-60738000D03*
D15*
X131658000Y-54102000D03*
X129908000Y-54102000D03*
D13*
X109577500Y-54102000D03*
X111402500Y-54102000D03*
D12*
X128166500Y-54102000D03*
X126341500Y-54102000D03*
D13*
X138787500Y-64594500D03*
X140612500Y-64594500D03*
X151373500Y-64594500D03*
X153198500Y-64594500D03*
D17*
X95250000Y-53112500D03*
X95250000Y-51387500D03*
D14*
X151978000Y-56706000D03*
X146218000Y-56706000D03*
X151978000Y-60706000D03*
X146218000Y-60706000D03*
D10*
X142992500Y-66802000D03*
X144742500Y-66802000D03*
D15*
X121525000Y-54102000D03*
X119775000Y-54102000D03*
X116445000Y-71882000D03*
X114695000Y-71882000D03*
D11*
X149135500Y-66880500D03*
X147235500Y-66880500D03*
X148185500Y-68755500D03*
D18*
X87404000Y-75473500D03*
X89129000Y-75473500D03*
D13*
X147273000Y-64516000D03*
X149098000Y-64516000D03*
D10*
X85485000Y-51054000D03*
X87235000Y-51054000D03*
D15*
X152005000Y-54102000D03*
X150255000Y-54102000D03*
D19*
X103250000Y-47162500D03*
X103250000Y-45337500D03*
D15*
X142099000Y-54102000D03*
X140349000Y-54102000D03*
D13*
X105005500Y-64516000D03*
X106830500Y-64516000D03*
X109323500Y-64516000D03*
X111148500Y-64516000D03*
X120245500Y-70104000D03*
X122070500Y-70104000D03*
X89220000Y-56325000D03*
X91045000Y-56325000D03*
D11*
X111186000Y-66880500D03*
X109286000Y-66880500D03*
X110236000Y-68755500D03*
D15*
X122033000Y-71882000D03*
X120283000Y-71882000D03*
D13*
X163933500Y-64516000D03*
X165758500Y-64516000D03*
D11*
X132202000Y-66880500D03*
X130302000Y-66880500D03*
X131252000Y-68755500D03*
D12*
X157870500Y-54102000D03*
X156045500Y-54102000D03*
D10*
X168002000Y-66458500D03*
X169752000Y-66458500D03*
D14*
X126406000Y-56674000D03*
X132166000Y-56674000D03*
X126406000Y-60674000D03*
X132166000Y-60674000D03*
D13*
X155805500Y-64594500D03*
X157630500Y-64594500D03*
X167964500Y-64426500D03*
X169789500Y-64426500D03*
D11*
X173811000Y-66712500D03*
X171911000Y-66712500D03*
X172861000Y-68587500D03*
D15*
X171860500Y-54102000D03*
X170110500Y-54102000D03*
D12*
X118006500Y-54102000D03*
X116181500Y-54102000D03*
D11*
X157668000Y-66880500D03*
X155768000Y-66880500D03*
X156718000Y-68755500D03*
D14*
X166284000Y-60674000D03*
X172044000Y-60674000D03*
X166284000Y-56674000D03*
X172044000Y-56674000D03*
D13*
X126172000Y-64516000D03*
X127997000Y-64516000D03*
X114749500Y-70132000D03*
X116574500Y-70132000D03*
D14*
X136312000Y-56706000D03*
X142072000Y-56706000D03*
X142072000Y-60706000D03*
X136312000Y-60706000D03*
D20*
X101250000Y-48875000D03*
X101250000Y-47125000D03*
D10*
X159663000Y-66548000D03*
X161413000Y-66548000D03*
D12*
X87272500Y-53086000D03*
X85447500Y-53086000D03*
D15*
X90970000Y-57976000D03*
X89220000Y-57976000D03*
D10*
X126209500Y-66548000D03*
X127959500Y-66548000D03*
M02*
